<?xml version="1.0" encoding="utf-8"?>
<!-- Generator: Adobe Illustrator 23.0.1, SVG Export Plug-In . SVG Version: 6.00 Build 0)  -->
<svg version="1.1" id="Layer_1" xmlns="http://www.w3.org/2000/svg" xmlns:xlink="http://www.w3.org/1999/xlink" x="0px" y="0px"
	 viewBox="0 0 20 20" style="enable-background:new 0 0 20 20;" xml:space="preserve">
<title>Source/System Icons/16/Attention_16</title>
<desc>Created with Sketch.</desc>
<path d="M10,2c4.4,0,8,3.6,8,8s-3.6,8-8,8s-8-3.6-8-8S5.6,2,10,2z M10,15c0.3,0,0.5-0.1,0.7-0.3c0.2-0.2,0.3-0.4,0.3-0.7
	s-0.1-0.5-0.3-0.7C10.5,13.1,10.2,13,10,13s-0.5,0.1-0.7,0.3C9.1,13.5,9,13.7,9,14s0.1,0.5,0.3,0.7S9.8,15,10,15z M9,5v6h2V5H9z"/>
</svg>
