<?xml version="1.0" encoding="utf-8"?>
<!-- Generator: Adobe Illustrator 25.0.1, SVG Export Plug-In . SVG Version: 6.00 Build 0)  -->
<svg version="1.1" id="Layer_1" xmlns="http://www.w3.org/2000/svg" xmlns:xlink="http://www.w3.org/1999/xlink" x="0px" y="0px"
	 viewBox="0 0 20 20"  xml:space="preserve">
<path d="M16,3H8C7.4,3,7,3.4,7,4v1H6V4c0-1.1,0.9-2,2-2h8c1.1,0,2,0.9,2,2v8c0,1.1-0.9,2-2,2h-1v-1h1c0.6,0,1-0.4,1-1V4
	C17,3.4,16.6,3,16,3z M12,7c0.6,0,1,0.4,1,1v8c0,0.6-0.4,1-1,1H4c-0.6,0-1-0.4-1-1V8c0-0.6,0.4-1,1-1H12 M12,6H4C2.8,6,2,6.8,2,8v8
	c0,1.2,0.8,2,2,2h8c1.2,0,2-0.8,2-2V8C14,6.8,13.2,6,12,6L12,6z"/>
</svg>
