<svg id="Ready" xmlns="http://www.w3.org/2000/svg" viewBox="0 0 32 32"><title>Megaicons_work_24_1.8_cp</title><path d="M16,28A12,12,0,1,0,4,16,12,12,0,0,0,16,28ZM16,6A10,10,0,1,1,6,16,10,10,0,0,1,16,6Z"/><path d="M11.34,19.34a3.32,3.32,0,0,0,2-.67l-1.2-1.6a1.37,1.37,0,0,1-1.75-.13,1.34,1.34,0,0,1,0-1.89,1.37,1.37,0,0,1,1.75-.12l1.2-1.6A3.4,3.4,0,0,0,9,13.63a3.34,3.34,0,0,0,2.36,5.7Z"/><polygon points="16 17 17 17 17 19 19 19 19 13 17 13 17 15 16 15 16 13 14 13 14 19 16 19 16 17"/><polygon points="22 15 24 15 24 13 22 13 21 13 20 13 20 19 22 19 22 15"/></svg>