<svg id="Ready" xmlns="http://www.w3.org/2000/svg" viewBox="0 0 32 32"><title>Megaicons_work_24_1.8_cp</title><path d="M12.17,13.39,15.71,24h1.54l1.43-1.56L23,26.73,26.73,23l-4.29-4.29L24,17.25V15.71L13.39,12.17Zm9.21,3.56-1.83,1.68L23.91,23,23,23.9l-4.35-4.35L17,21.38l-2.22-6.65Z"/><rect x="14" y="4" width="2" height="5"/><rect x="19.79" y="7.09" width="5.24" height="2" transform="translate(0.84 18.22) rotate(-45)"/><rect x="7.12" y="5.48" width="2" height="5.24" transform="translate(-3.34 8.12) rotate(-45)"/><rect x="5.51" y="21.38" width="5.24" height="2" transform="translate(-13.45 12.3) rotate(-45)"/><rect x="4" y="14" width="5" height="2"/></svg>