<svg id="Ready" xmlns="http://www.w3.org/2000/svg" viewBox="0 0 32 32"><title>Megaicons_work_24_1.8_cp</title><path d="M25.5,4H6.5A2.5,2.5,0,0,0,4,6.5v19A2.5,2.5,0,0,0,6.5,28h19A2.5,2.5,0,0,0,28,25.5V6.5A2.5,2.5,0,0,0,25.5,4ZM21,26H11V16.18L12.55,18h6.89L21,16.18Zm5-.5a.5.5,0,0,1-.5.5H23V14l-1.48-1-3,3H13.45l-3-3L9,14V26H6.5a.5.5,0,0,1-.5-.5V12H26ZM26,10H6V6.5A.5.5,0,0,1,6.5,6h19a.5.5,0,0,1,.5.5Z"/><circle cx="24" cy="8" r="1"/><circle cx="14" cy="21" r="1"/><circle cx="18" cy="21" r="1"/><rect x="15" y="23" width="2" height="2"/></svg>