<svg id="Ready" xmlns="http://www.w3.org/2000/svg" viewBox="0 0 32 32"><title>Megaicons_work_24_1.8_cp</title><path d="M19.5,28A3.34,3.34,0,0,0,23,24.89V7.25A3.47,3.47,0,0,0,19.5,4h-7A3.47,3.47,0,0,0,9,7.25V24.89A3.34,3.34,0,0,0,12.5,28ZM11,24.89V7.25A1.49,1.49,0,0,1,12.5,6h7A1.49,1.49,0,0,1,21,7.25V24.89c0,.63-.79,1.11-1.5,1.11h-7C11.79,26,11,25.53,11,24.89Z"/><rect x="14" y="12" width="4" height="2"/><rect x="14" y="9" width="4" height="2"/><rect x="14" y="15" width="4" height="2"/><circle cx="16" cy="22.5" r="1.5"/></svg>