<svg id="Ready" xmlns="http://www.w3.org/2000/svg" viewBox="0 0 32 32"><title>Megaicons_work_24_1.8_cp</title><path d="M21.5,13A4.5,4.5,0,1,0,17,8.5a4.45,4.45,0,0,0,.44,1.91L14,12.67a4.5,4.5,0,1,0-.49,6.18l4,2.74A4.45,4.45,0,0,0,17,23.5,4.5,4.5,0,1,0,21.5,19a4.46,4.46,0,0,0-2.81,1l-4-2.78a4.35,4.35,0,0,0,.22-2.77L18.69,12A4.46,4.46,0,0,0,21.5,13Zm0-7A2.5,2.5,0,1,1,19,8.5,2.5,2.5,0,0,1,21.5,6Zm-11,12A2.5,2.5,0,1,1,13,15.5,2.5,2.5,0,0,1,10.5,18Zm11,3A2.5,2.5,0,1,1,19,23.5,2.5,2.5,0,0,1,21.5,21Z"/></svg>