<svg width="13" height="11" viewBox="0 0 13 11" fill="none" xmlns="http://www.w3.org/2000/svg">
<path d="M3.74417 5.52245C4.16633 5.08047 4.48436 4.56753 4.75534 3.96875C5.059 4.66072 5.41362 5.22183 5.8752 5.6818C6.31645 6.12151 6.83665 6.45016 7.46029 6.71859C6.82289 7.01972 6.30038 7.37053 5.86032 7.81741C5.40216 8.28266 5.05181 8.83349 4.74902 9.49753C4.42585 8.82167 4.06166 8.26798 3.59845 7.8031C3.15188 7.35492 2.62975 7.0057 2 6.70503C2.71746 6.38306 3.28295 6.00531 3.74417 5.52245Z" stroke="white"/>
<path d="M10.164 2.32304C10.3273 2.15211 10.4643 1.96513 10.5836 1.76172C10.723 2.00858 10.8834 2.22642 11.0756 2.41787C11.2526 2.59426 11.4487 2.74054 11.6659 2.86543C11.4429 3.00083 11.244 3.15496 11.0656 3.33608C10.8759 3.52873 10.7177 3.74363 10.5797 3.98331C10.4345 3.73849 10.2709 3.52099 10.0776 3.32701C9.89667 3.14542 9.69685 2.99152 9.47461 2.85639C9.738 2.705 9.96562 2.53077 10.164 2.32304Z" stroke="white"/>
<path d="M10.5582 9.5657C10.5666 9.55688 10.5749 9.548 10.5831 9.53906C10.6066 9.56589 10.6311 9.59205 10.6567 9.61753C10.6738 9.6346 10.6912 9.65115 10.7089 9.66722C10.6889 9.68563 10.6693 9.70458 10.6501 9.72413C10.6271 9.74748 10.6049 9.77132 10.5836 9.79564C10.5604 9.76935 10.5363 9.74366 10.5113 9.71855C10.4929 9.70006 10.4741 9.6821 10.4551 9.66465C10.4907 9.63332 10.525 9.60039 10.5582 9.5657Z" stroke="white"/>
</svg>
