<svg viewBox="0 0 260 261" fill="none" xmlns="http://www.w3.org/2000/svg">
<mask id="mask0_13387_6555" style="mask-type:alpha" maskUnits="userSpaceOnUse" x="0" y="0" width="260" height="261">
<path fill-rule="evenodd" clip-rule="evenodd" d="M130.491 260.678C202.017 260.678 260 202.488 260 130.706C260 58.9247 202.017 0.734375 130.491 0.734375C58.9647 0.734375 0.981445 58.9247 0.981445 130.706C0.981445 202.488 58.9647 260.678 130.491 260.678ZM130.707 238.399C190.184 238.399 238.4 190.184 238.4 130.706C238.4 71.2288 190.184 23.0129 130.707 23.0129C71.2294 23.0129 23.0134 71.2288 23.0134 130.706C23.0134 190.184 71.2294 238.399 130.707 238.399Z" fill="#333333"/>
</mask>
<g mask="url(#mask0_13387_6555)">
<path d="M75.9789 13.0358C93.7939 4.76689 113.256 0.658512 132.893 1.02151C152.531 1.38451 171.828 6.20937 189.325 15.131L130.5 130.499L75.9789 13.0358Z" fill="#314138"/>
<path d="M189.067 14.9997C206.103 23.6381 221.016 35.938 232.74 51.0179C244.463 66.0978 252.705 83.5843 256.875 102.224L130.5 130.499L189.067 14.9997Z" fill="#35484A"/>
<path d="M256.835 102.042C261.104 120.995 261.054 140.666 256.689 159.597C252.324 178.527 243.755 196.234 231.618 211.403L130.5 130.499L256.835 102.042Z" fill="#2F2F3C"/>
<path d="M231.817 211.153C219.718 226.353 204.353 238.635 186.862 247.091C169.371 255.546 150.202 259.958 130.774 259.999L130.5 130.499L231.817 211.153Z" fill="#38273C"/>
<path d="M130.5 259.999C111.072 259.999 91.8936 255.628 74.3846 247.21C56.8757 238.791 41.4852 226.541 29.3533 211.367L130.5 130.499L130.5 259.999Z" fill="#442B2D"/>
<path d="M29.0861 211.032C17.0046 195.818 8.50098 178.08 4.20531 159.133C-0.090369 140.186 -0.0680484 120.516 4.27061 101.579L130.5 130.499L29.0861 211.032Z" fill="#422A26"/>
<path d="M4.37653 101.12C8.83105 81.9972 17.5758 64.1373 29.9495 48.8915C42.3232 33.6457 58.0017 21.4133 75.7992 13.1194L130.5 130.499L4.37653 101.12Z" fill="#4A3D27"/>
</g>
<path d="M85.3666 33.0225C100.182 26.146 116.367 22.7295 132.697 23.0313C149.028 23.3332 165.075 27.3456 179.626 34.7649L130.707 130.706L85.3666 33.0225Z" fill="#24804E"/>
<path d="M179.411 34.6557C193.578 41.8395 205.981 52.0682 215.73 64.6088C225.479 77.1494 232.333 91.6913 235.802 107.192L130.707 130.706L179.411 34.6557Z" fill="#5B9DA3"/>
<path d="M235.768 107.041C239.318 122.802 239.277 139.161 235.646 154.904C232.016 170.647 224.891 185.371 214.797 197.987L130.707 130.706L235.768 107.041Z" fill="#4B497C"/>
<path d="M214.963 197.779C204.901 210.419 192.124 220.633 177.578 227.665C163.032 234.696 147.091 238.365 130.935 238.399L130.707 130.706L214.963 197.779Z" fill="#5C2C64"/>
<path d="M130.707 238.4C114.551 238.4 98.6013 234.764 84.0407 227.764C69.4801 220.763 56.6813 210.576 46.5923 197.957L130.707 130.706L130.707 238.4Z" fill="#CA3A43"/>
<path d="M46.3566 197.664C36.3095 185.012 29.2379 170.261 25.6656 154.505C22.0932 138.749 22.1118 122.39 25.7199 106.642L130.693 130.693L46.3566 197.664Z" fill="#B85B4A"/>
<path d="M25.8214 106.274C29.5258 90.3714 36.798 75.519 47.0881 62.8404C57.3781 50.1619 70.4165 39.9893 85.2171 33.092L130.707 130.706L25.8214 106.274Z" fill="#BC862E"/>
<path d="M94.146 52.1868C106.022 46.6746 118.996 43.9359 132.086 44.1778C145.177 44.4198 158.041 47.6362 169.705 53.5835L130.491 130.49L94.146 52.1868Z" fill="#00B956"/>
<path d="M169.533 53.496C180.889 59.2545 190.831 67.4539 198.646 77.5064C206.461 87.559 211.955 99.2159 214.735 111.642L130.491 130.49L169.533 53.496Z" fill="#5BD9E5"/>
<path d="M214.708 111.52C217.554 124.155 217.521 137.267 214.611 149.887C211.701 162.507 205.989 174.31 197.898 184.423L130.491 130.49L214.708 111.52Z" fill="#444189"/>
<path d="M198.031 184.256C189.965 194.388 179.723 202.576 168.063 208.213C156.403 213.849 143.624 216.79 130.673 216.817L130.491 130.49L198.031 184.256Z" fill="#731982"/>
<path d="M130.491 216.818C117.54 216.818 104.755 213.904 93.0832 208.292C81.4114 202.68 71.1518 194.514 63.0645 184.399L130.491 130.49L130.491 216.818Z" fill="#F62434"/>
<path d="M62.8863 184.175C54.8325 174.033 49.1639 162.209 46.3003 149.578C43.4367 136.948 43.4516 123.835 46.3438 111.211L130.491 130.49L62.8863 184.175Z" fill="#EB5A40"/>
<path d="M46.4144 110.906C49.3839 98.1579 55.2134 86.2521 63.4619 76.0889C71.7104 65.9258 82.162 57.7714 94.0262 52.2425L130.491 130.49L46.4144 110.906Z" fill="#FFA717"/>
<ellipse cx="130.491" cy="130.706" rx="60.4291" ry="60.6449" fill="#333333"/>
<path d="M125.234 14.9994H129.066V14.4314H126.306L127.882 12.8954C128.586 12.2074 129.034 11.5194 129.034 10.8154C129.034 9.83139 128.362 9.20739 127.306 9.20739C126.218 9.20739 125.538 9.91939 125.45 11.0394H126.098C126.21 10.1434 126.642 9.76739 127.306 9.76739C127.954 9.76739 128.33 10.1514 128.33 10.7914C128.33 11.3754 128.026 11.8954 127.506 12.4474L125.234 14.8394V14.9994ZM132.225 15.0714C133.633 15.0714 134.441 13.9514 134.441 12.2874V11.9674C134.441 10.3354 133.617 9.20739 132.209 9.20739C130.809 9.20739 129.953 10.2954 129.953 11.9834V12.3034C129.953 13.9674 130.857 15.0714 132.225 15.0714ZM132.225 14.4954C131.273 14.4954 130.665 13.7434 130.665 12.2954V11.9754C130.665 10.5674 131.241 9.76739 132.209 9.76739C133.177 9.76739 133.737 10.6314 133.737 11.9594V12.2794C133.737 13.7274 133.225 14.4954 132.225 14.4954Z" fill="white"/>
<path d="M243.602 154.771L242.61 158.472L243.158 158.619L243.873 155.953L244.949 157.873C245.431 158.731 245.98 159.342 246.66 159.524C247.61 159.779 248.387 159.291 248.66 158.271C248.942 157.22 248.43 156.379 247.371 156.004L247.203 156.63C248.04 156.97 248.291 157.485 248.119 158.126C247.951 158.752 247.483 159.016 246.865 158.85C246.301 158.699 245.877 158.271 245.479 157.626L243.756 154.812L243.602 154.771ZM241.723 161.505C241.358 162.865 242.231 163.935 243.838 164.366L244.147 164.448C245.724 164.871 247.027 164.367 247.391 163.007C247.753 161.655 246.924 160.546 245.294 160.109L244.984 160.026C243.377 159.596 242.077 160.183 241.723 161.505ZM242.279 161.654C242.526 160.734 243.409 160.341 244.808 160.716L245.117 160.799C246.477 161.163 247.101 161.927 246.85 162.862C246.6 163.797 245.62 164.114 244.337 163.77L244.028 163.688C242.63 163.313 242.02 162.62 242.279 161.654Z" fill="white"/>
<path d="M188.685 229.41L185.316 231.236L185.587 231.736L188.013 230.42L187.36 232.521C187.069 233.462 187.003 234.28 187.339 234.899C187.808 235.764 188.696 235.992 189.624 235.489C190.581 234.97 190.839 234.02 190.383 232.994L189.813 233.303C190.142 234.144 189.941 234.68 189.357 234.997C188.788 235.306 188.274 235.147 187.969 234.585C187.691 234.071 187.71 233.469 187.904 232.736L188.761 229.55L188.685 229.41ZM182.505 232.678C181.267 233.35 181.091 234.719 181.884 236.182L182.037 236.463C182.815 237.898 184.077 238.497 185.314 237.826C186.545 237.159 186.779 235.794 185.974 234.31L185.822 234.029C185.029 232.566 183.708 232.026 182.505 232.678ZM182.78 233.185C183.617 232.731 184.51 233.102 185.2 234.375L185.352 234.657C186.023 235.894 185.898 236.872 185.047 237.334C184.196 237.795 183.292 237.302 182.659 236.135L182.507 235.854C181.817 234.581 181.901 233.661 182.78 233.185Z" fill="white"/>
<path d="M83.2429 236.09L79.8206 234.366L79.5651 234.873L82.03 236.115L79.9314 236.777C78.9932 237.075 78.2836 237.488 77.9668 238.117C77.5242 238.995 77.8436 239.855 78.7867 240.33C79.7584 240.82 80.686 240.49 81.2684 239.529L80.6897 239.237C80.1866 239.987 79.6316 240.129 79.0386 239.83C78.4599 239.539 78.2969 239.026 78.5848 238.455C78.8475 237.933 79.353 237.606 80.0657 237.347L83.1709 236.232L83.2429 236.09ZM77.0321 232.88C75.7746 232.247 74.5491 232.884 73.8005 234.37L73.6565 234.655C72.9223 236.113 73.1508 237.491 74.4082 238.125C75.6585 238.754 76.9125 238.168 77.6719 236.66L77.8159 236.374C78.5645 234.888 78.2538 233.496 77.0321 232.88ZM76.7729 233.395C77.6231 233.823 77.8278 234.768 77.1764 236.061L77.0324 236.347C76.399 237.605 75.5247 238.06 74.6602 237.624C73.7956 237.189 73.6842 236.165 74.2817 234.979L74.4256 234.694C75.0771 233.4 75.8798 232.945 76.7729 233.395Z" fill="white"/>
<path d="M19.7659 162.136L18.9205 158.399L18.3665 158.524L18.9754 161.216L17.1295 160.018C16.3032 159.483 15.5333 159.198 14.8466 159.353C13.8869 159.57 13.4265 160.363 13.6595 161.393C13.8995 162.454 14.744 162.961 15.8558 162.799L15.7128 162.167C14.8142 162.256 14.3521 161.917 14.2057 161.27C14.0627 160.638 14.3543 160.186 14.9785 160.045C15.5481 159.916 16.1224 160.098 16.7755 160.483L19.6098 162.172L19.7659 162.136ZM18.2939 155.302C17.9833 153.929 16.7126 153.388 15.0896 153.755L14.7775 153.826C13.1857 154.186 12.2673 155.238 12.5779 156.611C12.8868 157.977 14.1368 158.572 15.7832 158.199L16.0953 158.129C17.7183 157.762 18.5957 156.636 18.2939 155.302ZM17.7321 155.429C17.9421 156.358 17.3428 157.117 15.9304 157.436L15.6183 157.507C14.245 157.817 13.3377 157.432 13.1241 156.488C12.9106 155.544 13.6297 154.807 14.925 154.514L15.2371 154.443C16.6495 154.124 17.5115 154.454 17.7321 155.429Z" fill="white"/>
<path d="M36.3761 64.4134L38.6985 61.3653L38.2467 61.0211L36.574 63.2164L36.3074 61.032C36.1868 60.055 35.9111 59.2817 35.3511 58.855C34.5684 58.2587 33.6648 58.415 33.0248 59.255C32.3654 60.1204 32.5196 61.0928 33.3572 61.8416L33.7499 61.3262C33.1051 60.6941 33.0678 60.1226 33.4702 59.5944C33.8629 59.079 34.3962 59.0126 34.9053 59.4005C35.3699 59.7544 35.5992 60.3114 35.7232 61.0595L36.2489 64.3164L36.3761 64.4134ZM40.6701 58.8965C41.5234 57.7765 41.1222 56.455 39.7986 55.4466L39.5441 55.2526C38.2459 54.2636 36.8493 54.2354 35.996 55.3553C35.1475 56.4689 35.4942 57.8092 36.8369 58.8322L37.0914 59.0261C38.415 60.0346 39.841 59.9846 40.6701 58.8965ZM40.2119 58.5474C39.635 59.3046 38.6683 59.3325 37.5165 58.455L37.262 58.261C36.142 57.4077 35.8548 56.4647 36.4414 55.6947C37.0281 54.9247 38.0547 55.0029 39.1111 55.8078L39.3656 56.0017C40.5174 56.8793 40.818 57.752 40.2119 58.5474Z" fill="white"/>
<path d="M215.977 53.5697L218.45 56.4965L218.884 56.1299L217.103 54.0218L219.293 54.2341C220.273 54.3277 221.088 54.2258 221.625 53.7714C222.377 53.1363 222.42 52.2202 221.738 51.4137C221.036 50.5827 220.053 50.5229 219.141 51.1786L219.559 51.6735C220.316 51.1807 220.882 51.268 221.31 51.7751C221.729 52.2701 221.678 52.8051 221.189 53.2182C220.743 53.5952 220.15 53.6986 219.393 53.6578L216.099 53.4664L215.977 53.5697ZM220.434 58.9555C221.343 60.0309 222.72 59.9251 223.991 58.8511L224.235 58.6445C225.482 57.5911 225.812 56.2337 224.903 55.1582C223.999 54.0889 222.616 54.1374 221.326 55.227L221.082 55.4335C219.811 56.5076 219.551 57.9106 220.434 58.9555ZM220.874 58.5837C220.26 57.8566 220.442 56.9068 221.548 55.9722L221.792 55.7656C222.867 54.8568 223.85 54.7804 224.475 55.5197C225.1 56.2591 224.801 57.2445 223.787 58.1016L223.543 58.3082C222.437 59.2428 221.52 59.3475 220.874 58.5837Z" fill="white"/>
<path d="M127.819 37.0714C128.787 37.0714 129.787 36.5034 129.787 35.3594C129.787 34.6234 129.355 34.1274 128.691 33.8874C129.219 33.6554 129.571 33.2554 129.571 32.6794C129.571 31.7834 128.707 31.2074 127.819 31.2074C126.939 31.2074 126.059 31.7674 126.059 32.6954C126.059 33.2554 126.379 33.6874 126.923 33.8954C126.315 34.1114 125.843 34.6074 125.843 35.3754C125.843 36.5114 126.883 37.0714 127.819 37.0714ZM127.843 33.6474C127.259 33.6474 126.763 33.3034 126.763 32.7034C126.763 32.1114 127.227 31.7514 127.819 31.7514C128.411 31.7514 128.867 32.1354 128.867 32.6874C128.867 33.2954 128.451 33.6474 127.843 33.6474ZM127.819 36.5034C127.155 36.5034 126.555 36.1034 126.555 35.3514C126.555 34.5914 127.155 34.1994 127.835 34.1994C128.515 34.1994 129.075 34.5834 129.075 35.3354C129.075 36.0954 128.523 36.5034 127.819 36.5034ZM132.92 37.0714C134.328 37.0714 135.136 35.9514 135.136 34.2874V33.9674C135.136 32.3354 134.312 31.2074 132.904 31.2074C131.504 31.2074 130.648 32.2954 130.648 33.9834V34.3034C130.648 35.9674 131.552 37.0714 132.92 37.0714ZM132.92 36.4954C131.968 36.4954 131.36 35.7434 131.36 34.2954V33.9754C131.36 32.5674 131.936 31.7674 132.904 31.7674C133.872 31.7674 134.432 32.6314 134.432 33.9594V34.2794C134.432 35.7274 133.92 36.4954 132.92 36.4954Z" fill="white"/>
<path d="M221.613 151.555C221.362 152.49 221.652 153.602 222.757 153.899C223.468 154.089 224.059 153.8 224.462 153.221C224.55 153.791 224.845 154.234 225.401 154.384C226.267 154.615 227.047 153.93 227.277 153.072C227.505 152.222 227.191 151.227 226.295 150.987C225.754 150.842 225.254 151.039 224.912 151.511C224.861 150.868 224.504 150.284 223.762 150.085C222.665 149.791 221.855 150.65 221.613 151.555ZM224.914 152.464C225.065 151.9 225.526 151.51 226.105 151.665C226.677 151.818 226.905 152.36 226.751 152.931C226.598 153.503 226.109 153.844 225.576 153.701C224.989 153.544 224.756 153.051 224.914 152.464ZM222.161 151.702C222.333 151.06 222.875 150.584 223.601 150.779C224.335 150.975 224.559 151.656 224.383 152.313C224.207 152.97 223.691 153.412 222.964 153.217C222.23 153.02 221.979 152.382 222.161 151.702ZM220.292 156.482C219.928 157.842 220.801 158.912 222.408 159.343L222.717 159.426C224.293 159.848 225.596 159.344 225.961 157.984C226.323 156.632 225.494 155.524 223.863 155.087L223.554 155.004C221.947 154.573 220.646 155.161 220.292 156.482ZM220.849 156.631C221.095 155.711 221.979 155.319 223.377 155.694L223.687 155.776C225.047 156.141 225.67 156.904 225.42 157.839C225.169 158.774 224.19 159.092 222.907 158.748L222.598 158.665C221.199 158.29 220.59 157.597 220.849 156.631Z" fill="white"/>
<path d="M175.892 211.238C175.041 211.7 174.433 212.676 174.978 213.681C175.329 214.328 175.945 214.558 176.643 214.453C176.29 214.908 176.171 215.428 176.446 215.934C176.873 216.722 177.907 216.816 178.687 216.393C179.461 215.974 179.968 215.062 179.525 214.246C179.259 213.754 178.771 213.527 178.194 213.603C178.625 213.123 178.804 212.462 178.438 211.787C177.896 210.789 176.715 210.792 175.892 211.238ZM177.503 214.26C178.017 213.981 178.617 214.047 178.903 214.575C179.185 215.095 178.949 215.633 178.428 215.915C177.908 216.197 177.324 216.077 177.061 215.592C176.771 215.057 176.969 214.549 177.503 214.26ZM176.163 211.737C176.747 211.421 177.465 211.487 177.823 212.148C178.186 212.816 177.845 213.446 177.247 213.771C176.649 214.095 175.974 214.024 175.616 213.363C175.253 212.695 175.544 212.073 176.163 211.737ZM171.408 213.67C170.17 214.341 169.994 215.71 170.787 217.173L170.939 217.455C171.717 218.889 172.979 219.488 174.217 218.817C175.448 218.15 175.682 216.785 174.877 215.301L174.725 215.02C173.931 213.557 172.611 213.018 171.408 213.67ZM171.682 214.176C172.519 213.722 173.412 214.094 174.102 215.366L174.255 215.648C174.926 216.886 174.801 217.863 173.95 218.325C173.099 218.786 172.195 218.293 171.562 217.126L171.41 216.845C170.719 215.572 170.803 214.653 171.682 214.176Z" fill="white"/>
<path d="M90.8643 215.214C89.9998 214.779 88.8511 214.836 88.3365 215.858C88.0054 216.515 88.168 217.153 88.6531 217.666C88.0771 217.635 87.5828 217.834 87.3237 218.349C86.9206 219.149 87.4331 220.052 88.2262 220.452C89.0121 220.847 90.0499 220.743 90.4674 219.914C90.7193 219.414 90.6279 218.885 90.2356 218.454C90.8758 218.535 91.5205 218.304 91.866 217.618C92.3771 216.604 91.7002 215.636 90.8643 215.214ZM89.3024 218.262C89.824 218.524 90.1122 219.055 89.8423 219.591C89.5759 220.119 88.9996 220.232 88.4709 219.966C87.9422 219.699 87.7077 219.151 87.956 218.658C88.2296 218.115 88.7594 217.988 89.3024 218.262ZM90.6087 215.722C91.2018 216.02 91.5576 216.648 91.2193 217.319C90.8774 217.998 90.1652 218.078 89.5579 217.772C88.9506 217.466 88.6232 216.871 88.9616 216.2C89.3035 215.521 89.98 215.405 90.6087 215.722ZM86.3084 212.92C85.051 212.286 83.8255 212.923 83.0769 214.409L82.9329 214.695C82.1987 216.152 82.4271 217.53 83.6846 218.164C84.9349 218.794 86.1889 218.207 86.9483 216.7L87.0922 216.414C87.8408 214.928 87.5302 213.535 86.3084 212.92ZM86.0493 213.434C86.8995 213.862 87.1042 214.807 86.4528 216.101L86.3088 216.386C85.6754 217.644 84.801 218.099 83.9365 217.664C83.072 217.228 82.9606 216.205 83.558 215.019L83.702 214.733C84.3534 213.44 85.1562 212.984 86.0493 213.434Z" fill="white"/>
<path d="M40.7238 154.746C40.5102 153.802 39.7356 152.952 38.6198 153.204C37.9019 153.367 37.5134 153.897 37.4258 154.598C37.0831 154.134 36.6153 153.879 36.0535 154.006C35.1795 154.204 34.8083 155.174 35.0042 156.04C35.1984 156.898 35.9387 157.633 36.8439 157.428C37.3901 157.305 37.7408 156.897 37.8237 156.321C38.1685 156.866 38.7564 157.217 39.5055 157.047C40.6135 156.797 40.9303 155.659 40.7238 154.746ZM37.3788 155.478C37.5077 156.048 37.2816 156.607 36.6963 156.74C36.1189 156.87 35.6654 156.497 35.5348 155.92C35.4042 155.342 35.6782 154.813 36.2166 154.691C36.8096 154.557 37.2447 154.885 37.3788 155.478ZM40.1698 154.871C40.3162 155.519 40.0585 156.192 39.325 156.358C38.5837 156.526 38.069 156.027 37.919 155.364C37.769 154.701 38.02 154.07 38.7535 153.904C39.4947 153.736 40.0145 154.185 40.1698 154.871ZM39.5984 149.77C39.2878 148.397 38.0171 147.856 36.3941 148.223L36.082 148.294C34.4902 148.654 33.5718 149.706 33.8824 151.08C34.1912 152.445 35.4413 153.04 37.0877 152.668L37.3998 152.597C39.0228 152.23 39.9002 151.105 39.5984 149.77ZM39.0366 149.898C39.2466 150.826 38.6473 151.585 37.2349 151.904L36.9228 151.975C35.5495 152.286 34.6421 151.9 34.4286 150.956C34.2151 150.012 34.9342 149.275 36.2295 148.982L36.5416 148.912C37.9539 148.592 38.816 148.922 39.0366 149.898Z" fill="white"/>
<path d="M55.4993 75.7341C56.0859 74.9641 56.2402 73.8245 55.3302 73.1311C54.7448 72.6851 54.0884 72.7281 53.4951 73.1108C53.6305 72.5502 53.5257 72.0278 53.0675 71.6787C52.3548 71.1357 51.373 71.4739 50.8349 72.1802C50.3016 72.8802 50.2137 73.9196 50.9518 74.482C51.3973 74.8214 51.9348 74.8286 52.43 74.522C52.2333 75.1365 52.3418 75.8125 52.9527 76.278C53.8563 76.9665 54.932 76.4786 55.4993 75.7341ZM52.7903 73.6399C52.4363 74.1044 51.8621 74.2905 51.3848 73.9268C50.914 73.5681 50.9088 72.9808 51.2676 72.5099C51.6264 72.039 52.2082 71.909 52.6472 72.2436C53.1309 72.612 53.1587 73.1563 52.7903 73.6399ZM55.0475 75.3899C54.645 75.918 53.9632 76.1529 53.3651 75.6971C52.7606 75.2365 52.8124 74.5217 53.2245 73.9808C53.6366 73.4399 54.2814 73.2272 54.8796 73.6829C55.4841 74.1435 55.4741 74.8299 55.0475 75.3899ZM58.5909 71.6764C59.4442 70.5565 59.043 69.235 57.7194 68.2265L57.4649 68.0326C56.1667 67.0435 54.7701 67.0153 53.9168 68.1353C53.0683 69.2489 53.415 70.5891 54.7576 71.6121L55.0122 71.8061C56.3358 72.8145 57.7618 72.7646 58.5909 71.6764ZM58.1327 71.3273C57.5557 72.0846 56.5891 72.1124 55.4373 71.2349L55.1828 71.041C54.0628 70.1876 53.7756 69.2446 54.3622 68.4747C54.9489 67.7047 55.9755 67.7829 57.0318 68.5877L57.2864 68.7816C58.4382 69.6592 58.7388 70.5319 58.1327 71.3273Z" fill="white"/>
<path d="M200.787 69.7906C201.412 70.53 202.491 70.9271 203.365 70.1887C203.927 69.7136 204.027 69.0635 203.782 68.4015C204.3 68.655 204.833 68.6657 205.272 68.2939C205.957 67.7155 205.839 66.6838 205.266 66.0056C204.698 65.3335 203.702 65.0228 202.993 65.6218C202.566 65.9832 202.442 66.5065 202.635 67.0563C202.077 66.7313 201.394 66.6909 200.807 67.1867C199.939 67.9199 200.183 69.0757 200.787 69.7906ZM203.418 67.5989C203.041 67.1528 202.983 66.5519 203.442 66.1646C203.894 65.7825 204.468 65.9046 204.85 66.3567C205.233 66.8089 205.234 67.405 204.812 67.7613C204.348 68.1538 203.81 68.0632 203.418 67.5989ZM201.221 69.424C200.792 68.9168 200.711 68.2004 201.285 67.715C201.865 67.2244 202.552 67.4297 202.991 67.949C203.43 68.4684 203.498 69.144 202.924 69.6294C202.343 70.12 201.675 69.9617 201.221 69.424ZM204.08 73.6869C204.989 74.7623 206.366 74.6565 207.636 73.5825L207.881 73.3759C209.127 72.3225 209.457 70.965 208.548 69.8896C207.645 68.8203 206.261 68.8688 204.972 69.9584L204.727 70.1649C203.456 71.239 203.197 72.642 204.08 73.6869ZM204.52 73.3151C203.905 72.588 204.087 71.6382 205.193 70.7036L205.438 70.497C206.513 69.5882 207.496 69.5118 208.121 70.2511C208.745 70.9904 208.447 71.9759 207.433 72.833L207.188 73.0396C206.082 73.9742 205.165 74.0789 204.52 73.3151Z" fill="white"/>
<path d="M122.259 61.0714C123.723 61.0714 124.739 60.1914 124.739 58.5354V58.1114H122.387V58.6874H124.059C124.035 59.7034 123.499 60.5114 122.259 60.5114C120.915 60.5114 120.211 59.5834 120.211 58.1674V58.1034C120.211 56.7034 120.963 55.7434 122.275 55.7434C123.107 55.7434 123.731 56.0954 123.891 57.0074H124.587C124.411 55.7194 123.395 55.1914 122.259 55.1914C120.619 55.1914 119.491 56.4394 119.491 58.1114V58.1754C119.491 59.8474 120.499 61.0714 122.259 61.0714ZM125.856 60.9994H126.52V58.7034C126.52 57.6714 127.056 57.4074 127.896 57.3674V56.7434C127.144 56.7674 126.784 57.0954 126.52 57.5674V56.8154H125.856V60.9994ZM130.458 61.0714C131.402 61.0714 132.098 60.6314 132.242 59.7914H131.578C131.49 60.2794 131.114 60.5194 130.466 60.5194C129.61 60.5194 129.154 59.9914 129.122 59.0394H132.274V58.8234C132.274 57.3274 131.362 56.7434 130.394 56.7434C129.242 56.7434 128.434 57.6234 128.434 58.8874V58.9514C128.434 60.2394 129.274 61.0714 130.458 61.0714ZM129.146 58.5034C129.258 57.7594 129.714 57.2954 130.394 57.2954C131.082 57.2954 131.53 57.6394 131.594 58.5034H129.146ZM135.005 61.0714C135.949 61.0714 136.645 60.6314 136.789 59.7914H136.125C136.037 60.2794 135.661 60.5194 135.013 60.5194C134.157 60.5194 133.701 59.9914 133.669 59.0394H136.821V58.8234C136.821 57.3274 135.909 56.7434 134.941 56.7434C133.789 56.7434 132.981 57.6234 132.981 58.8874V58.9514C132.981 60.2394 133.821 61.0714 135.005 61.0714ZM133.693 58.5034C133.805 57.7594 134.261 57.2954 134.941 57.2954C135.629 57.2954 136.077 57.6394 136.141 58.5034H133.693ZM137.84 60.9994H138.504V58.4634C138.504 57.7114 139.056 57.3194 139.672 57.3194C140.344 57.3194 140.656 57.6474 140.656 58.3834V60.9994H141.32V58.4314C141.32 57.2154 140.712 56.7434 139.848 56.7434C139.16 56.7434 138.696 57.0874 138.504 57.4794V56.8154H137.84V60.9994Z" fill="white"/>
<path d="M205.843 129.705L207.89 130.253L207.613 131.289C207.412 132.038 207.04 132.436 206.291 132.235L206.26 132.227C205.58 132.044 205.354 131.528 205.565 130.74L205.843 129.705ZM203.086 128.245L202.906 128.918L205.309 129.562L205.082 130.412L202.237 131.414L202.036 132.163L204.94 131.127C204.883 131.924 205.168 132.655 206.08 132.899L206.111 132.907C207.216 133.203 207.883 132.446 208.166 131.387L208.611 129.726L203.086 128.245ZM201.316 134.573C201.072 135.485 201.317 136.271 202.091 136.628L202.263 135.986C201.814 135.775 201.68 135.35 201.847 134.724C202.069 133.897 202.697 133.593 203.625 133.809L202.809 136.853L203.018 136.909C204.463 137.296 205.263 136.567 205.513 135.632C205.811 134.519 205.171 133.511 203.95 133.183L203.888 133.167C202.644 132.834 201.623 133.43 201.316 134.573ZM204.136 133.971C204.826 134.271 205.156 134.832 204.98 135.489C204.802 136.153 204.354 136.497 203.503 136.335L204.136 133.971ZM200.615 137.469L200.443 138.111L203.943 139.049L203.678 140.038L204.219 140.183L204.484 139.193L205.211 139.388C205.62 139.498 205.863 139.737 205.753 140.146C205.705 140.324 205.649 140.441 205.572 140.545L206.113 140.69C206.192 140.579 206.236 140.475 206.292 140.266C206.506 139.47 206.132 138.948 205.313 138.728L204.656 138.552L204.811 137.973L204.271 137.828L204.115 138.407L200.615 137.469ZM199.962 139.904L199.788 140.553L205.762 142.153L205.936 141.504L199.962 139.904ZM198.924 143.5C198.68 144.412 198.925 145.198 199.699 145.555L199.871 144.914C199.422 144.702 199.288 144.277 199.455 143.651C199.677 142.824 200.305 142.52 201.233 142.736L200.417 145.781L200.626 145.836C202.071 146.224 202.871 145.494 203.121 144.559C203.419 143.446 202.779 142.438 201.558 142.111L201.496 142.094C200.252 141.761 199.231 142.357 198.924 143.5ZM201.744 142.898C202.434 143.199 202.764 143.759 202.588 144.416C202.41 145.081 201.962 145.424 201.111 145.262L201.744 142.898ZM198.406 145.711L198.222 146.399L199.554 147.949L197.632 148.601L197.429 149.359L199.949 148.452L201.508 150.303L201.694 149.607L200.489 148.232L202.222 147.637L202.423 146.887L200.098 147.713L198.406 145.711ZM196.636 152.318L196.129 154.211C195.833 155.316 196.144 156.162 197.188 156.441L197.219 156.45C197.937 156.642 198.427 156.451 198.836 155.699C198.883 156.39 199.277 156.711 199.779 156.846L199.81 156.854C200.9 157.146 201.441 156.488 201.716 155.46L202.161 153.799L196.636 152.318ZM199.574 153.809L201.46 154.315L201.195 155.304C200.988 156.076 200.635 156.371 200.009 156.204L199.978 156.195C199.298 156.013 199.088 155.625 199.305 154.814L199.574 153.809ZM196.985 153.116L199.049 153.669L198.746 154.797C198.508 155.685 198.082 155.977 197.402 155.795L197.371 155.787C196.699 155.607 196.443 155.14 196.658 154.337L196.985 153.116ZM195.356 157.094L195.182 157.743L201.156 159.344L201.33 158.695L195.356 157.094ZM194.395 160.405C194.221 161.054 194.433 161.591 194.762 161.878L194.12 161.706L193.949 162.348L197.99 163.431L198.162 162.789L195.712 162.133C194.986 161.938 194.752 161.296 194.905 160.724C195.075 160.09 195.473 159.874 196.184 160.064L198.711 160.742L198.882 160.1L196.325 159.415C195.212 159.117 194.61 159.601 194.395 160.405ZM193.089 165.279C192.844 166.191 193.089 166.977 193.863 167.334L194.035 166.692C193.586 166.481 193.452 166.056 193.62 165.43C193.841 164.603 194.469 164.299 195.397 164.515L194.581 167.559L194.79 167.615C196.235 168.002 197.035 167.272 197.286 166.337C197.584 165.225 196.943 164.216 195.722 163.889L195.66 163.873C194.416 163.539 193.395 164.135 193.089 165.279ZM195.909 164.676C196.598 164.977 196.928 165.538 196.752 166.195C196.574 166.859 196.126 167.203 195.275 167.041L195.909 164.676Z" fill="white"/>
<path d="M172.053 186.101L171.442 186.433L172.551 188.479L171.735 188.921C170.779 189.44 170.202 190.29 170.782 191.359L170.797 191.387C171.365 192.435 172.389 192.426 173.352 191.903L174.78 191.129L172.053 186.101ZM172.814 188.964L173.901 190.969L173.043 191.434C172.361 191.804 171.794 191.765 171.409 191.055L171.394 191.027C171.043 190.38 171.239 189.818 171.956 189.43L172.814 188.964ZM166.73 188.905C166.139 189.225 165.895 189.749 165.913 190.185L165.597 189.601L165.013 189.918L167.007 193.596L167.591 193.28L166.382 191.05C166.024 190.389 166.329 189.778 166.85 189.495C167.427 189.183 167.857 189.322 168.208 189.969L169.455 192.269L170.039 191.953L168.776 189.625C168.227 188.612 167.461 188.509 166.73 188.905ZM163.833 190.558L163.25 190.874L164.344 192.892C164.836 193.8 164.491 194.287 163.771 194.723L164.069 195.271C164.718 194.892 164.878 194.432 164.886 193.891L165.244 194.552L165.828 194.236L163.833 190.558ZM159.646 193.374C160.363 192.985 161.096 193.161 161.607 194.104L161.637 194.16C162.148 195.102 161.872 195.835 161.19 196.204C160.571 196.54 159.806 196.354 159.302 195.426L159.272 195.37C158.787 194.476 158.914 193.771 159.646 193.374ZM160.495 190.711L159.912 191.028L160.933 192.913C160.524 192.661 159.931 192.591 159.326 192.919C158.314 193.468 158.072 194.6 158.682 195.726L158.713 195.782C159.334 196.928 160.426 197.246 161.389 196.724C161.924 196.434 162.248 195.84 162.264 195.367L162.6 195.986L163.184 195.669L160.495 190.711ZM156.766 194.389L156.175 194.71L159.123 200.146L159.714 199.826L156.766 194.389ZM153.441 196.11C152.611 196.56 152.209 197.279 152.483 198.086L153.067 197.769C152.912 197.298 153.128 196.908 153.697 196.599C154.45 196.191 155.102 196.438 155.584 197.26L152.813 198.762L152.916 198.952C153.629 200.267 154.709 200.346 155.56 199.884C156.573 199.335 156.864 198.177 156.262 197.065L156.231 197.009C155.617 195.877 154.482 195.546 153.441 196.11ZM155.819 197.742C156.075 198.45 155.895 199.075 155.297 199.399C154.693 199.727 154.135 199.638 153.667 198.909L155.819 197.742Z" fill="white"/>
<path d="M105.844 195.968L105.223 195.655L104.071 197.941L102.228 197.013L101.972 197.52L103.815 198.449L102.905 200.256L100.54 199.065L100.284 199.572L103.271 201.077L105.844 195.968ZM100.894 193.394C100.294 193.092 99.7249 193.19 99.377 193.454L99.6758 192.861L99.0828 192.562L97.2004 196.299L97.7935 196.598L98.9344 194.333C99.2727 193.661 99.9492 193.563 100.478 193.829C101.064 194.124 101.195 194.558 100.864 195.215L99.6868 197.551L100.28 197.85L101.471 195.485C101.989 194.456 101.637 193.768 100.894 193.394ZM97.8842 191.958L97.2912 191.66L96.2583 193.71C95.794 194.632 95.1966 194.626 94.4284 194.284L94.1476 194.842C94.83 195.158 95.2991 195.027 95.7472 194.725L95.4089 195.396L96.0019 195.695L97.8842 191.958ZM95.4823 189.118L94.8822 188.816L90.28 192.813L90.8873 193.119L93.273 190.961L93.0665 194.216L93.7023 194.537L93.9256 190.448L95.4823 189.118Z" fill="white"/>
<path d="M68.1935 167.733L68.0541 167.116L63.3507 166.81L67.4734 164.549L67.3322 163.925L61.4249 163.735L61.5679 164.367L66.3452 164.492L62.1238 166.825L62.2332 167.309L67.032 167.602L62.7856 169.751L62.9427 170.446L68.1935 167.733ZM66.1595 160.807C66.2884 161.377 66.069 161.639 65.6476 161.735C65.0468 161.871 64.708 161.316 64.5227 160.496L64.3956 159.935L64.9028 159.82C65.5349 159.677 66.0042 160.12 66.1595 160.807ZM66.6887 160.753C66.5528 160.152 66.2669 159.831 65.8158 159.613L66.3308 159.497L66.1843 158.849L63.4923 159.458C62.353 159.716 62.1937 160.498 62.3702 161.278C62.5485 162.067 63.0595 162.73 64.0074 162.606L63.8609 161.958C63.3474 162.009 63.0427 161.75 62.9157 161.188C62.7745 160.564 62.9911 160.252 63.6388 160.106L63.9353 160.039L64.0676 160.624C64.3041 161.669 64.8499 162.596 65.7941 162.382C66.629 162.194 66.8598 161.51 66.6887 160.753ZM65.8965 157.577L65.75 156.929L63.5106 157.436C62.504 157.664 62.1283 157.199 61.904 156.389L61.2953 156.526C61.4846 157.254 61.884 157.533 62.4026 157.687L61.6691 157.852L61.8156 158.5L65.8965 157.577ZM65.233 154.643L65.0865 153.996L62.5896 154.56C61.8561 154.726 61.3736 154.261 61.2536 153.731C61.1265 153.169 61.3542 152.798 62.0721 152.635L64.647 152.053L64.5006 151.405L62.0036 151.97C61.2702 152.136 60.7877 151.671 60.6677 151.14C60.5406 150.578 60.7683 150.207 61.4862 150.045L64.0611 149.462L63.9146 148.815L61.3865 149.386C60.2004 149.655 59.9082 150.393 60.0741 151.127C60.1888 151.634 60.5606 152.19 61.1547 152.351C60.6561 152.685 60.5418 153.195 60.66 153.717C60.7924 154.303 61.2051 154.677 61.6298 154.778L61.0056 154.919L61.1521 155.566L65.233 154.643ZM60.0304 145.421L57.9626 145.889L57.7261 144.844C57.5549 144.087 57.6987 143.562 58.4556 143.391L58.4868 143.384C59.1735 143.228 59.6139 143.58 59.7939 144.376L60.0304 145.421ZM63.149 145.43L62.9955 144.751L60.5688 145.3L60.3746 144.441L62.4254 142.23L62.2542 141.474L60.1672 143.742C59.846 143.011 59.254 142.497 58.3333 142.705L58.3021 142.712C57.1862 142.964 56.9487 143.945 57.1905 145.014L57.5699 146.692L63.149 145.43ZM61.7698 139.005C61.5615 138.085 60.9788 137.503 60.1278 137.548L60.2743 138.195C60.7696 138.174 61.0867 138.487 61.2296 139.119C61.4185 139.954 61.0041 140.516 60.0826 140.757L59.3872 137.682L59.1766 137.73C57.7174 138.06 57.349 139.078 57.5625 140.023C57.8167 141.146 58.8533 141.74 60.0861 141.461L60.1485 141.447C61.4048 141.163 62.031 140.16 61.7698 139.005ZM59.5545 140.852C58.8041 140.906 58.251 140.564 58.1009 139.901C57.9492 139.23 58.1859 138.717 59.0145 138.464L59.5545 140.852ZM60.2424 134.755C60.3977 135.441 60.0315 136.107 59.0015 136.34L58.9391 136.354C57.9481 136.578 57.2691 136.223 57.0855 135.411C56.9055 134.615 57.2841 134.005 58.3297 133.768L58.3921 133.754C59.4377 133.518 60.0713 133.998 60.2424 134.755ZM60.7967 134.703C60.6626 134.11 60.1592 133.625 59.7083 133.481L60.4106 133.322L60.2641 132.675L54.2325 134.039L54.3789 134.687L56.9851 134.097C56.6401 134.421 56.4077 134.917 56.5612 135.596C56.8154 136.719 57.8736 137.3 59.1221 137.018L59.1845 137.004C60.4564 136.716 61.0385 135.772 60.7967 134.703ZM59.0326 126.903C58.7502 125.655 57.917 124.908 56.5854 125.004L56.7283 125.637C57.6652 125.572 58.2685 126.1 58.475 127.013C58.7468 128.215 58.0509 129.127 56.6307 129.448L56.5683 129.462C55.1638 129.78 54.0917 129.21 53.8305 128.055C53.6152 127.103 53.941 126.513 54.7598 126.18L54.608 125.509C53.425 125.9 53.0309 127.022 53.2939 128.185C53.6363 129.699 55.0807 130.537 56.735 130.163L56.7974 130.148C58.514 129.76 59.3979 128.519 59.0326 126.903Z" fill="white"/>
<path d="M71.3758 94.3785L71.7976 93.8249L67.2478 90.3583L66.8551 90.8737L66.8139 92.5119L67.3293 92.9046L67.3732 91.3289L71.3758 94.3785ZM73.8399 91.2633C74.5575 90.3215 74.5751 89.2688 73.7478 88.6385C73.1178 88.1585 72.4806 88.2161 71.9333 88.6439C72.0767 88.0994 72.0039 87.5612 71.4885 87.1685C70.8585 86.6885 69.9028 86.7549 69.2434 87.6203C68.584 88.4857 68.7249 89.5284 69.4197 90.1081L69.7882 89.6245C69.3164 89.1745 69.2637 88.5309 69.6952 87.9645C70.117 87.4109 70.6564 87.3894 71.0891 87.7191C71.5855 88.0973 71.6667 88.5715 71.2158 89.1633L70.9733 89.4815L71.4379 89.8354L71.6997 89.4918C72.1894 88.8491 72.7309 88.7588 73.3163 89.2048C73.8508 89.6121 73.9472 90.1984 73.4042 90.9111C72.8563 91.6302 72.1954 91.6396 71.6157 91.2784L71.2279 91.7875C72.0475 92.3617 73.103 92.2305 73.8399 91.2633ZM75.8874 88.4571L76.319 87.8908L73.1448 82.7769L73.0685 82.7188L70.7849 85.7159L71.2303 86.0553L72.9903 83.7454L75.8874 88.4571ZM79.6702 83.6111C80.4459 82.593 80.4832 81.4749 79.5545 80.5158L79.1617 81.0312C79.8126 81.7082 79.7953 82.5097 79.2281 83.2542C78.4814 84.2342 77.3354 84.2863 76.1773 83.4039L76.1263 83.3651C74.9809 82.4924 74.7291 81.3048 75.4467 80.363C76.0382 79.5867 76.7 79.4573 77.4809 79.8712L77.8978 79.324C76.8388 78.6679 75.7252 79.0867 75.0028 80.0348C74.0622 81.2694 74.3473 82.9148 75.6964 83.9426L75.7473 83.9814C77.1472 85.0481 78.6666 84.9284 79.6702 83.6111Z" fill="white"/>
<path d="M179.867 82.2187C180.632 83.123 181.656 83.3679 182.45 82.6966C183.055 82.1854 183.137 81.5508 182.837 80.9239C183.338 81.1817 183.879 81.2271 184.374 80.8089C184.979 80.2976 185.121 79.3502 184.419 78.5192C183.716 77.6882 182.668 77.6002 181.952 78.1531L182.344 78.6175C182.885 78.2542 183.525 78.342 183.985 78.8858C184.434 79.4174 184.338 79.9487 183.923 80.2998C183.446 80.7026 182.966 80.6793 182.485 80.111L182.227 79.8055L181.781 80.1824L182.06 80.5124C182.582 81.1295 182.553 81.6778 181.99 82.1528C181.477 82.5866 180.884 82.5538 180.306 81.8694C179.722 81.179 179.856 80.5317 180.334 80.0439L179.921 79.5551C179.183 80.2311 179.083 81.2899 179.867 82.2187ZM182.513 85.2373L182.962 85.7689L187.331 82.0768L186.913 81.5819L185.322 81.1873L184.827 81.6055L186.356 81.9893L182.513 85.2373ZM184.575 87.6779L185.024 88.2095L189.393 84.5174L188.975 84.0225L187.385 83.6278L186.89 84.0461L188.419 84.4299L184.575 87.6779ZM187.595 91.3625C188.421 92.3401 189.505 92.6185 190.642 91.9192L190.224 91.4243C189.422 91.9133 188.643 91.723 188.039 91.0081C187.244 90.0671 187.441 88.9369 188.553 87.9971L188.602 87.9558C189.702 87.0264 190.916 87.0375 191.68 87.9418C192.31 88.6872 192.293 89.3613 191.72 90.0342L192.164 90.5597C193.034 89.6676 192.866 88.4898 192.096 87.5794C191.094 86.394 189.426 86.3164 188.131 87.4111L188.082 87.4524C186.738 88.5884 186.526 90.0977 187.595 91.3625Z" fill="white"/>
</svg>
