<svg viewBox="0 0 40 40" fill="none" xmlns="http://www.w3.org/2000/svg">
    <path fill-rule="evenodd" clip-rule="evenodd" d="M26.885 30.976c5.862 0 10.614-4.695 10.614-10.488C37.5 14.696 32.747 10 26.885 10c-2.627 0-5.032.943-6.885 2.505A10.648 10.648 0 0 0 13.115 10C7.252 10 2.5 14.696 2.5 20.488c0 5.793 4.752 10.489 10.615 10.489 2.627 0 5.031-.944 6.885-2.506a10.648 10.648 0 0 0 6.885 2.505Z" fill="#ED0006"/>
    <path fill-rule="evenodd" clip-rule="evenodd" d="M20 28.471c2.283-1.924 3.73-4.786 3.73-7.983 0-3.196-1.447-6.059-3.73-7.982A10.648 10.648 0 0 1 26.885 10C32.748 10 37.5 14.696 37.5 20.488c0 5.793-4.752 10.489-10.615 10.489-2.627 0-5.031-.944-6.885-2.506Z" fill="#F9A000"/>
    <path fill-rule="evenodd" clip-rule="evenodd" d="M20 28.465c2.283-1.923 3.73-4.786 3.73-7.982 0-3.197-1.447-6.06-3.73-7.983-2.282 1.924-3.73 4.786-3.73 7.983 0 3.196 1.448 6.059 3.73 7.982Z" fill="#FF5E00"/>
</svg>
