<svg viewBox="0 0 40 40" fill="none" xmlns="http://www.w3.org/2000/svg">
    <path d="M33.087 15.357H26.68c.345 2.135 2.41 4.133 4.684 4.133h5.097c.069-.207.069-.482.069-.689a3.41 3.41 0 0 0-3.444-3.444Z" fill="url(#b)"/>
    <path d="M27.232 19.834V25h3.1v-2.755h2.755c1.515 0 2.824-1.033 3.237-2.41h-9.092ZM16.212 15.357V25h2.755s.689 0 1.033-.689l2.41-4.821h.345V25h3.1v-9.643h-2.756s-.688.069-1.033.689l-2.41 4.821h-.345v-5.51h-3.1ZM3.125 25v-9.643h3.1s.895 0 1.377 1.378c1.24 3.65 1.378 4.132 1.378 4.132s.275-.895 1.377-4.132c.482-1.378 1.378-1.378 1.378-1.378h3.1V25h-3.1v-5.166h-.345L9.668 25H8.291l-1.722-5.166h-.345V25H3.125Z" fill="#4DB45F"/>
    <defs>
        <linearGradient id="b" x1="26.663" y1="17.424" x2="36.531" y2="17.424" gradientUnits="userSpaceOnUse">
            <stop stop-color="#00B4E6"/>
            <stop offset="1" stop-color="#088CCB"/>
        </linearGradient>
    </defs>
</svg>
