<svg viewBox="0 0 40 40" fill="none" xmlns="http://www.w3.org/2000/svg">
    <path fill-rule="evenodd" clip-rule="evenodd" d="M11.061 26.162H8.098l-2.223-8.727c-.105-.402-.33-.756-.659-.924a9.455 9.455 0 0 0-2.716-.923v-.336h4.774c.659 0 1.153.504 1.235 1.09l1.153 6.296 2.962-7.386h2.882l-4.445 10.91Zm6.092 0h-2.799l2.305-10.91h2.799l-2.305 10.91Zm5.925-7.888c.083-.587.577-.923 1.153-.923a5.085 5.085 0 0 1 2.717.503l.494-2.35A6.907 6.907 0 0 0 24.89 15c-2.716 0-4.693 1.511-4.693 3.609 0 1.595 1.4 2.433 2.389 2.938 1.069.503 1.48.84 1.398 1.343 0 .755-.823 1.09-1.645 1.09-.989 0-1.977-.251-2.882-.672l-.494 2.351c.989.419 2.058.588 3.046.588 3.046.083 4.939-1.427 4.939-3.693 0-2.854-3.87-3.022-3.87-4.28Zm13.665 7.888-2.223-10.91h-2.387a1.24 1.24 0 0 0-1.153.839l-4.115 10.071h2.882l.575-1.594h3.54l.329 1.594h2.552Zm-4.198-7.972.823 4.112h-2.305l1.482-4.112Z" fill="#172B85"/>
</svg>
