<svg id="Ready" xmlns="http://www.w3.org/2000/svg" viewBox="0 0 32 32"><title>Artboard 10</title><path d="M18.38,28h-.78A13.61,13.61,0,0,1,4,14.41v-.78l2.7-2.71,5.69,5.69-1.9,1.9a9.19,9.19,0,0,0,3,3l1.9-1.9,5.69,5.69ZM6,14.45A11.61,11.61,0,0,0,17.55,26l.7-.7-2.86-2.86L13.85,24l-.65-.33A11.18,11.18,0,0,1,8.36,18.8L8,18.15l1.54-1.54L6.7,13.75Z"/><path d="M25.71,20.67h-.78A13.61,13.61,0,0,1,11.33,7.07V6.29L14,3.59l5.69,5.69-1.9,1.9a9.2,9.2,0,0,0,3,3l1.9-1.9L28.41,18ZM13.33,7.12A11.61,11.61,0,0,0,24.88,18.67l.7-.71L22.72,15.1l-1.54,1.54-.65-.33a11.18,11.18,0,0,1-4.84-4.84l-.33-.65L16.9,9.28,14,6.41Z"/></svg>