<svg id="Ready" xmlns="http://www.w3.org/2000/svg" viewBox="0 0 32 32"><title>Artboard 8</title><path d="M15,4V6A10.76,10.76,0,0,1,26,17h2A12.71,12.71,0,0,0,15,4Z"/><path d="M17.71,17h2A4.46,4.46,0,0,0,15,12.29v2A2.47,2.47,0,0,1,17.71,17Z"/><path d="M15,8.14v2A6.56,6.56,0,0,1,21.85,17h2A8.57,8.57,0,0,0,15,8.14Z"/><path d="M18.38,28h-.78A13.61,13.61,0,0,1,4,14.41v-.78l2.7-2.71,5.69,5.69-1.9,1.9a9.19,9.19,0,0,0,3,3l1.9-1.9,5.69,5.69ZM6,14.45A11.61,11.61,0,0,0,17.55,26l.7-.7-2.86-2.86L13.85,24l-.65-.33A11.18,11.18,0,0,1,8.36,18.8L8,18.15l1.54-1.54L6.7,13.75Z"/></svg>