<svg id="Ready" xmlns="http://www.w3.org/2000/svg" viewBox="0 0 32 32"><title>Artboard 19</title><path d="M9.5,13A4.5,4.5,0,1,0,5,8.5,4.5,4.5,0,0,0,9.5,13Zm0-7A2.5,2.5,0,1,1,7,8.5,2.5,2.5,0,0,1,9.5,6Z"/><path d="M10,15a10.44,10.44,0,0,0-5.46,1.67L4,17,5.48,28h9L16,17l-.49-.35A10.35,10.35,0,0,0,10,15Zm2.82,11H7.22L6.14,18A8.39,8.39,0,0,1,10,17a8.45,8.45,0,0,1,3.89,1Z"/><path d="M22.5,18A4.5,4.5,0,1,0,18,13.5,4.5,4.5,0,0,0,22.5,18Zm0-7A2.5,2.5,0,1,1,20,13.5,2.5,2.5,0,0,1,22.5,11Z"/><path d="M27.85,26.09,27.14,21l-.49-.23A10.57,10.57,0,0,0,22.55,20a10.2,10.2,0,0,0-4.12.8l-.48.23-.62,4h0l-.45,3H28.14ZM19,26l.74-3.57A9.17,9.17,0,0,1,22.55,22a9.33,9.33,0,0,1,2.81.43L26,26Z"/></svg>