<svg id="Ready" xmlns="http://www.w3.org/2000/svg" viewBox="0 0 32 32"><title>Megaicons_work_24_1.8_cp</title><path d="M5.82,17.45,4.17,19.76,5.8,21l1.65-2.3A15.9,15.9,0,0,0,10.12,20l-.87,2.71,1.92.63.86-2.7a15.64,15.64,0,0,0,3,.48V24h2V21.16a15.64,15.64,0,0,0,3-.48l.86,2.7,1.92-.63L21.88,20a15.9,15.9,0,0,0,2.67-1.38L26.2,21l1.63-1.2-1.65-2.31A16.16,16.16,0,0,0,28,15.69l-1.51-1.35a13.8,13.8,0,0,1-21,0L4,15.69A16.15,16.15,0,0,0,5.82,17.45Z"/><path d="M23,11.92l1-1.77a16,16,0,0,0-16,0l1,1.77A14,14,0,0,1,23,11.92Z"/></svg>