<svg id="Ready" xmlns="http://www.w3.org/2000/svg" viewBox="0 0 32 32"><title>Megaicons_work_24_1.8_cp</title><path d="M7.5,15A3.5,3.5,0,1,0,4,11.5,3.5,3.5,0,0,0,7.5,15Zm0-5A1.5,1.5,0,1,1,6,11.5,1.5,1.5,0,0,1,7.5,10Z"/><path d="M24.5,8A3.5,3.5,0,1,0,28,11.5,3.5,3.5,0,0,0,24.5,8Zm0,5A1.5,1.5,0,1,1,26,11.5,1.5,1.5,0,0,1,24.5,13Z"/><path d="M16,15a4,4,0,1,0-4-4A4,4,0,0,0,16,15Zm0-6a2,2,0,1,1-2,2A2,2,0,0,1,16,9Z"/><path d="M12.74,26h6.72l1-9-.71-.28a9.72,9.72,0,0,0-7.23,0l-.71.28Zm5.53-7.68L17.66,24H14.54l-.6-5.68A7.61,7.61,0,0,1,18.27,18.32Z"/><path d="M26.75,16.24a10.77,10.77,0,0,0-4.48,0l-.74.16L21,24h7l-.54-7.61ZM23.17,22l.25-3.93a8.72,8.72,0,0,1,2.2,0L26,22Z"/><path d="M11,24l-.54-7.61-.72-.15a10.77,10.77,0,0,0-4.48,0l-.74.16L4,24ZM6.42,18.07a8.72,8.72,0,0,1,2.2,0L9,22H6.17Z"/></svg>