<svg id="Ready" xmlns="http://www.w3.org/2000/svg" viewBox="0 0 32 32"><title>Megaicons_work_24_1.8_cp</title><path d="M21,14.64,12.25,11,11,11.91v8.17l1.32.92L21,17.22Zm-8,3.85v-5l6,2.44Z"/><circle cx="10.5" cy="25.53" r="1.1" transform="matrix(0.5, -0.87, 0.87, 0.5, -16.86, 21.86)"/><circle cx="8.22" cy="23.78" r="1.1" transform="translate(-14.41 12.78) rotate(-45)"/><circle cx="6.47" cy="21.5" r="1.1" transform="translate(-9.88 6.12) rotate(-30)"/><path d="M16,4A12,12,0,0,0,4.41,19.11l1.93-.52a10,10,0,1,1,7.07,7.07l-.52,1.93A12,12,0,1,0,16,4Z"/></svg>