<svg id="Ready" xmlns="http://www.w3.org/2000/svg" viewBox="0 0 32 32"><title>Megaicons_work_24_1.8_cp</title><path d="M4,16.67A12,12,0,0,0,12,28l.64-1.89A10,10,0,0,1,6,16.67v-1l1.29,1.71L8.71,16,5.63,12.93H4.37L1.29,16l1.41,1.41L4,15.71Z"/><path d="M24.56,6.83A12,12,0,0,0,20.05,4l-.64,1.89a10,10,0,0,1,6.67,9.45v1.13L24.71,14.6,23.29,16l3.08,3.08h1.25L30.71,16,29.29,14.6,28.08,16.3v-1A12,12,0,0,0,24.56,6.83Z"/><path d="M17,4H4V8.87L8.26,13H17Zm-2,7H9.07L6,8.15V6h9Z"/><path d="M28,23.13,23.74,19H15v9H28ZM26,26H17V21h5.93L26,23.85Z"/></svg>