<svg id="Ready" xmlns="http://www.w3.org/2000/svg" viewBox="0 0 32 32"><title>Artboard 32</title><path d="M16,28a12,12,0,0,0,10.39-6l-1.73-1a10,10,0,1,1,0-10l1.73-1A12,12,0,1,0,16,28Z"/><polygon points="26 13 26 15 24 15 24 17 26 17 26 19 28 19 28 17 30 17 30 15 28 15 28 13 26 13"/><polygon points="14 20 14 19 14.98 19 14.98 17 14 17 14 15 12 15 12 17 10.35 17 12.01 11.62 10.1 11.04 8.02 17.83 9 19 12 19 12 20 14 20"/><path d="M21.39,13.5l1.2-1.6a4.69,4.69,0,0,0-6,.42,4.61,4.61,0,0,0,3.26,7.86,5.11,5.11,0,0,0,2.76-.92L23,19V15H20v2h1v.91a2.65,2.65,0,0,1-3-.49,2.6,2.6,0,0,1,0-3.68A2.66,2.66,0,0,1,21.39,13.5Z"/></svg>