<svg id="Ready" xmlns="http://www.w3.org/2000/svg" viewBox="0 0 32 32"><title>Megaicons_work_24_1.8_cp</title><path d="M4,16a12,12,0,0,0,22.38,6l-1.73-1a10,10,0,1,1,0-10l1.73-1A12,12,0,0,0,4,16Z"/><polygon points="28 17 30 17 30 15 28 15 28 13 26 13 26 15 24 15 24 17 26 17 26 19 28 19 28 17"/><polygon points="14 20 14 19 14.98 19 14.98 17 14 17 14 15 12 15 12 17 10.35 17 12.01 11.62 10.1 11.04 8.02 17.83 9 19 12 19 12 20 14 20"/><path d="M21.4,13.58,22.6,12a4.69,4.69,0,0,0-6,.42,4.6,4.6,0,0,0,6,6.94L23,19V15H20v2h1v1a2.65,2.65,0,0,1-3-.49,2.6,2.6,0,0,1,0-3.68A2.66,2.66,0,0,1,21.4,13.58Z"/></svg>