<svg id="Ready" xmlns="http://www.w3.org/2000/svg" viewBox="0 0 65 32"><title>Megaicons_work_24_1.8_cp</title><polygon points="33 12 31 12 31 14 29 14 29 16 31 16 31 18 33 18 33 16 35 16 35 14 33 14 33 12"/><path d="M26,24V7.21L13.46,4,12,5.14V17.55A4,4,0,0,0,10,17a4,4,0,1,0,4,4V11.27l10,2.5v6.78A4,4,0,0,0,22,20a4,4,0,1,0,4,4ZM10,23a2,2,0,1,1,2-2A2,2,0,0,1,10,23Zm12,3a2,2,0,1,1,2-2A2,2,0,0,1,22,26Zm2-14.29L14,9.2v-3L24,8.76Z"/><path d="M46,11.91v8.17l1.32.92L56,17.22V14.64L47.25,11Zm2,1.58,6,2.44-6,2.54Z"/><path d="M59.74,7H42.26A3.27,3.27,0,0,0,39,10.26V21.74A3.27,3.27,0,0,0,42.26,25H59.75A3.25,3.25,0,0,0,63,21.75V10.26A3.27,3.27,0,0,0,59.74,7ZM61,21.75A1.25,1.25,0,0,1,59.75,23H42.26A1.27,1.27,0,0,1,41,21.74V10.26A1.27,1.27,0,0,1,42.26,9H59.74A1.27,1.27,0,0,1,61,10.26Z"/></svg>