<svg xmlns="http://www.w3.org/2000/svg" viewBox="0 0 70 32"><defs><style>.cls-1{font-size:5px;font-family:GraphikLCG-Regular, Graphik LCG;}.cls-1,.cls-6{letter-spacing:0.01em;}.cls-2{letter-spacing:0em;}.cls-3{letter-spacing:0.01em;}.cls-4{letter-spacing:0.01em;}.cls-5{letter-spacing:0em;}</style></defs><title>Artboard 36</title><g id="Ready"><polygon points="33 12 31 12 31 14 29 14 29 16 31 16 31 18 33 18 33 16 35 16 35 14 33 14 33 12"/><path d="M26,7.21,13.46,4,12,5.14V17.55A4,4,0,0,0,10,17a4,4,0,1,0,4,4V11.27l10,2.5v6.78A4,4,0,0,0,22,20a4,4,0,1,0,4,4ZM10,23a2,2,0,1,1,2-2A2,2,0,0,1,10,23ZM14,9.2v-3L24,8.76v2.95ZM22,26a2,2,0,1,1,2-2A2,2,0,0,1,22,26Z"/><path d="M38,25H62V7H38ZM40,9H60V23H40Z"/><path d="M46.25,11,45,11.91v8.17l1.32.92L55,17.22V14.64ZM47,13.49l6,2.44-6,2.54Z"/></g><g id="Text"><text class="cls-1" transform="translate(40.62 -177)">MNP<tspan x="0" y="40">Mobile-internet</tspan><tspan x="0" y="80">M</tspan><tspan class="cls-2" x="4.39" y="80">o</tspan><tspan class="cls-3" x="7.44" y="80">vi</tspan><tspan class="cls-4" x="11.61" y="80">e</tspan><tspan x="14.58" y="80">s</tspan><tspan x="0" y="120">Multi-account</tspan><tspan x="0" y="160">Music</tspan><tspan class="cls-3"><tspan x="0" y="240">Nothing</tspan></tspan><tspan x="0" y="280">O-plat</tspan><tspan class="cls-5" x="15.27" y="280">e</tspan><tspan class="cls-4" x="18.2" y="280">z</tspan><tspan class="cls-3" x="20.74" y="280">h</tspan><tspan class="cls-5"><tspan x="0" y="320">P</tspan><tspan class="cls-2" x="2.99" y="320">a</tspan><tspan class="cls-6" x="5.72" y="320">y_number</tspan><tspan x="0" y="360">P</tspan><tspan class="cls-2" x="2.99" y="360">a</tspan><tspan class="cls-6" x="5.72" y="360">y_friend</tspan></tspan></text></g></svg>