<svg id="Ready" xmlns="http://www.w3.org/2000/svg" viewBox="0 0 32 32"><title>Artboard 40</title><path d="M15,7a5,5,0,1,0-5,5A5,5,0,0,0,15,7ZM7,7a3,3,0,1,1,3,3A3,3,0,0,1,7,7Z"/><path d="M19.52,11a8.46,8.46,0,0,0-6.84,3.5A8.35,8.35,0,0,0,10,14a9.74,9.74,0,0,0-5.61,1.95L4,16.3,5.51,28h9.43l.14-1.28A8.4,8.4,0,0,0,19.52,28a8.5,8.5,0,0,0,0-17ZM7.26,26,6.13,17.2A7.61,7.61,0,0,1,10,16a5.79,5.79,0,0,1,1.63.28,8.47,8.47,0,0,0,1.55,8.89l-.09.82Zm12.26,0A6.5,6.5,0,1,1,26,19.5,6.5,6.5,0,0,1,19.52,26Z"/><path d="M20,14H17l0,4H16v2h1v1H16v2h1v1h2V23h2V21H19V20h1.17A2.84,2.84,0,0,0,23,17.1v-.15h0A3,3,0,0,0,20,14Zm.12,4H19V16H20a1,1,0,0,1,1,1C21,17.31,20.87,18,20.15,18Z"/></svg>