<svg id="Ready" xmlns="http://www.w3.org/2000/svg" viewBox="0 0 32 32"><defs><style>.cls-1{fill:#231f20;}</style></defs><title>Artboard 47</title><polygon class="cls-1" points="19.9 20.56 18.43 19 17 20.38 19.45 23 20.34 23 24.78 18.32 23.32 16.94 19.9 20.56"/><path class="cls-1" d="M28.43,22.61A8.25,8.25,0,0,0,29,19.67a8.31,8.31,0,0,0-10.3-8.09A8.33,8.33,0,0,0,2,12.33a8.25,8.25,0,0,0,.54,2.94L1,18l2,2.71,3.58-1a8.2,8.2,0,0,0,5.77.68,8.32,8.32,0,0,0,12.1,6.66l3.32.92L30,25.5ZM7.19,17.81l-.29-.17-3.09.78-.49-.65L4.76,15.3l-.18-.41a6.36,6.36,0,1,1,2.62,2.92ZM27,25.7l-2.84-.77-.36.21a6.32,6.32,0,0,1-9.51-5.46,8.35,8.35,0,0,0,4.28-6,6.33,6.33,0,0,1,7.84,8.55l-.18.41,1.17,2.55Z"/><circle class="cls-1" cx="10.37" cy="16" r="1.1"/><path class="cls-1" d="M10.37,14H9.49V12h.87a1,1,0,0,0,0-2,1,1,0,0,0-1,1h-2a3,3,0,1,1,3,3Z"/></svg>