<svg id="Ready" xmlns="http://www.w3.org/2000/svg" viewBox="0 0 32 32"><title>Artboard 49</title><path d="M16,4A12,12,0,1,0,28,16,12,12,0,0,0,16,4ZM8,10l1.35,1A1.4,1.4,0,0,1,10,12v5.5a1.38,1.38,0,0,1-1.39,1.19H6.37A9.87,9.87,0,0,1,8,10ZM7.16,20.67H8.61A3.35,3.35,0,0,0,12,17.49V12A3.31,3.31,0,0,0,10.58,9.4L9.39,8.51A9.95,9.95,0,0,1,22.48,8.4h-2.7a3.19,3.19,0,0,0-3,2.19L15.27,15a3.2,3.2,0,0,0,3,4.21h.67a1.2,1.2,0,0,1,1.19,1.2v4.66a10,10,0,0,1-13-4.43Zm15,3.21V20.43A3.21,3.21,0,0,0,19,17.24H18.3a1.2,1.2,0,0,1-1.13-1.58l1.48-4.43a1.2,1.2,0,0,1,1.14-.82h4.49a10,10,0,0,1-2.15,13.48Z"/></svg>