<svg id="Ready" xmlns="http://www.w3.org/2000/svg" viewBox="0 0 32 32"><title>Megaicons_work_24_1.8_cp</title><path d="M16,4A12,12,0,1,0,28,16,12,12,0,0,0,16,4ZM6,16A10,10,0,0,1,8.53,9.38l1,.52c1,.5,1.9,1.82,1.55,2.66l-2,4.06A2.47,2.47,0,0,1,7,18H6.2A10,10,0,0,1,6,16Zm13,9.53A10,10,0,0,1,6.84,20H7a4.45,4.45,0,0,0,3.89-2.55l2-4.06c.84-2-.61-4.34-2.47-5.28l-.34-.17A10,10,0,0,1,23.13,9H20a3,3,0,0,0-2.95,1.68l-1,2.92a4.38,4.38,0,0,0,1.33,5.21c.14.1.31.2.49.31.6.37,1.1.7,1.1,1.07C19,21.35,19,24.34,19,25.53ZM26,16a10,10,0,0,1-5,8.64c0-1.42,0-3.53,0-4.46,0-1.52-1.3-2.3-2.07-2.77l-.36-.23a2.41,2.41,0,0,1-.64-2.87l1-2.92c.1-.23.54-.39,1.08-.39h4.65A9.93,9.93,0,0,1,26,16Z"/></svg>