<?xml version="1.0" encoding="utf-8"?>
<!-- Generator: Adobe Illustrator 22.1.0, SVG Export Plug-In . SVG Version: 6.00 Build 0)  -->
<svg version="1.1" id="Layer_1" xmlns="http://www.w3.org/2000/svg" xmlns:xlink="http://www.w3.org/1999/xlink" x="0px" y="0px"
	 viewBox="0 0 32 32" style="enable-background:new 0 0 32 32;" xml:space="preserve">
<path id="path-1_1_" d="M25.7,8C20.3,2.6,11.7,2.6,6.3,8l1.4,1.4c4.6-4.6,12-4.6,16.6,0L25.7,8z M12.3,13.5l1.4,1.4
	c1.3-1.2,3.3-1.2,4.6,0l1.4-1.4C17.7,11.5,14.3,11.5,12.3,13.5z M22.7,10.8C19,7.1,13,7.1,9.3,10.8l1.4,1.4c2.9-2.9,7.7-2.9,10.6,0
	L22.7,10.8z M16,17c-3.1,0.1-6.1,0.8-9,1.9l-1,0.4V28h20v-8.7l-1-0.4C22.1,17.8,19.1,17.1,16,17z M24,26H8v-5.3c2.5-1,5.3-1.6,8-1.7
	c2.7,0.1,5.5,0.7,8,1.7V26z M13,22h6v2h-6V22z"/>
</svg>
