<svg id="Ready" xmlns="http://www.w3.org/2000/svg" viewBox="0 0 70 32"><title>Artboard 60</title><polygon points="34 13 32 13 32 15.04 30 15.04 30 17.04 32 17.04 32 19 34 19 34 17.04 36 17.04 36 15.04 34 15.04 34 13"/><path d="M21.5,13A4.5,4.5,0,1,0,17,8.5a4.45,4.45,0,0,0,.44,1.91L14,12.67a4.5,4.5,0,1,0-.49,6.18l4,2.74A4.45,4.45,0,0,0,17,23.5,4.5,4.5,0,1,0,21.5,19a4.46,4.46,0,0,0-2.81,1l-4-2.78a4.35,4.35,0,0,0,.22-2.77L18.69,12A4.46,4.46,0,0,0,21.5,13Zm-11,5A2.5,2.5,0,1,1,13,15.5,2.5,2.5,0,0,1,10.5,18Zm11,3A2.5,2.5,0,1,1,19,23.5,2.5,2.5,0,0,1,21.5,21Zm0-15A2.5,2.5,0,1,1,19,8.5,2.5,2.5,0,0,1,21.5,6Z"/><rect x="48" y="17" width="6" height="2"/><rect x="48" y="13" width="8" height="2"/><path d="M41.37,28l5-1.42a12,12,0,1,0-5.52-6.17L39,24.51Zm1.49-8A10,10,0,1,1,47,24.65l-.26-.14L42,26l-1-1.49,2-4.16Z"/></svg>