<svg id="Ready" xmlns="http://www.w3.org/2000/svg" viewBox="0 0 32 32"><title>Artboard 64</title><path d="M26.71,12H25a8.2,8.2,0,0,0-8.21-8H15.24A8.2,8.2,0,0,0,7,12H5v0a3.29,3.29,0,0,0-3,3.26v2.41A3.3,3.3,0,0,0,5.29,21H9V12.65A7.56,7.56,0,0,1,9.19,11c2.51,1.47,6.09,3,8.81,3h5v7.82A3.15,3.15,0,0,1,20.18,25H20v0h0a3,3,0,0,0-3-3H14a3,3,0,0,0-3,3h0a3,3,0,0,0,3,3h3a3,3,0,0,0,2.21-1h1A5.15,5.15,0,0,0,25,21.82V21h1.71A3.3,3.3,0,0,0,30,17.71V15.29A3.3,3.3,0,0,0,26.71,12ZM17,26H14a1,1,0,1,1,0-2h3a1,1,0,1,1,0,2ZM5.29,19A1.3,1.3,0,0,1,4,17.71V15.29A1.3,1.3,0,0,1,5.29,14H7v5ZM9.92,9.09A6,6,0,0,1,15.24,6h1.53A6.24,6.24,0,0,1,23,12H18C15.72,12,12.37,10.57,9.92,9.09ZM28,17.71A1.3,1.3,0,0,1,26.71,19H25V14h1.71A1.3,1.3,0,0,1,28,15.29Z"/><circle cx="12.5" cy="16.5" r="1.5"/><circle cx="19.5" cy="16.5" r="1.5"/></svg>