<?xml version="1.0" encoding="UTF-8"?>
<svg viewBox="0 0 32 32" version="1.1" xmlns="http://www.w3.org/2000/svg" xmlns:xlink="http://www.w3.org/1999/xlink">
    <!-- Generator: Sketch 51.2 (57519) - http://www.bohemiancoding.com/sketch -->
    <title>Source/System Icons/24/Metro_24</title>
    <desc>Created with Sketch.</desc>
    <defs>
        <path d="M16,28 C9.372583,28 4,22.627417 4,16 C4,9.372583 9.372583,4 16,4 C22.627417,4 28,9.372583 28,16 C28,22.627417 22.627417,28 16,28 Z M18.5997131,16.655066 L19.6791009,19.6721456 L18.8077475,19.6721456 L18.8077475,21 L24,21 L24,19.6721456 L23.0090866,19.6721456 L19.2790531,10 L16,15.9551903 L12.7209469,10 L8.99115256,19.6721456 L8,19.6721456 L8,21 L13.1924916,21 L13.1924916,19.6721456 L12.3208991,19.6721456 L13.4002869,16.655066 L16,21 L18.5997131,16.655066 Z" id="path-1"></path>
    </defs>
    <g id="Source/System-Icons/24/Metro_24" stroke="none" stroke-width="1" fill="none" fill-rule="evenodd">
        <mask id="mask-2" fill="white">
            <use xlink:href="#path-1"></use>
        </mask>
        <g id="Combined-Shape"></g>
        <g id="Colors/Basic/Fresh-Asphalt" mask="url(#mask-2)" fill="#000000">
            <rect id="Rectangle" x="0" y="0" width="32" height="32"></rect>
        </g>
    </g>
</svg>