<?xml version="1.0" encoding="utf-8"?>
<!-- Generator: Adobe Illustrator 23.0.1, SVG Export Plug-In . SVG Version: 6.00 Build 0)  -->
<svg version="1.1" id="Layer_1" xmlns="http://www.w3.org/2000/svg" xmlns:xlink="http://www.w3.org/1999/xlink" x="0px" y="0px"
	 viewBox="0 0 32 32" style="enable-background:new 0 0 32 32;" xml:space="preserve">
<title>Source/System Icons/24/Rating_2_24</title>
<desc>Created with Sketch.</desc>
<path d="M16,28C9.4,28,4,22.6,4,16S9.4,4,16,4s12,5.4,12,12S22.6,28,16,28z M16,26c5.5,0,10-4.5,10-10S21.5,6,16,6S6,10.5,6,16
	S10.5,26,16,26z M20.4,19.1l-0.9,1.8C18.3,20.3,17.4,20,16,20s-2.3,0.3-3.6,0.9l-0.9-1.8C13,18.4,14.3,18,16,18S18.9,18.4,20.4,19.1
	z M12.5,15c-0.8,0-1.5-0.7-1.5-1.5s0.7-1.5,1.5-1.5s1.5,0.7,1.5,1.5S13.3,15,12.5,15z M19.5,15c-0.8,0-1.5-0.7-1.5-1.5
	s0.7-1.5,1.5-1.5s1.5,0.7,1.5,1.5S20.3,15,19.5,15z"/>
</svg>
