<svg xmlns="http://www.w3.org/2000/svg" viewBox="-213 356.4 169 128.5" xml:space="preserve">
    <path fill="none" d="M-213 356.4h169v128.5h-169z"/>
    <g fill="#00985F">
        <path d="M-124.9 372.3v32.4c0 1.4-1.2 2.5-2.6 2.5h-3.9c-.2 0-.3.2-.3.3v27.2c1 .1 1.9.1 2.9.1 17.4 0 31.5-14.1 31.5-31.5 0-15.8-12-29.1-27.6-31zm-.6 48.4c-2.2 0-3.9-1.8-3.9-3.9 0-2.2 1.8-3.9 3.9-3.9 2.2 0 3.9 1.8 3.9 3.9 0 2.2-1.8 3.9-3.9 3.9zm9.2 0c-2.2 0-3.9-1.8-3.9-3.9 0-2.2 1.8-3.9 3.9-3.9 2.2 0 3.9 1.8 3.9 3.9 0 2.2-1.7 3.9-3.9 3.9zm9.2 0c-2.2 0-3.9-1.8-3.9-3.9 0-2.2 1.8-3.9 3.9-3.9s3.9 1.8 3.9 3.9c0 2.2-1.7 3.9-3.9 3.9z"/>
        <path d="M-128.8 372.1c-17.4 0-31.5 14.1-31.5 31.5 0 15.1 10.6 27.7 24.8 30.8v-28.2c0-1.4 1.1-2.5 2.5-2.5h4c.2 0 .3-.1.3-.3v-31.1l-.1-.2zm-6 25.9c-2.2 0-3.9-1.8-3.9-3.9 0-2.2 1.8-3.9 3.9-3.9s3.9 1.8 3.9 3.9c0 2.2-1.7 3.9-3.9 3.9zM-63.6 453.5v6h-8v-6h-3.9v15.7h3.9v-6.3h8v6.3h3.9v-15.7zM-129.1 455.3c-.7-1.4-2-2.1-3.2-2.1-1.3 0-2.6.7-3.2 2.1l-6.4 13.9h4.2l1.4-3.3h8.1l1.4 3.3h4.2l-6.5-13.9zm-5.9 7.5 2.4-5.7c.1-.2.2-.2.3-.2.1 0 .2 0 .3.2l2.4 5.7h-5.4zM-175.8 450.7c-1.8 0-3 1-3.9 3l-5.1 11.8-5.1-11.8c-.9-2-2-3-3.9-3-1.7 0-3.5 1.2-3.5 3.9v14.6h3.9V455l5.2 11.7c.7 1.6 1.8 2.7 3.4 2.7 1.6 0 2.7-1 3.4-2.7l5.2-11.7v14.2h3.9v-14.6c0-2.7-1.8-3.9-3.5-3.9zM-165.4 465.9c-.2 0-.3-.2-.3-.3v-2.8h9.8v-3.2h-9.8v-2.4c0-.2.1-.3.3-.3h9.7v-3.3h-11.6c-1.4 0-2.3 1.1-2.3 2.3v11c0 1.2 1 2.3 2.3 2.3h11.6v-3.3h-9.7zM-149.1 469.2v-12c0-.2.1-.3.3-.3h9.7v-3.3h-11.6c-1.4 0-2.3 1.1-2.3 2.3v13.3h3.9zM-78.1 461.4c0-5.5-2.4-8-8.3-8h-1.4c-5.9 0-8.3 2.6-8.3 8s2.4 8 8.3 8h1.3c5.9 0 8.4-2.6 8.4-8zm-8.4 4.7h-1.3c-3.3 0-4.5-1.5-4.5-4.8 0-3.2 1.1-4.7 4.5-4.7h1.3c3.3 0 4.5 1.6 4.5 4.7 0 3.3-1.3 4.8-4.5 4.8zM-107.1 451.1h-7.8c-5.8 0-8.1 2.9-8.1 8.1 0 .8 0 1.5.2 2.2.6 3.6 2.7 5.9 8.2 5.9h1.7v2h3.9v-2h1.7c5.4 0 7.6-2.2 8.2-5.9.1-.7.2-1.4.2-2.2-.1-5.2-2.4-8.1-8.2-8.1zm-5.8 12.8h-1.8c-2.7 0-3.6-1-4.2-2.5-.2-.6-.2-1.4-.2-2.2 0-3.3 1.5-4.8 3.8-4.8h2.4v9.5zm9.9-2.5c-.6 1.6-1.5 2.5-4.2 2.5h-1.8v-9.5h2.4c2.3 0 3.8 1.4 3.8 4.8 0 .8 0 1.6-.2 2.2z"/>
    </g>
</svg>
