<svg xmlns="http://www.w3.org/2000/svg" viewBox="0 0 304 55" xml:space="preserve">
    <title>megafon-logo-green</title>
    <g fill="#00B956">
        <path d="M30.3.7v27.8c0 1.3-1 2.2-2.2 2.2h-3.3c-.2 0-.3.2-.3.3v23.3c.8 0 1.6.2 2.5.2 14.9 0 27-12.1 27-27C54 13.8 43.7 2.3 30.3.7zm-.6 41.6c-1.9 0-3.3-1.6-3.3-3.3 0-1.9 1.6-3.3 3.3-3.3 1.9 0 3.3 1.6 3.3 3.3.2 1.8-1.4 3.3-3.3 3.3zm7.9 0c-1.9 0-3.3-1.6-3.3-3.3 0-1.9 1.6-3.3 3.3-3.3 1.9 0 3.3 1.6 3.3 3.3s-1.3 3.3-3.3 3.3zm8 0c-1.9 0-3.3-1.6-3.3-3.3 0-1.9 1.6-3.3 3.3-3.3 1.9 0 3.3 1.6 3.3 3.3s-1.4 3.3-3.3 3.3z"/>
        <path d="M27 .6C12.1.6 0 12.7 0 27.6c0 13.1 9.1 23.8 21.3 26.3V29.6c0-1.1 1-2 2-2.2H26.6c.2 0 .3-.2.3-.3L27 .6zm-5.2 22.2c-1.9 0-3.3-1.6-3.3-3.3 0-1.9 1.6-3.3 3.3-3.3 1.9 0 3.3 1.6 3.3 3.3s-1.5 3.3-3.3 3.3zM297.3 15.3v10.2h-13.6V15.3h-6.9v27h6.9V31.4h13.6v10.9h6.7v-27zM184.9 18.4c-1.1-2.4-3.3-3.7-5.5-3.7s-4.5 1.3-5.5 3.7l-10.9 24h7.2l2.4-5.7h14l2.4 5.7h7.2l-11.3-24zm-10.4 12.9 4.1-9.9c.2-.3.3-.3.5-.3s.5 0 .5.3l4.1 9.9h-9.2zM104.5 10.5c-3.2 0-5.2 1.7-6.7 5.1l-8.7 20.3-8.8-20.4c-1.4-3.3-3.5-5.1-6.7-5.1-3 0-6 2-6 6.7v25.1h6.7V18l8.9 20.1c1.1 2.9 3.2 4.6 5.9 4.6 2.9 0 4.8-1.7 5.9-4.6l8.9-20.1v24.5h6.7V17.4c-.1-4.7-3.1-6.9-6.1-6.9zM122.4 36.6c-.3 0-.7-.3-.7-.7v-4.8h16.8v-5.5h-16.8v-4.1c0-.3.3-.7.7-.7h16.7v-5.7h-20c-2.4 0-4 1.9-4 4V38c0 2 1.7 4 4 4h20v-5.7h-16.7v.3zM150.4 42.3V21.7c0-.3.3-.7.7-.7h16.7v-5.7h-20c-2.4 0-4 1.9-4 4v22.9l6.6.1zM272.4 28.9c0-9.4-4.1-13.8-14.3-13.8h-2.4c-10.2 0-14.3 4.5-14.3 13.8 0 9.2 4.1 13.8 14.3 13.8h2.2c10.4-.2 14.5-4.6 14.5-13.8zM257.9 37h-2.2c-5.5 0-7.8-2.5-7.8-8.1 0-5.4 1.9-8.1 7.8-8.1h2.2c5.7 0 7.8 2.7 7.8 8.1 0 5.5-2.1 8.1-7.8 8.1zM222.7 11.1h-13.4c-10 0-14 5.1-14 13.8 0 1.4.2 2.7.3 3.8 1.1 6.2 4.8 10 14.1 10h3v3.5h6.7v-3.5h2.9c9.4 0 13.1-3.8 14.1-10 .2-1.1.3-2.4.3-3.8-.1-8.7-4.2-13.8-14-13.8zm-10.2 22h-3c-4.6 0-6.2-1.7-7.2-4.5-.3-1-.3-2.4-.3-3.8 0-5.7 2.7-8.1 6.5-8.1h4.1v16.4h-.1zm17.2-4.2c-1 2.7-2.7 4.5-7.2 4.5h-3V16.9h4.1c3.8 0 6.5 2.4 6.5 8.1-.1 1.5-.1 2.7-.4 3.9z"/>
    </g>
</svg>
