<svg id="ready" xmlns="http://www.w3.org/2000/svg" viewBox="0 0 20 20"><title>Megaicons_work_16_1.8_cp</title><path d="M9,11a1,1,0,1,1-1-1A1,1,0,0,1,9,11Zm3-1a1,1,0,1,0,1,1A1,1,0,0,0,12,10Zm6,0a2,2,0,0,1-2.08,2H14.52l-.46,4.7-.2.13a7.12,7.12,0,0,1-7.81,0l-.2-.13L5.39,12H4a2,2,0,0,1-.75-3.86,9.1,9.1,0,0,1-.37-1.81,6.72,6.72,0,0,1,.38-3L3.38,3H4.52l.12.33c.07.19.13.32.19.5a4.59,4.59,0,0,0,.92,1.83h8.42a4.59,4.59,0,0,0,.92-1.83c.06-.18.12-.31.19-.5L15.4,3h1.14l.12.33a6.72,6.72,0,0,1,.38,3,9.1,9.1,0,0,1-.37,1.82A2,2,0,0,1,18,10ZM5.29,11,5.1,9H4a1,1,0,0,0-1,1,1,1,0,0,0,1,1Zm7.83,5.12.15-1.52a6.2,6.2,0,0,0-6.62,0l.15,1.52A6.22,6.22,0,0,0,13.12,16.12ZM15.66,8A7.79,7.79,0,0,0,16,6.24,5.9,5.9,0,0,0,16,4.42a4.61,4.61,0,0,1-1.24,2.11l-.14.13H5.36l-.14-.13A4.61,4.61,0,0,1,4,4.42a5.9,5.9,0,0,0-.1,1.82A7.81,7.81,0,0,0,4.26,8H6l.54,5.5a7.24,7.24,0,0,1,6.83,0L13.91,8ZM17,10a1,1,0,0,0-1.05-1H14.82l-.19,2h1.29A1,1,0,0,0,17,10Z"/></svg>