<svg id="ready" xmlns="http://www.w3.org/2000/svg" viewBox="0 0 20 20"><title>Megaicons_work_16_1.8_cp</title><path d="M18,11.5H17A8.51,8.51,0,0,0,8.5,3V2A9.51,9.51,0,0,1,18,11.5Zm-7,0h1A3.5,3.5,0,0,0,8.5,8V9A2.5,2.5,0,0,1,11,11.5Zm-.71.81,3.92,3.92L12.43,18h-.48A10,10,0,0,1,2,8.06V7.57L3.78,5.79,7.69,9.71,6.31,11.1a7.14,7.14,0,0,0,2.6,2.6Zm2.5,3.92-2.5-2.5-1.2,1.2-.32-.17a8.14,8.14,0,0,1-3.52-3.52l-.17-.32,1.2-1.2-2.5-2.5L3,8v.07A9,9,0,0,0,11.94,17H12ZM8.5,5V6A5.51,5.51,0,0,1,14,11.5h1A6.51,6.51,0,0,0,8.5,5Z"/></svg>