<svg id="ready" xmlns="http://www.w3.org/2000/svg" viewBox="0 0 20 20"><title>Megaicons_work_16_1.8_cp</title><path d="M15,10.24l-2-1V7.61a2.38,2.38,0,0,0,1-1.92c0-1.37-1.1-1.84-2-2.21s-1.29-.58-1.43-1.11L10.48,2h-1l-.1.37c-.14.53-.63.77-1.43,1.11S6,4.32,6,5.69A2.38,2.38,0,0,0,7,7.61V9.29l-2,1A2,2,0,0,0,4,12v6H9V14a1,1,0,0,1,1-1,1,1,0,0,1,1,1v4h5V12A2,2,0,0,0,15,10.24ZM8.39,4.4a4.05,4.05,0,0,0,1.62-1,4.05,4.05,0,0,0,1.62,1C12.5,4.77,13,5,13,5.69A1.46,1.46,0,0,1,12,7H7.95C7.38,6.77,7,6.56,7,6S7.51,4.77,8.39,4.4ZM15,17H12V14a2,2,0,1,0-4,0v3H5V12a1,1,0,0,1,.48-.85L8,10V8l4,0v2l2.49,1.13A1,1,0,0,1,15,12ZM6,13H7v2H6Zm7,0h1v2H13Z"/></svg>