<svg id="ready" xmlns="http://www.w3.org/2000/svg" viewBox="0 0 20 20"><title>Megaicons_work_16_1.8_cp</title><path d="M7.41,12.4,9.51,8.94h1l2.09,3.45-.91.55-1.14-2.18V18H9.47V10.77L8.32,13Zm8.43-3.88A6,6,0,0,0,10,3,6,6,0,0,0,4.13,9v.54a3.22,3.22,0,0,0,0,6.44H7V14.94H4.13a2.09,2.09,0,0,1-2.07-2.16,2.09,2.09,0,0,1,2.07-2.16H5.2V9a4.92,4.92,0,0,1,4.8-5,4.92,4.92,0,0,1,4.8,5v.53h.53a2.63,2.63,0,0,1,2.6,2.7,2.63,2.63,0,0,1-2.6,2.7H13V16h2.33A3.69,3.69,0,0,0,19,12.24,3.7,3.7,0,0,0,15.85,8.52Z"/></svg>