<?xml version="1.0" encoding="utf-8"?>
<!-- Generator: Adobe Illustrator 23.0.1, SVG Export Plug-In . SVG Version: 6.00 Build 0)  -->
<svg version="1.1" id="Layer_1" xmlns="http://www.w3.org/2000/svg" xmlns:xlink="http://www.w3.org/1999/xlink" x="0px" y="0px"
	 viewBox="0 0 20 20" style="enable-background:new 0 0 20 20;" xml:space="preserve">
<path d="M19,10.7l-2.6-1.6C15.7,7.3,13.9,6,11.8,6H11V3H1v12h2c0.3,1.4,1.6,2.2,2.9,2c1-0.2,1.8-1,2-2H12c0.3,1.4,1.6,2.2,2.9,2
	c1-0.2,1.8-1,2-2H19V10.7z M2,4h8v6H2V4z M5.5,16C4.7,16,4,15.3,4,14.5S4.7,13,5.5,13S7,13.7,7,14.5S6.3,16,5.5,16L5.5,16z M10,14
	H7.9c-0.3-1.4-1.6-2.2-2.9-2c-1,0.2-1.8,1-2,2H2v-3h8V14z M14.5,16c-0.8,0-1.5-0.7-1.5-1.5s0.7-1.5,1.5-1.5s1.5,0.7,1.5,1.5
	S15.3,16,14.5,16L14.5,16z M18,14h-1c-0.3-1.4-1.6-2.2-2.9-2c-1,0.2-1.8,1-2,2H11V7h0.8c1.7,0,3.2,1.1,3.7,2.7l0.1,0.2l2.4,1.5V14z"
	/>
</svg>
