<?xml version="1.0" encoding="utf-8"?>
<!-- Generator: Adobe Illustrator 21.1.0, SVG Export Plug-In . SVG Version: 6.00 Build 0)  -->
<svg version="1.1" id="ready" xmlns="http://www.w3.org/2000/svg" xmlns:xlink="http://www.w3.org/1999/xlink" x="0px" y="0px"
	 viewBox="0 0 20 20" style="enable-background:new 0 0 20 20;" xml:space="preserve">
<title>Megaicons_work_16_1.8_cp</title>
<path d="M17.1,2.9c-1.2-1.2-3.2-1.2-4.5,0L3.5,12L2,17l1,1l5-1.5l9.1-9.1C17.7,6.8,18,6,18,5.1S17.7,3.5,17.1,2.9z M7.5,15.5
	l-4.3,1.3l-0.1-0.1l1.3-4.3l6.6-6.6l3,3L7.5,15.5z M16.4,6.7l-1.5,1.5l-3-3l1.5-1.5c0.8-0.8,2.2-0.8,3,0C16.8,4,17,4.6,17,5.1
	C17,5.7,16.8,6.3,16.4,6.7z"/>
</svg>
