<svg id="ready" xmlns="http://www.w3.org/2000/svg" viewBox="0 0 20 20"><title>Megaicons_work_16_1.8_cp</title><path d="M16.57,10.66l1.2,1.65L17,12.9l-1.2-1.65a10.49,10.49,0,0,1-2,1l.63,1.94-1,.31-.63-1.94a10.41,10.41,0,0,1-2.26.36v2h-1V13a10.41,10.41,0,0,1-2.26-.36l-.63,1.94-1-.31.63-1.94a10.49,10.49,0,0,1-2-1L3.06,12.9l-.81-.59,1.2-1.65A12.64,12.64,0,0,1,2,9.3l.75-.66A9.7,9.7,0,0,0,10,12a9.76,9.76,0,0,0,7.24-3.39l.75.66A12.81,12.81,0,0,1,16.57,10.66ZM5.25,7.26a9.61,9.61,0,0,1,9.51,0l.5-.87a10.63,10.63,0,0,0-10.51,0Z"/></svg>