<svg id="ready" xmlns="http://www.w3.org/2000/svg" viewBox="0 0 20 20"><title>Megaicons_work_16_1.8_cp</title><path d="M7.88,12.88a4.81,4.81,0,0,1-3.45-1.46,5.11,5.11,0,0,1,0-7.09L5.81,3l6.91,7-1.38,1.42A4.81,4.81,0,0,1,7.88,12.88ZM5.81,4.33,5.12,5a4.09,4.09,0,0,0,0,5.67,3.85,3.85,0,0,0,5.53,0l.69-.71Z"/><polygon points="7.69 5.71 7 5 9.93 2 10.62 2.64 7.69 5.71"/><polygon points="11.07 8.78 10.38 8.07 13.31 5.07 14 5.71 11.07 8.78"/><path d="M8.61,18a4.56,4.56,0,0,1-3.28-1.39,4.83,4.83,0,0,1-.85-5.53l.87.46A3.81,3.81,0,0,0,6,15.9a3.49,3.49,0,0,0,5.17,0L17.31,9.8l.69.71-6.11,6.09A4.56,4.56,0,0,1,8.61,18Z"/></svg>