<svg id="ready" xmlns="http://www.w3.org/2000/svg" viewBox="0 0 20 20"><title>Megaicons_work_16_1.8_cp</title><circle cx="6.51" cy="17" r="1"/><circle cx="13.51" cy="17" r="1"/><path d="M6.64,14.3l-.31-.13C4.73,13.54,3,12,3,10,3,7.58,4.83,6.44,6.43,5.43,7.77,4.6,9,3.81,9.36,2.39L9.45,2h1.14l.09.39c.33,1.42,1.59,2.21,2.92,3C15.21,6.44,17,7.58,17,10c0,2-1.72,3.54-3.32,4.17l-.31.13-.23-.25A4.15,4.15,0,0,0,10,13a4.12,4.12,0,0,0-3.15,1.09ZM10,12a5.28,5.28,0,0,1,3.59,1.15A3.89,3.89,0,0,0,16,10c0-1.87-1.36-2.73-2.94-3.72A7.59,7.59,0,0,1,10,3.48,7.58,7.58,0,0,1,7,6.28C5.38,7.27,4,8.13,4,10A3.88,3.88,0,0,0,6.4,13.12,5.32,5.32,0,0,1,10,12Z"/><rect x="9.3" y="9.14" width="6.92" height="1" transform="translate(-2.54 14.29) rotate(-53.98)"/><rect x="2.85" y="8.02" width="10.64" height="1" transform="translate(-3.52 10.12) rotate(-53.98)"/><rect x="6.01" y="13.5" width="1" height="3.5"/><rect x="13.01" y="13.5" width="1" height="3.5"/></svg>