<?xml version="1.0" encoding="UTF-8"?>
<svg viewBox="0 0 32 32" version="1.1" xmlns="http://www.w3.org/2000/svg" xmlns:xlink="http://www.w3.org/1999/xlink">
    <!-- Generator: Sketch 50 (54983) - http://www.bohemiancoding.com/sketch -->
    <title>logo/24/2gis</title>
    <desc>Created with Sketch.</desc>
    <defs></defs>
    <g id="logo/24/2gis" stroke="none" stroke-width="1" fill="none" fill-rule="evenodd">
        <g id="2gis" transform="translate(4.000000, 4.000000)" fill="#94D419" fill-rule="nonzero">
            <path d="M22.2974359,8.08205129 C22.1948718,12.0615385 18.1538462,15.1179487 15.7948718,17.1692308 L21.7230769,17.1692308 C22.5435897,15.6307692 23.0153846,13.8666666 23.0153846,11.9794872 C23.0153846,10.6051282 22.7692308,9.2923077 22.2974359,8.08205129 Z" id="Shape"></path>
            <path d="M11.2615385,20.2461538 L11.2410257,17.9076923 C16.0615385,13.723077 19.0153846,10.8923077 19.0153846,8.16410256 C19.0153846,7.13846154 18.625641,5.86666667 16.8820513,5.86666667 C15.5076923,5.86666667 14.174359,6.66666666 14.4205128,10.0102564 L11.5897436,10.0102564 C10.8923077,6.13333333 12.9846154,3.07692307 17.0051282,3.07692307 C17.6410256,3.07692307 18.2358975,3.15897436 18.7692307,3.3025641 C16.9025641,1.80512821 14.5435898,0.923076923 11.9794872,0.923076923 C5.86666667,0.923076923 0.923076923,5.86666667 0.923076923,11.9794872 C0.923076923,18.0717949 5.86666667,23.0358975 11.9794872,23.0358975 C14.7897436,23.0358975 17.3538462,21.9897436 19.3025641,20.2666667 L11.2615385,20.2666667 L11.2615385,20.2461538 Z" id="Shape"></path>
        </g>
    </g>
</svg>