<?xml version="1.0" encoding="UTF-8"?>
<svg viewBox="0 0 32 32" version="1.1" xmlns="http://www.w3.org/2000/svg" xmlns:xlink="http://www.w3.org/1999/xlink">
    <!-- Generator: Sketch 48.2 (47327) - http://www.bohemiancoding.com/sketch -->
    <title>logo/24/eset</title>
    <desc>Created with Sketch.</desc>
    <defs></defs>
    <g id="Icons" stroke="none" stroke-width="1" fill="none" fill-rule="evenodd">
        <g id="logo/24/eset">
            <circle id="Oval-2-Copy-2" stroke="#D8D8D8" cx="16" cy="16" r="11.5"></circle>
            <g id="ESET-logo---Lozenge---Flat-Colour---CMYK" transform="translate(7.000000, 12.800000)">
                <path d="M0.505967213,1.48610959 C0.156786885,2.07573973 0.0797704918,3.03627397 0.0797704918,3.67269863 C0.0797704918,4.30931507 0.156786885,5.26965753 0.505967213,5.85909589 C0.901377049,6.49264384 1.6592459,6.93987671 2.54842623,6.93987671 L15.5091148,6.93987671 C16.398,6.93987671 17.1560656,6.49264384 17.5514754,5.85909589 C17.9003607,5.26965753 17.9777705,4.3090274 17.9777705,3.67241096 C17.9777705,3.03627397 17.9003607,2.07573973 17.5514754,1.48610959 C17.1560656,0.852561644 16.398,0.405520548 15.5091148,0.405520548 L2.54842623,0.405520548 C1.6592459,0.405520548 0.901377049,0.852561644 0.505967213,1.48610959 Z" id="Fill-2" fill="#008A92"></path>
                <path d="M1.27514754,5.78765753 C0.777737705,5.26687671 0.66904918,4.44989041 0.66904918,3.67269863 C0.66904918,2.89541096 0.777737705,2.0780411 1.27514754,1.55726027 C1.59,1.22758904 2.19511475,0.980671233 2.71318033,0.979712329 L9.39688525,0.979712329 L9.39688525,6.36530137 L2.71318033,6.36530137 C2.19511475,6.36434247 1.59,6.11742466 1.27514754,5.78765753 Z M10.2017705,3.66934247 C10.2017705,2.49315068 10.4679344,2.11639726 11.7219344,2.11639726 C12.8938033,2.11639726 13.2362951,2.42506849 13.2362951,3.66934247 L13.2362951,3.80694521 L11.1740656,3.80694521 L11.1740656,3.84041096 C11.1740656,4.38823288 11.2626885,4.57521918 11.7219344,4.57521918 C12.0309836,4.57521918 12.2667541,4.54184932 12.2814098,4.21543836 L13.236,4.21543836 C13.2285246,4.65135616 13.0767541,4.89520548 12.8241639,5.03769863 C12.5606557,5.18047945 12.1816721,5.21624658 11.7219344,5.21624658 C10.4919344,5.21624658 10.2017705,4.81005479 10.2017705,3.66934247 Z M13.856459,2.12876712 L16.2989508,2.12876712 L16.2989508,2.82483562 L15.5741311,2.82483562 L15.5741311,5.21384932 L14.5819672,5.21384932 L14.5819672,2.82483562 L13.856459,2.82483562 L13.856459,2.12876712 Z M5.71347541,3.11941096 C5.71347541,3.73023288 5.92986885,4.01569863 7.24386885,4.01569863 C7.36268852,4.01569863 7.55104918,4.00936986 7.66180328,4.05616438 C7.7644918,4.09979452 7.81209836,4.18743836 7.81209836,4.34613699 C7.81209836,4.61194521 7.71216393,4.64061644 7.24386885,4.64061644 C6.98331148,4.64061644 6.71813115,4.6349589 6.70622951,4.29263014 L5.71347541,4.29263014 C5.72114754,4.96741096 6.04927869,5.18824658 6.65586885,5.23523288 C6.83940984,5.24913699 7.03898361,5.2479863 7.24386885,5.2479863 C8.08013115,5.2479863 8.7742623,5.11191781 8.7742623,4.22780822 C8.7742623,3.38569863 8.32337705,3.32557534 7.24347541,3.30179452 C6.70721311,3.29019178 6.67563934,3.18058904 6.67563934,3.00760274 C6.67563934,2.80210959 6.69904918,2.73632877 7.24386885,2.73632877 C7.44363934,2.73632877 7.64262295,2.75387671 7.68786885,2.99590411 L8.62288525,2.99590411 L8.62288525,2.87163014 C8.62288525,2.13873973 7.83511475,2.12876712 7.24386885,2.12876712 C6.35636066,2.12876712 5.71347541,2.14823288 5.71347541,3.11941096 Z M2.00193443,3.69130137 C2.00193443,4.83642466 2.29593443,5.2479863 3.53242623,5.2479863 C3.99216393,5.2479863 4.37311475,5.21260274 4.63957377,5.06857534 C4.89777049,4.92253425 5.05121311,4.6730274 5.05642623,4.22742466 L4.08206557,4.22742466 C4.07163934,4.55383562 3.84462295,4.58720548 3.53242623,4.58720548 C3.08193443,4.58720548 2.994,4.40856164 2.994,3.86227397 L2.994,3.8389726 L5.05642623,3.8389726 L5.05642623,3.69130137 C5.05642623,2.44175342 4.70970492,2.12876712 3.53242623,2.12876712 C2.27193443,2.12876712 2.00193443,2.5109863 2.00193443,3.69130137 Z M3.51422951,2.78954795 C3.87157377,2.78954795 4.06416393,2.82387671 4.06416393,3.30217808 L4.06416393,3.32528767 L2.99390164,3.32528767 C3.00580328,2.91641096 3.09108197,2.78954795 3.51422951,2.78954795 Z M11.173082,3.31320548 L12.264,3.31320548 L12.264,3.28021918 C12.264,2.79424658 12.0639344,2.75771233 11.7041311,2.75771233 C11.266918,2.75771233 11.1852787,2.89569863 11.173082,3.31320548 Z" id="Fill-3" fill="#FFFFFE"></path>
            </g>
        </g>
    </g>
</svg>