<?xml version="1.0" encoding="UTF-8"?>
<svg viewBox="0 0 32 32" version="1.1" xmlns="http://www.w3.org/2000/svg" xmlns:xlink="http://www.w3.org/1999/xlink">
    <!-- Generator: Sketch 48.2 (47327) - http://www.bohemiancoding.com/sketch -->
    <title>logo/24/fb</title>
    <desc>Created with Sketch.</desc>
    <defs></defs>
    <g id="Icons" stroke="none" stroke-width="1" fill="none" fill-rule="evenodd">
        <g id="logo/24/fb" fill="#3B5998" fill-rule="nonzero">
            <g id="asset-(5)" transform="translate(4.000000, 4.000000)">
                <path d="M12,24 C5.36,24 0,18.64 0,12 C0,5.36 5.36,0 12,0 C18.64,0 24,5.36 24,12 C24,18.64 18.64,24 12,24 Z M10.32,18.52 L13,18.52 L13,12 L14.8,12 L15.04,9.76 L13,9.76 L13,8.64 C13,8.04 13.04,7.72 13.88,7.72 L15,7.72 L15,5.48 L13.2,5.48 C11.04,5.48 10.28,6.56 10.28,8.4 L10.28,9.76 L8.92,9.76 L8.92,12 L10.28,12 L10.28,18.52 L10.32,18.52 Z" id="Shape"></path>
            </g>
        </g>
    </g>
</svg>