<?xml version="1.0" encoding="UTF-8"?>
<svg viewBox="0 0 32 32" version="1.1" xmlns="http://www.w3.org/2000/svg" xmlns:xlink="http://www.w3.org/1999/xlink">
    <!-- Generator: Sketch 50 (54983) - http://www.bohemiancoding.com/sketch -->
    <title>logo/24/icloud</title>
    <desc>Created with Sketch.</desc>
    <defs>
        <linearGradient x1="1.89807047%" y1="91.4780256%" x2="96.4092212%" y2="39.9044832%" id="linearGradient-1">
            <stop stop-color="#7DDDFD" offset="0%"></stop>
            <stop stop-color="#1197FA" offset="100%"></stop>
        </linearGradient>
    </defs>
    <g id="logo/24/icloud" stroke="none" stroke-width="1" fill="none" fill-rule="evenodd">
        <path d="M20.9217002,20.5 L11.1856823,20.5 C9.42462918,20.4904417 8,19.0781877 8,17.3374558 C8,16.0015162 8.83909612,14.8590477 10.0253897,14.395648 C10.1784053,13.2734186 11.1523898,12.4081272 12.3310962,12.4081272 C12.6915367,12.4081272 13.0328337,12.4890402 13.337366,12.6334706 C14.1041653,11.356272 15.514547,10.5 17.1275168,10.5 C19.4448903,10.5 21.3440932,12.2674673 21.5173223,14.5113505 C22.9313182,14.7780251 24,16.0052085 24,17.4787986 C24,19.1473621 22.629811,20.5 20.9395973,20.5 C20.9336276,20.5 20.9276619,20.4999831 20.9217002,20.4999494 Z" id="Combined-Shape" fill="url(#linearGradient-1)"></path>
        <circle id="Oval-2-Copy-2" stroke="#D8D8D8" cx="16" cy="16" r="11.5"></circle>
    </g>
</svg>