<?xml version="1.0" encoding="UTF-8"?>
<svg viewBox="0 0 32 32" version="1.1" xmlns="http://www.w3.org/2000/svg" xmlns:xlink="http://www.w3.org/1999/xlink">
    <!-- Generator: Sketch 48.2 (47327) - http://www.bohemiancoding.com/sketch -->
    <title>logo/24/instagram</title>
    <desc>Created with Sketch.</desc>
    <defs>
        <radialGradient cx="29.09913%" cy="110.392439%" fx="29.09913%" fy="110.392439%" r="87.6635308%" gradientTransform="translate(0.290991,1.103924),scale(1.000000,1.076048),translate(-0.290991,-1.103924)" id="radialGradient-1">
            <stop stop-color="#FFDD55" offset="0%"></stop>
            <stop stop-color="#FFDD55" offset="10%"></stop>
            <stop stop-color="#FF543E" offset="50%"></stop>
            <stop stop-color="#C837AB" offset="100%"></stop>
        </radialGradient>
        <radialGradient cx="6.06074209%" cy="-11.2131067%" fx="6.06074209%" fy="-11.2131067%" r="85.7701411%" id="radialGradient-2">
            <stop stop-color="#3771C8" offset="0%"></stop>
            <stop stop-color="#3771C8" offset="12.8%"></stop>
            <stop stop-color="#6600FF" stop-opacity="0" offset="100%"></stop>
        </radialGradient>
    </defs>
    <g id="Icons" stroke="none" stroke-width="1" fill="none" fill-rule="evenodd">
        <g id="logo/24/instagram">
            <circle id="Oval" fill="url(#radialGradient-1)" cx="16" cy="16" r="12"></circle>
            <circle id="Oval" fill="url(#radialGradient-2)" cx="16" cy="16" r="12"></circle>
            <path d="M16,8.61538462 C13.9938462,8.61538462 13.7433846,8.62461538 12.9556923,8.65969231 C12.1692308,8.69661538 11.6338462,8.82030769 11.1630769,9.00307692 C10.6775385,9.19138462 10.2652308,9.44430769 9.85476923,9.85476923 C9.44430769,10.2652308 9.19076923,10.6769231 9.00307692,11.1630769 C8.82030769,11.6338462 8.696,12.1692308 8.65969231,12.9556923 C8.62276923,13.7433846 8.61538462,13.9938462 8.61538462,16 C8.61538462,18.0061538 8.62461538,18.2566154 8.65969231,19.0443077 C8.69661538,19.8301538 8.82030769,20.3661538 9.00307692,20.8369231 C9.19138462,21.3218462 9.44430769,21.7347692 9.85476923,22.1452308 C10.2652308,22.5550769 10.6769231,22.8092308 11.1630769,22.9969231 C11.6344615,23.1790769 12.1698462,23.304 12.9556923,23.3403077 C13.7433846,23.3772308 13.9938462,23.3846154 16,23.3846154 C18.0061538,23.3846154 18.2566154,23.3753846 19.0443077,23.3403077 C19.8301538,23.3033846 20.3661538,23.1790769 20.8369231,22.9969231 C21.3218462,22.8086154 21.7347692,22.5550769 22.1452308,22.1452308 C22.5550769,21.7347692 22.8092308,21.3236923 22.9969231,20.8369231 C23.1790769,20.3661538 23.304,19.8301538 23.3403077,19.0443077 C23.3772308,18.2566154 23.3846154,18.0061538 23.3846154,16 C23.3846154,13.9938462 23.3753846,13.7433846 23.3403077,12.9556923 C23.3033846,12.1698462 23.1790769,11.6332308 22.9969231,11.1630769 C22.8086154,10.6775385 22.5550769,10.2652308 22.1452308,9.85476923 C21.7347692,9.44430769 21.3236923,9.19076923 20.8369231,9.00307692 C20.3661538,8.82030769 19.8301538,8.696 19.0443077,8.65969231 C18.2566154,8.62276923 18.0061538,8.61538462 16,8.61538462 Z M16,9.94461538 C17.9710769,9.94461538 18.2061538,9.95446154 18.9846154,9.98830769 C19.7046154,10.0221538 20.0953846,10.1415385 20.3550769,10.2436923 C20.7009231,10.3772308 20.9458462,10.5372308 21.2055385,10.7950769 C21.4633846,11.0535385 21.6233846,11.2990769 21.7569231,11.6449231 C21.8578462,11.9046154 21.9784615,12.2953846 22.0110769,13.0153846 C22.0461538,13.7944615 22.0541538,14.0283077 22.0541538,16 C22.0541538,17.9716923 22.0449231,18.2061538 22.0086154,18.9846154 C21.9710769,19.7046154 21.8510769,20.0953846 21.7495385,20.3550769 C21.6116923,20.7009231 21.4547692,20.9458462 21.1963077,21.2055385 C20.9384615,21.4633846 20.6892308,21.6233846 20.3470769,21.7569231 C20.0886154,21.8578462 19.6916923,21.9784615 18.9716923,22.0110769 C18.1876923,22.0461538 17.9569231,22.0541538 15.9815385,22.0541538 C14.0055385,22.0541538 13.7747692,22.0449231 12.9913846,22.0086154 C12.2707692,21.9710769 11.8738462,21.8510769 11.6153846,21.7495385 C11.2652308,21.6116923 11.0246154,21.4547692 10.7667692,21.1963077 C10.5076923,20.9384615 10.3421538,20.6892308 10.2129231,20.3470769 C10.1113846,20.0886154 9.992,19.6916923 9.95446154,18.9716923 C9.92676923,18.1963077 9.91692308,17.9569231 9.91692308,15.9907692 C9.91692308,14.024 9.92676923,13.784 9.95446154,12.9993846 C9.992,12.2793846 10.1113846,11.8830769 10.2129231,11.6246154 C10.3421538,11.2738462 10.5076923,11.0338462 10.7667692,10.7747692 C11.0246154,10.5169231 11.2652308,10.3507692 11.6153846,10.2221538 C11.8738462,10.12 12.2621538,10 12.9821538,9.96307692 C13.7667692,9.93538462 13.9975385,9.92615385 15.9723077,9.92615385 L16,9.94461538 Z M16,12.208 C13.9046154,12.208 12.208,13.9064615 12.208,16 C12.208,18.0953846 13.9064615,19.792 16,19.792 C18.0953846,19.792 19.792,18.0935385 19.792,16 C19.792,13.9046154 18.0935385,12.208 16,12.208 Z M16,18.4615385 C14.64,18.4615385 13.5384615,17.36 13.5384615,16 C13.5384615,14.64 14.64,13.5384615 16,13.5384615 C17.36,13.5384615 18.4615385,14.64 18.4615385,16 C18.4615385,17.36 17.36,18.4615385 16,18.4615385 Z M20.8283077,12.0584615 C20.8283077,12.5476923 20.4307692,12.9446154 19.9421538,12.9446154 C19.4529231,12.9446154 19.056,12.5470769 19.056,12.0584615 C19.056,11.5698462 19.4535385,11.1729231 19.9421538,11.1729231 C20.4301538,11.1723077 20.8283077,11.5698462 20.8283077,12.0584615 Z" id="Shape" fill="#FFFFFF" fill-rule="nonzero"></path>
        </g>
    </g>
</svg>