<?xml version="1.0" encoding="UTF-8"?>
<svg viewBox="0 0 32 32" version="1.1" xmlns="http://www.w3.org/2000/svg" xmlns:xlink="http://www.w3.org/1999/xlink">
    <!-- Generator: Sketch 48.2 (47327) - http://www.bohemiancoding.com/sketch -->
    <title>logo/24/viber</title>
    <desc>Created with Sketch.</desc>
    <defs></defs>
    <g id="Icons" stroke="none" stroke-width="1" fill="none" fill-rule="evenodd">
        <g id="logo/24/viber">
            <g id="viber" transform="translate(4.000000, 4.000000)">
                <circle id="Oval-2" fill="#7C529E" cx="12" cy="12" r="12"></circle>
                <path d="M17.4227692,6.44124357 C17.056,6.10339742 15.5729231,5.02585895 12.2683077,5.01047434 C12.2683077,5.01047434 8.37230769,4.77662818 6.47446154,6.51878203 C5.41661538,7.57724357 5.04492308,9.12124357 5.00553846,11.0424743 C4.96553846,12.958782 4.91507692,16.5526282 8.38153846,17.5286282 L8.38461538,17.5286282 L8.38153846,19.0153974 C8.38153846,19.0153974 8.36061538,19.617859 8.75630769,19.7403205 C9.23569231,19.8880128 9.51692308,19.4301666 9.97476923,18.9384743 C10.2264615,18.6683205 10.5729231,18.2689359 10.8344615,17.9649359 C13.2043077,18.1630897 15.0270769,17.7089359 15.2338462,17.641859 C15.712,17.4855513 18.4190769,17.1397051 18.8603077,13.5446282 C19.3144615,9.83939742 18.6406154,7.49539742 17.4215385,6.43878203 L17.4215385,6.44124357 L17.4227692,6.44124357 Z M17.824,13.2793974 C17.4455385,16.2800128 15.2492308,16.4713974 14.8516923,16.6000128 C14.6763077,16.6566282 13.0701538,17.0541666 11.0584615,16.9230897 C11.0584615,16.9230897 9.55384615,18.7329359 9.09230769,19.2030897 C9.01784615,19.2775513 8.92553846,19.3052436 8.87015385,19.2923205 C8.78707692,19.2744743 8.76923077,19.1815513 8.76923077,19.0437051 L8.77846154,16.5784743 C8.76923077,16.5784743 8.77846154,16.5784743 8.77846154,16.5784743 C5.84246154,15.7563205 6.01846154,12.7009359 6.05538462,11.0953974 C6.08246154,9.49785895 6.38646154,8.18708972 7.28246154,7.30032049 C8.88923077,5.84124357 12.2036923,6.06216665 12.2036923,6.06216665 C14.9993846,6.0720128 16.3396923,6.91447434 16.6486154,7.19816665 C17.6787692,8.07939742 18.2049231,10.1920128 17.8203077,13.2861666 L17.824,13.2793974 Z M9.37907692,8.06585895 C9.528,8.06585895 9.66153846,8.13293588 9.76615385,8.25724357 C9.76861538,8.25847434 10.1230769,8.68493588 10.2769231,8.89355126 C10.4215385,9.09047434 10.616,9.40432049 10.7144615,9.57970511 C10.8898462,9.89355126 10.7784615,10.214782 10.6086154,10.3477051 L10.2603077,10.6246282 C10.0849231,10.7655513 10.1064615,11.0264743 10.1064615,11.0264743 C10.1064615,11.0264743 10.6233846,12.9692436 12.5427692,13.4590897 C12.5427692,13.4590897 12.8049231,13.4830897 12.9452308,13.3077051 L13.2227692,12.9575513 C13.3538462,12.7821666 13.6744615,12.6713974 13.9883077,12.8461666 C14.1636923,12.9384743 14.4775385,13.1329359 14.6750769,13.2793974 C14.8836923,13.4270897 15.3101538,13.7877051 15.3126154,13.7877051 C15.5156923,13.9544743 15.5612308,14.2117051 15.4233846,14.4701666 L15.4233846,14.4800128 C15.2818462,14.7292436 15.0904615,14.9600128 14.8486154,15.1821666 L14.8436923,15.1821666 C14.6504615,15.3483205 14.4566154,15.4406282 14.2627692,15.4584743 C14.2443077,15.4584743 14.2166154,15.4683205 14.1790769,15.4584743 C14.096,15.4584743 14.0129231,15.4406282 13.9304615,15.4209359 L13.9304615,15.4123205 C13.6350769,15.3292436 13.1458462,15.1169359 12.3329231,14.6640128 C11.8067692,14.3692436 11.3643077,14.0732436 10.9858462,13.7686282 C10.792,13.6117051 10.5889231,13.4363205 10.3852308,13.2332436 L10.3384615,13.2160128 L10.32,13.1975513 L10.3021538,13.1797051 C10.0984615,12.9766282 9.92369231,12.7735513 9.76615385,12.5766282 C9.47076923,12.201859 9.17538462,11.7600128 8.88061538,11.2295513 C8.42830769,10.4172436 8.216,9.9280128 8.13292308,9.6320128 L8.12307692,9.6320128 C8.09538462,9.54955126 8.07692308,9.46647434 8.08615385,9.38339742 C8.07692308,9.34585895 8.08615385,9.31878203 8.08615385,9.29662818 C8.10461538,9.11262818 8.20246154,8.91878203 8.368,8.71570511 L8.37107692,8.71570511 C8.58953846,8.47570511 8.82523077,8.28247434 9.07630769,8.14155126 C9.17723077,8.08555126 9.27876923,8.05847434 9.37107692,8.05847434 L9.38092308,8.05847434 L9.37907692,8.06585895 Z M11.8990769,7.64555126 L11.9704615,7.64555126 L12.0172308,7.64678203 L12.0295385,7.64678203 L12.0843077,7.64985895 L12.3987692,7.64985895 L12.4818462,7.65908972 L12.5273846,7.65908972 L12.6196923,7.66893588 L12.6381538,7.66893588 L12.7021538,7.67816665 L12.712,7.67816665 L12.7575385,7.68739742 C12.7858462,7.68739742 12.8043077,7.69724357 12.8221538,7.69724357 L12.8781538,7.69724357 L12.9243077,7.71508972 L12.9612308,7.72493588 L12.9981538,7.73416665 L13.0166154,7.74339742 L13.0443077,7.74339742 L13.0726154,7.75324357 L13.0904615,7.75324357 L13.136,7.76308972 L13.1636923,7.77170511 L13.192,7.78155126 L13.2289231,7.79139742 L13.2473846,7.8000128 C13.2658462,7.8000128 13.2843077,7.80985895 13.3033846,7.80985895 L13.3304615,7.81908972 L13.3587692,7.82893588 L13.432,7.8560128 L13.4695385,7.87508972 L13.5526154,7.9120128 L13.5803077,7.92124357 L13.608,7.93108972 L13.6633846,7.95878203 L13.7009231,7.9680128 L13.7187692,7.97724357 L13.7655385,7.99632049 L13.7833846,8.00493588 L13.8209231,8.0240128 L13.8486154,8.03262818 L13.8763077,8.05108972 L13.9126154,8.06955126 L13.9409231,8.08739742 L13.9593846,8.09724357 L13.9969231,8.11570511 L14.024,8.13416665 L14.0701538,8.16185895 L14.0978462,8.17170511 L14.1433846,8.19878203 L14.1532308,8.2080128 L14.1809231,8.22708972 L14.2363077,8.27262818 L14.2646154,8.29108972 L14.2916923,8.30955126 L14.3107692,8.31816665 L14.3384615,8.33724357 L14.384,8.38278203 L14.4215385,8.41047434 L14.4492308,8.42893588 L14.4590769,8.43816665 L14.4769231,8.4480128 L14.5224615,8.48555126 L14.5507692,8.51262818 L14.5692308,8.53108972 L14.5969231,8.54893588 L14.6246154,8.5680128 L14.6424615,8.57724357 L14.7163077,8.65108972 L14.7532308,8.68862818 L14.8363077,8.77170511 L14.8553846,8.78955126 C14.8652308,8.79939742 14.8830769,8.81724357 14.8929231,8.83570511 L14.9107692,8.85416665 L15.0129231,8.97355126 L15.0406154,9.01047434 C15.0492308,9.02032049 15.0492308,9.02955126 15.0584615,9.02955126 L15.1138462,9.11262818 L15.1415385,9.14032049 L15.1969231,9.21416665 L15.2436923,9.2880128 L15.2713846,9.34339742 L15.3076923,9.4080128 L15.3353846,9.46339742 L15.3452308,9.48124357 L15.3630769,9.51878203 L15.4098462,9.61108972 L15.4553846,9.70278203 L15.4744615,9.74893588 C15.5107692,9.8320128 15.5384615,9.91508972 15.5753846,10.0073974 C15.6209231,10.1273974 15.6584615,10.2560128 15.6861538,10.3950897 C15.7138462,10.4966282 15.7329231,10.5889359 15.7507692,10.6904743 L15.7686154,10.8566282 L15.7963077,11.0412436 C15.8061538,11.1157051 15.8153846,11.198782 15.8153846,11.2720128 C15.824,11.3464743 15.824,11.4197051 15.824,11.4929359 L15.824,11.6504743 C15.824,11.6603205 15.8203077,11.6683205 15.8153846,11.6781666 C15.8055385,11.6966282 15.7963077,11.705859 15.7778462,11.7243205 C15.7649231,11.7335513 15.7476923,11.7526282 15.7286154,11.7526282 C15.7107692,11.7612436 15.6923077,11.7612436 15.6732308,11.7612436 L15.6455385,11.7612436 C15.6276923,11.7612436 15.6092308,11.7526282 15.5901538,11.7433974 C15.5723077,11.7335513 15.5526154,11.7249359 15.5446154,11.705859 C15.5347692,11.6880128 15.5169231,11.6683205 15.5070769,11.6504743 C15.4972308,11.6326282 15.488,11.6135513 15.488,11.5950897 L15.488,11.3741666 C15.4793846,11.2455513 15.4701538,11.1126282 15.4516923,10.9809359 C15.4418462,10.8910897 15.424,10.8061666 15.4141538,10.7224743 C15.4141538,10.6769359 15.4043077,10.6326282 15.3963077,10.593859 L15.3784615,10.5015513 L15.3550769,10.414782 L15.3452308,10.3593974 L15.3175385,10.2670897 C15.2996923,10.1932436 15.272,10.1193974 15.2443077,10.0455513 C15.2264615,9.98955126 15.2067692,9.9440128 15.1796923,9.89847434 L15.1618462,9.85170511 L15.0787692,9.68555126 L15.0596923,9.65785895 C15.0221538,9.57478203 14.9766154,9.49170511 14.9212308,9.41724357 L14.8935385,9.37170511 L14.7698462,9.37170511 L14.7304615,9.31570511 C14.6966154,9.26093588 14.6603077,9.21416665 14.6196923,9.16862818 L14.5427692,9.07632049 L14.5335385,9.06647434 L14.5052308,9.03139742 L14.4836923,9.00370511 L14.4375385,8.95816665 L14.4283077,8.93970511 L14.3852308,8.90278203 L14.3575385,8.87447434 L14.3064615,8.82832049 L14.2818462,8.80555126 L14.2535385,8.77785895 L14.2443077,8.7680128 C14.2344615,8.75878203 14.2166154,8.74032049 14.1981538,8.73108972 L14.1513846,8.69293588 L14.1329231,8.68370511 L14.0953846,8.65539742 L14.0498462,8.61847434 L14.0221538,8.59632049 L14.0036923,8.58647434 L13.9667692,8.55385895 C13.9667692,8.5440128 13.9569231,8.5440128 13.9476923,8.5440128 L13.9298462,8.52616665 L13.9206154,8.51632049 L13.9206154,8.50832049 L13.9021538,8.49970511 L13.8646154,8.47693588 L13.8375385,8.45785895 L13.7913846,8.43016665 L13.7544615,8.40247434 L13.7366154,8.39262818 L13.7169231,8.38462818 L13.6615385,8.38462818 L13.6498462,8.37478203 L13.6098462,8.35324357 L13.6043077,8.34462818 L13.5858462,8.33478203 L13.5581538,8.32185895 L13.5507692,8.32185895 L13.5230769,8.3120128 L13.5076923,8.30278203 L13.48,8.29355126 L13.4738462,8.28678203 L13.4553846,8.27693588 L13.4227692,8.25908972 L13.4043077,8.24985895 L13.3489231,8.23139742 L13.3033846,8.21355126 L13.2190769,8.20370511 L13.192,8.18585895 C13.1827692,8.17970511 13.1735385,8.1760128 13.1636923,8.1760128 L13.1458462,8.16678203 C13.128,8.1600128 13.1181538,8.15693588 13.0996923,8.14832049 L13.0812308,8.13847434 L13.0633846,8.13847434 L13.0258462,8.12062818 L13.008,8.11078203 L12.9803077,8.10155126 L12.9236923,8.10155126 C12.9187692,8.10155126 12.912,8.09847434 12.9052308,8.09724357 L12.8498462,8.09724357 L12.8221538,8.08739742 L12.8129231,8.08739742 L12.7852308,8.07755126 L12.76,8.07755126 C12.7446154,8.06893588 12.7323077,8.06893588 12.7169231,8.06893588 L12.7107692,8.05908972 L12.6738462,8.04985895 C12.6553846,8.0400128 12.6393846,8.0400128 12.6221538,8.0400128 L12.5944615,8.03078203 L12.5636923,8.02093588 L12.536,8.01232049 L12.4984615,8.00247434 L12.4609231,8.00247434 L12.3507692,7.98893588 L12.2953846,7.98893588 L12.224,7.97970511 L12.1772308,7.97970511 L12.1353846,7.97478203 L12.1169231,7.97478203 L12.0836923,7.96493588 L11.9083077,7.96493588 L11.9021538,7.95570511 L11.8646154,7.95570511 C11.8461538,7.95570511 11.8252308,7.94647434 11.8092308,7.93724357 C11.7907692,7.92739742 11.7716923,7.91939742 11.7593846,7.90032049 L11.7409231,7.8720128 C11.7230769,7.85416665 11.7230769,7.83508972 11.7132308,7.81662818 C11.7046154,7.79939742 11.7046154,7.78032049 11.7046154,7.76185895 C11.7046154,7.74339742 11.7046154,7.72493588 11.7138462,7.70647434 C11.7236923,7.68862818 11.7316923,7.66955126 11.7513846,7.66032049 C11.7606154,7.64185895 11.7784615,7.63324357 11.7969231,7.62339742 C11.8147692,7.61355126 11.8344615,7.60493588 11.8523077,7.60493588 L11.8898462,7.60493588 L11.8990769,7.64555126 Z M12.24,8.61416665 L12.2627692,8.6160128 L12.3003077,8.61970511 C12.3052308,8.61970511 12.3113846,8.61970511 12.3181538,8.62155126 C12.3316923,8.62155126 12.3458462,8.6240128 12.3643077,8.62524357 L12.4012308,8.63016665 L12.416,8.6400128 L12.4436923,8.64924357 L12.4732308,8.65847434 L12.5009231,8.66832049 L12.5193846,8.66832049 L12.5452308,8.67755126 L12.5883077,8.68678203 L12.6227692,8.69662818 L12.6387692,8.70524357 L12.6836923,8.70524357 L12.7569231,8.72247434 L12.7852308,8.73170511 L12.8129231,8.74093588 L12.8406154,8.75078203 C12.8406154,8.75078203 12.8498462,8.75078203 12.8498462,8.7600128 L12.8781538,8.76924357 L12.9052308,8.77908972 L12.9329231,8.78893588 C12.9421538,8.78893588 12.9513846,8.79755126 12.9612308,8.79755126 C12.9655385,8.79755126 12.9698462,8.80739742 12.9766154,8.80739742 L13.016,8.82585895 L13.0338462,8.82585895 L13.0892308,8.84432049 L13.12,8.86216665 L13.1483077,8.88062818 L13.2147692,8.90832049 L13.2516923,8.91755126 L13.2707692,8.93662818 C13.2984615,8.94524357 13.3261538,8.96370511 13.3538462,8.97293588 L13.3833846,8.99139742 L13.4129231,9.00985895 L13.4430769,9.02770511 C13.4707692,9.04616665 13.4935385,9.0560128 13.5175385,9.07447434 L13.5353846,9.08308972 L13.5606154,9.10216665 L13.5741538,9.11139742 L13.6203077,9.13908972 L13.6430769,9.15755126 L13.6830769,9.1840128 L13.7009231,9.19324357 L13.7193846,9.20247434 L13.7476923,9.22093588 L13.7846154,9.24924357 C13.7938462,9.25785895 13.7981538,9.25785895 13.8055385,9.26708972 C13.8116923,9.27632049 13.8153846,9.27632049 13.8209231,9.28555126 L13.8412308,9.3040128 L13.8633846,9.32185895 L13.8818462,9.34032049 L13.9101538,9.36862818 L13.928,9.38708972 L13.9378462,9.39693588 L13.9932308,9.45170511 L14.0030769,9.46155126 C14.0030769,9.47078203 14.0123077,9.4800128 14.0209231,9.4800128 L14.0307692,9.4880128 L14.0584615,9.51632049 L14.0763077,9.5440128 L14.0947692,9.56247434 L14.1224615,9.59939742 L14.1507692,9.62770511 L14.2061538,9.70093588 L14.2147692,9.71878203 L14.2523077,9.76555126 L14.2621538,9.78339742 L14.2713846,9.80247434 L14.2806154,9.82032049 L14.2904615,9.83878203 C14.3003077,9.8480128 14.3003077,9.85724357 14.3083077,9.87570511 L14.3347692,9.92247434 L14.3446154,9.93170511 L14.3624615,9.96924357 L14.3815385,9.99632049 C14.3901538,10.0055513 14.3901538,10.0141666 14.3993846,10.0240128 L14.4178462,10.0517051 L14.4363077,10.0892436 L14.4541538,10.1255513 L14.464,10.153859 C14.4732308,10.1809359 14.4916923,10.2000128 14.5009231,10.2277051 C14.5009231,10.2369359 14.5101538,10.2455513 14.5101538,10.2553974 L14.5378462,10.3286282 L14.5753846,10.4486282 C14.5753846,10.4584743 14.5846154,10.4763205 14.5846154,10.4861666 L14.6129231,10.5692436 L14.64,10.6800128 L14.6683077,10.8277051 C14.6769231,10.8732436 14.6769231,10.910782 14.6861538,10.9575513 C14.696,11.030782 14.7046154,11.1040128 14.7046154,11.1784743 L14.7138462,11.3077051 L14.7138462,11.4092436 C14.7138462,11.4190897 14.7138462,11.4270897 14.7046154,11.4369359 L14.6775385,11.4633974 C14.6596923,11.4775513 14.6498462,11.4910897 14.632,11.5009359 C14.6135385,11.5101666 14.5944615,11.518782 14.5766154,11.5255513 C14.5575385,11.5353974 14.5304615,11.5353974 14.512,11.5353974 C14.4941538,11.5353974 14.4744615,11.5255513 14.4566154,11.5169359 C14.4467692,11.5169359 14.4381538,11.5070897 14.4289231,11.5040128 C14.4098462,11.4953974 14.3913846,11.4800128 14.3827692,11.4640128 C14.3643077,11.4455513 14.3544615,11.4270897 14.3544615,11.4080128 L14.3458462,11.3809359 L14.3458462,11.1883205 C14.3458462,11.1064743 14.336,11.030782 14.3267692,10.9513974 C14.3175385,10.8683205 14.2996923,10.7760128 14.2812308,10.6929359 C14.2633846,10.6375513 14.2535385,10.5821666 14.2350769,10.5329359 L14.2166154,10.4769359 L14.1987692,10.430782 L14.1889231,10.4123205 L14.1612308,10.3384743 L14.1335385,10.2830897 L14.0873846,10.1913974 L14.0449231,10.1175513 L14.0449231,10.105859 L14.0270769,10.0769359 L14.0086154,10.0535513 L13.9809231,10.0073974 L13.9526154,9.96985895 L13.8978462,9.89662818 C13.8695385,9.85908972 13.8424615,9.82278203 13.8104615,9.78708972 C13.8018462,9.77785895 13.7926154,9.76924357 13.7926154,9.75939742 L13.7741538,9.74155126 L13.7636923,9.73170511 L13.7452308,9.72308972 L13.7267692,9.70647434 L13.7267692,9.61662818 L13.6535385,9.54708972 L13.6073846,9.50524357 L13.6073846,9.49662818 L13.5889231,9.47755126 L13.5655385,9.45970511 L13.5563077,9.44985895 C13.5563077,9.44062818 13.5464615,9.44062818 13.5384615,9.44062818 L13.5101538,9.43078203 L13.5009231,9.42155126 L13.4633846,9.39385895 L13.4547692,9.3840128 L13.4449231,9.37478203 C13.4375385,9.36555126 13.4307692,9.36555126 13.4264615,9.36555126 L13.3895385,9.33785895 L13.3796923,9.3280128 L13.3427692,9.31016665 L13.336,9.30032049 L13.3083077,9.28247434 L13.2898462,9.27262818 L13.2713846,9.25478203 L13.2535385,9.23570511 L13.2436923,9.23570511 C13.2258462,9.21785895 13.2067692,9.20862818 13.1790769,9.19878203 L13.152,9.18032049 L13.1335385,9.17170511 L13.1236923,9.16185895 L13.096,9.14339742 L13.0689231,9.13416665 L13.032,9.11570511 L13.0036923,9.10647434 L12.9944615,9.09662818 L12.96,9.0880128 L12.96,9.08062818 L12.904,9.06216665 L12.8670769,9.04370511 L12.8486154,9.03447434 L12.8116923,9.03447434 C12.7932308,9.02524357 12.784,9.02524357 12.7655385,9.0160128 L12.7384615,9.0160128 L12.7107692,9.00616665 L12.6836923,9.00616665 L12.6553846,8.99755126 L12.6375385,8.98770511 L12.6,8.98770511 L12.5624615,8.97847434 L12.5446154,8.96862818 L12.4430769,8.96862818 L12.4006154,8.95939742 L12.1846154,8.95939742 L12.1563077,8.94955126 C12.1384615,8.94093588 12.1193846,8.93170511 12.1009231,8.91262818 C12.0923077,8.89416665 12.0732308,8.87570511 12.064,8.85785895 C12.0547692,8.83878203 12.0455385,8.82032049 12.0455385,8.80185895 L12.0455385,8.74647434 C12.0492308,8.71816665 12.0553846,8.70032049 12.064,8.68185895 C12.0689231,8.67262818 12.0732308,8.66339742 12.0824615,8.65416665 C12.0935385,8.63570511 12.1101538,8.61724357 12.1286154,8.6080128 C12.1378462,8.59878203 12.1470769,8.59878203 12.1556923,8.59016665 C12.1747692,8.58032049 12.1932308,8.58032049 12.2116923,8.58032049 L12.2486154,8.58032049 L12.24,8.61416665 Z M12.5193846,9.61662818 C12.5286154,9.61662818 12.5378462,9.61662818 12.5464615,9.61908972 C12.5563077,9.61908972 12.5655385,9.61908972 12.5747692,9.62032049 L12.6067692,9.62339742 C12.6707692,9.62893588 12.7378462,9.63816665 12.8024615,9.65170511 L12.8664615,9.66585895 L12.8824615,9.67078203 L12.9526154,9.68862818 L12.9889231,9.70093588 L13.0172308,9.71078203 C13.0449231,9.71939742 13.0732308,9.73847434 13.1003077,9.74770511 L13.1101538,9.75693588 L13.1470769,9.77539742 L13.2024615,9.80370511 L13.2203077,9.81232049 C13.2301538,9.82216665 13.2393846,9.82216665 13.2486154,9.83078203 C13.2578462,9.84062818 13.2763077,9.84924357 13.2855385,9.85847434 C13.3230769,9.87693588 13.3501538,9.90462818 13.3778462,9.92308972 L13.4424615,9.97847434 L13.4978462,10.0344743 L13.5353846,10.0800128 L13.5532308,10.097859 L13.5716923,10.1169359 L13.5987692,10.153859 L13.6547692,10.2369359 L13.7009231,10.3200128 L13.7378462,10.393859 L13.7661538,10.4584743 C13.7932308,10.5224743 13.8030769,10.5784743 13.8215385,10.6424743 C13.8393846,10.6984743 13.8492308,10.7630897 13.8584615,10.817859 L13.8676923,10.9101666 L13.8775385,10.993859 L13.8775385,11.0301666 C13.8775385,11.057859 13.8676923,11.0763205 13.8590769,11.094782 C13.8498462,11.1126282 13.8307692,11.1403205 13.8129231,11.1501666 C13.7944615,11.1680128 13.7753846,11.177859 13.7483077,11.1877051 C13.7304615,11.1963205 13.7113846,11.1963205 13.6929231,11.1963205 C13.6750769,11.1963205 13.656,11.1963205 13.6375385,11.1877051 L13.5735385,11.1593974 C13.5550769,11.1409359 13.5366154,11.1317051 13.5175385,11.1033974 C13.5083077,11.0855513 13.4996923,11.0664743 13.4898462,11.0393974 L13.4898462,10.9372436 L13.4806154,10.8726282 L13.4713846,10.7993974 L13.4615385,10.734782 L13.4516923,10.697859 C13.4516923,10.6886282 13.4430769,10.6701666 13.4430769,10.6609359 C13.4246154,10.5864743 13.3876923,10.5132436 13.3507692,10.4393974 L13.3132308,10.4024743 L13.2843077,10.3655513 L13.2566154,10.337859 L13.2473846,10.3193974 L13.2012308,10.2824743 L13.1636923,10.2449359 L13.1273846,10.2172436 C13.1175385,10.2080128 13.1089231,10.2080128 13.0898462,10.1993974 L13.0344615,10.161859 L12.9969231,10.1433974 L12.9790769,10.1341666 L12.9692308,10.1341666 L12.9224615,10.1150897 L12.8670769,10.0966282 L12.8116923,10.0873974 L12.7655385,10.0873974 L12.7384615,10.0781666 L12.7169231,10.073859 L12.6892308,10.073859 L12.6523077,10.0640128 L12.4953846,10.0640128 L12.4861538,10.017859 L12.4621538,10.017859 C12.4436923,10.0153974 12.4283077,10.0086282 12.4129231,10.0000128 C12.3913846,9.98708972 12.3735385,9.97232049 12.3575385,9.95078203 C12.3464615,9.93293588 12.3366154,9.91324357 12.3298462,9.89539742 C12.3249231,9.87755126 12.3224615,9.85847434 12.3224615,9.8400128 C12.3224615,9.81724357 12.3224615,9.79385895 12.3316923,9.77047434 C12.3409231,9.74647434 12.3501538,9.72739742 12.3686154,9.70893588 L12.4061538,9.68124357 C12.424,9.67139742 12.4436923,9.66278203 12.4615385,9.66278203 L12.4996923,9.61662818 L12.5193846,9.61662818 Z" id="Shape" fill="#FFFFFF" fill-rule="nonzero"></path>
            </g>
        </g>
    </g>
</svg>