<svg viewBox="0 0 259 259" fill="none" xmlns="http://www.w3.org/2000/svg">
<path d="M74.9789 12.0364C92.7939 3.7675 112.256 -0.340877 131.893 0.0221198C151.531 0.385117 170.828 5.20998 188.325 14.1316L129.5 129.5L74.9789 12.0364Z" fill="#DDFFEC"/>
<path d="M188.067 14.0003C205.103 22.6387 220.016 34.9386 231.74 50.0185C243.463 65.0984 251.705 82.5849 255.875 101.225L129.5 129.5L188.067 14.0003Z" fill="#E1FAFF"/>
<path d="M255.835 101.043C260.104 119.996 260.054 139.666 255.689 158.597C251.324 177.528 242.755 195.234 230.618 210.404L129.5 129.5L255.835 101.043Z" fill="#EBEAFF"/>
<path d="M230.817 210.154C218.718 225.353 203.353 237.636 185.862 246.091C168.371 254.547 149.202 258.959 129.774 259L129.5 129.5L230.817 210.154Z" fill="#FFEEFF"/>
<path d="M129.5 259C110.072 259 90.8936 254.629 73.3846 246.21C55.8757 237.792 40.4852 225.542 28.3533 210.368L129.5 129.5V259Z" fill="#FFC5C9"/>
<path d="M28.0861 210.032C16.0046 194.818 7.50098 177.081 3.20531 158.134C-1.09037 139.187 -1.06805 119.517 3.27061 100.58L129.5 129.5L28.0861 210.032Z" fill="#FFCFC7"/>
<path d="M3.37653 100.121C7.83105 80.9978 16.5758 63.1379 28.9495 47.8921C41.3232 32.6463 57.0017 20.4139 74.7992 12.12L129.5 129.5L3.37653 100.121Z" fill="#FFEDD1"/>
<path d="M84.3666 32.023C99.1817 25.1466 115.367 21.73 131.697 22.0319C148.028 22.3338 164.075 26.3462 178.626 33.7655L129.707 129.707L84.3666 32.023Z" fill="#0CDC78"/>
<path d="M178.411 33.6563C192.579 40.84 204.981 51.0687 214.73 63.6093C224.479 76.1499 231.334 90.6918 234.802 106.193L129.707 129.707L178.411 33.6563Z" fill="#62E3FF"/>
<path d="M234.768 106.042C238.318 121.803 238.277 138.161 234.646 153.904C231.016 169.647 223.891 184.372 213.797 196.987L129.707 129.707L234.768 106.042Z" fill="#554FC9"/>
<path d="M213.963 196.779C203.901 209.419 191.124 219.634 176.578 226.665C162.032 233.697 146.091 237.366 129.935 237.4L129.707 129.707L213.963 196.779Z" fill="#AA67C1"/>
<path d="M129.707 237.4C113.551 237.4 97.6014 233.765 83.0408 226.764C68.4802 219.763 55.6813 209.576 45.5924 196.957L129.707 129.707L129.707 237.4Z" fill="#F8505D"/>
<path d="M45.3701 196.678C35.323 184.026 28.2514 169.275 24.679 153.519C21.1067 137.763 21.1253 121.404 24.7334 105.656L129.707 129.707L45.3701 196.678Z" fill="#FF765D"/>
<path d="M24.8214 105.275C28.5259 89.372 35.7981 74.5195 46.0881 61.841C56.3782 49.1624 69.4166 38.9898 84.2172 32.0926L129.707 129.707L24.8214 105.275Z" fill="#FFB945"/>
<path d="M93.1461 51.1873C105.022 45.6751 117.996 42.9364 131.086 43.1784C144.177 43.4204 157.041 46.6367 168.705 52.584L129.491 129.491L93.1461 51.1873Z" fill="#00B956"/>
<path d="M168.533 52.4965C179.889 58.2551 189.831 66.4544 197.646 76.507C205.461 86.5596 210.955 98.2164 213.735 110.642L129.491 129.491L168.533 52.4965Z" fill="#5BD9E5"/>
<path d="M213.708 110.521C216.554 123.155 216.521 136.268 213.611 148.888C210.701 161.507 204.989 173.311 196.898 183.423L129.491 129.491L213.708 110.521Z" fill="#444189"/>
<path d="M197.031 183.256C188.965 193.389 178.723 201.577 167.063 207.213C155.403 212.85 142.624 215.791 129.674 215.818L129.491 129.491L197.031 183.256Z" fill="#731982"/>
<path d="M129.491 215.818C116.54 215.818 103.755 212.904 92.0833 207.292C80.4115 201.681 70.1519 193.514 62.0645 183.399L129.491 129.491V215.818Z" fill="#F62434"/>
<path d="M61.8864 183.175C53.8326 173.033 48.1639 161.209 45.3004 148.579C42.4368 135.949 42.4517 122.836 45.3439 110.212L129.491 129.491L61.8864 183.175Z" fill="#EB5A40"/>
<path d="M45.4145 109.906C48.384 97.1584 54.2134 85.2526 62.462 75.0895C70.7105 64.9263 81.1621 56.7719 93.0263 51.243L129.491 129.491L45.4145 109.906Z" fill="#FFA717"/>
<ellipse cx="129.491" cy="129.707" rx="60.4291" ry="60.6449" fill="white"/>
<path d="M124.234 14H128.066V13.432H125.306L126.882 11.896C127.586 11.208 128.034 10.52 128.034 9.816C128.034 8.832 127.362 8.208 126.306 8.208C125.218 8.208 124.538 8.92 124.45 10.04H125.098C125.21 9.144 125.642 8.768 126.306 8.768C126.954 8.768 127.33 9.152 127.33 9.792C127.33 10.376 127.026 10.896 126.506 11.448L124.234 13.84V14ZM131.225 14.072C132.633 14.072 133.441 12.952 133.441 11.288V10.968C133.441 9.336 132.617 8.208 131.209 8.208C129.809 8.208 128.953 9.296 128.953 10.984V11.304C128.953 12.968 129.857 14.072 131.225 14.072ZM131.225 13.496C130.273 13.496 129.665 12.744 129.665 11.296V10.976C129.665 9.568 130.241 8.768 131.209 8.768C132.177 8.768 132.737 9.632 132.737 10.96V11.28C132.737 12.728 132.225 13.496 131.225 13.496Z" fill="#333333" fill-opacity="0.5"/>
<path d="M242.602 153.771L241.61 157.473L242.158 157.62L242.873 154.954L243.949 156.874C244.431 157.732 244.98 158.343 245.66 158.525C246.61 158.779 247.387 158.292 247.66 157.272C247.942 156.221 247.43 155.38 246.371 155.005L246.203 155.631C247.04 155.971 247.291 156.485 247.119 157.127C246.951 157.753 246.483 158.017 245.865 157.851C245.301 157.7 244.877 157.272 244.479 156.626L242.756 153.813L242.602 153.771ZM240.723 160.505C240.358 161.865 241.231 162.935 242.838 163.366L243.147 163.449C244.724 163.871 246.027 163.367 246.391 162.007C246.753 160.655 245.924 159.547 244.294 159.11L243.984 159.027C242.377 158.596 241.077 159.184 240.723 160.505ZM241.279 160.654C241.526 159.735 242.409 159.342 243.808 159.717L244.117 159.8C245.477 160.164 246.101 160.927 245.85 161.862C245.6 162.797 244.62 163.115 243.337 162.771L243.028 162.688C241.63 162.313 241.02 161.62 241.279 160.654Z" fill="#333333" fill-opacity="0.5"/>
<path d="M187.685 228.41L184.316 230.237L184.587 230.736L187.013 229.421L186.36 231.522C186.069 232.462 186.003 233.281 186.339 233.9C186.808 234.765 187.696 234.993 188.624 234.49C189.581 233.971 189.839 233.021 189.383 231.995L188.813 232.303C189.142 233.144 188.941 233.681 188.357 233.997C187.788 234.306 187.274 234.148 186.969 233.585C186.691 233.072 186.71 232.47 186.904 231.737L187.761 228.551L187.685 228.41ZM181.505 231.679C180.268 232.35 180.091 233.72 180.884 235.183L181.037 235.464C181.815 236.899 183.077 237.498 184.314 236.826C185.545 236.159 185.779 234.795 184.975 233.311L184.822 233.029C184.029 231.567 182.708 231.027 181.505 231.679ZM181.78 232.185C182.617 231.732 183.51 232.103 184.2 233.376L184.352 233.657C185.024 234.895 184.899 235.873 184.048 236.334C183.197 236.796 182.292 236.303 181.659 235.135L181.507 234.854C180.817 233.581 180.901 232.662 181.78 232.185Z" fill="#333333" fill-opacity="0.5"/>
<path d="M82.2429 235.09L78.8206 233.366L78.5651 233.873L81.03 235.115L78.9314 235.778C77.9932 236.076 77.2836 236.489 76.9668 237.117C76.5242 237.996 76.8436 238.856 77.7867 239.331C78.7584 239.82 79.686 239.49 80.2684 238.53L79.6897 238.238C79.1866 238.988 78.6316 239.129 78.0386 238.831C77.4599 238.539 77.2969 238.027 77.5848 237.455C77.8475 236.934 78.353 236.606 79.0657 236.347L82.1709 235.233L82.2429 235.09ZM76.0321 231.881C74.7746 231.247 73.5491 231.884 72.8005 233.37L72.6565 233.656C71.9223 235.114 72.1508 236.492 73.4082 237.125C74.6585 237.755 75.9125 237.168 76.6719 235.661L76.8159 235.375C77.5645 233.889 77.2538 232.496 76.0321 231.881ZM75.7729 232.395C76.6231 232.824 76.8278 233.769 76.1764 235.062L76.0324 235.348C75.399 236.605 74.5247 237.061 73.6602 236.625C72.7956 236.19 72.6842 235.166 73.2817 233.98L73.4256 233.694C74.0771 232.401 74.8798 231.945 75.7729 232.395Z" fill="#333333" fill-opacity="0.5"/>
<path d="M18.7659 161.137L17.9205 157.399L17.3665 157.525L17.9754 160.217L16.1295 159.018C15.3032 158.484 14.5333 158.198 13.8466 158.354C12.8869 158.571 12.4265 159.364 12.6595 160.394C12.8995 161.455 13.744 161.961 14.8558 161.8L14.7128 161.168C13.8142 161.256 13.3521 160.918 13.2057 160.27C13.0627 159.638 13.3543 159.187 13.9785 159.046C14.5481 158.917 15.1224 159.099 15.7755 159.484L18.6098 161.172L18.7659 161.137ZM17.2939 154.303C16.9833 152.929 15.7126 152.388 14.0896 152.756L13.7775 152.826C12.1857 153.186 11.2673 154.239 11.5779 155.612C11.8868 156.978 13.1368 157.572 14.7832 157.2L15.0953 157.129C16.7183 156.762 17.5957 155.637 17.2939 154.303ZM16.7321 154.43C16.9421 155.358 16.3428 156.117 14.9304 156.437L14.6183 156.507C13.245 156.818 12.3377 156.433 12.1241 155.488C11.9106 154.544 12.6297 153.808 13.925 153.515L14.2371 153.444C15.6495 153.125 16.5115 153.454 16.7321 154.43Z" fill="#333333" fill-opacity="0.5"/>
<path d="M35.3762 63.414L37.6986 60.3659L37.2468 60.0217L35.5741 62.2171L35.3075 60.0326C35.1869 59.0556 34.9111 58.2823 34.3511 57.8557C33.5684 57.2593 32.6648 57.4156 32.0248 58.2556C31.3655 59.121 31.5197 60.0934 32.3572 60.8422L32.7499 60.3268C32.1051 59.6947 32.0679 59.1232 32.4703 58.595C32.863 58.0796 33.3963 58.0132 33.9054 58.4011C34.3699 58.755 34.5993 59.312 34.7232 60.0601L35.2489 63.317L35.3762 63.414ZM39.6701 57.8971C40.5235 56.7771 40.1223 55.4556 38.7987 54.4472L38.5441 54.2532C37.246 53.2642 35.8494 53.236 34.9961 54.3559C34.1476 55.4695 34.4942 56.8098 35.8369 57.8328L36.0915 58.0268C37.415 59.0352 38.8411 58.9852 39.6701 57.8971ZM39.212 57.548C38.635 58.3053 37.6684 58.3331 36.5166 57.4556L36.2621 57.2616C35.1421 56.4083 34.8548 55.4653 35.4415 54.6953C36.0282 53.9254 37.0548 54.0035 38.1111 54.8084L38.3657 55.0023C39.5174 55.8799 39.818 56.7526 39.212 57.548Z" fill="#333333" fill-opacity="0.5"/>
<path d="M214.977 52.5703L217.45 55.4971L217.884 55.1305L216.103 53.0224L218.293 53.2347C219.273 53.3283 220.088 53.2264 220.625 52.772C221.377 52.1369 221.42 51.2209 220.738 50.4143C220.036 49.5833 219.053 49.5235 218.141 50.1792L218.559 50.6741C219.316 50.1813 219.882 50.2686 220.31 50.7758C220.729 51.2707 220.678 51.8057 220.189 52.2188C219.743 52.5958 219.15 52.6992 218.393 52.6584L215.099 52.467L214.977 52.5703ZM219.434 57.9561C220.343 59.0315 221.72 58.9257 222.991 57.8517L223.235 57.6451C224.482 56.5917 224.812 55.2343 223.903 54.1589C222.999 53.0896 221.616 53.138 220.326 54.2276L220.082 54.4341C218.811 55.5082 218.551 56.9112 219.434 57.9561ZM219.874 57.5843C219.26 56.8572 219.442 55.9074 220.548 54.9728L220.792 54.7662C221.867 53.8574 222.85 53.781 223.475 54.5203C224.1 55.2597 223.801 56.2451 222.787 57.1023L222.543 57.3088C221.437 58.2434 220.52 58.3481 219.874 57.5843Z" fill="#333333" fill-opacity="0.5"/>
<path d="M126.819 36.072C127.787 36.072 128.787 35.504 128.787 34.36C128.787 33.624 128.355 33.128 127.691 32.888C128.219 32.656 128.571 32.256 128.571 31.68C128.571 30.784 127.707 30.208 126.819 30.208C125.939 30.208 125.059 30.768 125.059 31.696C125.059 32.256 125.379 32.688 125.923 32.896C125.315 33.112 124.843 33.608 124.843 34.376C124.843 35.512 125.883 36.072 126.819 36.072ZM126.843 32.648C126.259 32.648 125.763 32.304 125.763 31.704C125.763 31.112 126.227 30.752 126.819 30.752C127.411 30.752 127.867 31.136 127.867 31.688C127.867 32.296 127.451 32.648 126.843 32.648ZM126.819 35.504C126.155 35.504 125.555 35.104 125.555 34.352C125.555 33.592 126.155 33.2 126.835 33.2C127.515 33.2 128.075 33.584 128.075 34.336C128.075 35.096 127.523 35.504 126.819 35.504ZM131.92 36.072C133.328 36.072 134.136 34.952 134.136 33.288V32.968C134.136 31.336 133.312 30.208 131.904 30.208C130.504 30.208 129.648 31.296 129.648 32.984V33.304C129.648 34.968 130.552 36.072 131.92 36.072ZM131.92 35.496C130.968 35.496 130.36 34.744 130.36 33.296V32.976C130.36 31.568 130.936 30.768 131.904 30.768C132.872 30.768 133.432 31.632 133.432 32.96V33.28C133.432 34.728 132.92 35.496 131.92 35.496Z" fill="white"/>
<path d="M220.613 150.555C220.362 151.49 220.652 152.603 221.757 152.899C222.468 153.09 223.059 152.801 223.463 152.222C223.55 152.792 223.845 153.235 224.402 153.384C225.267 153.616 226.047 152.931 226.277 152.073C226.505 151.223 226.192 150.228 225.295 149.988C224.754 149.843 224.254 150.04 223.912 150.512C223.861 149.869 223.504 149.284 222.762 149.085C221.665 148.791 220.855 149.651 220.613 150.555ZM223.914 151.465C224.065 150.9 224.526 150.51 225.105 150.666C225.677 150.819 225.905 151.36 225.751 151.932C225.598 152.504 225.109 152.845 224.576 152.702C223.989 152.545 223.756 152.052 223.914 151.465ZM221.161 150.702C221.333 150.061 221.875 149.585 222.601 149.779C223.335 149.976 223.559 150.657 223.383 151.314C223.207 151.971 222.691 152.412 221.964 152.218C221.23 152.021 220.979 151.382 221.161 150.702ZM219.292 155.483C218.928 156.843 219.801 157.913 221.408 158.344L221.717 158.426C223.293 158.849 224.596 158.345 224.961 156.985C225.323 155.633 224.494 154.524 222.863 154.087L222.554 154.004C220.947 153.574 219.646 154.161 219.292 155.483ZM219.849 155.632C220.095 154.712 220.979 154.319 222.378 154.694L222.687 154.777C224.047 155.141 224.67 155.905 224.42 156.84C224.169 157.775 223.19 158.092 221.907 157.749L221.598 157.666C220.199 157.291 219.59 156.598 219.849 155.632Z" fill="white"/>
<path d="M174.892 210.239C174.041 210.7 173.433 211.676 173.978 212.682C174.329 213.329 174.945 213.559 175.643 213.453C175.29 213.909 175.171 214.428 175.446 214.935C175.873 215.723 176.907 215.817 177.687 215.394C178.461 214.974 178.968 214.063 178.525 213.247C178.259 212.755 177.771 212.527 177.194 212.604C177.625 212.124 177.804 211.463 177.438 210.788C176.896 209.789 175.715 209.793 174.892 210.239ZM176.503 213.26C177.017 212.982 177.617 213.048 177.903 213.575C178.185 214.096 177.949 214.633 177.428 214.916C176.908 215.198 176.324 215.078 176.061 214.592C175.771 214.058 175.969 213.55 176.503 213.26ZM175.163 210.738C175.747 210.422 176.465 210.487 176.823 211.148C177.186 211.816 176.845 212.447 176.247 212.771C175.649 213.095 174.974 213.025 174.616 212.364C174.253 211.695 174.544 211.074 175.163 210.738ZM170.408 212.67C169.17 213.341 168.994 214.711 169.787 216.174L169.939 216.455C170.717 217.89 171.979 218.489 173.217 217.818C174.448 217.15 174.682 215.786 173.877 214.302L173.725 214.021C172.931 212.558 171.611 212.018 170.408 212.67ZM170.682 213.177C171.519 212.723 172.412 213.094 173.102 214.367L173.255 214.648C173.926 215.886 173.801 216.864 172.95 217.325C172.099 217.787 171.195 217.294 170.562 216.127L170.41 215.845C169.719 214.572 169.803 213.653 170.682 213.177Z" fill="white"/>
<path d="M89.8643 214.215C88.9998 213.78 87.8511 213.837 87.3365 214.859C87.0054 215.516 87.168 216.153 87.6531 216.666C87.0771 216.636 86.5828 216.835 86.3237 217.349C85.9206 218.15 86.4331 219.053 87.2262 219.452C88.0121 219.848 89.0499 219.744 89.4674 218.915C89.7193 218.415 89.6279 217.885 89.2356 217.455C89.8758 217.535 90.5205 217.305 90.866 216.619C91.3771 215.604 90.7002 214.636 89.8643 214.215ZM88.3024 217.262C88.824 217.525 89.1122 218.055 88.8423 218.591C88.5759 219.12 87.9996 219.233 87.4709 218.966C86.9422 218.7 86.7077 218.152 86.956 217.659C87.2296 217.116 87.7594 216.989 88.3024 217.262ZM89.6087 214.722C90.2018 215.021 90.5576 215.648 90.2193 216.32C89.8774 216.999 89.1652 217.079 88.5579 216.773C87.9506 216.467 87.6232 215.872 87.9616 215.2C88.3035 214.522 88.98 214.406 89.6087 214.722ZM85.3084 211.92C84.051 211.287 82.8255 211.923 82.0769 213.41L81.9329 213.695C81.1987 215.153 81.4271 216.531 82.6846 217.164C83.9349 217.794 85.1889 217.208 85.9483 215.7L86.0922 215.414C86.8408 213.928 86.5302 212.536 85.3084 211.92ZM85.0493 212.435C85.8995 212.863 86.1042 213.808 85.4528 215.101L85.3088 215.387C84.6754 216.644 83.801 217.1 82.9365 216.664C82.072 216.229 81.9606 215.205 82.558 214.019L82.702 213.733C83.3534 212.44 84.1562 211.985 85.0493 212.435Z" fill="white"/>
<path d="M39.7238 153.747C39.5102 152.802 38.7356 151.952 37.6198 152.205C36.9019 152.367 36.5134 152.898 36.4258 153.599C36.0831 153.135 35.6153 152.88 35.0535 153.007C34.1795 153.204 33.8083 154.174 34.0042 155.04C34.1984 155.899 34.9387 156.633 35.8439 156.429C36.3901 156.305 36.7408 155.898 36.8237 155.321C37.1685 155.867 37.7564 156.218 38.5055 156.048C39.6135 155.797 39.9303 154.66 39.7238 153.747ZM36.3788 154.479C36.5077 155.048 36.2816 155.608 35.6963 155.74C35.1189 155.871 34.6654 155.498 34.5348 154.92C34.4042 154.343 34.6782 153.813 35.2166 153.692C35.8096 153.557 36.2447 153.886 36.3788 154.479ZM39.1698 153.872C39.3162 154.52 39.0585 155.193 38.325 155.359C37.5837 155.527 37.069 155.028 36.919 154.365C36.769 153.701 37.02 153.07 37.7535 152.905C38.4947 152.737 39.0145 153.185 39.1698 153.872ZM38.5984 148.771C38.2878 147.398 37.0171 146.857 35.3941 147.224L35.082 147.294C33.4902 147.654 32.5718 148.707 32.8824 150.08C33.1912 151.446 34.4413 152.041 36.0877 151.668L36.3998 151.598C38.0228 151.231 38.9002 150.105 38.5984 148.771ZM38.0366 148.898C38.2466 149.827 37.6473 150.586 36.2349 150.905L35.9228 150.976C34.5495 151.286 33.6421 150.901 33.4286 149.957C33.2151 149.013 33.9342 148.276 35.2295 147.983L35.5416 147.912C36.9539 147.593 37.816 147.923 38.0366 148.898Z" fill="white"/>
<path d="M54.4993 74.7347C55.086 73.9647 55.2402 72.8251 54.3303 72.1317C53.7448 71.6857 53.0885 71.7287 52.4952 72.1114C52.6306 71.5508 52.5258 71.0284 52.0676 70.6793C51.3549 70.1363 50.3731 70.4745 49.8349 71.1808C49.3016 71.8808 49.2137 72.9202 49.9519 73.4826C50.3973 73.822 50.9349 73.8292 51.43 73.5226C51.2334 74.1371 51.3418 74.8132 51.9527 75.2786C52.8563 75.9671 53.9321 75.4792 54.4993 74.7347ZM51.7903 72.6405C51.4364 73.105 50.8622 73.2911 50.3849 72.9274C49.914 72.5687 49.9089 71.9814 50.2676 71.5105C50.6264 71.0396 51.2082 70.9096 51.6473 71.2442C52.1309 71.6126 52.1588 72.1569 51.7903 72.6405ZM54.0475 74.3905C53.6451 74.9186 52.9633 75.1535 52.3651 74.6977C51.7606 74.2371 51.8124 73.5223 52.2245 72.9814C52.6367 72.4405 53.2815 72.2278 53.8797 72.6835C54.4842 73.1441 54.4742 73.8305 54.0475 74.3905ZM57.5909 70.677C58.4442 69.5571 58.0431 68.2356 56.7195 67.2271L56.4649 67.0332C55.1668 66.0441 53.7702 66.0159 52.9168 67.1359C52.0684 68.2495 52.415 69.5897 53.7577 70.6128L54.0122 70.8067C55.3358 71.8152 56.7619 71.7652 57.5909 70.677ZM57.1328 70.3279C56.5558 71.0852 55.5892 71.1131 54.4374 70.2355L54.1829 70.0416C53.0629 69.1882 52.7756 68.2452 53.3623 67.4753C53.9489 66.7053 54.9756 66.7835 56.0319 67.5883L56.2864 67.7823C57.4382 68.6598 57.7388 69.5325 57.1328 70.3279Z" fill="white"/>
<path d="M199.787 68.7912C200.412 69.5305 201.491 69.9277 202.365 69.1893C202.927 68.7142 203.027 68.0641 202.782 67.402C203.3 67.6555 203.833 67.6662 204.272 67.2944C204.957 66.7161 204.839 65.6844 204.266 65.0061C203.698 64.334 202.702 64.0233 201.993 64.6223C201.566 64.9838 201.442 65.507 201.635 66.0568C201.077 65.7318 200.394 65.6915 199.807 66.1872C198.939 66.9205 199.183 68.0763 199.787 68.7912ZM202.418 66.5994C202.041 66.1534 201.983 65.5525 202.442 65.1652C202.894 64.7831 203.468 64.9051 203.85 65.3573C204.233 65.8094 204.234 66.4056 203.812 66.7619C203.348 67.1543 202.81 67.0638 202.418 66.5994ZM200.221 68.4245C199.792 67.9174 199.711 67.2009 200.285 66.7155C200.865 66.225 201.552 66.4302 201.991 66.9496C202.43 67.469 202.498 68.1446 201.924 68.6299C201.343 69.1205 200.675 68.9622 200.221 68.4245ZM203.08 72.6874C203.989 73.7628 205.366 73.6571 206.636 72.583L206.881 72.3765C208.127 71.323 208.457 69.9656 207.548 68.8902C206.645 67.8209 205.261 67.8694 203.972 68.9589L203.727 69.1655C202.456 70.2395 202.197 71.6426 203.08 72.6874ZM203.52 72.3156C202.905 71.5885 203.087 70.6387 204.193 69.7041L204.438 69.4976C205.513 68.5887 206.496 68.5123 207.121 69.2516C207.745 69.991 207.447 70.9764 206.433 71.8336L206.188 72.0401C205.082 72.9748 204.165 73.0794 203.52 72.3156Z" fill="white"/>
<path d="M121.259 60.072C122.723 60.072 123.739 59.192 123.739 57.536V57.112H121.387V57.688H123.059C123.035 58.704 122.499 59.512 121.259 59.512C119.915 59.512 119.211 58.584 119.211 57.168V57.104C119.211 55.704 119.963 54.744 121.275 54.744C122.107 54.744 122.731 55.096 122.891 56.008H123.587C123.411 54.72 122.395 54.192 121.259 54.192C119.619 54.192 118.491 55.44 118.491 57.112V57.176C118.491 58.848 119.499 60.072 121.259 60.072ZM124.856 60H125.52V57.704C125.52 56.672 126.056 56.408 126.896 56.368V55.744C126.144 55.768 125.784 56.096 125.52 56.568V55.816H124.856V60ZM129.458 60.072C130.402 60.072 131.098 59.632 131.242 58.792H130.578C130.49 59.28 130.114 59.52 129.466 59.52C128.61 59.52 128.154 58.992 128.122 58.04H131.274V57.824C131.274 56.328 130.362 55.744 129.394 55.744C128.242 55.744 127.434 56.624 127.434 57.888V57.952C127.434 59.24 128.274 60.072 129.458 60.072ZM128.146 57.504C128.258 56.76 128.714 56.296 129.394 56.296C130.082 56.296 130.53 56.64 130.594 57.504H128.146ZM134.005 60.072C134.949 60.072 135.645 59.632 135.789 58.792H135.125C135.037 59.28 134.661 59.52 134.013 59.52C133.157 59.52 132.701 58.992 132.669 58.04H135.821V57.824C135.821 56.328 134.909 55.744 133.941 55.744C132.789 55.744 131.981 56.624 131.981 57.888V57.952C131.981 59.24 132.821 60.072 134.005 60.072ZM132.693 57.504C132.805 56.76 133.261 56.296 133.941 56.296C134.629 56.296 135.077 56.64 135.141 57.504H132.693ZM136.84 60H137.504V57.464C137.504 56.712 138.056 56.32 138.672 56.32C139.344 56.32 139.656 56.648 139.656 57.384V60H140.32V57.432C140.32 56.216 139.712 55.744 138.848 55.744C138.16 55.744 137.696 56.088 137.504 56.48V55.816H136.84V60Z" fill="white"/>
<path d="M204.843 128.705L206.89 129.254L206.613 130.289C206.412 131.039 206.04 131.436 205.291 131.235L205.26 131.227C204.58 131.045 204.354 130.529 204.565 129.741L204.843 128.705ZM202.086 127.246L201.906 127.918L204.309 128.562L204.082 129.412L201.237 130.414L201.036 131.164L203.94 130.128C203.883 130.925 204.168 131.655 205.08 131.899L205.111 131.908C206.216 132.204 206.883 131.447 207.166 130.388L207.611 128.727L202.086 127.246ZM200.316 133.574C200.072 134.486 200.317 135.272 201.091 135.628L201.263 134.987C200.814 134.776 200.68 134.35 200.847 133.724C201.069 132.898 201.697 132.594 202.625 132.809L201.809 135.854L202.018 135.91C203.463 136.297 204.263 135.567 204.513 134.632C204.811 133.519 204.171 132.511 202.95 132.184L202.888 132.167C201.644 131.834 200.623 132.43 200.316 133.574ZM203.136 132.971C203.826 133.272 204.156 133.832 203.98 134.489C203.802 135.154 203.354 135.498 202.503 135.336L203.136 132.971ZM199.615 136.47L199.443 137.111L202.943 138.049L202.678 139.038L203.219 139.183L203.484 138.194L204.211 138.389C204.62 138.498 204.863 138.737 204.753 139.147C204.705 139.325 204.649 139.442 204.572 139.546L205.113 139.69C205.192 139.579 205.236 139.475 205.292 139.267C205.506 138.471 205.132 137.948 204.313 137.729L203.656 137.553L203.811 136.973L203.271 136.828L203.115 137.408L199.615 136.47ZM198.962 138.904L198.788 139.553L204.762 141.154L204.936 140.505L198.962 138.904ZM197.924 142.501C197.68 143.413 197.925 144.199 198.699 144.556L198.871 143.914C198.422 143.703 198.288 143.278 198.455 142.652C198.677 141.825 199.305 141.521 200.233 141.737L199.417 144.781L199.626 144.837C201.071 145.224 201.871 144.494 202.121 143.559C202.419 142.447 201.779 141.438 200.558 141.111L200.496 141.095C199.252 140.761 198.231 141.357 197.924 142.501ZM200.744 141.898C201.434 142.199 201.764 142.76 201.588 143.417C201.41 144.081 200.962 144.425 200.111 144.263L200.744 141.898ZM197.406 144.712L197.222 145.4L198.554 146.949L196.632 147.602L196.429 148.359L198.949 147.453L200.508 149.303L200.694 148.608L199.489 147.233L201.222 146.637L201.423 145.888L199.098 146.714L197.406 144.712ZM195.636 151.319L195.129 153.212C194.833 154.317 195.144 155.162 196.188 155.442L196.219 155.45C196.937 155.643 197.427 155.451 197.836 154.699C197.883 155.391 198.277 155.712 198.779 155.847L198.81 155.855C199.9 156.147 200.441 155.488 200.716 154.461L201.161 152.799L195.636 151.319ZM198.574 152.81L200.46 153.315L200.195 154.304C199.988 155.077 199.635 155.372 199.009 155.204L198.978 155.196C198.298 155.014 198.088 154.626 198.305 153.815L198.574 152.81ZM195.985 152.116L198.049 152.669L197.746 153.797C197.508 154.686 197.082 154.978 196.402 154.796L196.371 154.787C195.699 154.607 195.443 154.141 195.658 153.337L195.985 152.116ZM194.356 156.095L194.182 156.744L200.156 158.344L200.33 157.695L194.356 156.095ZM193.395 159.406C193.221 160.055 193.433 160.592 193.762 160.879L193.12 160.707L192.949 161.348L196.99 162.431L197.162 161.79L194.712 161.134C193.986 160.939 193.752 160.297 193.905 159.725C194.075 159.091 194.473 158.875 195.184 159.065L197.711 159.742L197.882 159.101L195.325 158.415C194.212 158.117 193.61 158.602 193.395 159.406ZM192.089 164.28C191.844 165.192 192.089 165.978 192.863 166.334L193.035 165.693C192.586 165.482 192.452 165.056 192.62 164.43C192.841 163.603 193.469 163.3 194.397 163.515L193.581 166.56L193.79 166.616C195.235 167.003 196.035 166.273 196.286 165.338C196.584 164.225 195.943 163.217 194.722 162.89L194.66 162.873C193.416 162.54 192.395 163.136 192.089 164.28ZM194.909 163.677C195.598 163.978 195.928 164.538 195.752 165.195C195.574 165.86 195.126 166.203 194.275 166.042L194.909 163.677Z" fill="white"/>
<path d="M171.053 185.101L170.442 185.433L171.551 187.48L170.735 187.922C169.779 188.441 169.202 189.29 169.782 190.359L169.797 190.387C170.365 191.435 171.389 191.426 172.352 190.904L173.78 190.13L171.053 185.101ZM171.814 187.965L172.901 189.969L172.043 190.434C171.361 190.804 170.794 190.766 170.409 190.056L170.394 190.027C170.043 189.38 170.239 188.819 170.956 188.43L171.814 187.965ZM165.73 187.906C165.139 188.226 164.895 188.75 164.913 189.186L164.597 188.602L164.013 188.919L166.008 192.597L166.591 192.28L165.382 190.051C165.024 189.39 165.329 188.778 165.85 188.496C166.427 188.183 166.857 188.323 167.208 188.97L168.455 191.27L169.039 190.953L167.777 188.625C167.227 187.613 166.462 187.509 165.73 187.906ZM162.834 189.558L162.25 189.875L163.344 191.893C163.836 192.8 163.491 193.288 162.771 193.723L163.069 194.272C163.718 193.892 163.878 193.433 163.886 192.892L164.244 193.553L164.828 193.236L162.834 189.558ZM158.646 192.375C159.363 191.986 160.096 192.162 160.607 193.104L160.637 193.161C161.148 194.103 160.872 194.835 160.19 195.205C159.571 195.541 158.806 195.355 158.302 194.427L158.272 194.37C157.788 193.477 157.914 192.771 158.646 192.375ZM159.495 189.712L158.912 190.028L159.934 191.913C159.524 191.662 158.931 191.592 158.326 191.92C157.314 192.469 157.072 193.601 157.682 194.726L157.713 194.783C158.334 195.929 159.426 196.247 160.389 195.725C160.924 195.435 161.248 194.841 161.264 194.368L161.6 194.986L162.184 194.67L159.495 189.712ZM155.766 193.39L155.175 193.71L158.123 199.147L158.714 198.826L155.766 193.39ZM152.441 195.111C151.611 195.561 151.209 196.279 151.483 197.086L152.067 196.77C151.912 196.299 152.128 195.909 152.697 195.6C153.45 195.192 154.102 195.439 154.584 196.26L151.813 197.763L151.916 197.953C152.629 199.268 153.71 199.346 154.561 198.885C155.573 198.336 155.864 197.177 155.262 196.066L155.231 196.01C154.617 194.877 153.482 194.546 152.441 195.111ZM154.819 196.743C155.075 197.45 154.895 198.076 154.297 198.4C153.693 198.728 153.135 198.639 152.667 197.91L154.819 196.743Z" fill="white"/>
<path d="M104.844 194.969L104.223 194.656L103.071 196.942L101.228 196.013L100.972 196.521L102.815 197.449L101.905 199.257L99.54 198.066L99.2845 198.573L102.271 200.077L104.844 194.969ZM99.8942 192.395C99.2941 192.092 98.7249 192.191 98.3771 192.454L98.6758 191.861L98.0828 191.563L96.2005 195.299L96.7935 195.598L97.9344 193.333C98.2727 192.662 98.9492 192.564 99.4779 192.83C100.064 193.125 100.195 193.558 99.8638 194.216L98.6869 196.552L99.2799 196.851L100.471 194.486C100.989 193.457 100.637 192.769 99.8942 192.395ZM96.8843 190.959L96.2913 190.66L95.2584 192.711C94.7941 193.632 94.1966 193.627 93.4284 193.285L93.1477 193.842C93.8301 194.159 94.2992 194.028 94.7473 193.725L94.409 194.397L95.002 194.696L96.8843 190.959ZM94.4824 188.119L93.8823 187.816L89.2801 191.813L89.8874 192.119L92.273 189.962L92.0665 193.217L92.7024 193.537L92.9257 189.449L94.4824 188.119Z" fill="white"/>
<path d="M67.1935 166.733L67.0541 166.117L62.3507 165.811L66.4734 163.55L66.3322 162.925L60.4249 162.736L60.5679 163.368L65.3452 163.493L61.1238 165.826L61.2332 166.31L66.032 166.602L61.7856 168.752L61.9427 169.446L67.1935 166.733ZM65.1595 159.808C65.2884 160.377 65.069 160.64 64.6476 160.735C64.0468 160.871 63.708 160.316 63.5227 159.497L63.3956 158.935L63.9028 158.82C64.5349 158.678 65.0042 159.121 65.1595 159.808ZM65.6887 159.753C65.5528 159.153 65.2669 158.832 64.8158 158.614L65.3308 158.497L65.1843 157.85L62.4923 158.459C61.353 158.716 61.1937 159.499 61.3702 160.279C61.5485 161.067 62.0595 161.731 63.0074 161.607L62.8609 160.959C62.3474 161.01 62.0427 160.75 61.9157 160.189C61.7745 159.564 61.9911 159.253 62.6388 159.106L62.9353 159.039L63.0676 159.625C63.3041 160.67 63.8499 161.597 64.7941 161.383C65.629 161.194 65.8598 160.51 65.6887 159.753ZM64.8965 156.578L64.75 155.93L62.5106 156.437C61.504 156.664 61.1283 156.2 60.904 155.389L60.2953 155.527C60.4846 156.255 60.884 156.534 61.4026 156.687L60.6691 156.853L60.8156 157.501L64.8965 156.578ZM64.233 153.644L64.0865 152.996L61.5896 153.561C60.8561 153.727 60.3736 153.262 60.2536 152.731C60.1265 152.17 60.3542 151.798 61.0721 151.636L63.647 151.053L63.5006 150.406L61.0036 150.971C60.2702 151.136 59.7877 150.671 59.6677 150.141C59.5406 149.579 59.7683 149.208 60.4862 149.045L63.0611 148.463L62.9146 147.815L60.3865 148.387C59.2004 148.655 58.9082 149.394 59.0741 150.127C59.1888 150.635 59.5606 151.19 60.1547 151.351C59.6561 151.685 59.5418 152.195 59.66 152.718C59.7924 153.303 60.2051 153.677 60.6298 153.778L60.0056 153.919L60.1521 154.567L64.233 153.644ZM59.0304 144.422L56.9626 144.89L56.7261 143.844C56.5549 143.087 56.6987 142.563 57.4556 142.391L57.4868 142.384C58.1735 142.229 58.6139 142.581 58.7939 143.376L59.0304 144.422ZM62.149 144.43L61.9955 143.751L59.5688 144.3L59.3746 143.442L61.4254 141.231L61.2542 140.474L59.1672 142.742C58.846 142.011 58.254 141.497 57.3333 141.706L57.3021 141.713C56.1862 141.965 55.9487 142.946 56.1905 144.015L56.5699 145.692L62.149 144.43ZM60.7698 138.006C60.5615 137.085 59.9788 136.503 59.1278 136.548L59.2743 137.196C59.7696 137.174 60.0867 137.488 60.2296 138.12C60.4185 138.955 60.0041 139.516 59.0826 139.757L58.3872 136.683L58.1766 136.731C56.7174 137.061 56.349 138.079 56.5625 139.023C56.8167 140.147 57.8533 140.741 59.0861 140.462L59.1485 140.448C60.4048 140.164 61.031 139.161 60.7698 138.006ZM58.5545 139.852C57.8041 139.907 57.251 139.565 57.1009 138.901C56.9492 138.23 57.1859 137.718 58.0145 137.465L58.5545 139.852ZM59.2424 133.755C59.3977 134.442 59.0315 135.107 58.0015 135.34L57.9391 135.354C56.9481 135.578 56.2691 135.223 56.0855 134.412C55.9055 133.616 56.2841 133.005 57.3297 132.769L57.3921 132.755C58.4377 132.518 59.0713 132.998 59.2424 133.755ZM59.7967 133.704C59.6626 133.111 59.1592 132.626 58.7083 132.482L59.4106 132.323L59.2641 131.675L53.2325 133.04L53.3789 133.687L55.9851 133.098C55.6401 133.422 55.4077 133.917 55.5612 134.596C55.8154 135.72 56.8736 136.301 58.1221 136.018L58.1845 136.004C59.4564 135.716 60.0385 134.773 59.7967 133.704ZM58.0326 125.904C57.7502 124.656 56.917 123.909 55.5854 124.005L55.7283 124.637C56.6652 124.573 57.2685 125.101 57.475 126.014C57.7468 127.215 57.0509 128.127 55.6307 128.449L55.5683 128.463C54.1638 128.78 53.0917 128.211 52.8305 127.056C52.6152 126.104 52.941 125.514 53.7598 125.181L53.608 124.51C52.425 124.9 52.0309 126.023 52.2939 127.186C52.6363 128.699 54.0807 129.537 55.735 129.163L55.7974 129.149C57.514 128.761 58.3979 127.519 58.0326 125.904Z" fill="white"/>
<path d="M70.3758 93.3791L70.7976 92.8255L66.2478 89.3589L65.8551 89.8743L65.8139 91.5125L66.3293 91.9052L66.3732 90.3295L70.3758 93.3791ZM72.8399 90.2639C73.5575 89.3221 73.5751 88.2694 72.7478 87.6391C72.1178 87.1591 71.4806 87.2167 70.9333 87.6445C71.0767 87.1 71.0039 86.5618 70.4885 86.1691C69.8585 85.6891 68.9028 85.7555 68.2434 86.6209C67.584 87.4863 67.7249 88.529 68.4197 89.1087L68.7882 88.6251C68.3164 88.1751 68.2637 87.5315 68.6952 86.9651C69.117 86.4115 69.6564 86.39 70.0891 86.7197C70.5855 87.0979 70.6667 87.5721 70.2158 88.1639L69.9733 88.4821L70.4379 88.836L70.6997 88.4924C71.1894 87.8497 71.7309 87.7594 72.3163 88.2054C72.8508 88.6127 72.9472 89.199 72.4042 89.9117C71.8563 90.6308 71.1954 90.6402 70.6157 90.279L70.2279 90.7881C71.0475 91.3623 72.103 91.2311 72.8399 90.2639ZM74.8874 87.4577L75.319 86.8914L72.1448 81.7775L72.0685 81.7194L69.7849 84.7165L70.2303 85.0559L71.9903 82.746L74.8874 87.4577ZM78.6702 82.6118C79.4459 81.5936 79.4832 80.4755 78.5545 79.5164L78.1617 80.0318C78.8126 80.7088 78.7953 81.5103 78.2281 82.2548C77.4814 83.2348 76.3354 83.2869 75.1773 82.4045L75.1263 82.3657C73.9809 81.493 73.7291 80.3054 74.4467 79.3636C75.0382 78.5873 75.7 78.4579 76.4809 78.8718L76.8978 78.3246C75.8388 77.6685 74.7252 78.0873 74.0028 79.0355C73.0622 80.27 73.3473 81.9154 74.6964 82.9432L74.7473 82.982C76.1472 84.0487 77.6666 83.929 78.6702 82.6118Z" fill="white"/>
<path d="M178.867 81.2193C179.632 82.1236 180.656 82.3685 181.45 81.6972C182.055 81.186 182.137 80.5514 181.837 79.9245C182.338 80.1823 182.879 80.2277 183.374 79.8095C183.979 79.2983 184.121 78.3508 183.419 77.5198C182.716 76.6888 181.668 76.6008 180.952 77.1537L181.344 77.6181C181.885 77.2548 182.525 77.3426 182.985 77.8864C183.434 78.418 183.338 78.9493 182.923 79.3004C182.446 79.7032 181.966 79.6799 181.485 79.1116L181.227 78.8061L180.781 79.1831L181.06 79.513C181.582 80.1302 181.553 80.6784 180.99 81.1534C180.477 81.5872 179.884 81.5544 179.306 80.87C178.722 80.1796 178.856 79.5323 179.334 79.0445L178.921 78.5557C178.183 79.2317 178.083 80.2905 178.867 81.2193ZM181.513 84.2379L181.962 84.7695L186.331 81.0775L185.913 80.5825L184.322 80.1879L183.827 80.6061L185.356 80.9899L181.513 84.2379ZM183.575 86.6785L184.024 87.2101L188.393 83.518L187.975 83.0231L186.385 82.6284L185.89 83.0467L187.419 83.4305L183.575 86.6785ZM186.595 90.3631C187.421 91.3408 188.505 91.6191 189.642 90.9198L189.224 90.4249C188.422 90.9139 187.643 90.7236 187.039 90.0087C186.244 89.0677 186.441 87.9376 187.553 86.9978L187.602 86.9564C188.702 86.027 189.916 86.0381 190.68 86.9424C191.31 87.6878 191.293 88.362 190.72 89.0348L191.164 89.5603C192.034 88.6682 191.866 87.4904 191.096 86.58C190.094 85.3946 188.426 85.317 187.131 86.4117L187.082 86.453C185.738 87.589 185.526 89.0983 186.595 90.3631Z" fill="white"/>
</svg>