<svg xmlns="http://www.w3.org/2000/svg" viewBox="0 0 40 40"><path d="M33.34 16.32a18.26 18.26 0 0 0 .74-3.65 13.93 13.93 0 0 0-.76-6.11l-.24-.66H30.8l-.24.66c-.13.37-.26.74-.38 1.1a9.17 9.17 0 0 1-1.84 3.65H11.5a9.17 9.17 0 0 1-1.84-3.65c-.12-.36-.25-.73-.38-1.1L9 5.89H6.75l-.24.66a13.94 13.94 0 0 0-.76 6.11 18.27 18.27 0 0 0 .74 3.63A4 4 0 0 0 8 24h2.79l.92 9.39.4.26a14.26 14.26 0 0 0 15.63 0l.4-.26.91-9.4h2.78a4 4 0 0 0 1.51-7.68ZM8 22a2 2 0 0 1-2.07-2A2 2 0 0 1 8 18h2.18l.39 4Zm18.24 10.25a12.45 12.45 0 0 1-12.64 0l-.3-3.07a12.17 12.17 0 0 1 13.24 0ZM27.82 16l-1.07 11a14.14 14.14 0 0 0-13.67 0L12 16H8.52a15.66 15.66 0 0 1-.77-3.54 11.8 11.8 0 0 1 .2-3.64 9.19 9.19 0 0 0 2.49 4.22l.29.25h18.4l.29-.25a9.19 9.19 0 0 0 2.48-4.21 11.8 11.8 0 0 1 .2 3.64 15.63 15.63 0 0 1-.78 3.53Zm4 6h-2.57l.39-4h2.18a2 2 0 0 1 2.11 2 2 2 0 0 1-2.1 2ZM18 22a2 2 0 1 1-2-2 2 2 0 0 1 2 2Zm8 0a2 2 0 1 1-2-2 2 2 0 0 1 2 2Z"/></svg>