<svg viewBox="0 0 40 40" xmlns="http://www.w3.org/2000/svg">
<path d="M20 8C22.3467 8 24.5894 8.7056 26.4827 10H31C33.7614 10 36 12.2386 36 15V25C36 27.7614 33.7614 30 31 30H9C6.2386 30 4 27.7614 4 25V15C4 12.2386 6.2386 10 9 10H13.5173C15.4106 8.7057 17.6533 8 20 8ZM20 10C17.9663 10 16.0316 10.6394 14.422 11.809L14.1591 12H9C7.3431 12 6 13.3431 6 15V25C6 26.6569 7.3431 28 9 28H31C32.6569 28 34 26.6569 34 25V15C34 13.3431 32.6569 12 31 12H25.841L25.578 11.809C23.9685 10.6395 22.0338 10 20 10ZM20 14C23.3137 14 26 16.6863 26 20C26 23.3137 23.3137 26 20 26C16.6863 26 14 23.3137 14 20C14 16.6863 16.6863 14 20 14ZM20 16C17.7909 16 16 17.7909 16 20C16 22.2091 17.7909 24 20 24C22.2091 24 24 22.2091 24 20C24 17.7909 22.2091 16 20 16ZM30 14C31.1046 14 32 14.8954 32 16C32 17.1046 31.1046 18 30 18C28.8954 18 28 17.1046 28 16C28 14.8954 28.8954 14 30 14Z"/>
</svg>
