<svg xmlns="http://www.w3.org/2000/svg" viewBox="0 0 40 40"><path d="M31.84 18.12 30.31 18h-.55a13.45 13.45 0 0 0-2.61-4.5C25.05 11.15 22.06 10 18 10a20.66 20.66 0 0 0-11.34 4A12.68 12.68 0 0 0 2 23.94V28h4.1a5 5 0 0 0 9.79 0h8.22a5 5 0 0 0 9.79 0H38v-3a6.91 6.91 0 0 0-6.16-6.88ZM16 12.2a12.36 12.36 0 0 1 2-.2c3.46 0 6 .93 7.66 2.83a11.31 11.31 0 0 1 2 3.17H16Zm-8.08 3.36a17.74 17.74 0 0 1 6.08-2.9V18H5.74a10.4 10.4 0 0 1 2.18-2.44ZM11 30a3 3 0 1 1 3-3 3 3 0 0 1-3 3Zm18 0a3 3 0 1 1 3-3 3 3 0 0 1-3 3Zm7-4h-2.1a5 5 0 0 0-9.8 0h-8.21a5 5 0 0 0-9.8 0H4v-2.1a11.06 11.06 0 0 1 .73-3.9h24.93c.65 0 1.58.07 2 .11A4.9 4.9 0 0 1 36 25Z"/></svg>