<svg viewBox="0 0 40 40" xmlns="http://www.w3.org/2000/svg"><path fill-rule="evenodd" clip-rule="evenodd" d="M8 8a2 2 0 0 1 2-2h20a2 2 0 0 1 2 2v24a2 2 0 0 1-2 2h-3.75l1.85-8.32-.39-.39a10.67 10.67 0 0 0-15.42 0l-.39.39L13.75 34H10a2 2 0 0 1-2-2v-2H6v2a4 4 0 0 0 4 4h20a4 4 0 0 0 4-4V8a4 4 0 0 0-4-4H10a4 4 0 0 0-4 4v2h2V8Zm7.8 26h8.4l1.7-7.66a8.61 8.61 0 0 0-11.8 0L15.8 34Z"/><path d="M8 27v-2H4v2h4ZM8 13v2H4v-2h4ZM8 21v-2H4v2h4Z"/><path fill-rule="evenodd" clip-rule="evenodd" d="M20 20a5 5 0 1 0 0-10 5 5 0 0 0 0 10Zm0-2a3 3 0 1 0 0-5.999A3 3 0 0 0 20 18Z"/></svg>
