<svg viewBox="0 0 40 40" xmlns="http://www.w3.org/2000/svg"><g clip-path="url(#a)"><path d="M22.667 12v.948a5.393 5.393 0 0 0-3.26-.948c-2.962 0-6.31 2.133-6.31 8s3.348 8 6.31 8a5.363 5.363 0 0 0 4.86-2.667A5.925 5.925 0 0 0 29.333 28a7.2 7.2 0 0 0 6.412-5.12C36.024 21.946 36 21 36 20a16 16 0 1 0-16 16 16.83 16.83 0 0 0 9.867-3.319l-.86-1.688a15.882 15.882 0 0 1-8.889 2.963A14.549 14.549 0 0 1 5.986 20 14.548 14.548 0 0 1 20 5.985 14.548 14.548 0 0 1 34.015 20c0 1.867-1.482 5.926-4.682 5.926-3.851 0-4.326-5.748-4.326-5.926v-8h-2.34Zm-3.674 14.015c-2.134 0-4-2.548-4-5.926s2.222-5.926 4.325-5.926c1.215 0 3.675.652 3.675 5.926s-2.786 5.926-4 5.926Z" /></g><defs><clipPath id="a"><path transform="translate(4 4)" d="M0 0h32v32H0z"/></clipPath></defs></svg>
