<svg version="1.1" xmlns="http://www.w3.org/2000/svg" xmlns:xlink="http://www.w3.org/1999/xlink" x="0px" y="0px"
	 viewBox="0 0 40 40" style="enable-background:new 0 0 40 40;" xml:space="preserve">
<path id="Shape" d="M28,4c2.20914,0,4,1.79086,4,4v24c0,2.20914-1.79086,4-4,4H12c-2.20914,0-4-1.79086-4-4V15L18,4H28z M28,6
	h-9.116L10,15.772V32c0,1.05436,0.81588,1.91816,1.85074,1.99451L12,34h16c1.05436,0,1.91817-0.81588,1.99451-1.85074L30,32V8
	c0-1.05436-0.81588-1.91817-1.85074-1.99451L28,6z M20,14c3.31371,0,6,2.68629,6,6c0,1.05436-0.81588,1.91817-1.85074,1.99451L24,22
	h-8c0,2.14221,1.68398,3.89114,3.80036,3.99517L20,26.00007l0.99059,0.00004c1.21897-0.01147,2.33061-0.53519,3.06284-1.41283
	l0.14131-0.1802l1.61052,1.18584c-1.05099,1.42739-2.71079,2.30651-4.54247,2.39927L21,28.00007h-1
	c-3.23839,0-5.87757-2.56563-5.99586-5.77513L14,22v-2C14,16.68629,16.68629,14,20,14z M20,16
	c-2.14219,0-3.89108,1.68397-3.9951,3.80036L16,19.999L24,20l-0.0049-0.19964C23.89108,17.68397,22.14219,16,20,16z"/>
</svg>
