<svg xmlns="http://www.w3.org/2000/svg" viewBox="0 0 40 40" style="enable-background:new 0 0 40 40" xml:space="preserve"><path d="M28 4a4 4 0 0 1 4 4v24a4 4 0 0 1-4 4H12a4 4 0 0 1-4-4V15L18 4h10zm0 2h-9.116L10 15.772V32a2 2 0 0 0 1.85 1.995L12 34h16a2 2 0 0 0 1.995-1.85L30 32V8a2 2 0 0 0-1.85-1.995L28 6zm-8 8a6 6 0 0 1 6 6 2 2 0 0 1-1.85 1.995L24 22h-8a4 4 0 0 0 3.8 3.995L20 26h.99c1.22-.011 2.331-.535 3.063-1.413l.142-.18 1.61 1.186c-1.05 1.427-2.71 2.306-4.542 2.4L21 28h-1a6 6 0 0 1-5.996-5.775L14 22v-2a6 6 0 0 1 6-6zm0 2a4 4 0 0 0-3.995 3.8L16 20 24 20l-.005-.2A4 4 0 0 0 20 16z"/></svg>