<svg viewBox="0 0 40 40" xmlns="http://www.w3.org/2000/svg"><path d="m10.5 8.9-1-1.7C12.8 5.1 16.1 4 20 4c4.1 0 7.3 1 10.6 3.2l-1.1 1.7c-3-2-5.8-2.9-9.5-2.9-3.5 0-6.4 1-9.5 2.9Zm-3.6 8.7-1.7-1C8.4 11.2 13.7 8 20 8c6.2 0 11.6 3.1 14.9 8.4l-1.7 1C30.3 12.8 25.5 10 20 10c-5.6 0-10.3 2.8-13.1 7.6Zm3.9 12.9-1.7 1.1C7.4 28.9 7 27.2 7 24c0-6 6-12 13-12 7.6 0 13 5.4 13 11 0 3.3-2.1 5-5 5-.8 0-1.7-.1-2.4-.5s-1.3-.9-1.8-1.5c-.4-.5-.7-.9-1-1.4-.3-.5-.5-1-.9-1.5-.3-.4-.6-.7-1-.9-.3-.2-.6-.2-.9-.2-2.9 0-3.6 2-2.1 5.6.6 1.4 1.8 2.7 3.3 4 .9.7 1.8 1.3 2.7 1.9.3.2.6.4.9.5.2.1.3.1.3.2l-.8 1.8c-.1 0-.2-.1-.4-.2-.3-.2-.6-.3-1-.5-1-.6-2-1.3-3-2-1.8-1.5-3.2-3-3.9-4.7-2-4.9-.6-8.6 4-8.6.8 0 1.5.1 2.2.6.7.4 1.2 1.1 1.7 1.8.6.9 1 1.8 1.7 2.6.5.5 1.1.9 1.8 1h.7c1.9 0 3-.9 3-3 0-4.4-4.6-9-11-9-5.9 0-11 5.1-11 10-.1 2.9.2 4.2 1.7 6.5Zm5.9 1.8-1.4 1.4C12.6 31.1 11 27.8 11 24c0-4.4 4.3-8 9-8 4.2 0 6.6 1.9 8.9 6.6l-1.8.9c-2-4-3.8-5.4-7.1-5.4-3.7 0-7 2.8-7 6s1.4 5.9 3.7 8.2ZM28 30v2c-4.1 0-7.7-2.9-8.9-6.7l1.9-.6c.9 3 3.8 5.3 7 5.3Z"/></svg>
