<?xml version="1.0" encoding="utf-8"?>
<svg version="1.1" id="Слой_1" xmlns="http://www.w3.org/2000/svg" xmlns:xlink="http://www.w3.org/1999/xlink" x="0px" y="0px"
	 viewBox="0 0 40 40" style="enable-background:new 0 0 40 40;" xml:space="preserve">
<path id="Shape" d="M16.98497,33.67454c0.97109,0.21314,1.97994,0.32547,3.01503,0.32547s2.04394-0.11233,3.01503-0.32547
	l2.13602-6.58471l6.92164,0.00331c1.0082-1.71228,1.66251-3.65789,1.8624-5.73628l-5.60051-4.06492l2.1413-6.57956
	c-1.33985-1.51015-3.00125-2.72855-4.87688-3.54788L20,11.23651L14.40099,7.1645c-1.87563,0.81933-3.53703,2.03773-4.87688,3.54788
	l2.1413,6.57956l-5.60051,4.06492c0.19988,2.07839,0.8542,4.024,1.8624,5.73629l6.92164-0.00331L16.98497,33.67454z
	 M14.64371,32.93882l-1.24835-3.84829l-4.04123,0.00193C10.77868,30.75883,12.58766,32.08672,14.64371,32.93882L14.64371,32.93882z
	 M6.04243,18.90189l3.27102-2.37415l-1.25135-3.84499C6.93442,14.51862,6.21835,16.63451,6.04243,18.90189z M16.72858,6.3843
	L20,8.76352l3.27142-2.37921C22.22193,6.13306,21.1265,6.00001,20,6.00001S17.77807,6.13306,16.72858,6.3843L16.72858,6.3843z
	 M31.93789,12.68275l-1.25134,3.84499l3.27102,2.37415C33.78165,16.63451,33.06558,14.51862,31.93789,12.68275L31.93789,12.68275z
	 M30.64588,29.09246l-4.04123-0.00193l-1.24835,3.84829C27.41234,32.08672,29.22132,30.75883,30.64588,29.09246L30.64588,29.09246z
	 M20,36.00001c-8.83656,0-16-7.16344-16-16s7.16344-16,16-16s16,7.16344,16,16S28.83656,36.00001,20,36.00001z M20,13.76394
	l5.93085,4.30902l-2.26538,6.97214h-7.33094l-2.26538-6.97214L20,13.76394z M16.42029,18.83689l1.36733,4.2082h4.42477
	l1.36733-4.2082L20,16.23608L16.42029,18.83689z"/>
</svg>
