<svg xmlns="http://www.w3.org/2000/svg" viewBox="0 0 40 40" style="enable-background:new 0 0 40 40" xml:space="preserve"><path d="M16.985 33.675c.971.213 1.98.325 3.015.325s2.044-.112 3.015-.325l2.136-6.585 6.922.003a13.912 13.912 0 0 0 1.862-5.736l-5.6-4.065 2.14-6.58A14.038 14.038 0 0 0 25.6 7.164L20 11.237l-5.599-4.072a14.038 14.038 0 0 0-4.877 3.547l2.141 6.58-5.6 4.065c.2 2.078.854 4.024 1.862 5.736l6.922-.003 2.136 6.585zm-2.341-.736-1.249-3.848-4.04.001a14.036 14.036 0 0 0 5.289 3.847zM6.042 18.902l3.271-2.374-1.25-3.845a13.916 13.916 0 0 0-2.02 6.219zM16.73 6.384 20 8.764l3.271-2.38C22.221 6.134 21.126 6 20 6s-2.222.133-3.271.384zm15.209 6.299-1.251 3.845 3.27 2.374a13.916 13.916 0 0 0-2.02-6.22zm-1.292 16.41-4.041-.002-1.249 3.848a14.036 14.036 0 0 0 5.29-3.847zM20 36c-8.837 0-16-7.163-16-16S11.163 4 20 4s16 7.163 16 16-7.163 16-16 16zm0-22.236 5.93 4.309-2.265 6.972h-7.33l-2.266-6.972L20 13.763zm-3.58 5.073 1.368 4.208h4.424l1.368-4.208-3.58-2.6-3.58 2.6z"/></svg>