<svg xmlns="http://www.w3.org/2000/svg" viewBox="0 0 40 40"><path d="M26.5 6.07A7.55 7.55 0 0 0 20 9.71a7.55 7.55 0 0 0-6.5-3.64c-4.29 0-7.5 4.36-7.5 8.26a6.84 6.84 0 0 0 1 3.54c2.41 4 10 15.29 10.3 15.77l.3.44h5l.3-.43c.33-.47 8-11.66 10.21-15.84a8.29 8.29 0 0 0 .9-3.48c-.01-3.9-3.22-8.26-7.51-8.26Zm4.82 10.81C29.45 20.5 23 29.94 21.54 32.07h-2.89c-1.45-2.17-7.84-11.74-10-15.24a4.83 4.83 0 0 1-.65-2.5c0-2.83 2.45-6.25 5.5-6.25a5.46 5.46 0 0 1 5.36 4.07h2.29a5.46 5.46 0 0 1 5.35-4.07c3 0 5.5 3.42 5.5 6.25a6.3 6.3 0 0 1-.68 2.55Z"/></svg>