<svg xmlns="http://www.w3.org/2000/svg" viewBox="0 0 40 40" style="enable-background:new 0 0 40 40" xml:space="preserve"><path d="M8.714 15.91A11.976 11.976 0 0 0 8 20c0 6.627 5.373 12 12 12 1.139 0 2.254-.158 3.325-.466a6.5 6.5 0 0 1 8.21-8.21c.307-1.07.465-2.185.465-3.324 0-6.627-5.373-12-12-12-1.432 0-2.827.25-4.139.733.091.408.139.832.139 1.267 0 3.323-2.793 6-6.218 6-.361 0-.718-.03-1.068-.09zm-1.965-.438-2.272.617-1.674-1.912 1.11-2.199A5.776 5.776 0 0 1 3.563 10c0-3.323 2.794-6 6.219-6 2.247 0 4.222 1.152 5.315 2.883A13.972 13.972 0 0 1 20 6c7.732 0 14 6.268 14 14 0 1.461-.224 2.893-.659 4.256a6.5 6.5 0 1 1-9.085 9.085A13.992 13.992 0 0 1 20 34c-7.732 0-14-6.268-14-14 0-1.56.255-3.084.749-4.528zM29.5 34a4.5 4.5 0 1 0 0-9 4.5 4.5 0 0 0 0 9zm.532-3.449.59-.59 1.459 1.458L31.5 32h-.126a4.293 4.293 0 0 1-4.293-4.293v-.126l.581-.581 1.458 1.458-.59.59c.33.647.856 1.174 1.502 1.503zm-23.91-18.51-.895 1.772 2.07-.562.356.198c.646.359 1.373.55 2.129.55C12.12 14 14 12.2 14 10c0-2.198-1.88-4-4.218-4s-4.218 1.802-4.218 4a3.8 3.8 0 0 0 .355 1.603l.203.438zm7.073 8.664c0 .288.072.508.216.661.144.153.336.23.576.23.192 0 .344-.048.455-.144a.496.496 0 0 0 .166-.396c0-.174-.076-.31-.229-.41s-.395-.214-.725-.346c-.288-.114-.565-.228-.832-.342s-.501-.249-.702-.405a1.82 1.82 0 0 1-.482-.558c-.12-.216-.18-.486-.18-.81s.071-.601.212-.832c.141-.231.328-.42.562-.567.234-.147.5-.255.797-.324s.604-.104.922-.104c.462 0 .85.06 1.161.18s.564.278.756.472.33.416.414.662c.084.246.126.492.126.738h-1.872c0-.522-.207-.783-.62-.783a.7.7 0 0 0-.406.117c-.114.078-.17.204-.17.378 0 .162.071.297.215.405.144.108.36.213.648.315.27.096.542.198.815.306.273.108.519.24.738.396.219.156.396.347.531.572.135.225.202.499.202.823 0 .324-.06.615-.18.873s-.29.474-.513.648a2.381 2.381 0 0 1-.81.4c-.318.094-.675.14-1.07.14-.397 0-.754-.051-1.072-.153s-.589-.249-.814-.441a1.931 1.931 0 0 1-.522-.715 2.468 2.468 0 0 1-.185-.986h1.872zM20 23c-.54 0-1.022-.091-1.444-.275s-.78-.427-1.072-.733a3.15 3.15 0 0 1-.666-1.062 3.488 3.488 0 0 1-.229-1.251c0-.432.076-.849.23-1.251a3.15 3.15 0 0 1 .665-1.062c.291-.306.648-.55 1.071-.734s.905-.274 1.445-.274 1.023.091 1.449.275c.426.183.784.427 1.075.733s.514.66.667 1.062c.153.402.229.819.229 1.251 0 .432-.076.849-.23 1.251-.152.402-.374.756-.665 1.062s-.65.55-1.076.734A3.639 3.639 0 0 1 20 23zm0-1.71c.24 0 .455-.045.643-.135a1.472 1.472 0 0 0 .774-.869 1.808 1.808 0 0 0 0-1.215A1.461 1.461 0 0 0 20 18.067a1.461 1.461 0 0 0-1.418 1.004 1.808 1.808 0 0 0-.102.608c0 .21.035.412.103.607A1.461 1.461 0 0 0 20 21.29zm5.393-.585c0 .288.072.508.216.661.144.153.336.23.576.23.192 0 .343-.048.454-.144a.496.496 0 0 0 .167-.396.464.464 0 0 0-.23-.41 4.501 4.501 0 0 0-.724-.346c-.288-.114-.566-.228-.833-.342s-.5-.249-.702-.405a1.82 1.82 0 0 1-.481-.558c-.12-.216-.18-.486-.18-.81s.07-.601.211-.832c.141-.231.329-.42.563-.567.234-.147.5-.255.796-.324.297-.07.605-.104.923-.104.462 0 .849.06 1.16.18.313.12.565.278.757.472.192.195.33.416.414.662.084.246.126.492.126.738h-1.872c0-.522-.207-.783-.621-.783a.7.7 0 0 0-.405.117c-.114.078-.171.204-.171.378 0 .162.072.297.216.405.144.108.36.213.648.315.27.096.541.198.814.306.273.108.52.24.738.396.22.156.396.347.531.572.135.225.203.499.203.823 0 .324-.06.615-.18.873s-.291.474-.513.648a2.381 2.381 0 0 1-.81.4c-.318.094-.675.14-1.071.14s-.753-.051-1.071-.153a2.338 2.338 0 0 1-.815-.441 1.931 1.931 0 0 1-.522-.715 2.468 2.468 0 0 1-.184-.986h1.872z"/></svg>