<?xml version="1.0" encoding="utf-8"?>
<svg version="1.1" id="Слой_1" xmlns="http://www.w3.org/2000/svg" xmlns:xlink="http://www.w3.org/1999/xlink" x="0px" y="0px"
	 viewBox="0 0 40 40" style="enable-background:new 0 0 40 40;" xml:space="preserve">
<path id="Shape" d="M8.7145,15.91063C8.24416,17.20821,8,18.58634,8,20c0,6.62742,5.37258,12,12,12
	c1.13854,0,2.25441-0.15833,3.32452-0.4662C23.11393,30.894,23,30.2103,23,29.5c0-3.58985,2.91015-6.5,6.5-6.5
	c0.71031,0,1.394,0.11393,2.03381,0.32452C31.84158,22.25475,32,21.13881,32,20c0-6.62742-5.37258-12-12-12
	c-1.432,0-2.82731,0.25057-4.13877,0.73252C15.95213,9.14087,16,9.56486,16,9.99993c0,3.3234-2.79341,5.99997-6.21822,5.99997
	C9.42088,15.9999,9.06416,15.9697,8.7145,15.91063L8.7145,15.91063z M6.74859,15.47232l-2.27136,0.6163l-1.67374-1.91196
	l1.1094-2.19841c-0.22965-0.63163-0.34932-1.29765-0.34932-1.97831c0-3.3234,2.79342-6.00003,6.21822-6.00003
	c2.2469,0,4.22204,1.15209,5.31488,2.88306C16.64948,6.30219,18.30405,6,20,6c7.73199,0,14,6.26801,14,14
	c0,1.46136-0.22433,2.89271-0.65885,4.25583C34.95336,25.43871,36,27.34713,36,29.5c0,3.58985-2.91015,6.5-6.5,6.5
	c-2.15288,0-4.06129-1.04665-5.24417-2.65886C22.89214,33.77584,21.4609,34,20,34c-7.73199,0-14-6.26801-14-14
	C6,18.44057,6.25547,16.91577,6.74859,15.47232L6.74859,15.47232z M29.5,34c2.48528,0,4.5-2.01472,4.5-4.5S31.98528,25,29.5,25
	S25,27.01472,25,29.5S27.01472,34,29.5,34z M30.0325,30.551l0.59025-0.59025L32.081,31.419L31.5,32h-0.12575
	C29.003,32,27.081,30.07775,27.081,27.70675V27.581L27.662,27l1.45825,1.45825l-0.5905,0.59025
	C28.8595,29.69475,29.38625,30.22175,30.0325,30.551z M6.12177,12.04036l-0.89442,1.77241l2.0704-0.56177l0.35543,0.19769
	c0.64575,0.35916,1.37243,0.55122,2.1286,0.55122C12.12068,13.9999,14,12.19919,14,9.99993
	c0-2.19927-1.87933-4.00003-4.21822-4.00003S5.56357,7.80066,5.56357,9.99993c0,0.55579,0.12185,1.09639,0.35545,1.60177
	L6.12177,12.04036z M13.19549,20.705c0,0.288,0.072,0.5085,0.216,0.6615c0.144,0.153,0.336,0.2295,0.576,0.2295
	c0.192,0,0.3435-0.048,0.4545-0.144c0.111-0.096,0.1665-0.228,0.1665-0.396c0-0.174-0.0765-0.3105-0.2295-0.4095
	s-0.3945-0.2145-0.7245-0.3465c-0.288-0.114-0.5655-0.228-0.8325-0.342s-0.501-0.249-0.702-0.405
	c-0.201-0.156-0.3615-0.342-0.4815-0.558c-0.12-0.216-0.18-0.486-0.18-0.81s0.0705-0.6015,0.2115-0.8325
	c0.141-0.231,0.3285-0.42,0.5625-0.567c0.234-0.147,0.4995-0.255,0.7965-0.324s0.6045-0.1035,0.9225-0.1035
	c0.462,0,0.849,0.06,1.161,0.18s0.564,0.2775,0.756,0.4725s0.33,0.4155,0.414,0.6615c0.084,0.246,0.126,0.492,0.126,0.738h-1.872
	c0-0.522-0.207-0.783-0.621-0.783c-0.156,0-0.291,0.039-0.405,0.117c-0.114,0.078-0.171,0.204-0.171,0.378
	c0,0.162,0.072,0.297,0.216,0.405c0.144,0.108,0.36,0.213,0.648,0.315c0.27,0.096,0.5415,0.198,0.8145,0.306
	c0.273,0.108,0.519,0.24,0.738,0.396c0.219,0.156,0.396,0.3465,0.531,0.5715c0.135,0.225,0.2025,0.4995,0.2025,0.8235
	c0,0.324-0.06,0.615-0.18,0.873s-0.291,0.474-0.513,0.648c-0.222,0.174-0.492,0.3075-0.81,0.4005
	c-0.318,0.093-0.675,0.1395-1.071,0.1395c-0.396,0-0.753-0.051-1.071-0.153s-0.5895-0.249-0.8145-0.441
	c-0.225-0.192-0.399-0.4305-0.522-0.7155c-0.123-0.285-0.1845-0.6135-0.1845-0.9855H13.19549z M20,23
	c-0.54,0-1.0215-0.0915-1.4445-0.2745s-0.78-0.4275-1.071-0.7335c-0.291-0.306-0.513-0.66-0.666-1.062
	c-0.153-0.402-0.2295-0.819-0.2295-1.251c0-0.432,0.0765-0.849,0.2295-1.251c0.153-0.402,0.375-0.756,0.666-1.062
	c0.291-0.306,0.648-0.5505,1.071-0.7335S19.46,16.358,20,16.358s1.023,0.0915,1.449,0.2745c0.426,0.183,0.7845,0.4275,1.0755,0.7335
	s0.513,0.66,0.666,1.062c0.153,0.402,0.2295,0.819,0.2295,1.251c0,0.432-0.0765,0.849-0.2295,1.251
	c-0.153,0.402-0.375,0.756-0.666,1.062s-0.6495,0.5505-1.0755,0.7335C21.023,22.9085,20.54,23,20,23z M20,21.29
	c0.24,0,0.4545-0.045,0.6435-0.135s0.348-0.2085,0.477-0.3555c0.129-0.147,0.228-0.318,0.297-0.513
	c0.069-0.195,0.1035-0.3975,0.1035-0.6075c0-0.21-0.0345-0.4125-0.1035-0.6075c-0.069-0.195-0.168-0.366-0.297-0.513
	c-0.129-0.147-0.288-0.2655-0.477-0.3555c-0.189-0.09-0.4035-0.135-0.6435-0.135s-0.4545,0.045-0.6435,0.135
	c-0.189,0.09-0.348,0.2085-0.477,0.3555c-0.129,0.147-0.228,0.318-0.297,0.513c-0.069,0.195-0.1035,0.3975-0.1035,0.6075
	c0,0.21,0.0345,0.4125,0.1035,0.6075c0.069,0.195,0.168,0.366,0.297,0.513c0.129,0.147,0.288,0.2655,0.477,0.3555
	S19.76,21.29,20,21.29z M25.39256,20.705c0,0.288,0.072,0.5085,0.216,0.6615c0.144,0.153,0.336,0.2295,0.576,0.2295
	c0.192,0,0.3435-0.048,0.4545-0.144c0.111-0.096,0.1665-0.228,0.1665-0.396c0-0.174-0.0765-0.3105-0.2295-0.4095
	c-0.153-0.099-0.3945-0.2145-0.7245-0.3465c-0.288-0.114-0.5655-0.228-0.8325-0.342s-0.501-0.249-0.702-0.405
	c-0.201-0.156-0.3615-0.342-0.4815-0.558c-0.12-0.216-0.18-0.486-0.18-0.81s0.0705-0.6015,0.2115-0.8325
	c0.141-0.231,0.3285-0.42,0.5625-0.567c0.234-0.147,0.4995-0.255,0.7965-0.324c0.297-0.069,0.6045-0.1035,0.9225-0.1035
	c0.462,0,0.849,0.06,1.161,0.18c0.312,0.12,0.564,0.2775,0.756,0.4725c0.192,0.195,0.33,0.4155,0.414,0.6615
	c0.084,0.246,0.126,0.492,0.126,0.738h-1.872c0-0.522-0.207-0.783-0.621-0.783c-0.156,0-0.291,0.039-0.405,0.117
	c-0.114,0.078-0.171,0.204-0.171,0.378c0,0.162,0.072,0.297,0.216,0.405c0.144,0.108,0.36,0.213,0.648,0.315
	c0.27,0.096,0.5415,0.198,0.8145,0.306c0.273,0.108,0.519,0.24,0.738,0.396c0.219,0.156,0.396,0.3465,0.531,0.5715
	c0.135,0.225,0.2025,0.4995,0.2025,0.8235c0,0.324-0.06,0.615-0.18,0.873s-0.291,0.474-0.513,0.648
	c-0.222,0.174-0.492,0.3075-0.81,0.4005c-0.318,0.093-0.675,0.1395-1.071,0.1395s-0.753-0.051-1.071-0.153
	c-0.318-0.102-0.5895-0.249-0.8145-0.441c-0.225-0.192-0.399-0.4305-0.522-0.7155c-0.123-0.285-0.1845-0.6135-0.1845-0.9855
	H25.39256z"/>
</svg>
