<svg xmlns="http://www.w3.org/2000/svg" viewBox="0 0 40 40"><path d="M21 6V4h-2v2c-9.3.5-14 7-14 15 1-1 3-2 5-2s4 1 5 2c.8-.8 2.4-1.7 4-1.9V30c0 2.8-.8 4-2.5 4s-2.5-.9-2.5-3h-2c0 3.2 1.6 5 4.5 5 3 0 4.5-2.2 4.5-6V19.1c1.6.3 3.2 1.1 4 1.9 1-1 3-2 5-2s4 1 5 2c0-8-4.7-14.5-14-15zm-1 2.5c1.5 1.9 2.5 3.6 3 5.2.5 1.4.7 2.8.9 4.1-1.2-.5-2.6-.8-3.9-.8-1.3 0-2.7.4-4 .9.1-1.4.4-2.7.9-4.1.6-1.6 1.6-3.4 3.1-5.3zM7.4 17.4c1.1-5.2 4.8-8.6 10.4-9.3-1.3 1.8-2.2 3.4-2.8 5-.5 1.6-.9 3.2-1 4.8-1.2-.6-2.7-1-4-1-.9.1-1.8.2-2.6.5zm18.5.6c-.1-1.6-.5-3.2-1-4.9-.5-1.6-1.4-3.2-2.7-5 5.7.7 9.3 4.1 10.4 9.3-.8-.3-1.7-.4-2.6-.4-1.4 0-2.8.4-4.1 1z"/></svg>
