<svg xmlns="http://www.w3.org/2000/svg" viewBox="0 0 40 40"><path d="m22.55 19-1-.24 1 1.24ZM31 19h1v-1h-1ZM14 35l-1-.24-.28 1.24H14Zm3.45-14 1 .24-1-1.24ZM9 21H8v1h1ZM24 5V4h-.39l-.29.27Zm2 0 1 .24.28-1.24H26ZM16 35v1h.39l.29-.27ZM9 19l-.68-.73-.32.3V19Zm22 2 .68.73.32-.3V21Zm-8.45-1H31v-2h-8.45ZM15 35.24l3.45-14-1.94-.48-3.51 14ZM17.45 20H9v2h8.45ZM24 6h2V4h-2Zm1-1.24-3.45 14 1.94.48 3.51-14ZM16 34h-2v2h2Zm-6-13v-2H8v2Zm-.32-1.27 15-14-1.36-1.46-15 14ZM30 19v2h2v-2Zm.32 1.27-15 14 1.36 1.46 15-14Z"/></svg>