<svg xmlns="http://www.w3.org/2000/svg" viewBox="0 0 40 40">
  <path d="M22.55,19l-1-.24,1,1.24ZM31,19h1V18H31ZM14,35l-1-.24L12.72,36H14Zm3.45-14,1,.24-1-1.24ZM9,21H8v1H9ZM24,5V4h-.39l-.29.27Zm2,0,1,.24L27.28,4H26ZM16,35v1h.39l.29-.27ZM9,19l-.68-.73-.32.3V19Zm22,2,.68.73.32-.3V21Zm-8.45-1H31V18H22.55ZM15,35.24l3.45-14-1.94-.48L13,34.76ZM17.45,20H9v2h8.45ZM24,6h2V4H24Zm1-1.24-3.45,14,1.94.48L27,5.24ZM16,34H14v2h2ZM10,21V19H8v2Zm-.32-1.27,15-14L23.32,4.27l-15,14ZM30,19v2h2V19Zm.32,1.27-15,14,1.36,1.46,15-14Z"/>
</svg>
