<svg xmlns="http://www.w3.org/2000/svg" viewBox="0 0 40 40"><path d="M12.51 36H27.6a5.92 5.92 0 0 0 5.65-4.36l2.53-9.61a4.8 4.8 0 0 0-.8-4.22A4.59 4.59 0 0 0 31.31 16h-8.56l1.56-7.56a3.76 3.76 0 0 0-.79-3.12 3.61 3.61 0 0 0-6.06.73c-1.09 2.2-4 8-5 9.94H4V36h8.51ZM14 17.35c.65-1.28 4.06-8 5.25-10.39a1.66 1.66 0 0 1 1.48-1A1.6 1.6 0 0 1 22 6.6a1.76 1.76 0 0 1 .37 1.46l-1.77 8.55.83 1.4h9.89a2.61 2.61 0 0 1 2.08 1 2.81 2.81 0 0 1 .46 2.48l-2.53 9.61A3.91 3.91 0 0 1 27.6 34H14ZM6 34V18h6v16Z"/></svg>