<svg xmlns="http://www.w3.org/2000/svg" viewBox="0 0 40 40"><path d="M29.24 7a5.18 5.18 0 0 1-5 .54l-7.55-3a7.17 7.17 0 0 0-7.11.85L4 9.53V34l1.89 2 4.87-3a5.19 5.19 0 0 1 5-.54l7.26 3a7.19 7.19 0 0 0 7.53-1.19L36 29.48V6l-1.89-2ZM12 30.14a7.08 7.08 0 0 0-2.4 1.09l-3.49 2.49-.11-.11V10.53L10.75 7A5.12 5.12 0 0 1 12 6.32Zm12 3.51-.17-.06-7.26-3.12a7.1 7.1 0 0 0-2.57-.56V6a5.13 5.13 0 0 1 1.88.41l7.55 3c.19.08.38.14.58.2Zm10-5.07-4.74 4.16A5.16 5.16 0 0 1 26 34V10a7.17 7.17 0 0 0 4.4-1.32l3.49-2.34.11.11Z"/></svg>