<svg xmlns="http://www.w3.org/2000/svg" viewBox="0 0 40 40"><path d="m4.56 15.8 1.93.51a14 14 0 1 0 9.91-9.84l-.52-1.93A16 16 0 1 1 4 20a15.773 15.773 0 0 1 .56-4.2zM11 9.44a1.5 1.5 0 1 1-3 0 1.5 1.5 0 0 1 3 0zm2.87-2.28a1.5 1.5 0 1 1-3 0 1.5 1.5 0 0 1 3 0zM8.65 12.4a1.5 1.5 0 1 1-3 0 1.5 1.5 0 0 1 3 0zm5.583 15.28-1.466-1.36 13-14 1.466 1.36-13 14zM15.5 19a3.5 3.5 0 1 1 0-7 3.5 3.5 0 0 1 0 7zm0-2a1.5 1.5 0 1 0 0-3 1.5 1.5 0 0 0 0 3zm9 11a3.5 3.5 0 1 1 0-7 3.5 3.5 0 0 1 0 7zm0-2a1.5 1.5 0 1 0 0-3 1.5 1.5 0 0 0 0 3z"/></svg>