<svg xmlns="http://www.w3.org/2000/svg" viewBox="0 0 40 40"><path d="M29.13 11A17.13 17.13 0 0 0 5 11L3.55 9.57a19.14 19.14 0 0 1 27 0Zm-17.05 7.08 1.42 1.42a5 5 0 0 1 7.11 0L22 18.08a7.05 7.05 0 0 0-9.95 0Zm14.21-4.25a13.08 13.08 0 0 0-18.47 0l1.42 1.42a11.07 11.07 0 0 1 15.63 0Zm7.56 6.55L38 23.49V32h-4.09a5 5 0 0 1-9.8 0H15.9a5 5 0 0 1-9.8 0H2V14h4v2H4v14h2.1a5 5 0 0 1 9.79 0h8.21a5 5 0 0 1 9.8 0H36v-5.51l-3.85-2.89-1.87-5.6H29v-2h2.72ZM14 31a3 3 0 1 0-3 3 3 3 0 0 0 3-3Zm18 0a3 3 0 1 0-3 3 3 3 0 0 0 3-3Z"/></svg>