<svg xmlns="http://www.w3.org/2000/svg" viewBox="0 0 90 40"><path d="M43 19h3v2h-3v3h-2v-3h-3v-2h3v-3h2Zm20.21-5.66L75 18.5v3l-11.76 5.16-1.24-.87V14.28ZM64 24.13l9-3.91v-.4l-9-3.92ZM26.88 35.88a5 5 0 1 1 0-10 5 5 0 0 1 3 1v-10.3l-14-3.5v13.8a5 5 0 1 1-5-5 5 5 0 0 1 3 1V4.76L15 3.88l16.88 4.18v22.82a5 5 0 0 1-5 5Zm-13-9a3 3 0 1 0-3 3 3 3 0 0 0 3-3Zm16 4a3 3 0 1 0-3 3 3 3 0 0 0 3-3Zm0-21.26-14-3.5V11l14 3.5ZM84 12v16a4 4 0 0 1-4 4H56a4 4 0 0 1-4-4V12a4 4 0 0 1 4-4h24a4 4 0 0 1 4 4Zm-2 0a2 2 0 0 0-2-2H56a2 2 0 0 0-2 2v16a2 2 0 0 0 2 2h24a2 2 0 0 0 2-2Z"/></svg>