<svg viewBox="0 0 40 40" xmlns="http://www.w3.org/2000/svg"><path fill-rule="evenodd" clip-rule="evenodd" d="M23.45 8a3.48 3.48 0 0 0-1.156-2.161A3.457 3.457 0 0 0 20 5c-.844 0-1.66.283-2.294.839A3.48 3.48 0 0 0 16.55 8a10.05 10.05 0 0 0-4.88 3.85 10.55 10.55 0 0 0-1.67 5.6v8.13l-2 2V32h8.13a3.66 3.66 0 0 0-.13 1 4 4 0 1 0 7.87-1H32v-4.43l-2-2v-8.13a10.6 10.6 0 0 0-1.67-5.58A10.05 10.05 0 0 0 23.45 8ZM30 30H10v-1.6l2-2v-9a8 8 0 0 1 6.5-7.93v-1a1.5 1.5 0 1 1 3 0v1a8 8 0 0 1 6.5 7.98v9l2 2V30Zm-12 3a2 2 0 0 1 .27-1h3.46A2 2 0 1 1 18 33Z"/></svg>