<svg xmlns="http://www.w3.org/2000/svg" viewBox="0 0 40 40" style="enable-background:new 0 0 40 40" xml:space="preserve"><path d="M24 31H7a3 3 0 0 1-3-3V18a3 3 0 0 1 3-3h18c.345 0 .682.059 1 .17.313-.11.65-.17 1-.17h6a3 3 0 0 1 3 3v14a3 3 0 0 1-3 3h-6a3 3 0 0 1-3-3v-1zm.17-14H7a1 1 0 0 0-1 1v10a1 1 0 0 0 1 1h17V18c0-.35.06-.687.17-1zM33 33a1 1 0 0 0 1-1V18a1 1 0 0 0-1-1h-6a1 1 0 0 0-1 1v14a1 1 0 0 0 1 1h6zm-3-1a1 1 0 1 1 0-2 1 1 0 0 1 0 2zm-18 3v-2h10v2H12zm6-21a1 1 0 1 1 0-2 1 1 0 0 1 0 2zm3.413-4.536L20 10.878a3 3 0 0 0-4.243 0l-1.414-1.414a5 5 0 0 1 7.071 0zm2.829-2.829L22.827 8.05a7 7 0 0 0-9.9 0l-1.413-1.414A8.973 8.973 0 0 1 18 4a8.97 8.97 0 0 1 6.242 2.635z"/></svg>