<?xml version="1.0" encoding="utf-8"?>
<svg version="1.1" id="Слой_1" xmlns="http://www.w3.org/2000/svg" xmlns:xlink="http://www.w3.org/1999/xlink" x="0px" y="0px"
	 viewBox="0 0 40 40" style="enable-background:new 0 0 40 40;" xml:space="preserve">
<path id="Shape" d="M24,31.00006H7c-1.65685,0-3-1.34315-3-3v-10c0-1.65685,1.34315-3,3-3h18
	c0.34456,0,0.68175,0.05853,0.99961,0.17084C26.3125,15.06027,26.64922,15.00006,27,15.00006h6c1.65685,0,3,1.34314,3,3v14
	c0,1.65685-1.34315,3-3,3h-6c-1.65685,0-3-1.34315-3-3V31.00006z M24.17071,17.00006H7c-0.55228,0-1,0.44772-1,1v10
	c0,0.55228,0.44772,1,1,1h17v-11C24,17.64943,24.06015,17.31284,24.17071,17.00006L24.17071,17.00006z M33,33.00006
	c0.55228,0,1-0.44772,1-1v-14c0-0.55228-0.44772-1-1-1h-6c-0.55228,0-1,0.44772-1,1v14c0,0.55228,0.44772,1,1,1H33z M30,32.00006
	c-0.55228,0-1-0.44772-1-1s0.44772-1,1-1s1,0.44772,1,1S30.55228,32.00006,30,32.00006z M12,35.00006v-2h10v2H12z M18,14.00006
	c-0.55228,0-1-0.44772-1-1s0.44772-1,1-1s1,0.44772,1,1S18.55228,14.00006,18,14.00006z M21.41319,9.4637l-1.41421,1.41421
	c-1.17157-1.17157-3.07107-1.17157-4.24264,0L14.34212,9.4637C16.29474,7.51108,19.46057,7.51108,21.41319,9.4637z
	 M24.24162,6.63528L22.8274,8.04949c-2.73367-2.73367-7.16582-2.73367-9.89949,0l-1.41421-1.41421
	C13.30217,4.8468,15.65609,3.9684,18,4.00006C20.26235,4.03063,22.51537,4.90903,24.24162,6.63528z"/>
</svg>
