<svg version="1.2" baseProfile="tiny" xmlns="http://www.w3.org/2000/svg" viewBox="0 0 40 40" xml:space="preserve"><path d="M26 14.1V8c0-2.2-1.8-4-4-4H10C7.8 4 6 5.8 6 8v24c0 2.2 1.8 4 4 4h15c6.1 0 11-4.9 11-11 0-5.7-4.4-10.4-10-10.9zM10 34c-1.1 0-2-.9-2-2V8c0-1.1.9-2 2-2h12c1.1 0 2 .9 2 2v6c-5.6.5-10 5.2-10 11 0 3.7 1.9 7 4.7 9H10zm15 0h-.1c-4.9-.1-8.9-4.1-8.9-9 0-5 4-9 9-9s9 4 9 9-4 9-9 9zM12 8h8v2h-8V8zm14 10h-4v6h-2v2h2v2h-2v2h2v2h2v-2h4v-2h-4v-2h2c2.2 0 4-1.8 4-4s-1.8-4-4-4zm0 6h-2v-4h2c1.1 0 2 .9 2 2s-.9 2-2 2z"/></svg>