<?xml version="1.0" encoding="utf-8"?>
<svg version="1.1" id="Слой_1" xmlns="http://www.w3.org/2000/svg" xmlns:xlink="http://www.w3.org/1999/xlink" x="0px" y="0px"
	 viewBox="0 0 40 40" style="enable-background:new 0 0 40 40;" xml:space="preserve">
<path id="Shape" d="M23.9504,14.04943C23.47553,9.5257,19.6495,6,15,6c-4.97056,0-9,4.02944-9,9
	c0,4.6495,3.5257,8.47553,8.04943,8.9504C14.54519,18.71307,18.71307,14.54519,23.9504,14.04943L23.9504,14.04943z
	 M14.04121,25.95879C8.41504,25.473,4,20.75209,4,15C4,8.92487,8.92487,4,15,4c5.75209,0,10.473,4.41504,10.95879,10.04121
	C31.58496,14.527,36,19.24791,36,25c0,6.07513-4.92487,11-11,11C19.24791,36,14.527,31.58496,14.04121,25.95879z M13.21333,15.57059
	c1.01373-0.51686,1.84-1.34353,2.35725-2.35725l-0.92627-0.92588L16.93176,10L18,11.06863v0.19686
	C18,14.9851,14.9851,18,11.26588,18h-0.19726L10,16.93176l2.28745-2.28706L13.21333,15.57059z M25,34c4.97056,0,9-4.02944,9-9
	s-4.02944-9-9-9s-9,4.02944-9,9S20.02944,34,25,34z M22,23v6h-2v-8h4.5v2H22z M27,26v1h1.5c0.27614,0,0.5-0.22386,0.5-0.5
	S28.77614,26,28.5,26H27z M27,24h1.5c1.38071,0,2.5,1.11929,2.5,2.5S29.88071,29,28.5,29H25v-8h5v2h-3V24z"/>
</svg>
