<svg xmlns="http://www.w3.org/2000/svg" viewBox="0 0 40 40" style="enable-background:new 0 0 40 40" xml:space="preserve"><path d="M23.95 14.05a9.001 9.001 0 1 0-9.9 9.9 11.003 11.003 0 0 1 9.9-9.9zm-9.909 11.909C8.415 25.473 4 20.752 4 15 4 8.925 8.925 4 15 4c5.752 0 10.473 4.415 10.959 10.041C31.585 14.527 36 19.248 36 25c0 6.075-4.925 11-11 11-5.752 0-10.473-4.415-10.959-10.041zm-.828-10.388a5.406 5.406 0 0 0 2.358-2.358l-.927-.926L16.932 10 18 11.069v.196A6.734 6.734 0 0 1 11.266 18h-.197L10 16.932l2.287-2.287.926.926zM25 34a9 9 0 1 0 0-18 9 9 0 0 0 0 18zm-3-11v6h-2v-8h4.5v2H22zm5 3v1h1.5a.5.5 0 0 0 0-1H27zm0-2h1.5a2.5 2.5 0 0 1 0 5H25v-8h5v2h-3v1z"/></svg>