<svg xmlns="http://www.w3.org/2000/svg" viewBox="0 0 40 40" style="enable-background:new 0 0 40 40" xml:space="preserve"><path d="m18.2 17.1-11-6.4-.4-2.1 3-2.6 15.7 5.1 4-3.4c1.7-1.4 4.2-1.2 5.6.5 1.4 1.7 1.2 4.2-.5 5.6l-4 3.4 2.3 16.3-3.1 2.6-2-.9-4.4-11.9-6.4 5.2.3 5-3.1 2.5-2-.9-1.6-6.5L4.5 26 4 23.8l3.1-2.6 4.9 1.1 6.2-5.2zm12.5 15.4-2.3-16.2 4.9-4.1c.8-.7.9-1.9.3-2.8-.7-.8-1.9-.9-2.8-.2l-4.9 4.1-15.6-5L9 9.4l12.7 7.4-9.2 7.7-4.9-1.1-1.4 1.1 6.1 2.6 1.5 6.5 1.3-1.1-.3-5 9.3-7.8 5 13.9 1.6-1.1z"/></svg>