<svg viewBox="0 0 40 40" xmlns="http://www.w3.org/2000/svg"><path d="M5 24h1.626v-2.373c.236.524.754.897 1.472.897 1.117 0 2.016-.907 2.016-2.72v-.08c0-1.803-.899-2.73-2.007-2.73-.718 0-1.208.423-1.48.927v-.786H5V24Zm2.525-2.856c-.59 0-.944-.453-.944-1.35v-.08c0-.887.354-1.36.944-1.36.573 0 .936.443.936 1.37v.08c0 .867-.327 1.34-.936 1.34ZM10.838 22.403h1.626v-2.498c0-.846.545-1.189 1.535-1.158v-1.682c-.736-.01-1.235.332-1.535 1.118v-1.048h-1.626v5.268ZM17.004 22.524c1.435 0 2.262-.675 2.407-1.864h-1.526c-.064.353-.29.625-.827.625-.581 0-.945-.403-.99-1.098h3.343v-.473c0-1.894-1.117-2.72-2.416-2.72-1.436 0-2.571 1.068-2.571 2.76v.08c0 1.723 1.09 2.69 2.58 2.69Zm-.918-3.354c.082-.635.418-.987.909-.987.527 0 .808.352.835.987h-1.744ZM22.314 19.639a.9.9 0 0 1-.908.89.9.9 0 0 1-.908-.89.9.9 0 0 1 .908-.891.9.9 0 0 1 .908.89ZM25.599 22.73c1.576 0 2.525-.911 2.525-2.298 0-1.413-.749-2.216-1.89-2.216-.774 0-1.219.337-1.454.693l.035-1.441h2.908V16.1h-4.196l-.13 3.84h1.061c.21-.256.523-.465 1.028-.465.54 0 .844.346.844.93 0 .52-.235.921-.748.921-.575 0-.75-.3-.81-.757h-1.62c.044 1.222.793 2.162 2.447 2.162ZM31.953 22.732c2.01 0 3.047-1.25 3.047-2.91v-.803h-2.926v1.305h1.167c-.035.52-.366.985-1.236.985-1.08 0-1.454-.821-1.454-1.88v-.072c0-1.177.53-1.889 1.41-1.889.662 0 1.036.32 1.123.93h1.768C34.73 16.703 33.424 16 31.952 16c-1.871 0-3.265 1.34-3.265 3.33v.072c0 1.952 1.15 3.33 3.265 3.33Z"/><path d="M31.4 12c1.7 0 3.4.7 4.6 1.9 1.2 1.2 2 3 1.9 4.6v2.8c0 1.7-.7 3.4-1.9 4.6-1.2 1.2-2.9 2-4.6 2L8.6 28c-1.7 0-3.4-.7-4.6-2-1.3-1.2-2-2.9-2-4.6v-2.8c0-1.7.7-3.4 2-4.6 1.2-1.3 2.9-2 4.6-2h22.8Zm0-2H8.6c-2.3 0-4.5.9-6.1 2.5C.9 14.1 0 16.3 0 18.6v2.8c0 2.3.9 4.5 2.5 6.1C4.1 29.1 6.3 30 8.6 30h22.8c2.3 0 4.5-.9 6.1-2.5 1.6-1.6 2.5-3.8 2.5-6.1v-2.8c0-2.3-.9-4.5-2.5-6.1-1.6-1.6-3.8-2.5-6.1-2.5Z"/></svg>