<svg viewBox="0 0 40 40" xmlns="http://www.w3.org/2000/svg">
<path d="M10.45 35.95H29.55L32.13 26.95L31.68 26.53C28.4911 23.6138 24.3263 21.9965 20.005 21.9965C15.6837 21.9965 11.5189 23.6138 8.33 26.53L7.88 26.95L10.45 35.95ZM12 11.95C12 13.5323 12.4692 15.079 13.3482 16.3946C14.2273 17.7102 15.4767 18.7355 16.9385 19.341C18.4003 19.9465 20.0089 20.105 21.5607 19.7963C23.1126 19.4876 24.538 18.7257 25.6569 17.6069C26.7757 16.488 27.5376 15.0626 27.8463 13.5107C28.155 11.9589 27.9965 10.3503 27.391 8.88853C26.7855 7.42672 25.7602 6.1773 24.4446 5.29824C23.129 4.41919 21.5823 3.95 20 3.95C17.8783 3.95 15.8434 4.79286 14.3432 6.29315C12.8429 7.79344 12 9.82827 12 11.95Z"/>
</svg>
