<svg viewBox="0 0 40 40" xmlns="http://www.w3.org/2000/svg">
<path d="M25 4C27.7614 4 30 6.2386 30 9L30.0012 14.1003C32.2115 14.5495 33.8922 16.4569 33.995 18.7745L34 19V20H30V31C30 33.7614 27.7614 36 25 36H15C12.2386 36 10 33.7614 10 31V9C10 6.2386 12.2386 4 15 4H25ZM14 16C12.9456 16 12.0818 16.8159 12.0055 17.8507L12 18V31C12 32.6569 13.3431 34 15 34H25C26.6569 34 28 32.6569 28 31V20H16V18C16 16.8954 15.1046 16 14 16ZM20 28C21.1046 28 22 28.8954 22 30C22 31.1046 21.1046 32 20 32C18.8954 32 18 31.1046 18 30C18 28.8954 18.8954 28 20 28ZM17.4648 15.9999C17.7827 16.5492 17.9645 17.1665 17.9951 17.8004L18 18H31.8293C31.438 16.893 30.4156 16.0843 29.1944 16.0062L29 16L17.4648 15.9999ZM25 6H15C13.3431 6 12 7.3431 12 9L11.9999 14.5352C12.6077 14.1835 13.2978 13.9989 14 14H28V9C28 7.3431 26.6569 6 25 6Z"/>
</svg>
