<svg id="Ready" xmlns="http://www.w3.org/2000/svg" viewBox="0 0 40 40"><title>Megaicons_work_32_1.8_cp</title><path d="M30.93,21.49l1.45,1.37-5.75,6.09H25.37l-3.1-3.32,1.46-1.37L26,26.7ZM37.23,29,39,32.82l-2.42,3-4.43-1.2A11,11,0,0,1,16,25.52a10.88,10.88,0,0,1-8.17-.85l-4.43,1.2L1,22.82,2.77,19a10.89,10.89,0,0,1-.77-4,11,11,0,0,1,22-.57A11,11,0,0,1,37.23,29ZM13,23.95a9,9,0,1,0-8.23-5.36L5,19,3.34,22.53l.84,1.05,4-1.07.36.21A9,9,0,0,0,13,23.95Zm23.66,8.58L35,29l.18-.41A9,9,0,0,0,23.87,16.52,11,11,0,0,1,18,24.73c0,.07,0,.14,0,.22a9,9,0,0,0,13.51,7.78l.36-.21,4,1.07ZM13,8.95a4,4,0,0,0-4,4h2a2,2,0,1,1,2,2H12v2h1a4,4,0,0,0,0-8Zm0,9.5a1.5,1.5,0,1,0,1.5,1.5A1.5,1.5,0,0,0,13,18.45Z"/></svg>