<svg xmlns="http://www.w3.org/2000/svg" viewBox="0 0 40 40"><path d="m30.93 21.49 1.45 1.37-5.75 6.09h-1.26l-3.1-3.32 1.46-1.37L26 26.7Zm6.3 7.51L39 32.82l-2.42 3-4.43-1.2A11 11 0 0 1 16 25.52a10.88 10.88 0 0 1-8.17-.85l-4.43 1.2L1 22.82 2.77 19A10.89 10.89 0 0 1 2 15a11 11 0 0 1 22-.57A11 11 0 0 1 37.23 29ZM13 23.95a9 9 0 1 0-8.23-5.36L5 19l-1.66 3.53.84 1.05 4-1.07.36.21A9 9 0 0 0 13 23.95Zm23.66 8.58L35 29l.18-.41a9 9 0 0 0-11.31-12.07A11 11 0 0 1 18 24.73v.22a9 9 0 0 0 13.51 7.78l.36-.21 4 1.07ZM13 8.95a4 4 0 0 0-4 4h2a2 2 0 1 1 2 2h-1v2h1a4 4 0 0 0 0-8Zm0 9.5a1.5 1.5 0 1 0 1.5 1.5 1.5 1.5 0 0 0-1.5-1.5Z"/></svg>