<svg xmlns="http://www.w3.org/2000/svg" viewBox="0 0 40 40" style="enable-background:new 0 0 40 40" xml:space="preserve"><path d="M28.8 19.6c0-2.4-.5-4.8-1.4-7-1.6-3.1-3.6-5.2-6.7-8.3h-1.4l-1 1.1C15.8 8 14 9.9 12.6 13.1c-.8 2.1-1.2 4.2-1.4 6.5C8 21.7 6.1 25.2 6 29v1h5v2h18v-2h5v-1c-.2-3.8-2.1-7.2-5.2-9.4zM29 28v-1h-2v3H13v-3h-2v1H8.1c.3-2.2 1.4-4.2 3-5.8-.1.9-.1 1.8-.1 2.8h2c0-5.2.5-8.9 1.4-11.1 1.3-2.9 2.9-4.6 5.3-7.1l.3-.4c2.5 2.6 4.3 4.4 5.6 7 .9 1.9 1.4 5.8 1.4 11.6h2v-2.7c1.6 1.5 2.6 3.5 3 5.7h-3zm-9-16c-2.2 0-4 1.8-4 4s1.8 4 4 4 4-1.8 4-4-1.8-4-4-4zm0 6c-1.1 0-2-.9-2-2s.9-2 2-2 2 .9 2 2-.9 2-2 2zm-4 16h8v2h-8v-2z"/></svg>