<svg version="1.1" xmlns="http://www.w3.org/2000/svg" xmlns:xlink="http://www.w3.org/1999/xlink" x="0px" y="0px"
	 viewBox="0 0 40 40" style="enable-background:new 0 0 40 40;" xml:space="preserve">
<title>rocket</title>
<path d="M28.8,19.6c0-2.4-0.5-4.8-1.4-7c-1.6-3.1-3.6-5.2-6.7-8.3l-1.4,0l-1,1.1C15.8,8,14,9.9,12.6,13.1c-0.8,2.1-1.2,4.2-1.4,6.5
	C8,21.7,6.1,25.2,6,29v1h5v2h18v-2h5v-1C33.8,25.2,31.9,21.8,28.8,19.6z M29,28v-1h-2v3H13v-3h-2v1H8.1c0.3-2.2,1.4-4.2,3-5.8
	C11,23.1,11,24,11,25h2c0-5.2,0.5-8.9,1.4-11.1c1.3-2.9,2.9-4.6,5.3-7.1L20,6.4c2.5,2.6,4.3,4.4,5.6,7C26.5,15.3,27,19.2,27,25h2
	c0-0.9,0-1.8,0-2.7c1.6,1.5,2.6,3.5,3,5.7H29z M20,12c-2.2,0-4,1.8-4,4s1.8,4,4,4s4-1.8,4-4C24,13.8,22.2,12,20,12z M20,18
	c-1.1,0-2-0.9-2-2s0.9-2,2-2s2,0.9,2,2C22,17.1,21.1,18,20,18z M16,34h8v2h-8V34z"/>
</svg>
