<svg xmlns="http://www.w3.org/2000/svg" viewBox="0 0 40 40"><path d="M12 28.07v4.2a2 2 0 1 0 2 0v-4.42c1.39-1.29 3.36-1.93 6-1.93a8.52 8.52 0 0 1 6 1.93v4.42a2 2 0 1 0 2 0v-4.2c3-1.42 6-4.42 6-8.07 0-4.85-3.63-7.12-6.83-9.13-2.62-1.68-5.17-3.25-5.8-6.1L21.19 4H18.9l-.18.77c-.67 2.84-3.18 4.42-5.85 6.1C9.67 12.88 6 15.15 6 20c0 3.67 3 6.66 6 8.07ZM32 20c0 2.64-2.33 5-4.81 6.24a9.05 9.05 0 0 0-4.09-2l6.63-9.12A6.25 6.25 0 0 1 32 20Zm-9.42-9.89a31.22 31.22 0 0 0 3.53 2.45c.71.45 1.4.88 2 1.33L20.88 24h-.84a10.63 10.63 0 0 0-7.23 2.31 10.11 10.11 0 0 1-1.34-.79Zm-8.69 2.46c2.39-1.5 4.85-3 6.11-5.6a8.58 8.58 0 0 0 1.14 1.72L9.94 24.14A6.16 6.16 0 0 1 8 20c0-3.74 2.77-5.45 5.93-7.44Z"/></svg>