<svg xmlns="http://www.w3.org/2000/svg" viewBox="0 0 40 40"><path d="M20 26a6 6 0 1 0-6-6 6 6 0 0 0 6 6Zm0-10a4 4 0 1 1-4 4 4 4 0 0 1 4-4ZM7.49 27l-.74 2.38 3.89 3.89 2.36-.75a2.6 2.6 0 0 1 3.1 1.28l1.15 2.2h5.5l1.15-2.2a2.6 2.6 0 0 1 3.1-1.28l2.38.74 3.89-3.89-.76-2.37a2.61 2.61 0 0 1 1.28-3.09L36 22.75v-5.5l-2.21-1.15a2.61 2.61 0 0 1-1.28-3.1l.74-2.38-3.88-3.87-2.37.74a2.6 2.6 0 0 1-3.1-1.28L22.75 4h-5.5L16.1 6.21A2.6 2.6 0 0 1 13 7.49l-2.38-.74-3.88 3.89.75 2.36a2.61 2.61 0 0 1-1.28 3.1L4 17.26v5.5l2.21 1.16A2.61 2.61 0 0 1 7.49 27ZM6 18.47l1.14-.6a4.6 4.6 0 0 0 2.26-5.45L9 11.19 11.19 9l1.22.38a4.6 4.6 0 0 0 5.46-2.26L18.46 6h3.07l.6 1.14a4.6 4.6 0 0 0 5.46 2.26l1.22-.4L31 11.19l-.38 1.22a4.6 4.6 0 0 0 2.26 5.45l1.14.6v3.08l-1.14.6a4.6 4.6 0 0 0-2.26 5.46l.38 1.22L28.81 31l-1.22-.38a4.61 4.61 0 0 0-5.46 2.26L21.54 34h-3.08l-.6-1.14a4.61 4.61 0 0 0-5.46-2.26l-1.21.4L9 28.82l.38-1.22a4.6 4.6 0 0 0-2.26-5.45L6 21.54Z"/></svg>