<svg xmlns="http://www.w3.org/2000/svg" viewBox="0 0 40 40"><path d="m7.49 27-.74 2.38 3.89 3.89 2.36-.71a2.61 2.61 0 0 1 3.09 1.28L17.25 36h5.5l1.16-2.21A2.61 2.61 0 0 1 27 32.56l2.38.74 3.89-3.89-.76-2.41a2.61 2.61 0 0 1 1.28-3L36 22.79V17.3l-2.21-1.16a2.61 2.61 0 0 1-1.28-3.09l.74-2.38-3.88-3.88-2.37.74a2.61 2.61 0 0 1-3.1-1.28L22.75 4h-5.5L16.1 6.25A2.61 2.61 0 0 1 13 7.53l-2.38-.74-3.88 3.89.74 2.38a2.61 2.61 0 0 1-1.28 3.09L4 17.3v5.5L6.21 24a2.61 2.61 0 0 1 1.28 3ZM15 20a5 5 0 1 1 5 5 5 5 0 0 1-5-5Z"/></svg>