<svg id="Ready" xmlns="http://www.w3.org/2000/svg" viewBox="0 0 40 40"><title>Megaicons_work_32_1.8_cp</title><path d="M7.49,27l-.74,2.38,3.89,3.89L13,32.56a2.61,2.61,0,0,1,3.09,1.28L17.25,36h5.5l1.16-2.21A2.61,2.61,0,0,1,27,32.56l2.38.74,3.89-3.89L32.51,27A2.61,2.61,0,0,1,33.79,24L36,22.79V17.3l-2.21-1.16a2.61,2.61,0,0,1-1.28-3.09l.74-2.38L29.37,6.79,27,7.53A2.61,2.61,0,0,1,23.9,6.25L22.75,4h-5.5L16.1,6.25A2.61,2.61,0,0,1,13,7.53l-2.38-.74L6.74,10.68l.74,2.38a2.61,2.61,0,0,1-1.28,3.09L4,17.3v5.5L6.21,24A2.61,2.61,0,0,1,7.49,27ZM15,20a5,5,0,1,1,5,5A5,5,0,0,1,15,20Z"/></svg>