<svg viewBox="0 0 40 40" xmlns="http://www.w3.org/2000/svg">
<path d="M23.2568 3.99998L24.6556 5.35434L20.9888 8.90435L20.9882 12.6986L24.8763 10.0899L26.4255 10.9559L26.0394 15.4547L29.4015 13.5759L30.7436 8.72662L32.6543 9.22236L31.4627 13.5294L35.9112 14.6844L35.3993 16.5345L30.3906 15.2346L26.9622 17.1508L31.3019 19.1339V20.866L27.157 22.759L30.4797 24.6159L35.488 23.3167L35.9999 25.1668L31.5518 26.3211L32.743 30.6289L30.8323 31.1246L29.4906 26.2747L26.0216 24.3353L26.4255 29.044L24.8763 29.9101L20.9892 27.3002L20.9892 31.0956L24.6556 34.6456L23.2568 36L20.0001 32.8472L16.743 36L15.3443 34.6456L19.0111 31.0956L19.011 27.2993L15.1236 29.9101L13.5744 29.044L13.9757 24.3362L10.5103 26.2745L9.16757 31.1246L7.25684 30.6289L8.44827 26.3214L3.99994 25.1668L4.51192 23.3167L9.52039 24.6163L12.8412 22.7589L8.698 20.866V19.1339L13.0361 17.1508L9.60994 15.2354L4.60062 16.5345L4.08864 14.6844L8.53697 13.5298L7.34554 9.22235L9.25627 8.72661L10.5982 13.5762L13.9579 15.4547L13.5743 10.9559L15.1236 10.0899L19.0101 12.6995L19.0107 8.90435L15.3443 5.35435L16.743 3.99999L19.9997 7.15276L23.2568 3.99998ZM19.0101 21.5226L16.0607 23.1707L15.7181 27.1797L19.0101 24.9693V21.5226ZM20.9882 21.5216V24.9693L24.2804 27.1797L23.9376 23.1707L20.9882 21.5216ZM15.121 18.3153L11.4374 20L14.9252 21.5944L17.9547 19.9003L15.121 18.3153ZM24.8782 18.3153L22.0435 19.9003L25.0731 21.5935L28.5621 20L24.8782 18.3153ZM24.2804 12.8193L20.9882 15.0295V18.2789L23.9554 16.6202L24.2804 12.8193ZM15.7181 12.8193L16.0429 16.6202L19.0101 18.2789V15.0286L15.7181 12.8193Z"/>
</svg>
