<svg xmlns="http://www.w3.org/2000/svg" viewBox="0 0 90 40"><path d="M41.55 19h3v2h-3v3h-2v-3h-3v-2h3v-3h2Zm-37 1A6 6 0 0 1 15 16l6-3.74A6 6 0 1 1 22.07 14l-6 3.74a6 6 0 0 1 0 4.57l6 3.74A6 6 0 1 1 21 27.71L15 24a6 6 0 0 1-10.45-4Zm18 10a4 4 0 1 0 4-4 4 4 0 0 0-4 4Zm0-20a4 4 0 1 0 4-4 4 4 0 0 0-4 4Zm-16 10a4 4 0 1 0 4-4 4 4 0 0 0-4 4Zm76 0a16 16 0 0 1-23.64 14l-7 2-3.19-3.8 3-6.19a15.84 15.84 0 0 1-1.19-6 16 16 0 0 1 32 0Zm-2 0a14 14 0 1 0-26.8 5.66l.19.42-2.83 5.85 1.52 1.81 6.54-1.85.37.21a14 14 0 0 0 21-12.1Zm-20 4h8v-2h-8Zm0-6h12v-2h-12Z"/></svg>