<?xml version="1.0" encoding="utf-8"?>
<svg version="1.1" xmlns="http://www.w3.org/2000/svg" xmlns:xlink="http://www.w3.org/1999/xlink" x="0px" y="0px"
	 viewBox="0 0 40 40" style="enable-background:new 0 0 40 40;" xml:space="preserve">
<path d="M20,35.9999c8.83656,0,16-7.16344,16-16s-7.16344-16-16-16s-16,7.16344-16,16S11.16344,35.9999,20,35.9999z M20,33.9999
	c-7.73199,0-14-6.26801-14-14s6.26801-14,14-14s14,6.26801,14,14S27.73199,33.9999,20,33.9999z M10.36359,21.47782
	c0,0.48336,0.13144,0.86072,0.39432,1.13208c0.26288,0.27136,0.60632,0.40704,1.03032,0.40704
	c0.33072,0,0.60844-0.0954,0.83316-0.2862c0.22472-0.1908,0.33708-0.44308,0.33708-0.75684
	c0-0.17808-0.03604-0.3286-0.10812-0.45156s-0.1696-0.23108-0.29256-0.32436c-0.12296-0.09328-0.26924-0.17596-0.43884-0.24804
	c-0.1696-0.07208-0.35192-0.14628-0.54696-0.2226c-0.40704-0.15264-0.795-0.30528-1.16388-0.45792
	c-0.36888-0.15264-0.689-0.33708-0.96036-0.55332c-0.27136-0.21624-0.4876-0.477-0.64872-0.78228
	c-0.16112-0.30528-0.24168-0.68264-0.24168-1.13208c0-0.40704,0.08692-0.76744,0.26076-1.0812
	c0.17384-0.31376,0.40492-0.57664,0.69324-0.78864c0.28832-0.212,0.62116-0.371,0.99852-0.477
	c0.37736-0.106,0.76956-0.159,1.1766-0.159c0.52576,0,0.98792,0.07632,1.38648,0.22896
	c0.39856,0.15264,0.72928,0.3604,0.99216,0.62328c0.26288,0.26288,0.46004,0.56392,0.59148,0.90312
	c0.13144,0.3392,0.19716,0.6996,0.19716,1.0812h-2.06064c0-0.39856-0.0954-0.71232-0.2862-0.94128
	c-0.1908-0.22896-0.46428-0.34344-0.82044-0.34344c-0.2968,0-0.5512,0.07632-0.7632,0.22896s-0.318,0.3816-0.318,0.68688
	c0,0.2968,0.1166,0.53212,0.3498,0.70596c0.2332,0.17384,0.5406,0.3286,0.9222,0.46428c0.36464,0.1272,0.73352,0.265,1.10664,0.4134
	c0.37312,0.1484,0.70808,0.33072,1.00488,0.54696s0.5406,0.47912,0.7314,0.78864c0.1908,0.30952,0.2862,0.68476,0.2862,1.12572
	c0,0.45792-0.08268,0.86496-0.24804,1.22112c-0.16536,0.35616-0.39644,0.65508-0.69324,0.89676
	c-0.2968,0.24168-0.64872,0.424-1.05576,0.54696c-0.40704,0.12296-0.85648,0.18444-1.34832,0.18444
	c-0.47488,0-0.91796-0.06996-1.32924-0.20988c-0.41128-0.13992-0.76744-0.34556-1.06848-0.61692
	c-0.30104-0.27136-0.53636-0.6042-0.70596-0.99852c-0.1696-0.39432-0.2544-0.84588-0.2544-1.35468H10.36359z M20,24.65782
	c-0.73776,0-1.3992-0.12932-1.98432-0.38796c-0.58512-0.25864-1.0812-0.6042-1.48824-1.03668
	c-0.40704-0.43248-0.71656-0.93068-0.92856-1.4946s-0.318-1.15116-0.318-1.76172s0.106-1.1978,0.318-1.76172
	s0.52152-1.06212,0.92856-1.4946c0.40704-0.43248,0.90312-0.77804,1.48824-1.03668S19.26224,15.2959,20,15.2959
	s1.39708,0.12932,1.97796,0.38796s1.07484,0.6042,1.48188,1.03668c0.40704,0.43248,0.71656,0.93068,0.92856,1.4946
	c0.212,0.56392,0.318,1.15116,0.318,1.76172s-0.106,1.1978-0.318,1.76172c-0.212,0.56392-0.52152,1.06212-0.92856,1.4946
	c-0.40704,0.43248-0.901,0.77804-1.48188,1.03668C21.39708,24.5285,20.73776,24.65782,20,24.65782z M20,22.8007
	c0.40704,0,0.77168-0.07844,1.09392-0.23532c0.32224-0.15688,0.59572-0.36676,0.82044-0.62964
	c0.22472-0.26288,0.39644-0.56392,0.51516-0.90312c0.11872-0.3392,0.17808-0.69112,0.17808-1.05576
	s-0.05936-0.71656-0.17808-1.05576c-0.11872-0.3392-0.29044-0.64024-0.51516-0.90312
	c-0.22472-0.26288-0.4982-0.47276-0.82044-0.62964C20.77168,17.23146,20.40704,17.15302,20,17.15302
	s-0.77168,0.07844-1.09392,0.23532c-0.32224,0.15688-0.59572,0.36676-0.82044,0.62964
	c-0.22472,0.26288-0.39644,0.56392-0.51516,0.90312c-0.11872,0.3392-0.17808,0.69112-0.17808,1.05576
	s0.05936,0.71656,0.17808,1.05576c0.11872,0.3392,0.29044,0.64024,0.51516,0.90312c0.22472,0.26288,0.4982,0.47276,0.82044,0.62964
	C19.22832,22.72226,19.59296,22.8007,20,22.8007z M27.0308,21.47782c0,0.48336,0.13144,0.86072,0.39432,1.13208
	c0.26288,0.27136,0.60632,0.40704,1.03032,0.40704c0.33072,0,0.60844-0.0954,0.83316-0.2862
	c0.22472-0.1908,0.33708-0.44308,0.33708-0.75684c0-0.17808-0.03604-0.3286-0.10812-0.45156s-0.1696-0.23108-0.29256-0.32436
	c-0.12296-0.09328-0.26924-0.17596-0.43884-0.24804c-0.1696-0.07208-0.35192-0.14628-0.54696-0.2226
	c-0.40704-0.15264-0.795-0.30528-1.16388-0.45792c-0.36888-0.15264-0.689-0.33708-0.96036-0.55332
	c-0.27136-0.21624-0.4876-0.477-0.64872-0.78228c-0.16112-0.30528-0.24168-0.68264-0.24168-1.13208
	c0-0.40704,0.08692-0.76744,0.26076-1.0812c0.17384-0.31376,0.40492-0.57664,0.69324-0.78864
	c0.28832-0.212,0.62116-0.371,0.99852-0.477c0.37736-0.106,0.76956-0.159,1.1766-0.159c0.52576,0,0.98792,0.07632,1.38648,0.22896
	c0.39856,0.15264,0.72928,0.3604,0.99216,0.62328c0.26288,0.26288,0.46004,0.56392,0.59148,0.90312s0.19716,0.6996,0.19716,1.0812
	h-2.06064c0-0.39856-0.0954-0.71232-0.2862-0.94128c-0.1908-0.22896-0.46428-0.34344-0.82044-0.34344
	c-0.2968,0-0.5512,0.07632-0.7632,0.22896s-0.318,0.3816-0.318,0.68688c0,0.2968,0.1166,0.53212,0.3498,0.70596
	c0.2332,0.17384,0.5406,0.3286,0.9222,0.46428c0.36464,0.1272,0.73352,0.265,1.10664,0.4134
	c0.37312,0.1484,0.70808,0.33072,1.00488,0.54696c0.2968,0.21624,0.5406,0.47912,0.7314,0.78864
	c0.1908,0.30952,0.2862,0.68476,0.2862,1.12572c0,0.45792-0.08268,0.86496-0.24804,1.22112
	c-0.16536,0.35616-0.39644,0.65508-0.69324,0.89676c-0.2968,0.24168-0.64872,0.424-1.05576,0.54696
	s-0.85648,0.18444-1.34832,0.18444c-0.47488,0-0.91796-0.06996-1.32924-0.20988s-0.76744-0.34556-1.06848-0.61692
	c-0.30104-0.27136-0.53636-0.6042-0.70596-0.99852c-0.1696-0.39432-0.2544-0.84588-0.2544-1.35468H27.0308z"/>
</svg>
