<svg xmlns="http://www.w3.org/2000/svg" viewBox="0 0 40 40" style="enable-background:new 0 0 40 40" xml:space="preserve"><path d="M20 36c8.837 0 16-7.164 16-16S28.837 4 20 4 4 11.163 4 20s7.163 16 16 16zm0-2c-7.732 0-14-6.268-14-14S12.268 6 20 6s14 6.268 14 14-6.268 14-14 14zm-9.636-12.522c0 .483.131.86.394 1.132.263.271.606.407 1.03.407.331 0 .609-.095.833-.286a.944.944 0 0 0 .337-.757c0-.178-.036-.329-.108-.452s-.17-.23-.292-.324a2.05 2.05 0 0 0-.439-.248c-.17-.072-.352-.146-.547-.223a37.308 37.308 0 0 1-1.164-.458 3.96 3.96 0 0 1-.96-.553 2.456 2.456 0 0 1-.649-.782c-.161-.305-.242-.683-.242-1.132 0-.407.087-.768.261-1.081.174-.314.405-.577.693-.79a3.07 3.07 0 0 1 .999-.476 4.33 4.33 0 0 1 1.176-.16c.526 0 .988.077 1.387.23.399.152.73.36.992.623.263.263.46.564.592.903.131.34.197.7.197 1.081h-2.06c0-.398-.096-.712-.287-.94-.19-.23-.464-.344-.82-.344-.297 0-.552.076-.764.229s-.318.381-.318.687c0 .296.117.532.35.706.233.173.54.328.922.464.365.127.734.265 1.107.413.373.149.708.33 1.005.547s.54.48.731.789c.191.31.286.685.286 1.126 0 .457-.082.864-.248 1.22a2.494 2.494 0 0 1-.693.897 3.046 3.046 0 0 1-1.056.547 4.65 4.65 0 0 1-1.348.185 4.1 4.1 0 0 1-1.33-.21 3.034 3.034 0 0 1-1.068-.617 2.828 2.828 0 0 1-.706-.999 3.4 3.4 0 0 1-.254-1.354h2.06zM20 24.658c-.738 0-1.4-.13-1.984-.388a4.53 4.53 0 0 1-1.489-1.037c-.407-.432-.716-.93-.928-1.494s-.318-1.152-.318-1.762.106-1.198.318-1.762.521-1.062.928-1.494c.407-.433.904-.778 1.489-1.037s1.246-.388 1.984-.388 1.397.13 1.978.388 1.075.604 1.482 1.037c.407.432.716.93.928 1.494.212.564.318 1.151.318 1.762s-.106 1.198-.318 1.762a4.435 4.435 0 0 1-2.41 2.53c-.58.26-1.24.389-1.978.389zm0-1.857c.407 0 .772-.079 1.094-.236.322-.157.596-.366.82-.63.225-.262.397-.563.516-.902.118-.34.178-.692.178-1.056s-.06-.717-.178-1.056c-.12-.34-.29-.64-.516-.903a2.512 2.512 0 0 0-.82-.63c-.322-.157-.687-.235-1.094-.235s-.772.078-1.094.235a2.512 2.512 0 0 0-.82.63 2.798 2.798 0 0 0-.516.903c-.118.34-.178.691-.178 1.056s.06.716.178 1.056c.12.339.29.64.516.903.224.263.498.473.82.63.322.156.687.235 1.094.235zm7.03-1.323c0 .483.132.86.395 1.132.263.271.606.407 1.03.407.331 0 .609-.095.834-.286a.944.944 0 0 0 .337-.757c0-.178-.036-.329-.108-.452s-.17-.23-.293-.324a2.05 2.05 0 0 0-.439-.248c-.17-.072-.352-.146-.547-.223a37.308 37.308 0 0 1-1.164-.458 3.96 3.96 0 0 1-.96-.553 2.456 2.456 0 0 1-.649-.782c-.16-.305-.241-.683-.241-1.132 0-.407.086-.768.26-1.081.174-.314.405-.577.694-.79a3.07 3.07 0 0 1 .998-.476 4.33 4.33 0 0 1 1.177-.16c.525 0 .988.077 1.386.23.399.152.73.36.992.623.263.263.46.564.592.903s.197.7.197 1.081h-2.06c0-.398-.096-.712-.287-.94-.19-.23-.464-.344-.82-.344-.297 0-.552.076-.764.229s-.318.381-.318.687c0 .296.117.532.35.706.233.173.54.328.922.464.365.127.734.265 1.107.413.373.149.708.33 1.005.547.297.216.54.48.731.789.191.31.287.685.287 1.126 0 .457-.083.864-.248 1.22a2.494 2.494 0 0 1-.694.897c-.296.242-.648.424-1.055.547s-.857.185-1.349.185c-.475 0-.918-.07-1.329-.21s-.767-.346-1.068-.617a2.828 2.828 0 0 1-.706-.999 3.4 3.4 0 0 1-.255-1.354h2.06z"/></svg>