<svg viewBox="0 0 40 40" xmlns="http://www.w3.org/2000/svg">
    <path d="m5.41 36 6.94-2a16 16 0 1 0-7.18-8l-3.3 6.14L5.41 36ZM7.2 25.66A14 14 0 1 1 13 32.1l-.37-.21-6.58 1.86-1.74-1.9 3.09-5.74-.2-.45Z"/>
    <path fill-rule="evenodd" clip-rule="evenodd" d="m19.603 14.673-1.614 3.75-4.065.376 3.067 2.694-.898 3.983 3.51-2.084 3.51 2.084-.897-3.983 3.067-2.694-4.065-.377-1.615-3.75v.001Zm-2.982 1.867 2.064-4.791h1.837l2.063 4.791 5.195.482.567 1.747-3.919 3.443 1.147 5.09-1.486 1.079-4.486-2.663-4.485 2.663-1.486-1.08 1.147-5.089-3.92-3.443.568-1.747 5.194-.482Z"/>
</svg>
