<svg viewBox="0 0 40 40" xmlns="http://www.w3.org/2000/svg"><path fill-rule="evenodd" clip-rule="evenodd" d="M17 10C9.82 10 4 15.82 4 23s5.82 13 13 13 13-5.82 13-13c0-3.23-1.178-6.185-3.128-8.458L29.414 12H36v-2h-4.586l3.293-3.293-1.414-1.414L30 8.586V4h-2v6.586l-2.542 2.542A12.949 12.949 0 0 0 17 10Zm0 2c-6.075 0-11 4.925-11 11s4.925 11 11 11 11-4.925 11-11c0-2.677-.957-5.132-2.547-7.04l-3.562 3.563a6 6 0 1 1-1.414-1.414l3.562-3.562A10.956 10.956 0 0 0 17 12Zm0 7a4 4 0 1 0 3.446 1.968l-3.239 3.24-1.414-1.415 3.239-3.24A3.981 3.981 0 0 0 17 19Z"/></svg>
