<svg xmlns="http://www.w3.org/2000/svg" viewBox="0 0 40 40" style="enable-background:new 0 0 40 40" xml:space="preserve"><path d="M15.2 10h-.6C11 10 8 13 8 16.7v13.5c-1.6.6-2.4 2.3-1.8 3.8.6 1.6 2.3 2.4 3.8 1.8 1.6-.6 2.4-2.3 1.8-3.8-.3-.9-1-1.5-1.8-1.8V16.7c0-2.6 2.1-4.7 4.7-4.7h.5c2.6 0 4.7 2.1 4.8 4.7v11.6c0 3.7 3 6.7 6.7 6.7h.6c3.7 0 6.7-3 6.7-6.7V11.8c1.2-.4 2-1.5 2-2.8 0-1.7-1.3-3-3-3h-.1C31.3 6 30 7.3 30 8.9V9c0 1.3.8 2.4 2 2.8v16.5c0 2.6-2.1 4.7-4.7 4.7h-.6c-2.6 0-4.6-2.1-4.7-4.7V16.7c0-3.7-3-6.7-6.8-6.7.1 0 .1 0 0 0zM8.9 34c-.6 0-1-.4-1-1s.4-1 1-1 1 .4 1 1-.4 1-1 1z"/></svg>