<svg version="1.1" id="Слой_1" xmlns="http://www.w3.org/2000/svg" xmlns:xlink="http://www.w3.org/1999/xlink" x="0px" y="0px"
	 viewBox="0 0 40 40" style="enable-background:new 0 0 40 40;" xml:space="preserve">
<style type="text/css">
	.st0{fill-rule:evenodd;clip-rule:evenodd;}
</style>
<path d="M31.4,12c1.7,0,3.4,0.7,4.6,1.9s2,3,1.9,4.6v2.8c0,1.7-0.7,3.4-1.9,4.6s-2.9,2-4.6,2L8.6,28C6.9,28,5.2,27.3,4,26
	C2.7,24.8,2,23.1,2,21.4v-2.8C2,16.9,2.7,15.2,4,14C5.2,12.7,6.9,12,8.6,12H31.4z M31.4,10H8.6c-2.3,0-4.5,0.9-6.1,2.5
	C0.9,14.1,0,16.3,0,18.6v2.8c0,2.3,0.9,4.5,2.5,6.1C4.1,29.1,6.3,30,8.6,30h22.8c2.3,0,4.5-0.9,6.1-2.5c1.6-1.6,2.5-3.8,2.5-6.1
	v-2.8c0-2.3-0.9-4.5-2.5-6.1C35.9,10.9,33.7,10,31.4,10z"/>
<path class="st0" d="M15.8,24L15.8,24c-1.7,0-2.9-1.1-2.9-2.9c0,0,0,0,0-0.1c0-1.8,1.3-3,2.9-3c1.7,0,2.9,1.2,2.9,3c0,0,0,0,0,0
	C18.7,22.9,17.4,24,15.8,24z M15.8,22.5L15.8,22.5c0.7,0,1.1-0.5,1.1-1.5c0,0,0,0,0,0c0-0.9-0.4-1.6-1.1-1.6c-0.7,0-1.1,0.6-1.1,1.6
	c0,0,0,0,0,0.1C14.8,22,15.1,22.5,15.8,22.5z"/>
<path class="st0" d="M8.6,24h1.7l2.6-8h-1.7l-1.7,6l-1.7-6H6L8.6,24z"/>
<path class="st0" d="M21.2,16h-1.7v8h4.3v-2h-2.6V16z M29.7,24H34v-2h-2.6v-1H34v-2h-2.6v-1H34v-2h-4.3V24z M28.8,18v-2h-5.1v2h1.7
	v6h1.7v-6H28.8z"/>
</svg>
