<svg version="1.1" id="Слой_1" xmlns="http://www.w3.org/2000/svg" x="0" y="0" viewBox="0 0 40 40" style="enable-background:new 0 0 40 40" xml:space="preserve"><style>.st0{fill-rule:evenodd;clip-rule:evenodd}</style><path d="M31.4 12c1.7 0 3.4.7 4.6 1.9s2 3 1.9 4.6v2.8c0 1.7-.7 3.4-1.9 4.6s-2.9 2-4.6 2L8.6 28c-1.7 0-3.4-.7-4.6-2-1.3-1.2-2-2.9-2-4.6v-2.8c0-1.7.7-3.4 2-4.6 1.2-1.3 2.9-2 4.6-2h22.8zm0-2H8.6c-2.3 0-4.5.9-6.1 2.5C.9 14.1 0 16.3 0 18.6v2.8c0 2.3.9 4.5 2.5 6.1C4.1 29.1 6.3 30 8.6 30h22.8c2.3 0 4.5-.9 6.1-2.5 1.6-1.6 2.5-3.8 2.5-6.1v-2.8c0-2.3-.9-4.5-2.5-6.1-1.6-1.6-3.8-2.5-6.1-2.5z"/><path class="st0" d="M15.8 24c-1.7 0-2.9-1.1-2.9-2.9V21c0-1.8 1.3-3 2.9-3 1.7 0 2.9 1.2 2.9 3 0 1.9-1.3 3-2.9 3zm0-1.5c.7 0 1.1-.5 1.1-1.5 0-.9-.4-1.6-1.1-1.6-.7 0-1.1.6-1.1 1.6v.1c.1.9.4 1.4 1.1 1.4zM8.6 24h1.7l2.6-8h-1.7l-1.7 6-1.7-6H6l2.6 8zM21.2 16h-1.7v8h4.3v-2h-2.6v-6zm8.5 8H34v-2h-2.6v-1H34v-2h-2.6v-1H34v-2h-4.3v8zm-.9-6v-2h-5.1v2h1.7v6h1.7v-6h1.7z"/></svg>