<svg xmlns="http://www.w3.org/2000/svg" viewBox="0 0 40 40" style="enable-background:new 0 0 40 40" xml:space="preserve"><path d="M15.977 23v-2H14v-2h1.977v-8H22a5 5 0 0 1 0 10h-4.023v2H24v2h-6.023v2.977h-2V25H14v-2h1.977zm.68 13-.27-.21A24.312 24.312 0 0 1 7 16.597V7.767l.45-.297C10.691 5.33 15.62 4 20 4c4.378 0 9.309 1.33 12.55 3.47l.45.297v8.831a24.312 24.312 0 0 1-9.386 19.191l-.27.211h-6.687zM9 16.598A22.312 22.312 0 0 0 17.347 34h5.306A22.312 22.312 0 0 0 31 16.598V8.856C28.096 7.106 23.803 6 20 6S11.904 7.106 9 8.856v7.742zM17.977 19H22a3 3 0 0 0 0-6h-4.023v6z"/></svg>