<?xml version="1.0" encoding="utf-8"?>
<svg version="1.1" id="Слой_1" xmlns="http://www.w3.org/2000/svg" xmlns:xlink="http://www.w3.org/1999/xlink" x="0px" y="0px"
	 viewBox="0 0 40 40" style="enable-background:new 0 0 40 40;" xml:space="preserve">
<path id="Shape" d="M15.9766,23v-2.0004h-1.977v-2h1.977v-8h6.023c2.76129,0,5,2.23872,5,5s-2.23871,5-5,5h-4.023V23H24v2h-6.0234
	v2.9766h-2V25H14v-2H15.9766z M16.65689,36l-0.27083-0.21065C10.46366,31.18304,7,24.10083,7,16.598V7.76689l0.44909-0.29645
	C10.69173,5.32991,15.62143,4,20,4c4.37794,0,9.30851,1.33006,12.55091,3.47044L33,7.76689V16.598
	c0,7.50283-3.46366,14.58504-9.38606,19.19135L23.34311,36H16.65689z M9,16.598C9,23.37029,12.07491,29.76912,17.34731,34h5.30537
	C27.92509,29.76912,31,23.37029,31,16.598V8.85645C28.09573,7.10656,23.80257,6,20,6c-3.80319,0-8.09559,1.10642-11,2.85644V16.598z
	 M17.9766,18.9996h4.023c1.65672,0,3-1.34328,3-3s-1.34328-3-3-3h-4.023V18.9996z"/>
</svg>
