<svg version="1.2" baseProfile="tiny" xmlns="http://www.w3.org/2000/svg" viewBox="0 0 40 40" xml:space="preserve"><path d="M30.9 8.1c-6.2-5.7-16.2-5.4-22.2.5C5.7 11.7 4 15.7 4 20h2c0-3.8 1.5-7.3 4.1-10 5.2-5.2 13.9-5.4 19.4-.4 2.9 2.6 4.5 6.2 4.6 10.1s-1.4 7.5-4.1 10.2c-2.6 2.6-6.2 4.1-10 4.1-3 0-5.9-1-8.3-2.7l4.6-1.5 12-12c1.7-1.7 1.7-4.5 0-6.2-.8-.8-1.9-1.3-3.1-1.3-1.2 0-2.3.5-3.1 1.3l-12 12-2.2 6.9.7.8c3 3 7 4.7 11.3 4.7s8.3-1.7 11.3-4.7c3.1-3.1 4.8-7.3 4.7-11.7.1-4.4-1.8-8.5-5-11.5zM23.6 13c.9-.9 2.5-.9 3.4 0 .9.9.9 2.5 0 3.4l-1.4 1.4-3.4-3.4 1.4-1.4zM11.9 24.7l8.8-8.8 3.4 3.4-8.8 8.8-5 1.6 1.6-5z"/></svg>