<?xml version="1.0" encoding="utf-8"?>
<!-- Generator: Adobe Illustrator 23.0.1, SVG Export Plug-In . SVG Version: 6.00 Build 0)  -->
<svg version="1.2" baseProfile="tiny" id="Layer_1" xmlns="http://www.w3.org/2000/svg" xmlns:xlink="http://www.w3.org/1999/xlink"
	 x="0px" y="0px" viewBox="0 0 40 40" xml:space="preserve">
<path d="M30.9,8.1C24.7,2.4,14.7,2.7,8.7,8.6C5.7,11.7,4,15.7,4,20h2c0-3.8,1.5-7.3,4.1-10c5.2-5.2,13.9-5.4,19.4-0.4
	c2.9,2.6,4.5,6.2,4.6,10.1s-1.4,7.5-4.1,10.2C27.4,32.5,23.8,34,20,34c-3,0-5.9-1-8.3-2.7l4.6-1.5l12-12c1.7-1.7,1.7-4.5,0-6.2
	c-0.8-0.8-1.9-1.3-3.1-1.3c-1.2,0-2.3,0.5-3.1,1.3l-12,12l-2.2,6.9l0.7,0.8c3,3,7,4.7,11.3,4.7s8.3-1.7,11.3-4.7
	c3.1-3.1,4.8-7.3,4.7-11.7C36,15.2,34.1,11.1,30.9,8.1z M23.6,13c0.9-0.9,2.5-0.9,3.4,0c0.9,0.9,0.9,2.5,0,3.4l-1.4,1.4l-3.4-3.4
	L23.6,13z M11.9,24.7l8.8-8.8l3.4,3.4l-8.8,8.8l-5,1.6L11.9,24.7z"/>
</svg>
