<?xml version="1.0" encoding="UTF-8"?>
<svg viewBox="0 0 40 40" version="1.1" xmlns="http://www.w3.org/2000/svg" xmlns:xlink="http://www.w3.org/1999/xlink">
    <!-- Generator: Sketch 51.2 (57519) - http://www.bohemiancoding.com/sketch -->
    <title>Source/System Icons/32/Banner-happy-face_32</title>
    <desc>Created with Sketch.</desc>
    <defs>
        <path d="M20,36 C11.1619048,36 4,28.8380952 4,20 C4,11.1619048 11.1619048,4 20,4 C28.8380952,4 36,11.1619048 36,20 C36,28.8380952 28.8380952,36 20,36 Z M26.8571429,25.1238095 L25.9047619,23.2380952 L14.0952381,23.2380952 L13.1428571,25.1238095 C15.1809524,27.847619 17.2952381,29.1428571 20,29.1428571 C22.7047619,29.1428571 24.8190476,27.847619 26.8571429,25.1238095 Z M13.9047619,17.7142857 C15.1619048,17.7142857 16.1904762,16.6857143 16.1904762,15.4285714 C16.1904762,14.1714286 15.1619048,13.1428571 13.9047619,13.1428571 C12.647619,13.1428571 11.6190476,14.1714286 11.6190476,15.4285714 C11.6190476,16.6857143 12.647619,17.7142857 13.9047619,17.7142857 Z M26.0952381,17.7142857 C27.352381,17.7142857 28.3809524,16.6857143 28.3809524,15.4285714 C28.3809524,14.1714286 27.352381,13.1428571 26.0952381,13.1428571 C24.8380952,13.1428571 23.8095238,14.1714286 23.8095238,15.4285714 C23.8095238,16.6857143 24.8380952,17.7142857 26.0952381,17.7142857 Z" id="path-1"></path>
    </defs>
    <g id="Source/System-Icons/32/Banner-happy-face_32" stroke="none" stroke-width="1" fill="none" fill-rule="evenodd">
        <mask id="mask-2" fill="white">
            <use xlink:href="#path-1"></use>
        </mask>
        <use id="Shape" fill="#000000" fill-rule="nonzero" xlink:href="#path-1"></use>
        <g id="Colors/Basic/Fresh-Asphalt" mask="url(#mask-2)" fill="#000000">
            <rect id="Rectangle" x="0" y="0" width="40" height="40"></rect>
        </g>
    </g>
</svg>