<?xml version="1.0" encoding="utf-8"?>
<!-- Generator: Adobe Illustrator 22.1.0, SVG Export Plug-In . SVG Version: 6.00 Build 0)  -->
<svg version="1.1" id="Слой_1" xmlns="http://www.w3.org/2000/svg" xmlns:xlink="http://www.w3.org/1999/xlink" x="0px" y="0px"
	 viewBox="0 0 40 40" style="enable-background:new 0 0 40 40;" xml:space="preserve">
<title>Source/System Icons/32/Info_32</title>
<desc>Created with Sketch.</desc>
<g>
	<defs>
		<path id="SVGID_1_" d="M20,36c-8.8,0-16-7.2-16-16S11.2,4,20,4s16,7.2,16,16S28.8,36,20,36z M20,14.5c-0.3,0-0.8-0.1-1-0.5
			c-0.3-0.3-0.5-0.6-0.5-1s0.1-0.8,0.5-1c0.3-0.3,0.8-0.5,1-0.5s0.8,0.1,1,0.5c0.3,0.3,0.5,0.6,0.5,1s-0.1,0.8-0.5,1
			C20.9,14.4,20.5,14.5,20,14.5z M19,29h2V17h-2V29z"/>
	</defs>
	<use xlink:href="#SVGID_1_"  style="overflow:visible;fill-rule:evenodd;clip-rule:evenodd;"/>
	<clipPath id="SVGID_2_">
		<use xlink:href="#SVGID_1_"  style="overflow:visible;"/>
	</clipPath>
</g>
</svg>
