<?xml version="1.0" encoding="UTF-8"?>
<svg viewBox="0 0 40 40" version="1.1" xmlns="http://www.w3.org/2000/svg" xmlns:xlink="http://www.w3.org/1999/xlink">
    <!-- Generator: Sketch 51.2 (57519) - http://www.bohemiancoding.com/sketch -->
    <title>Source/System Icons/32/Rating_2_32</title>
    <desc>Created with Sketch.</desc>
    <defs>
        <path d="M25.7,25.3 C24.1,23.7 22.4,23 20,23 C17.6,23 15.9,23.7 14.3,25.3 L15.7,26.7 C16.9,25.5 18.1,25 20,25 C21.9,25 23,25.5 24.3,26.7 C24.3,26.7 25.7,25.3 25.7,25.3 Z M15,14 C16.1,14 17,14.9 17,16 C17,17.1 16.1,18 15,18 C13.9,18 13,17.1 13,16 C13,14.9 13.9,14 15,14 Z M25,14 C26.1,14 27,14.9 27,16 C27,17.1 26.1,18 25,18 C23.9,18 23,17.1 23,16 C23,14.9 23.9,14 25,14 Z M20,36 C11.2,36 4,28.8 4,20 C4,11.2 11.2,4 20,4 C28.8,4 36,11.2 36,20 C36,28.8 28.8,36 20,36 Z M20,34 C27.7,34 34,27.7 34,20 C34,12.3 27.7,6 20,6 C12.3,6 6,12.3 6,20 C6,27.7 12.3,34 20,34 Z" id="path-1"></path>
    </defs>
    <g id="Source/System-Icons/32/Rating_2_32" stroke="none" stroke-width="1" fill="none" fill-rule="evenodd">
        <mask id="mask-2" fill="white">
            <use xlink:href="#path-1"></use>
        </mask>
        <use id="Shape" fill="#000000" fill-rule="nonzero" xlink:href="#path-1"></use>
        <g id="Colors/Basic/Fresh-Asphalt" mask="url(#mask-2)" fill="#000000">
            <rect id="Rectangle" x="0" y="0" width="40" height="40"></rect>
        </g>
    </g>
</svg>