<?xml version="1.0" encoding="utf-8"?>
<!-- Generator: Adobe Illustrator 22.1.0, SVG Export Plug-In . SVG Version: 6.00 Build 0)  -->
<svg version="1.1" id="Layer_1" xmlns="http://www.w3.org/2000/svg" xmlns:xlink="http://www.w3.org/1999/xlink" x="0px" y="0px"
	 viewBox="0 0 32 32" style="enable-background:new 0 0 32 32;" xml:space="preserve">
<path d="M11.1,27.5c-0.5-0.3-0.9-0.7-1.2-1.1c-0.4-0.5-0.7-1-1.1-1.5C8,23.8,7.4,22.6,7,21.3c-0.5-1.5-0.7-2.9-0.7-4.3
	c0-1.6,0.3-2.9,1-4.1c0.5-0.9,1.2-1.7,2.1-2.2c0.8-0.5,1.8-0.8,2.8-0.8c0.4,0,0.7,0.1,1.1,0.2c0.3,0.1,0.6,0.2,1.1,0.4
	c0.6,0.2,0.9,0.3,0.9,0.4c0.3,0.1,0.6,0.2,0.8,0.2c0.2,0,0.4-0.1,0.6-0.1c0.1,0,0.4-0.1,0.8-0.3c0.4-0.1,0.7-0.3,0.9-0.4
	c0.4-0.1,0.7-0.2,1.1-0.3c0.4-0.1,0.8-0.1,1.1-0.1c0.7,0.1,1.4,0.2,1.9,0.4c1,0.4,1.8,1.1,2.5,2c-0.3,0.2-0.5,0.3-0.7,0.6
	c-0.5,0.4-0.9,0.9-1.2,1.5c-0.4,0.8-0.6,1.6-0.6,2.5c0,1.1,0.3,2,0.8,2.9c0.4,0.6,0.9,1.1,1.5,1.5c0.3,0.2,0.6,0.4,0.8,0.5
	c-0.1,0.4-0.3,0.7-0.4,1.1c-0.3,0.8-0.8,1.6-1.2,2.3c-0.4,0.6-0.8,1.1-1,1.4c-0.4,0.5-0.8,0.8-1.2,1.1c-0.4,0.3-0.9,0.4-1.5,0.4
	c-0.4,0-0.7,0-1-0.1c-0.3-0.1-0.6-0.2-0.9-0.3c-0.3-0.1-0.6-0.2-0.9-0.3c-0.4-0.1-0.8-0.1-1.2-0.1c-0.4,0-0.8,0-1.2,0.1
	c-0.3,0.1-0.6,0.2-0.9,0.3c-0.4,0.2-0.7,0.3-0.9,0.3c-0.3,0.1-0.7,0.2-1,0.2C12,28,11.5,27.9,11.1,27.5L11.1,27.5z M17.9,9.1
	c-0.7,0.3-1.3,0.5-2,0.4c-0.1-0.6,0-1.3,0.3-2c0.2-0.6,0.6-1.2,1-1.7c0.5-0.5,1-0.9,1.6-1.3C19.5,4.2,20.1,4,20.7,4
	c0.1,0.7,0,1.3-0.2,2.1c-0.2,0.6-0.6,1.2-1,1.8C19.1,8.3,18.5,8.8,17.9,9.1L17.9,9.1z"/>
</svg>
