<svg xmlns="http://www.w3.org/2000/svg" viewBox="0 0 32 32"><defs><style>.cls-1{fill:none;}.cls-2{fill:#fff;}.cls-3{clip-path:url(#clip-path);}.cls-4{fill:#558cb7;fill-rule:evenodd;}</style><clipPath id="clip-path"><rect class="cls-1" x="8" y="7" width="19" height="20"/></clipPath></defs><path class="cls-2" d="M16,28A12,12,0,1,1,28,16,12,12,0,0,1,16,28Z"/><g class="cls-3"><path class="cls-4" d="M8.49,14.75l.14.21c-.28,0-.57,0-.63-.16v0A1.56,1.56,0,0,1,8.49,14.75Zm1.5.64c0,.07,0,.14.07.21H9.9c0-.07,0-.14,0-.21Zm.54,1.52a1.11,1.11,0,0,0-.33.41.75.75,0,0,1-.21-.5c0-.23-.06-.48-.09-.68V16h.16l.42.79ZM10.32,15l.06-.36a.17.17,0,0,1,0-.07h0ZM10.21,13l.75.21v0c-.35.26-.67.37-.84.84,0-.35,0-.7.07-1Zm.7-1.07a2.23,2.23,0,0,0,.1,1c.13.1.19.16.14.3a1.48,1.48,0,0,0-.8-.21l0,0a4.91,4.91,0,0,1,.43-.92ZM12,11.3h0a9.42,9.42,0,0,1-.32,1.51c-.43-.21-.42-1.08.06-1.43Zm-.4,2.64.36.4a11.38,11.38,0,0,0-.52,1.26h-.21c-.18-.51.27-1.34.35-1.71l.33,0,.12.31Zm1-2.64a5.5,5.5,0,0,0,.08,1l-.63.32a4.22,4.22,0,0,1,.31-1.27Zm.25-.64h0c0,.06,0,.13-.08.2h-.14a.69.69,0,0,0,.11-.13Zm0,2-.64.39a.93.93,0,0,1,.57-.64l.05,0C12.85,12.48,12.85,12.56,12.86,12.63Zm.42-1.48-.12.65-.11.08A.23.23,0,0,0,13,12a1.73,1.73,0,0,1-.12-.86Zm.42-.49v0l-.16.15a.45.45,0,0,1-.26,0l.06-.21Zm.42-.86-.19.43-.65-.05v0A4,4,0,0,1,14.12,9.8Zm-.34,1.11.07,0,.06.22L13.7,11Zm.55.64c-.25.1-.6.07-.8.18,0-.09,0-.17,0-.26l.13-.17.64.25Zm-.54.39h-.28a.29.29,0,0,1,0-.09,3.22,3.22,0,0,1,.84-.13l-.32.18Zm.75,0a1.47,1.47,0,0,0-.63.44c0-.2.34-.54.52-.65C14.51,11.8,14.52,11.79,14.54,11.94ZM15,9.37v0l-.25.15-.38,0v0Zm-.34.64-.09-.12c.19-.16.62-.07.85-.05Zm1.88-.63a2.08,2.08,0,0,1,.92.26h.07l0,.06-.34.1-.61-.09-1.33-.19v0A4.31,4.31,0,0,1,16.51,9.38Zm1.41-.12-.08.11a1.05,1.05,0,0,1-.55-.22l.63.08Zm1.12.8.18-.07.18.16c0,.18-.2.33-.33.5H19a2.26,2.26,0,0,0-1.23-1.14l0,0,.25-.1c.41.14.76.36,1.14.49C19.15,10,19.13,9.94,19,10.06Zm.51,1L19.5,11h-.1l.17-.17A1.49,1.49,0,0,1,19.55,11.08Zm.19,2.37A1,1,0,0,1,20,14.53c-.12-.28-.25-.56-.37-.83l.12-.19S19.74,13.47,19.74,13.45Zm.08-1.93v0l-.15.17-.06-.11c.09-.17,0-.08.14-.1Zm.18,0,.67.25s0,0,0,.06l-.17.12-.67-.25v-.07Zm1.3.86-.37-.25-.05-.1c.16-.1.14-.1.31-.06S21.26,12.24,21.3,12.38Zm.21-.09-.07.09c-.09-.05-.11-.11-.14-.22l.19.09Zm-.16-.61H21.3l.18-.16A1,1,0,0,0,21.35,11.68Zm1,1.08-.11.05-.56-.32-.18-.24c.29-.22.3,0,.58.17Zm.21.19-.21-.08.12-.06Zm-.26.35c.08.15.08.11.26.09l-.33.28c-.1-.2-.2-.4-.31-.6v0c.22,0,.3,0,.52.06l.09.14Zm.05.38.42-.23a1.59,1.59,0,0,1-.33.43Zm.84.82a.54.54,0,0,1-.41.15l.18,0v0l-.6.26c0-.26,0-.51,0-.77l.41-.49.07,0ZM23,13.33c1.16-.33.94.29.42.77Zm1.05.12c-.43,2-.51,2.14-2,3l-.08-.12.06-.22a1.76,1.76,0,0,0,1.49-2l.5-.64Zm.06,0L24,13.24h.16Zm-2.59,2c0-.07,0-.15,0-.22a1.21,1.21,0,0,1,0-.19l.15,0h0a1.05,1.05,0,0,1-.09.64C21.55,15.56,21.54,15.54,21.51,15.42Zm-.84,1.89v0c.09-.22.18-.45.28-.67l.06-.14.48,0a.36.36,0,0,1,0,.1,1.71,1.71,0,0,1-.16.72Zm.21.86v-.42l.36,0h.05l-.24.4Zm-.21-1.39h0l.17-.09h0l0,.09c0,.11-.06.22-.1.34,0-.1-.05-.2-.08-.31Zm-.33,1.07a.94.94,0,0,0-.1-.1C20.34,17.82,20.28,17.75,20.34,17.85Zm-.52-.26a.8.8,0,0,1,.42-.05.84.84,0,0,1,0,.17c-.14.06-.16,0-.33,0A1,1,0,0,0,19.82,17.59Zm.26.81c.06.13.11.26.16.39l-.37.25A.51.51,0,0,1,20.08,18.4Zm-.42-1.35h-.05c0-.05.05-.1.07-.16A.88.88,0,0,1,19.66,17.05Zm.61.06,0,0a1.86,1.86,0,0,0,.1-.2h0l.09.21Zm1.46-2.8a.17.17,0,0,0,0-.07.34.34,0,0,1,.19-.14.5.5,0,0,1,0,.12l-.12.09Zm0,.53a.88.88,0,0,1-.15.12l-.06-1.08Zm-.39,1.44c.14-.08.16,0,.18.18h-.42V16.4Zm-.2-.6.09-.08.08.14,0,.08-.17,0A.56.56,0,0,1,21.13,15.68Zm0,.57-.22.21-.14,0h-.06l.1-.19Zm-.8-.12c-.09-.06,0-.05,0-.1Zm.67-1-.72-.37a9,9,0,0,0,.05-1.56A1.48,1.48,0,0,1,21,15.17Zm-.5,0c.17.09.16.18.4.26.05.15,0,.22-.12.39h-.26C20.43,15.52,20.49,15.36,20.46,15.17Zm0,1.39c-.08-.06,0,0,0-.1Zm1.43-2.07v0l.19-.14a3.16,3.16,0,0,1,0,.86C22,15.08,22,14.71,21.93,14.49Zm0,.68a2.39,2.39,0,0,0,.13-.21l-.07.21Zm1.23-.64h0c0,.82-.5,1-1.16,1.28h-.11l.42-.87Zm-1.25-1.61,0,.06-.05,0-.16-.21A1.18,1.18,0,0,1,21.91,12.92Zm-.19.36a.08.08,0,0,0,0,0h0l.16.21A.4.4,0,0,1,21.72,13.28Zm.21.55-.28.27L21,13.21l-.8-.7.18-.13c.38.16,1,.48,1.19.88,0,.13-.11.23,0,.34S21.85,13.64,21.93,13.83Zm-1.78,1.34.07,0c0,.2,0,.41,0,.62l-.09,0a.52.52,0,0,1-.08-.52Zm-.47,1.08h.07a.87.87,0,0,1,.07.17l-.11,0h-.1A1.72,1.72,0,0,0,19.68,16.25Zm-.19,3.44-.09-.32.39-.11h0v0Zm-.3-.86a.4.4,0,0,1,.14-.22l.05,0,0,.05-.13.13Zm.1.21-.1-.11.21-.1a1.6,1.6,0,0,0,0,.21Zm-.22,1L19,20H19l.33-.25,0,.26-.25.17Zm0,2.46a8.52,8.52,0,0,1-1.23-.14c-.15-.32-.31-.63-.47-.95l-.09-.09a5.88,5.88,0,0,0,1.89-.75c.21.2.68,1.22.26,1.67C19.35,22.37,19.23,22.39,19.08,22.48ZM16.9,21.42h.19a1.93,1.93,0,0,1,.62.86L16.87,22A1,1,0,0,0,16.9,21.42Zm-.61-.81.95-.28,1.5.15,0,.08c-.45.2-1,.37-1.47.63-.55,0-.68-.17-1.07-.3Zm-.06,1a1.1,1.1,0,0,0,0-.18l.37,0a.78.78,0,0,1,0,.43Zm-.42.34.14-.08c.18-.12.31,0,.49.1l-.07.07Zm.41-.34-.14-.06L16,21.41h.21A1.27,1.27,0,0,1,16.22,21.62Zm-.62,0,.21.19a1.2,1.2,0,0,1,0,.24Zm-.55-.8a3.34,3.34,0,0,1,.76-.06l-.27.22L15,20.92ZM14.54,10a1.54,1.54,0,0,1,1.63,0h.06c-.32.31-.83.34-1.14.65C14.84,10.49,14.64,10.39,14.54,10Zm2.16.62.17.19a3.55,3.55,0,0,0-.46,0,2.78,2.78,0,0,0-.94.2h0l0-.09a3,3,0,0,1,1-.32l.26,0Zm.82-1.08c.28.28.68.44.82.86-.57-.27-1.45-.26-1.9-.69A1.33,1.33,0,0,0,17.52,9.58Zm.19,1.51.78.1h.07l-.63.54C17.83,11.53,17.81,11.26,17.71,11.09Zm1,.92-.16,0,.21,0Zm-.16-.52c.06-.06.12-.13.19-.19s0,.14,0,.22l-.14,0Zm.38,7.12h-.09l-.08-.07.06-.08L19,18.4A1.55,1.55,0,0,0,18.94,18.61Zm-.17.39.08-.09v-.08A2.14,2.14,0,0,1,19,19l-.21,0Zm-.08.69a1.83,1.83,0,0,1-.13-.16l.42-.06-.2.21Zm.08.64-.43,0,.3-.16Zm-.3-.6.09.08-.31.08h-.33l.46-.21Zm-1.18-9.29a.88.88,0,0,1,.63.22c-.17,0-.47,0-.55-.13Zm.21.86a.43.43,0,0,1,.14.43C17.46,11.67,17.51,11.46,17.5,11.3Zm.21,1.36v0c.42-.09.51.05.32.19A.73.73,0,0,1,17.71,12.66Zm.54,5.52.09,0v0l-.21.16.09-.21Zm-.11-5.24.15-.13a1.6,1.6,0,0,1,.05.21l-.21,0Zm.63,5.75-.51.13h-.13v0a.83.83,0,0,0,.42-.2l.18,0Zm-.37-.51-.06-.12.15-.09.07,0-.09.18Zm-1.32,1.49.25-.2.78.07,0,.06-.52.3a.81.81,0,0,1-.47-.23Zm-.39,0,.39.21-.64-.11Zm0,.44v.05l-.12.07h-.09v-.05C16.54,20.08,16.52,20.12,16.66,20.13Zm-1-8.76-.06-.06a2.54,2.54,0,0,1,.87-.2c.26,0,.53,0,.72,0,0,.21.06.43.1.64-.28,0-.54-.07-.82-.08a4.77,4.77,0,0,0-.74,0C15.71,11.58,15.68,11.48,15.66,11.37ZM16,20l0,.1,0,.19-.58,0a1.34,1.34,0,0,1,.26-.43Zm-.72-.74a.92.92,0,0,1-.71-.43l.85.21Zm.3,0h-.16v-.05l.18-.17A1.49,1.49,0,0,0,15.55,19.25ZM15,11.38l.25-.08.17.21h-.17Zm0,9.24,0,.14h-.06l-.1-.21.21,0Zm.12-.93.49.1,0,.07c-.13.15-.25.31-.38.47l-.46-.07C14.86,20.07,15,19.88,15.08,19.69ZM18.77,13l.09-.14h0l.26.06,0,0-.3.11Zm.57-.7-.15-.09C19.34,12.22,19.25,12.15,19.34,12.25Zm-.05,1-.1-.09L19.4,13Zm-.1,1.5.33.08c.09,0,.08,0,.09.14C19.47,14.9,19.23,14.87,19.19,14.74Zm0-.58.05-.06.13.21-.21,0Zm-4.28,7.07,0,.06-.29.11h-.14v0l.09-.15C14.78,21.16,14.78,21.2,14.94,21.23Zm-.61-10.79c.19.14.23.31.21.86A1.66,1.66,0,0,1,14.33,10.44Zm.12-.43v.16h-.11Zm-.12.22s0,.1,0,.15l-.2,0a.91.91,0,0,0,.16-.11Zm0,12.47c0-.37.07-.73.11-1.1l.74-.19-.78,1.25Zm.06-2.94.11-.07c.1.12,0,.3-.09.43-.08-.08-.09-.13-.07-.3Zm-.69-.11.24-.39.39.23c-.13.21-.26.42-.4.63A.78.78,0,0,1,13.7,19.65Zm0,1.69.39-.36.18,0,.06.1c0,.1,0,.2,0,.31Zm-.63-.3.46-.28.35.06,0,.05-.37.32a.74.74,0,0,1-.41-.15ZM13,20.63l.16-.08h.08l0,0-.49.16-.15-.05Zm-.58-.2.13-.31c.23,0,.28.09.46.16a.35.35,0,0,0,.05.08l-.26.17-.21,0Zm-.42.88.31-.55c.2,0,.23,0,.31.13s0,0-.08,0,0,.13,0,.19l.32.05a.57.57,0,0,1-.17.24A2.12,2.12,0,0,1,12,21.31Zm-.35-.76.53.16,0,.07-.34.41-.5-.16C11.47,20.87,11.56,20.71,11.66,20.55ZM9.59,20V19.9l.3.24,0,.06c-.62.48.33,2.05,1.41,1l.47.19a1.82,1.82,0,0,1-.81.63C10.21,22.12,9.13,20.84,9.59,20Zm.72.22s0,.09,0,.14l-.17-.13,0-.08Zm1.07.91-.39.3c-.76.08-1.07-.45-1.09-1.1l.15-.18h.06a4.22,4.22,0,0,0,1.24.92ZM10.64,18c-.07,0-.07-.08-.11-.16l.15-.55.17-.15.11.16C10.85,17.5,10.75,17.73,10.64,18Zm-.11.18c.11-.26.23-.52.34-.79l.06,0c.16.27.38.4.45.77l-.5.52A1,1,0,0,1,10.53,18.15Zm.64.66.42-.41.21.43Zm1.05-4.34c-.2.43-.46.72-.62,1.13-.07-.38.35-.92.48-1.25l.07,0Zm0-1.19a1.81,1.81,0,0,0,.75-.47l.1.28-.27.36Zm1.06,0-.12.15h-.09v0l.19-.17Zm-.17-.92h0l.14.28a.88.88,0,0,0,0,.15C13,12.7,13,12.58,13.11,12.38Zm0,6.23.2.14-.2-.08Zm0,.22.21.09v0l-.44.32c-.13-.06-.15-.18-.19-.3v0Zm-.63-.43.2.08-.1.06h-.11A.76.76,0,0,0,12.44,18.4Zm0-4.3c.26.07.18,0,.19.21A.39.39,0,0,1,12.43,14.1Zm0,3.84a1.23,1.23,0,0,0,0-.19.51.51,0,0,1,.19.22Zm.43-2.69c-.08.11-.08.08-.22.14a2.14,2.14,0,0,0,.1-.22Zm0-.86-.14.14c-.13-.08-.07,0,0-.19l.08,0Zm0-.37-.2-.14C12.79,13.94,12.76,13.9,12.84,14ZM12.43,18l.21.17A.21.21,0,0,1,12.43,18Zm.64,0H13s-.05-.09-.07-.14l-.05-.07H13A2,2,0,0,0,13.07,18ZM13,14l-.09-.1C13,14,12.89,13.88,13,14Zm0,3.54c0-.08-.07-.15-.1-.23s0-.12,0-.18h0c0,.14.09.28.14.43ZM12.41,20l0,0-.07.28A.56.56,0,0,1,12,19.9Zm-.61.31.21.19C11.88,20.46,11.87,20.46,11.8,20.33Zm.36-1.9,0,.18L12,18.4Zm-.2,1c-.06-.13-.11-.26-.16-.39a1.08,1.08,0,0,1,.42.43Zm.16-3.83h.05l-.15.22c0-.06,0-.11.09-.17ZM12,17.45l0,.09-.12-.1,0-.1.17,0C12,17.37,12,17.41,12,17.45Zm-1.48,1.81c.43.27,1.15.53,1.27,1.07A3.48,3.48,0,0,1,10.53,19.26Zm1.1-.21.17.21L11.38,19Zm1.55.64-.32-.33.56-.53c0,.19,0,.39.07.59Zm.31.36a1.21,1.21,0,0,0,0-.14h.08c0,.07.05.15.08.22Zm.28-.79L13.7,19l.15,0A1.54,1.54,0,0,1,13.77,19.26ZM13.49,12v0L13.7,12l-.15.21Zm-2.13,4.44c-.06-.14-.13-.28-.19-.43C11.41,16.09,11.38,16.26,11.36,16.46Zm-.52.22a.88.88,0,0,1-.31-.65c.37.09.35.24.43.58Zm-.22-1.12c-.26-.26.13-1.28.3-1.52s.21-.11.36-.16l.1,0a4.3,4.3,0,0,0-.49,1.69ZM10.23,19c0,.08.09.15.13.22l-.12.27-.06.07c.09,0,.11-.07.26-.18a3.14,3.14,0,0,0,1.15,1.11l-.25.45-.77-.5c-.08-.16,0-.34-.1-.44s-.29,0-.42,0l-.36-.33a1.17,1.17,0,0,1,.41-.59ZM9.5,16.67c0-.21.07-.43.12-.64h0c0,.22.08.43.11.64l.06.34c.17.46.34.92.5,1.39A1.44,1.44,0,0,1,9.71,17a1.54,1.54,0,0,0,0,.77A1.27,1.27,0,0,1,9.5,16.67Zm-.36.22a.66.66,0,0,1-.08-.26,1.49,1.49,0,0,1,0-.36l0-.08L9.27,16c0,.2-.06.4-.1.6ZM23.83,19l-.42-.16.41-.05C23.82,18.9,23.83,19,23.83,19Zm-11.17,3.5.11-.06a1.59,1.59,0,0,1-.13.22ZM9.48,15.17l-.18,0a.72.72,0,0,1-.46-.62.81.81,0,0,1,.63.39C9.47,15,9.48,15.09,9.48,15.17Zm0,0a.7.7,0,0,0-.78-.74,1.63,1.63,0,0,1,1.14-1.2h.1a7.29,7.29,0,0,1-.33,2.23c-.22.52-1,.51-1,1.32v.07C8.73,17.89,9.88,18.1,10,19c-1.71.88.38,4.57,1.74,2.4a1.29,1.29,0,0,0,.76,0,.41.41,0,0,0,.22-.3l.49.25,0,.06c-.44.35-.76.82-1.23,1.15l0-.13-.12,0-.07,0-.06.29c.27.28,1.1-.73,1.34-.93-.14.48-.48.73-.66,1.17l.05.06a2.58,2.58,0,0,0,.86-1.53l.54.08a18,18,0,0,1-3.29,3.45c.13-.44.35-.77.46-1.12h-.06L11,23.93c-.22.44-.58.74-.65,1.33a.71.71,0,0,0,.15.15c1.07-.18,2.87-2.9,3.72-3.64-.23,2.34-1.48,2.71-2.56,4.13,1-.5,1.58-1.75,2.42-2.45-.09,1-.32,3.16-.9,3.55h.09c.66-.41.69-2.08.91-2.94,0-.3.06-.61.1-.91l.93-1.31.07,0a1,1,0,0,0,1.09.59l.36-.15.93.34a3.56,3.56,0,0,1-.77,3.1c.86-.44,1.17-2.14.89-3,2,.23,1.91-.45,1.53-1.91h.36c-.07-.1-.24,0-.38-.1s-.05,0-.08-.09a.86.86,0,0,1,1.37.89.85.85,0,0,0-1.09-1.14,4.09,4.09,0,0,0,.85-1.11l.06,0,1.65,1.73h.09l.08-.1L20.66,18.9l.17-.08a.31.31,0,0,1,.29-.1l-.08,0c.84.08,1.91.78,2.78.56a.36.36,0,0,0,0-.36A6.29,6.29,0,0,0,27,18.14a13.85,13.85,0,0,1-4.37.23l-1.16-.14H21.4l.31-.56c1,0,3.49-.05,4-.65l-.11-.15-.44-.07a.28.28,0,0,0-.05.17l.35,0a10,10,0,0,1-3.55.36c-.08-.08,0-.39,0-.61v-.12a2.88,2.88,0,0,0,2-2c.17-.58.06-1.34.43-1.7.24,0,.28.12.46.19a.77.77,0,0,0-.39-.26l-.31.22c-.28.11-.58-.18-1.06,0-.39-.33-.61-.86-1.14-1.06l0-.1.64-.62c-.21.18-.42.38-.64.59l-.42-.19,0-.06a1.76,1.76,0,0,1,1.48-.37c0,.05.05.1.08.16a.25.25,0,0,1-.08.07l-.18-.05a.72.72,0,0,0,.25.07l.07-.07v-.09a.49.49,0,0,0-.4-.2,1,1,0,0,0,.11-.17c-.27.19-.82.24-1.09.41l.62-.5.08-.1-1.16.69a1,1,0,0,1-.64-.27h-.07l1.38-.94,0-.09-1.57.91-.5-.12c0-.15,0-.3.05-.45L23.4,7.78h.07l-.06-.12c-.13-.07-.67.38-.88.51-.79.51-1.49,1.15-2.27,1.61.32-.41.91-.82,1-1.42l-.16,0-.25.21.27-.12a4.83,4.83,0,0,1-1.39,1.77l-.06-.12a2.58,2.58,0,0,0,.44-1.76l-.24-.15-.26,0a2.18,2.18,0,0,1,.4.17,3.12,3.12,0,0,1-.38,1.5l-.06,0c-.11-.19-.1-.29-.32-.33a.5.5,0,0,1,0-.12l.15-.21.1-.07a.23.23,0,0,1,.05.16.37.37,0,0,0,.05-.16l-.13-.06c-.1.12-.21.23-.32.34A2.48,2.48,0,0,0,18.2,9c.21-.45.86-1.16.53-1.73s-1.82.1-2.33.65a1.27,1.27,0,0,0-.16.2A.92.92,0,0,0,16.4,8c.51-.38,1.86-1.29,2.15-.56.31.41-.28,1.19-.44,1.51a13.55,13.55,0,0,0-1.71-.1,6.23,6.23,0,0,0-1.83.29c-.3.1-1.57.87-1.62.86-.19-.19-.38-.38-.58-.56l-1.21-.62v.07a.46.46,0,0,0-.07.07l1.56,1.32-.24.15a4.92,4.92,0,0,0-2-1H10.2c.56.39,1.12.74,1.68,1.1l.11.15c-.4.17-.57.52-.9.74a10.08,10.08,0,0,0-1.66-.68l0,.13,1.19.78h.07l-.21.14c-.09.33-.28.7-.44,1.16-.59.48-1.37.46-1.49,1.45a1.25,1.25,0,0,0-.5.2v.13a4.64,4.64,0,0,0,1.31.6Zm7.09-6.88.08,0h-.18c.1-.18.37-.22.64-.2,0,0,0,.08,0,.13l-.52,0Zm.37.24.24-.09a.69.69,0,0,0,.12-.54,1,1,0,0,0-.65.11l-.13.22,0,.08s0,0,0,.05a.44.44,0,0,0,.36.07c0,.09,0,.05-.09.08Zm6.14,1.93-.27.05h.16l.19.08-.28.53a1.31,1.31,0,0,0,.35-.57Zm-1.54,8.39c-.07-.12-.14-.2-.21-.22A2.28,2.28,0,0,1,21.51,18.83Zm-.84,2.58-.21.12h.16A.37.37,0,0,1,20.67,21.41Zm.84-2.58a1.48,1.48,0,0,1,.33,1.07A.79.79,0,0,0,21.51,18.83Z"/></g></svg>
