<?xml version="1.0" encoding="UTF-8"?>
<svg viewBox="0 0 32 32" version="1.1" xmlns="http://www.w3.org/2000/svg" xmlns:xlink="http://www.w3.org/1999/xlink">
    <!-- Generator: Sketch 51.1 (57501) - http://www.bohemiancoding.com/sketch -->
    <title>logo/24/litres</title>
    <desc>Created with Sketch.</desc>
    <defs>
        <polygon id="path-1" points="0.0538491018 0.0777333333 2.4035497 0.0777333333 2.4035497 3 0.0538491018 3"></polygon>
        <polygon id="path-3" points="0.097005988 0.100011111 2.13413174 0.100011111 2.13413174 3 0.097005988 3"></polygon>
        <polygon id="path-5" points="2.15568862e-05 0.0111 0.79760479 0.0111 0.79760479 0.833322222 2.15568862e-05 0.833322222"></polygon>
        <polygon id="path-7" points="4.31137725e-05 0.0333777778 0.79760479 0.0333777778 0.79760479 0.855488889 4.31137725e-05 0.855488889"></polygon>
    </defs>
    <g id="logo/24/litres" stroke="none" stroke-width="1" fill="none" fill-rule="evenodd">
        <circle id="Oval-2-Copy-2" stroke="#D8D8D8" cx="16" cy="16" r="11.5"></circle>
        <g id="Group-21" transform="translate(7.000000, 14.000000)">
            <path d="M1.56287425,0.722211111 C1.55209581,1.07776667 1.53053892,1.38887778 1.51976048,1.67776667 C1.49820359,1.96665556 1.47664671,2.22221111 1.44431138,2.45554444 C1.41197605,2.68887778 1.36886228,2.88887778 1.3257485,3.06665556 C1.27185629,3.24443333 1.20718563,3.39998889 1.13173653,3.52221111 C1.07784431,3.6111 1.0239521,3.67776667 0.959281437,3.73332222 C0.894610778,3.79998889 0.82994012,3.84443333 0.754491018,3.87776667 C0.689820359,3.9111 0.614371257,3.93332222 0.549700599,3.94443333 C0.48502994,3.95554444 0.431137725,3.96665556 0.366467066,3.96665556 C0.280239521,3.96665556 0.215568862,3.95554444 0.161676647,3.94443333 C0.107784431,3.93332222 0.0538922156,3.9111 0,3.88887778 L0.0754491018,3.23332222 C0.097005988,3.24443333 0.118562874,3.24443333 0.14011976,3.24443333 C0.161676647,3.24443333 0.183233533,3.25554444 0.204790419,3.25554444 C0.258682635,3.25554444 0.323353293,3.24443333 0.377245509,3.2111 C0.431137725,3.17776667 0.48502994,3.13332222 0.517365269,3.06665556 C0.571257485,2.98887778 0.614371257,2.86665556 0.65748503,2.7111 C0.700598802,2.55554444 0.732934132,2.35554444 0.765269461,2.1111 C0.79760479,1.86665556 0.819161677,1.57776667 0.840718563,1.24443333 C0.862275449,0.9111 0.873053892,0.5111 0.873053892,0.0666555556 L3.09341317,0.0666555556 L3.09341317,3.94443333 L2.36047904,3.94443333 L2.36047904,0.722211111 L1.56287425,0.722211111 Z" id="Fill-1" fill="#000000"></path>
            <polygon id="Fill-3" fill="#000000" points="5.30301557 2.26664444 5.28145868 2.26664444 5.05511138 2.67775556 4.09582994 3.9222 3.65391377 3.9222 3.65391377 1.15553333 4.35451257 1.15553333 4.35451257 2.47775556 4.32217725 2.85553333 4.34373413 2.85553333 4.55930299 2.45553333 5.52936287 1.15553333 5.97127904 1.15553333 5.97127904 3.9222 5.27068024 3.9222 5.27068024 2.66675556"></polygon>
            <polygon id="Fill-5" fill="#000000" points="7.86826347 1.78888889 7.86826347 3.92222222 7.14610778 3.92222222 7.14610778 1.78888889 6.38083832 1.78888889 6.38083832 1.15555556 8.61197605 1.15555556 8.61197605 1.78888889"></polygon>
            <path d="M9.57123593,0.0222333333 C9.75446946,1.11111111e-05 9.92692455,1.11111111e-05 10.1101581,1.11111111e-05 C10.2933916,1.11111111e-05 10.4874036,0.0111222222 10.6706371,0.0444555556 C10.8538707,0.0777888889 11.0263257,0.133344444 11.177224,0.233344444 C11.3281222,0.322233333 11.446685,0.455566667 11.543691,0.622233333 C11.640697,0.7889 11.6839186,1.01112222 11.6839186,1.27778889 C11.6839186,1.52223333 11.640697,1.72223333 11.5652479,1.90001111 C11.4790204,2.06667778 11.3712359,2.20001111 11.2418946,2.31112222 C11.1017749,2.42223333 10.9508766,2.50001111 10.7784216,2.54445556 C10.6060743,2.5889 10.4227329,2.61112222 10.2394994,2.61112222 L10.1532719,2.61112222 L10.034709,2.61112222 C9.99159521,2.61112222 9.94848144,2.61112222 9.90547545,2.60001111 C9.86225389,2.60001111 9.82991856,2.5889 9.81914012,2.5889 L9.81914012,3.92223333 L9.08620599,3.92223333 L9.08620599,0.0889 C9.21554731,0.0555666667 9.3880024,0.0333444444 9.57123593,0.0222333333 M10.1640503,0.644455556 C10.0886012,0.644455556 10.0239305,0.644455556 9.95936766,0.655566667 C9.89458922,0.655566667 9.84069701,0.666677778 9.80836168,0.677788889 L9.80836168,1.93334444 C9.81914012,1.93334444 9.84069701,1.94445556 9.87303234,1.94445556 C9.90547545,1.94445556 9.92692455,1.95556667 9.95936766,1.95556667 L10.0562659,1.95556667 L10.1210443,1.95556667 C10.2179425,1.95556667 10.3149485,1.94445556 10.4119545,1.93334444 C10.5089605,1.91112222 10.595188,1.87778889 10.6706371,1.83334444 C10.7460862,1.7889 10.8107569,1.71112222 10.8538707,1.62223333 C10.8969844,1.53334444 10.9185413,1.42223333 10.9185413,1.27778889 C10.9185413,1.15556667 10.8969844,1.05556667 10.8538707,0.977788889 C10.8107569,0.900011111 10.7568647,0.833344444 10.6814156,0.7889 C10.6167449,0.744455556 10.5305174,0.711122222 10.4443976,0.6889 C10.3472838,0.655566667 10.2610563,0.644455556 10.1640503,0.644455556" id="Fill-7" fill="#FF4B00"></path>
            <g id="Group-11" transform="translate(11.748503, 1.000000)">
                <mask id="mask-2" fill="white">
                    <use xlink:href="#path-1"></use>
                </mask>
                <g id="Clip-10"></g>
                <path d="M1.89696287,2.91106667 C1.71383713,2.96662222 1.51971737,3.00006667 1.3041485,3.00006667 C0.873010778,3.00006667 0.549657485,2.86673333 0.355645509,2.61117778 C0.150962874,2.35551111 0.0538491018,1.98884444 0.0538491018,1.5444 C0.0538491018,1.05551111 0.161633533,0.688844444 0.387980838,0.4444 C0.614435928,0.200066667 0.926902994,0.0777333333 1.33659162,0.0777333333 C1.47671138,0.0777333333 1.60605269,0.0999555556 1.73528623,0.133288889 C1.86462754,0.166622222 1.9832982,0.233288889 2.08019641,0.311177778 C2.17731018,0.399955556 2.26342994,0.511066667 2.31732216,0.655511111 C2.38199281,0.799955556 2.4035497,0.977844444 2.4035497,1.18884444 C2.4035497,1.26662222 2.4035497,1.3444 2.39287904,1.43328889 C2.38199281,1.52217778 2.37121437,1.61117778 2.34965749,1.71106667 L0.732891018,1.71106667 C0.743777246,1.94451111 0.819118563,2.12217778 0.916124551,2.23328889 C1.02390898,2.35551111 1.19636407,2.41106667 1.42281916,2.41106667 C1.57360958,2.41106667 1.7029509,2.37773333 1.82162156,2.3444 C1.97241198,2.29995556 2.11253174,2.22228889 2.11253174,2.22228889 L2.31732216,2.66673333 C2.22031617,2.77784444 2.08019641,2.85551111 1.89696287,2.91106667 M1.33659162,0.644511111 C1.12102275,0.655511111 1.01323832,0.711066667 0.926902994,0.822177778 C0.840675449,0.933288889 0.786783234,1.07773333 0.765226347,1.26662222 L1.76772934,1.27784444 C1.7784,1.07773333 1.76772934,0.922288889 1.69228024,0.822177778 C1.61672335,0.711066667 1.49826826,0.644511111 1.33659162,0.644511111" id="Fill-9" fill="#FF4B00" mask="url(#mask-2)"></path>
            </g>
            <g id="Group-14" transform="translate(14.443114, 1.000000)">
                <mask id="mask-4" fill="white">
                    <use xlink:href="#path-3"></use>
                </mask>
                <g id="Clip-13"></g>
                <path d="M1.99401198,0.6889 C1.99401198,0.6889 1.77844311,0.644455556 1.61676647,0.644455556 C1.14251497,0.644455556 0.82994012,0.922233333 0.82994012,1.55556667 C0.82994012,2.14445556 1.06706587,2.43334444 1.56287425,2.43334444 C1.7245509,2.43334444 2.03712575,2.3889 2.03712575,2.3889 L2.13413174,2.8889 C2.00479042,2.93334444 1.74610778,3.00001111 1.43353293,3.00001111 C0.463473054,3.00001111 0.097005988,2.26667778 0.097005988,1.52223333 C0.097005988,0.777788889 0.517365269,0.100011111 1.48742515,0.100011111 C1.67065868,0.100011111 1.88622754,0.122233333 2.09101796,0.177788889 L1.99401198,0.6889" id="Fill-12" fill="#FF4B00" mask="url(#mask-4)"></path>
            </g>
            <g id="Group-17" transform="translate(17.137725, 1.111111)">
                <mask id="mask-6" fill="white">
                    <use xlink:href="#path-5"></use>
                </mask>
                <g id="Clip-16"></g>
                <path d="M0.398823952,0.833322222 C0.18325509,0.833322222 2.15568862e-05,0.655544444 2.15568862e-05,0.422211111 C2.15568862e-05,0.188877778 0.172368862,0.0111 0.398823952,0.0111 C0.614392814,0.0111 0.797626347,0.188877778 0.797626347,0.422211111 C0.797626347,0.655544444 0.625171257,0.833322222 0.398823952,0.833322222" id="Fill-15" fill="#FF4B00" mask="url(#mask-6)"></path>
            </g>
            <g id="Group-20" transform="translate(17.137725, 3.111111)">
                <mask id="mask-8" fill="white">
                    <use xlink:href="#path-7"></use>
                </mask>
                <g id="Clip-19"></g>
                <path d="M0.797647904,0.444488889 C0.797647904,0.666711111 0.62508503,0.855488889 0.398845509,0.855488889 C0.183276647,0.855488889 4.31137725e-05,0.677822222 4.31137725e-05,0.444488889 C4.31137725e-05,0.222266667 0.172390419,0.0333777778 0.398845509,0.0333777778 C0.62508503,0.0333777778 0.797647904,0.222266667 0.797647904,0.444488889" id="Fill-18" fill="#FF4B00" mask="url(#mask-8)"></path>
            </g>
        </g>
    </g>
</svg>