<?xml version="1.0" encoding="UTF-8"?>
<svg viewBox="0 0 32 32" version="1.1" xmlns="http://www.w3.org/2000/svg" xmlns:xlink="http://www.w3.org/1999/xlink">
    <!-- Generator: Sketch 48.2 (47327) - http://www.bohemiancoding.com/sketch -->
    <title>logo/24/vk</title>
    <desc>Created with Sketch.</desc>
    <defs></defs>
    <g id="Icons" stroke="none" stroke-width="1" fill="none" fill-rule="evenodd">
        <g id="logo/24/vk">
            <g id="vk" transform="translate(4.000000, 4.000000)">
                <circle id="Oval-2-Copy-2" fill="#6383A8" cx="12" cy="12" r="12"></circle>
                <path d="M11.3251364,16.4368833 L12.1633911,16.4368833 C12.1633911,16.4368833 12.4159759,16.4094665 12.5448933,16.2712157 C12.667394,16.1422983 12.667394,15.9037136 12.667394,15.9037136 C12.667394,15.9037136 12.6493106,14.7796239 13.1743135,14.6145396 C13.6917331,14.450622 14.3479869,15.6995458 15.0474075,16.1796319 C15.5817439,16.5465506 15.9836628,16.4678002 15.9836628,16.4678002 L17.8567568,16.4421334 C17.8567568,16.4421334 18.8379291,16.380883 18.3741764,15.6102953 C18.3385929,15.5490449 18.1110916,15.0415421 16.9910852,14.0002861 C15.8174119,12.9146966 15.9749128,13.0896976 17.3854208,11.2078536 C18.2423423,10.0615971 18.5929277,9.36100979 18.479177,9.06350809 C18.3823431,8.7835065 17.7441728,8.85292356 17.7441728,8.85292356 L15.6429942,8.871007 C15.6429942,8.871007 15.4854933,8.85292356 15.3717427,8.9235073 C15.257992,8.99292436 15.188575,9.15159193 15.188575,9.15159193 C15.188575,9.15159193 14.8549064,10.0435137 14.4092372,10.7966013 C13.4624818,12.388527 13.0862297,12.4760275 12.9374789,12.3710269 C12.5851435,12.1429423 12.6755607,11.449355 12.6755607,10.9523522 C12.6755607,9.41176007 12.9112287,8.76483973 12.2199748,8.59858879 C11.9924735,8.54550515 11.8227225,8.51108829 11.2370525,8.5017549 C10.4845483,8.49358819 9.84987798,8.50758827 9.48995927,8.6831726 C9.25370793,8.80158994 9.06995688,9.06350809 9.17554082,9.07692484 C9.31554161,9.09442494 9.62996007,9.16209199 9.79621101,9.39017662 C10.0149623,9.68534496 10.0056289,10.3445154 10.0056289,10.3445154 C10.0056289,10.3445154 10.1287129,12.1621924 9.71746056,12.3879436 C9.42870892,12.5407779 9.04370674,12.2246094 8.20370196,10.7802678 C7.77494953,10.0452637 7.45061435,9.222759 7.45061435,9.222759 C7.45061435,9.222759 7.389364,9.07342482 7.27619669,8.98592432 C7.14377927,8.88967377 6.95127818,8.85467357 6.95127818,8.85467357 L4.9475168,8.87217367 C4.9475168,8.87217367 4.6500151,8.88150706 4.54559784,9.01217447 C4.44876396,9.12592512 4.53626446,9.37092651 4.53626446,9.37092651 C4.53626446,9.37092651 6.10310669,13.038364 7.87995012,14.8852078 C9.50745937,16.5780508 11.3543032,16.4689668 11.3543032,16.4689668 L11.3251364,16.4368833 Z" id="Shape" fill="#FFFFFF" fill-rule="nonzero"></path>
            </g>
        </g>
    </g>
</svg>