<?xml version="1.0" encoding="utf-8"?>
<!-- Generator: Adobe Illustrator 21.1.0, SVG Export Plug-In . SVG Version: 6.00 Build 0)  -->
<svg version="1.1" id="ready" xmlns="http://www.w3.org/2000/svg" xmlns:xlink="http://www.w3.org/1999/xlink" x="0px" y="0px"
	 viewBox="0 0 20 20" style="enable-background:new 0 0 20 20;" xml:space="preserve">
<title>Megaicons_work_16_1.8_cp</title>
<path d="M19,12.6c0-1.4-0.2-5-1.5-7.5c-0.4-0.6-1-1-1.8-1L3,4C1.9,4,1,4.9,1,6v8h2c0.2,1.1,1.2,2,2.5,2s2.2-0.9,2.5-2h4
	c0.2,1.1,1.2,2,2.5,2s2.2-0.9,2.5-2h2V12.6z M16.6,5.5C17,6.3,17.3,7.1,17.5,8H14V5h1.7C16.1,5,16.4,5.2,16.6,5.5z M6,8V5h3v3H6z
	 M10,5h3v3h-3V5z M3,5h2v3H2V6C2,5.4,2.5,5,3,5z M5.5,15C4.7,15,4,14.3,4,13.5S4.7,12,5.5,12S7,12.7,7,13.5S6.3,15,5.5,15z M14.5,15
	c-0.8,0-1.5-0.7-1.5-1.5s0.7-1.5,1.5-1.5s1.5,0.7,1.5,1.5S15.3,15,14.5,15z M18,13h-1c-0.2-1.1-1.2-2-2.5-2s-2.2,0.9-2.5,2H8
	c-0.2-1.1-1.2-2-2.5-2S3.3,11.9,3,13H2V9h15.7c0.3,1.5,0.3,2.8,0.3,3.6V13z"/>
</svg>
