<?xml version="1.0" encoding="utf-8"?>
<!-- Generator: Adobe Illustrator 23.0.1, SVG Export Plug-In . SVG Version: 6.00 Build 0)  -->
<svg version="1.1" id="Layer_1" xmlns="http://www.w3.org/2000/svg" xmlns:xlink="http://www.w3.org/1999/xlink" x="0px" y="0px"
	 viewBox="0 0 20 20" style="enable-background:new 0 0 20 20;" xml:space="preserve">
<path d="M14,4V2h-1v2H7V2H6v2H3v11c0,1.1,0.9,2,2,2h10c1.1,0,2-0.9,2-2V4H14z M6,5v1.5h1V5h6v1.5h1V5h2v3H4V5H6z M15,16H5
	c-0.6,0-1-0.4-1-1V9h12v6C16,15.6,15.6,16,15,16z"/>
</svg>
