<svg id="ready" xmlns="http://www.w3.org/2000/svg" viewBox="0 0 20 20"><title>Megaicons_work_16_1.8_cp</title><path d="M9.55,13H7A2,2,0,0,1,6.51,9a3.49,3.49,0,0,1,6.67-1,2.5,2.5,0,0,1-.7,4.9ZM7,10a1,1,0,1,0,0,2h5.5a1.5,1.5,0,0,0,.25-3l-.29,0-.1-.28a2.49,2.49,0,0,0-4.85.81V10Zm11,.58V10A8,8,0,0,0,4.34,4.34l.71.71A7,7,0,0,1,17,10v.57l-.59-1.35-.91.57L17.12,12h.76L19.5,9.78l-.91-.57ZM10,17a7,7,0,0,1-7-7V9.43l.59,1.35.91-.57L2.88,8H2.12L.5,10.22l.91.57L2,9.43V10a8,8,0,0,0,13.66,5.66l-.71-.71A7,7,0,0,1,10,17Z"/></svg>