<?xml version="1.0" encoding="utf-8"?>
<!-- Generator: Adobe Illustrator 21.1.0, SVG Export Plug-In . SVG Version: 6.00 Build 0)  -->
<svg version="1.1" id="ready" xmlns="http://www.w3.org/2000/svg" xmlns:xlink="http://www.w3.org/1999/xlink" x="0px" y="0px"
	 viewBox="0 0 20 20" style="enable-background:new 0 0 20 20;" xml:space="preserve">
<title>Megaicons_work_16_1.8_cp</title>
<path d="M6,2C4.3,2,3,3.3,3,5s1.3,3,3,3s3-1.3,3-3S7.6,2,6,2z M6,7C4.9,7,4,6.1,4,5s0.9-2,2-2s2,0.9,2,2S7.1,7,6,7z M6,9
	c-2.1,0-3.9,1-4,1l1,8h6l1-8C9.9,10,8.1,9,6,9z M8.1,17H3.8l-0.7-6.4C3.6,10.4,4.6,10,6,10c1.4,0,2.5,0.4,2.9,0.6L8.1,17z M14.5,5
	c-1.6,0-3,1.3-3,3s1.3,3,3,3c1.6,0,3-1.3,3-3S16.1,5,14.5,5z M14.5,10c-1.1,0-2-0.9-2-2s0.9-2,2-2c1.1,0,2,0.9,2,2S15.6,10,14.5,10z
	 M17.4,12.7c0,0-1.4-0.7-3-0.7c-1.6,0-2.9,0.6-3,0.7L10.9,18H18L17.4,12.7z M12,17l0.4-3.7c0.3-0.1,1.1-0.3,2-0.3
	c0.9,0,1.7,0.2,2,0.4l0.4,3.6H12z"/>
</svg>
