<svg id="ready" xmlns="http://www.w3.org/2000/svg" viewBox="0 0 20 20"><title>Megaicons_work_16_1.8_cp</title><path d="M16.23,18a1.8,1.8,0,0,1-1.49-.77L12.52,14h-5L5.32,17.23a1.79,1.79,0,0,1-3.24-1.32L3.63,6.55A1.84,1.84,0,0,1,5.4,5H6.95L8.44,6h3.19l1.49-1h1.54a1.84,1.84,0,0,1,1.77,1.56L18,15.91A1.8,1.8,0,0,1,16.23,18ZM7,13h6l2.51,3.66a.85.85,0,0,0,1.28.06.79.79,0,0,0,.16-.65L15.46,6.72A.85.85,0,0,0,14.67,6H13.43L12,7H8L6.64,6H5.4a.84.84,0,0,0-.79.72L3.06,16.07a.79.79,0,0,0,.18.65.83.83,0,0,0,1.26-.06Zm0-1a2,2,0,1,1,2-2A2,2,0,0,1,7,12ZM7,9a1,1,0,1,0,1,1A1,1,0,0,0,7,9Zm6.5-1h-1V9h1ZM12,9.5H11v1h1ZM13.5,11h-1v1h1ZM15,9.5H14v1h1Z"/></svg>