<svg id="ready" xmlns="http://www.w3.org/2000/svg" viewBox="0 0 45.02 20"><title>Megaicons_work_16_1.8_cp</title><path d="M13.52,13A2.5,2.5,0,1,0,16,15.5V4.09L7.58,2,7,2.42v9.09A2.48,2.48,0,0,0,5.52,11,2.5,2.5,0,1,0,8,13.5V6.6l7,1.75v5.17A2.48,2.48,0,0,0,13.52,13Zm0,4A1.5,1.5,0,1,1,15,15.5,1.5,1.5,0,0,1,13.52,17Zm-8-2A1.5,1.5,0,1,1,7,13.5,1.5,1.5,0,0,1,5.52,15ZM8,5.56V3.12l7,1.75V7.32ZM21.52,9.5H23v1h-1.5V12h-1V10.5H19v-1h1.5V8h1ZM40,16H28a2,2,0,0,1-2-2V6a2,2,0,0,1,2-2H40a2,2,0,0,1,2,2v8A2,2,0,0,1,40,16ZM28,5a1,1,0,0,0-1,1v8a1,1,0,0,0,1,1H40a1,1,0,0,0,1-1V6a1,1,0,0,0-1-1Zm3.6,1.72L31,7.18v5.68l.59.46,5.91-2.57V9.29Zm4.91,3.38-4.5,2V8l4.5,2Z"/></svg>