<svg id="ready" xmlns="http://www.w3.org/2000/svg" viewBox="0 0 20 20"><title>Megaicons_work_16_1.8_cp</title><path d="M10,13a3,3,0,1,1,3-3A3,3,0,0,1,10,13Zm0-5a2,2,0,1,0,2,2A2,2,0,0,0,10,8Zm1.37,10H8.63L8,16.89a1.3,1.3,0,0,0-1.54-.64l-1.19.37L3.37,14.68l.37-1.19a1.3,1.3,0,0,0-.64-1.54L2,11.37V8.62L3.1,8A1.3,1.3,0,0,0,3.74,6.5L3.37,5.31,5.31,3.37l1.19.37A1.3,1.3,0,0,0,8,3.1L8.63,2h2.75L12,3.1a1.31,1.31,0,0,0,1.54.64l1.19-.37,1.94,1.94L16.26,6.5A1.3,1.3,0,0,0,16.9,8l1.1.58v2.75l-1.1.58a1.3,1.3,0,0,0-.64,1.54l.37,1.19-1.94,1.94-1.19-.37a1.31,1.31,0,0,0-1.54.64ZM9.23,17h1.54l.3-.57a2.3,2.3,0,0,1,2.73-1.13l.61.19,1.09-1.09-.19-.61a2.3,2.3,0,0,1,1.13-2.73l.57-.3V9.23l-.57-.3A2.3,2.3,0,0,1,15.3,6.2l.19-.61L14.41,4.5l-.61.19a2.3,2.3,0,0,1-2.73-1.13L10.77,3H9.23l-.3.57A2.3,2.3,0,0,1,6.21,4.69L5.59,4.5,4.51,5.59l.19.61A2.3,2.3,0,0,1,3.57,8.93L3,9.23v1.54l.57.3A2.3,2.3,0,0,1,4.7,13.79l-.19.61,1.09,1.09.61-.19a2.3,2.3,0,0,1,2.73,1.13Z"/></svg>