<svg id="ready" xmlns="http://www.w3.org/2000/svg" viewBox="0 0 20 20"><title>Megaicons_work_16_1.8_cp</title><path d="M17.88,8.65l-.75.66a9.47,9.47,0,0,0-14.25,0l-.75-.66A10.54,10.54,0,0,1,3.44,7.41L2.25,5.76l.81-.59,1.2,1.65a10.5,10.5,0,0,1,2-1L5.66,3.84l1-.31.63,1.93A10.41,10.41,0,0,1,9.5,5.1v-2h1v2a10.41,10.41,0,0,1,2.26.36l.63-1.93,1,.31-.63,1.93a10.5,10.5,0,0,1,2,1l1.2-1.65.81.59-1.2,1.65A10.54,10.54,0,0,1,17.88,8.65ZM12.46,10A2.5,2.5,0,1,1,10,7.54,2.5,2.5,0,0,1,12.46,10Zm-1,0a1.5,1.5,0,1,0-1.5,1.5A1.5,1.5,0,0,0,11.46,10Z"/></svg>