<svg id="ready" xmlns="http://www.w3.org/2000/svg" viewBox="0 0 20 20"><title>Megaicons_work_16_1.8_cp</title><path d="M17,7H16A5.51,5.51,0,0,0,10.5,2h-1A5.51,5.51,0,0,0,4,7H3A2,2,0,0,0,1,9v2a2,2,0,0,0,2,2H5V7.49a4.44,4.44,0,0,1,.26-1.44l.06,0A12.48,12.48,0,0,0,11.94,8H15v5.5a2,2,0,0,1-2,2h-.07A2,2,0,0,0,11,14H9a2,2,0,0,0,0,4h2a2,2,0,0,0,1.93-1.5H13a3,3,0,0,0,3-3V13h1a2,2,0,0,0,2-2V9A2,2,0,0,0,17,7ZM4,12H3a1,1,0,0,1-1-1V9A1,1,0,0,1,3,8H4Zm7,5H9a1,1,0,0,1,0-2h2a1,1,0,0,1,0,2ZM5.85,5.25l-.17-.1A4.49,4.49,0,0,1,9.5,3h1a4.49,4.49,0,0,1,4.45,4h-3A11.48,11.48,0,0,1,5.85,5.25ZM18,11a1,1,0,0,1-1,1H16V8h1a1,1,0,0,1,1,1ZM8,11a1,1,0,1,1,1-1A1,1,0,0,1,8,11Zm4,0a1,1,0,1,1,1-1A1,1,0,0,1,12,11Z"/></svg>