<svg id="ready" xmlns="http://www.w3.org/2000/svg" viewBox="0 0 20 20"><title>Megaicons_work_16_1.8_cp</title><path d="M8.46,13a2.5,2.5,0,1,1,2.5-2.5A2.5,2.5,0,0,1,8.46,13Zm0-4a1.5,1.5,0,1,0,1.5,1.5A1.5,1.5,0,0,0,8.46,9Zm5,6.94H3.28A1.29,1.29,0,0,1,2,14.66V6.3A1.29,1.29,0,0,1,3.28,5H13.46a1.31,1.31,0,0,1,1.3,1.3V7.86l2.46-1.07.75.49v6.39l-.75.49L14.76,13.1v1.56A1.3,1.3,0,0,1,13.46,16ZM3.28,6a.3.3,0,0,0-.3.3v8.35a.34.34,0,0,0,.3.34H13.46a.34.34,0,0,0,.3-.34V12.39l.75-.49L17,13V8L14.52,9.06l-.75-.49V6.3a.3.3,0,0,0-.3-.3Z"/></svg>