<?xml version="1.0" encoding="utf-8"?>
<!-- Generator: Adobe Illustrator 23.0.1, SVG Export Plug-In . SVG Version: 6.00 Build 0)  -->
<svg version="1.1" id="Layer_1" xmlns="http://www.w3.org/2000/svg" xmlns:xlink="http://www.w3.org/1999/xlink" x="0px" y="0px"
	 viewBox="0 0 20 20" style="enable-background:new 0 0 20 20;" xml:space="preserve">
<path d="M15.4,4.1c-3.1-2.8-8.1-2.7-11,0.3C2.8,5.8,2,7.9,2,10h1c0-1.9,0.7-3.7,2.1-5c2.6-2.6,6.9-2.7,9.7-0.2
	c1.4,1.3,2.2,3.1,2.3,5c0,1.9-0.7,3.8-2,5.1C13.6,16.3,11.9,17,10,17c-1.5,0-3-0.5-4.1-1.4l2.3-0.7l6-6C15,8,15,6.6,14.2,5.8
	c-0.4-0.4-1-0.6-1.6-0.6S11.5,5.4,11,5.8l-6,6l-1,3.4l0.4,0.4C5.9,17.2,7.9,18,10,18s4.1-0.8,5.7-2.3C17.2,14.1,18,12,18,9.8
	C17.9,7.6,17,5.5,15.4,4.1z M11.8,6.5C12.2,6,13,6,13.5,6.5s0.5,1.2,0,1.7l-0.7,0.7L11,7.2L11.8,6.5z M5.9,12.3l4.4-4.4L12,9.6
	L7.6,14l-2.5,0.8L5.9,12.3z"/>
</svg>
