<svg id="Ready" xmlns="http://www.w3.org/2000/svg" viewBox="0 0 40 40"><title>Megaicons_work_32_1.8_cp</title><path d="M31.42,8H6a4,4,0,0,0-4,4V28H6.1a5,5,0,0,0,9.82,0h8.16a5,5,0,0,0,9.82,0H38V25.18c0-2.85-.3-10-3.1-15.07A4,4,0,0,0,31.42,8ZM20,10h6v6H20Zm-8,0h6v6H12ZM4,12a2,2,0,0,1,2-2h4v6H4Zm7,18a3,3,0,1,1,3-3A3,3,0,0,1,11,30Zm18,0a3,3,0,1,1,3-3A3,3,0,0,1,29,30Zm7-4.82V26H33.9a5,5,0,0,0-9.81,0H15.91A5,5,0,0,0,6.1,26H4V18h31.4A43.19,43.19,0,0,1,36,25.18ZM28,16V10h3.46a2,2,0,0,1,1.77,1.07A20.08,20.08,0,0,1,35,16Z"/></svg>