<svg id="Ready" xmlns="http://www.w3.org/2000/svg" viewBox="0 0 40 40"><title>Megaicons_work_32_1.8_cp</title><path d="M31.84,18.12,30.31,18v0h-.55a13.45,13.45,0,0,0-2.61-4.5C25.05,11.15,22.06,10,18,10h0A20.66,20.66,0,0,0,6.66,14,12.68,12.68,0,0,0,2,23.94V28H6.1a5,5,0,0,0,9.79,0h8.22a5,5,0,0,0,9.79,0H38V25A6.91,6.91,0,0,0,31.84,18.12ZM16,12.2a12.36,12.36,0,0,1,2-.2h0c3.46,0,6,.93,7.66,2.83a11.31,11.31,0,0,1,2,3.17H16ZM7.92,15.56A17.74,17.74,0,0,1,14,12.66V18H5.74A10.4,10.4,0,0,1,7.92,15.56ZM11,30a3,3,0,1,1,3-3A3,3,0,0,1,11,30Zm18,0a3,3,0,1,1,3-3A3,3,0,0,1,29,30Zm7-4h-2.1a5,5,0,0,0-9.8,0H15.89a5,5,0,0,0-9.8,0H4v-2.1A11.06,11.06,0,0,1,4.73,20H29.66c.65,0,1.58.07,2,.11A4.9,4.9,0,0,1,36,25Z"/></svg>