<svg id="Ready" xmlns="http://www.w3.org/2000/svg" viewBox="0 0 40 40"><title>Megaicons_work_32_1.8_cp</title><path d="M14,26H25a5,5,0,0,0,1.39-9.79A7,7,0,0,0,13,18.1,4,4,0,0,0,14,26Zm0-6h1V19a5,5,0,0,1,9.71-1.61l.19.56.59.1A3,3,0,0,1,25,24H14a2,2,0,1,1,0-4Zm23.22-1.56L39,19.57,35.76,24H34.24L31,19.57l1.82-1.14,1.18,3V20a14,14,0,0,0-23.9-9.9L8.69,8.69A16,16,0,0,1,36,20v1.39ZM2.82,21.57,1,20.43,4.24,16H5.76L9,20.43,7.18,21.57,6,18.61V20a14,14,0,0,0,23.9,9.9l1.41,1.41A16,16,0,0,1,4,20V18.61Z"/></svg>