<svg id="Ready" xmlns="http://www.w3.org/2000/svg" viewBox="0 0 40 40"><title>Megaicons_work_32_1.8_cp</title><path d="M17,10a6,6,0,1,0-6,6A6,6,0,0,0,17,10ZM7,10a4,4,0,1,1,4,4A4,4,0,0,1,7,10ZM19,20.52l-.51-.35A14.42,14.42,0,0,0,11,18a15.05,15.05,0,0,0-7.47,2.16L3,20.5,5,36H17ZM15.27,34H6.72L5.13,21.54A13.06,13.06,0,0,1,11,20a12.72,12.72,0,0,1,5.87,1.53ZM28,22a6,6,0,1,0-6-6A6,6,0,0,0,28,22Zm0-10a4,4,0,1,1-4,4A4,4,0,0,1,28,12ZM33.43,25.1A13.33,13.33,0,0,0,28,24a12.85,12.85,0,0,0-5.45,1.11l-.48.25L21,35.1l.78.9H34.22l.78-.9-1.07-9.75ZM23.13,34l.8-7.31A11.88,11.88,0,0,1,28,26a12.15,12.15,0,0,1,4.07.7l.8,7.3Z"/></svg>