<svg id="Ready" xmlns="http://www.w3.org/2000/svg" viewBox="0 0 90 40"><title>Megaicons_work_32_1.8_cp</title><path d="M41.55,19h3v2h-3v3h-2V21h-3V19h3V16h2Zm-37,1A6,6,0,0,1,15,16l6-3.74A6,6,0,1,1,22.07,14l-6,3.74a6,6,0,0,1,0,4.57l6,3.74A6,6,0,1,1,21,27.71L15,24A6,6,0,0,1,4.55,20Zm18,10a4,4,0,1,0,4-4A4,4,0,0,0,22.55,30Zm0-20a4,4,0,1,0,4-4A4,4,0,0,0,22.55,10Zm-16,10a4,4,0,1,0,4-4A4,4,0,0,0,6.55,20Zm76,0A16,16,0,0,1,58.91,34l-7,2-3.19-3.8,3-6.19a15.84,15.84,0,0,1-1.19-6,16,16,0,0,1,32,0Zm-2,0a14,14,0,1,0-26.8,5.66l.19.42-2.83,5.85,1.52,1.81,6.54-1.85.37.21a14,14,0,0,0,21-12.1Zm-20,4h8V22h-8Zm0-6h12V16h-12Z"/></svg>