<svg xmlns="http://www.w3.org/2000/svg" xmlns:xlink="http://www.w3.org/1999/xlink" version="1.1" id="Layer_1" x="0px" y="0px" viewBox="0 0 304 55" enable-background="new 0 0 304 55" xml:space="preserve">
<title>megafon-logo-green</title>
<desc>Created with Sketch.</desc>
<g id="Page-1">
	<g id="megafon-logo-green">
		<g id="Group">
			<path id="Shape" fill="#00B956" d="M30.3,0.7v27.8l0,0l0,0c0,1.3-1,2.2-2.2,2.2h-3.3l0,0c-0.2,0-0.3,0.2-0.3,0.3v23.3     c0.8,0,1.6,0.2,2.5,0.2c14.9,0,27-12.1,27-27C54,13.8,43.7,2.3,30.3,0.7z M29.7,42.3c-1.9,0-3.3-1.6-3.3-3.3     c0-1.9,1.6-3.3,3.3-3.3c1.9,0,3.3,1.6,3.3,3.3C33.2,40.8,31.6,42.3,29.7,42.3z M37.6,42.3c-1.9,0-3.3-1.6-3.3-3.3     c0-1.9,1.6-3.3,3.3-3.3c1.9,0,3.3,1.6,3.3,3.3S39.6,42.3,37.6,42.3z M45.6,42.3c-1.9,0-3.3-1.6-3.3-3.3c0-1.9,1.6-3.3,3.3-3.3     c1.9,0,3.3,1.6,3.3,3.3S47.5,42.3,45.6,42.3z"/>
			<path id="Shape_1_" fill="#00B956" d="M27,0.6c-14.9,0-27,12.1-27,27c0,13.1,9.1,23.8,21.3,26.3V29.6l0,0c0-1.1,1-2,2-2.2l0,0     h1.1h2.2c0.2,0,0.3-0.2,0.3-0.3L27,0.6L27,0.6z M21.8,22.8c-1.9,0-3.3-1.6-3.3-3.3c0-1.9,1.6-3.3,3.3-3.3c1.9,0,3.3,1.6,3.3,3.3     S23.6,22.8,21.8,22.8z"/>
		</g>
		<g id="Group_1_" transform="translate(67.000000, 10.000000)">
			<polygon id="Shape_2_" fill="#00B956" points="230.3,5.3 230.3,15.5 216.7,15.5 216.7,5.3 209.8,5.3 209.8,32.3 216.7,32.3      216.7,21.4 230.3,21.4 230.3,32.3 237,32.3 237,5.3    "/>
			<path id="Shape_3_" fill="#00B956" d="M117.9,8.4c-1.1-2.4-3.3-3.7-5.5-3.7l0,0l0,0l0,0c-2.2,0-4.5,1.3-5.5,3.7L96,32.4h7.2     l2.4-5.7h14l2.4,5.7h7.2L117.9,8.4z M107.5,21.3l4.1-9.9c0.2-0.3,0.3-0.3,0.5-0.3l0,0l0,0c0.2,0,0.5,0,0.5,0.3l4.1,9.9H107.5z"/>
			<path id="Shape_4_" fill="#00B956" d="M37.5,0.5c-3.2,0-5.2,1.7-6.7,5.1l-8.7,20.3L13.3,5.5c-1.4-3.3-3.5-5.1-6.7-5.1     c-3,0-6,2-6,6.7v25.1h6.7V8l8.9,20.1c1.1,2.9,3.2,4.6,5.9,4.6l0,0l0,0l0,0l0,0c2.9,0,4.8-1.7,5.9-4.6L36.9,8v24.5h6.7V7.4     C43.5,2.7,40.5,0.5,37.5,0.5z"/>
			<path id="Shape_5_" fill="#00B956" d="M55.4,26.6c-0.3,0-0.7-0.3-0.7-0.7v-4.8h16.8v-5.5H54.7v-4.1c0-0.3,0.3-0.7,0.7-0.7h16.7     V5.1h-20c-2.4,0-4,1.9-4,4V28c0,2,1.7,4,4,4h20v-5.7H55.4V26.6L55.4,26.6z"/>
			<path id="Shape_6_" fill="#00B956" d="M83.4,32.3V11.7c0-0.3,0.3-0.7,0.7-0.7h16.7V5.3h-20c-2.4,0-4,1.9-4,4v22.9L83.4,32.3     L83.4,32.3L83.4,32.3z"/>
			<path id="Shape_7_" fill="#00B956" d="M205.4,18.9c0-9.4-4.1-13.8-14.3-13.8h-2.4c-10.2,0-14.3,4.5-14.3,13.8l0,0     c0,9.2,4.1,13.8,14.3,13.8h2.2C201.3,32.5,205.4,28.1,205.4,18.9L205.4,18.9z M190.9,27h-2.2c-5.5,0-7.8-2.5-7.8-8.1l0,0     c0-5.4,1.9-8.1,7.8-8.1h2.2c5.7,0,7.8,2.7,7.8,8.1l0,0C198.7,24.4,196.6,27,190.9,27z"/>
			<path id="Shape_8_" fill="#00B956" d="M155.7,1.1h-13.4c-10,0-14,5.1-14,13.8c0,1.4,0.2,2.7,0.3,3.8c1.1,6.2,4.8,10,14.1,10h3     v3.5h6.7v-3.5h2.9c9.4,0,13.1-3.8,14.1-10c0.2-1.1,0.3-2.4,0.3-3.8C169.6,6.2,165.5,1.1,155.7,1.1z M145.5,23.1h-3     c-4.6,0-6.2-1.7-7.2-4.5c-0.3-1-0.3-2.4-0.3-3.8c0-5.7,2.7-8.1,6.5-8.1h4.1v16.4H145.5L145.5,23.1z M162.7,18.9     c-1,2.7-2.7,4.5-7.2,4.5h-3V6.9h4.1c3.8,0,6.5,2.4,6.5,8.1C163,16.5,163,17.7,162.7,18.9z"/>
		</g>
	</g>
</g>
</svg>
