<?xml version="1.0" encoding="utf-8"?>
<!-- Generator: Adobe Illustrator 25.0.1, SVG Export Plug-In . SVG Version: 6.00 Build 0)  -->
<svg xmlns="http://www.w3.org/2000/svg" xmlns:xlink="http://www.w3.org/1999/xlink" x="0px" y="0px"
	 viewBox="0 0 40 40" xml:space="preserve">
<path d="M32,6H16c-1.1,0-2,0.9-2,2l0,0v2h-2V8l0,0c0-2.2,1.8-4,4-4h16c2.2,0,4,1.8,4,4v16c0,2.2-1.8,4-4,4l0,0h-2v-2h2
	c1.1,0,2-0.9,2-2V8C34,6.9,33.1,6,32,6z M24,12H8c-2.2,0-4,1.8-4,4v16c0,2.2,1.8,4,4,4h16c2.2,0,4-1.8,4-4V16C28,13.8,26.2,12,24,12
	z M26,32c0,1.1-0.9,2-2,2H8c-1.1,0-2-0.9-2-2V16c0-1.1,0.9-2,2-2h16c1.1,0,2,0.9,2,2V32z"/>
</svg>
