<svg id="Ready" xmlns="http://www.w3.org/2000/svg" viewBox="0 0 32 32"><title>Megaicons_work_24_1.8_cp</title><circle cx="13.46" cy="16.5" r="1.5"/><circle cx="18.46" cy="16.5" r="1.5"/><path d="M26.21,12.26a13.18,13.18,0,0,0-.1-7.07c-.06-.19-.11-.37-.17-.53L25.7,4H23.8l-.24.66c-.1.29-.2.57-.29.85A6.77,6.77,0,0,1,22.07,8H10A6.77,6.77,0,0,1,8.8,5.51c-.09-.28-.19-.56-.29-.85L8.27,4h-2l-.24.67c0,.13-.1.28-.14.44a13,13,0,0,0-.08,7.13A3,3,0,0,0,7,18H8.4L9,26l.41.27A13.15,13.15,0,0,0,16,28a13,13,0,0,0,6.51-1.75L23,26l.64-8H25a3,3,0,0,0,1.21-5.74ZM7,16a1,1,0,0,1,0-2H8.08l.16,2Zm14,8.82A11.43,11.43,0,0,1,16,26,11.82,11.82,0,0,1,11,24.82l-.13-1.56A11.25,11.25,0,0,1,16,22a11.61,11.61,0,0,1,5.2,1.26Zm1-12.82-.73,9.11A14.24,14.24,0,0,0,16,20a14,14,0,0,0-5.31,1.11L9.92,12H7.83l0-.13a11.29,11.29,0,0,1-.36-4.26A5.9,5.9,0,0,0,8.92,9.75L9.2,10H22.87l.29-.25a5.8,5.8,0,0,0,1.43-2,11.29,11.29,0,0,1-.31,4.07l-.06.21ZM25,16H23.76l.16-2H25a1,1,0,0,1,0,2Z"/></svg>