<?xml version="1.0" encoding="utf-8"?>
<!-- Generator: Adobe Illustrator 23.0.1, SVG Export Plug-In . SVG Version: 6.00 Build 0)  -->
<svg version="1.1" id="Layer_1" xmlns="http://www.w3.org/2000/svg" xmlns:xlink="http://www.w3.org/1999/xlink" x="0px" y="0px"
	 viewBox="0 0 32 32" style="enable-background:new 0 0 32 32;" xml:space="preserve">
<path d="M30,16.9l-3.8-2.4c-1.1-2.7-3.7-4.5-6.6-4.4h-0.5V6.1H2V24h6.4c0.8,1.7,2.9,2.5,4.6,1.7c0.7-0.3,1.3-0.9,1.7-1.7h5.7
	c0.8,1.7,2.9,2.5,4.6,1.7c0.7-0.3,1.3-0.9,1.7-1.7H30V16.9z M4,8.1h13.1V15H4V8.1z M11.5,24c-0.8,0-1.5-0.7-1.5-1.5s0.7-1.5,1.5-1.5
	s1.5,0.7,1.5,1.5S12.3,24,11.5,24z M17.1,22H15c-0.3-1.9-2-3.2-3.9-3c-1.6,0.2-2.8,1.4-3,3H4v-5h13.1V22z M23.5,24
	c-0.8,0-1.5-0.7-1.5-1.5s0.7-1.5,1.5-1.5s1.5,0.7,1.5,1.5S24.3,24,23.5,24z M28,22h-1c-0.3-1.9-2-3.2-3.9-3c-1.6,0.2-2.8,1.4-3,3
	h-0.9V12h0.5c2.2,0,4.1,1.4,4.8,3.4l0.1,0.3L28,18V22z"/>
</svg>
