<svg id="Ready" xmlns="http://www.w3.org/2000/svg" viewBox="0 0 32 32"><title>Megaicons_work_24_1.8_cp</title><path d="M7,28H7a3,3,0,0,0,2.43-1.29L12.51,22l7,0,3.15,4.73A3,3,0,0,0,25,28h0a3,3,0,0,0,2.26-1.05A2.93,2.93,0,0,0,28,24.57L25.6,10.46A2.93,2.93,0,0,0,22.7,8H20.14l-1.63,2h-5l-1.6-2H9.3a2.93,2.93,0,0,0-2.9,2.46L4,24.57a2.93,2.93,0,0,0,.66,2.37A3,3,0,0,0,7,28ZM6,24.9,8.37,10.79A.94.94,0,0,1,9.3,10h1.61l1.6,2h6.95l1.63-2H22.7a.94.94,0,0,1,.93.79L26,24.9a.92.92,0,0,1-.21.75A1,1,0,0,1,25,26a.94.94,0,0,1-.77-.4L20.54,20l-9.1,0-3.7,5.62A1,1,0,0,1,7,26a1,1,0,0,1-.74-.35A.92.92,0,0,1,6,24.9Z"/><path d="M12,19a3,3,0,1,0-3-3A3,3,0,0,0,12,19Zm0-4a1,1,0,1,1-1,1A1,1,0,0,1,12,15Z"/><rect x="16.99" y="15" width="2" height="2"/><rect x="20.98" y="15" width="2" height="2"/><rect x="18.98" y="13" width="2" height="2"/><rect x="18.98" y="17" width="2" height="2"/></svg>