<?xml version="1.0" encoding="utf-8"?>
<!-- Generator: Adobe Illustrator 23.0.1, SVG Export Plug-In . SVG Version: 6.00 Build 0)  -->
<svg version="1.1" id="Layer_1" xmlns="http://www.w3.org/2000/svg" xmlns:xlink="http://www.w3.org/1999/xlink" x="0px" y="0px"
	 viewBox="0 0 32 32" style="enable-background:new 0 0 32 32;" xml:space="preserve">
<path id="MegaFon-TV_24-Copy" transform="translate(16.000000, 16.000000) rotate(-360.000000) translate(-16.000000, -16.000000) " d="
	M9.6,24.9c0.3-0.5,1-0.7,1.5-0.4s0.7,1,0.4,1.5c-0.3,0.5-1,0.7-1.5,0.4S9.3,25.5,9.6,24.9z M7.4,23c0.4-0.4,1.1-0.4,1.6,0
	s0.4,1.1,0,1.6c-0.4,0.4-1.1,0.4-1.6,0S7,23.4,7.4,23z M5.9,20.6c0.5-0.3,1.2-0.1,1.5,0.4c0.3,0.5,0.1,1.2-0.4,1.5s-1.2,0.1-1.5-0.4
	C5.2,21.5,5.4,20.9,5.9,20.6z M16,4c-3.7,0-7.3,1.7-9.5,4.7s-3,6.8-2.1,10.4l1.9-0.5c-1.2-4.4,0.7-9,4.7-11.2s8.9-1.6,12.1,1.6
	s3.9,8.2,1.6,12.1s-6.9,5.8-11.2,4.7l-0.5,1.9c4.5,1.2,9.3-0.3,12.3-3.9s3.7-8.6,1.7-12.8S20.7,4,16,4z M17,9h-4v6h-2v2h2v2h-2v2h2
	v2h2v-2h4v-2h-4v-2h2c2.2,0,4-1.8,4-4S19.2,9,17,9z M17,15h-2v-4h2c1.1,0,2,0.9,2,2S18.1,15,17,15z"/>
</svg>
