<?xml version="1.0" encoding="utf-8"?>
<!-- Generator: Adobe Illustrator 23.0.1, SVG Export Plug-In . SVG Version: 6.00 Build 0)  -->
<svg version="1.1" id="Layer_1" xmlns="http://www.w3.org/2000/svg" xmlns:xlink="http://www.w3.org/1999/xlink" x="0px" y="0px"
	 viewBox="0 0 32 32" style="enable-background:new 0 0 32 32;" xml:space="preserve">
<path id="Ready" d="M20,14h-3v4h-1v2h1v1h-1v2h1v1h2v-1h2v-2h-2v-1h1.2c1.6,0,2.8-1.3,2.8-2.9c0,0,0,0,0,0v-0.2l0,0
	C23,15.3,21.6,14,20,14z M20.1,18H19v-2h1c0.6,0,1,0.4,1,1C21,17.3,20.9,18,20.1,18L20.1,18z M21,11.1V7.2C21,5.5,19.5,4,17.7,4H9.3
	C7.5,4,6,5.4,6,7.2v17.5C6,26.5,7.5,28,9.3,28c0,0,0,0,0,0H19l0,0c0.2,0,0.3,0,0.5,0c4.7,0,8.5-3.8,8.5-8.5
	C27.9,15.4,25,11.9,21,11.1z M9.3,26C8.6,26,8,25.4,8,24.7c0,0,0,0,0,0V7.2C8,6.6,8.6,6,9.3,6c0,0,0,0,0,0h8.5C18.4,6,19,6.6,19,7.2
	V11c-4.7,0.2-8.3,4.2-8.1,8.9c0.1,2.4,1.2,4.6,3.1,6.1H9.3z M19.5,26c-3.6,0-6.5-2.9-6.5-6.5s2.9-6.5,6.5-6.5s6.5,2.9,6.5,6.5
	C26,23.1,23.1,26,19.5,26z M11,7h5v2h-5V7z"/>
</svg>
