<?xml version="1.0" encoding="utf-8"?>
<!-- Generator: Adobe Illustrator 23.0.1, SVG Export Plug-In . SVG Version: 6.00 Build 0)  -->
<svg version="1.1" id="Layer_1" xmlns="http://www.w3.org/2000/svg" xmlns:xlink="http://www.w3.org/1999/xlink" x="0px" y="0px"
	 viewBox="0 0 32 32" style="enable-background:new 0 0 32 32;" xml:space="preserve">
<path d="M16.4,24.8l-0.7-3.5l2.8-2.8l3.7,8.6l1.6,0.3l3.2-3.2l-2.8-11.4l2.4-2.4c0.7-0.7,1.2-1.7,1.3-2.6c0.1-1-0.2-2-0.9-2.7
	c-1.4-1.4-3.8-1.2-5.3,0.4l-2.4,2.4l-11.4-3L4.7,8.1L5,9.8l8.6,3.7l-2.8,2.8l-3.5-0.7L4,18.8l0.3,1.6l5.1,2.1l2.1,5.1l1.6,0.3
	L16.4,24.8z M24.9,23.4l-1.4,1.4l-4.3-9.9l-5.7,5.7l0.7,3.5l-1.4,1.4L11,21l-4.5-1.9l1.4-1.4l3.5,0.7l5.7-5.7L7.2,8.5l1.4-1.4
	L20,9.9l3.2-3.2c0.8-0.8,1.9-0.9,2.5-0.4C25.9,6.6,26,7,26,7.4c0,0.5-0.3,1-0.7,1.4L22,12.1L24.9,23.4z"/>
</svg>
