<svg id="Ready" xmlns="http://www.w3.org/2000/svg" viewBox="0 0 65.25 32"><title>Megaicons_work_24_1.8_cp</title><polygon points="34 13 32 13 32 15.04 30 15.04 30 17.04 32 17.04 32 19 34 19 34 17.04 36 17.04 36 15.04 34 15.04 34 13"/><path d="M10.5,20a4.46,4.46,0,0,0,3-1.15l4,2.74A4.45,4.45,0,0,0,17,23.5,4.5,4.5,0,1,0,21.5,19a4.46,4.46,0,0,0-2.81,1l-4-2.78a4.35,4.35,0,0,0,.22-2.77L18.69,12a4.46,4.46,0,0,0,2.81,1A4.5,4.5,0,1,0,17,8.5a4.45,4.45,0,0,0,.44,1.91L14,12.67A4.49,4.49,0,1,0,10.5,20Zm11,1A2.5,2.5,0,1,1,19,23.5,2.5,2.5,0,0,1,21.5,21Zm0-15A2.5,2.5,0,1,1,19,8.5,2.5,2.5,0,0,1,21.5,6Zm-11,7A2.5,2.5,0,1,1,8,15.5,2.5,2.5,0,0,1,10.5,13Z"/><rect x="48" y="17" width="6" height="2"/><rect x="48" y="13" width="8" height="2"/><path d="M52,4A12,12,0,0,0,40,16a11.88,11.88,0,0,0,.85,4.42L39,24.51,41.37,28l5-1.42A12,12,0,1,0,52,4Zm0,22a10,10,0,0,1-5-1.35l-.26-.14L42,26l-1-1.49,2-4.16L42.86,20A10,10,0,1,1,52,26Z"/></svg>