<?xml version="1.0" encoding="utf-8"?>
<!-- Generator: Adobe Illustrator 23.0.1, SVG Export Plug-In . SVG Version: 6.00 Build 0)  -->
<svg version="1.1" id="Layer_1" xmlns="http://www.w3.org/2000/svg" xmlns:xlink="http://www.w3.org/1999/xlink" x="0px" y="0px"
	 viewBox="0 0 20 20" style="enable-background:new 0 0 20 20;" xml:space="preserve">
<style type="text/css">
	.st0{fill-rule:evenodd;clip-rule:evenodd;}
</style>
<title>Source/System Icons/16/Info_invert_16</title>
<desc>Created with Sketch.</desc>
<path class="st0" d="M9,15h2V9H9V15z M10,7C9.8,7,9.5,6.9,9.3,6.7C9.1,6.5,9,6.3,9,6s0.1-0.5,0.3-0.7C9.5,5.1,9.8,5,10,5
	s0.5,0.1,0.7,0.3C10.9,5.5,11,5.7,11,6s-0.1,0.5-0.3,0.7C10.6,6.9,10.3,7,10,7z M10,3c-3.9,0-7,3.1-7,7s3.1,7,7,7s7-3.1,7-7
	S13.9,3,10,3z M10,18c-4.4,0-8-3.6-8-8s3.6-8,8-8s8,3.6,8,8S14.4,18,10,18z"/>
</svg>
