<?xml version="1.0" encoding="UTF-8"?>
<svg viewBox="0 0 20 20" version="1.1" xmlns="http://www.w3.org/2000/svg" xmlns:xlink="http://www.w3.org/1999/xlink">
    <!-- Generator: Sketch 51.2 (57519) - http://www.bohemiancoding.com/sketch -->
    <title>Source/System Icons/16/Info_invert_16</title>
    <desc>Created with Sketch.</desc>
    <defs>
        <path d="M9,15 L11,15 L11,9 L9,9 L9,15 Z M10,7 C9.8,7 9.5,6.9 9.3,6.7 C9.1,6.5 9,6.3 9,6 C9,5.7 9.1,5.5 9.3,5.3 C9.5,5.1 9.8,5 10,5 C10.2,5 10.5,5.1 10.7,5.3 C10.9,5.5 11,5.7 11,6 C11,6.3 10.9,6.5 10.7,6.7 C10.6,6.9 10.3,7 10,7 Z M10,3 C6.1,3 3,6.1 3,10 C3,13.9 6.1,17 10,17 C13.9,17 17,13.9 17,10 C17,6.1 13.9,3 10,3 Z M10,18 C5.6,18 2,14.4 2,10 C2,5.6 5.6,2 10,2 C14.4,2 18,5.6 18,10 C18,14.4 14.4,18 10,18 Z" id="path-1"></path>
    </defs>
    <g id="Source/System-Icons/16/Info_invert_16" stroke="none" stroke-width="1" fill="none" fill-rule="evenodd">
        <mask id="mask-2" fill="white">
            <use xlink:href="#path-1"></use>
        </mask>
        <use id="Mask" fill="#000000" xlink:href="#path-1"></use>
        <g id="Colors/Basic/Fresh-Asphalt" mask="url(#mask-2)" fill="#000000">
            <rect id="Rectangle" x="0" y="0" width="20" height="20"></rect>
        </g>
    </g>
</svg>