<?xml version="1.0" encoding="UTF-8"?>
<svg viewBox="0 0 20 20" version="1.1" xmlns="http://www.w3.org/2000/svg" xmlns:xlink="http://www.w3.org/1999/xlink">
    <!-- Generator: Sketch 51.2 (57519) - http://www.bohemiancoding.com/sketch -->
    <title>Source/System Icons/16/Refresh_16 Copy</title>
    <desc>Created with Sketch.</desc>
    <defs>
        <path d="M10,17 C6.1,17 3,13.9 3,10 C3,6.1 6.1,3 10,3 C12.5,3 14.8,4.4 16.1,6.5 L15.2,7 C14.1,5.1 12.1,4 10,4 C6.7,4 4,6.7 4,10 C4,13.3 6.7,16 10,16 C13.3,16 16,13.3 16,10.1 L17,10.1 C17,13.9 13.8,17 10,17 Z M17,8 L12.8,7.1 L16.2,3.8 L17,8 Z" id="path-1"></path>
    </defs>
    <g id="Source/System-Icons/16/Refresh_16-Copy" stroke="none" stroke-width="1" fill="none" fill-rule="evenodd">
        <mask id="mask-2" fill="white">
            <use xlink:href="#path-1"></use>
        </mask>
        <use id="Symbols" fill="#000000" fill-rule="nonzero" xlink:href="#path-1"></use>
        <g id="Colors/Basic/Fresh-Asphalt" mask="url(#mask-2)" fill="#000000">
            <rect id="Rectangle" x="0" y="0" width="20" height="20"></rect>
        </g>
    </g>
</svg>