<svg id="Ready" xmlns="http://www.w3.org/2000/svg" viewBox="0 0 40 40"><title>Megaicons_work_32_1.8_cp</title><path d="M33.34,16.32a18.26,18.26,0,0,0,.74-3.65,13.93,13.93,0,0,0-.76-6.11l-.24-.66H30.8l-.24.66c-.13.37-.26.74-.38,1.1a9.17,9.17,0,0,1-1.84,3.65H11.5A9.17,9.17,0,0,1,9.66,7.66c-.12-.36-.25-.73-.38-1.1L9,5.89H6.75l-.24.66a13.94,13.94,0,0,0-.76,6.11,18.27,18.27,0,0,0,.74,3.63A4,4,0,0,0,8,24h2.79l.92,9.39.4.26a14.26,14.26,0,0,0,15.63,0l.4-.26.91-9.4h2.78a4,4,0,0,0,1.51-7.68ZM8,22a2,2,0,0,1-2.07-2A2,2,0,0,1,8,18h2.18l.39,4ZM26.24,32.25a12.45,12.45,0,0,1-12.64,0l-.3-3.07a12.17,12.17,0,0,1,13.24,0ZM27.82,16,26.75,27a14.14,14.14,0,0,0-13.67,0L12,16H8.52a15.66,15.66,0,0,1-.77-3.54,11.8,11.8,0,0,1,.2-3.64,9.19,9.19,0,0,0,2.49,4.22l.29.25H29.13l.29-.25A9.19,9.19,0,0,0,31.9,8.83a11.8,11.8,0,0,1,.2,3.64A15.63,15.63,0,0,1,31.32,16Zm4,6H29.25l.39-4h2.18a2,2,0,0,1,2.11,2A2,2,0,0,1,31.83,22ZM18,22a2,2,0,1,1-2-2A2,2,0,0,1,18,22Zm8,0a2,2,0,1,1-2-2A2,2,0,0,1,26,22Z"/></svg>