<svg id="Ready" xmlns="http://www.w3.org/2000/svg" viewBox="0 0 40 40"><title>Megaicons_work_32_1.8_cp</title><path d="M7.7,36a3.6,3.6,0,0,0,3-1.54L15.13,28h9.94l4.44,6.46a3.64,3.64,0,0,0,5.74.28,3.58,3.58,0,0,0,.8-2.91L32.92,13a3.58,3.58,0,0,0-3.55-3h-3l-3.56,2H17.29l-3.42-2H10.82a3.58,3.58,0,0,0-3.55,3L4.15,31.82A3.59,3.59,0,0,0,7.7,36ZM6.12,32.15,9.25,13.33A1.59,1.59,0,0,1,10.82,12h2.52l3.42,2h6.54l3.56-2h2.53a1.59,1.59,0,0,1,1.57,1.33l3.12,18.82a1.58,1.58,0,0,1-.36,1.29,1.69,1.69,0,0,1-2.56-.12l-5-7.33h-12L9,33.32a1.65,1.65,0,0,1-2.52.12A1.58,1.58,0,0,1,6.12,32.15ZM14,24a4,4,0,1,0-4-4A4,4,0,0,0,14,24Zm0-6a2,2,0,1,1-2,2A2,2,0,0,1,14,18Zm13,0H25V16h2Zm-3,3H22V19h2Zm3,3H25V22h2Zm3-3H28V19h2Z"/></svg>