<svg id="Ready" xmlns="http://www.w3.org/2000/svg" viewBox="0 0 40 40"><title>Megaicons_work_32_1.8_cp</title><path d="M26.5,6.07A7.55,7.55,0,0,0,20,9.71a7.55,7.55,0,0,0-6.5-3.64C9.21,6.07,6,10.43,6,14.33a6.84,6.84,0,0,0,1,3.54c2.41,4,10,15.29,10.3,15.77l.3.44h5l.3-.43c.33-.47,8-11.66,10.21-15.84a8.29,8.29,0,0,0,.9-3.48C34,10.43,30.79,6.07,26.5,6.07Zm4.82,10.81C29.45,20.5,23,29.94,21.54,32.07H18.65c-1.45-2.17-7.84-11.74-10-15.24A4.83,4.83,0,0,1,8,14.33c0-2.83,2.45-6.25,5.5-6.25a5.46,5.46,0,0,1,5.36,4.07h2.29A5.46,5.46,0,0,1,26.5,8.08c3,0,5.5,3.42,5.5,6.25A6.3,6.3,0,0,1,31.32,16.88Z"/></svg>