<svg id="Ready" xmlns="http://www.w3.org/2000/svg" viewBox="0 0 32 32"><title>Megaicons_work_24_1.8_cp</title><path d="M11,22.38v3.24L16,28l5-2.38V22.38L16,20Zm8,2-3,1.5-3-1.5v-.76l3-1.5,3,1.5Z"/><path d="M23.9,9.62a10.62,10.62,0,0,0-4-2.5,4,4,0,0,0-7.79,0A10.56,10.56,0,0,0,7,23.32a1.48,1.48,0,0,0,0,.18A1.5,1.5,0,1,0,8.53,22a8.6,8.6,0,0,1,1-11,8.51,8.51,0,0,1,2.69-1.82A4,4,0,0,0,15,11.86v3.55a1.48,1.48,0,0,0-.5,1.1,1.5,1.5,0,0,0,3,0,1.48,1.48,0,0,0-.5-1.1V11.86a4,4,0,0,0,2.79-2.64A8.51,8.51,0,0,1,22.49,11a8.6,8.6,0,0,1,1,11A1.55,1.55,0,1,0,25,23.31,10.6,10.6,0,0,0,23.9,9.62ZM16,10a2,2,0,1,1,2-2A2,2,0,0,1,16,10Z"/></svg>