<svg xmlns="http://www.w3.org/2000/svg" viewBox="0 0 32 32"><path d="m21.21 14.79.36-.51a3.1 3.1 0 0 0 0-3.56L16.84 4h-1.68l-4.73 6.72a3.09 3.09 0 0 0 0 3.56L15.16 21h1.67l.68-1-1.21-1.7-.3.42-3.92-5.57a1.13 1.13 0 0 1 0-1.3L16 6.28l3.91 5.56A1.12 1.12 0 0 1 20 13Z"/><path d="M10.43 21.28 15.16 28h1.67l4.73-6.72a3.09 3.09 0 0 0 0-3.56L16.84 11h-1.68l-.84 1.19 1.22 1.73.45-.64 3.92 5.57a1.13 1.13 0 0 1 0 1.3L16 25.72l-3.91-5.56a1.12 1.12 0 0 1-.09-1.22l-1.21-1.72-.36.52a3.09 3.09 0 0 0 0 3.54Z"/></svg>