<svg xmlns="http://www.w3.org/2000/svg" viewBox="0 0 32 32"><path d="M24.74 7H5.33A3.3 3.3 0 0 0 2 10.29V22h3.1a4 4 0 0 0 7.72 0h6.28a4 4 0 0 0 7.72 0H30v-2.25c0-3-.42-7.43-2.4-11A3.32 3.32 0 0 0 24.74 7ZM22 9h2.7a1.33 1.33 0 0 1 1.15.69A15.21 15.21 0 0 1 27.2 13H22Zm-6 0h4v4h-4Zm-6 0h4v4h-4Zm-6 1.29A1.29 1.29 0 0 1 5.33 9H8v4H4ZM9 23a2 2 0 1 1 2-2 2 2 0 0 1-2 2Zm14 0a2 2 0 1 1 2-2 2 2 0 0 1-2 2Zm5-3.25V20h-1.18a4 4 0 0 0-7.72 0h-6.28a4 4 0 0 0-7.72 0H4v-5h23.65a28.16 28.16 0 0 1 .35 4.75Z"/></svg>