<svg viewBox="0 0 32 32" xmlns="http://www.w3.org/2000/svg">
<path d="M16 7C17.9711 7 19.831 7.7224 21.2758 9.0006L25 9C26.6569 9 28 10.3431 28 12V21C28 22.6569 26.6569 24 25 24H7C5.3431 24 4 22.6569 4 21V12C4 10.3431 5.3431 9 7.0002 9L10.7242 9.0006C12.169 7.7224 14.0289 7 16 7ZM16 9C14.4161 9 12.9314 9.6212 11.818 10.7143L11.5261 11.0008L7 11C6.4477 11 6 11.4477 6 12V21C6 21.5523 6.4477 22 7 22H25C25.5523 22 26 21.5523 26 21V12C26 11.4477 25.5523 11 25.0002 11L20.4739 11.0008L20.182 10.7143C19.0686 9.6212 17.584 9 16 9ZM16 11C18.7614 11 21 13.2386 21 16C21 18.7614 18.7614 21 16 21C13.2386 21 11 18.7614 11 16C11 13.2386 13.2386 11 16 11ZM16 13C14.3431 13 13 14.3431 13 16C13 17.6569 14.3431 19 16 19C17.6569 19 19 17.6569 19 16C19 14.3431 17.6569 13 16 13ZM23.4667 12C24.2767 12 24.9333 12.6566 24.9333 13.4667C24.9333 14.2767 24.2767 14.9333 23.4667 14.9333C22.6567 14.9333 22 14.2767 22 13.4667C22 12.6567 22.6566 12 23.4667 12Z"/>
</svg>
