<svg id="Ready" xmlns="http://www.w3.org/2000/svg" viewBox="0 0 32 32"><title>Megaicons_work_24_1.8_cp</title><path d="M8.89,16.51A3.19,3.19,0,0,0,7,19.35V28h8V21a1,1,0,0,1,2,0v7h8V19.35a3.21,3.21,0,0,0-1.92-2.85L20,15.13V12.67a3.65,3.65,0,0,0,2-3.21c0-2.12-1.75-2.84-3-3.37-1.06-.44-1.71-.75-1.87-1.35L16.9,4H15.1l-.2.74c-.16.6-.81.91-1.87,1.35-1.28.53-3,1.25-3,3.37a3.65,3.65,0,0,0,2,3.21v2.45Zm4.9-8.58A6.82,6.82,0,0,0,16,6.66a6.82,6.82,0,0,0,2.21,1.27C19.6,8.5,20,8.77,20,9.46A1.73,1.73,0,0,1,18.87,11H13.11A1.72,1.72,0,0,1,12,9.46C12,8.77,12.4,8.5,13.79,7.93ZM14,16.42V13h4v3.42l4.24,1.88a1.23,1.23,0,0,1,.76,1V26H19V21a3,3,0,0,0-4-2.85,3,3,0,0,0-2,2.94V26H9V19.35a1.21,1.21,0,0,1,.73-1Z"/><rect x="10" y="20" width="2" height="3"/><rect x="20" y="20" width="2" height="3"/></svg>