<svg viewBox="0 0 32 32" xmlns="http://www.w3.org/2000/svg"><path fill-rule="evenodd" clip-rule="evenodd" d="M7 7a1 1 0 0 1 1-1h16a1 1 0 0 1 1 1v18a1 1 0 0 1-1 1h-2.74l.74-5.7-.39-.3A9.72 9.72 0 0 0 16 18a9.72 9.72 0 0 0-5.61 2l-.39.3.74 5.7H8a1 1 0 0 1-1-1v-2H5v2a3 3 0 0 0 3 3h16a3 3 0 0 0 3-3V7a3 3 0 0 0-3-3H8a3 3 0 0 0-3 3v2h2V7Zm5.75 19h6.5l.62-4.8A7.63 7.63 0 0 0 16 20a7.63 7.63 0 0 0-3.87 1.2l.62 4.8Z"/><path d="M7 15H4v2h3v-2ZM4 11h3v2H4v-2ZM7 19H4v2h3v-2Z"/><path fill-rule="evenodd" clip-rule="evenodd" d="M16 17a4 4 0 1 0 0-8 4 4 0 0 0 0 8Zm0-2a2 2 0 1 0 0-4 2 2 0 0 0 0 4Z"/></svg>
