<svg xmlns="http://www.w3.org/2000/svg" viewBox="0 0 32 32" style="enable-background:new 0 0 32 32" xml:space="preserve"><path d="m30 16.9-3.8-2.4c-1.1-2.7-3.7-4.5-6.6-4.4h-.5v-4H2V24h6.4c.8 1.7 2.9 2.5 4.6 1.7.7-.3 1.3-.9 1.7-1.7h5.7c.8 1.7 2.9 2.5 4.6 1.7.7-.3 1.3-.9 1.7-1.7H30v-7.1zM4 8.1h13.1V15H4V8.1zM11.5 24c-.8 0-1.5-.7-1.5-1.5s.7-1.5 1.5-1.5 1.5.7 1.5 1.5-.7 1.5-1.5 1.5zm5.6-2H15c-.3-1.9-2-3.2-3.9-3-1.6.2-2.8 1.4-3 3H4v-5h13.1v5zm6.4 2c-.8 0-1.5-.7-1.5-1.5s.7-1.5 1.5-1.5 1.5.7 1.5 1.5-.7 1.5-1.5 1.5zm4.5-2h-1c-.3-1.9-2-3.2-3.9-3-1.6.2-2.8 1.4-3 3h-.9V12h.5c2.2 0 4.1 1.4 4.8 3.4l.1.3L28 18v4z"/></svg>