<svg viewBox="0 0 32 32" xmlns="http://www.w3.org/2000/svg"><g clip-path="url(#a)"><path d="M18 10v.711A4.044 4.044 0 0 0 15.556 10c-2.223 0-4.734 1.6-4.734 6s2.511 6 4.734 6a4.021 4.021 0 0 0 3.644-2 4.445 4.445 0 0 0 3.8 2 5.4 5.4 0 0 0 4.808-3.84c.21-.7.192-1.41.192-2.16a12 12 0 1 0-12 12 12.622 12.622 0 0 0 7.4-2.489l-.644-1.267a11.911 11.911 0 0 1-6.667 2.223A10.911 10.911 0 0 1 5.489 16 10.911 10.911 0 0 1 16 5.489 10.911 10.911 0 0 1 26.511 16c0 1.4-1.111 4.444-3.511 4.444-2.889 0-3.244-4.31-3.244-4.444v-6H18Zm-2.755 10.511c-1.6 0-3-1.911-3-4.444 0-2.534 1.666-4.445 3.244-4.445.911 0 2.755.49 2.755 4.445s-2.088 4.444-3 4.444Z"/></g><defs><clipPath id="a"><path transform="translate(4 4)" d="M0 0h24v24H0z"/></clipPath></defs></svg>