<svg version="1.1" xmlns="http://www.w3.org/2000/svg" xmlns:xlink="http://www.w3.org/1999/xlink" x="0px" y="0px"
	 viewBox="0 0 32 32" style="enable-background:new 0 0 32 32;" xml:space="preserve">
<path id="Shape" d="M22.8,3C24.56731,3,26,4.43269,26,6.2v19.6c0,1.76731-1.43269,3.2-3.2,3.2H9.2C7.43269,29,6,27.56731,6,25.8
	V12.2L13.8,3H22.8z M22.8,5h-8.074L8,12.933V25.8c0,0.62132,0.4722,1.13235,1.07731,1.19381L9.2,27h13.6
	c0.62132,0,1.13235-0.4722,1.19381-1.07731L24,25.8V6.2c0-0.62132-0.4722-1.13235-1.07731-1.1938L22.8,5z M16,10.00003
	c2.77076,0,5,2.32211,5,5.16664c0,0.96189-0.74078,1.75077-1.68297,1.82725l-0.15036,0.00608L13.004,17l0.00113,0.02029
	c0.08845,1.60787,1.31053,2.88221,2.81953,2.9744L16,20.00003l0.7902,0.00005c0.90392-0.00886,1.72992-0.41234,2.2797-1.09375
	l0.11351-0.15023l1.63319,1.15443c-0.86759,1.22739-2.2405,1.99031-3.76174,2.0807L16.8,22.00003H16
	c-2.69971,0-4.88532-2.2046-4.99563-4.94895L11,16.83333v-1.66666C11,12.32214,13.22924,10.00003,16,10.00003z M16,12.00003
	c-1.52984,0-2.80528,1.21476-2.97968,2.7957L13.004,15h5.991l-0.00013-0.02028c-0.08845-1.60785-1.31051-2.88216-2.81953-2.97435
	L16,12.00003z"/>
</svg>
