<svg xmlns="http://www.w3.org/2000/svg" viewBox="0 0 32 32" style="enable-background:new 0 0 32 32" xml:space="preserve"><path d="M22.8 3A3.2 3.2 0 0 1 26 6.2v19.6a3.2 3.2 0 0 1-3.2 3.2H9.2A3.2 3.2 0 0 1 6 25.8V12.2L13.8 3h9zm0 2h-8.074L8 12.933V25.8a1.2 1.2 0 0 0 1.077 1.194L9.2 27h13.6a1.2 1.2 0 0 0 1.194-1.077L24 25.8V6.2a1.2 1.2 0 0 0-1.077-1.194L22.8 5zM16 10c2.77 0 5 2.322 5 5.167 0 .962-.74 1.75-1.683 1.827l-.15.006h-6.163l.001.02c.089 1.608 1.31 2.882 2.82 2.975L16 20h.79a2.948 2.948 0 0 0 2.28-1.094l.113-.15 1.634 1.155a4.943 4.943 0 0 1-3.762 2.08L16.8 22H16c-2.7 0-4.885-2.205-4.996-4.949L11 16.833v-1.666C11 12.322 13.23 10 16 10zm0 2c-1.53 0-2.805 1.215-2.98 2.796l-.016.204h5.991v-.02c-.089-1.608-1.31-2.882-2.82-2.975L16 12z"/></svg>