<svg viewBox="0 0 32 32" xmlns="http://www.w3.org/2000/svg"><path d="M8.283 6.981 7.475 5.6C10.14 3.894 12.808 3 15.96 3c3.313 0 5.899.813 8.565 2.6l-.889 1.381c-2.424-1.625-4.686-2.356-7.676-2.356-2.829 0-5.172.813-7.677 2.356Zm-2.91 7.069L4 13.237C6.586 8.85 10.869 6.25 15.96 6.25c5.01 0 9.373 2.519 12.04 6.825l-1.374.813c-2.343-3.738-6.222-6.013-10.666-6.013-4.526 0-8.324 2.275-10.586 6.175Zm3.152 10.481-1.373.894c-1.374-2.194-1.697-3.575-1.697-6.175 0-4.875 4.848-9.75 10.505-9.75 6.141 0 10.505 4.387 10.505 8.938 0 2.68-1.697 4.062-4.04 4.062-.647 0-1.375-.081-1.94-.406a5.301 5.301 0 0 1-1.455-1.219 9.85 9.85 0 0 1-.808-1.137c-.242-.407-.404-.813-.727-1.22-.242-.324-.485-.568-.808-.73-.243-.163-.485-.163-.727-.163-2.344 0-2.91 1.625-1.697 4.55.485 1.137 1.454 2.194 2.666 3.25.728.569 1.455 1.056 2.182 1.544.242.162.485.325.727.406.162.081.243.081.243.163L19.434 29c-.08 0-.161-.081-.323-.163-.242-.162-.485-.243-.808-.406-.808-.487-1.616-1.056-2.424-1.625-1.455-1.219-2.586-2.437-3.152-3.819C11.111 19.008 12.242 16 15.96 16c.646 0 1.212.081 1.777.488.566.325.97.893 1.374 1.462.485.731.808 1.463 1.374 2.113.404.406.889.73 1.454.812h.566c1.535 0 2.424-.731 2.424-2.438 0-3.575-3.717-7.312-8.889-7.312-4.767 0-8.888 4.144-8.888 8.125-.081 2.356.161 3.413 1.373 5.281Zm4.768 1.463-1.131 1.137C9.98 25.02 8.687 22.337 8.687 19.25c0-3.575 3.475-6.5 7.273-6.5 3.393 0 5.333 1.544 7.191 5.363l-1.454.73c-1.616-3.25-3.07-4.387-5.737-4.387-2.99 0-5.657 2.275-5.657 4.875s1.131 4.794 2.99 6.663Zm9.131-1.869v1.625c-3.313 0-6.222-2.356-7.192-5.444l1.536-.487c.727 2.437 3.07 4.306 5.656 4.306Z"/></svg>
