<svg xmlns="http://www.w3.org/2000/svg" viewBox="0 0 32 32" style="enable-background:new 0 0 32 32" xml:space="preserve"><path d="M6.1 17.426a9.934 9.934 0 0 0 1.268 3.626l5.119-.002 1.542 4.756a10.048 10.048 0 0 0 3.942 0l1.542-4.756 5.119.002a9.934 9.934 0 0 0 1.267-3.626l-4.214-3.06 1.672-5.139a10.033 10.033 0 0 0-2.941-2.202L16 10.237l-4.416-3.212a10.033 10.033 0 0 0-2.941 2.202l1.672 5.14-4.214 3.059zm-.05-2.435 1.913-1.388-.765-2.353a9.935 9.935 0 0 0-1.148 3.741zm2.86 8.06c.797.803 1.73 1.47 2.76 1.966l-.637-1.967-2.124.001zm3.667 4.454-.09.029-.02-.062C7.564 25.963 4 21.398 4 16 4 9.373 9.373 4 16 4s12 5.373 12 12c0 5.398-3.564 9.963-8.467 11.472l-.02.062-.09-.03C18.338 27.828 17.19 28 16 28s-2.338-.173-3.423-.495zM23.09 23.05h-2.124l-.638 1.966a10.026 10.026 0 0 0 2.762-1.966zm2.859-8.06a9.935 9.935 0 0 0-1.148-3.74l-.765 2.352 1.913 1.388zM13.884 6.224 16 7.764l2.116-1.54a10.039 10.039 0 0 0-4.232 0zM16 11.764l4.029 2.927-1.54 4.736H13.51l-1.539-4.736L16 11.764zm-1.678 3.69.641 1.973h2.074l.64-1.972L16 14.236l-1.678 1.219z"/></svg>