<svg xmlns="http://www.w3.org/2000/svg" viewBox="0 0 32 32"><path d="M7 28a3 3 0 0 0 2.43-1.29L12.51 22h7l3.15 4.73A3 3 0 0 0 25 28a3 3 0 0 0 2.26-1.05 2.93 2.93 0 0 0 .74-2.38l-2.4-14.11A2.93 2.93 0 0 0 22.7 8h-2.56l-1.63 2h-5l-1.6-2H9.3a2.93 2.93 0 0 0-2.9 2.46L4 24.57a2.93 2.93 0 0 0 .66 2.37A3 3 0 0 0 7 28Zm-1-3.1 2.37-14.11A.94.94 0 0 1 9.3 10h1.61l1.6 2h6.95l1.63-2h1.61a.94.94 0 0 1 .93.79L26 24.9a.92.92 0 0 1-.21.75A1 1 0 0 1 25 26a.94.94 0 0 1-.77-.4L20.54 20h-9.1l-3.7 5.62A1 1 0 0 1 7 26a1 1 0 0 1-.74-.35.92.92 0 0 1-.26-.75Z"/><path d="M12 19a3 3 0 1 0-3-3 3 3 0 0 0 3 3Zm0-4a1 1 0 1 1-1 1 1 1 0 0 1 1-1ZM16.99 15h2v2h-2zM20.98 15h2v2h-2zM18.98 13h2v2h-2zM18.98 17h2v2h-2z"/></svg>