<svg xmlns="http://www.w3.org/2000/svg" viewBox="0 0 32 32"><path d="M15.63 4A12.33 12.33 0 0 0 4 16.46V23h3v1.75A3.25 3.25 0 0 0 10.25 28H13V17h-2.75A3.25 3.25 0 0 0 7 20.25V21H6v-4.54A10.32 10.32 0 0 1 15.69 6a10 10 0 0 1 8.58 4.36A10.21 10.21 0 0 1 26 16.23V21h-1v-.75A3.25 3.25 0 0 0 21.75 17H19v11h2.75A3.25 3.25 0 0 0 25 24.75V23h3v-6.72a12.33 12.33 0 0 0-2.32-7.39A12 12 0 0 0 15.63 4ZM9 20.25A1.25 1.25 0 0 1 10.25 19H11v7h-.75A1.25 1.25 0 0 1 9 24.75Zm14 4.5A1.25 1.25 0 0 1 21.75 26H21v-7h.75A1.25 1.25 0 0 1 23 20.25Z"/></svg>