<svg id="Ready" xmlns="http://www.w3.org/2000/svg" viewBox="0 0 32 32"><title>Megaicons_work_24_1.8_cp</title><path d="M6.08,23H15v3H11v2H21V26H17V23h8.92A3.08,3.08,0,0,0,29,19.93V7.07A3.08,3.08,0,0,0,25.92,4H6.08A3.08,3.08,0,0,0,3,7.07V19.93A3.08,3.08,0,0,0,6.08,23ZM5,7.07A1.08,1.08,0,0,1,6.08,6H25.92A1.08,1.08,0,0,1,27,7.07V19.93A1.08,1.08,0,0,1,25.92,21H6.08A1.08,1.08,0,0,1,5,19.93Z"/><circle cx="10.96" cy="13.5" r="1.5"/><circle cx="15.96" cy="13.5" r="1.5"/><circle cx="20.96" cy="13.5" r="1.5"/></svg>