<svg xmlns="http://www.w3.org/2000/svg" viewBox="0 0 32 32" style="enable-background:new 0 0 32 32" xml:space="preserve"><path d="M12.894 7.55c.07.306.106.624.106.95 0 2.504-2.164 4.5-4.795 4.5-.228 0-.454-.015-.677-.045A8.983 8.983 0 0 0 7 16a9 9 0 0 0 11.298 8.704 5 5 0 0 1 6.406-6.406A9 9 0 0 0 16 7a8.981 8.981 0 0 0-3.106.55zm-.892-1.8A10.975 10.975 0 0 1 16 5c6.075 0 11 4.925 11 11 0 1.167-.182 2.31-.534 3.396a5 5 0 1 1-7.07 7.07c-1.087.352-2.23.534-3.396.534-6.075 0-11-4.925-11-11a11 11 0 0 1 .48-3.226l-1.218.318-1.473-1.619.846-1.613A4.225 4.225 0 0 1 3.41 8.5C3.41 5.996 5.574 4 8.205 4c1.538 0 2.917.682 3.797 1.75zM23 26a3 3 0 1 0 0-6 3 3 0 0 0 0 6zm.361-2.16.472-.471L25 24.535l-.465.465h-.1A3.435 3.435 0 0 1 21 21.565v-.1l.465-.465 1.166 1.167-.472.472c.264.517.685.938 1.202 1.202zM5.444 10.718l.986-.258.345.185c.433.232.92.356 1.43.356C9.765 11 11 9.862 11 8.5S9.766 6 8.205 6 5.41 7.138 5.41 8.5c0 .34.077.67.227.982l.217.453-.41.782zm5.112 5.447c0 .23.058.407.173.53a.603.603 0 0 0 .461.183.537.537 0 0 0 .364-.115.397.397 0 0 0 .133-.317.37.37 0 0 0-.184-.328 3.601 3.601 0 0 0-.58-.277c-.23-.091-.452-.182-.665-.274-.214-.09-.401-.199-.562-.324s-.29-.273-.385-.446a1.32 1.32 0 0 1-.144-.648c0-.26.056-.481.169-.666.113-.185.263-.336.45-.454.187-.117.4-.204.637-.259a3.25 3.25 0 0 1 .738-.083c.37 0 .68.048.929.144.25.096.451.222.605.378.153.156.264.333.331.53.067.196.1.393.1.59H11.63c0-.418-.165-.626-.497-.626a.56.56 0 0 0-.324.093c-.09.063-.136.163-.136.303 0 .13.057.237.172.324a2 2 0 0 0 .519.252c.216.076.433.158.651.244.219.087.416.192.59.317.176.125.318.277.426.457s.162.4.162.66-.048.491-.144.698c-.096.206-.233.379-.41.518-.178.14-.394.246-.649.32a3.05 3.05 0 0 1-.857.112c-.316 0-.602-.04-.856-.122s-.472-.2-.652-.353c-.18-.154-.32-.345-.418-.573s-.147-.49-.147-.788h1.497zM16 18c-.432 0-.817-.073-1.156-.22a2.577 2.577 0 0 1-.856-.586 2.52 2.52 0 0 1-.533-.85 2.79 2.79 0 0 1-.184-1c0-.346.061-.68.184-1.002.122-.321.3-.604.533-.85.232-.244.518-.44.856-.586.339-.146.724-.22 1.156-.22.432 0 .818.074 1.16.22.34.146.627.342.86.587.232.245.41.528.532.85.123.321.184.655.184 1 0 .346-.061.68-.184 1.001s-.3.605-.532.85-.52.44-.86.586A2.91 2.91 0 0 1 16 18zm0-1.368a1.169 1.169 0 0 0 1.134-.803 1.446 1.446 0 0 0 0-.972 1.186 1.186 0 0 0-.62-.695c-.15-.072-.322-.108-.514-.108s-.364.036-.515.108a1.169 1.169 0 0 0-.619.695 1.446 1.446 0 0 0 0 .972 1.169 1.169 0 0 0 1.134.803zm4.314-.468c0 .23.058.407.173.53a.603.603 0 0 0 .46.183.537.537 0 0 0 .364-.115.397.397 0 0 0 .133-.317.37.37 0 0 0-.183-.328 3.601 3.601 0 0 0-.58-.277c-.23-.091-.452-.182-.666-.274-.213-.09-.4-.199-.561-.324s-.29-.273-.386-.446a1.32 1.32 0 0 1-.144-.648c0-.26.057-.481.17-.666.112-.185.262-.336.45-.454.187-.117.4-.204.637-.259a3.25 3.25 0 0 1 .738-.083c.37 0 .679.048.929.144.25.096.45.222.604.378.154.156.264.333.332.53.067.196.1.393.1.59h-1.497c0-.418-.166-.626-.497-.626a.56.56 0 0 0-.324.093c-.091.063-.137.163-.137.303 0 .13.058.237.173.324a2 2 0 0 0 .518.252c.216.076.434.158.652.244.218.087.415.192.59.317.176.125.317.277.425.457.108.18.162.4.162.66s-.048.491-.144.698c-.096.206-.233.379-.41.518-.178.14-.394.246-.648.32-.255.075-.54.112-.857.112s-.602-.04-.857-.122c-.254-.082-.471-.2-.651-.353s-.32-.345-.418-.573a1.974 1.974 0 0 1-.148-.788h1.498z"/></svg>