<?xml version="1.0" encoding="utf-8"?>
<svg version="1.1" id="Слой_1" xmlns="http://www.w3.org/2000/svg" xmlns:xlink="http://www.w3.org/1999/xlink" x="0px" y="0px"
	 viewBox="0 0 32 32" style="enable-background:new 0 0 32 32;" xml:space="preserve">
<path id="Shape" d="M12.89351,7.55019C12.96325,7.85595,13,8.17363,13,8.49994c0,2.5041-2.16416,4.49998-4.79507,4.49998
	c-0.22821,0-0.4543-0.01522-0.67702-0.04512C7.18051,13.92104,7,14.94713,7,16c0,4.97056,4.02944,9,9,9
	c0.78512,0,1.55558-0.10034,2.29796-0.29575C18.10514,24.17237,18,23.59846,18,23c0-2.76142,2.23858-5,5-5
	c0.59846,0,1.17237,0.10514,1.70425,0.29796C24.89965,17.55562,25,16.78515,25,16c0-4.97056-4.02944-9-9-9
	C14.92472,7,13.87744,7.18829,12.89351,7.55019L12.89351,7.55019z M12.00171,5.74948C13.26348,5.25692,14.6142,5,16,5
	c6.07513,0,11,4.92487,11,11c0,1.16666-0.18204,2.30918-0.53444,3.39584C27.41142,20.30555,28,21.58404,28,23
	c0,2.76142-2.23858,5-5,5c-1.41596,0-2.69446-0.58859-3.60416-1.53444C18.30907,26.81799,17.16657,27,16,27
	C9.92487,27,5,22.07513,5,16c0-1.10669,0.16384-2.19109,0.48082-3.22584l-1.21845,0.31821l-1.47289-1.61942l0.8455-1.61263
	C3.48689,9.42389,3.40987,8.96656,3.40987,8.49994c0-2.50411,2.16416-4.50002,4.79507-4.50002
	C9.74317,3.99992,11.12185,4.68222,12.00171,5.74948z M23,26c1.65685,0,3-1.34315,3-3s-1.34315-3-3-3s-3,1.34315-3,3
	S21.34315,26,23,26z M23.3612,23.8408l0.4722-0.4722L25,24.5352L24.5352,25h-0.1006C22.5376,25,21,23.4622,21,21.5654v-0.1006
	L21.4648,21l1.1666,1.1666l-0.4724,0.4722C22.4228,23.1558,22.8442,23.5774,23.3612,23.8408z M5.44423,10.71664l0.9856-0.2574
	l0.34549,0.18495c0.43259,0.23158,0.92062,0.35573,1.42962,0.35573C9.76581,10.99992,11,9.8617,11,8.49994
	c0-1.36177-1.2342-2.50002-2.79507-2.50002S5.40987,7.13818,5.40987,8.49994c0,0.33972,0.07748,0.67055,0.22706,0.98204
	l0.21734,0.45259L5.44423,10.71664z M10.55639,16.164c0,0.2304,0.0576,0.4068,0.1728,0.5292
	c0.1152,0.1224,0.2688,0.1836,0.4608,0.1836c0.1536,0,0.2748-0.0384,0.3636-0.1152c0.0888-0.0768,0.1332-0.1824,0.1332-0.3168
	c0-0.1392-0.0612-0.2484-0.1836-0.3276c-0.1224-0.0792-0.3156-0.1716-0.5796-0.2772c-0.2304-0.0912-0.4524-0.1824-0.666-0.2736
	c-0.2136-0.0912-0.4008-0.1992-0.5616-0.324s-0.2892-0.2736-0.3852-0.4464c-0.096-0.1728-0.144-0.3888-0.144-0.648
	c0-0.2592,0.0564-0.4812,0.1692-0.666c0.1128-0.1848,0.2628-0.336,0.45-0.4536c0.1872-0.1176,0.3996-0.204,0.6372-0.2592
	c0.2376-0.0552,0.4836-0.0828,0.738-0.0828c0.3696,0,0.6792,0.048,0.9288,0.144c0.2496,0.096,0.4512,0.222,0.6048,0.378
	c0.1536,0.156,0.264,0.3324,0.3312,0.5292c0.0672,0.1968,0.1008,0.3936,0.1008,0.5904h-1.4976c0-0.4176-0.1656-0.6264-0.4968-0.6264
	c-0.1248,0-0.2328,0.0312-0.324,0.0936c-0.0912,0.0624-0.1368,0.1632-0.1368,0.3024c0,0.1296,0.0576,0.2376,0.1728,0.324
	c0.1152,0.0864,0.288,0.1704,0.5184,0.252c0.216,0.0768,0.4332,0.1584,0.6516,0.2448c0.2184,0.0864,0.4152,0.192,0.5904,0.3168
	c0.1752,0.1248,0.3168,0.2772,0.4248,0.4572s0.162,0.3996,0.162,0.6588s-0.048,0.492-0.144,0.6984
	c-0.096,0.2064-0.2328,0.3792-0.4104,0.5184c-0.1776,0.1392-0.3936,0.246-0.648,0.3204c-0.2544,0.0744-0.54,0.1116-0.8568,0.1116
	c-0.3168,0-0.6024-0.0408-0.8568-0.1224s-0.4716-0.1992-0.6516-0.3528c-0.18-0.1536-0.3192-0.3444-0.4176-0.5724
	s-0.1476-0.4908-0.1476-0.7884H10.55639z M16,18c-0.432,0-0.8172-0.0732-1.1556-0.2196c-0.3384-0.1464-0.624-0.342-0.8568-0.5868
	c-0.2328-0.2448-0.4104-0.528-0.5328-0.8496c-0.1224-0.3216-0.1836-0.6552-0.1836-1.0008c0-0.3456,0.0612-0.6792,0.1836-1.0008
	c0.1224-0.3216,0.3-0.6048,0.5328-0.8496c0.2328-0.2448,0.5184-0.4404,0.8568-0.5868c0.3384-0.1464,0.7236-0.2196,1.1556-0.2196
	c0.432,0,0.8184,0.0732,1.1592,0.2196c0.3408,0.1464,0.6276,0.342,0.8604,0.5868c0.2328,0.2448,0.4104,0.528,0.5328,0.8496
	c0.1224,0.3216,0.1836,0.6552,0.1836,1.0008c0,0.3456-0.0612,0.6792-0.1836,1.0008s-0.3,0.6048-0.5328,0.8496
	S17.5,17.634,17.1592,17.7804C16.8184,17.9268,16.432,18,16,18z M16,16.632c0.192,0,0.3636-0.036,0.5148-0.108
	c0.1512-0.072,0.2784-0.1668,0.3816-0.2844c0.1032-0.1176,0.1824-0.2544,0.2376-0.4104c0.0552-0.156,0.0828-0.318,0.0828-0.486
	c0-0.168-0.0276-0.33-0.0828-0.486c-0.0552-0.156-0.1344-0.2928-0.2376-0.4104s-0.2304-0.2124-0.3816-0.2844
	c-0.1512-0.072-0.3228-0.108-0.5148-0.108s-0.3636,0.036-0.5148,0.108c-0.1512,0.072-0.2784,0.1668-0.3816,0.2844
	c-0.1032,0.1176-0.1824,0.2544-0.2376,0.4104c-0.0552,0.156-0.0828,0.318-0.0828,0.486c0,0.168,0.0276,0.33,0.0828,0.486
	c0.0552,0.156,0.1344,0.2928,0.2376,0.4104c0.1032,0.1176,0.2304,0.2124,0.3816,0.2844C15.6364,16.596,15.808,16.632,16,16.632z
	 M20.31404,16.164c0,0.2304,0.0576,0.4068,0.1728,0.5292c0.1152,0.1224,0.2688,0.1836,0.4608,0.1836
	c0.1536,0,0.2748-0.0384,0.3636-0.1152c0.0888-0.0768,0.1332-0.1824,0.1332-0.3168c0-0.1392-0.0612-0.2484-0.1836-0.3276
	c-0.1224-0.0792-0.3156-0.1716-0.5796-0.2772c-0.2304-0.0912-0.4524-0.1824-0.666-0.2736c-0.2136-0.0912-0.4008-0.1992-0.5616-0.324
	s-0.2892-0.2736-0.3852-0.4464c-0.096-0.1728-0.144-0.3888-0.144-0.648c0-0.2592,0.0564-0.4812,0.1692-0.666
	c0.1128-0.1848,0.2628-0.336,0.45-0.4536c0.1872-0.1176,0.3996-0.204,0.6372-0.2592c0.2376-0.0552,0.4836-0.0828,0.738-0.0828
	c0.3696,0,0.6792,0.048,0.9288,0.144c0.2496,0.096,0.4512,0.222,0.6048,0.378c0.1536,0.156,0.264,0.3324,0.3312,0.5292
	c0.0672,0.1968,0.1008,0.3936,0.1008,0.5904h-1.4976c0-0.4176-0.1656-0.6264-0.4968-0.6264c-0.1248,0-0.2328,0.0312-0.324,0.0936
	c-0.0912,0.0624-0.1368,0.1632-0.1368,0.3024c0,0.1296,0.0576,0.2376,0.1728,0.324c0.1152,0.0864,0.288,0.1704,0.5184,0.252
	c0.216,0.0768,0.4332,0.1584,0.6516,0.2448c0.2184,0.0864,0.4152,0.192,0.5904,0.3168c0.1752,0.1248,0.3168,0.2772,0.4248,0.4572
	c0.108,0.18,0.162,0.3996,0.162,0.6588s-0.048,0.492-0.144,0.6984c-0.096,0.2064-0.2328,0.3792-0.4104,0.5184
	c-0.1776,0.1392-0.3936,0.246-0.648,0.3204c-0.2544,0.0744-0.54,0.1116-0.8568,0.1116s-0.6024-0.0408-0.8568-0.1224
	c-0.2544-0.0816-0.4716-0.1992-0.6516-0.3528s-0.3192-0.3444-0.4176-0.5724c-0.0984-0.228-0.1476-0.4908-0.1476-0.7884H20.31404z"/>
</svg>
