<svg xmlns="http://www.w3.org/2000/svg" viewBox="0 0 32 32"><path d="M23.65 10C20 10 17.3 12.69 16 14.32 14.7 12.69 12 10 8.35 10A6.19 6.19 0 0 0 2 16a6.19 6.19 0 0 0 6.35 6C12 22 14.7 19.31 16 17.68c1.3 1.63 4 4.32 7.65 4.32A6.19 6.19 0 0 0 30 16a6.19 6.19 0 0 0-6.35-6ZM8.35 20.09A4.23 4.23 0 0 1 4 16a4.23 4.23 0 0 1 4.35-4.09c3.17 0 5.6 2.92 6.46 4.09-.81 1.17-3.27 4.09-6.46 4.09Zm15.29 0c-3.17 0-5.6-2.92-6.46-4.09.85-1.17 3.27-4.09 6.46-4.09A4.23 4.23 0 0 1 28 16a4.23 4.23 0 0 1-4.35 4.09Z"/></svg>