<svg viewBox="0 0 32 32" xmlns="http://www.w3.org/2000/svg"><path d="M16.8 4.8V3.2h-1.6v1.6C7.76 5.2 4 10.4 4 16.8c.8-.8 2.4-1.6 4-1.6s3.2.8 4 1.6c.64-.64 1.92-1.36 3.2-1.52V24c0 2.24-.64 3.2-2 3.2-1.36 0-2-.72-2-2.4H9.6c0 2.56 1.28 4 3.6 4 2.4 0 3.6-1.76 3.6-4.8v-8.72c1.28.24 2.56.88 3.2 1.52.8-.8 2.4-1.6 4-1.6s3.2.8 4 1.6c0-6.4-3.76-11.6-11.2-12Zm-.8 2c1.2 1.52 2 2.88 2.4 4.16.4 1.12.56 2.24.72 3.28-.96-.4-2.08-.64-3.12-.64s-2.16.32-3.2.72c.08-1.12.32-2.16.72-3.28C14 9.76 14.8 8.32 16 6.8ZM5.92 13.92c.88-4.16 3.84-6.88 8.32-7.44-1.04 1.44-1.76 2.72-2.24 4-.4 1.28-.72 2.56-.8 3.84-.96-.48-2.16-.8-3.2-.8-.72.08-1.44.16-2.08.4Zm14.8.48c-.08-1.28-.4-2.56-.8-3.92-.4-1.28-1.12-2.56-2.16-4 4.56.56 7.44 3.28 8.32 7.44-.64-.24-1.36-.32-2.08-.32-1.12 0-2.24.32-3.28.8Z"/></svg>