<svg xmlns="http://www.w3.org/2000/svg" viewBox="0 0 32 32"><path d="M7 16a9 9 0 1 0 9-9 9 9 0 0 0-9 9Zm2.08 1H11a13.49 13.49 0 0 0 1.1 4.83A7 7 0 0 1 9.08 17Zm13.84-2H21a13.49 13.49 0 0 0-1.1-4.83A7 7 0 0 1 22.92 15ZM21 17h1.95a7 7 0 0 1-3.05 4.83A13.49 13.49 0 0 0 21 17Zm-5-8c1.3 0 2.73 2.51 3 6h-6c.27-3.49 1.7-6 3-6Zm3 8c-.24 3.49-1.67 6-3 6s-2.73-2.51-3-6Zm-6.83-6.83A13.49 13.49 0 0 0 11 15H9.08a7 7 0 0 1 3.05-4.83Z"/><circle cx="16" cy="4.5" r="1.5"/><circle cx="26.5" cy="9.5" r="1.5"/><circle cx="5.5" cy="9.5" r="1.5"/><circle cx="5.5" cy="21.5" r="1.5"/><circle cx="16" cy="27.5" r="1.5"/><circle cx="26.5" cy="21.5" r="1.5"/></svg>