<svg xmlns="http://www.w3.org/2000/svg" viewBox="0 0 32 32"><path d="m17.85 15-1-.26 1 1.26ZM24 15h1v-1h-1ZM11.5 27l-1-.26-.3 1.26h1.3Zm2.65-10 1 .26-1-1.26ZM8 17H7v1h1ZM19 5V4h-.4l-.29.28Zm1.5 0 1 .26.3-1.26h-1.3ZM13 27v1h.4l.29-.28ZM8 15.5l-.69-.72-.31.29v.43Zm16 1 .69.72.31-.29v-.43Zm-6.15-.5H24v-2h-6.15Zm-5.38 11.26 2.64-10-1.93-.52-2.65 10ZM14.15 16H8v2h6.15ZM19 6h1.5V4H19Zm.53-1.26-2.64 10 1.93.52 2.65-10ZM13 26h-1.5v2H13Zm-4-9v-1.5H7V17Zm-.31-.78 11-10.5-1.38-1.44-11 10.5ZM23 15v1.5h2V15Zm.31.78-11 10.5 1.38 1.44 11-10.5Z"/></svg>