<svg xmlns="http://www.w3.org/2000/svg" viewBox="0 0 32 32">
  <path d="M17.85,15l-1-.26,1,1.26ZM24,15h1V14H24ZM11.5,27l-1-.26L10.2,28h1.3Zm2.65-10,1,.26-1-1.26ZM8,17H7v1H8ZM19,5V4h-.4l-.29.28Zm1.5,0,1,.26L21.8,4H20.5ZM13,27v1h.4l.29-.28ZM8,15.5l-.69-.72L7,15.07v.43Zm16,1,.69.72.31-.29V16.5ZM17.85,16H24V14H17.85ZM12.47,27.26l2.64-10-1.93-.52-2.65,10ZM14.15,16H8v2h6.15ZM19,6h1.5V4H19Zm.53-1.26-2.64,10,1.93.52,2.65-10ZM13,26H11.5v2H13ZM9,17V15.5H7V17Zm-.31-.78,11-10.5L18.31,4.28l-11,10.5ZM23,15v1.5h2V15Zm.31.78-11,10.5,1.38,1.44,11-10.5Z"/>
</svg>
