<svg xmlns="http://www.w3.org/2000/svg" viewBox="0 0 32 32"><path d="M7.5 15A3.5 3.5 0 1 0 4 11.5 3.5 3.5 0 0 0 7.5 15Zm0-5A1.5 1.5 0 1 1 6 11.5 1.5 1.5 0 0 1 7.5 10ZM24.5 8a3.5 3.5 0 1 0 3.5 3.5A3.5 3.5 0 0 0 24.5 8Zm0 5a1.5 1.5 0 1 1 1.5-1.5 1.5 1.5 0 0 1-1.5 1.5ZM16 15a4 4 0 1 0-4-4 4 4 0 0 0 4 4Zm0-6a2 2 0 1 1-2 2 2 2 0 0 1 2-2ZM12.74 26h6.72l1-9-.71-.28a9.72 9.72 0 0 0-7.23 0l-.71.28Zm5.53-7.68L17.66 24h-3.12l-.6-5.68a7.61 7.61 0 0 1 4.33 0ZM26.75 16.24a10.77 10.77 0 0 0-4.48 0l-.74.16L21 24h7l-.54-7.61ZM23.17 22l.25-3.93a8.72 8.72 0 0 1 2.2 0L26 22ZM11 24l-.54-7.61-.72-.15a10.77 10.77 0 0 0-4.48 0l-.74.16L4 24Zm-4.58-5.93a8.72 8.72 0 0 1 2.2 0L9 22H6.17Z"/></svg>