<svg xmlns="http://www.w3.org/2000/svg" viewBox="0 0 32 32"><path d="M22.62 6.4a3.53 3.53 0 0 1-3.42.37L13.66 4.4a5.84 5.84 0 0 0-5.48.66L4 8.19v18.22L5.92 28l3.47-2.35a3.54 3.54 0 0 1 3.42-.37l5.32 2.28a5.54 5.54 0 0 0 5.8-.92L28 23.08V5.59L26.08 4ZM11 23a5.57 5.57 0 0 0-2.81 1l-2.1 1.63-.09-.04V9.19l3.38-2.54A3.55 3.55 0 0 1 11 6Zm8 2.72h-.08l-5.32-2.28a5.34 5.34 0 0 0-.59-.19v-17l5.41 2.32a5.4 5.4 0 0 0 .59.21Zm7-3.58-3.39 3a3.49 3.49 0 0 1-1.61.79V9a5.6 5.6 0 0 0 2.82-1l2.1-1.66.08.08Z"/></svg>