<?xml version="1.0" encoding="utf-8"?>
<!-- Generator: Adobe Illustrator 23.0.4, SVG Export Plug-In . SVG Version: 6.00 Build 0)  -->
<svg version="1.1" id="Ready" xmlns="http://www.w3.org/2000/svg" xmlns:xlink="http://www.w3.org/1999/xlink" x="0px" y="0px"
	 viewBox="0 0 32 32" style="enable-background:new 0 0 32 32;" xml:space="preserve">
<title>Megaicons_work_24_1.8_cp</title>
<path d="M9.6,24.9c0.3-0.5,1-0.7,1.5-0.4s0.7,1,0.4,1.5c-0.3,0.5-1,0.7-1.5,0.4S9.3,25.5,9.6,24.9z M7.4,23c0.4-0.4,1.1-0.4,1.6,0
	s0.4,1.1,0,1.6s-1.1,0.4-1.6,0S7,23.4,7.4,23z M5.9,20.6c0.5-0.3,1.2-0.1,1.5,0.4c0.3,0.5,0.1,1.2-0.4,1.5s-1.2,0.1-1.5-0.4
	C5.2,21.5,5.4,20.9,5.9,20.6z M16,4C9.4,4,4,9.4,4,16c0,1.1,0.1,2.1,0.4,3.1l1.9-0.5C4.9,13.3,8.1,7.8,13.4,6.3s10.8,1.7,12.2,7.1
	c1.4,5.3-1.7,10.8-7.1,12.2c-1.7,0.5-3.5,0.5-5.2,0l-0.5,1.9c6.4,1.7,13-2.1,14.7-8.5c1.7-6.4-2.1-13-8.5-14.7C18.1,4.1,17.1,4,16,4
	z M19.4,10H12l0,12h7.4v-2H14v-3h4.6v-2H14v-3h5.4V10z"/>
</svg>
