<svg xmlns="http://www.w3.org/2000/svg" viewBox="0 0 32 32"><path d="M7.238 9.569c.5.3.7 1 .4 1.5-.3.5-1 .7-1.5.4-.5-.3-.7-1-.4-1.5.3-.5.9-.7 1.5-.4zm1.9-2.2c.4.4.4 1.1 0 1.6s-1.1.4-1.6 0c-.4-.4-.4-1.1 0-1.6s1.2-.4 1.6 0zm2.4-1.5c.3.5.1 1.2-.4 1.5s-1.2.1-1.5-.4-.1-1.2.4-1.5c.6-.3 1.2-.1 1.5.4zm16.6 10.1c0 4.7-2.8 9-7 11s-9.2 1.3-12.8-1.7-5.1-7.8-3.9-12.3l1.9.5c-1.1 4.3.8 8.9 4.7 11.2s8.9 1.6 12.1-1.6 3.8-8.1 1.6-12.1-6.8-5.9-11.2-4.7l-.5-1.9c3.6-.9 7.4-.1 10.4 2.1s4.7 5.8 4.7 9.5zm-16.43 5.738-1.415-1.414 10-10 1.414 1.414-10 10zM12 16a3 3 0 1 1 0-6 3 3 0 0 1 0 6zm0-2a1 1 0 1 0 0-2 1 1 0 0 0 0 2zm8 8a3 3 0 1 1 0-6 3 3 0 0 1 0 6zm0-2a1 1 0 1 0 0-2 1 1 0 0 0 0 2z"/></svg>