<svg xmlns="http://www.w3.org/2000/svg" viewBox="0 0 32 32" style="enable-background:new 0 0 32 32" xml:space="preserve"><path d="M9.6 24.9c.3-.5 1-.7 1.5-.4s.7 1 .4 1.5c-.3.5-1 .7-1.5.4s-.7-.9-.4-1.5zM7.4 23c.4-.4 1.1-.4 1.6 0s.4 1.1 0 1.6c-.4.4-1.1.4-1.6 0s-.4-1.2 0-1.6zm-1.5-2.4c.5-.3 1.2-.1 1.5.4.3.5.1 1.2-.4 1.5s-1.2.1-1.5-.4c-.3-.6-.1-1.2.4-1.5zM16 4c-3.7 0-7.3 1.7-9.5 4.7s-3 6.8-2.1 10.4l1.9-.5c-1.2-4.4.7-9 4.7-11.2S19.9 5.8 23.1 9s3.9 8.2 1.6 12.1-6.9 5.8-11.2 4.7l-.5 1.9c4.5 1.2 9.3-.3 12.3-3.9S29 15.2 27 11s-6.3-7-11-7zm1 5h-4v6h-2v2h2v2h-2v2h2v2h2v-2h4v-2h-4v-2h2c2.2 0 4-1.8 4-4s-1.8-4-4-4zm0 6h-2v-4h2c1.1 0 2 .9 2 2s-.9 2-2 2z"/></svg>