<svg xmlns="http://www.w3.org/2000/svg" viewBox="0 0 32 32" style="enable-background:new 0 0 32 32" xml:space="preserve"><path d="M9.6 24.9c.3-.5 1-.7 1.5-.4s.7 1 .4 1.5c-.3.5-1 .7-1.5.4s-.7-.9-.4-1.5zM7.4 23c.4-.4 1.1-.4 1.6 0s.4 1.1 0 1.6-1.1.4-1.6 0-.4-1.2 0-1.6zm-1.5-2.4c.5-.3 1.2-.1 1.5.4.3.5.1 1.2-.4 1.5s-1.2.1-1.5-.4c-.3-.6-.1-1.2.4-1.5zM16 4C9.4 4 4 9.4 4 16c0 1.1.1 2.1.4 3.1l1.9-.5C4.9 13.3 8.1 7.8 13.4 6.3S24.2 8 25.6 13.4c1.4 5.3-1.7 10.8-7.1 12.2-1.7.5-3.5.5-5.2 0l-.5 1.9c6.4 1.7 13-2.1 14.7-8.5 1.7-6.4-2.1-13-8.5-14.7-.9-.2-1.9-.3-3-.3zm3.4 6H12v12h7.4v-2H14v-3h4.6v-2H14v-3h5.4v-2z"/></svg>