<svg xmlns="http://www.w3.org/2000/svg" viewBox="0 0 65 32"><path d="M33 12h-2v2h-2v2h2v2h2v-2h2v-2h-2v-2zM26 24V7.21L13.46 4 12 5.14v12.41a4 4 0 0 0-2-.55 4 4 0 1 0 4 4v-9.73l10 2.5v6.78a4 4 0 0 0-2-.55 4 4 0 1 0 4 4Zm-16-1a2 2 0 1 1 2-2 2 2 0 0 1-2 2Zm12 3a2 2 0 1 1 2-2 2 2 0 0 1-2 2Zm2-14.29L14 9.2v-3l10 2.56ZM46 11.91v8.17l1.32.92L56 17.22v-2.58L47.25 11Zm2 1.58 6 2.44-6 2.54Z"/><path d="M59.74 7H42.26A3.27 3.27 0 0 0 39 10.26v11.48A3.27 3.27 0 0 0 42.26 25h17.49A3.25 3.25 0 0 0 63 21.75V10.26A3.27 3.27 0 0 0 59.74 7ZM61 21.75A1.25 1.25 0 0 1 59.75 23H42.26A1.27 1.27 0 0 1 41 21.74V10.26A1.27 1.27 0 0 1 42.26 9h17.48A1.27 1.27 0 0 1 61 10.26Z"/></svg>