<svg viewBox="0 0 32 32" xmlns="http://www.w3.org/2000/svg"><path fill-rule="evenodd" clip-rule="evenodd" d="M6 25v-3.88l1.64-1.63v-4.08a8.46 8.46 0 0 1 5.46-8.17 2.93 2.93 0 0 1 1.547-1.96c.42-.204.886-.3 1.353-.28a2.82 2.82 0 0 1 2.41 1.17c.234.32.4.684.49 1.07a8.46 8.46 0 0 1 5.46 8.17v4.08L26 21.12V25h-6.54c.015.166.015.334 0 .5a3.5 3.5 0 1 1-7 0 2.747 2.747 0 0 1 0-.5H6Zm18-2v-1l-1.64-1.63v-4.96A6.43 6.43 0 0 0 17.73 9L17 8.75V8a1.27 1.27 0 0 0-.21-.67A.9.9 0 0 0 16 7a.9.9 0 0 0-.79.33A1.27 1.27 0 0 0 15 8v.75l-.73.25a6.43 6.43 0 0 0-4.63 6.45v4.91L8 22v1h16Zm-9.41 2c-.06.16-.091.33-.09.5a1.5 1.5 0 1 0 3 0 1.39 1.39 0 0 0-.09-.5h-2.82Z"/></svg>