<svg viewBox="0 0 40 40" xmlns="http://www.w3.org/2000/svg">
<path d="M23 8C23 7.20435 22.6839 6.44129 22.1213 5.87868C21.5587 5.31607 20.7956 5 20 5C19.2044 5 18.4413 5.31607 17.8787 5.87868C17.3161 6.44129 17 7.20435 17 8C14.962 8.65725 13.1856 9.94526 11.9273 11.678C10.6691 13.4108 9.99417 15.4986 10 17.64V24.57L8 26.57V31H32V26.57L30 24.57V17.65C30.008 15.5069 29.334 13.4168 28.0756 11.6821C26.8172 9.94729 25.0397 8.65777 23 8Z" />
<path d="M17.49 33C17.3443 33.1243 17.2256 33.2772 17.1413 33.4492C17.057 33.6212 17.0089 33.8087 17 34C17 34.7956 17.3161 35.5587 17.8787 36.1213C18.4413 36.6839 19.2044 37 20 37C20.7956 37 21.5587 36.6839 22.1213 36.1213C22.6839 35.5587 23 34.7956 23 34C22.9911 33.8087 22.943 33.6212 22.8587 33.4492C22.7744 33.2772 22.6557 33.1243 22.51 33H17.49Z" />
</svg>
