<svg xmlns="http://www.w3.org/2000/svg" viewBox="0 0 32 32" style="enable-background:new 0 0 32 32" xml:space="preserve"><path d="M18 25H6.6A2.6 2.6 0 0 1 4 22.4v-7.8A2.6 2.6 0 0 1 6.6 12h13.895v.002L20.6 12h4.8a2.6 2.6 0 0 1 2.6 2.6v10.8a2.6 2.6 0 0 1-2.6 2.6h-4.8a2.6 2.6 0 0 1-2.6-2.6V25zm.07-11H6.6a.6.6 0 0 0-.6.6v7.8a.6.6 0 0 0 .6.6H18v-8.4c0-.206.024-.407.07-.6zM26 25.4V14.6a.6.6 0 0 0-.6-.6h-4.8a.6.6 0 0 0-.6.6v10.8a.6.6 0 0 0 .6.6h4.8a.6.6 0 0 0 .6-.6zm-3 .2a.8.8 0 1 1 0-1.6.8.8 0 0 1 0 1.6zM11 28v-2h6v2h-6zm3.426-17.2a.8.8 0 1 1 0-1.6.8.8 0 0 1 0 1.6zm2.988-3.366L16 8.848a2.2 2.2 0 0 0-3.111 0l-1.414-1.414a4.2 4.2 0 0 1 5.94 0zm2.263-2.263-1.414 1.415a5.4 5.4 0 0 0-7.637 0L9.212 5.17a7.4 7.4 0 0 1 10.465 0z"/></svg>