<svg xmlns="http://www.w3.org/2000/svg" viewBox="0 0 32 32"><path d="M10 12a5 5 0 1 0-5-5 5 5 0 0 0 5 5Zm0-8a3 3 0 1 1-3 3 3 3 0 0 1 3-3ZM14.93 28l.14-1.28A8.4 8.4 0 0 0 19.52 28a8.5 8.5 0 1 0-6.84-13.5A8.35 8.35 0 0 0 10 14a9.74 9.74 0 0 0-5.61 1.95L4 16.3 5.51 28Zm4.59-15A6.5 6.5 0 1 1 13 19.5a6.5 6.5 0 0 1 6.52-6.5ZM10 16a5.79 5.79 0 0 1 1.63.28 8.47 8.47 0 0 0 1.55 8.89l-.09.82H7.26L6.13 17.2A7.61 7.61 0 0 1 10 16Z"/><path d="M17 24h2v-1h2v-2h-2v-1h1.17A2.84 2.84 0 0 0 23 17.1v-.15A3 3 0 0 0 20 14h-3v4h-1v2h1v1h-1v2h1Zm3-8a1 1 0 0 1 1 1c0 .28-.12 1-.84 1H19v-2Z"/></svg>