<svg xmlns="http://www.w3.org/2000/svg" viewBox="0 0 32 32" style="enable-background:new 0 0 32 32" xml:space="preserve"><path d="M20 14h-3v4h-1v2h1v1h-1v2h1v1h2v-1h2v-2h-2v-1h1.2c1.6 0 2.8-1.3 2.8-2.9v-.2c0-1.6-1.4-2.9-3-2.9zm.1 4H19v-2h1c.6 0 1 .4 1 1 0 .3-.1 1-.9 1zm.9-6.9V7.2C21 5.5 19.5 4 17.7 4H9.3C7.5 4 6 5.4 6 7.2v17.5C6 26.5 7.5 28 9.3 28h10.2c4.7 0 8.5-3.8 8.5-8.5-.1-4.1-3-7.6-7-8.4zM9.3 26c-.7 0-1.3-.6-1.3-1.3V7.2C8 6.6 8.6 6 9.3 6h8.5c.6 0 1.2.6 1.2 1.2V11c-4.7.2-8.3 4.2-8.1 8.9.1 2.4 1.2 4.6 3.1 6.1H9.3zm10.2 0c-3.6 0-6.5-2.9-6.5-6.5s2.9-6.5 6.5-6.5 6.5 2.9 6.5 6.5-2.9 6.5-6.5 6.5zM11 7h5v2h-5V7z"/></svg>