<svg xmlns="http://www.w3.org/2000/svg" viewBox="0 0 32 32" style="enable-background:new 0 0 32 32" xml:space="preserve"><path d="M18.832 11.026a6.5 6.5 0 1 0-7.806 7.806 8.502 8.502 0 0 1 7.806-7.806zm-7.72 9.861a8.5 8.5 0 1 1 9.775-9.775 8.5 8.5 0 1 1-9.775 9.775zM19.5 26a6.5 6.5 0 1 0 0-13 6.5 6.5 0 0 0 0 13zm-8.93-13.544a4.325 4.325 0 0 0 1.886-1.885l-.74-.741L13.545 8l.854.855v.157A5.387 5.387 0 0 1 9.013 14.4h-.158L8 13.545l1.83-1.83.74.741zM19 17.998 17.5 18V23h-2v-7l3.5-.002v2zm3.25 2.502h-.75v.5h.75a.25.25 0 0 0 0-.5zM21.5 18v.5h.75a2.25 2.25 0 0 1 0 4.5H19.5v-7h4v2h-2z"/></svg>