<?xml version="1.0" encoding="utf-8"?>
<svg version="1.1" id="Слой_1" xmlns="http://www.w3.org/2000/svg" xmlns:xlink="http://www.w3.org/1999/xlink" x="0px" y="0px"
	 viewBox="0 0 32 32" style="enable-background:new 0 0 32 32;" xml:space="preserve">
<path id="Shape" d="M18.83212,11.02585C18.16437,8.14614,15.58281,6,12.5,6C8.91015,6,6,8.91015,6,12.5
	c0,3.08281,2.14614,5.66437,5.02585,6.33212C11.34934,14.67025,14.67025,11.34934,18.83212,11.02585L18.83212,11.02585z
	 M11.11266,20.88734C7.07815,20.22502,4,16.72198,4,12.5C4,7.80558,7.80558,4,12.5,4c4.22198,0,7.72502,3.07815,8.38734,7.11266
	C24.92185,11.77498,28,15.27802,28,19.5c0,4.69442-3.80558,8.5-8.5,8.5C15.27802,28,11.77498,24.92185,11.11266,20.88734
	L11.11266,20.88734z M19.5,26c3.58985,0,6.5-2.91015,6.5-6.5S23.08985,13,19.5,13S13,15.91015,13,19.5S15.91015,26,19.5,26z
	 M10.57067,12.45647c0.81098-0.41349,1.472-1.07482,1.8858-1.8858l-0.74102-0.74071L13.54541,8L14.4,8.8549v0.15749
	C14.4,11.98808,11.98808,14.4,9.01271,14.4H8.8549L8,13.54541l1.82996-1.82965L10.57067,12.45647z M19.00062,17.99845L17.5,17.99938
	V23h-2v-6.99938l3.49938-0.00218L19.00062,17.99845z M22.25,20.5H21.5V21h0.75c0.13807,0,0.25-0.11193,0.25-0.25
	S22.38807,20.5,22.25,20.5z M21.5,18v0.5h0.75c1.24264,0,2.25,1.00736,2.25,2.25S23.49264,23,22.25,23H19.5v-7h4v2H21.5z"/>
</svg>
