<svg xmlns="http://www.w3.org/2000/svg" viewBox="0 0 32 32" style="enable-background:new 0 0 32 32" xml:space="preserve"><path d="m16.4 24.8-.7-3.5 2.8-2.8 3.7 8.6 1.6.3 3.2-3.2-2.8-11.4 2.4-2.4c.7-.7 1.2-1.7 1.3-2.6.1-1-.2-2-.9-2.7-1.4-1.4-3.8-1.2-5.3.4l-2.4 2.4-11.4-3-3.2 3.2.3 1.7 8.6 3.7-2.8 2.8-3.5-.7L4 18.8l.3 1.6 5.1 2.1 2.1 5.1 1.6.3 3.3-3.1zm8.5-1.4-1.4 1.4-4.3-9.9-5.7 5.7.7 3.5-1.4 1.4L11 21l-4.5-1.9 1.4-1.4 3.5.7 5.7-5.7-9.9-4.2 1.4-1.4L20 9.9l3.2-3.2c.8-.8 1.9-.9 2.5-.4.2.3.3.7.3 1.1 0 .5-.3 1-.7 1.4L22 12.1l2.9 11.3z"/></svg>