<svg viewBox="0 0 32 32" xmlns="http://www.w3.org/2000/svg"><g clip-path="url(#a)"><path d="M24.922 10c1.296 0 2.692.5 3.589 1.4.897.9 1.396 2.3 1.396 3.6v2c0 1.3-.499 2.7-1.396 3.6-.897.9-2.293 1.4-3.589 1.4H6.978c-1.296 0-2.691-.5-3.589-1.4-.897-.9-1.395-2.2-1.395-3.5v-2.2c0-1.3.498-2.6 1.395-3.5.898-.9 2.293-1.4 3.59-1.4h17.943Zm.1-2H6.879c-1.795 0-3.59.7-4.885 2C.698 11.3 0 13 0 14.9v2.2c0 1.8.698 3.6 1.994 4.9 1.296 1.3 2.99 2 4.885 2H25.12c1.795 0 3.59-.7 4.885-2C31.302 20.7 32 19 32 17.1v-2.2c0-1.8-.698-3.6-1.994-4.9-1.396-1.3-3.19-2-4.984-2Z"/><path d="M4 19h1.3V17.22c.19.393.604.672 1.178.672.894 0 1.614-.68 1.614-2.04v-.06c0-1.352-.72-2.047-1.607-2.047-.574 0-.966.317-1.184.695v-.59H4V19Zm2.02-2.142c-.472 0-.755-.34-.755-1.012v-.06c0-.665.283-1.02.755-1.02.458 0 .749.332.749 1.027v.06c0 .65-.262 1.005-.749 1.005ZM8.67 17.803h1.3v-1.874c0-.634.437-.891 1.229-.868v-1.262c-.589-.008-.988.25-1.228.839v-.786H8.67v3.95ZM13.603 17.893c1.148 0 1.81-.506 1.926-1.397h-1.221c-.05.264-.232.468-.661.468-.465 0-.756-.302-.793-.823h2.675v-.355c0-1.42-.894-2.04-1.933-2.04-1.148 0-2.057.8-2.057 2.07v.06c0 1.292.872 2.017 2.064 2.017Zm-.734-2.515c.066-.476.334-.74.727-.74.421 0 .647.264.668.74H12.87ZM17.85 15.729c0 .369-.324.668-.725.668-.401 0-.727-.3-.727-.668 0-.37.326-.668.727-.668.4 0 .726.299.726.668ZM20.479 18.05c1.26 0 2.02-.684 2.02-1.724 0-1.06-.6-1.663-1.512-1.663-.62 0-.975.253-1.163.52l.028-1.08h2.326v-1.027h-3.357l-.105 2.88h.85c.167-.191.418-.349.822-.349.432 0 .676.26.676.698 0 .39-.188.691-.6.691-.459 0-.598-.226-.647-.568h-1.296c.035.917.634 1.622 1.958 1.622ZM25.561 18.049c1.61 0 2.438-.938 2.438-2.183v-.602h-2.34v.979h.933c-.028.39-.293.739-.989.739-.864 0-1.163-.616-1.163-1.41v-.054c0-.883.425-1.417 1.128-1.417.53 0 .829.24.899.698h1.414C27.783 13.527 26.738 13 25.56 13c-1.497 0-2.612 1.006-2.612 2.497v.055c0 1.464.92 2.497 2.612 2.497Z"/></g><defs><clipPath id="a"><path fill="#fff" d="M0 0h32v32H0z"/></clipPath></defs></svg>