<svg viewBox="0 0 32 32" xmlns="http://www.w3.org/2000/svg">
<path d="M23 28L25 20.57L24.68 20.26C22.3025 18.1157 19.2013 16.9509 16 17C12.7975 16.9547 9.69652 18.1229 7.32 20.27L7 20.57L9 28H23Z"/>
<path d="M10 9C10 10.1867 10.3519 11.3467 11.0112 12.3334C11.6705 13.3201 12.6075 14.0892 13.7039 14.5433C14.8003 14.9974 16.0067 15.1162 17.1705 14.8847C18.3344 14.6532 19.4035 14.0818 20.2426 13.2426C21.0818 12.4035 21.6532 11.3344 21.8847 10.1705C22.1162 9.00666 21.9974 7.80026 21.5433 6.7039C21.0892 5.60754 20.3201 4.67047 19.3334 4.01118C18.3467 3.35189 17.1867 3 16 3C14.4087 3 12.8826 3.63214 11.7574 4.75736C10.6321 5.88258 10 7.4087 10 9Z"/>
</svg>
