<svg viewBox="0 0 32 32" xmlns="http://www.w3.org/2000/svg">
<path d="M20 4C21.6569 4 23 5.2398 23 6.7692V11C24.5977 11 25.9037 12.249 25.995 13.8237L26 14V16H23V25.2308C23 26.7602 21.6569 28 20 28H11C9.3431 28 8 26.7602 8 25.2308V6.7692C8 5.2398 9.3431 4 11 4H20ZM11.5 13C10.7203 13 10.0796 13.5949 10.0069 14.3555L10 14.5V25.091C10 25.593 10.4477 26 11 26H20C20.5523 26 21 25.593 21 25.091V16H13V14.5C13 13.6716 12.3284 13 11.5 13ZM15.5 22C16.3284 22 17 22.6716 17 23.5C17 24.3284 16.3284 25 15.5 25C14.6716 25 14 24.3284 14 23.5C14 22.6716 14.6716 22 15.5 22ZM23 14H24C24 13.4872 23.614 13.0645 23.1166 13.0067L23 13H14.6632C14.8109 13.3108 14.9141 13.647 14.9646 14H23ZM20 6H11C10.4477 6 10 6.407 10 6.909V11.3368V11H21V6.909C21 6.407 20.5523 6 20 6Z"/>
</svg>
