<svg xmlns="http://www.w3.org/2000/svg" viewBox="0 0 32 32"><path d="M19.9 20.56 18.43 19 17 20.38 19.45 23h.89l4.44-4.68-1.46-1.38-3.42 3.62z"/><path d="M29 19.67a8.31 8.31 0 0 0-10.3-8.09 8.33 8.33 0 0 0-16.7.75 8.25 8.25 0 0 0 .54 2.94L1 18l2 2.71 3.58-1a8.2 8.2 0 0 0 5.77.68 8.32 8.32 0 0 0 12.1 6.66l3.32.92L30 25.5l-1.57-2.89a8.25 8.25 0 0 0 .57-2.94Zm-18.6-1a6.32 6.32 0 0 1-3.17-.86l-.29-.17-3.09.78-.49-.65 1.4-2.47-.18-.41a6.33 6.33 0 1 1 5.79 3.77ZM27 25.7l-2.84-.77-.36.21a6.32 6.32 0 0 1-9.51-5.46 8.35 8.35 0 0 0 4.28-6 6.33 6.33 0 0 1 7.84 8.55l-.18.41 1.17 2.55Z"/><circle cx="10.37" cy="16" r="1.1"/><path d="M10.37 8a3 3 0 0 0-3 3h2a1 1 0 1 1 1.71.71 1 1 0 0 1-.7.29h-.87v2h.87a3 3 0 0 0 0-6Z"/></svg>