<svg xmlns="http://www.w3.org/2000/svg" viewBox="0 0 32 32">
    <path fill-rule="evenodd" clip-rule="evenodd" d="M14.635 4.898 15.4 4h1.19c2.161 2.3 3.65 3.957 4.784 6.293l.004.01.004.009c.623 1.622.976 3.39.991 5.16 2.163 1.679 3.485 4.235 3.626 7.082v.994h-3.486v1.484H9.486v-1.484H6v-.988c.07-2.851 1.393-5.488 3.635-7.1.144-1.677.426-3.223.98-4.772l.004-.01c.911-2.216 2.838-4.428 3.785-5.515l.23-.265Zm-1.663 21.138h6.056V28h-6.056v-1.964Zm-3.467-7.811c-.774.98-1.314 2.123-1.523 3.359h1.504V21h1.874v2.068h9.28V21h1.874v.584h1.563c-.259-1.27-.781-2.43-1.563-3.37v1.468H20.64c-.004-2.088-.09-4.054-.251-5.444-.165-1.429-.405-2.475-.703-3.146-.83-1.764-2.372-3.634-3.67-4.903-1.386 1.283-2.81 3.159-3.698 5.264-.601 1.567-.949 4.456-.958 8.23H9.486c0-.462.002-1.063.019-1.458Z"/>
    <path fill-rule="evenodd" clip-rule="evenodd" d="M16.049 11.96a1.149 1.149 0 1 0 0 2.297 1.149 1.149 0 0 0 0-2.297Zm-3.15 1.148a3.149 3.149 0 1 1 6.298 0 3.149 3.149 0 0 1-6.297 0Z"/>
</svg>
