<svg xmlns="http://www.w3.org/2000/svg" viewBox="0 0 32 32"><path d="M10 21.83v3.56a1.5 1.5 0 1 0 2 0v-4.24a6.93 6.93 0 0 1 4-1 6.89 6.89 0 0 1 4 1.05v4.21a1.5 1.5 0 1 0 2 0v-3.59c2.46-1.05 5-3.44 5-6.39 0-3.78-2.85-5.58-5.37-7.16-2-1.26-3.9-2.46-4.39-4.5L17.06 3h-2.12l-.18.77c-.49 2-2.38 3.23-4.39 4.5C7.85 9.85 5 11.64 5 15.42c0 2.98 2.55 5.37 5 6.41Zm15-6.41c0 1.84-1.65 3.52-3.44 4.4a7.36 7.36 0 0 0-3.15-1.43l5-6.36A4.47 4.47 0 0 1 25 15.42Zm-6.6-6.93c.7.53 1.45 1 2.17 1.46.46.29.89.57 1.31.85l-5.81 7.33H16a8.61 8.61 0 0 0-5.6 1.7 7.61 7.61 0 0 1-.68-.38Zm-7 1.46A13 13 0 0 0 16 6a7.29 7.29 0 0 0 .91 1.21l-8.72 11A4.18 4.18 0 0 1 7 15.42c0-2.67 2.05-3.97 4.43-5.42Z"/></svg>