<svg xmlns="http://www.w3.org/2000/svg" viewBox="0 0 32 32"><path d="M16 20.5a4.5 4.5 0 1 0-4.5-4.5 4.5 4.5 0 0 0 4.5 4.5Zm0-7a2.5 2.5 0 1 1-2.5 2.5 2.5 2.5 0 0 1 2.5-2.5Z"/><path d="M6.57 21 6 22.95 9.05 26l1.9-.59a1.64 1.64 0 0 1 1.95.81l.92 1.78h4.35l.92-1.76a1.64 1.64 0 0 1 1.91-.81l1.9.59 3.1-3.07-.57-1.95a1.64 1.64 0 0 1 .81-1.95l1.76-.87v-4.36l-1.76-.92a1.64 1.64 0 0 1-.81-1.9L26 9.05 22.95 6 21 6.57a1.64 1.64 0 0 1-1.95-.81L18.18 4h-4.36l-.92 1.76a1.64 1.64 0 0 1-1.9.81L9.05 6 6 9.05 6.57 11a1.64 1.64 0 0 1-.81 1.95L4 13.82v4.35l1.76.92A1.64 1.64 0 0 1 6.57 21ZM6 15l.69-.36a3.64 3.64 0 0 0 1.79-4.32l-.23-.74 1.36-1.33.74.23a3.64 3.64 0 0 0 4.32-1.79L15 6h2l.36.69a3.64 3.64 0 0 0 4.32 1.79l.74-.23 1.37 1.37-.23.74a3.64 3.64 0 0 0 1.79 4.32L26 15v2l-.69.36a3.64 3.64 0 0 0-1.79 4.32l.23.74-1.37 1.37-.74-.23a3.65 3.65 0 0 0-4.32 1.79L17 26h-2l-.36-.69a3.64 3.64 0 0 0-4.32-1.79l-.74.23-1.33-1.36.23-.74a3.64 3.64 0 0 0-1.79-4.32L6 17Z"/></svg>