<svg xmlns="http://www.w3.org/2000/svg" viewBox="0 0 32 32"><path d="m26 11.69 1.73-2-1.49-1.34-1.82 2.15a15.67 15.67 0 0 0-2.59-1.34l1.1-2.8-1.86-.73-1.14 2.9A15.53 15.53 0 0 0 17 8.07V5h-2v3.07a15.53 15.53 0 0 0-2.93.47l-1.14-2.9-1.86.73 1.1 2.8a15.67 15.67 0 0 0-2.59 1.33L5.76 8.35l-1.52 1.3 1.73 2A19.78 19.78 0 0 0 4 13.5L5.46 15A13.72 13.72 0 0 1 16 10a13.55 13.55 0 0 1 10.52 5L28 13.5a19.78 19.78 0 0 0-2-1.81Z"/><path d="M20 16a4 4 0 1 0-4 4 4 4 0 0 0 4-4Zm-6 0a2 2 0 1 1 2 2 2 2 0 0 1-2-2Z"/></svg>