<svg viewBox="0 0 32 32" xmlns="http://www.w3.org/2000/svg">
<path d="M18.3218 3.99998L19.6132 5.23807L16.913 7.82671L16.9129 10.235L19.5886 8.45699L21.0188 9.2487L20.7488 12.3589L22.9252 11.1556L23.9141 7.61887L25.678 8.07205L24.8288 11.1127L27.9999 11.9279L27.5273 13.6192L23.839 12.6715L21.6628 13.876L24.6075 15.2083V16.7917L21.6628 18.1229L23.8382 19.328L27.5273 18.3808L27.9999 20.072L24.8288 20.8872L25.678 23.9279L23.9141 24.3811L22.9259 20.8448L20.7488 19.6392L21.0188 22.7513L19.5886 23.543L16.9129 21.7648L16.913 24.1724L19.6132 26.7619L18.3218 28L15.9999 25.7745L13.678 28L12.3867 26.7619L15.0869 24.1733L15.0867 21.7639L12.4113 23.543L10.981 22.7513L11.2499 19.6392L9.07473 20.8443L8.0858 24.3811L6.32184 23.9279L7.17109 20.8872L3.99994 20.072L4.47259 18.3808L8.16085 19.3285L10.3368 18.1238L7.39237 16.7917V15.2083L10.3368 13.8752L8.16163 12.6719L4.47259 13.6192L3.99994 11.9279L7.17109 11.1127L6.32183 8.07205L8.0858 7.61887L9.07394 11.1552L11.2499 12.3597L10.981 9.24871L12.4113 8.457L15.0867 10.235L15.0869 7.82758L12.3867 5.23807L13.678 3.99999L15.9999 6.2255L18.3218 3.99998ZM15.0867 17.5162L13.1738 18.5746L12.9603 21.047L15.0867 19.633V17.5162V17.5162ZM16.9129 17.5162V19.6339L19.0387 21.047L18.8249 18.5737L16.9129 17.5162ZM12.2616 14.9406L9.92148 16L12.2607 17.0583L14.1736 15.9999L12.2616 14.9406ZM19.738 14.9406L17.826 15.9999L19.7389 17.0583L22.0775 16L19.738 14.9406ZM19.0387 10.9521L16.9129 12.365V14.4836L18.8249 13.4243L19.0387 10.9521ZM12.9603 10.9521L13.1738 13.4243L15.0867 14.4836V12.3659L12.9603 10.9521Z"/>
</svg>
