<svg xmlns="http://www.w3.org/2000/svg" viewBox="0 0 65.25 32"><path d="M34 13h-2v2.04h-2v2h2V19h2v-1.96h2v-2h-2V13zM10.5 20a4.46 4.46 0 0 0 3-1.15l4 2.74a4.45 4.45 0 0 0-.5 1.91 4.5 4.5 0 1 0 4.5-4.5 4.46 4.46 0 0 0-2.81 1l-4-2.78a4.35 4.35 0 0 0 .22-2.77L18.69 12a4.46 4.46 0 0 0 2.81 1A4.5 4.5 0 1 0 17 8.5a4.45 4.45 0 0 0 .44 1.91L14 12.67A4.49 4.49 0 1 0 10.5 20Zm11 1a2.5 2.5 0 1 1-2.5 2.5 2.5 2.5 0 0 1 2.5-2.5Zm0-15A2.5 2.5 0 1 1 19 8.5 2.5 2.5 0 0 1 21.5 6Zm-11 7A2.5 2.5 0 1 1 8 15.5a2.5 2.5 0 0 1 2.5-2.5ZM48 17h6v2h-6zM48 13h8v2h-8z"/><path d="M52 4a12 12 0 0 0-12 12 11.88 11.88 0 0 0 .85 4.42L39 24.51 41.37 28l5-1.42A12 12 0 1 0 52 4Zm0 22a10 10 0 0 1-5-1.35l-.26-.14L42 26l-1-1.49 2-4.16-.14-.35A10 10 0 1 1 52 26Z"/></svg>