<svg xmlns="http://www.w3.org/2000/svg" viewBox="0 0 32 32" style="enable-background:new 0 0 32 32" xml:space="preserve"><path d="M16 28c6.627 0 12-5.373 12-12S22.627 4 16 4 4 9.372 4 16s5.373 12 12 12zm0-2c-5.523 0-10-4.477-10-10S10.477 6 16 6s10 4.477 10 10-4.477 10-10 10zm-6.805-8.97c0 .287.072.508.216.66.144.154.336.23.576.23.192 0 .344-.048.455-.144a.496.496 0 0 0 .166-.396c0-.174-.076-.31-.229-.41s-.395-.214-.725-.346c-.288-.114-.565-.228-.832-.342s-.501-.249-.702-.405a1.82 1.82 0 0 1-.482-.558c-.12-.216-.18-.486-.18-.81 0-.324.071-.601.212-.832.141-.231.328-.42.562-.567.234-.147.5-.255.797-.324s.604-.104.922-.104c.462 0 .85.06 1.161.18s.564.278.756.473c.192.195.33.415.414.661s.126.492.126.738h-1.872c0-.522-.207-.783-.62-.783a.7.7 0 0 0-.406.117c-.114.078-.17.204-.17.378 0 .162.071.297.215.405.144.108.36.213.648.315.27.096.542.198.815.306.273.108.519.24.738.396.219.156.396.347.531.572.135.225.202.5.202.823 0 .324-.06.615-.18.873s-.29.474-.513.648a2.381 2.381 0 0 1-.81.4c-.318.094-.675.14-1.07.14-.397 0-.754-.05-1.072-.153s-.589-.249-.814-.44c-.225-.193-.399-.431-.522-.716s-.185-.614-.185-.986h1.872zM16 19.323c-.54 0-1.022-.091-1.444-.274s-.78-.428-1.071-.734-.513-.66-.666-1.062-.23-.819-.23-1.25c0-.433.076-.85.23-1.252.152-.402.374-.756.665-1.062s.649-.55 1.072-.733c.423-.183.904-.275 1.444-.275s1.023.092 1.449.275c.426.183.784.427 1.075.733s.514.66.667 1.062c.153.402.229.82.229 1.251 0 .432-.076.85-.23 1.251-.152.402-.374.756-.665 1.062s-.65.55-1.076.734a3.639 3.639 0 0 1-1.449.274zm0-1.71c.24 0 .455-.045.643-.135a1.472 1.472 0 0 0 .774-.868c.07-.195.104-.398.104-.608 0-.21-.035-.412-.103-.607A1.461 1.461 0 0 0 16 14.393c-.24 0-.454.044-.643.134a1.461 1.461 0 0 0-.774.869 1.808 1.808 0 0 0-.104.607c0 .21.035.413.103.608A1.461 1.461 0 0 0 16 17.615zm5.393-.585c0 .288.072.509.216.662.144.153.336.23.576.23.192 0 .343-.049.454-.145a.496.496 0 0 0 .167-.396.464.464 0 0 0-.23-.41 4.501 4.501 0 0 0-.724-.346c-.288-.114-.566-.228-.833-.342s-.5-.249-.702-.405a1.82 1.82 0 0 1-.481-.558c-.12-.216-.18-.486-.18-.81 0-.324.07-.601.211-.832s.329-.42.563-.567c.234-.147.5-.255.796-.324.297-.07.605-.104.923-.104.462 0 .849.06 1.16.18.313.12.565.278.757.473.192.195.33.415.414.661.084.246.126.492.126.738h-1.872c0-.522-.207-.783-.621-.783a.7.7 0 0 0-.405.117c-.114.078-.171.204-.171.378 0 .162.072.297.216.405.144.108.36.213.648.315.27.096.541.198.814.306.273.108.52.24.738.396.22.156.396.347.531.572.135.225.203.5.203.823 0 .324-.06.615-.18.873s-.291.474-.513.648a2.381 2.381 0 0 1-.81.4c-.318.094-.675.14-1.071.14s-.753-.05-1.071-.153a2.338 2.338 0 0 1-.815-.44 1.931 1.931 0 0 1-.522-.716 2.468 2.468 0 0 1-.184-.986h1.872z"/></svg>