<?xml version="1.0" encoding="utf-8"?>
<svg version="1.1" xmlns="http://www.w3.org/2000/svg" xmlns:xlink="http://www.w3.org/1999/xlink" x="0px" y="0px"
	 viewBox="0 0 32 32" style="enable-background:new 0 0 32 32;" xml:space="preserve">
<path d="M16,27.9999c6.62742,0,12-5.37258,12-12s-5.37258-12-12-12s-12,5.37258-12,12S9.37258,27.9999,16,27.9999z M16,25.9999
	c-5.52285,0-10-4.47715-10-10s4.47715-10,10-10s10,4.47715,10,10S21.52285,25.9999,16,25.9999z M9.19549,17.02921
	c0,0.288,0.072,0.5085,0.216,0.6615c0.144,0.153,0.336,0.2295,0.576,0.2295c0.192,0,0.3435-0.048,0.4545-0.144
	c0.111-0.096,0.1665-0.228,0.1665-0.396c0-0.174-0.0765-0.3105-0.2295-0.4095s-0.3945-0.2145-0.7245-0.3465
	c-0.288-0.114-0.5655-0.228-0.8325-0.342s-0.501-0.249-0.702-0.405c-0.201-0.156-0.3615-0.342-0.4815-0.558
	c-0.12-0.216-0.18-0.486-0.18-0.81c0-0.324,0.0705-0.6015,0.2115-0.8325c0.141-0.231,0.3285-0.42,0.5625-0.567
	c0.234-0.147,0.4995-0.255,0.7965-0.324s0.6045-0.1035,0.9225-0.1035c0.462,0,0.849,0.06,1.161,0.18s0.564,0.2775,0.756,0.4725
	c0.192,0.195,0.33,0.4155,0.414,0.6615s0.126,0.492,0.126,0.738h-1.872c0-0.522-0.207-0.783-0.621-0.783
	c-0.156,0-0.291,0.039-0.405,0.117c-0.114,0.078-0.171,0.204-0.171,0.378c0,0.162,0.072,0.297,0.216,0.405
	c0.144,0.108,0.36,0.213,0.648,0.315c0.27,0.096,0.5415,0.198,0.8145,0.306c0.273,0.108,0.519,0.24,0.738,0.396
	c0.219,0.156,0.396,0.3465,0.531,0.5715c0.135,0.225,0.2025,0.4995,0.2025,0.8235c0,0.324-0.06,0.615-0.18,0.873
	c-0.12,0.258-0.291,0.474-0.513,0.648c-0.222,0.174-0.492,0.3075-0.81,0.4005c-0.318,0.093-0.675,0.1395-1.071,0.1395
	c-0.396,0-0.753-0.051-1.071-0.153s-0.5895-0.249-0.8145-0.441c-0.225-0.192-0.399-0.4305-0.522-0.7155
	s-0.1845-0.6135-0.1845-0.9855H9.19549z M16,19.32421c-0.54,0-1.0215-0.0915-1.4445-0.2745s-0.78-0.4275-1.071-0.7335
	s-0.513-0.66-0.666-1.062s-0.2295-0.819-0.2295-1.251c0-0.432,0.0765-0.849,0.2295-1.251c0.153-0.402,0.375-0.756,0.666-1.062
	s0.648-0.5505,1.071-0.7335c0.423-0.183,0.9045-0.2745,1.4445-0.2745s1.023,0.0915,1.449,0.2745
	c0.426,0.183,0.7845,0.4275,1.0755,0.7335s0.513,0.66,0.666,1.062c0.153,0.402,0.2295,0.819,0.2295,1.251
	c0,0.432-0.0765,0.849-0.2295,1.251c-0.153,0.402-0.375,0.756-0.666,1.062s-0.6495,0.5505-1.0755,0.7335
	C17.023,19.23271,16.54,19.32421,16,19.32421z M16,17.61421c0.24,0,0.4545-0.045,0.6435-0.135s0.348-0.2085,0.477-0.3555
	c0.129-0.147,0.228-0.318,0.297-0.513c0.069-0.195,0.1035-0.3975,0.1035-0.6075c0-0.21-0.0345-0.4125-0.1035-0.6075
	c-0.069-0.195-0.168-0.366-0.297-0.513c-0.129-0.147-0.288-0.2655-0.477-0.3555s-0.4035-0.135-0.6435-0.135
	c-0.24,0-0.4545,0.045-0.6435,0.135c-0.189,0.09-0.348,0.2085-0.477,0.3555c-0.129,0.147-0.228,0.318-0.297,0.513
	c-0.069,0.195-0.1035,0.3975-0.1035,0.6075c0,0.21,0.0345,0.4125,0.1035,0.6075c0.069,0.195,0.168,0.366,0.297,0.513
	c0.129,0.147,0.288,0.2655,0.477,0.3555C15.5455,17.56921,15.76,17.61421,16,17.61421z M21.39256,17.02921
	c0,0.288,0.072,0.5085,0.216,0.6615c0.144,0.153,0.336,0.2295,0.576,0.2295c0.192,0,0.3435-0.048,0.4545-0.144
	c0.111-0.096,0.1665-0.228,0.1665-0.396c0-0.174-0.0765-0.3105-0.2295-0.4095c-0.153-0.099-0.3945-0.2145-0.7245-0.3465
	c-0.288-0.114-0.5655-0.228-0.8325-0.342s-0.501-0.249-0.702-0.405c-0.201-0.156-0.3615-0.342-0.4815-0.558
	c-0.12-0.216-0.18-0.486-0.18-0.81c0-0.324,0.0705-0.6015,0.2115-0.8325s0.3285-0.42,0.5625-0.567
	c0.234-0.147,0.4995-0.255,0.7965-0.324c0.297-0.069,0.6045-0.1035,0.9225-0.1035c0.462,0,0.849,0.06,1.161,0.18
	c0.312,0.12,0.564,0.2775,0.756,0.4725c0.192,0.195,0.33,0.4155,0.414,0.6615c0.084,0.246,0.126,0.492,0.126,0.738h-1.872
	c0-0.522-0.207-0.783-0.621-0.783c-0.156,0-0.291,0.039-0.405,0.117c-0.114,0.078-0.171,0.204-0.171,0.378
	c0,0.162,0.072,0.297,0.216,0.405c0.144,0.108,0.36,0.213,0.648,0.315c0.27,0.096,0.5415,0.198,0.8145,0.306
	c0.273,0.108,0.519,0.24,0.738,0.396c0.219,0.156,0.396,0.3465,0.531,0.5715c0.135,0.225,0.2025,0.4995,0.2025,0.8235
	c0,0.324-0.06,0.615-0.18,0.873s-0.291,0.474-0.513,0.648c-0.222,0.174-0.492,0.3075-0.81,0.4005
	c-0.318,0.093-0.675,0.1395-1.071,0.1395s-0.753-0.051-1.071-0.153c-0.318-0.102-0.5895-0.249-0.8145-0.441
	c-0.225-0.192-0.399-0.4305-0.522-0.7155c-0.123-0.285-0.1845-0.6135-0.1845-0.9855H21.39256z"/>
</svg>
