<svg xmlns="http://www.w3.org/2000/svg" viewBox="0 0 32 32"><path d="M26.71 11.65h-1.53A8.43 8.43 0 0 0 16.76 4h-1.52A8.18 8.18 0 0 0 7 11.65H5.29A3.22 3.22 0 0 0 2 14.94V18a3.19 3.19 0 0 0 3.29 3.29H9v-8.64A7.56 7.56 0 0 1 9.19 11 19.33 19.33 0 0 0 19 13.65h4.24L23 21.82c0 1.87-.56 3.84-2.06 4.12A3.5 3.5 0 0 0 17.5 23h-2a3.5 3.5 0 0 0 0 7h2a3.5 3.5 0 0 0 3.15-2c2.64 0 4.35-2.45 4.35-6.15v-.56h1.69A3.19 3.19 0 0 0 30 18v-3.06a3.22 3.22 0 0 0-3.29-3.29ZM7 19.29H5.29A1.3 1.3 0 0 1 4 18v-3.06a1.3 1.3 0 0 1 1.29-1.29H7Zm12-7.65a17.31 17.31 0 0 1-9.09-2.55A6 6 0 0 1 15.24 6h1.53a6.44 6.44 0 0 1 6.4 5.65ZM17.5 28h-2a1.5 1.5 0 0 1 0-3h2a1.5 1.5 0 0 1 0 3ZM28 18a1.3 1.3 0 0 1-1.29 1.29h-1.64l.14-5.65h1.5a1.3 1.3 0 0 1 1.29 1.3Z"/><circle cx="12.5" cy="16.5" r="1.5"/><circle cx="19.5" cy="16.5" r="1.5"/></svg>