<svg viewBox="0 0 32 33" xmlns="http://www.w3.org/2000/svg">
<path d="M5.37 28.1444L10.37 26.7244C12.8581 28.0475 15.7324 28.4528 18.4894 27.8693C21.2463 27.2857 23.7099 25.7505 25.4485 23.5327C27.187 21.3149 28.0896 18.556 27.998 15.7394C27.9064 12.9229 26.8266 10.2285 24.9476 8.1283C23.0687 6.02811 20.5105 4.65618 17.7215 4.25292C14.9325 3.84966 12.0906 4.44081 9.69369 5.92277C7.29681 7.40473 5.49795 9.68295 4.61233 12.3582C3.72672 15.0334 3.81086 17.935 4.85 20.5544L3 24.6544L5.37 28.1444ZM6.86 20.1444C5.90979 17.9634 5.76823 15.5152 6.46074 13.2392C7.15325 10.9633 8.63446 9.00879 10.6384 7.72669C12.6423 6.4446 15.0377 5.91891 17.3943 6.24404C19.751 6.56916 21.9145 7.72379 23.4964 9.50059C25.0784 11.2774 25.975 13.5599 26.0254 15.9384C26.0758 18.3168 25.2766 20.6353 23.7714 22.4775C22.2661 24.3197 20.1534 25.5649 17.8127 25.9896C15.4719 26.4142 13.0564 25.9905 11 24.7944L10.74 24.6544L6 26.1444L5 24.6544L7 20.4944L6.86 20.1444Z"/>
<path fill-rule="evenodd" clip-rule="evenodd" d="M16 12.1739L14.8797 14.6026L12.2237 14.9175L14.1874 16.7335L13.6661 19.3568L16 18.0504L18.3339 19.3568L17.8126 16.7335L19.7763 14.9175L17.1203 14.6026L16 12.1739ZM13.7346 13.0265L15.2282 9.78851H16.7718L18.2654 13.0265L21.8064 13.4463L22.2834 14.9145L19.6655 17.3355L20.3604 20.8329L19.1115 21.7403L16 19.9986L12.8885 21.7403L11.6396 20.8329L12.3345 17.3355L9.71655 14.9145L10.1936 13.4463L13.7346 13.0265Z"/>
</svg>
