<svg xmlns="http://www.w3.org/2000/svg" viewBox="0 0 32 32" style="enable-background:new 0 0 32 32" xml:space="preserve"><path d="M25 4c-1.7 0-3 1.4-3 3 0 1.3.8 2.4 2 2.8v11.7c0 1.9-1.6 3.5-3.5 3.5S17 23.4 17 21.5v-10c0-3-2.5-5.5-5.5-5.5S6 8.5 6 11.5v10.7c-1.6.6-2.4 2.3-1.8 3.8.6 1.6 2.3 2.4 3.8 1.8s2.4-2.3 1.8-3.8c-.3-.9-1-1.5-1.8-1.8V11.5C8 9.6 9.6 8 11.5 8S15 9.6 15 11.5v10c0 3 2.5 5.5 5.5 5.5s5.5-2.5 5.5-5.5V9.8c1.6-.6 2.4-2.3 1.8-3.8-.4-1.2-1.5-2-2.8-2zM7 26c-.6 0-1-.4-1-1s.4-1 1-1 1 .4 1 1-.4 1-1 1z"/></svg>