<?xml version="1.0" encoding="utf-8"?>
<!-- Generator: Adobe Illustrator 23.0.1, SVG Export Plug-In . SVG Version: 6.00 Build 0)  -->
<svg version="1.1" id="Ready" xmlns="http://www.w3.org/2000/svg" xmlns:xlink="http://www.w3.org/1999/xlink" x="0px" y="0px"
	 viewBox="0 0 32 32" style="enable-background:new 0 0 32 32;" xml:space="preserve">
<path d="M25,4c-1.7,0-3,1.4-3,3c0,1.3,0.8,2.4,2,2.8v11.7c0,1.9-1.6,3.5-3.5,3.5S17,23.4,17,21.5l0,0v-10c0-3-2.5-5.5-5.5-5.5
	S6,8.5,6,11.5v10.7c-1.6,0.6-2.4,2.3-1.8,3.8c0.6,1.6,2.3,2.4,3.8,1.8s2.4-2.3,1.8-3.8c-0.3-0.9-1-1.5-1.8-1.8V11.5
	C8,9.6,9.6,8,11.5,8S15,9.6,15,11.5v10c0,3,2.5,5.5,5.5,5.5s5.5-2.5,5.5-5.5V9.8c1.6-0.6,2.4-2.3,1.8-3.8C27.4,4.8,26.3,4,25,4z
	 M7,26c-0.6,0-1-0.4-1-1s0.4-1,1-1s1,0.4,1,1S7.6,26,7,26z"/>
</svg>
