<svg id="Ready" xmlns="http://www.w3.org/2000/svg" viewBox="0 0 32 32"><title>Megaicons_work_24_1.8_cp</title><rect x="15" y="12" width="2" height="3"/><rect x="10" y="17" width="3" height="2"/><rect x="15" y="21" width="2" height="3"/><rect x="19" y="17" width="3" height="2"/><rect x="17.67" y="13.79" width="3.06" height="2" transform="translate(-4.84 17.91) rotate(-45)"/><rect x="11.84" y="13.31" width="2" height="3.06" transform="translate(-6.73 13.43) rotate(-45)"/><rect x="11.26" y="20.2" width="3.06" height="2" transform="translate(-11.24 15.26) rotate(-45)"/><rect x="18.16" y="19.63" width="2" height="3.06" transform="translate(-9.35 19.75) rotate(-45)"/><path d="M27,8H20.9a5,5,0,0,0-9.8,0H5V28H27ZM16,6a3,3,0,0,1,2.84,2H13.17A3,3,0,0,1,16,6Zm9,20H7V10H25Z"/></svg>