<svg version="1.1" id="Слой_1" xmlns="http://www.w3.org/2000/svg" xmlns:xlink="http://www.w3.org/1999/xlink" x="0px" y="0px"
	 viewBox="0 0 32 32" style="enable-background:new 0 0 32 32;" xml:space="preserve">
<style type="text/css">
	.st0{clip-path:url(#SVGID_00000009558948570831484990000011650356557375526314_);}
</style>
<g>
	<defs>
		<rect id="SVGID_1_" width="32" height="32"/>
	</defs>
	<clipPath id="SVGID_00000043416957246179628570000010814999079184068235_">
		<use xlink:href="#SVGID_1_"  style="overflow:visible;"/>
	</clipPath>
	<g style="clip-path:url(#SVGID_00000043416957246179628570000010814999079184068235_);">
		<path d="M25,10c1.3,0,2.7,0.5,3.6,1.4c0.9,0.9,1.4,2.3,1.4,3.6v2c0,1.3-0.5,2.7-1.4,3.6C27.7,21.5,26.3,22,25,22H7
			c-1.3,0-2.7-0.5-3.6-1.4C2.5,19.7,2,18.4,2,17.1v-2.2c0-1.3,0.5-2.6,1.4-3.5C4.3,10.5,5.7,10,7,10H25z M25.1,8H6.9
			C5.1,8,3.3,8.7,2,10c-1.3,1.3-2,3-2,4.9v2.2c0,1.8,0.7,3.6,2,4.9c1.3,1.3,3,2,4.9,2h18.3c1.8,0,3.6-0.7,4.9-2c1.3-1.3,2-3,2-4.9
			v-2.2c0-1.8-0.7-3.6-2-4.9C28.7,8.7,26.9,8,25.1,8z"/>
		<path d="M10,13H8.2l0,0.1L7,16.7l-1.2-3.7l0-0.1H4l2.1,5.8l0,0.1h1.7l0-0.1L10,13z"/>
		<path d="M16.7,17.5V13H15v5.9h4v-1.4H16.7z"/>
		<path d="M18.5,13v1.4h1.7v4.5h1.7v-4.5h1.7V13H18.5z"/>
		<path d="M24,13v5.9h4v-1.3h-2.4v-1H28v-1.2h-2.4v-1.1H28V13H24z"/>
		<path d="M11.9,19c1.4,0,2.5-0.8,2.5-2.2v-0.1c0-1.4-1.1-2.2-2.4-2.2c-1.4,0-2.5,0.8-2.5,2.2v0.1C9.5,18.2,10.5,19,11.9,19z
			 M11.9,17.8c-0.5,0-0.8-0.4-0.8-1.1v-0.1c0-0.7,0.3-1,0.8-1c0.5,0,0.8,0.4,0.8,1v0.1C12.7,17.5,12.4,17.8,11.9,17.8z"/>
	</g>
</g>
</svg>
