<svg version="1.1" id="Слой_1" xmlns="http://www.w3.org/2000/svg" xmlns:xlink="http://www.w3.org/1999/xlink" x="0" y="0" viewBox="0 0 32 32" style="enable-background:new 0 0 32 32" xml:space="preserve"><style>.st0{clip-path:url(#SVGID_00000009558948570831484990000011650356557375526314_)}</style><defs><path id="SVGID_1_" d="M0 0h32v32H0z"/></defs><clipPath id="SVGID_00000043416957246179628570000010814999079184068235_"><use xlink:href="#SVGID_1_" style="overflow:visible"/></clipPath><g style="clip-path:url(#SVGID_00000043416957246179628570000010814999079184068235_)"><path d="M25 10c1.3 0 2.7.5 3.6 1.4.9.9 1.4 2.3 1.4 3.6v2c0 1.3-.5 2.7-1.4 3.6-.9.9-2.3 1.4-3.6 1.4H7c-1.3 0-2.7-.5-3.6-1.4-.9-.9-1.4-2.2-1.4-3.5v-2.2c0-1.3.5-2.6 1.4-3.5.9-.9 2.3-1.4 3.6-1.4h18zm.1-2H6.9c-1.8 0-3.6.7-4.9 2-1.3 1.3-2 3-2 4.9v2.2c0 1.8.7 3.6 2 4.9 1.3 1.3 3 2 4.9 2h18.3c1.8 0 3.6-.7 4.9-2 1.3-1.3 2-3 2-4.9v-2.2c0-1.8-.7-3.6-2-4.9-1.4-1.3-3.2-2-5-2z"/><path d="M10 13H8.2v.1L7 16.7 5.8 13v-.1H4l2.1 5.8v.1h1.7v-.1L10 13zM16.7 17.5V13H15v5.9h4v-1.4h-2.3zM18.5 13v1.4h1.7v4.5h1.7v-4.5h1.7V13h-5.1zM24 13v5.9h4v-1.3h-2.4v-1H28v-1.2h-2.4v-1.1H28V13h-4zM11.9 19c1.4 0 2.5-.8 2.5-2.2v-.1c0-1.4-1.1-2.2-2.4-2.2-1.4 0-2.5.8-2.5 2.2v.1c0 1.4 1 2.2 2.4 2.2zm0-1.2c-.5 0-.8-.4-.8-1.1v-.1c0-.7.3-1 .8-1s.8.4.8 1v.1c0 .8-.3 1.1-.8 1.1z"/></g></svg>