<svg xmlns="http://www.w3.org/2000/svg" viewBox="0 0 32 32" style="enable-background:new 0 0 32 32" xml:space="preserve"><path d="M13 18v-1h-2v-2h2V9h5a4 4 0 1 1 0 8h-3v1h4v2h-4v2h-2v-2h-2v-2h2zm.163 10-.268-.204C8.472 24.433 6 19.205 6 13.5V6.455l.458-.295C8.762 4.672 12.185 4 16 4c3.815 0 7.238.672 9.542 2.16l.458.295V13.5c0 5.705-2.472 10.933-6.895 14.296l-.268.204h-5.674zM8 13.5c0 4.978 2.094 9.518 5.843 12.5h4.314C21.907 23.018 24 18.478 24 13.5V7.569C22.072 6.516 19.2 6 16 6c-3.201 0-6.072.516-8 1.569V13.5zm7-2.5v4h3a2 2 0 1 0 0-4h-3z"/></svg>