<?xml version="1.0" encoding="utf-8"?>
<svg version="1.1" id="Слой_1" xmlns="http://www.w3.org/2000/svg" xmlns:xlink="http://www.w3.org/1999/xlink" x="0px" y="0px"
	 viewBox="0 0 32 32" style="enable-background:new 0 0 32 32;" xml:space="preserve">
<path id="Shape" d="M13,18v-1h-2v-2h2V9h5c2.20914,0,4,1.79086,4,4s-1.79086,4-4,4h-3v1h4v2h-4v2h-2v-2h-2v-2H13z M13.16295,28
	l-0.26828-0.20403C8.47205,24.4326,6,19.20461,6,13.5V6.45524l0.4577-0.29542C8.76225,4.67234,12.18491,4,16,4
	c3.81464,0,7.23786,0.67241,9.5423,2.15981L26,6.45524V13.5c0,5.70461-2.47205,10.9326-6.89467,14.29597L18.83705,28H13.16295z
	 M8,13.5c0,4.9781,2.09363,9.51812,5.843,12.5h4.314C21.90637,23.01812,24,18.4781,24,13.5V7.56863
	C22.07201,6.51608,19.20065,6,16,6c-3.20107,0-6.07199,0.51602-8,1.56862V13.5z M15,11v4h3c1.10457,0,2-0.89543,2-2s-0.89543-2-2-2
	H15z"/>
</svg>
