<svg xmlns="http://www.w3.org/2000/svg" viewBox="0 0 32 32" style="enable-background:new 0 0 32 32" xml:space="preserve"><path d="M22.3 14.6c1.4-1.4 1.4-3.6 0-4.9-1.3-1.3-3.6-1.3-4.9 0l-8.8 8.9-1.7 5.3.7.7C9.8 26.7 12.8 28 16 28s6.2-1.3 8.5-3.5c2.3-2.3 3.6-5.5 3.5-8.8s-1.5-6.4-3.9-8.6C19.4 2.8 12 3 7.5 7.5 5.3 9.7 4 12.8 4 16h2c0-2.7 1-5.2 2.9-7.1 3.7-3.7 9.9-3.9 13.8-.3 2 1.9 3.2 4.4 3.3 7.2.1 2.8-1 5.4-2.9 7.3C21.2 25 18.7 26 16 26c-2 0-3.9-.6-5.5-1.6l2.9-.9 8.9-8.9zm-1.4-3.5c.6.6.6 1.5 0 2.1l-.9.9-2.2-2.1.9-.9c.6-.6 1.6-.6 2.2 0zM9.3 22.7l1-3.1 6.1-6.1 2.1 2.1-6.1 6.1-3.1 1z"/></svg>