<svg id="Ready" xmlns="http://www.w3.org/2000/svg" viewBox="0 0 40 40"><title>Artboard 10</title><path d="M31.48,26h1L36,22.44l-6.83-6.83-2.78,2.78a12.52,12.52,0,0,1-4.94-4.78l2.78-2.78L17.56,4,14,7.56v1A17.71,17.71,0,0,0,31.48,26ZM16,8.38l1.56-1.56,3.85,4L19,13.23l.33.65a14.79,14.79,0,0,0,6.79,6.63l.65.33,2.4-2.4,4,4L31.62,24h-.14A15.6,15.6,0,0,1,16,8.52Z"/><path d="M21.48,36h1L26,32.44l-6.83-6.83-2.78,2.78a12.52,12.52,0,0,1-4.94-4.78l2.78-2.78L7.56,14,4,17.56v1A17.71,17.71,0,0,0,21.48,36ZM6,18.38l1.56-1.56,3.85,4L9,23.23l.33.65a14.79,14.79,0,0,0,6.79,6.63l.65.33,2.4-2.4,4,4L21.62,34h-.14A15.6,15.6,0,0,1,6,18.52Z"/></svg>