<svg id="Ready" xmlns="http://www.w3.org/2000/svg" viewBox="0 0 40 40"><title>Megaicons_work_32_1.8_cp</title><path d="M36,23H34A17,17,0,0,0,17,6V4A19,19,0,0,1,36,23ZM17,18a5,5,0,0,1,5,5h2a7,7,0,0,0-7-7Zm0-8v2A11,11,0,0,1,28,23h2A13,13,0,0,0,17,10ZM4,17.56,7.56,14l6.68,6.83-2.78,2.78a12.52,12.52,0,0,0,4.94,4.78l2.78-2.78L26,32.44,22.44,36h-1A17.71,17.71,0,0,1,4,18.52Zm2,1A15.6,15.6,0,0,0,21.48,34h.14l1.56-1.56-4-4-2.4,2.4-.65-.33a14.79,14.79,0,0,1-6.79-6.63L9,23.23l2.4-2.4-3.85-4L6,18.38Z"/></svg>