<svg id="Ready" xmlns="http://www.w3.org/2000/svg" viewBox="0 0 40 40"><title>Artboard 20</title><path d="M26.5,6A7.55,7.55,0,0,0,20,9.64,7.55,7.55,0,0,0,13.5,6C9.21,6,6,10.36,6,14.26a6.83,6.83,0,0,0,1,3.53c2.41,4,10,15.29,10.3,15.77l.3.44h5l.3-.43c.33-.47,8-11.65,10.21-15.83a8.27,8.27,0,0,0,.9-3.48C34,10.36,30.79,6,26.5,6Zm4.82,10.81C29.45,20.42,23,29.86,21.54,32H18.65c-1.46-2.17-7.84-11.74-10-15.24A4.83,4.83,0,0,1,8,14.26C8,11.42,10.45,8,13.5,8a5.45,5.45,0,0,1,5.35,4.07h2.3A5.45,5.45,0,0,1,26.5,8c3,0,5.5,3.42,5.5,6.25A6.28,6.28,0,0,1,31.32,16.81Z"/></svg>