<svg id="Ready" xmlns="http://www.w3.org/2000/svg" viewBox="0 0 40 40"><title>Artboard 21</title><path d="M35.75,18.86l-1.5-1.32a18.94,18.94,0,0,1-28.5,0l-1.5,1.32a21.11,21.11,0,0,0,2.63,2.5L4.5,24.64l1.62,1.18,2.38-3.27a21,21,0,0,0,4.08,2.08l-1.25,3.84,1.9.62,1.25-3.83A20.87,20.87,0,0,0,19,26v4h2V26a20.87,20.87,0,0,0,4.53-.72l1.25,3.83,1.9-.62-1.25-3.84a21,21,0,0,0,4.08-2.08l2.38,3.27,1.62-1.18-2.38-3.28A21.11,21.11,0,0,0,35.75,18.86Z"/><path d="M10.5,14.52a19.22,19.22,0,0,1,19,0l1-1.74a21.26,21.26,0,0,0-21,0Z"/></svg>