<svg id="Ready" xmlns="http://www.w3.org/2000/svg" viewBox="0 0 40 40"><title>Megaicons_work_32_1.8_cp</title><path d="M31,21A11,11,0,0,0,20,10h-.1a11,11,0,0,0,0,22H20A11,11,0,0,0,31,21Zm-2.06-1h-3a15.76,15.76,0,0,0-1.82-7A9,9,0,0,1,28.94,20ZM11.09,22H14a15.84,15.84,0,0,0,1.78,6.92A9,9,0,0,1,11.09,22ZM14,20H11.09a9,9,0,0,1,4.7-6.92A15.84,15.84,0,0,0,14,20Zm6,10h0c-1.76,0-3.69-3.26-3.93-8h7.93C23.69,26.73,21.75,30,20,30ZM16,20c.24-4.72,2.17-7.94,3.93-8h0c1.76,0,3.71,3.24,4,8Zm8.11,9a15.76,15.76,0,0,0,1.82-7h3A9,9,0,0,1,24.12,29ZM20,8a2,2,0,1,1,2-2A2,2,0,0,1,20,8Zm16,6a2,2,0,1,1-2-2A2,2,0,0,1,36,14ZM4,14a2,2,0,1,1,2,2A2,2,0,0,1,4,14ZM4,28a2,2,0,1,1,2,2A2,2,0,0,1,4,28Zm16,6a2,2,0,1,1-2,2A2,2,0,0,1,20,34Zm16-6a2,2,0,1,1-2-2A2,2,0,0,1,36,28Z"/></svg>