<svg id="Ready" xmlns="http://www.w3.org/2000/svg" viewBox="0 0 40 40"><title>Artboard 34</title><path d="M31.6,20.36a5.9,5.9,0,0,0-2.66-6.66V13a9,9,0,0,0-18,0v.7A6,6,0,0,0,8.4,20.36L4,24.76v3.66l2.42,2.42,6.22-6.24a6,6,0,0,0,3,0A6,6,0,0,0,18,27.2V36h3.42L24,33.42V27.18a6,6,0,0,0,2.3-2.46,6,6,0,0,0,1.06-.14l6.22,6.22L36,28.42V24.76ZM20,6a7,7,0,0,1,7,6.92A5.91,5.91,0,0,0,20.5,16a6,6,0,0,0-1,.16,5.78,5.78,0,0,0-1.1-1.64A6,6,0,0,0,13,12.92,7,7,0,0,1,20,6ZM15,22a5.8,5.8,0,0,0,0,.66,3.86,3.86,0,0,1-2.36-.14l-.6-.24L6.42,28,6,27.58v-2l4.72-4.7-.24-.6A4,4,0,0,1,17,16a3.78,3.78,0,0,1,.7,1A6,6,0,0,0,15,22Zm7.6,3.66L22,26v6.66l-1.42,1.42H20V26l-.6-.26a4,4,0,0,1,.46-7.5A5.88,5.88,0,0,0,24,24.52,4,4,0,0,1,22.6,25.66Zm11.4,2-.42.42-5.72-5.7-.6.24A4,4,0,1,1,26.7,15,6.94,6.94,0,0,1,25,18a1,1,0,1,0,1.31,1.51l.11-.11a8.94,8.94,0,0,0,2-3.44l.14.12a4,4,0,0,1,.9,4.28l-.24.6L34,25.58Z"/></svg>