<svg xmlns="http://www.w3.org/2000/svg" viewBox="0 0 90 40"><defs><style>.cls-1{font-size:5.98px;font-family:GraphikLCG-Regular, Graphik LCG;letter-spacing:0.01em;}.cls-2{letter-spacing:-0.01em;}.cls-3{letter-spacing:0.02em;}.cls-4{letter-spacing:0.01em;}.cls-5{letter-spacing:0.01em;}.cls-6{letter-spacing:0.01em;}.cls-7{letter-spacing:0em;}.cls-8{letter-spacing:0em;}</style></defs><title>Artboard 36</title><g id="Ready"><path d="M27,26a5,5,0,1,0,5,5V8.17L15.13,4,14,4.84V23a5,5,0,0,0-3-1,5,5,0,1,0,5,5V13.19l14,3.5V27A5,5,0,0,0,27,26Zm0,8a3,3,0,1,1,3-3A3,3,0,0,1,27,34ZM11,30a3,3,0,1,1,3-3A3,3,0,0,1,11,30Zm5-18.87V6.24l14,3.5v4.89Z"/><polygon points="43 16 41 16 41 19 38 19 38 21 41 21 41 24 43 24 43 21 46 21 46 19 43 19 43 16"/><path d="M52,32H84V8H52Zm2-22H82V30H54Zm9.18,3.45L62,14.37V25.73l1.18.92L75,21.51V18.59ZM73,20.2l-9,3.91V16l9,3.91Z"/></g><g id="Text"><text class="cls-1" transform="translate(53.36 -275.94)">MNP<tspan x="0" y="59.77">Mobile-internet</tspan><tspan x="0" y="119.53">M</tspan><tspan class="cls-2" x="5.25" y="119.53">o</tspan><tspan x="8.9" y="119.53">vi</tspan><tspan class="cls-3" x="13.88" y="119.53">e</tspan><tspan class="cls-4" x="17.43" y="119.53">s</tspan><tspan x="0" y="179.3">Multi-account</tspan><tspan x="0" y="239.06">Music</tspan><tspan class="cls-4"><tspan x="0" y="358.59">Nothing</tspan></tspan><tspan x="0" y="418.36">O-plat</tspan><tspan class="cls-5" x="18.26" y="418.36">e</tspan><tspan class="cls-6" x="21.75" y="418.36">z</tspan><tspan x="24.8" y="418.36">h</tspan><tspan class="cls-7"><tspan x="0" y="478.12">P</tspan><tspan class="cls-8" x="3.57" y="478.12">a</tspan><tspan class="cls-4" x="6.84" y="478.12">y_number</tspan><tspan x="0" y="537.89">P</tspan><tspan class="cls-8" x="3.57" y="537.89">a</tspan><tspan class="cls-4" x="6.84" y="537.89">y_friend</tspan></tspan></text></g></svg>