<svg id="Ready" xmlns="http://www.w3.org/2000/svg" viewBox="0 0 40 40"><title>Artboard 38</title><path d="M18,36a15.92,15.92,0,0,0,8-2.16,7,7,0,1,0,7.81-11.26A16,16,0,1,0,18,36Zm13-2a5,5,0,1,1,3.27-8.75L31,28.74l-1.27-1.41-1.49,1.34L30.35,31h1.28l3.86-4.14A4.94,4.94,0,0,1,36,29,5,5,0,0,1,31,34ZM18,6A13.89,13.89,0,0,1,31.83,22.08,6.86,6.86,0,0,0,31,22a7,7,0,0,0-7,7,6.91,6.91,0,0,0,.81,3.19A14,14,0,1,1,18,6ZM14,29h2V26h6V24H16V22h4a5,5,0,1,0,0-10H14v8H12v2h2v2H12v2h2Zm2-15h4a3,3,0,0,1,0,6H16Z"/></svg>