<svg id="Ready" xmlns="http://www.w3.org/2000/svg" viewBox="0 0 40 40"><title>Artboard 40</title><path d="M12,16a6,6,0,1,0-6-6A6,6,0,0,0,12,16ZM12,6a4,4,0,1,1-4,4A4,4,0,0,1,12,6ZM6,36H18l.3-2.3a11,11,0,1,0-2.28-15A14.23,14.23,0,0,0,11.93,18,18.61,18.61,0,0,0,4,20ZM25,16a9,9,0,1,1-9,9A9,9,0,0,1,25,16ZM11.93,20a12.1,12.1,0,0,1,3.07.45A10.94,10.94,0,0,0,16.5,32l-.26,2H7.61L6.15,21.15A13.46,13.46,0,0,1,11.93,20ZM22,32h2V30h3V28H24V26h2a4,4,0,0,0,0-8H22v6H20v2h2v2H20v2h2Zm2-12h2a2,2,0,0,1,0,4H24Z"/></svg>