<svg id="Ready" xmlns="http://www.w3.org/2000/svg" viewBox="0 0 40 40"><title>Artboard 47</title><polygon points="26 26.75 23.73 24.32 22.27 25.68 25.36 29 26.63 29 32.38 22.91 30.93 21.54 26 26.75"/><path d="M38,25A11,11,0,0,0,24,14.43,11,11,0,1,0,2.77,19L1,22.87l2.43,3,4.43-1.2a10.88,10.88,0,0,0,8.17.85,11,11,0,0,0,16.11,9.15l4.43,1.2,2.43-3L37.23,29A10.91,10.91,0,0,0,38,25ZM8.49,22.78l-.36-.21-4,1.07-.84-1.05L5,19l-.18-.41a9,9,0,1,1,3.72,4.14ZM35.83,33.64l-4-1.07-.36.21A9,9,0,0,1,18,25c0-.07,0-.15,0-.22a11,11,0,0,0,5.86-8.18,9,9,0,0,1,11.36,12L35,29l1.62,3.54Z"/><circle cx="13" cy="20" r="1.5"/><path d="M13,9a4,4,0,0,0-4,4h2a2,2,0,1,1,2,2H12v2h1a4,4,0,0,0,0-8Z"/></svg>