<svg id="Ready" xmlns="http://www.w3.org/2000/svg" viewBox="0 0 40 40"><title>Artboard 54</title><path d="M20,14a6,6,0,1,0,6,6A6,6,0,0,0,20,14Zm0,10a4,4,0,1,1,4-4A4,4,0,0,1,20,24Zm16-6.76-4.23-2.12,1.5-4.49-3.9-3.9L24.88,8.23,22.76,4H17.24L15.12,8.23,10.64,6.73l-3.9,3.9,1.5,4.49L4,17.24v5.52l4.23,2.12-1.5,4.49,3.9,3.9,4.49-1.49L17.24,36h5.52l2.12-4.23,4.49,1.49,3.9-3.9-1.5-4.49L36,22.76Zm-2,4.29-4.07,2-.39.95L31,28.82,28.82,31l-4.31-1.44-.95.39-2,4.07h-3l-2-4.07-.95-.39L11.18,31,9,28.82l1.44-4.31-.39-.95L6,21.53V18.47l4.07-2,.39-.95L9,11.18,11.18,9l4.31,1.44.95-.39,2-4.07h3l2,4.07.95.39L28.82,9,31,11.18l-1.44,4.31.39.95,4.07,2Z"/></svg>