<svg id="Ready" xmlns="http://www.w3.org/2000/svg" viewBox="0 0 40 40"><title>Artboard 57</title><path d="M25,20a5,5,0,1,0-5,5A5,5,0,0,0,25,20Zm-8,0a3,3,0,1,1,3,3A3,3,0,0,1,17,20ZM6.87,14.68l-2.39-3.3L6.09,10.2l2.39,3.3a21,21,0,0,1,4.08-2.09L11.31,7.54l1.9-.62,1.25,3.87A20.81,20.81,0,0,1,19,10.06V6h2v4.06a20.81,20.81,0,0,1,4.52.72l1.25-3.87,1.9.62-1.26,3.87a21,21,0,0,1,4.08,2.09l2.39-3.3,1.62,1.18-2.39,3.3A25.27,25.27,0,0,1,36,17.41l-1.5,1.32A19.4,19.4,0,0,0,20,12,19.52,19.52,0,0,0,5.5,18.79L4,17.47A25.62,25.62,0,0,1,6.87,14.68Z"/></svg>