<?xml version="1.0" encoding="utf-8"?>
<!-- Generator: Adobe Illustrator 21.1.0, SVG Export Plug-In . SVG Version: 6.00 Build 0)  -->
<svg version="1.1" xmlns="http://www.w3.org/2000/svg" xmlns:xlink="http://www.w3.org/1999/xlink" x="0px" y="0px"
	 viewBox="0 0 90 40" enable-background="new 0 0 90 40" xml:space="preserve">
<g id="Ready">
	<polygon points="43,16 41,16 41,19 38,19 38,21 41,21 41,24 43,24 43,21 46,21 46,19 43,19 	"/>
	<path d="M12,14c-3.3,0-6,2.7-6,6s2.7,6,6,6c1.8,0,3.4-0.8,4.5-2l6,3.7C22.2,28.4,22,29.2,22,30c0,3.3,2.7,6,6,6s6-2.7,6-6
		s-2.7-6-6-6c-1.8,0-3.4,0.8-4.5,2l-6-3.7c0.3-0.7,0.5-1.5,0.5-2.3c0-0.8-0.2-1.6-0.5-2.3l6-3.7c1.1,1.2,2.7,2,4.5,2
		c3.3,0,6-2.7,6-6s-2.7-6-6-6s-6,2.7-6,6c0,0.8,0.2,1.6,0.5,2.3l-6,3.7C15.4,14.8,13.8,14,12,14z M28,26c2.2,0,4,1.8,4,4s-1.8,4-4,4
		s-4-1.8-4-4S25.8,26,28,26z M28,6c2.2,0,4,1.8,4,4s-1.8,4-4,4s-4-1.8-4-4S25.8,6,28,6z M12,24c-2.2,0-4-1.8-4-4s1.8-4,4-4
		s4,1.8,4,4S14.2,24,12,24z"/>
	<path d="M70,24h-8v-2h8V24z M74,16H62v2h12V16z M84,20c0,8.8-7.2,16-16,16c-2.7,0-5.3-0.7-7.6-2l-7,2L50,32.2l3.2-6.2
		c-0.8-1.9-1.2-4-1.2-6c0-8.8,7.2-16,16-16S84,11.2,84,20z M82,20c0-7.7-6.3-14-14-14s-14,6.3-14,14c0,2,0.4,3.9,1.2,5.7l0.2,0.4
		l-3,5.8l1.7,1.8l6.5-1.9l0.4,0.2c2.1,1.2,4.6,1.9,7,1.9C75.7,34,82,27.7,82,20z"/>
</g>
<g id="Text">
</g>
</svg>
