<?xml version="1.0" encoding="utf-8"?>
<!-- Generator: Adobe Illustrator 21.1.0, SVG Export Plug-In . SVG Version: 6.00 Build 0)  -->
<svg version="1.1" xmlns="http://www.w3.org/2000/svg" xmlns:xlink="http://www.w3.org/1999/xlink" x="0px" y="0px"
	 viewBox="0 0 40 40" enable-background="new 0 0 40 40" xml:space="preserve">
<g id="Ready">
	<path d="M12,14c-3.3,0-6,2.7-6,6s2.7,6,6,6c1.8,0,3.4-0.8,4.5-2l6,3.7C22.2,28.4,22,29.2,22,30c0,3.3,2.7,6,6,6s6-2.7,6-6
		s-2.7-6-6-6c-1.8,0-3.4,0.8-4.5,2l-6-3.7c0.3-0.7,0.5-1.5,0.5-2.3c0-0.8-0.2-1.6-0.5-2.3l6-3.7c1.1,1.2,2.7,2,4.5,2
		c3.3,0,6-2.7,6-6s-2.7-6-6-6s-6,2.7-6,6c0,0.8,0.2,1.6,0.5,2.3l-6,3.7C15.4,14.8,13.8,14,12,14z M28,26c2.2,0,4,1.8,4,4s-1.8,4-4,4
		s-4-1.8-4-4S25.8,26,28,26z M28,6c2.2,0,4,1.8,4,4s-1.8,4-4,4s-4-1.8-4-4S25.8,6,28,6z M12,24c-2.2,0-4-1.8-4-4s1.8-4,4-4
		s4,1.8,4,4S14.2,24,12,24z"/>
</g>
<g id="Text">
</g>
</svg>
