<?xml version="1.0" encoding="utf-8"?>
<!-- Generator: Adobe Illustrator 21.1.0, SVG Export Plug-In . SVG Version: 6.00 Build 0)  -->
<svg version="1.1" xmlns="http://www.w3.org/2000/svg" xmlns:xlink="http://www.w3.org/1999/xlink" x="0px" y="0px"
	 viewBox="0 0 40 40" enable-background="new 0 0 40 40" xml:space="preserve">
<g id="Ready">
	<path d="M36,17c0-7.2-5.8-13-13-13h-1v14h14V17z M24,16V6c5.3,0.5,9.5,4.7,10,10H24z"/>
	<path d="M19,8c-3.5,0-6.7,1.4-9.2,3.8C7.4,14.3,6,17.5,6,21c0,7.2,5.8,13,13,13c3.5,0,6.7-1.4,9.2-3.8l0.7-0.7l0,0
		c2-2.4,3.1-5.3,3.1-8.4v-1H20V8H19z M19,32c-6.1,0-11-4.9-11-11c0-2.9,1.1-5.7,3.2-7.8c1.8-1.8,4.2-2.9,6.8-3.2v11.3l8,8.1
		C24.1,31.1,21.6,32,19,32z M27.4,28l-6-6H30C29.8,24.2,28.9,26.3,27.4,28z"/>
</g>
<g id="Text">
</g>
</svg>
