<svg id="Ready" xmlns="http://www.w3.org/2000/svg" viewBox="0 0 40 40"><title>Artboard 64</title><circle cx="15" cy="20" r="2"/><circle cx="25" cy="20" r="2"/><path d="M34,14H31.95A11,11,0,0,0,21,4H19A11,11,0,0,0,8,14H6a4,4,0,0,0-4,4v4a4,4,0,0,0,4,4h4V15a9,9,0,0,1,.49-2.89l.15.09A25,25,0,0,0,23.88,16H30V27a4,4,0,0,1-4,4h-.14A4,4,0,0,0,22,28H18a4,4,0,0,0,0,8h4a4,4,0,0,0,3.86-3H26a6,6,0,0,0,6-6V26h2a4,4,0,0,0,4-4V18A4,4,0,0,0,34,14ZM8,24H6a2,2,0,0,1-2-2V18a2,2,0,0,1,2-2H8ZM22,34H18a2,2,0,0,1,0-4h4a2,2,0,0,1,0,4ZM11.69,10.5l-.35-.22A9,9,0,0,1,19,6h2a9,9,0,0,1,8.94,8H23.88A23,23,0,0,1,11.69,10.5ZM36,22a2,2,0,0,1-2,2H32V16h2a2,2,0,0,1,2,2Z"/></svg>