<?xml version="1.0" encoding="utf-8"?>
<!-- Generator: Adobe Illustrator 18.1.1, SVG Export Plug-In . SVG Version: 6.00 Build 0)  -->
<!DOCTYPE svg PUBLIC "-//W3C//DTD SVG 1.1//EN" "http://www.w3.org/Graphics/SVG/1.1/DTD/svg11.dtd">
<svg version="1.1" id="Layer_1" xmlns="http://www.w3.org/2000/svg" xmlns:xlink="http://www.w3.org/1999/xlink" x="0px" y="0px"
	 viewBox="-213 356.4 169 128.5" enable-background="new -213 356.4 169 128.5" xml:space="preserve">
<g>
	<rect x="-213" y="356.4" fill="none" width="169" height="128.5"/>
	<g>
		<g>
			<path fill="#00985F" d="M-124.9,372.3v32.4v0l0,0c0,1.4-1.2,2.5-2.6,2.5h-3.9l0,0c-0.2,0-0.3,0.2-0.3,0.3v27.2
				c1,0.1,1.9,0.1,2.9,0.1c17.4,0,31.5-14.1,31.5-31.5C-97.3,387.5-109.3,374.2-124.9,372.3z M-125.5,420.7c-2.2,0-3.9-1.8-3.9-3.9
				c0-2.2,1.8-3.9,3.9-3.9c2.2,0,3.9,1.8,3.9,3.9C-121.6,419-123.4,420.7-125.5,420.7z M-116.3,420.7c-2.2,0-3.9-1.8-3.9-3.9
				c0-2.2,1.8-3.9,3.9-3.9c2.2,0,3.9,1.8,3.9,3.9C-112.4,419-114.1,420.7-116.3,420.7z M-107.1,420.7c-2.2,0-3.9-1.8-3.9-3.9
				c0-2.2,1.8-3.9,3.9-3.9s3.9,1.8,3.9,3.9C-103.2,419-104.9,420.7-107.1,420.7z"/>
			<path fill="#00985F" d="M-128.8,372.1c-17.4,0-31.5,14.1-31.5,31.5c0,15.1,10.6,27.7,24.8,30.8v-28.2l0,0c0-1.4,1.1-2.5,2.5-2.5
				l0,0h4c0.2,0,0.3-0.1,0.3-0.3l0-31.1L-128.8,372.1z M-134.8,398c-2.2,0-3.9-1.8-3.9-3.9c0-2.2,1.8-3.9,3.9-3.9s3.9,1.8,3.9,3.9
				C-130.9,396.3-132.6,398-134.8,398z"/>
		</g>
		<g>
			<polygon fill="#00985F" points="-63.6,453.5 -63.6,459.5 -71.6,459.5 -71.6,453.5 -75.5,453.5 -75.5,469.2 -71.6,469.2
				-71.6,462.9 -63.6,462.9 -63.6,469.2 -59.7,469.2 -59.7,453.5 			"/>
			<path fill="#00985F" d="M-129.1,455.3c-0.7-1.4-2-2.1-3.2-2.1l0,0h0l0,0c-1.3,0-2.6,0.7-3.2,2.1l-6.4,13.9h4.2l1.4-3.3h8.1
				l1.4,3.3h4.2L-129.1,455.3z M-135,462.8l2.4-5.7c0.1-0.2,0.2-0.2,0.3-0.2h0h0c0.1,0,0.2,0,0.3,0.2l2.4,5.7H-135z"/>
			<path fill="#00985F" d="M-175.8,450.7c-1.8,0-3,1-3.9,3l-5.1,11.8l-5.1-11.8c-0.9-2-2-3-3.9-3c-1.7,0-3.5,1.2-3.5,3.9v14.6h3.9
				V455l5.2,11.7c0.7,1.6,1.8,2.7,3.4,2.7l0,0l0,0h0l0,0c1.6,0,2.7-1,3.4-2.7l5.2-11.7v14.2h3.9v-14.6
				C-172.3,451.9-174.1,450.7-175.8,450.7z"/>
			<path fill="#00985F" d="M-165.4,465.9c-0.2,0-0.3-0.2-0.3-0.3v-2.8h9.8v-3.2h-9.8v-2.4c0-0.2,0.1-0.3,0.3-0.3h9.7v-3.3h-11.6
				c-1.4,0-2.3,1.1-2.3,2.3v11c0,1.2,1,2.3,2.3,2.3h11.6v-3.3H-165.4z"/>
			<path fill="#00985F" d="M-149.1,469.2v-12c0-0.2,0.1-0.3,0.3-0.3h9.7v-3.3h-11.6c-1.4,0-2.3,1.1-2.3,2.3v13.3H-149.1z"/>
			<path fill="#00985F" d="M-78.1,461.4c0-5.5-2.4-8-8.3-8h-1.4c-5.9,0-8.3,2.6-8.3,8v0c0,5.4,2.4,8,8.3,8h1.3
				C-80.6,469.4-78.1,466.8-78.1,461.4C-78.1,461.4-78.1,461.4-78.1,461.4z M-86.5,466.1h-1.3c-3.3,0-4.5-1.5-4.5-4.8v0
				c0-3.2,1.1-4.7,4.5-4.7h1.3c3.3,0,4.5,1.6,4.5,4.7v0C-82,464.6-83.3,466.1-86.5,466.1z"/>
			<path fill="#00985F" d="M-107.1,451.1h-3.9h-3.9c-5.8,0-8.1,2.9-8.1,8.1c0,0.8,0,1.5,0.2,2.2c0.6,3.6,2.7,5.9,8.2,5.9h1.7v2h3.9
				v-2h1.7c5.4,0,7.6-2.2,8.2-5.9c0.1-0.7,0.2-1.4,0.2-2.2C-99,454-101.3,451.1-107.1,451.1z M-112.9,463.9h-1.8
				c-2.7,0-3.6-1-4.2-2.5c-0.2-0.6-0.2-1.4-0.2-2.2c0-3.3,1.5-4.8,3.8-4.8h2.4C-112.9,454.4-112.9,463.9-112.9,463.9z M-103,461.4
				c-0.6,1.6-1.5,2.5-4.2,2.5h-1.8v-9.5h2.4c2.3,0,3.8,1.4,3.8,4.8C-102.8,460-102.8,460.8-103,461.4z"/>
		</g>
	</g>
</g>
</svg>
