<?xml version="1.0" encoding="utf-8"?>
<!-- Generator: Adobe Illustrator 22.1.0, SVG Export Plug-In . SVG Version: 6.00 Build 0)  -->
<svg version="1.1" id="Слой_1" xmlns="http://www.w3.org/2000/svg" xmlns:xlink="http://www.w3.org/1999/xlink" x="0px" y="0px"
	 viewBox="0 0 20 20" style="enable-background:new 0 0 20 20;" xml:space="preserve">
<title>Source/System Icons/16/Attention_invert_16</title>
<desc>Created with Sketch.</desc>
<path id="path-1_1_" d="M9,5h2v6H9V5z M10,13c-0.2,0-0.5,0.1-0.7,0.3S9,13.7,9,14s0.1,0.5,0.3,0.7S9.8,15,10,15s0.5-0.1,0.7-0.3
	S11,14.3,11,14s-0.1-0.5-0.3-0.7C10.6,13.1,10.3,13,10,13z M10,17c-3.9,0-7-3.1-7-7s3.1-7,7-7s7,3.1,7,7S13.9,17,10,17z M2,10
	c0,4.4,3.6,8,8,8s8-3.6,8-8s-3.6-8-8-8S2,5.6,2,10z"/>
</svg>
