<?xml version="1.0" encoding="utf-8"?>
<!-- Generator: Adobe Illustrator 23.0.1, SVG Export Plug-In . SVG Version: 6.00 Build 0)  -->
<svg version="1.1" id="Layer_1" xmlns="http://www.w3.org/2000/svg" xmlns:xlink="http://www.w3.org/1999/xlink" x="0px" y="0px"
	 viewBox="0 0 40 40" style="enable-background:new 0 0 40 40;" xml:space="preserve">
<title>Source/System Icons/32/Banner-happy-face_32</title>
<desc>Created with Sketch.</desc>
<path d="M20,36c-8.8,0-16-7.2-16-16S11.2,4,20,4s16,7.2,16,16S28.8,36,20,36z M26.9,25.1l-1-1.9H14.1l-1,1.9c2,2.7,4.2,4,6.9,4
	S24.8,27.8,26.9,25.1z M13.9,17.7c1.3,0,2.3-1,2.3-2.3s-1-2.3-2.3-2.3s-2.3,1-2.3,2.3S12.6,17.7,13.9,17.7z M26.1,17.7
	c1.3,0,2.3-1,2.3-2.3s-1-2.3-2.3-2.3s-2.3,1-2.3,2.3S24.8,17.7,26.1,17.7z"/>
</svg>
