<?xml version="1.0" encoding="utf-8"?>
<!-- Generator: Adobe Illustrator 22.1.0, SVG Export Plug-In . SVG Version: 6.00 Build 0)  -->
<svg version="1.1" id="Слой_1" xmlns="http://www.w3.org/2000/svg" xmlns:xlink="http://www.w3.org/1999/xlink" x="0px" y="0px"
	 viewBox="0 0 40 40" style="enable-background:new 0 0 40 40;" xml:space="preserve">
<title>Source/System Icons/32/Info_invert_32</title>
<desc>Created with Sketch.</desc>
<path id="path-1_1_" d="M19,29h2V17h-2V29z M20,14.5c-0.3,0-0.8-0.1-1-0.4c-0.3-0.3-0.5-0.6-0.5-1.1s0.1-0.8,0.5-1.1
	c0.3-0.3,0.8-0.4,1-0.4s0.8,0.1,1,0.4c0.3,0.3,0.5,0.6,0.5,1.1s-0.1,0.8-0.5,1.1C20.9,14.4,20.5,14.5,20,14.5z M20,6
	C12.2,6,6,12.2,6,20s6.2,14,14,14s14-6.2,14-14S27.8,6,20,6z M20,36c-8.8,0-16-7.2-16-16S11.2,4,20,4s16,7.2,16,16S28.8,36,20,36z"
	/>
</svg>
