<svg xmlns="http://www.w3.org/2000/svg" viewBox="0 0 32 32" style="enable-background:new 0 0 32 32" xml:space="preserve"><path d="M16 28C9.4 28 4 22.6 4 16S9.4 4 16 4s12 5.4 12 12-5.4 12-12 12zm0-2c5.5 0 10-4.5 10-10S21.5 6 16 6 6 10.5 6 16s4.5 10 10 10zm4.4-6.9-.9 1.8c-1.2-.6-2.1-.9-3.5-.9s-2.3.3-3.6.9l-.9-1.8C13 18.4 14.3 18 16 18s2.9.4 4.4 1.1zM12.5 15c-.8 0-1.5-.7-1.5-1.5s.7-1.5 1.5-1.5 1.5.7 1.5 1.5-.7 1.5-1.5 1.5zm7 0c-.8 0-1.5-.7-1.5-1.5s.7-1.5 1.5-1.5 1.5.7 1.5 1.5-.7 1.5-1.5 1.5z"/></svg>