<svg xmlns="http://www.w3.org/2000/svg" viewBox="0 0 32 32" style="enable-background:new 0 0 32 32" xml:space="preserve"><path d="M16 28C9.4 28 4 22.6 4 16S9.4 4 16 4s12 5.4 12 12-5.4 12-12 12zm0-2c5.5 0 10-4.5 10-10S21.5 6 16 6 6 10.5 6 16s4.5 10 10 10zm4.7-5.7-1.4 1.4C18.1 20.5 17.2 20 16 20s-2.1.5-3.3 1.7l-1.4-1.4c1.5-1.5 2.9-2.3 4.7-2.3 1.9 0 3.2.8 4.7 2.3zM12.5 15c-.8 0-1.5-.7-1.5-1.5s.7-1.5 1.5-1.5 1.5.7 1.5 1.5-.7 1.5-1.5 1.5zm7 0c-.8 0-1.5-.7-1.5-1.5s.7-1.5 1.5-1.5 1.5.7 1.5 1.5-.7 1.5-1.5 1.5z"/></svg>