<svg xmlns="http://www.w3.org/2000/svg" viewBox="0 0 20 20"><path d="M15 5.78A7.85 7.85 0 0 0 12 4a2 2 0 0 0-4 0 7.91 7.91 0 0 0-3 1.78 7 7 0 0 0-.92 8.76A1 1 0 0 0 4 15a1 1 0 1 0 1-1 6 6 0 0 1 .78-7.52A7.14 7.14 0 0 1 8.27 5a2 2 0 0 0 1.23.94v4.22A1 1 0 0 0 9 11a1 1 0 0 0 2 0 1 1 0 0 0-.5-.85V5.93a2 2 0 0 0 1.24-1 7.16 7.16 0 0 1 2.5 1.52A6 6 0 0 1 15 14a1 1 0 1 0 1 1 1 1 0 0 0-.14-.49A7 7 0 0 0 15 5.78ZM10 5a1 1 0 1 1 1-1 1 1 0 0 1-1 1Zm-3 9.8v1.42L10 18l3-1.78V14.8L10 13Zm5 .85-2 1.19-2-1.19v-.28l2-1.19 2 1.19Z"/></svg>