<svg xmlns="http://www.w3.org/2000/svg" viewBox="0 0 20 20" style="enable-background:new 0 0 20 20" xml:space="preserve"><path d="M19 12.6c0-1.4-.2-5-1.5-7.5-.4-.6-1-1-1.8-1L3 4c-1.1 0-2 .9-2 2v8h2c.2 1.1 1.2 2 2.5 2s2.2-.9 2.5-2h4c.2 1.1 1.2 2 2.5 2s2.2-.9 2.5-2h2v-1.4zm-2.4-7.1c.4.8.7 1.6.9 2.5H14V5h1.7c.4 0 .7.2.9.5zM6 8V5h3v3H6zm4-3h3v3h-3V5zM3 5h2v3H2V6c0-.6.5-1 1-1zm2.5 10c-.8 0-1.5-.7-1.5-1.5S4.7 12 5.5 12s1.5.7 1.5 1.5S6.3 15 5.5 15zm9 0c-.8 0-1.5-.7-1.5-1.5s.7-1.5 1.5-1.5 1.5.7 1.5 1.5-.7 1.5-1.5 1.5zm3.5-2h-1c-.2-1.1-1.2-2-2.5-2s-2.2.9-2.5 2H8c-.2-1.1-1.2-2-2.5-2s-2.2.9-2.5 2H2V9h15.7c.3 1.5.3 2.8.3 3.6v.4z"/></svg>