<svg xmlns="http://www.w3.org/2000/svg" viewBox="0 0 20 20"><path d="M15.74 13h.48L18 11.22l-3.42-3.41-1.38 1.38a6.26 6.26 0 0 1-2.47-2.39l1.39-1.39L8.78 2 7 3.78v.48A8.85 8.85 0 0 0 15.74 13ZM8 4.19l.78-.78 1.92 2-1.2 1.21.17.32a7.4 7.4 0 0 0 3.39 3.32l.32.17 1.2-1.2 2 2-.78.78h-.07A7.8 7.8 0 0 1 8 4.26ZM10.74 18h.48L13 16.22l-3.42-3.41-1.38 1.38a6.26 6.26 0 0 1-2.47-2.39l1.39-1.39L3.78 7 2 8.78v.48A8.85 8.85 0 0 0 10.74 18ZM3 9.19l.78-.78 1.92 2-1.2 1.2.17.32a7.4 7.4 0 0 0 3.39 3.32l.32.17 1.2-1.2 2 2-.78.78h-.07A7.8 7.8 0 0 1 3 9.26Z"/></svg>