<svg viewBox="0 0 20 20" xmlns="http://www.w3.org/2000/svg">
<path d="M10 4C11.1486 4 12.245 4.3536 13.1627 4.9998L15.5 5C16.8807 5 18 6.1193 18 7.5V12.5C18 13.8807 16.8807 15 15.5 15H4.5C3.1193 15 2 13.8807 2 12.5V7.5C2 6.1193 3.1193 5 4.5 5L6.8373 4.9998C7.755 4.3536 8.8513 4 10 4ZM10 5C9.0118 5 8.0732 5.3188 7.3001 5.8995L7.1667 5.9998H6.9998L4.5 6C3.6716 6 3 6.6716 3 7.5V12.5C3 13.3284 3.6716 14 4.5 14H15.5C16.3284 14 17 13.3284 17 12.5V7.5C17 6.6716 16.3284 6 15.5 6L12.8333 5.9998L12.6999 5.8995C11.9268 5.3188 10.9882 5 10 5ZM10 7C11.6569 7 13 8.3431 13 10C13 11.6569 11.6569 13 10 13C8.3431 13 7 11.6569 7 10C7 8.3431 8.3431 7 10 7ZM10 8C8.8954 8 8 8.8954 8 10C8 11.1046 8.8954 12 10 12C11.1046 12 12 11.1046 12 10C12 8.8954 11.1046 8 10 8ZM15 7C15.5523 7 16 7.4477 16 8C16 8.5523 15.5523 9 15 9C14.4477 9 14 8.5523 14 8C14 7.4477 14.4477 7 15 7Z"/>
</svg>
