<svg xmlns="http://www.w3.org/2000/svg" viewBox="0 0 20 20"><path d="M19 12.52a3.46 3.46 0 0 0-3.08-3.46h-1.04a6.73 6.73 0 0 0-1.3-2.25A5.75 5.75 0 0 0 9 5a10.49 10.49 0 0 0-5.67 2A6.34 6.34 0 0 0 1 12v2h2a2.5 2.5 0 0 0 4.89 0H12a2.5 2.5 0 0 0 4.89 0H19ZM9 6a4.82 4.82 0 0 1 3.82 1.42 5.66 5.66 0 0 1 1 1.58H8V6.1A6.16 6.16 0 0 1 9 6ZM4 7.78a8.87 8.87 0 0 1 3-1.45V9H2.87A5.2 5.2 0 0 1 4 7.78ZM5.5 15A1.49 1.49 0 1 1 7 13.51 1.5 1.5 0 0 1 5.5 15Zm9 0a1.49 1.49 0 1 1 1.5-1.49A1.5 1.5 0 0 1 14.5 15Zm3.5-2h-1a2.5 2.5 0 0 0-4.9 0H7.95A2.5 2.5 0 0 0 3 13H2v-1a5.53 5.53 0 0 1 .36-2h12.46l1 .05A2.45 2.45 0 0 1 18 12.52Z"/></svg>