<svg xmlns="http://www.w3.org/2000/svg" viewBox="0 0 20 20"><path d="m15 10.24-2-1V7.61a2.38 2.38 0 0 0 1-1.92c0-1.37-1.1-1.84-2-2.21s-1.29-.58-1.43-1.11L10.48 2h-1l-.1.37c-.14.53-.63.77-1.43 1.11S6 4.32 6 5.69a2.38 2.38 0 0 0 1 1.92v1.68l-2 1A2 2 0 0 0 4 12v6h5v-4a1 1 0 0 1 1-1 1 1 0 0 1 1 1v4h5v-6a2 2 0 0 0-1-1.76ZM8.39 4.4a4.05 4.05 0 0 0 1.62-1 4.05 4.05 0 0 0 1.62 1C12.5 4.77 13 5 13 5.69A1.46 1.46 0 0 1 12 7H7.95C7.38 6.77 7 6.56 7 6s.51-1.23 1.39-1.6ZM15 17h-3v-3a2 2 0 1 0-4 0v3H5v-5a1 1 0 0 1 .48-.85L8 10V8h4v2l2.49 1.13A1 1 0 0 1 15 12Zm-9-4h1v2H6Zm7 0h1v2h-1Z"/></svg>