<svg viewBox="0 0 20 20" xmlns="http://www.w3.org/2000/svg"><path fill-rule="evenodd" clip-rule="evenodd" d="M4 4.5A1.5 1.5 0 0 1 5.5 3h9A1.5 1.5 0 0 1 16 4.5v11a1.5 1.5 0 0 1-1.5 1.5h-1.38l.93-4.16-.2-.19a5.318 5.318 0 0 0-7.7 0l-.2.19.93 4.16H5.5A1.5 1.5 0 0 1 4 15.5V15H3v.5A2.5 2.5 0 0 0 5.5 18h9a2.5 2.5 0 0 0 2.5-2.5v-11A2.5 2.5 0 0 0 14.5 2h-9A2.5 2.5 0 0 0 3 4.5V5h1v-.5ZM7.9 17h4.2l.9-3.83a4.3 4.3 0 0 0-5.9 0L7.9 17Z"/><path d="M4 13.5v-1H2v1h2ZM4 6.5v1H2v-1h2ZM4 10.5v-1H2v1h2Z"/><path fill-rule="evenodd" clip-rule="evenodd" d="M10 10a2.5 2.5 0 1 0 0-5 2.5 2.5 0 0 0 0 5Zm0-1a1.5 1.5 0 1 0 0-3 1.5 1.5 0 0 0 0 3Z"/></svg>
