<svg xmlns="http://www.w3.org/2000/svg" viewBox="0 0 20 20" style="enable-background:new 0 0 20 20" xml:space="preserve"><path d="m19 10.7-2.6-1.6C15.7 7.3 13.9 6 11.8 6H11V3H1v12h2c.3 1.4 1.6 2.2 2.9 2 1-.2 1.8-1 2-2H12c.3 1.4 1.6 2.2 2.9 2 1-.2 1.8-1 2-2H19v-4.3zM2 4h8v6H2V4zm3.5 12c-.8 0-1.5-.7-1.5-1.5S4.7 13 5.5 13s1.5.7 1.5 1.5S6.3 16 5.5 16zm4.5-2H7.9c-.3-1.4-1.6-2.2-2.9-2-1 .2-1.8 1-2 2H2v-3h8v3zm4.5 2c-.8 0-1.5-.7-1.5-1.5s.7-1.5 1.5-1.5 1.5.7 1.5 1.5-.7 1.5-1.5 1.5zm3.5-2h-1c-.3-1.4-1.6-2.2-2.9-2-1 .2-1.8 1-2 2H11V7h.8c1.7 0 3.2 1.1 3.7 2.7l.1.2 2.4 1.5V14z"/></svg>