<svg viewBox="0 0 20 20" xmlns="http://www.w3.org/2000/svg"><g clip-path="url(#a)"><path d="M11.333 6v.474A2.696 2.696 0 0 0 9.703 6c-1.48 0-3.155 1.067-3.155 4s1.674 4 3.156 4a2.682 2.682 0 0 0 2.43-1.333A2.964 2.964 0 0 0 14.666 14a3.599 3.599 0 0 0 3.205-2.56c.14-.467.128-.94.128-1.44a8 8 0 1 0-8 8 8.414 8.414 0 0 0 4.933-1.66l-.43-.844a7.94 7.94 0 0 1-4.444 1.482A7.274 7.274 0 0 1 2.993 10 7.274 7.274 0 0 1 10 2.993 7.274 7.274 0 0 1 17.007 10c0 .933-.74 2.963-2.34 2.963-1.926 0-2.163-2.874-2.163-2.963V6h-1.17Zm-1.837 7.007c-1.066 0-2-1.274-2-2.963 0-1.688 1.111-2.963 2.163-2.963.608 0 1.837.326 1.837 2.963s-1.392 2.963-2 2.963Z"/></g><defs><clipPath id="a"><path transform="translate(2 2)" d="M0 0h16v16H0z"/></clipPath></defs></svg>
