<svg xmlns="http://www.w3.org/2000/svg" viewBox="0 0 20 20" style="enable-background:new 0 0 20 20" xml:space="preserve"><path d="M14 2a2 2 0 0 1 2 2v12a2 2 0 0 1-2 2H6a2 2 0 0 1-2-2V7.5L9 2h5zm0 1H9.441L5 7.885V16a1 1 0 0 0 .883.993L6 17h8a1 1 0 0 0 .993-.883L15 16V4a1 1 0 0 0-.883-.993L14 3zm-4 4a3 3 0 0 1 3 3 1 1 0 0 1-.883.993L12 11H8a2 2 0 0 0 1.85 1.995L10 13h.495a2.011 2.011 0 0 0 1.498-.667l.104-.13.806.593a2.988 2.988 0 0 1-2.197 1.195L10.5 14H10a3 3 0 0 1-2.995-2.824L7 11v-1a3 3 0 0 1 3-3zm0 1a2 2 0 0 0-1.995 1.85L8 10 12 10l-.005-.15A2 2 0 0 0 10 8z"/></svg>