<svg version="1.1" xmlns="http://www.w3.org/2000/svg" xmlns:xlink="http://www.w3.org/1999/xlink" x="0px" y="0px"
	 viewBox="0 0 20 20" style="enable-background:new 0 0 20 20;" xml:space="preserve">
<path id="Shape" d="M14,2c1.10457,0,2,0.89543,2,2v12c0,1.10457-0.89543,2-2,2H6c-1.10457,0-2-0.89543-2-2V7.5L9,2H14z M14,3H9.441
	L5,7.885V16c0,0.51284,0.38604,0.93551,0.88338,0.99327L6,17h8c0.51284,0,0.93551-0.38604,0.99327-0.88338L15,16V4
	c0-0.51284-0.38604-0.93551-0.88338-0.99327L14,3z M10,7c1.65685,0,3,1.34315,3,3c0,0.51284-0.38604,0.93551-0.88338,0.99327L12,11
	H8c0,1.05437,0.81589,1.9182,1.85074,1.99455L10,13.00003l0.4953,0.00002c0.59101-0.00556,1.13157-0.25196,1.49762-0.66701
	l0.10446-0.1295l0.80526,0.59292c-0.5112,0.69427-1.31046,1.12913-2.19667,1.19498L10.5,14.00003H10
	c-1.59768,0-2.90366-1.24895-2.99491-2.82376L7,11v-1C7,8.34315,8.34315,7,10,7z M10,8C8.94564,8,8.08183,8.81588,8.00549,9.85074
	L8,9.999L12,10l-0.00549-0.14926C11.91817,8.81588,11.05436,8,10,8z"/>
</svg>
