<svg xmlns="http://www.w3.org/2000/svg" viewBox="0 0 20 20" style="enable-background:new 0 0 20 20" xml:space="preserve"><path d="M6 2C4.3 2 3 3.3 3 5s1.3 3 3 3 3-1.3 3-3-1.4-3-3-3zm0 5c-1.1 0-2-.9-2-2s.9-2 2-2 2 .9 2 2-.9 2-2 2zm0 2c-2.1 0-3.9 1-4 1l1 8h6l1-8c-.1 0-1.9-1-4-1zm2.1 8H3.8l-.7-6.4c.5-.2 1.5-.6 2.9-.6s2.5.4 2.9.6L8.1 17zm6.4-12c-1.6 0-3 1.3-3 3s1.3 3 3 3c1.6 0 3-1.3 3-3s-1.4-3-3-3zm0 5c-1.1 0-2-.9-2-2s.9-2 2-2 2 .9 2 2-.9 2-2 2zm2.9 2.7s-1.4-.7-3-.7-2.9.6-3 .7l-.5 5.3H18l-.6-5.3zM12 17l.4-3.7c.3-.1 1.1-.3 2-.3.9 0 1.7.2 2 .4l.4 3.6H12z"/></svg>