<svg viewBox="0 0 20 20" xmlns="http://www.w3.org/2000/svg"><path d="m5.25 4.45-.5-.85C6.4 2.55 8.05 2 10 2c2.05 0 3.65.5 5.3 1.6l-.55.85C13.25 3.45 11.85 3 10 3c-1.75 0-3.2.5-4.75 1.45ZM3.45 8.8l-.85-.5C4.2 5.6 6.85 4 10 4c3.1 0 5.8 1.55 7.45 4.2l-.85.5C15.15 6.4 12.75 5 10 5 7.2 5 4.85 6.4 3.45 8.8Zm1.95 6.45-.85.55C3.7 14.45 3.5 13.6 3.5 12c0-3 3-6 6.5-6 3.8 0 6.5 2.7 6.5 5.5 0 1.65-1.05 2.5-2.5 2.5-.4 0-.85-.05-1.2-.25s-.65-.45-.9-.75c-.2-.25-.35-.45-.5-.7-.15-.25-.25-.5-.45-.75-.15-.2-.3-.35-.5-.45-.15-.1-.3-.1-.45-.1-1.45 0-1.8 1-1.05 2.8.3.7.9 1.35 1.65 2 .45.35.9.65 1.35.95.15.1.3.2.45.25.1.05.15.05.15.1l-.4.9c-.05 0-.1-.05-.2-.1-.15-.1-.3-.15-.5-.25-.5-.3-1-.65-1.5-1-.9-.75-1.6-1.5-1.95-2.35-1-2.45-.3-4.3 2-4.3.4 0 .75.05 1.1.3.35.2.6.55.85.9.3.45.5.9.85 1.3.25.25.55.45.9.5h.35c.95 0 1.5-.45 1.5-1.5 0-2.2-2.3-4.5-5.5-4.5-2.95 0-5.5 2.55-5.5 5-.05 1.45.1 2.1.85 3.25Zm2.95.9-.7.7C6.3 15.55 5.5 13.9 5.5 12c0-2.2 2.15-4 4.5-4 2.1 0 3.3.95 4.45 3.3l-.9.45c-1-2-1.9-2.7-3.55-2.7-1.85 0-3.5 1.4-3.5 3s.7 2.95 1.85 4.1ZM14 15v1c-2.05 0-3.85-1.45-4.45-3.35l.95-.3c.45 1.5 1.9 2.65 3.5 2.65Z"/></svg>
