<?xml version="1.0" encoding="utf-8"?>
<svg version="1.1" id="Слой_1" xmlns="http://www.w3.org/2000/svg" xmlns:xlink="http://www.w3.org/1999/xlink" x="0px" y="0px"
	 viewBox="0 0 20 20" style="enable-background:new 0 0 20 20;" xml:space="preserve">
<path id="Shape" d="M8.49248,16.83728C8.97803,16.94385,9.48246,17.00001,10,17.00001s1.02197-0.05617,1.50752-0.16273
	l1.06801-3.29235l3.46082,0.00165c0.5041-0.85614,0.83125-1.82895,0.9312-2.86814l-2.80025-2.03246l1.07065-3.28978
	c-0.66992-0.75508-1.50062-1.36428-2.43844-1.77394L10,5.61826l-2.79951-2.036C6.26268,3.99192,5.43198,4.60112,4.76205,5.3562
	l1.07065,3.28978l-2.80025,2.03246c0.09994,1.0392,0.4271,2.012,0.9312,2.86814l3.46082-0.00165L8.49248,16.83728L8.49248,16.83728z
	 M7.32185,16.46941l-0.62418-1.92414l-2.02062,0.00097C5.38934,15.37942,6.29383,16.04337,7.32185,16.46941L7.32185,16.46941z
	 M3.02122,9.45095l1.63551-1.18708l-0.62567-1.9225C3.46721,7.25932,3.10918,8.31726,3.02122,9.45095L3.02122,9.45095z
	 M8.36429,3.19216L10,4.38176l1.63571-1.18961C11.11096,3.06654,10.56325,3.00001,10,3.00001S8.88904,3.06654,8.36429,3.19216
	L8.36429,3.19216z M15.96894,6.34138l-0.62567,1.9225l1.63551,1.18708C16.89082,8.31726,16.53279,7.25932,15.96894,6.34138
	L15.96894,6.34138z M15.32294,14.54624l-2.02062-0.00097l-0.62418,1.92414C13.70617,16.04337,14.61066,15.37942,15.32294,14.54624
	L15.32294,14.54624z M10,18.00001c-4.41828,0-8-3.58172-8-8s3.58172-8,8-8s8,3.58172,8,8S14.41828,18.00001,10,18.00001z
	 M10,6.88198l2.96543,2.15451l-1.13269,3.48607H8.16727L7.03457,9.03649L10,6.88198z M8.21014,9.41845l0.68366,2.1041h2.21238
	l0.68366-2.1041L10,8.11805L8.21014,9.41845z"/>
</svg>
