<svg xmlns="http://www.w3.org/2000/svg" viewBox="0 0 20 20" style="enable-background:new 0 0 20 20" xml:space="preserve"><path d="M8.492 16.837a7.026 7.026 0 0 0 3.016 0l1.068-3.292 3.46.002a6.956 6.956 0 0 0 .932-2.869l-2.8-2.032 1.07-3.29A7.019 7.019 0 0 0 12.8 3.582L10 5.618 7.2 3.582a7.019 7.019 0 0 0-2.438 1.774l1.07 3.29-2.8 2.032c.1 1.04.428 2.012.932 2.869l3.46-.002 1.068 3.292zm-1.17-.368-.624-1.924-2.021.001a7.018 7.018 0 0 0 2.645 1.923zm-4.3-7.018 1.635-1.187L4.03 6.34a6.958 6.958 0 0 0-1.01 3.11zm5.342-6.259L10 4.382l1.636-1.19a7.02 7.02 0 0 0-3.272 0zm7.605 3.15-.626 1.922L16.98 9.45a6.958 6.958 0 0 0-1.01-3.11zm-.646 8.204h-2.02l-.625 1.923a7.018 7.018 0 0 0 2.645-1.923zM10 18a8 8 0 1 1 0-16 8 8 0 0 1 0 16zm0-11.118 2.965 2.154-1.132 3.487H8.167L7.035 9.036 10 6.882zM8.21 9.418l.684 2.105h2.212l.684-2.105-1.79-1.3-1.79 1.3z"/></svg>