<?xml version="1.0" encoding="utf-8"?>
<svg version="1.1" id="Слой_1" xmlns="http://www.w3.org/2000/svg" xmlns:xlink="http://www.w3.org/1999/xlink" x="0px" y="0px"
	 viewBox="0 0 20 20" style="enable-background:new 0 0 20 20;" xml:space="preserve">
<path id="Shape" d="M4.35725,7.95532C4.12208,8.60411,4,9.29317,4,10c0,3.31371,2.68629,6,6,6
	c0.56927,0,1.1272-0.07916,1.66226-0.2331C11.55697,15.447,11.5,15.10515,11.5,14.75c0-1.79493,1.45507-3.25,3.25-3.25
	c0.35515,0,0.697,0.05697,1.01691,0.16226C15.92079,11.12738,16,10.5694,16,10c0-3.31371-2.68629-6-6-6
	C9.284,4,8.58635,4.12529,7.93061,4.36626C7.97606,4.57043,8,4.78243,8,4.99997c0,1.6617-1.39671,2.99998-3.10911,2.99998
	C4.71044,7.99995,4.53208,7.98485,4.35725,7.95532L4.35725,7.95532z M3.37429,7.73616L2.23862,8.04431L1.40174,7.08833
	l0.5547-1.09921C1.84162,5.67331,1.78178,5.3403,1.78178,4.99997c0-1.6617,1.39671-3.00002,3.10911-3.00002
	c1.12345,0,2.11102,0.57604,2.65744,1.44153C8.32474,3.1511,9.15203,3,10,3c3.86599,0,7,3.13401,7,7
	c0,0.73068-0.11216,1.44635-0.32943,2.12792C17.47668,12.71936,18,13.67356,18,14.75c0,1.79493-1.45507,3.25-3.25,3.25
	c-1.07644,0-2.03065-0.52332-2.62209-1.32943C11.44607,16.88792,10.73045,17,10,17c-3.86599,0-7-3.13401-7-7
	C3,9.22029,3.12774,8.45789,3.37429,7.73616L3.37429,7.73616z M14.75,17c1.24264,0,2.25-1.00736,2.25-2.25s-1.00736-2.25-2.25-2.25
	s-2.25,1.00736-2.25,2.25S13.50736,17,14.75,17z M15.01625,15.2755l0.29513-0.29513l0.72913,0.72913L15.75,16h-0.06287
	c-1.18563,0-2.14663-0.96113-2.14663-2.14662V13.7905L13.831,13.5l0.72913,0.72913l-0.29525,0.29513
	C14.42975,14.84737,14.69312,15.11088,15.01625,15.2755z M3.06089,6.02018l-0.44721,0.8862l1.0352-0.28088l0.17771,0.09884
	c0.32287,0.17958,0.68621,0.27561,1.0643,0.27561C6.06034,6.99995,7,6.0996,7,4.99997c0-1.09964-0.93967-2.00002-2.10911-2.00002
	S2.78178,3.90033,2.78178,4.99997c0,0.27789,0.06093,0.54819,0.17772,0.80088L3.06089,6.02018z M6.59774,10.3525
	c0,0.144,0.036,0.25425,0.108,0.33075c0.072,0.0765,0.168,0.11475,0.288,0.11475c0.096,0,0.17175-0.024,0.22725-0.072
	c0.0555-0.048,0.08325-0.114,0.08325-0.198c0-0.087-0.03825-0.15525-0.11475-0.20475S6.99224,10.216,6.82724,10.15
	c-0.144-0.057-0.28275-0.114-0.41625-0.171s-0.2505-0.1245-0.351-0.2025c-0.1005-0.078-0.18075-0.171-0.24075-0.279
	c-0.06-0.108-0.09-0.243-0.09-0.405s0.03525-0.30075,0.10575-0.41625c0.0705-0.1155,0.16425-0.21,0.28125-0.2835
	c0.117-0.0735,0.24975-0.1275,0.39825-0.162S6.81674,8.179,6.97574,8.179c0.231,0,0.4245,0.03,0.5805,0.09
	s0.282,0.13875,0.378,0.23625s0.165,0.20775,0.207,0.33075c0.042,0.123,0.063,0.246,0.063,0.369h-0.936
	c0-0.261-0.1035-0.3915-0.3105-0.3915c-0.078,0-0.1455,0.0195-0.2025,0.0585c-0.057,0.039-0.0855,0.102-0.0855,0.189
	c0,0.081,0.036,0.1485,0.108,0.2025c0.072,0.054,0.18,0.1065,0.324,0.1575c0.135,0.048,0.27075,0.099,0.40725,0.153
	c0.1365,0.054,0.2595,0.12,0.369,0.198c0.1095,0.078,0.198,0.17325,0.2655,0.28575c0.0675,0.1125,0.10125,0.24975,0.10125,0.41175
	c0,0.162-0.03,0.3075-0.09,0.4365s-0.1455,0.237-0.2565,0.324c-0.111,0.087-0.246,0.15375-0.405,0.20025
	C7.33424,11.47675,7.15575,11.5,6.95774,11.5c-0.198,0-0.3765-0.0255-0.5355-0.0765S6.12749,11.299,6.01499,11.203
	c-0.1125-0.096-0.1995-0.21525-0.261-0.35775c-0.0615-0.1425-0.09225-0.30675-0.09225-0.49275H6.59774z M10,11.5
	c-0.27,0-0.51075-0.04575-0.72225-0.13725s-0.39-0.21375-0.5355-0.36675c-0.1455-0.153-0.2565-0.33-0.333-0.531
	c-0.0765-0.201-0.11475-0.4095-0.11475-0.6255c0-0.216,0.03825-0.4245,0.11475-0.6255c0.0765-0.201,0.1875-0.378,0.333-0.531
	c0.1455-0.153,0.324-0.27525,0.5355-0.36675S9.73,8.179,10,8.179s0.5115,0.04575,0.7245,0.13725S11.11675,8.53,11.26225,8.683
	c0.1455,0.153,0.2565,0.33,0.333,0.531C11.67175,9.415,11.71,9.6235,11.71,9.8395c0,0.216-0.03825,0.4245-0.11475,0.6255
	c-0.0765,0.201-0.1875,0.378-0.333,0.531c-0.1455,0.153-0.32475,0.27525-0.53775,0.36675S10.27,11.5,10,11.5z M10,10.645
	c0.12,0,0.22725-0.0225,0.32175-0.0675s0.174-0.10425,0.2385-0.17775c0.0645-0.0735,0.114-0.159,0.1485-0.2565
	c0.0345-0.0975,0.05175-0.19875,0.05175-0.30375s-0.01725-0.20625-0.05175-0.30375c-0.0345-0.0975-0.084-0.183-0.1485-0.2565
	c-0.0645-0.0735-0.144-0.13275-0.2385-0.17775C10.22725,9.0565,10.12,9.034,10,9.034S9.77275,9.0565,9.67825,9.1015
	c-0.0945,0.045-0.174,0.10425-0.2385,0.17775c-0.0645,0.0735-0.114,0.159-0.1485,0.2565
	C9.25675,9.63325,9.2395,9.7345,9.2395,9.8395s0.01725,0.20625,0.05175,0.30375c0.0345,0.0975,0.084,0.183,0.1485,0.2565
	c0.0645,0.0735,0.144,0.13275,0.2385,0.17775S9.88,10.645,10,10.645z M12.69628,10.3525c0,0.144,0.036,0.25425,0.108,0.33075
	c0.072,0.0765,0.168,0.11475,0.288,0.11475c0.096,0,0.17175-0.024,0.22725-0.072c0.0555-0.048,0.08325-0.114,0.08325-0.198
	c0-0.087-0.03825-0.15525-0.11475-0.20475c-0.0765-0.0495-0.19725-0.10725-0.36225-0.17325
	c-0.144-0.057-0.28275-0.114-0.41625-0.171s-0.2505-0.1245-0.351-0.2025c-0.1005-0.078-0.18075-0.171-0.24075-0.279
	c-0.06-0.108-0.09-0.243-0.09-0.405s0.03525-0.30075,0.10575-0.41625c0.0705-0.1155,0.16425-0.21,0.28125-0.2835
	c0.117-0.0735,0.24975-0.1275,0.39825-0.162c0.1485-0.0345,0.30225-0.05175,0.46125-0.05175c0.231,0,0.4245,0.03,0.5805,0.09
	c0.156,0.06,0.282,0.13875,0.378,0.23625c0.096,0.0975,0.165,0.20775,0.207,0.33075c0.042,0.123,0.063,0.246,0.063,0.369h-0.936
	c0-0.261-0.1035-0.3915-0.3105-0.3915c-0.078,0-0.1455,0.0195-0.2025,0.0585c-0.057,0.039-0.0855,0.102-0.0855,0.189
	c0,0.081,0.036,0.1485,0.108,0.2025c0.072,0.054,0.18,0.1065,0.324,0.1575c0.135,0.048,0.27075,0.099,0.40725,0.153
	c0.1365,0.054,0.2595,0.12,0.369,0.198c0.1095,0.078,0.198,0.17325,0.2655,0.28575c0.0675,0.1125,0.10125,0.24975,0.10125,0.41175
	c0,0.162-0.03,0.3075-0.09,0.4365c-0.06,0.129-0.1455,0.237-0.2565,0.324c-0.111,0.087-0.246,0.15375-0.405,0.20025
	c-0.159,0.0465-0.3375,0.06975-0.5355,0.06975s-0.3765-0.0255-0.5355-0.0765c-0.159-0.051-0.29475-0.1245-0.40725-0.2205
	c-0.1125-0.096-0.1995-0.21525-0.261-0.35775c-0.0615-0.1425-0.09225-0.30675-0.09225-0.49275H12.69628z"/>
</svg>
