<svg xmlns="http://www.w3.org/2000/svg" viewBox="0 0 20 20" style="enable-background:new 0 0 20 20" xml:space="preserve"><path d="M4.357 7.955a6 6 0 0 0 7.305 7.812 3.25 3.25 0 0 1 4.105-4.105A6 6 0 0 0 7.93 4.366C7.976 4.57 8 4.782 8 5c0 1.662-1.397 3-3.11 3-.18 0-.358-.015-.533-.045zm-.983-.219-1.135.308-.837-.956.554-1.099A2.888 2.888 0 0 1 1.782 5c0-1.662 1.396-3 3.109-3C6.014 2 7 2.576 7.548 3.441a7 7 0 0 1 9.122 8.686 3.25 3.25 0 1 1-4.543 4.543 7 7 0 0 1-8.754-8.934h.001zM14.75 17a2.25 2.25 0 1 0 0-4.5 2.25 2.25 0 0 0 0 4.5zm.266-1.725.295-.295.73.73-.291.29h-.063a2.147 2.147 0 0 1-2.146-2.147v-.063l.29-.29.73.73-.296.294c.165.323.428.587.751.752zM3.061 6.02l-.447.886 1.035-.28.178.098c.322.18.686.276 1.064.276C6.06 7 7 6.1 7 5s-.94-2-2.11-2-2.108.9-2.108 2c0 .278.06.548.177.8l.102.22zm3.537 4.332c0 .144.036.255.108.331a.377.377 0 0 0 .288.115.336.336 0 0 0 .227-.072.248.248 0 0 0 .083-.198c0-.087-.038-.155-.115-.205s-.197-.107-.362-.173c-.144-.057-.283-.114-.416-.171s-.25-.124-.351-.202a.91.91 0 0 1-.24-.28c-.06-.107-.09-.242-.09-.404a.784.784 0 0 1 .386-.7c.117-.074.25-.128.398-.162s.303-.052.462-.052c.23 0 .424.03.58.09s.282.139.378.236.165.208.207.331c.042.123.063.246.063.369h-.936c0-.261-.103-.392-.31-.392a.35.35 0 0 0-.203.059c-.057.039-.085.102-.085.189 0 .081.036.148.108.203.072.054.18.106.324.157.135.048.27.099.407.153.136.054.26.12.369.198.11.078.198.173.265.286.068.112.102.25.102.412 0 .162-.03.307-.09.436s-.146.237-.257.324a1.19 1.19 0 0 1-.405.2c-.159.047-.337.07-.535.07s-.377-.025-.536-.076-.295-.125-.407-.221a.966.966 0 0 1-.261-.358 1.234 1.234 0 0 1-.092-.493h.936zM10 11.5c-.27 0-.51-.046-.722-.137s-.39-.214-.536-.367a1.575 1.575 0 0 1-.333-.531 1.744 1.744 0 0 1 0-1.251 1.575 1.575 0 0 1 .869-.898c.211-.091.452-.137.722-.137s.511.046.725.137.392.214.537.367c.146.153.257.33.333.531a1.744 1.744 0 0 1 0 1.251 1.575 1.575 0 0 1-.333.531c-.145.153-.325.275-.538.367s-.454.137-.724.137zm0-.855a.74.74 0 0 0 .56-.245.778.778 0 0 0 .149-.257.904.904 0 0 0 0-.607.73.73 0 0 0-.709-.502.74.74 0 0 0-.56.245.778.778 0 0 0-.149.257.904.904 0 0 0 0 .607.73.73 0 0 0 .709.502zm2.696-.293c0 .144.036.255.108.331a.377.377 0 0 0 .288.115.336.336 0 0 0 .228-.072.248.248 0 0 0 .083-.198.232.232 0 0 0-.115-.205 2.25 2.25 0 0 0-.362-.173c-.144-.057-.283-.114-.416-.171s-.251-.124-.351-.202a.91.91 0 0 1-.241-.28c-.06-.107-.09-.242-.09-.404a.784.784 0 0 1 .387-.7c.117-.074.25-.128.398-.162.149-.035.302-.052.461-.052.231 0 .425.03.58.09.157.06.283.139.379.236a.867.867 0 0 1 .207.331c.042.123.063.246.063.369h-.936c0-.261-.104-.392-.31-.392a.35.35 0 0 0-.203.059c-.057.039-.086.102-.086.189 0 .081.036.148.108.203.072.054.18.106.324.157.135.048.271.099.408.153.136.054.259.12.369.198.109.078.198.173.265.286.068.112.101.25.101.412 0 .162-.03.307-.09.436a.874.874 0 0 1-.256.324 1.19 1.19 0 0 1-.405.2c-.16.047-.338.07-.536.07s-.376-.025-.535-.076a1.169 1.169 0 0 1-.407-.221.966.966 0 0 1-.261-.358 1.234 1.234 0 0 1-.093-.492h.936z"/></svg>