<svg xmlns="http://www.w3.org/2000/svg" viewBox="0 0 20 20"><path d="M11 3V2h-1v1c-4.7.2-7 3.5-7 7.5.5-.5 1.5-1 2.5-1s2 .5 2.5 1c.4-.4 1.2-.8 2-.9V15c0 1.4-.4 2-1.2 2-.9 0-1.2-.4-1.2-1.5h-1c0 1.6.8 2.5 2.2 2.5 1.5 0 2.2-1.1 2.2-3V9.6c.8.1 1.6.5 2 .9.5-.5 1.5-1 2.5-1s2 .5 2.5 1c0-4-2.3-7.3-7-7.5zm-.5 1.3c.7.9 1.3 1.8 1.5 2.6.2.7.4 1.4.4 2.1-.6-.3-1.3-.5-2-.5s-1.4.2-2 .5c.2-.7.3-1.4.6-2.1.2-.8.7-1.7 1.5-2.6zM4.2 8.7c.6-2.6 2.4-4.3 5.2-4.6C8.7 5 8.3 5.8 8 6.6c-.3.8-.4 1.6-.5 2.4-.6-.3-1.3-.5-2-.5-.4 0-.9.1-1.3.2zm9.3.3c-.1-.8-.2-1.6-.5-2.4-.3-.8-.7-1.6-1.4-2.5 2.8.4 4.6 2.1 5.2 4.6-.4-.1-.9-.2-1.3-.2-.7 0-1.4.2-2 .5z"/></svg>
