<svg xmlns="http://www.w3.org/2000/svg" viewBox="0 0 20 20"><path d="M16.48 2h-13A1.5 1.5 0 0 0 2 3.49v13A1.5 1.5 0 0 0 3.48 18h13a1.5 1.5 0 0 0 1.5-1.5v-13a1.5 1.5 0 0 0-1.5-1.5Zm-13 1h13a.5.5 0 0 1 .5.5V6H3V3.49A.5.5 0 0 1 3.48 3ZM7 17V9.6L8.26 11h3.43L13 9.65V17Zm9.5 0H14V8.49L13.21 8l-1.95 2H8.7L6.86 8 6 8.45V17H3.48a.5.5 0 0 1-.5-.5V7H17v9.5a.5.5 0 0 1-.52.5ZM15 4.49a.5.5 0 1 1 .5.5.5.5 0 0 1-.5-.5Zm-6 9a.5.5 0 1 1-.5-.5.5.5 0 0 1 .5.5Zm3 0a.5.5 0 1 1-.5-.5.5.5 0 0 1 .5.5ZM9.48 15h1v1h-1Z"/></svg>