<svg xmlns="http://www.w3.org/2000/svg" viewBox="0 0 20 20"><path d="M9 3a1 1 0 1 1 1 1 1 1 0 0 1-1-1Zm8 5a1 1 0 1 0-1-1 1 1 0 0 0 1 1ZM3 6a1 1 0 1 0 1 1 1 1 0 0 0-1-1Zm0 7a1 1 0 1 0 1 1 1 1 0 0 0-1-1Zm7 4a1 1 0 1 0 1 1 1 1 0 0 0-1-1Zm7-4a1 1 0 1 0 1 1 1 1 0 0 0-1-1Zm-1.5-2.51A5.5 5.5 0 0 1 10 16a5.49 5.49 0 0 1 0-11 5.5 5.5 0 0 1 5.5 5.49Zm-3.43-4A7.92 7.92 0 0 1 13 10h1.5a4.47 4.47 0 0 0-2.43-3.48ZM12 11H8c.12 2.36 1.08 4 2 4 .87 0 1.83-1.64 2-4Zm0-1c-.12-2.37-1.08-4-2-4-.88 0-1.83 1.63-2 4Zm-6.43 0H7a8 8 0 0 1 .86-3.43A4.47 4.47 0 0 0 5.57 10Zm2.31 4.43A8 8 0 0 1 7 11H5.57a4.47 4.47 0 0 0 2.31 3.42ZM14.45 11H13a7.92 7.92 0 0 1-.89 3.47A4.47 4.47 0 0 0 14.45 11Z"/></svg>