<svg xmlns="http://www.w3.org/2000/svg" viewBox="0 0 20 20"><path d="m11.27 9.5-.48-.12.48.62Zm4.23 0h.5V9h-.5Zm-8.5 8-.49-.12-.15.62H7Zm1.73-7 .48.12-.48-.62Zm-4.23 0H4v.5h.5Zm7.5-8V2h-.2l-.14.13Zm1 0 .49.12.15-.62H13Zm-5 15v.5h.2l.14-.13Zm-3.5-8-.34-.37-.16.15v.22Zm11 1 .34.37.16-.15v-.22Zm-4.23-.5h4.23V9h-4.23Zm-3.78 7.62 1.72-7-1-.24-1.73 7ZM8.73 10H4.5v1h4.23ZM12 3h1V2h-1Zm.51-.62-1.72 7 1 .24 1.73-7ZM8 17H7v1h1Zm-3-6.5v-1H4v1Zm-.16-.63 7.5-7-.68-.74-7.5 7ZM15 9.5v1h1v-1Zm.16.63-7.5 7 .68.74 7.5-7Z"/></svg>