<svg xmlns="http://www.w3.org/2000/svg" viewBox="0 0 20 20">
  <path d="M11.27,9.5l-.48-.12.48.62Zm4.23,0H16V9h-.5ZM7,17.5l-.49-.12L6.36,18H7Zm1.73-7,.48.12L8.73,10Zm-4.23,0H4V11h.5Zm7.5-8V2h-.2l-.14.13Zm1,0,.49.12L13.64,2H13Zm-5,15V18h.2l.14-.13Zm-3.5-8-.34-.37L4,9.28V9.5Zm11,1,.34.37.16-.15V10.5ZM11.27,10H15.5V9H11.27ZM7.49,17.62l1.72-7-1-.24-1.73,7ZM8.73,10H4.5v1H8.73ZM12,3h1V2H12Zm.51-.62-1.72,7,1,.24,1.73-7ZM8,17H7v1H8ZM5,10.5v-1H4v1Zm-.16-.63,7.5-7-.68-.74-7.5,7ZM15,9.5v1h1v-1Zm.16.63-7.5,7,.68.74,7.5-7Z"/>
</svg>
