<svg xmlns="http://www.w3.org/2000/svg" viewBox="0 0 20 20"><path d="M3.5 9A2.5 2.5 0 1 1 6 6.5 2.5 2.5 0 0 1 3.5 9Zm0-4A1.5 1.5 0 1 0 5 6.5 1.5 1.5 0 0 0 3.5 5Zm13 4A2.5 2.5 0 1 1 19 6.5 2.5 2.5 0 0 1 16.5 9Zm0-4A1.5 1.5 0 1 0 18 6.5 1.5 1.5 0 0 0 16.5 5ZM10 9a3 3 0 1 1 3-3 3 3 0 0 1-3 3Zm0-5a2 2 0 1 0 2 2 2 2 0 0 0-2-2Zm2.32 13H7.69L7 10.66l.35-.14a7 7 0 0 1 5.3 0l.35.14Zm-3.75-1h2.86l.5-4.68a6 6 0 0 0-3.87 0ZM6 16H1l.49-5.74.36-.08A8.11 8.11 0 0 1 3.47 10h.05a8.11 8.11 0 0 1 1.62.18l.36.08Zm-3.9-1h2.8l-.33-3.91a6.87 6.87 0 0 0-2.14 0ZM19 16h-5l.49-5.74.36-.08a8.11 8.11 0 0 1 1.63-.18h.05a8.11 8.11 0 0 1 1.62.18l.36.08Zm-3.89-1h2.8l-.33-3.91a6.87 6.87 0 0 0-2.14 0Z"/></svg>