<svg xmlns="http://www.w3.org/2000/svg" viewBox="0 0 20 20"><path d="m17 2-2.4 1.6a2.59 2.59 0 0 1-2.51.27L8.32 2.28a3.59 3.59 0 0 0-3.55.42L2 4.78V17l1 1 2.36-1.57a2.58 2.58 0 0 1 2.51-.27l3.62 1.55a3.59 3.59 0 0 0 3.76-.6L18 14.74V3ZM4.8 15.61l-1.75 1.25L3 16.8V5.28l2.37-1.77A2.54 2.54 0 0 1 6 3.16v11.9a3.55 3.55 0 0 0-1.2.55Zm3.48-.38A3.54 3.54 0 0 0 7 15V3a2.54 2.54 0 0 1 .91.19l3.79 1.62.31.11v11.9h-.11Zm8.7-.95-2.37 2.07A2.56 2.56 0 0 1 13 17V5.09a3.6 3.6 0 0 0 2.17-.66l1.74-1.25.05.05Z"/></svg>