<svg xmlns="http://www.w3.org/2000/svg" viewBox="0 0 20 20">
    <path d="M2.28 7.9l.965.255A7 7 0 1 0 8.2 3.235l-.26-.965A8 8 0 1 1 2.28 7.9zM5.5 4.72a.75.75 0 1 1-1.5 0 .75.75 0 0 1 1.5 0zm1.435-1.14a.75.75 0 1 1-1.5 0 .75.75 0 0 1 1.5 0zM4.325 6.2a.75.75 0 1 1-1.5 0 .75.75 0 0 1 1.5 0zm2.791 7.64l-.732-.68 6.5-7 .732.68-6.5 7zM7.75 9.5a1.75 1.75 0 1 1 0-3.5 1.75 1.75 0 0 1 0 3.5zm0-1a.75.75 0 1 0 0-1.5.75.75 0 0 0 0 1.5zm4.5 5.5a1.75 1.75 0 1 1 0-3.5 1.75 1.75 0 0 1 0 3.5zm0-1a.75.75 0 1 0 0-1.5.75.75 0 0 0 0 1.5z"/>
</svg>
