<svg viewBox="0 0 20 20" xmlns="http://www.w3.org/2000/svg">
<path fill-rule="evenodd" clip-rule="evenodd" d="M2.5 11C3.32843 11 4 10.3284 4 9.5C4 8.67157 3.32843 8 2.5 8C1.67157 8 1 8.67157 1 9.5C1 10.3284 1.67157 11 2.5 11ZM2.5 12C3.88071 12 5 10.8807 5 9.5C5 8.11929 3.88071 7 2.5 7C1.11929 7 0 8.11929 0 9.5C0 10.8807 1.11929 12 2.5 12ZM10 11C10.8284 11 11.5 10.3284 11.5 9.5C11.5 8.67157 10.8284 8 10 8C9.17157 8 8.5 8.67157 8.5 9.5C8.5 10.3284 9.17157 11 10 11ZM10 12C11.3807 12 12.5 10.8807 12.5 9.5C12.5 8.11929 11.3807 7 10 7C8.61929 7 7.5 8.11929 7.5 9.5C7.5 10.8807 8.61929 12 10 12ZM19 9.5C19 10.3284 18.3284 11 17.5 11C16.6716 11 16 10.3284 16 9.5C16 8.67157 16.6716 8 17.5 8C18.3284 8 19 8.67157 19 9.5ZM20 9.5C20 10.8807 18.8807 12 17.5 12C16.1193 12 15 10.8807 15 9.5C15 8.11929 16.1193 7 17.5 7C18.8807 7 20 8.11929 20 9.5Z"/>
</svg>
