<svg xmlns="http://www.w3.org/2000/svg" viewBox="0 0 20 20"><path d="M15.8 10.18a2.95 2.95 0 0 0-1.33-3.33V6.5a4.5 4.5 0 0 0-9 0v.35a3 3 0 0 0-1.27 3.33L2 12.38v1.83l1.21 1.21 3.11-3.12a3 3 0 0 0 1.5 0A3 3 0 0 0 9 13.6V18h1.71L12 16.71v-3.12a3 3 0 0 0 1.15-1.23 3 3 0 0 0 .53-.07l3.11 3.11L18 14.21v-1.83ZM10 3a3.5 3.5 0 0 1 3.5 3.46 3 3 0 0 0-2.72.82 3 3 0 0 0-.53.74 3 3 0 0 0-.48.08 2.89 2.89 0 0 0-.55-.82 3 3 0 0 0-2.72-.82A3.5 3.5 0 0 1 10 3Zm-2.5 8a2.9 2.9 0 0 0 0 .33 1.93 1.93 0 0 1-1.18-.07l-.3-.12L3.21 14 3 13.79v-1l2.36-2.35-.12-.3A2 2 0 0 1 8.51 8a1.89 1.89 0 0 1 .35.51A3 3 0 0 0 7.5 11Zm3.8 1.83L11 13v3.33l-.71.71H10V13l-.3-.13a2 2 0 0 1 .23-3.75A2.94 2.94 0 0 0 12 12.26a2 2 0 0 1-.7.57Zm5.7 1-.21.21-2.86-2.85-.3.12a2 2 0 1 1-.28-3.8A3.47 3.47 0 0 1 12.5 9a.5.5 0 1 0 .71.7 4.47 4.47 0 0 0 1-1.72l.07.06a2 2 0 0 1 .45 2.14l-.12.3L17 12.79Z"/></svg>