<svg viewBox="0 0 20 20" xmlns="http://www.w3.org/2000/svg">
<path d="M8.5 4.5C8.5 4.10218 8.65804 3.72064 8.93934 3.43934C9.22064 3.15804 9.60218 3 10 3C10.3978 3 10.7794 3.15804 11.0607 3.43934C11.342 3.72064 11.5 4.10218 11.5 4.5C12.5232 4.82173 13.4159 5.46398 14.0461 6.33191C14.6763 7.19984 15.0108 8.24744 15 9.32V12.79L16 13.79V16H4V13.79L5 12.79V9.32C4.98923 8.24744 5.32365 7.19984 5.95389 6.33191C6.58413 5.46398 7.47677 4.82173 8.5 4.5Z" />
<path d="M8.59002 17C8.52956 17.1597 8.49905 17.3292 8.50002 17.5C8.50002 17.8978 8.65806 18.2794 8.93936 18.5607C9.22067 18.842 9.6022 19 10 19C10.3978 19 10.7794 18.842 11.0607 18.5607C11.342 18.2794 11.5 17.8978 11.5 17.5C11.501 17.3292 11.4705 17.1597 11.41 17H8.59002Z" />
</svg>
