<svg xmlns="http://www.w3.org/2000/svg" viewBox="0 0 20 20" style="enable-background:new 0 0 20 20" xml:space="preserve"><path d="M12 15.5H3.5A1.5 1.5 0 0 1 2 14V9a1.5 1.5 0 0 1 1.5-1.5h9c.173 0 .341.03.5.085.156-.055.325-.085.5-.085h3A1.5 1.5 0 0 1 18 9v7a1.5 1.5 0 0 1-1.5 1.5h-3A1.5 1.5 0 0 1 12 16v-.5zm.085-7H3.5A.5.5 0 0 0 3 9v5a.5.5 0 0 0 .5.5H12V9c0-.175.03-.344.085-.5zm4.415 8a.5.5 0 0 0 .5-.5V9a.5.5 0 0 0-.5-.5h-3a.5.5 0 0 0-.5.5v7a.5.5 0 0 0 .5.5h3zM15 16a.5.5 0 1 1 0-1 .5.5 0 0 1 0 1zm-9 1.5v-1h5v1H6zM9 7a.5.5 0 1 1 0-1 .5.5 0 0 1 0 1zm1.707-2.182L10 5.525a1.5 1.5 0 0 0-2.121 0l-.707-.707a2.5 2.5 0 0 1 3.535 0zm1.414-1.414-.707.707a3.5 3.5 0 0 0-4.95 0l-.707-.707a4.5 4.5 0 0 1 6.364 0z"/></svg>