<svg xmlns="http://www.w3.org/2000/svg" viewBox="0 0 20 20" style="enable-background:new 0 0 20 20" xml:space="preserve"><path d="M13 7V4c0-1.1-.9-2-2-2H5c-1.1 0-2 .9-2 2v12c0 1.1.9 2 2 2h7.5c3 0 5.5-2.5 5.5-5.5 0-2.9-2.2-5.2-5-5.5zM5 17c-.6 0-1-.4-1-1V4c0-.6.4-1 1-1h6c.6 0 1 .4 1 1v3c-2.8.3-5 2.6-5 5.5 0 1.9.9 3.5 2.3 4.5H5zm7.5 0C10 17 8 15 8 12.5S10 8 12.5 8s4.5 2 4.5 4.5-2 4.5-4.5 4.5zM6 4h4v1H6V4zm7 5h-2v3h-1v1h1v1h-1v1h1v1h1v-1h2v-1h-2v-1h1c1.1 0 2-.9 2-2s-.9-2-2-2zm0 3h-1v-2h1c.6 0 1 .4 1 1s-.4 1-1 1z"/></svg>