<svg xmlns="http://www.w3.org/2000/svg" viewBox="0 0 20 20" style="enable-background:new 0 0 20 20" xml:space="preserve"><path d="M11.975 7.025a4.5 4.5 0 1 0-4.95 4.95 5.502 5.502 0 0 1 4.95-4.95zm-4.954 5.954a5.5 5.5 0 1 1 5.958-5.958 5.5 5.5 0 1 1-5.958 5.958zm-.414-5.194c.507-.258.92-.671 1.178-1.178l-.463-.463L8.466 5 9 5.534v.099A3.367 3.367 0 0 1 5.633 9h-.099L5 8.466l1.144-1.144.463.463zM12.5 17a4.5 4.5 0 1 0 0-9 4.5 4.5 0 0 0 0 9zM11 11.5v3h-1v-4h2.25v1H11zm2.5 1.5v.5h.75a.25.25 0 0 0 0-.5h-.75zm0-1h.75a1.25 1.25 0 1 1 0 2.5H12.5v-4H15v1h-1.5v.5z"/></svg>