<?xml version="1.0" encoding="utf-8"?>
<svg version="1.1" id="Слой_1" xmlns="http://www.w3.org/2000/svg" xmlns:xlink="http://www.w3.org/1999/xlink" x="0px" y="0px"
	 viewBox="0 0 20 20" style="enable-background:new 0 0 20 20;" xml:space="preserve">
<path id="Shape" d="M11.9752,7.02471C11.73776,4.76285,9.82475,3,7.5,3C5.01472,3,3,5.01472,3,7.5
	c0,2.32475,1.76285,4.23776,4.02471,4.4752C7.27259,9.35654,9.35654,7.27259,11.9752,7.02471L11.9752,7.02471z M7.0206,12.9794
	C4.20752,12.7365,2,10.37605,2,7.5C2,4.46243,4.46243,2,7.5,2c2.87605,0,5.2365,2.20752,5.4794,5.0206
	C15.79248,7.2635,18,9.62395,18,12.5c0,3.03757-2.46243,5.5-5.5,5.5C9.62395,18,7.2635,15.79248,7.0206,12.9794z M6.60667,7.78529
	c0.50686-0.25843,0.92-0.67176,1.17863-1.17863L7.32216,6.14373L8.46588,5L9,5.53431v0.09843C9,7.49255,7.49255,9,5.63294,9H5.53431
	L5,8.46588l1.14373-1.14353L6.60667,7.78529z M12.5,17c2.48528,0,4.5-2.01472,4.5-4.5S14.98528,8,12.5,8S8,10.01472,8,12.5
	S10.01472,17,12.5,17z M11,11.5v3h-1v-4h2.25v1H11z M13.5,13v0.5h0.75c0.13807,0,0.25-0.11193,0.25-0.25S14.38807,13,14.25,13H13.5z
	 M13.5,12h0.75c0.69036,0,1.25,0.55964,1.25,1.25s-0.55964,1.25-1.25,1.25H12.5v-4H15v1h-1.5V12z"/>
</svg>
