<svg xmlns="http://www.w3.org/2000/svg" viewBox="0 0 20 20"><path d="M7.88 12.88a4.81 4.81 0 0 1-3.45-1.46 5.11 5.11 0 0 1 0-7.09L5.81 3l6.91 7-1.38 1.42a4.81 4.81 0 0 1-3.46 1.46ZM5.81 4.33 5.12 5a4.09 4.09 0 0 0 0 5.67 3.85 3.85 0 0 0 5.53 0l.69-.71Z"/><path d="M7.69 5.71 7 5l2.93-3 .69.64-2.93 3.07zM11.07 8.78l-.69-.71 2.93-3 .69.64-2.93 3.07zM8.61 18a4.56 4.56 0 0 1-3.28-1.39 4.83 4.83 0 0 1-.85-5.53l.87.46A3.81 3.81 0 0 0 6 15.9a3.49 3.49 0 0 0 5.17 0l6.14-6.1.69.71-6.11 6.09A4.56 4.56 0 0 1 8.61 18Z"/></svg>