<svg viewBox="0 0 20 20" xmlns="http://www.w3.org/2000/svg"><g clip-path="url(#a)"><path d="M15.7 6c.85 0 1.7.35 2.3.95.6.6 1 1.5.95 2.3v1.4c0 .85-.35 1.7-.95 2.3-.6.6-1.45 1-2.3 1L4.3 14c-.85 0-1.7-.35-2.3-1-.65-.6-1-1.45-1-2.3V9.3c0-.85.35-1.7 1-2.3.6-.65 1.45-1 2.3-1h11.4Zm0-1H4.3c-1.15 0-2.25.45-3.05 1.25C.45 7.05 0 8.15 0 9.3v1.4c0 1.15.45 2.25 1.25 3.05.8.8 1.9 1.25 3.05 1.25h11.4c1.15 0 2.25-.45 3.05-1.25.8-.8 1.25-1.9 1.25-3.05V9.3c0-1.15-.45-2.25-1.25-3.05-.8-.8-1.9-1.25-3.05-1.25Z"/><path d="M15.588 11.226c.933 0 1.413-.6 1.413-1.395v-.384h-1.357v.625h.542c-.017.249-.17.472-.574.472-.5 0-.674-.394-.674-.9v-.036c0-.563.246-.904.654-.904.307 0 .48.153.52.445h.82C16.876 8.337 16.27 8 15.588 8c-.868 0-1.514.642-1.514 1.595v.035c0 .936.533 1.595 1.514 1.595ZM12.64 11.226c.731 0 1.171-.437 1.171-1.101 0-.678-.347-1.062-.876-1.062-.36 0-.565.162-.674.332l.016-.69h1.348v-.656H11.68l-.061 1.84h.492a.572.572 0 0 1 .477-.223c.25 0 .391.166.391.446 0 .249-.109.441-.347.441-.266 0-.347-.144-.375-.363h-.751c.02.586.367 1.036 1.134 1.036Z"/><path fill-rule="evenodd" clip-rule="evenodd" d="M3.754 12.004H3V8.733h.754v.36c.126-.231.354-.425.687-.425.513 0 .93.425.93 1.25v.038c0 .83-.417 1.246-.935 1.246-.332 0-.573-.17-.682-.41v1.212ZM3.733 9.95c0 .411.164.619.438.619.282 0 .434-.217.434-.614v-.037c0-.425-.169-.628-.434-.628-.274 0-.438.217-.438.623v.037Z"/><path d="M6.461 11.146h-.754V8.732h.754v.48c.139-.36.37-.517.712-.513v.771c-.46-.014-.712.143-.712.53v1.146Z"/><path fill-rule="evenodd" clip-rule="evenodd" d="M8.565 11.202c.666 0 1.05-.31 1.117-.854h-.708c-.03.162-.135.286-.383.286-.27 0-.438-.184-.46-.503h1.55v-.217c0-.868-.518-1.246-1.12-1.246-.665 0-1.192.49-1.192 1.265v.037c0 .789.506 1.232 1.196 1.232ZM8.14 9.665c.038-.29.194-.452.421-.452.244 0 .375.161.388.452H8.14Z"/><path d="M10.595 10.459c.221 0 .4-.185.4-.413a.407.407 0 0 0-.4-.413c-.22 0-.4.185-.4.413 0 .228.18.413.4.413Z"/></g><defs><clipPath id="a"><path fill="#fff" d="M0 0h20v20H0z"/></clipPath></defs></svg>