<svg viewBox="0 0 20 20" xmlns="http://www.w3.org/2000/svg">
<path d="M5.22 18H14.77L16 13.47C15.2177 12.6755 14.283 12.0472 13.252 11.6228C12.221 11.1984 11.1149 10.9865 10 11C8.88314 10.9916 7.77607 11.2087 6.74509 11.6382C5.71412 12.0678 4.78045 12.701 4 13.5L5.22 18ZM14 6C14 5.20888 13.7654 4.43552 13.3259 3.77772C12.8864 3.11992 12.2616 2.60723 11.5307 2.30448C10.7998 2.00173 9.99556 1.92252 9.21964 2.07686C8.44371 2.2312 7.73098 2.61216 7.17157 3.17157C6.61216 3.73098 6.2312 4.44372 6.07686 5.21964C5.92252 5.99556 6.00173 6.79983 6.30448 7.53074C6.60723 8.26164 7.11992 8.88635 7.77772 9.32588C8.43552 9.76541 9.20887 10 10 10C11.0609 10 12.0783 9.57857 12.8284 8.82843C13.5786 8.07828 14 7.06087 14 6Z"/>
</svg>
