<svg viewBox="0 0 20 20" xmlns="http://www.w3.org/2000/svg">
<path d="M12.5 2C13.8807 2 15 3.1193 15 4.5L15.0004 7.0501C16.087 7.2709 16.9176 8.1964 16.9942 9.3287L17 9.5V10H15V15.5C15 16.8807 13.8807 18 12.5 18H7.5C6.1193 18 5 16.8807 5 15.5V4.5C5 3.1193 6.1193 2 7.5 2H12.5ZM7 8C6.4872 8 6.0645 8.386 6.0067 8.8834L6 9V15.5C6 16.3284 6.6716 17 7.5 17H12.5C13.3284 17 14 16.3284 14 15.5V10H8V9C8 8.4477 7.5523 8 7 8ZM10 14C10.5523 14 11 14.4477 11 15C11 15.5523 10.5523 16 10 16C9.4477 16 9 15.5523 9 15C9 14.4477 9.4477 14 10 14ZM8.7324 8C8.8791 8.2536 8.9718 8.5424 8.9945 8.8507L9 9H15.9146C15.7246 8.4622 15.2366 8.0652 14.6489 8.0073L14.5 8H8.7324ZM12.5 3H7.5C6.6716 3 6 3.6716 6 4.5V7.2676C6.3039 7.09178 6.6489 6.99946 7 7H14V4.5C14 3.6716 13.3284 3 12.5 3Z"/>
</svg>
