<svg xmlns="http://www.w3.org/2000/svg" viewBox="0 0 20 20"><path d="m15.47 10.74.73.69-2.88 3h-.63l-1.55-1.66.73-.68L13 13.35Zm3.15 3.74.88 1.92-1.21 1.52-2.22-.6A5.49 5.49 0 0 1 8 12.75a5.44 5.44 0 0 1-4.08-.42l-2.22.6L.5 11.4l.88-1.92A5.5 5.5 0 1 1 12 7.19a5.49 5.49 0 0 1 6.63 7.3ZM6.5 12a4.51 4.51 0 1 0-4.11-2.71l.09.21-.81 1.77.42.53 2-.53.18.1A4.49 4.49 0 0 0 6.5 12Zm11.83 4.29-.81-1.77.09-.21a4.47 4.47 0 0 0-5.68-6A5.51 5.51 0 0 1 9 12.36s0 .07 0 .11a4.49 4.49 0 0 0 6.75 3.89l.18-.1 2 .53ZM6.5 9.22a.75.75 0 1 0 .75.75.75.75 0 0 0-.75-.75Zm0-4.75a2 2 0 0 0-2 2h1a1 1 0 1 1 1 1H6v1h.5a2 2 0 0 0 0-4Z"/></svg>