<svg xmlns="http://www.w3.org/2000/svg" viewBox="0 0 20 20"><circle cx="6.51" cy="17" r="1"/><circle cx="13.51" cy="17" r="1"/><path d="m6.64 14.3-.31-.13C4.73 13.54 3 12 3 10c0-2.42 1.83-3.56 3.43-4.57C7.77 4.6 9 3.81 9.36 2.39L9.45 2h1.14l.09.39c.33 1.42 1.59 2.21 2.92 3C15.21 6.44 17 7.58 17 10c0 2-1.72 3.54-3.32 4.17l-.31.13-.23-.25A4.15 4.15 0 0 0 10 13a4.12 4.12 0 0 0-3.15 1.09ZM10 12a5.28 5.28 0 0 1 3.59 1.15A3.89 3.89 0 0 0 16 10c0-1.87-1.36-2.73-2.94-3.72A7.59 7.59 0 0 1 10 3.48a7.58 7.58 0 0 1-3 2.8C5.38 7.27 4 8.13 4 10a3.88 3.88 0 0 0 2.4 3.12A5.32 5.32 0 0 1 10 12Z"/><path d="m10.322 12.143 4.069-5.597.809.588-4.07 5.597zM4.643 12.531 10.9 3.925l.809.588L5.45 13.12zM6.01 13.5h1V17h-1zM13.01 13.5h1V17h-1z"/></svg>