<svg xmlns="http://www.w3.org/2000/svg" viewBox="0 0 20 20"><path d="M10 13a3 3 0 1 1 3-3 3 3 0 0 1-3 3Zm0-5a2 2 0 1 0 2 2 2 2 0 0 0-2-2Zm1.37 10H8.63L8 16.89a1.3 1.3 0 0 0-1.54-.64l-1.19.37-1.9-1.94.37-1.19a1.3 1.3 0 0 0-.64-1.54L2 11.37V8.62L3.1 8a1.3 1.3 0 0 0 .64-1.5l-.37-1.19 1.94-1.94 1.19.37A1.3 1.3 0 0 0 8 3.1L8.63 2h2.75L12 3.1a1.31 1.31 0 0 0 1.54.64l1.19-.37 1.94 1.94-.41 1.19A1.3 1.3 0 0 0 16.9 8l1.1.58v2.75l-1.1.58a1.3 1.3 0 0 0-.64 1.54l.37 1.19-1.94 1.94-1.19-.37a1.31 1.31 0 0 0-1.54.64Zm-2.14-1h1.54l.3-.57a2.3 2.3 0 0 1 2.73-1.13l.61.19 1.09-1.09-.19-.61a2.3 2.3 0 0 1 1.13-2.73l.57-.3V9.23l-.57-.3A2.3 2.3 0 0 1 15.3 6.2l.19-.61-1.08-1.09-.61.19a2.3 2.3 0 0 1-2.73-1.13l-.3-.56H9.23l-.3.57a2.3 2.3 0 0 1-2.72 1.12l-.62-.19-1.08 1.09.19.61a2.3 2.3 0 0 1-1.13 2.73l-.57.3v1.54l.57.3a2.3 2.3 0 0 1 1.13 2.72l-.19.61 1.09 1.09.61-.19a2.3 2.3 0 0 1 2.73 1.13Z"/></svg>