<svg viewBox="0 0 20 20" xmlns="http://www.w3.org/2000/svg">
<path d="M11.6284 2.00002L12.3278 2.67721L10.4944 4.4522L10.4941 6.34931L12.4381 5.04496L13.2127 5.478L13.0197 7.72741L14.7007 6.78797L15.3718 4.36336L16.3271 4.61122L15.7313 6.76477L17.9556 7.34226L17.6996 8.2673L15.1953 7.61735L13.4811 8.57544L15.6509 9.56701V10.4331L13.5785 11.3795L15.2398 12.308L17.744 11.6584L18 12.5834L15.7759 13.1606L16.3715 15.3145L15.4161 15.5623L14.7453 13.1374L13.0108 12.1677L13.2127 14.5221L12.4381 14.9551L10.4946 13.6501L10.4946 15.5478L12.3278 17.3228L11.6284 18L10.0001 16.4236L8.3715 18L7.67212 17.3228L9.50552 15.5478L9.50551 13.6497L7.56177 14.9551L6.78716 14.5221L6.98784 12.1681L5.25515 13.1373L4.58378 15.5623L3.62841 15.3145L4.22412 13.1607L1.99996 12.5834L2.25595 11.6584L4.76018 12.3082L6.4206 11.3795L4.34898 10.433V9.56699L6.51802 8.57543L4.80495 7.61774L2.30031 8.26727L2.04432 7.34224L4.26848 6.76491L3.67277 4.6112L4.62814 4.36334L5.29908 6.78813L6.97894 7.7274L6.78717 5.47799L7.56178 5.04495L9.50502 6.34978L9.50532 4.4522L7.67213 2.6772L8.37151 2.00002L9.99985 3.57641L11.6284 2.00002ZM9.50501 10.7613L8.03031 11.5854L7.85902 13.5899L9.50502 12.4847L9.50501 10.7613ZM10.4941 10.7608V12.4847L12.1402 13.5899L11.9688 11.5854L10.4941 10.7608ZM7.56051 9.15769L5.71867 10L7.4626 10.7972L8.97735 9.95017L7.56051 9.15769ZM12.4391 9.15769L11.0217 9.95017L12.5365 10.7968L14.281 10L12.4391 9.15769ZM12.1402 6.40969L10.4941 7.5148V9.1395L11.9777 8.31015L12.1402 6.40969ZM7.85902 6.40969L8.02142 8.31015L9.50502 9.1395V7.51432L7.85902 6.40969Z"/>
</svg>
