<svg xmlns="http://www.w3.org/2000/svg" viewBox="0 0 45 20"><path d="M20.8 9.5h1.5v1h-1.5V12h-1v-1.5h-1.5v-1h1.5V8h1ZM31 12h4v-1h-4Zm0-3h6V8h-6Zm11 1a8 8 0 0 1-8 8 7.46 7.46 0 0 1-3.8-1l-3.5 1-1.7-1.9 1.6-3.1A8 8 0 1 1 42 10Zm-1 0a7 7 0 0 0-14 0 6.71 6.71 0 0 0 .6 2.8l.1.2-1.5 2.9.9 1 3.3-.9.2.1a7.13 7.13 0 0 0 9.6-2.5A9 9 0 0 0 41 10ZM13.28 12A3 3 0 0 0 11 13l-3-1.86a3 3 0 0 0 0-2.29L11 7a2.93 2.93 0 1 0-.54-.84L7.51 8a3 3 0 1 0 0 4l3 1.87A3 3 0 1 0 13.28 12Zm0-9a2 2 0 1 1-2 2 2 2 0 0 1 2-2Zm-8 9a2 2 0 1 1 2-2 2 2 0 0 1-2 2Zm8 5a2 2 0 1 1 2-2 2 2 0 0 1-2 2Z"/></svg>