<?xml version="1.0" encoding="utf-8"?>
<svg version="1.1" xmlns="http://www.w3.org/2000/svg" xmlns:xlink="http://www.w3.org/1999/xlink" x="0px" y="0px"
	 viewBox="0 0 20 20" style="enable-background:new 0 0 20 20;" xml:space="preserve">
<path d="M10,17.9999c4.41828,0,8-3.58172,8-8s-3.58172-8-8-8s-8,3.58172-8,8S5.58172,17.9999,10,17.9999z M10,16.9999
	c-3.86599,0-7-3.13401-7-7s3.13401-7,7-7s7,3.13401,7,7S13.86599,16.9999,10,16.9999z M5.18179,10.73886
	c0,0.24168,0.06572,0.43036,0.19716,0.56604c0.13144,0.13568,0.30316,0.20352,0.51516,0.20352
	c0.16536,0,0.30422-0.0477,0.41658-0.1431c0.11236-0.0954,0.16854-0.22154,0.16854-0.37842
	c0-0.08904-0.01802-0.1643-0.05406-0.22578s-0.0848-0.11554-0.14628-0.16218c-0.06148-0.04664-0.13462-0.08798-0.21942-0.12402
	c-0.0848-0.03604-0.17596-0.07314-0.27348-0.1113c-0.20352-0.07632-0.3975-0.15264-0.58194-0.22896
	C5.01961,10.05834,4.85955,9.96612,4.72387,9.858c-0.13568-0.10812-0.2438-0.2385-0.32436-0.39114
	C4.31895,9.31422,4.27867,9.12554,4.27867,8.90082c0-0.20352,0.04346-0.38372,0.13038-0.5406
	C4.49597,8.20334,4.61151,8.0719,4.75567,7.9659s0.31058-0.1855,0.49926-0.2385c0.18868-0.053,0.38478-0.0795,0.5883-0.0795
	c0.26288,0,0.49396,0.03816,0.69324,0.11448c0.19928,0.07632,0.36464,0.1802,0.49608,0.31164
	c0.13144,0.13144,0.23002,0.28196,0.29574,0.45156c0.06572,0.1696,0.09858,0.3498,0.09858,0.5406H6.39655
	c0-0.19928-0.0477-0.35616-0.1431-0.47064c-0.0954-0.11448-0.23214-0.17172-0.41022-0.17172
	c-0.1484,0-0.2756,0.03816-0.3816,0.11448s-0.159,0.1908-0.159,0.34344c0,0.1484,0.0583,0.26606,0.1749,0.35298
	c0.1166,0.08692,0.2703,0.1643,0.4611,0.23214c0.18232,0.0636,0.36676,0.1325,0.55332,0.2067
	c0.18656,0.0742,0.35404,0.16536,0.50244,0.27348s0.2703,0.23956,0.3657,0.39432c0.0954,0.15476,0.1431,0.34238,0.1431,0.56286
	c0,0.22896-0.04134,0.43248-0.12402,0.61056c-0.08268,0.17808-0.19822,0.32754-0.34662,0.44838
	c-0.1484,0.12084-0.32436,0.212-0.52788,0.27348c-0.20352,0.06148-0.42824,0.09222-0.67416,0.09222
	c-0.23744,0-0.45898-0.03498-0.66462-0.10494c-0.20564-0.06996-0.38372-0.17278-0.53424-0.30846
	c-0.15052-0.13568-0.26818-0.3021-0.35298-0.49926c-0.0848-0.19716-0.1272-0.42294-0.1272-0.67734H5.18179z M10,12.32886
	c-0.36888,0-0.6996-0.06466-0.99216-0.19398c-0.29256-0.12932-0.5406-0.3021-0.74412-0.51834
	c-0.20352-0.21624-0.35828-0.46534-0.46428-0.7473s-0.159-0.57558-0.159-0.88086s0.053-0.5989,0.159-0.88086
	s0.26076-0.53106,0.46428-0.7473C8.46724,8.14398,8.71528,7.9712,9.00784,7.84188S9.63112,7.6479,10,7.6479
	s0.69854,0.06466,0.98898,0.19398s0.53742,0.3021,0.74094,0.51834c0.20352,0.21624,0.35828,0.46534,0.46428,0.7473
	c0.106,0.28196,0.159,0.57558,0.159,0.88086s-0.053,0.5989-0.159,0.88086c-0.106,0.28196-0.26076,0.53106-0.46428,0.7473
	c-0.20352,0.21624-0.4505,0.38902-0.74094,0.51834C10.69854,12.2642,10.36888,12.32886,10,12.32886z M10,11.4003
	c0.20352,0,0.38584-0.03922,0.54696-0.11766c0.16112-0.07844,0.29786-0.18338,0.41022-0.31482
	c0.11236-0.13144,0.19822-0.28196,0.25758-0.45156c0.05936-0.1696,0.08904-0.34556,0.08904-0.52788
	c0-0.18232-0.02968-0.35828-0.08904-0.52788c-0.05936-0.1696-0.14522-0.32012-0.25758-0.45156
	c-0.11236-0.13144-0.2491-0.23638-0.41022-0.31482C10.38584,8.61568,10.20352,8.57646,10,8.57646S9.61416,8.61568,9.45304,8.69412
	C9.29192,8.77256,9.15518,8.8775,9.04282,9.00894C8.93046,9.14038,8.8446,9.2909,8.78524,9.4605
	C8.72588,9.6301,8.6962,9.80606,8.6962,9.98838c0,0.18232,0.02968,0.35828,0.08904,0.52788
	c0.05936,0.1696,0.14522,0.32012,0.25758,0.45156c0.11236,0.13144,0.2491,0.23638,0.41022,0.31482
	C9.61416,11.36108,9.79648,11.4003,10,11.4003z M13.5154,10.73886c0,0.24168,0.06572,0.43036,0.19716,0.56604
	c0.13144,0.13568,0.30316,0.20352,0.51516,0.20352c0.16536,0,0.30422-0.0477,0.41658-0.1431
	c0.11236-0.0954,0.16854-0.22154,0.16854-0.37842c0-0.08904-0.01802-0.1643-0.05406-0.22578s-0.0848-0.11554-0.14628-0.16218
	c-0.06148-0.04664-0.13462-0.08798-0.21942-0.12402c-0.0848-0.03604-0.17596-0.07314-0.27348-0.1113
	c-0.20352-0.07632-0.3975-0.15264-0.58194-0.22896c-0.18444-0.07632-0.3445-0.16854-0.48018-0.27666
	c-0.13568-0.10812-0.2438-0.2385-0.32436-0.39114c-0.08056-0.15264-0.12084-0.34132-0.12084-0.56604
	c0-0.20352,0.04346-0.38372,0.13038-0.5406c0.08692-0.15688,0.20246-0.28832,0.34662-0.39432
	c0.14416-0.106,0.31058-0.1855,0.49926-0.2385c0.18868-0.053,0.38478-0.0795,0.5883-0.0795
	c0.26288,0,0.49396,0.03816,0.69324,0.11448c0.19928,0.07632,0.36464,0.1802,0.49608,0.31164
	c0.13144,0.13144,0.23002,0.28196,0.29574,0.45156s0.09858,0.3498,0.09858,0.5406h-1.03032c0-0.19928-0.0477-0.35616-0.1431-0.47064
	c-0.0954-0.11448-0.23214-0.17172-0.41022-0.17172c-0.1484,0-0.2756,0.03816-0.3816,0.11448s-0.159,0.1908-0.159,0.34344
	c0,0.1484,0.0583,0.26606,0.1749,0.35298c0.1166,0.08692,0.2703,0.1643,0.4611,0.23214
	c0.18232,0.0636,0.36676,0.1325,0.55332,0.2067c0.18656,0.0742,0.35404,0.16536,0.50244,0.27348
	c0.1484,0.10812,0.2703,0.23956,0.3657,0.39432c0.0954,0.15476,0.1431,0.34238,0.1431,0.56286
	c0,0.22896-0.04134,0.43248-0.12402,0.61056c-0.08268,0.17808-0.19822,0.32754-0.34662,0.44838
	c-0.1484,0.12084-0.32436,0.212-0.52788,0.27348s-0.42824,0.09222-0.67416,0.09222c-0.23744,0-0.45898-0.03498-0.66462-0.10494
	s-0.38372-0.17278-0.53424-0.30846c-0.15052-0.13568-0.26818-0.3021-0.35298-0.49926c-0.0848-0.19716-0.1272-0.42294-0.1272-0.67734
	H13.5154z"/>
</svg>
