<svg xmlns="http://www.w3.org/2000/svg" viewBox="0 0 20 20" style="enable-background:new 0 0 20 20" xml:space="preserve"><path d="M10 18a8 8 0 1 0 0-16 8 8 0 0 0 0 16zm0-1a7 7 0 1 1 0-14 7 7 0 0 1 0 14zm-4.818-6.261c0 .242.066.43.197.566a.685.685 0 0 0 .515.203.621.621 0 0 0 .417-.143.472.472 0 0 0 .168-.378c0-.09-.018-.164-.054-.226s-.085-.115-.146-.162a1.025 1.025 0 0 0-.22-.124 10.254 10.254 0 0 0-.273-.111 18.654 18.654 0 0 1-.582-.23 1.98 1.98 0 0 1-.48-.276 1.228 1.228 0 0 1-.324-.391 1.202 1.202 0 0 1-.121-.566c0-.204.043-.384.13-.54.087-.158.203-.29.347-.395s.31-.186.499-.239c.189-.053.385-.08.588-.08.263 0 .494.04.693.115.2.077.365.18.497.312.131.131.23.282.295.452.066.17.099.35.099.54h-1.03c0-.2-.048-.356-.144-.47-.095-.115-.232-.172-.41-.172-.148 0-.275.038-.381.114s-.16.191-.16.344c0 .148.059.266.176.353.116.087.27.164.46.232.183.063.367.132.554.207.187.074.354.165.502.273s.27.24.366.394c.095.155.143.343.143.563 0 .23-.041.433-.124.61a1.247 1.247 0 0 1-.346.45c-.149.12-.325.211-.528.273a2.325 2.325 0 0 1-.674.092 2.05 2.05 0 0 1-.665-.105 1.517 1.517 0 0 1-.534-.309 1.414 1.414 0 0 1-.353-.499 1.7 1.7 0 0 1-.128-.677h1.03zM10 12.329c-.369 0-.7-.065-.992-.194A2.217 2.217 0 0 1 7.8 10.869c-.107-.282-.16-.575-.16-.88s.053-.6.16-.881.26-.532.464-.748c.203-.216.451-.389.744-.518s.623-.194.992-.194.699.065.989.194.537.302.74.518c.204.216.36.466.465.748.106.281.16.575.16.88s-.054.6-.16.881a2.217 2.217 0 0 1-1.205 1.266c-.29.13-.62.194-.989.194zm0-.929a1.234 1.234 0 0 0 .957-.432 1.4 1.4 0 0 0 .258-.452c.06-.17.089-.345.089-.528 0-.182-.03-.358-.09-.528a1.4 1.4 0 0 0-.257-.451A1.234 1.234 0 0 0 10 8.577a1.234 1.234 0 0 0-.957.432 1.4 1.4 0 0 0-.258.451c-.06.17-.089.346-.089.528 0 .183.03.359.09.528.059.17.144.32.257.452A1.234 1.234 0 0 0 10 11.4zm3.515-.661c0 .242.066.43.198.566a.685.685 0 0 0 .515.203.621.621 0 0 0 .416-.143.472.472 0 0 0 .169-.378c0-.09-.018-.164-.054-.226s-.085-.115-.147-.162a1.025 1.025 0 0 0-.219-.124 10.254 10.254 0 0 0-.273-.111 18.654 18.654 0 0 1-.582-.23 1.98 1.98 0 0 1-.48-.276 1.228 1.228 0 0 1-.325-.391 1.202 1.202 0 0 1-.12-.566c0-.204.043-.384.13-.54.087-.158.202-.29.346-.395.144-.106.31-.186.5-.239.188-.053.384-.08.588-.08.263 0 .494.04.693.115.2.077.365.18.496.312.132.131.23.282.296.452s.098.35.098.54h-1.03c0-.2-.048-.356-.143-.47-.095-.115-.232-.172-.41-.172-.149 0-.276.038-.382.114s-.159.191-.159.344c0 .148.059.266.175.353.117.087.27.164.461.232.183.063.367.132.554.207.186.074.354.165.502.273.148.108.27.24.366.394.095.155.143.343.143.563 0 .23-.042.433-.124.61a1.247 1.247 0 0 1-.347.45c-.148.12-.324.211-.528.273s-.428.092-.674.092c-.237 0-.459-.035-.665-.105s-.383-.173-.534-.309a1.414 1.414 0 0 1-.353-.499 1.7 1.7 0 0 1-.127-.677h1.03z"/></svg>