<svg xmlns="http://www.w3.org/2000/svg" viewBox="0 0 20 20"><path d="M17 7h-1a5.51 5.51 0 0 0-5.5-5h-1A5.51 5.51 0 0 0 4 7H3a2 2 0 0 0-2 2v2a2 2 0 0 0 2 2h2V7.49a4.44 4.44 0 0 1 .26-1.44h.06A12.48 12.48 0 0 0 11.94 8H15v5.5a2 2 0 0 1-2 2h-.07A2 2 0 0 0 11 14H9a2 2 0 0 0 0 4h2a2 2 0 0 0 1.93-1.5H13a3 3 0 0 0 3-3V13h1a2 2 0 0 0 2-2V9a2 2 0 0 0-2-2ZM4 12H3a1 1 0 0 1-1-1V9a1 1 0 0 1 1-1h1Zm7 5H9a1 1 0 0 1 0-2h2a1 1 0 0 1 0 2ZM5.85 5.25l-.17-.1A4.49 4.49 0 0 1 9.5 3h1a4.49 4.49 0 0 1 4.45 4h-3a11.48 11.48 0 0 1-6.1-1.75ZM18 11a1 1 0 0 1-1 1h-1V8h1a1 1 0 0 1 1 1ZM8 11a1 1 0 1 1 1-1 1 1 0 0 1-1 1Zm4 0a1 1 0 1 1 1-1 1 1 0 0 1-1 1Z"/></svg>