<svg viewBox="0 0 20 21" xmlns="http://www.w3.org/2000/svg">
    <path d="M6.244 17.144a8 8 0 1 0-3.59-4l-1.65 3.07 1.77 1.93 3.47-1Zm-3.15-.15-.87-1 1.54-2.85-.1-.22a7 7 0 1 1 2.89 3.22l-.18-.11-3.28.96Z"/>
    <path d="m10 6.145.459-.198H9.54l.46.198Zm1.081 2.511-.46.198.118.272.296.028.046-.498Zm2.723.252.33.376-.284-.873-.046.497Zm-2.055 1.805-.33-.375-.223.195.066.29.487-.11Zm.602 2.668-.256.43.743-.54-.487.11Zm-2.352-1.396.256-.43-.256-.152-.255.152.255.43ZM7.65 13.38l-.488-.11.743.54-.256-.43Zm.6-2.668.488.11.066-.29-.224-.195-.33.375ZM6.195 8.908l-.046-.497-.284.873.33-.376Zm2.723-.252.046.498.296-.028.117-.272-.46-.198Zm.622-2.314 1.082 2.512.918-.396-1.081-2.511-.919.395Zm1.495 2.812 2.723.252.092-.995-2.723-.253-.092.996Zm2.439-.621-2.055 1.805.66.75 2.055-1.804-.66-.751Zm-2.212 2.29.6 2.668.976-.22-.6-2.668-.976.22Zm1.344 2.128-2.351-1.396-.51.86 2.35 1.396.51-.86Zm-2.862-1.396L7.393 12.95l.51.86 2.352-1.397-.51-.86ZM8.136 13.49l.601-2.668-.975-.22-.601 2.668.975.22Zm.444-3.153L6.524 8.533l-.66.751L7.92 11.09l.66-.752ZM6.24 9.405l2.723-.252-.092-.996-2.723.253.092.995Zm3.136-.552 1.082-2.512-.919-.395L8.46 8.458l.918.396Z"/>
</svg>
