<svg xmlns="http://www.w3.org/2000/svg" viewBox="0 0 20 20" style="enable-background:new 0 0 20 20" xml:space="preserve"><path d="M18 4.5c0-.8-.7-1.5-1.5-1.5S15 3.6 15 4.4v.1c0 .7.4 1.2 1 1.4v7.7c0 1.3-1.1 2.4-2.4 2.3h-.3c-1.3-.1-2.4-1.2-2.3-2.5V8.2C10.9 6.4 9.4 4.9 7.6 5h-.3C5.5 5 4 6.5 4 8.4V15c-.6.2-1.1.8-1 1.5 0 .8.7 1.5 1.5 1.5S6 17.3 6 16.5c0-.6-.4-1.2-1-1.4V8.4C5 7 6.1 6 7.3 6h.4C9 6 10 7 10 8.2v5.3c0 1.9 1.4 3.4 3.3 3.5h.3c1.9 0 3.4-1.5 3.4-3.4V5.9c.6-.2 1-.8 1-1.4zM4.5 17c-.3 0-.5-.3-.5-.5 0-.3.2-.5.5-.5s.5.2.5.5c0 .2-.2.5-.5.5z"/></svg>