<svg version="1.1" id="Слой_1" xmlns="http://www.w3.org/2000/svg" x="0" y="0" viewBox="0 0 20 20" style="enable-background:new 0 0 20 20" xml:space="preserve"><style>.st0{fill-rule:evenodd;clip-rule:evenodd}</style><path d="M15.7 6c.9 0 1.7.3 2.3 1 .6.6 1 1.5 1 2.3v1.4c0 .9-.3 1.7-1 2.3-.6.6-1.4 1-2.3 1H4.3c-.9 0-1.7-.3-2.3-1-.6-.6-1-1.4-1-2.3V9.3c0-.9.4-1.7 1-2.3.6-.6 1.4-1 2.3-1h11.4zm0-1H4.3c-1.1 0-2.2.5-3 1.3-.8.8-1.3 1.9-1.3 3v1.4c0 1.1.5 2.2 1.3 3 .8.8 1.9 1.3 3 1.3h11.4c1.1 0 2.2-.5 3-1.3.8-.8 1.3-1.9 1.3-3V9.3c0-1.1-.5-2.2-1.3-3-.8-.8-1.9-1.3-3-1.3z"/><path class="st0" d="M7.9 12c-.8 0-1.5-.5-1.5-1.5 0-.9.7-1.5 1.5-1.5s1.5.6 1.5 1.5S8.7 12 7.9 12zm0-.7c.3 0 .5-.3.5-.7 0-.5-.2-.8-.5-.8s-.5.3-.5.8c0 .4.2.7.5.7zM4.3 12h.9l1.3-4h-.9l-.9 3-.8-3H3l1.3 4zM10.6 8h-.9v4h2.1v-1h-1.3V8zm4.3 4H17v-1h-1.3v-.5H17v-1h-1.3V9H17V8h-2.1v4zm-.5-3V8h-2.6v1h.9v3h.8V9h.9z"/></svg>