<svg version="1.1" id="Слой_1" xmlns="http://www.w3.org/2000/svg" xmlns:xlink="http://www.w3.org/1999/xlink" x="0px" y="0px"
	 viewBox="0 0 20 20" style="enable-background:new 0 0 20 20;" xml:space="preserve">
<style type="text/css">
	.st0{fill-rule:evenodd;clip-rule:evenodd;}
</style>
<path d="M15.7,6c0.9,0,1.7,0.3,2.3,1c0.6,0.6,1,1.5,1,2.3v1.4c0,0.9-0.3,1.7-1,2.3c-0.6,0.6-1.4,1-2.3,1L4.3,14
	c-0.9,0-1.7-0.3-2.3-1c-0.6-0.6-1-1.4-1-2.3V9.3C1,8.4,1.4,7.6,2,7c0.6-0.6,1.4-1,2.3-1H15.7z M15.7,5H4.3c-1.1,0-2.2,0.5-3,1.3
	C0.5,7.1,0,8.2,0,9.3v1.4c0,1.1,0.5,2.2,1.3,3c0.8,0.8,1.9,1.3,3,1.3h11.4c1.1,0,2.2-0.5,3-1.3c0.8-0.8,1.3-1.9,1.3-3V9.3
	c0-1.1-0.5-2.2-1.3-3C17.9,5.5,16.8,5,15.7,5z"/>
<path class="st0" d="M7.9,12L7.9,12c-0.8,0-1.5-0.5-1.5-1.5c0,0,0,0,0,0C6.4,9.6,7.1,9,7.9,9c0.8,0,1.5,0.6,1.5,1.5c0,0,0,0,0,0
	C9.4,11.4,8.7,12,7.9,12z M7.9,11.3L7.9,11.3c0.3,0,0.5-0.3,0.5-0.7c0,0,0,0,0,0c0-0.5-0.2-0.8-0.5-0.8c-0.3,0-0.5,0.3-0.5,0.8
	c0,0,0,0,0,0C7.4,11,7.6,11.3,7.9,11.3z"/>
<path class="st0" d="M4.3,12h0.9l1.3-4H5.6l-0.9,3L3.9,8H3L4.3,12z"/>
<path class="st0" d="M10.6,8H9.7v4h2.1v-1h-1.3V8z M14.9,12H17v-1h-1.3v-0.5H17v-1h-1.3V9H17V8h-2.1V12z M14.4,9V8h-2.6v1h0.9v3h0.8
	V9H14.4z"/>
</svg>
