<?xml version="1.0" encoding="utf-8"?>
<svg version="1.1" id="Слой_1" xmlns="http://www.w3.org/2000/svg" xmlns:xlink="http://www.w3.org/1999/xlink" x="0px" y="0px"
	 viewBox="0 0 20 20" style="enable-background:new 0 0 20 20;" xml:space="preserve">
<path id="Shape" d="M7.9883,11.5v-1.0002H6.9998v-1h0.9885v-4h3.0115c1.38064,0,2.5,1.11936,2.5,2.5s-1.11936,2.5-2.5,2.5H8.9883
	V11.5H12v1H8.9883v1.4883h-1V12.5H7v-1H7.9883z M8.32845,18l-0.13542-0.10532C5.23183,15.59152,3.5,12.05041,3.5,8.299V3.88344
	l0.22454-0.14823C5.34586,2.66495,7.81071,2,10,2c2.18897,0,4.65426,0.66503,6.27546,1.73522L16.5,3.88344V8.299
	c0,3.75141-1.73183,7.29252-4.69303,9.59568L11.67155,18H8.32845z M4.5,8.299c0,3.38614,1.53746,6.58556,4.17366,8.701h2.65269
	C13.96254,14.88456,15.5,11.68514,15.5,8.299V4.42822C14.04786,3.55328,11.90129,3,10,3C8.09841,3,5.9522,3.55321,4.5,4.42822V8.299
	z M8.9883,9.4998h2.0115c0.82836,0,1.5-0.67164,1.5-1.5s-0.67164-1.5-1.5-1.5H8.9883V9.4998z"/>
</svg>
