<svg xmlns="http://www.w3.org/2000/svg" viewBox="0 0 20 20" style="enable-background:new 0 0 20 20" xml:space="preserve"><path d="M7.988 11.5v-1H7v-1h.988v-4H11a2.5 2.5 0 0 1 0 5H8.988v1H12v1H8.988v1.488h-1V12.5H7v-1h.988zm.34 6.5-.135-.105A12.156 12.156 0 0 1 3.5 8.299V3.883l.225-.148C5.345 2.665 7.81 2 10 2s4.654.665 6.275 1.735l.225.148V8.3c0 3.751-1.732 7.293-4.693 9.596l-.135.105H8.328zM4.5 8.299c0 3.386 1.537 6.586 4.174 8.701h2.652A11.156 11.156 0 0 0 15.5 8.299v-3.87C14.048 3.552 11.901 3 10 3c-1.902 0-4.048.553-5.5 1.428V8.3zm4.488 1.2H11a1.5 1.5 0 0 0 0-3H8.988v3z"/></svg>