<svg xmlns="http://www.w3.org/2000/svg" viewBox="0 0 20 20" style="enable-background:new 0 0 20 20" xml:space="preserve"><path d="M15.4 4.1c-3.1-2.8-8.1-2.7-11 .3C2.8 5.8 2 7.9 2 10h1c0-1.9.7-3.7 2.1-5 2.6-2.6 6.9-2.7 9.7-.2 1.4 1.3 2.2 3.1 2.3 5 0 1.9-.7 3.8-2 5.1-1.5 1.4-3.2 2.1-5.1 2.1-1.5 0-3-.5-4.1-1.4l2.3-.7 6-6c.8-.9.8-2.3 0-3.1-.4-.4-1-.6-1.6-.6s-1.1.2-1.6.6l-6 6-1 3.4.4.4C5.9 17.2 7.9 18 10 18s4.1-.8 5.7-2.3C17.2 14.1 18 12 18 9.8c-.1-2.2-1-4.3-2.6-5.7zm-3.6 2.4c.4-.5 1.2-.5 1.7 0s.5 1.2 0 1.7l-.7.7L11 7.2l.8-.7zm-5.9 5.8 4.4-4.4L12 9.6 7.6 14l-2.5.8.8-2.5z"/></svg>