<svg viewBox="0 0 20 20" fill="none" xmlns="http://www.w3.org/2000/svg">
    <path fill-rule="evenodd" clip-rule="evenodd" d="M13.443 15.488c2.93 0 5.307-2.348 5.307-5.244S16.374 5 13.443 5A5.324 5.324 0 0 0 10 6.253 5.324 5.324 0 0 0 6.557 5C3.627 5 1.25 7.348 1.25 10.244s2.376 5.244 5.307 5.244A5.324 5.324 0 0 0 10 14.236a5.324 5.324 0 0 0 3.443 1.252Z" fill="#ED0006"/>
    <path fill-rule="evenodd" clip-rule="evenodd" d="M10 14.236a5.207 5.207 0 0 0 1.865-3.992c0-1.598-.724-3.03-1.865-3.991A5.324 5.324 0 0 1 13.443 5c2.93 0 5.307 2.348 5.307 5.244s-2.376 5.244-5.307 5.244A5.324 5.324 0 0 1 10 14.236Z" fill="#0099DF"/>
    <path fill-rule="evenodd" clip-rule="evenodd" d="M10 14.233a5.207 5.207 0 0 0 1.865-3.992c0-1.598-.724-3.03-1.865-3.991a5.207 5.207 0 0 0-1.865 3.991c0 1.599.724 3.03 1.865 3.992Z" fill="#6C6BBD"/>
</svg>
