<svg viewBox="0 0 20 20" fill="none" xmlns="http://www.w3.org/2000/svg">
    <path d="M16.543 7.679h-3.202c.172 1.067 1.205 2.066 2.341 2.066h2.549c.034-.103.034-.241.034-.344 0-.965-.757-1.722-1.722-1.722Z" fill="url(#b)"/>
    <path d="M13.616 9.917V12.5h1.55v-1.377h1.377c.758 0 1.412-.517 1.619-1.206h-4.546ZM8.106 7.679V12.5h1.377s.345 0 .517-.344l1.205-2.411h.172V12.5h1.55V7.679H11.55s-.345.034-.517.344l-1.205 2.41h-.172V7.68h-1.55ZM1.563 12.5V7.679h1.55s.447 0 .688.688c.62 1.826.689 2.067.689 2.067s.138-.448.689-2.067c.24-.688.688-.688.688-.688h1.55V12.5h-1.55V9.917h-.172l-.86 2.583h-.69l-.86-2.583h-.173V12.5h-1.55Z" fill="#4DB45F"/>
    <defs>
        <linearGradient id="b" x1="13.332" y1="8.712" x2="18.265" y2="8.712" gradientUnits="userSpaceOnUse">
            <stop stop-color="#00B4E6"/>
            <stop offset="1" stop-color="#088CCB"/>
        </linearGradient>
    </defs>
</svg>
