<svg viewBox="0 0 20 20" fill="none" xmlns="http://www.w3.org/2000/svg">
    <path fill-rule="evenodd" clip-rule="evenodd" d="M5.53 13.081H4.05L2.938 8.717c-.053-.2-.165-.378-.33-.461a4.728 4.728 0 0 0-1.358-.462v-.168h2.387c.33 0 .576.252.618.545l.576 3.148 1.481-3.693h1.44L5.532 13.08Zm3.046 0H7.177L8.33 7.626h1.4L8.576 13.08Zm2.963-3.944c.041-.294.288-.462.577-.462.453-.042.946.042 1.358.252l.247-1.175a3.454 3.454 0 0 0-1.276-.252c-1.358 0-2.346.756-2.346 1.804 0 .798.7 1.217 1.194 1.47.534.251.74.42.7.67 0 .378-.413.546-.824.546-.494 0-.988-.126-1.44-.336l-.247 1.176c.494.209 1.028.293 1.523.293 1.522.042 2.469-.713 2.469-1.846 0-1.427-1.935-1.51-1.935-2.14Zm6.832 3.944-1.11-5.455h-1.194a.62.62 0 0 0-.577.42l-2.057 5.035h1.44l.288-.797h1.77l.165.797h1.275Zm-2.098-3.986.41 2.056h-1.152l.742-2.056Z" fill="#172B85"/>
</svg>
