<svg id="Ready" xmlns="http://www.w3.org/2000/svg" viewBox="0 0 32 32"><title>Megaicons_work_24_1.8_cp</title><path d="M13.65,21.44a5.61,5.61,0,0,1-3.09-3.09l1.89-1.89L6.85,11.27,4,13.54v.85C4,22.53,9.32,28,17.24,28h.9l2.57-3.86-5.07-4.7Zm4.46,3-1,1.55C10.38,25.93,6,21.44,6,14.51l.75-.6,2.81,2.61L8.5,17.58V18c0,2.37,3.14,5.5,5.5,5.5h.41l1.28-1.28Z"/><path d="M21.24,13.85a5.61,5.61,0,0,1-3.09-3.09L20,8.88,14.44,3.68,11.59,6V6.8c0,8.14,5.32,13.61,13.24,13.61h.9l2.57-3.85-5.07-4.71Zm4.46,3-1,1.55c-6.7-.07-11-4.56-11.07-11.49l.75-.6,2.81,2.61L16.09,10v.41c0,2.37,3.14,5.5,5.5,5.5H22l1.28-1.28Z"/></svg>