<svg id="Ready" xmlns="http://www.w3.org/2000/svg" viewBox="0 0 32 32"><title>Megaicons_work_24_1.8_cp</title><path d="M20.5,6A5.55,5.55,0,0,0,16,8.27,5.55,5.55,0,0,0,11.5,6C8.35,6,6,9.18,6,12a5,5,0,0,0,.73,2.61c1.67,2.77,6.92,10.59,7.14,10.93l.3.44H18l.3-.43c.23-.33,5.58-8.09,7.09-11A6,6,0,0,0,26,12C26,9.18,23.65,6,20.5,6Zm3.07,7.65c-1.25,2.42-5.5,8.65-6.66,10.35H15.23c-1.16-1.73-5.37-8-6.79-10.4A3,3,0,0,1,8,12c0-1.82,1.56-4,3.5-4a3.47,3.47,0,0,1,3.38,2.51h2.24A3.47,3.47,0,0,1,20.5,8c1.94,0,3.5,2.2,3.5,4A4,4,0,0,1,23.57,13.65Z"/></svg>