<svg id="Ready" xmlns="http://www.w3.org/2000/svg" viewBox="0 0 32 32"><title>Megaicons_work_24_1.8_cp</title><path d="M23.65,10C20,10,17.3,12.69,16,14.32,14.7,12.69,12,10,8.35,10A6.19,6.19,0,0,0,2,16a6.19,6.19,0,0,0,6.35,6C12,22,14.7,19.31,16,17.68,17.3,19.31,20,22,23.65,22A6.19,6.19,0,0,0,30,16,6.19,6.19,0,0,0,23.65,10ZM8.35,20.09A4.23,4.23,0,0,1,4,16a4.23,4.23,0,0,1,4.35-4.09c3.17,0,5.6,2.92,6.46,4.09C14,17.17,11.54,20.09,8.35,20.09Zm15.29,0c-3.17,0-5.6-2.92-6.46-4.09.85-1.17,3.27-4.09,6.46-4.09A4.23,4.23,0,0,1,28,16,4.23,4.23,0,0,1,23.65,20.09Z"/></svg>