<svg id="Ready" xmlns="http://www.w3.org/2000/svg" viewBox="0 0 32 32"><title>Megaicons_work_24_1.8_cp</title><path d="M28,18.55l-3.84-3.84a5,5,0,0,0-1.4-4.23h0a5,5,0,0,0-1.67-1.1A6.6,6.6,0,0,0,14.59,4,6.88,6.88,0,0,0,8,11c0,.12,0,1.62,0,1.62a5,5,0,0,0-.16,2.08L4,18.54v3.66l2.41,2.41L12,19a5,5,0,0,0,1,1v8h3.41L19,25.41V20a5.08,5.08,0,0,0,1-1l5.63,5.63L28,22.21ZM14.59,6a4.59,4.59,0,0,1,4.32,3l-.26,0A5,5,0,0,0,16,10.22a4.92,4.92,0,0,0-5.91-.41A4.59,4.59,0,0,1,14.59,6Zm-3.44,8.76a5.08,5.08,0,0,0,0,2.31L6.41,21.79,6,21.38v-2l4-4-.15-.56a3,3,0,0,1,4.23-3.42A5,5,0,0,0,11.15,14.76ZM17,18.87v5.71L15.58,26H15V18.87l-.5-.29a3,3,0,0,1-.26-5,4.93,4.93,0,0,0,.68,3,5,5,0,0,0,2.47,2.08Zm9,2.51-.41.41-5-5L20,16.9A3,3,0,1,1,18.88,11a3,3,0,0,1,.31,0,4.7,4.7,0,0,1-.48,2,1,1,0,1,0,1.54,1.27,5.34,5.34,0,0,0,.88-2.58c.07.06.15.11.22.17a3,3,0,0,1,.76,2.89l-.15.56,4,4Z"/></svg>