<svg id="Ready" xmlns="http://www.w3.org/2000/svg" viewBox="0 0 32 32"><title>Megaicons_work_24_1.8_cp</title><path d="M16,6a11.65,11.65,0,0,1,8.29,3.43L25.71,8A13.74,13.74,0,0,0,6.29,8L7.71,9.43A11.65,11.65,0,0,1,16,6Z"/><path d="M12.29,13.53l1.42,1.41a3.32,3.32,0,0,1,4.58,0l1.42-1.41a5.25,5.25,0,0,0-7.42,0Z"/><path d="M22.71,10.77a9.49,9.49,0,0,0-13.41,0l1.41,1.41a7.49,7.49,0,0,1,10.59,0Z"/><path d="M26,19.29l-1-.36A26.34,26.34,0,0,0,16,17a26.34,26.34,0,0,0-9,1.93l-1,.36V28H26ZM24,26H8V20.71A23.56,23.56,0,0,1,16,19a23.56,23.56,0,0,1,8,1.71Z"/><rect x="13" y="22" width="6" height="2"/></svg>