<svg id="Ready" xmlns="http://www.w3.org/2000/svg" viewBox="0 0 32 32"><title>Megaicons_work_24_1.8_cp</title><rect x="18" y="5" width="7" height="2"/><rect x="18" y="9" width="10" height="2"/><rect x="18" y="13" width="4" height="2"/><rect x="18" y="17" width="8" height="2"/><rect x="18" y="25" width="10" height="2"/><rect x="18" y="21" width="5" height="2"/><path d="M11,15a5,5,0,1,0-5-5A5,5,0,0,0,11,15Zm0-8a3,3,0,1,1-3,3A3,3,0,0,1,11,7Z"/><path d="M11,27a5,5,0,1,0-5-5A5,5,0,0,0,11,27Zm0-8a3,3,0,1,1-3,3A3,3,0,0,1,11,19Z"/></svg>