<svg id="Ready" xmlns="http://www.w3.org/2000/svg" viewBox="0 0 32 32"><title>Megaicons_work_24_1.8_cp</title><path d="M26,11.69l1.73-2L26.24,8.35,24.42,10.5a15.67,15.67,0,0,0-2.59-1.34l1.1-2.8-1.86-.73-1.14,2.9A15.53,15.53,0,0,0,17,8.07V5H15V8.07a15.53,15.53,0,0,0-2.93.47l-1.14-2.9-1.86.73,1.1,2.8A15.67,15.67,0,0,0,7.58,10.5L5.76,8.35,4.24,9.65l1.73,2A19.78,19.78,0,0,0,4,13.5L5.46,15A13.72,13.72,0,0,1,16,10a13.55,13.55,0,0,1,10.52,5L28,13.5A19.78,19.78,0,0,0,26,11.69Z"/><path d="M20,16a4,4,0,1,0-4,4A4,4,0,0,0,20,16Zm-6,0a2,2,0,1,1,2,2A2,2,0,0,1,14,16Z"/></svg>