<?xml version="1.0" encoding="utf-8"?>
<!-- Generator: Adobe Illustrator 23.0.1, SVG Export Plug-In . SVG Version: 6.00 Build 0)  -->
<svg version="1.1" id="Layer_1" xmlns="http://www.w3.org/2000/svg" xmlns:xlink="http://www.w3.org/1999/xlink" x="0px" y="0px"
	 viewBox="0 0 32 32" style="enable-background:new 0 0 32 32;" xml:space="preserve">
<path d="M22.3,14.6c1.4-1.4,1.4-3.6,0-4.9c-1.3-1.3-3.6-1.3-4.9,0l-8.8,8.9l-1.7,5.3l0.7,0.7C9.8,26.7,12.8,28,16,28
	s6.2-1.3,8.5-3.5c2.3-2.3,3.6-5.5,3.5-8.8s-1.5-6.4-3.9-8.6C19.4,2.8,12,3,7.5,7.5C5.3,9.7,4,12.8,4,16h2c0-2.7,1-5.2,2.9-7.1
	c3.7-3.7,9.9-3.9,13.8-0.3c2,1.9,3.2,4.4,3.3,7.2c0.1,2.8-1,5.4-2.9,7.3C21.2,25,18.7,26,16,26c-2,0-3.9-0.6-5.5-1.6l2.9-0.9
	L22.3,14.6z M20.9,11.1c0.6,0.6,0.6,1.5,0,2.1L20,14.1L17.8,12l0.9-0.9C19.3,10.5,20.3,10.5,20.9,11.1z M9.3,22.7l1-3.1l6.1-6.1
	l2.1,2.1l-6.1,6.1L9.3,22.7z"/>
<g id="Text">
</g>
</svg>
