<?xml version="1.0" encoding="UTF-8"?>
<svg viewBox="0 0 32 32" version="1.1" xmlns="http://www.w3.org/2000/svg" xmlns:xlink="http://www.w3.org/1999/xlink">
    <!-- Generator: Sketch 48.2 (47327) - http://www.bohemiancoding.com/sketch -->
    <title>logo/24/emotion</title>
    <desc>Created with Sketch.</desc>
    <defs></defs>
    <g id="Icons" stroke="none" stroke-width="1" fill="none" fill-rule="evenodd">
        <g id="logo/24/emotion">
            <circle id="Oval" fill="#6262C8" cx="16" cy="16" r="12"></circle>
            <g id="emotion_Монтажная-область-1" transform="translate(7.000000, 7.000000)" fill-rule="nonzero">
                <path d="M11.6202532,1.09367089 C14.5367089,1.09367089 16.9063291,3.46329114 16.9063291,6.37974684 C16.9063291,9.29620253 14.5367089,11.6658228 11.6202532,11.6658228 C8.70379747,11.6658228 6.33417722,9.29620253 6.33417722,6.37974684 C6.33417722,3.46329114 8.70379747,1.09367089 11.6202532,1.09367089 Z M11.6202532,0 C8.08860759,0 5.24050633,2.84810127 5.24050633,6.37974684 C5.24050633,9.91139241 8.08860759,12.7594937 11.6202532,12.7594937 C15.1518987,12.7594937 18,9.91139241 18,6.37974684 C18,2.84810127 15.1518987,0 11.6202532,0 Z" id="Shape" fill="#FFFFFF"></path>
                <path d="M11.6202532,4.2835443 C12.7822785,4.2835443 13.7164557,5.21772152 13.7164557,6.37974684 C13.7164557,7.54177215 12.7822785,8.47594937 11.6202532,8.47594937 C10.4582278,8.47594937 9.52405063,7.54177215 9.52405063,6.37974684 C9.52405063,5.21772152 10.4582278,4.2835443 11.6202532,4.2835443 Z M11.6202532,3.18987342 C9.86582278,3.18987342 8.43037975,4.62531646 8.43037975,6.37974684 C8.43037975,8.13417722 9.86582278,9.56962025 11.6202532,9.56962025 C13.3746835,9.56962025 14.8101266,8.13417722 14.8101266,6.37974684 C14.8101266,4.62531646 13.3746835,3.18987342 11.6202532,3.18987342 Z" id="Shape" fill="#FFFFFF"></path>
                <path d="M6.37974684,6.33417722 C9.29620253,6.33417722 11.6658228,8.70379747 11.6658228,11.6202532 C11.6658228,14.5367089 9.29620253,16.9063291 6.37974684,16.9063291 C3.46329114,16.9063291 1.09367089,14.5367089 1.09367089,11.6202532 C1.09367089,8.70379747 3.46329114,6.33417722 6.37974684,6.33417722 Z M6.37974684,5.24050633 C2.84810127,5.24050633 0,8.08860759 0,11.6202532 C0,15.1518987 2.84810127,18 6.37974684,18 C9.91139241,18 12.7594937,15.1518987 12.7594937,11.6202532 C12.7594937,8.08860759 9.91139241,5.24050633 6.37974684,5.24050633 Z" id="Shape" fill="#00B956"></path>
                <path d="M6.37974684,9.52405063 C7.54177215,9.52405063 8.47594937,10.4582278 8.47594937,11.6202532 C8.47594937,12.7822785 7.54177215,13.7164557 6.37974684,13.7164557 C5.21772152,13.7164557 4.2835443,12.7822785 4.2835443,11.6202532 C4.2835443,10.4582278 5.21772152,9.52405063 6.37974684,9.52405063 Z M6.37974684,8.43037975 C4.62531646,8.43037975 3.18987342,9.86582278 3.18987342,11.6202532 C3.18987342,13.3746835 4.62531646,14.8101266 6.37974684,14.8101266 C8.13417722,14.8101266 9.56962025,13.3746835 9.56962025,11.6202532 C9.56962025,9.86582278 8.13417722,8.43037975 6.37974684,8.43037975 Z" id="Shape" fill="#00B956"></path>
                <path d="M6.37974684,6.33417722 C6.7443038,6.33417722 7.10886076,6.37974684 7.45063291,6.44810127 L7.67848101,5.37721519 C7.24556962,5.28607595 6.81265823,5.24050633 6.37974684,5.24050633 C4.69367089,5.24050633 3.16708861,5.90126582 2.0278481,6.94936709 L2.77974684,7.72405063 C3.73670886,6.85822785 4.98987342,6.33417722 6.37974684,6.33417722" id="Shape" fill="#00B956"></path>
                <path d="M8.7721519,13.7392405 C9.27341772,13.1696203 9.56962025,12.4405063 9.56962025,11.6202532 C9.56962025,10.7772152 9.2278481,10.0025316 8.68101266,9.43291139 L7.86075949,10.1392405 C8.24810127,10.5265823 8.47594937,11.0506329 8.47594937,11.6202532 C8.47594937,12.1670886 8.27088608,12.6455696 7.95189873,13.0101266 L8.7721519,13.7392405 Z" id="Shape" fill="#00B956"></path>
                <path d="M10.1392405,12.5772152 C10.6177215,12.6911392 11.0962025,12.7594937 11.6202532,12.7594937 C13.0556962,12.7594937 14.4,12.2810127 15.4708861,11.4607595 L14.8101266,10.6177215 C13.921519,11.278481 12.8278481,11.6886076 11.6202532,11.6886076 C11.2556962,11.6886076 10.9139241,11.643038 10.5949367,11.5974684 L10.1392405,12.5772152 Z" id="Shape" fill="#FFFFFF"></path>
                <path d="M10.1392405,7.8835443 C9.75189873,7.49620253 9.50126582,6.9721519 9.50126582,6.37974684 C9.50126582,5.78734177 9.72911392,5.26329114 10.1164557,4.89873418 L9.34177215,4.12405063 C8.7721519,4.69367089 8.40759494,5.49113924 8.40759494,6.37974684 C8.40759494,7.26835443 8.7721519,8.06582278 9.34177215,8.63544304 L10.1392405,7.8835443 Z" id="Shape" fill="#FFFFFF"></path>
                <path d="M5.30886076,7.35949367 C5.51392405,8.72658228 6.15189873,9.93417722 7.08607595,10.8683544 L7.90632911,10.1620253 C7.10886076,9.36455696 6.53924051,8.3164557 6.37974684,7.15443038 L5.30886076,7.35949367 Z" id="Shape" fill="#FFFFFF"></path>
            </g>
        </g>
    </g>
</svg>