<?xml version="1.0" encoding="utf-8"?>
<!-- Generator: Adobe Illustrator 22.1.0, SVG Export Plug-In . SVG Version: 6.00 Build 0)  -->
<svg version="1.1" id="Layer_1" xmlns="http://www.w3.org/2000/svg" xmlns:xlink="http://www.w3.org/1999/xlink" x="0px" y="0px"
	 viewBox="0 0 32 32" style="enable-background:new 0 0 32 32;" xml:space="preserve">

<g id="Page-1">
	<g id="gmail-1">
		<path id="Shape" fill="#D8D8D8" d="M16,28C9.4,28,4,22.6,4,16S9.4,4,16,4s12,5.4,12,12S22.6,28,16,28z M16,5C9.9,5,5,9.9,5,16
			s4.9,11,11,11s11-4.9,11-11S22.1,5,16,5z"/>
		<polygon id="Rectangle-path" fill="#E1E1E1" points="10.8,13.2 21.4,13.7 21.4,20.7 10.8,20.7 		"/>
		<polygon id="Shape_1_" fill="#EEEEEE" points="16,17.3 10.8,20.7 21.3,20.7 21.4,13.7 		"/>
		<path id="Rectangle-path_1_" fill="#D23F31" d="M10.8,12.1v8.6h-0.7c-0.5,0-0.9-0.4-0.9-0.9v-7.6L10.8,12.1z"/>
		<path id="Rectangle-path_2_" fill="#C53929" d="M21.3,12.1h1.6v7.7c0,0.5-0.4,0.9-0.9,0.9h-0.7V12.1z"/>
		<path id="Shape_5_" fill-opacity="0.2" fill="#262626" d="M22,20.6H10.1c-0.5,0-0.9-0.4-0.9-0.9v0.1c0,0.5,0.4,0.9,0.9,0.9L22,20.6
			c0.5,0.1,0.9-0.3,0.9-0.8v-0.1C22.9,20.2,22.5,20.6,22,20.6z"/>
		<polygon id="Shape_9_" fill="#F1F1F1" points="10,11.2 16,15.2 22.2,11.2 		"/>
		<path id="Shape_2_" fill="#DB4437" d="M16,17.3L9.7,13c-0.5-0.4-0.6-0.9-0.3-1.4c0.3-0.5,0.9-0.6,1.4-0.3l5.2,3.6l5.4-3.6
			c0.5-0.3,1.1-0.2,1.4,0.3c0.3,0.5,0.2,1.1-0.3,1.4L16,17.3z"/>
	</g>
</g>
</svg>
