<?xml version="1.0" encoding="UTF-8"?>
<svg viewBox="0 0 32 32" version="1.1" xmlns="http://www.w3.org/2000/svg" xmlns:xlink="http://www.w3.org/1999/xlink">
    <!-- Generator: Sketch 48.2 (47327) - http://www.bohemiancoding.com/sketch -->
    <title>logo/24/telegram</title>
    <desc>Created with Sketch.</desc>
    <defs></defs>
    <g id="Icons" stroke="none" stroke-width="1" fill="none" fill-rule="evenodd">
        <g id="logo/24/telegram">
            <circle id="Oval-2" fill="#2CA5E0" cx="16" cy="16" r="12"></circle>
            <g id="telegram" transform="translate(7.000000, 10.000000)" fill-rule="nonzero">
                <path d="M6.32492308,11.8227692 C5.88553846,11.8227692 5.96,11.656 5.80861538,11.2387692 L4.51446154,6.98030769 L14.4695385,1.07384615" id="Shape" fill="#2CA5E0"></path>
                <path d="M6.32492308,11.8227692 C6.66461538,11.8227692 6.81415385,11.6676923 7.00492308,11.4824615 L8.81476923,9.72430769 L6.55569231,8.36184615" id="Shape" fill="#FFFFFF"></path>
                <path d="M6.55569231,8.36184615 L12.0264615,12.4036923 C12.6510769,12.7483077 13.1021538,12.5704615 13.2572308,11.824 L15.4849231,1.32984615 C15.7138462,0.414769231 15.1378462,0.00123076923 14.5409231,0.271384615 L1.46153846,5.31569231 C0.569230769,5.67384615 0.573538462,6.17230769 1.29907692,6.39446154 L4.656,7.44061538 L12.4246154,2.54030769 C12.7907692,2.31876923 13.128,2.43753846 12.8516923,2.68307692" id="Shape" fill="#FFFFFF"></path>
            </g>
        </g>
    </g>
</svg>