<?xml version="1.0" encoding="UTF-8"?>
<svg viewBox="0 0 32 32" version="1.1" xmlns="http://www.w3.org/2000/svg" xmlns:xlink="http://www.w3.org/1999/xlink">
    <!-- Generator: Sketch 51.3 (57544) - http://www.bohemiancoding.com/sketch -->
    <title>logo/24/vimeo</title>
    <desc>Created with Sketch.</desc>
    <defs></defs>
    <g id="logo/24/vimeo" stroke="none" stroke-width="1" fill="none" fill-rule="evenodd">
        <g id="Vimeo-Copy-3" transform="translate(4.000000, 4.000000)">
            <path d="M0,12 C0,5.37258267 5.37258267,0 12,0 C18.6274173,0 24,5.37258267 24,12 C24,18.6274173 18.6274173,24 12,24 C5.37258267,24 0,18.6274173 0,12 Z" id="back" fill="#00ADEF"></path>
            <path d="M18.7929985,9.68100331 C18.7289012,11.0826751 17.750006,13.0016087 15.8561467,15.4378042 C13.8983561,17.9816035 12.2417897,19.2540843 10.8872776,19.2540843 C10.0475366,19.2540843 9.33731858,18.479769 8.75695574,16.929976 C8.36954901,15.509374 7.98247439,14.088938 7.59490161,12.6683359 C7.16382237,11.1193733 6.70185687,10.3440616 6.20734455,10.3440616 C6.09957474,10.3440616 5.72262949,10.5707269 5.07717301,11.0220649 L4.4,10.149611 C5.11071616,9.52540961 5.81163506,8.90104214 6.50126221,8.2758444 C7.44910516,7.45719238 8.16114976,7.02627919 8.63540335,6.98293879 C9.75561158,6.87516898 10.4454048,7.64101546 10.7042848,9.28047822 C10.9840878,11.0496301 11.1778742,12.1497456 11.2864743,12.5803267 C11.6099497,14.0480884 11.9654739,14.781222 12.3535448,14.781222 C12.6546029,14.781222 13.1076014,14.3053079 13.711378,13.3528154 C14.3139922,12.4009871 14.6371356,11.6766544 14.6806421,11.178821 C14.7668247,10.357346 14.4436813,9.94552921 13.711378,9.94552921 C13.3666475,9.94552921 13.0111233,10.0249036 12.6454698,10.1816597 C13.353363,7.86402756 14.7053843,6.73833952 16.7010354,6.80260287 C18.180587,6.84594327 18.878517,7.80541008 18.7929985,9.68100331" id="Fill-4" fill="#FFFFFE"></path>
        </g>
    </g>
</svg>