<?xml version="1.0" encoding="UTF-8"?>
<svg viewBox="0 0 32 32" version="1.1" xmlns="http://www.w3.org/2000/svg" xmlns:xlink="http://www.w3.org/1999/xlink">
    <!-- Generator: Sketch 50 (54983) - http://www.bohemiancoding.com/sketch -->
    <title>logo/24/yandex-transport</title>
    <desc>Created with Sketch.</desc>
    <defs></defs>
    <g id="logo/24/yandex-transport" stroke="none" stroke-width="1" fill="none" fill-rule="evenodd">
        <circle id="Oval-2-Copy-2" stroke="#D8D8D8" cx="16" cy="16" r="11.5"></circle>
        <g id="Group-3" transform="translate(9.000000, 9.500000)">
            <path d="M2.36363636,0 L11.6363636,0 C12.2388561,-1.18091766e-15 12.7272727,0.488416637 12.7272727,1.09090909 L12.7272727,11.8181818 L1.27272727,11.8181818 L1.27272727,1.09090909 C1.27272727,0.488416637 1.76114391,7.76809883e-16 2.36363636,6.66133815e-16 Z" id="Rectangle" fill="#0074FF"></path>
            <rect id="Rectangle-3" fill="#FFFFFF" x="1.93939394" y="1.86136364" width="10.1212121" height="6.175"></rect>
            <ellipse id="Oval-6" fill="#FFFFFF" cx="2.54545455" cy="9.92727273" rx="1" ry="1"></ellipse>
            <ellipse id="Oval-6-Copy" fill="#FFFFFF" cx="3.81818182" cy="9.92727273" rx="1" ry="1"></ellipse>
            <ellipse id="Oval-6" fill="#FFFFFF" cx="10.1515152" cy="9.92727273" rx="1" ry="1"></ellipse>
            <ellipse id="Oval-6-Copy" fill="#FFFFFF" cx="11.4242424" cy="9.92727273" rx="1" ry="1"></ellipse>
            <rect id="Rectangle-2" fill="#0074FF" x="0" y="1.86136364" width="1" height="2.48181818"></rect>
            <rect id="Rectangle-2" fill="#000000" x="1.27272727" y="11.8181818" width="2.54545455" height="1.18181818"></rect>
            <rect id="Rectangle-2" fill="#000000" x="10.1818182" y="11.8181818" width="2.54545455" height="1.18181818"></rect>
            <rect id="Rectangle-2-Copy" fill="#0074FF" x="13.3333333" y="1.86136364" width="1" height="2.48181818"></rect>
        </g>
    </g>
</svg>