<?xml version="1.0" encoding="UTF-8"?>
<svg viewBox="0 0 32 32" version="1.1" xmlns="http://www.w3.org/2000/svg" xmlns:xlink="http://www.w3.org/1999/xlink">
    <!-- Generator: Sketch 48.2 (47327) - http://www.bohemiancoding.com/sketch -->
    <title>logo/24/yandex-music</title>
    <desc>Created with Sketch.</desc>
    <defs></defs>
    <g id="Icons" stroke="none" stroke-width="1" fill="none" fill-rule="evenodd">
        <g id="logo/24/yandex-music">
            <circle id="Oval-2-Copy-2" stroke="#D8D8D8" cx="16" cy="16" r="11.5"></circle>
            <g id="icon-color" transform="translate(10.500000, 8.000000)" fill-rule="nonzero">
                <g id="Layer_3" transform="translate(0.000000, 2.958491)" fill="#FFCC00">
                    <ellipse id="Oval" cx="5.54666667" cy="5.51018868" rx="5.54666667" ry="5.49433962"></ellipse>
                </g>
                <g id="Layer_2" transform="translate(2.560000, 0.000000)" fill="#FF3333">
                    <path d="M5.97333333,2.92679245 L5.97333333,7.7290566 C5.92,7.73962264 5.97333333,7.7290566 5.97333333,7.7290566 L5.97333333,8.35773585 C5.97333333,8.93358491 5.86666667,9.36679245 5.648,9.81584906 C5.19466667,10.7456604 4.14933333,11.4271698 2.98666667,11.4271698 C1.33866667,11.4271698 0,10.1011321 0,8.46867925 C0,6.83622642 1.33866667,5.51018868 2.98666667,5.51018868 C3.88266667,5.51018868 4.68266667,5.90113208 5.232,6.51924528 C5.38133333,6.68830189 5.50933333,6.90490566 5.616,7.20075472 C5.57866667,7.02113208 5.552,6.85735849 5.552,6.77811321 L5.552,2.02339623 L5.552,0.0158490566 L9.392,1.49509434 L9.392,4.24226415 L5.97333333,2.92679245 Z" id="Shape"></path>
                </g>
            </g>
        </g>
    </g>
</svg>