<svg xmlns="http://www.w3.org/2000/svg" viewBox="0 0 24 24"><path d="M14 20.15c0 .322.299.56.606.467a9.004 9.004 0 0 0 4.96-13.493l-1.525 1.34a7.002 7.002 0 0 1-3.687 10.13.525.525 0 0 0-.354.488v1.069Z"/><path d="M16.094 10.174c.261.56.406 1.177.406 1.826 0 1.426-.7 2.701-1.8 3.548-.3.23-.7-.004-.7-.382v-3.152l2.094-1.84Zm-1.225-1.586L14 9.35v-.517c0-.378.4-.613.7-.382.058.044.114.09.169.136Zm1.923-1.69a6.998 6.998 0 0 0-2.438-1.491.525.525 0 0 1-.354-.489V3.849c0-.32.299-.559.606-.466a8.994 8.994 0 0 1 3.694 2.19l-1.508 1.325ZM12 11.108V5.36a.5.5 0 0 0-.342-.474l-.822-.274a.5.5 0 0 0-.553.167L7.15 8.807A.5.5 0 0 1 6.756 9H3.707a.5.5 0 0 0-.353.146l-.207.208A.5.5 0 0 0 3 9.707v4.586a.5.5 0 0 0 .147.353l.207.208a.5.5 0 0 0 .353.146h3.049a.5.5 0 0 1 .394.193l.082.105L12 11.108ZM8.462 16.88l1.82 2.34a.5.5 0 0 0 .554.168l.822-.274A.5.5 0 0 0 12 18.64v-4.87l-3.538 3.11Zm-5.488 3.563a.5.5 0 0 1 .046-.705L21.497 3.503a.5.5 0 1 1 .66.751L3.68 20.49a.5.5 0 0 1-.706-.046Z"/></svg>
