<svg xmlns="http://www.w3.org/2000/svg" viewBox="0 0 24 24"><path d="M14 20.15c0 .322.299.56.606.467a9.004 9.004 0 0 0 0-17.234.475.475 0 0 0-.606.466v1.069c0 .221.146.414.354.489a7.002 7.002 0 0 1 0 13.186.525.525 0 0 0-.354.489v1.069ZM3.146 14.646A.5.5 0 0 1 3 14.293V9.707a.5.5 0 0 1 .146-.353l.208-.208A.5.5 0 0 1 3.707 9h3.048a.5.5 0 0 0 .395-.193l3.133-4.028a.5.5 0 0 1 .553-.167l.822.274A.5.5 0 0 1 12 5.36v13.28a.5.5 0 0 1-.342.474l-.822.274a.5.5 0 0 1-.553-.167L7.15 15.193A.5.5 0 0 0 6.755 15H3.707a.5.5 0 0 1-.353-.146l-.208-.208Z"/><path d="M16.5 12c0 1.426-.7 2.701-1.8 3.548-.3.23-.7-.004-.7-.382V8.834c0-.378.4-.613.7-.382 1.1.847 1.8 2.122 1.8 3.548Z"/></svg>
