<svg id="ready" xmlns="http://www.w3.org/2000/svg" viewBox="0 0 20 20"><title>Megaicons_work_16_1.8_cp</title><path d="M16.48,2h-13A1.5,1.5,0,0,0,2,3.49v13A1.5,1.5,0,0,0,3.48,18h13a1.5,1.5,0,0,0,1.5-1.5v-13A1.5,1.5,0,0,0,16.48,2Zm-13,1h13a.5.5,0,0,1,.5.5V6H3V3.49A.5.5,0,0,1,3.48,3ZM7,17V9.6L8.26,11h3.43L13,9.65V17Zm9.5,0H14V8.49L13.21,8l-1.95,2H8.7L6.86,8,6,8.45V17H3.48a.5.5,0,0,1-.5-.5V7H17v9.5A.5.5,0,0,1,16.48,17ZM15,4.49a.5.5,0,1,1,.5.5A.5.5,0,0,1,15,4.49Zm-6,9a.5.5,0,1,1-.5-.5A.5.5,0,0,1,9,13.49Zm3,0a.5.5,0,1,1-.5-.5A.5.5,0,0,1,12,13.49ZM9.48,15h1v1h-1Z"/></svg>