<svg id="ready" xmlns="http://www.w3.org/2000/svg" viewBox="0 0 20 20"><title>Megaicons_work_16_1.8_cp</title><path d="M17.5,8.91A2.3,2.3,0,0,0,15.65,8H11.39l.78-3.76a1.88,1.88,0,0,0-.4-1.56A1.82,1.82,0,0,0,10.37,2,1.83,1.83,0,0,0,8.72,3c-.55,1.1-2,4-2.52,5H2V18H13.8a3,3,0,0,0,2.83-2.18L17.9,11A2.39,2.39,0,0,0,17.5,8.91ZM3,17V9H6v8Zm14-6.24-1.35,4.79A2,2,0,0,1,13.8,17H7V8.66c.33-.64,2-4,2.63-5.18A.83.83,0,0,1,11,3.31a.87.87,0,0,1,.18.72l-.88,4.27.42.7h5a1.3,1.3,0,0,1,1,.53A1.43,1.43,0,0,1,17,10.75Z"/></svg>