<svg id="Ready" xmlns="http://www.w3.org/2000/svg" viewBox="0 0 40 40"><title>Megaicons_work_32_1.8_cp</title><path d="M4,18.85l1.5-1.32a19.5,19.5,0,0,0,29,0L36,18.85a20.27,20.27,0,0,1-2.8,2.62l2.3,3.17-1.62,1.18-2.32-3.19a21.71,21.71,0,0,1-4.13,2l1.24,3.82-1.9.62-1.24-3.83A21.58,21.58,0,0,1,21,26v4H19V26a21.58,21.58,0,0,1-4.53-.71l-1.24,3.83-1.9-.62,1.24-3.82a21.71,21.71,0,0,1-4.13-2L6.11,25.82,4.5,24.64l2.3-3.17A20.27,20.27,0,0,1,4,18.85ZM20,12a18.92,18.92,0,0,1,9.5,2.56l1-1.73a20.94,20.94,0,0,0-21,0l1,1.73A18.92,18.92,0,0,1,20,12Z"/></svg>