<?xml version="1.0" encoding="utf-8"?>
<!-- Generator: Adobe Illustrator 23.0.1, SVG Export Plug-In . SVG Version: 6.00 Build 0)  -->
<svg version="1.2" baseProfile="tiny" id="Layer_1" xmlns="http://www.w3.org/2000/svg" xmlns:xlink="http://www.w3.org/1999/xlink"
	 x="0px" y="0px" viewBox="0 0 40 40" xml:space="preserve">
<path d="M26,14.1V8c0-2.2-1.8-4-4-4H10C7.8,4,6,5.8,6,8v24c0,2.2,1.8,4,4,4h14.9H25c6.1,0,11-4.9,11-11C36,19.3,31.6,14.6,26,14.1z
	 M10,34c-1.1,0-2-0.9-2-2V8c0-1.1,0.9-2,2-2h12c1.1,0,2,0.9,2,2v6c-5.6,0.5-10,5.2-10,11c0,3.7,1.9,7,4.7,9H10z M25,34L25,34L25,34
	h-0.1C20,33.9,16,29.9,16,25c0-5,4-9,9-9s9,4,9,9S30,34,25,34z M12,8h8v2h-8V8z M26,18h-4v6h-2v2h2v2h-2v2h2v2h2v-2h4v-2h-4v-2h2
	c2.2,0,4-1.8,4-4S28.2,18,26,18z M26,24h-2v-4h2c1.1,0,2,0.9,2,2S27.1,24,26,24z"/>
</svg>
