<?xml version="1.0" encoding="utf-8"?>
<!-- Generator: Adobe Illustrator 23.0.1, SVG Export Plug-In . SVG Version: 6.00 Build 0)  -->
<svg version="1.1" id="Layer_1" xmlns="http://www.w3.org/2000/svg" xmlns:xlink="http://www.w3.org/1999/xlink" x="0px" y="0px"
	 viewBox="0 0 40 40" style="enable-background:new 0 0 40 40;" xml:space="preserve">
<path d="M18.2,17.1l-11-6.4L6.8,8.6l3-2.6l15.7,5.1l4-3.4c1.7-1.4,4.2-1.2,5.6,0.5c1.4,1.7,1.2,4.2-0.5,5.6l-4,3.4l2.3,16.3
	l-3.1,2.6l-2-0.9l-4.4-11.9L17,28.5l0.3,5L14.2,36l-2-0.9l-1.6-6.5L4.5,26L4,23.8l3.1-2.6l4.9,1.1L18.2,17.1z M30.7,32.5l-2.3-16.2
	l4.9-4.1c0.8-0.7,0.9-1.9,0.3-2.8c-0.7-0.8-1.9-0.9-2.8-0.2l-4.9,4.1l-15.6-5L9,9.4l12.7,7.4l-9.2,7.7l-4.9-1.1l-1.4,1.1l6.1,2.6
	l1.5,6.5l1.3-1.1l-0.3-5l9.3-7.8l5,13.9L30.7,32.5z"/>
</svg>
