<svg id="Ready" xmlns="http://www.w3.org/2000/svg" viewBox="0 0 40 40"><title>Megaicons_work_32_1.8_cp</title><path d="M20,3.95a16,16,0,1,0,16,16A16,16,0,0,0,20,3.95ZM9.06,11.24,12,13.45,11.92,22a2,2,0,0,1-2,2H6.59A13.91,13.91,0,0,1,9.06,11.24ZM7.37,25.95H9.92a4,4,0,0,0,4-4L14,12.45,10.42,9.77a13.94,13.94,0,0,1,19.36.18H25.16a4,4,0,0,0-3.79,2.74l-2,6A4,4,0,0,0,23.11,24L26,24v8.56A13.93,13.93,0,0,1,7.37,25.95ZM28,31.42V22l-4.87,0a2,2,0,0,1-1.88-2.63l2-6a2,2,0,0,1,1.9-1.37h6.31A14,14,0,0,1,28,31.42Z"/></svg>