<?xml version="1.0" encoding="utf-8"?>
<!-- Generator: Adobe Illustrator 23.0.1, SVG Export Plug-In . SVG Version: 6.00 Build 0)  -->
<svg version="1.1" id="Ready" xmlns="http://www.w3.org/2000/svg" xmlns:xlink="http://www.w3.org/1999/xlink" x="0px" y="0px"
	 viewBox="0 0 40 40" style="enable-background:new 0 0 40 40;" xml:space="preserve">
<path d="M15.2,10h-0.6C11,10,8,13,8,16.7v13.5c-1.6,0.6-2.4,2.3-1.8,3.8c0.6,1.6,2.3,2.4,3.8,1.8c1.6-0.6,2.4-2.3,1.8-3.8
	c-0.3-0.9-1-1.5-1.8-1.8V16.7c0-2.6,2.1-4.7,4.7-4.7h0.5c2.6,0,4.7,2.1,4.8,4.7c0,0,0,0,0,0v11.6c0,3.7,3,6.7,6.7,6.7h0.6
	c3.7,0,6.7-3,6.7-6.7V11.8c1.2-0.4,2-1.5,2-2.8c0-1.7-1.3-3-3-3c0,0,0,0-0.1,0C31.3,6,30,7.3,30,8.9c0,0,0,0,0,0.1
	c0,1.3,0.8,2.4,2,2.8v16.5c0,2.6-2.1,4.7-4.7,4.7c0,0,0,0,0,0h-0.6c-2.6,0-4.6-2.1-4.7-4.7V16.7C22,13,19,10,15.2,10
	C15.3,10,15.3,10,15.2,10z M8.9,34c-0.6,0-1-0.4-1-1s0.4-1,1-1s1,0.4,1,1S9.5,34,8.9,34z"/>
</svg>
