<svg id="Ready" xmlns="http://www.w3.org/2000/svg" viewBox="0 0 40 40"><title>Megaicons_work_32_1.8_cp</title><path d="M16.92,26a5,5,0,1,0-5-5A5,5,0,0,0,16.92,26Zm0-8a3,3,0,1,1-3,3A3,3,0,0,1,16.92,18ZM6.57,31H26.92a2.56,2.56,0,0,0,2.61-2.5v-3l4.92,2.05L36,26.62V14.33l-1.55-.9-4.92,2.05v-3A2.56,2.56,0,0,0,26.92,10H6.57A2.52,2.52,0,0,0,4,12.5v16A2.52,2.52,0,0,0,6.57,31ZM6,12.5a.6.6,0,0,1,.61-.58H26.92a.6.6,0,0,1,.61.58v4.35l1.5.94L34,15.73v9.54L29,23.22l-1.5.94V28.5a.6.6,0,0,1-.61.58H6.57A.6.6,0,0,1,6,28.5Z"/></svg>