<svg viewBox="0 0 32 32" xmlns="http://www.w3.org/2000/svg"><g fill="#94D419" fill-rule="nonzero"><path d="M26.297 12.082c-.102 3.98-4.143 7.036-6.502 9.087h5.928a10.99 10.99 0 0 0 1.292-5.19c0-1.374-.246-2.687-.718-3.897Z"/><path d="m15.262 24.246-.021-2.338c4.82-4.185 7.774-7.016 7.774-9.744 0-1.026-.39-2.297-2.133-2.297-1.374 0-2.708.8-2.461 4.143H15.59c-.698-3.877 1.395-6.933 5.415-6.933.636 0 1.23.082 1.764.226a10.802 10.802 0 0 0-6.79-2.38A11.048 11.048 0 0 0 4.923 15.98c0 6.093 4.944 11.057 11.056 11.057 2.81 0 5.375-1.046 7.324-2.77h-8.041v-.02Z"/></g></svg>