<svg viewBox="0 0 32 32" fill="none" xmlns="http://www.w3.org/2000/svg">
<path d="M28.0007 16C28.0007 22.6274 22.6281 28 16.0007 28C9.37332 28 4.00073 22.6274 4.00073 16C4.00073 9.37258 9.37332 4 16.0007 4C22.6281 4 28.0007 9.37258 28.0007 16Z" fill="#DF503A"/>
<path fill-rule="evenodd" clip-rule="evenodd" d="M15.1241 9.76345C14.9423 9.95366 14.4872 10.9625 14.1129 12.0051C12.3391 16.945 11.963 18.0013 11.963 18.0441C11.963 18.0694 12.324 18.0901 12.7652 18.0901H13.5674L13.8246 17.3919C13.9659 17.008 14.1075 16.6111 14.1392 16.5099C14.1811 16.3763 14.687 16.3262 15.9954 16.3262H17.7941L18.0435 17.2082L18.293 18.0901H19.1657C19.6458 18.0901 20.0385 18.0419 20.0385 17.9828C20.0385 17.9239 19.4497 16.1307 18.73 13.998C17.9173 11.59 17.2966 9.98717 17.0921 9.76904C16.6309 9.27691 15.5921 9.27397 15.1241 9.76345ZM17.1889 14.746C17.1961 14.9702 17.0435 15.0033 16.0008 15.0033C15.0227 15.0033 14.8044 14.962 14.8044 14.7766C14.8044 14.588 15.6371 12.08 15.9492 11.3285C16.0398 11.1103 17.1726 14.2332 17.1889 14.746ZM11.6639 21.6179V22.4999H16.0008H20.3376V21.6179V20.736H16.0008H11.6639V21.6179Z" fill="white"/>
</svg>
