<svg viewBox="0 0 32 32" xmlns="http://www.w3.org/2000/svg"><g fill="none" fill-rule="evenodd"><circle fill="#333" cx="16" cy="16" r="12"/><path d="M20.788 18.678s-.03-.085-.088-.286c-.06-.2-.267-.258-.385-.315-.118-.057-.177-.229-.088-.286.206-.143.443-.258.68-.344.561-.258-.178-.372-.533-.601a1.053 1.053 0 0 1-.413-.458c0-.029-.03-.029-.03-.058L17.271 9h-2.542l-2.66 7.273-.03.057s-.177.401.03.573c.207.172.562.315-.03.573-.59.257-.768.343-.857.4-.088.058-.148.201.03.23.177.028.148.2.088.372l-.118.258L10 21.97h2.542l1.182-3.264.118-.258c.06-.171.06-.343-.088-.372-.148-.029-.119-.172-.03-.229.089-.057.325-.143.887-.4.561-.259.207-.459.03-.574-.178-.114-.03-.572-.03-.572L16 12.465l1.478 4.066H15.32c-.03.114 0 .258.118.343.178.144.562.315-.03.573-.59.258-.797.344-.886.401-.089.057-.148.2.03.23.177.028.148.2.088.371-.059.172-.147.401-.147.401v.029h3.842L19.458 22H22l-1.182-3.264-.03-.058Z" fill="#FFF" fill-rule="nonzero"/></g></svg>