<svg viewBox="0 0 32 32" xmlns="http://www.w3.org/2000/svg">
<path d="M16 28C22.6274 28 28 22.6274 28 16C28 9.37258 22.6274 4 16 4C9.37258 4 4 9.37258 4 16C4 22.6274 9.37258 28 16 28Z" fill="#BA2B35"/>
<path d="M8.9918 16.3129H9.58197V19.3019H8.9918V18.0626H7.59016V19.3019H7V16.3129H7.59016V17.4793H8.9918V16.3129ZM12.6066 17.9897C12.6066 18.5 12.271 18.7187 11.7951 18.7187C11.3525 18.7187 11.1311 18.4271 11.1311 17.9168V16.24H10.541V17.9897C10.541 18.8645 10.9836 19.3019 11.8689 19.3019C12.6803 19.3019 13.1967 18.7916 13.1967 17.9168V16.24H12.6066V17.9897ZM19.6148 18.3542L18.9508 16.3129H18.4344L17.7705 18.3542L17.1066 16.3129H16.4426L17.4754 19.3019H17.9918L18.6557 17.3335L19.3197 19.3019H19.8361L20.8689 16.3129H20.2049L19.6148 18.3542ZM21.9754 17.9897H23.082V17.4793H21.9754V16.8961H23.5984V16.3129H21.3852V19.3019H23.6721V18.7187H21.9754V17.9897ZM24.4098 19.3019H25V16.3129H24.4098V19.3019ZM14.3033 18.6458L14.0082 19.3019H13.3443L14.6721 16.3129H15.2623L16.5902 19.3019H15.9262L15.6311 18.6458H14.3033ZM14.5246 18.1355H15.4836L15.041 17.0419L14.5246 18.1355Z" fill="white"/>
<path d="M15.6667 12.0799C13.3191 12.0799 11.4572 10.1599 11.4572 7.91992H12.0238C12.0238 9.91992 13.6429 11.5199 15.6667 11.5199C17.6905 11.5199 19.3095 9.91992 19.3095 7.91992H19.8762C19.9572 10.2399 18.0143 12.0799 15.6667 12.0799Z" fill="white"/>
</svg>
