<svg viewBox="0 0 32 32" fill="none" xmlns="http://www.w3.org/2000/svg"><path d="M4 16C4 9.373 9.373 4 16 4s12 5.373 12 12-5.373 12-12 12S4 22.627 4 16Z" fill="#fff"/><path fill-rule="evenodd" clip-rule="evenodd" d="M18.634 8.8c.125.853-.222 1.69-.68 2.28-.49.635-1.335 1.126-2.154 1.1-.15-.817.233-1.659.699-2.224.51-.625 1.386-1.104 2.135-1.156Zm2.459 12.01c.422-.646.58-.972.907-1.702-2.383-.907-2.765-4.294-.406-5.595-.72-.902-1.73-1.424-2.685-1.424-.687 0-1.158.179-1.586.342-.357.136-.684.26-1.082.26-.43 0-.81-.136-1.21-.279-.438-.157-.897-.322-1.468-.322-1.07 0-2.21.654-2.933 1.773-1.016 1.575-.842 4.537.805 7.06.588.902 1.375 1.917 2.404 1.926.427.004.711-.123 1.018-.261.352-.158.735-.33 1.397-.333.666-.004 1.042.17 1.39.33.3.138.577.266 1 .261 1.03-.008 1.86-1.132 2.449-2.035Z" fill="#0B0B0A"/><path fill-rule="evenodd" clip-rule="evenodd" d="M16 4.542C9.672 4.542 4.542 9.672 4.542 16S9.672 27.458 16 27.458 27.458 22.328 27.458 16 22.328 4.542 16 4.542ZM3.5 16C3.5 9.096 9.096 3.5 16 3.5S28.5 9.096 28.5 16 22.904 28.5 16 28.5 3.5 22.904 3.5 16Z" fill="#D8D8D8"/></svg>