<svg viewBox="0 0 32 32" fill="none" xmlns="http://www.w3.org/2000/svg"><path d="M16 28c6.627 0 12-5.373 12-12S22.627 4 16 4 4 9.373 4 16s5.373 12 12 12Z" fill="url(#a)"/><path fill-rule="evenodd" clip-rule="evenodd" d="m21.39 8-.64.11-7.24 1.41a1 1 0 0 0-.45.2.69.69 0 0 0-.24.45c-.009.08-.009.16 0 .24v8.74a.81.81 0 0 1-.16.58.81.81 0 0 1-.53.26l-.47.09a9.689 9.689 0 0 0-1.34.33 2.21 2.21 0 0 0-.79.49A1.81 1.81 0 0 0 9 22.36c.046.449.26.863.6 1.16.25.222.553.374.88.44.433.067.875.046 1.3-.06.297-.055.584-.156.85-.3.26-.15.485-.355.66-.6a2.26 2.26 0 0 0 .36-.81c.056-.283.083-.571.08-.86v-7.59c0-.41.12-.52.46-.59l6.29-1.23c.39-.07.57 0 .57.43v5.19a.86.86 0 0 1-.14.58.89.89 0 0 1-.53.26l-.47.09a6.999 6.999 0 0 0-1.34.33c-.3.097-.57.265-.79.49a1.77 1.77 0 0 0 .1 2.62c.244.223.545.372.87.43.436.067.882.046 1.31-.06.295-.053.578-.155.84-.3a2.12 2.12 0 0 0 .67-.59c.17-.244.288-.52.35-.81.058-.283.081-.572.07-.86V8.62c.01-.4-.21-.62-.6-.62Z" fill="#fff"/><defs><linearGradient id="a" x1="4" y1="16" x2="28" y2="16" gradientUnits="userSpaceOnUse"><stop stop-color="#FA233B"/><stop offset="1" stop-color="#FB5C74"/></linearGradient></defs></svg>