<svg viewBox="0 0 32 32" fill="none" xmlns="http://www.w3.org/2000/svg">
    <path d="M28 16c0 6.627-5.373 12-12 12S4 22.627 4 16 9.373 4 16 4s12 5.373 12 12Z" fill="#fff"/>
    <path fill-rule="evenodd" clip-rule="evenodd" d="M16 4.542C9.672 4.542 4.542 9.672 4.542 16S9.672 27.458 16 27.458 27.458 22.328 27.458 16 22.328 4.542 16 4.542ZM3.5 16C3.5 9.096 9.096 3.5 16 3.5S28.5 9.096 28.5 16 22.904 28.5 16 28.5 3.5 22.904 3.5 16Z" fill="#D8D8D8"/>
    <path d="M9.974 18.487v-.412h.626v2.897h-.626v-.417c-.235.328-.573.492-1.014.492-.397 0-.737-.147-1.02-.44a1.504 1.504 0 0 1-.422-1.083c0-.43.14-.79.423-1.084.282-.293.622-.44 1.02-.44.44 0 .778.162 1.013.487Zm-1.57 1.703c.174.174.392.26.655.26.262 0 .48-.086.654-.26.174-.178.261-.4.261-.666a.895.895 0 0 0-.26-.66.878.878 0 0 0-.655-.267.878.878 0 0 0-.655.266.895.895 0 0 0-.26.66c0 .263.086.485.26.667ZM12.048 18.875c0 .089.046.162.139.22.093.054.228.106.405.156.135.031.253.064.354.099.1.035.206.087.318.156a.718.718 0 0 1 .342.649.767.767 0 0 1-.324.655c-.217.158-.485.237-.806.237-.285 0-.53-.06-.735-.18a1.053 1.053 0 0 1-.446-.498l.538-.312c.097.278.311.417.643.417.329 0 .493-.108.493-.325 0-.158-.184-.282-.55-.37a3.747 3.747 0 0 1-.354-.105 2.256 2.256 0 0 1-.313-.15.704.704 0 0 1-.26-.261.743.743 0 0 1-.082-.377c0-.266.1-.48.302-.643.204-.162.457-.243.759-.243.24 0 .451.054.637.162.19.105.334.251.434.44l-.527.296c-.096-.22-.278-.33-.544-.33a.543.543 0 0 0-.307.08.26.26 0 0 0-.116.227ZM16.55 18.487v-.412h.626v2.897h-.626v-.417c-.235.328-.573.492-1.013.492-.398 0-.738-.147-1.02-.44a1.504 1.504 0 0 1-.423-1.083c0-.43.141-.79.423-1.084.282-.293.622-.44 1.02-.44.44 0 .778.162 1.013.487Zm-1.57 1.703c.174.174.393.26.655.26.263 0 .48-.086.655-.26.174-.178.26-.4.26-.666a.895.895 0 0 0-.26-.66.878.878 0 0 0-.655-.267.878.878 0 0 0-.655.266.895.895 0 0 0-.26.66c0 .263.087.485.26.667ZM19.603 18c.336 0 .604.108.805.324.205.213.307.502.307.87v1.778h-.626v-1.715c0-.216-.058-.382-.173-.498-.116-.116-.275-.174-.476-.174-.227 0-.407.072-.538.214-.132.14-.197.346-.197.62v1.553h-.626v-2.897h.626v.371c.193-.297.492-.446.898-.446ZM23.857 18.487v-.412h.625v2.897h-.625v-.417c-.236.328-.574.492-1.014.492-.398 0-.738-.147-1.02-.44a1.504 1.504 0 0 1-.423-1.083c0-.43.141-.79.423-1.084.282-.293.622-.44 1.02-.44.44 0 .778.162 1.014.487Zm-1.57 1.703c.173.174.392.26.654.26.263 0 .481-.086.655-.26.174-.178.26-.4.26-.666a.895.895 0 0 0-.26-.66.877.877 0 0 0-.655-.267.878.878 0 0 0-.654.266.895.895 0 0 0-.261.66c0 .263.087.485.26.667Z" fill="#000"/>
    <circle cx="16" cy="10.5" r="1.5" fill="#DF726E"/>
    <circle cx="14.164" cy="13.668" r="1.5" fill="#DF726E"/>
    <circle cx="17.836" cy="13.668" r="1.5" fill="#DF726E"/>
</svg>
