<svg viewBox="0 0 32 32" fill="none" xmlns="http://www.w3.org/2000/svg">
<path d="M16 28C22.6274 28 28 22.6274 28 16C28 9.37258 22.6274 4 16 4C9.37258 4 4 9.37258 4 16C4 22.6274 9.37258 28 16 28Z" fill="white"/>
<path d="M16 28.5C9.125 28.5 3.5 22.875 3.5 16C3.5 9.125 9.125 3.5 16 3.5C22.875 3.5 28.5 9.125 28.5 16C28.5 22.875 22.875 28.5 16 28.5ZM16 4.54167C9.64583 4.54167 4.54167 9.64583 4.54167 16C4.54167 22.3542 9.64583 27.4583 16 27.4583C22.3542 27.4583 27.4583 22.3542 27.4583 16C27.4583 9.64583 22.3542 4.54167 16 4.54167Z" fill="#D8D8D8"/>
<path d="M19.3077 23.1956C21.4549 23.1956 23.1956 21.4549 23.1956 19.3077C23.1956 17.1605 21.4549 15.4199 19.3077 15.4199C17.1605 15.4199 15.4199 17.1605 15.4199 19.3077C15.4199 21.4549 17.1605 23.1956 19.3077 23.1956Z" fill="#97CF26"/>
<path d="M11.9995 21.1173C12.999 21.1173 13.8092 20.3071 13.8092 19.3076C13.8092 18.3081 12.999 17.4979 11.9995 17.4979C11 17.4979 10.1898 18.3081 10.1898 19.3076C10.1898 20.3071 11 21.1173 11.9995 21.1173Z" fill="#A169F7"/>
<path d="M19.3077 14.5019C20.6897 14.5019 21.8101 13.3815 21.8101 11.9994C21.8101 10.6174 20.6897 9.49701 19.3077 9.49701C17.9256 9.49701 16.8052 10.6174 16.8052 11.9994C16.8052 13.3815 17.9256 14.5019 19.3077 14.5019Z" fill="#FF6163"/>
<path d="M11.9995 15.1947C13.7642 15.1947 15.1947 13.7642 15.1947 11.9995C15.1947 10.2349 13.7642 8.80438 11.9995 8.80438C10.2349 8.80438 8.80438 10.2349 8.80438 11.9995C8.80438 13.7642 10.2349 15.1947 11.9995 15.1947Z" fill="#00AAFF"/>
</svg>
