<svg viewBox="0 0 32 32" xmlns="http://www.w3.org/2000/svg" xmlns:xlink="http://www.w3.org/1999/xlink"><defs><radialGradient cx="25.916%" cy="74.438%" fx="25.916%" fy="74.438%" r="71.412%" gradientTransform="rotate(-46.448 .253 .747) scale(1 1.00709)" id="b"><stop stop-color="#FD568C" offset="0%"/><stop stop-color="#F13F34" offset="100%"/></radialGradient><path d="M19.23 15.668c.021.02.04.049.063.054.284.071.517.239.756.389.223.137.521.508.619.74.073.173.126.352.163.54.029.143.023.282.03.423.008.145.023.296-.006.436-.02.104-.02.21-.05.312-.081.285-.166.568-.316.83-.155.27-.335.52-.572.719-.17.143-.34.293-.553.376-.072.029-.123.092-.207.104-.075.011-.142.058-.215.084-.073.025-.17.02-.22.067-.07.065-.172-.006-.22.078-.002.003-.014 0-.021.001-.184.014-.365.039-.547.039-1.996.003-3.993.002-5.99.002h-.214v-9.599h.21c1.982 0 3.965.003 5.947-.004.265-.001.51.069.755.145.444.14.802.419 1.1.767.255.299.425.65.535 1.029.046.158.09.319.085.487-.002.146 0 .292 0 .438 0 .274-.172.689-.338.925-.187.266-.53.493-.794.618Zm-3.789 2.481h1.066c.08 0 .155-.01.235-.036a.565.565 0 0 0 .325-.273.621.621 0 0 0 .073-.465c-.056-.244-.34-.435-.602-.436h-1.096v1.21Zm0-3.213c.36 0 .707-.001 1.053.001a.323.323 0 0 0 .216-.083.511.511 0 0 0 .188-.466c-.014-.178-.235-.407-.413-.41-.346-.006-.692-.002-1.043-.002v.96Zm.56-9.016a10.035 10.035 0 0 1 7.127 2.953A10.031 10.031 0 0 1 26.08 16a10.035 10.035 0 0 1-2.953 7.128A10.049 10.049 0 0 1 16 26.08a10.049 10.049 0 0 1-7.128-2.952A10.038 10.038 0 0 1 5.92 16c0-1.362.266-2.682.792-3.923a10.023 10.023 0 0 1 2.16-3.204A10.035 10.035 0 0 1 16 5.92ZM16 4C9.371 4 4 9.373 4 16s5.372 12 12 12c6.625 0 12-5.373 12-12S22.625 4 16 4Z" id="a"/></defs><use fill="url(#b)" xlink:href="#a" fill-rule="evenodd"/></svg>