<svg viewBox="0 0 32 32" fill="none" xmlns="http://www.w3.org/2000/svg"><path d="M28 16c0 6.627-5.373 12-12 12S4 22.627 4 16 9.373 4 16 4s12 5.373 12 12Z" fill="#6E00BE"/><path d="m12.896 14.716-.764-.287c-.24.375-.631.457-1.106.457-.781 0-1.178-.302-1.178-.866v-.04c0-.564.397-.866 1.178-.866.475 0 .866.078 1.106.457l.764-.287c-.363-.652-1.1-.784-1.87-.784C9.781 12.5 9 13.06 9 13.946v.108c0 .89.781 1.446 2.026 1.446.77-.005 1.508-.132 1.87-.784Zm7.285-2.153h-.81v2.874h.9l1.914-2.002h.017l-.011 2.002H23v-2.874h-.899l-1.914 2.002h-.017l.011-2.002Zm-6.112 0h-.732v2.874h.86l1.089-1.944h.016l-.05 1.944h.731v-2.874h-.86l-1.082 1.944h-.017l.045-1.944Zm3.232.565v2.304h.759v-2.304h.882v-.565h-2.523v.565h.882Z" fill="#fff"/><path d="M20.015 16.558h-.72v2.879h.846l1.072-1.947h.017l-.05 1.947h.72v-2.879h-.846l-1.072 1.947h-.017l.05-1.947Zm-7.87 1.454v-.034c0-.615.461-.859 1.214-.859.753 0 1.22.244 1.22.859v.034c0 .615-.467.864-1.22.864-.758-.005-1.215-.254-1.215-.864Zm-.852.04c0 .877.818 1.448 2.066 1.448 1.248 0 2.072-.566 2.072-1.449v-.112c0-.878-.824-1.439-2.072-1.439-1.248 0-2.066.561-2.066 1.439v.112ZM25 16.557h-2.061l-.027 1.596c-.012.488-.094.658-.39.658h-.188v.625h.21c.796 0 1.027-.283 1.049-1.283l.017-1.044h.67v2.327h.714v-2.879H25ZM7 19.438h.742l-.033-1.908h.017l.807 1.908h.742l.797-1.908h.017l-.033 1.908h.742v-2.879H9.776l-.863 2.127h-.017l-.874-2.127H7v2.879Zm10.707-.556h-1.023v-.542h1.023c.241 0 .346.093.346.273 0 .18-.105.269-.346.269Zm-1.787-2.323v2.879h1.759c.643 0 1.121-.21 1.121-.825 0-.614-.472-.82-1.121-.82h-.99v-.668h2.001v-.566h-2.77Z" fill="#FA6400"/></svg>