<svg viewBox="0 0 32 32" fill="none" xmlns="http://www.w3.org/2000/svg"><path d="M16 28c6.627 0 12-5.373 12-12S22.627 4 16 4 4 9.373 4 16s5.373 12 12 12Z" fill="#00B956"/><path fill-rule="evenodd" clip-rule="evenodd" d="M11.002 19.125a.793.793 0 0 0-1.098.118c-.27.33-.216.81.12 1.074a.793.793 0 0 0 1.098-.118.752.752 0 0 0-.12-1.074ZM12.1 20.464a.792.792 0 0 0-1.097.117c-.27.33-.216.81.12 1.074a.792.792 0 0 0 1.098-.118.752.752 0 0 0-.121-1.073Z" fill="#731982"/><path fill-rule="evenodd" clip-rule="evenodd" d="M13.682 21.227a.793.793 0 0 0-1.098.118c-.27.33-.216.81.12 1.073a.793.793 0 0 0 1.098-.118.752.752 0 0 0-.12-1.073Z" fill="#fff"/><path fill-rule="evenodd" clip-rule="evenodd" d="m14.16 22.756.263-.965a6 6 0 1 0-3.906-3.35l-.914.407a7 7 0 1 1 4.557 3.908Z" fill="#fff"/><path d="m13.656 13.125-.78.836c.054 2.954 2.43 5.107 5.494 4.992l.754-.829-1.813-1.637-.673.714c-.908-.505-1.345-.876-1.827-1.712l.632-.713-1.787-1.65Z" fill="#fff"/></svg>