<svg viewBox="0 0 32 32" xmlns="http://www.w3.org/2000/svg"><g fill="none" fill-rule="evenodd"><circle stroke="#D8D8D8" cx="16" cy="16" r="11.5"/><path d="M7.506 14.286c-.35.59-.426 1.55-.426 2.187 0 .636.077 1.597.426 2.186.395.634 1.153 1.08 2.042 1.08H22.51c.889 0 1.647-.446 2.042-1.08.35-.59.427-1.55.427-2.187 0-.636-.078-1.596-.427-2.186-.395-.633-1.153-1.08-2.042-1.08H9.55c-.89 0-1.648.447-2.043 1.08Z" fill="#008A92"/><path d="M8.275 18.588c-.497-.521-.606-1.338-.606-2.115 0-.778.109-1.595.606-2.116.315-.33.92-.576 1.438-.577h6.684v5.385H9.713c-.518 0-1.123-.248-1.438-.577Zm8.927-2.119c0-1.176.266-1.553 1.52-1.553 1.172 0 1.514.31 1.514 1.553v.138h-2.062v.033c0 .548.089.735.548.735.309 0 .545-.033.56-.36h.954c-.007.436-.16.68-.412.823-.263.142-.642.178-1.102.178-1.23 0-1.52-.406-1.52-1.547Zm3.654-1.54H23.3v.696h-.725v2.389h-.992v-2.39h-.726v-.695Zm-8.143.99c0 .611.217.897 1.53.897.12 0 .308-.007.419.04.102.044.15.131.15.29 0 .266-.1.295-.568.295-.26 0-.526-.006-.538-.348h-.993c.008.674.336.895.943.942.183.014.383.013.588.013.836 0 1.53-.136 1.53-1.02 0-.842-.45-.902-1.53-.926-.537-.012-.568-.121-.568-.294 0-.206.023-.272.568-.272.2 0 .399.018.444.26h.935v-.124c0-.733-.788-.743-1.38-.743-.887 0-1.53.02-1.53.99Zm-3.711.572c0 1.145.294 1.557 1.53 1.557.46 0 .841-.035 1.108-.18.258-.145.411-.395.416-.84h-.974c-.01.326-.237.36-.55.36-.45 0-.538-.18-.538-.726v-.023h2.062v-.148c0-1.25-.346-1.562-1.524-1.562-1.26 0-1.53.382-1.53 1.562Zm1.512-.901c.358 0 .55.034.55.512v.023h-1.07c.012-.409.097-.535.52-.535Zm7.66.523h1.09v-.033c0-.486-.2-.522-.56-.522-.437 0-.519.138-.53.555Z" fill="#FFFFFE"/></g></svg>