<svg viewBox="0 0 32 32" fill="none" xmlns="http://www.w3.org/2000/svg"><path d="M16 28c6.627 0 12-5.373 12-12S22.627 4 16 4 4 9.373 4 16s5.373 12 12 12Z" fill="#fff"/><path fill-rule="evenodd" clip-rule="evenodd" d="M3.5 16C3.5 9.096 9.096 3.5 16 3.5S28.5 9.096 28.5 16 22.904 28.5 16 28.5 3.5 22.904 3.5 16ZM16 4.5C9.649 4.5 4.5 9.649 4.5 16S9.649 27.5 16 27.5 27.5 22.351 27.5 16 22.351 4.5 16 4.5Z" fill="#D8D8D8"/><path d="M16.476 16.226c-.055-.48-.476-.835-1.02-.835-.53 0-.967.421-1.022.835h2.042Zm.57 1.445a.092.092 0 0 1 .04.062.088.088 0 0 1-.02.072c-.347.416-.838.683-1.548.683-1.162 0-1.987-.784-1.987-1.9 0-1.087.833-1.9 1.94-1.9 1.114 0 1.9.82 1.9 1.9 0 .036 0 .107-.002.165a.098.098 0 0 1-.1.093h-2.842c.039.525.53.917 1.098.917.421 0 .653-.145.851-.387a.104.104 0 0 1 .136-.022c.13.084.395.23.533.317Zm2.571-.027c-.422 0-.616-.185-.616-.601v-1.52h.44c.056 0 .1-.043.1-.096v-.563a.099.099 0 0 0-.1-.096h-.44v-.904c0-.025-.01-.05-.03-.067a.104.104 0 0 0-.07-.028h-.674c-.056 0-.1.042-.1.095v.905h-.421c-.056 0-.1.043-.1.096v.563c0 .025.01.05.029.068a.104.104 0 0 0 .07.028h.42v1.68c0 .785.48 1.255 1.274 1.255a.974.974 0 0 0 .344-.052.166.166 0 0 0 .114-.157l-.003-.523a.093.093 0 0 0-.035-.07.105.105 0 0 0-.079-.023c-.04.005-.082.009-.123.01Zm2.396 0c-.422 0-.617-.185-.617-.601v-1.52h.44c.027 0 .053-.01.072-.028a.094.094 0 0 0 .03-.068v-.563a.098.098 0 0 0-.101-.096h-.44v-.904a.098.098 0 0 0-.102-.095h-.673a.103.103 0 0 0-.072.028.093.093 0 0 0-.029.067v.905h-.42c-.055 0-.1.043-.1.096v.563c0 .025.01.05.03.068a.104.104 0 0 0 .07.028h.42v1.68c0 .785.479 1.255 1.274 1.255a.973.973 0 0 0 .343-.052.167.167 0 0 0 .114-.157l-.002-.523a.094.094 0 0 0-.035-.071.105.105 0 0 0-.08-.022c-.04.005-.081.009-.122.01ZM10.5 15.889v.543c0 .025.01.05.03.068a.103.103 0 0 0 .07.027h1.557c-.116.698-.72 1.194-1.527 1.194a1.722 1.722 0 0 1-1.744-1.718c0-.951.77-1.717 1.737-1.717.542 0 1.002.208 1.304.584a.104.104 0 0 0 .131.023l.584-.335a.086.086 0 0 0 .042-.056.082.082 0 0 0-.016-.068c-.428-.56-1.165-.934-2.038-.934C9.186 13.5 8 14.624 8 16.003c0 1.38 1.164 2.497 2.624 2.497 1.447 0 2.433-1.041 2.433-2.386v-.215c0-.025-.01-.05-.03-.068a.104.104 0 0 0-.07-.028H10.59c-.05 0-.09.039-.09.086Z" fill="#263238"/><path d="M23.465 17.426c-.225 0-.363.032-.442.124-.068.078-.093.2-.093.384 0 .193.028.318.105.396.081.082.216.111.43.111.245 0 .386-.038.461-.15.054-.078.074-.193.074-.357 0-.196-.029-.323-.108-.4-.08-.078-.216-.108-.427-.108Z" fill="#FF9D00"/></svg>