<svg xmlns="http://www.w3.org/2000/svg" viewBox="0 0 32 32" style="enable-background:new 0 0 32 32" xml:space="preserve"><path fill="#D8D8D8" d="M16 28C9.4 28 4 22.6 4 16S9.4 4 16 4s12 5.4 12 12-5.4 12-12 12zm0-23C9.9 5 5 9.9 5 16s4.9 11 11 11 11-4.9 11-11S22.1 5 16 5z"/><path fill="#E1E1E1" d="m10.8 13.2 10.6.5v7H10.8z"/><path fill="#EEE" d="m16 17.3-5.2 3.4h10.5l.1-7z"/><path fill="#D23F31" d="M10.8 12.1v8.6h-.7c-.5 0-.9-.4-.9-.9v-7.6l1.6-.1z"/><path fill="#C53929" d="M21.3 12.1h1.6v7.7c0 .5-.4.9-.9.9h-.7v-8.6z"/><path fill-opacity=".2" fill="#262626" d="M22 20.6H10.1c-.5 0-.9-.4-.9-.9v.1c0 .5.4.9.9.9l11.9-.1c.5.1.9-.3.9-.8v-.1c0 .5-.4.9-.9.9z"/><path fill="#F1F1F1" d="m10 11.2 6 4 6.2-4z"/><path fill="#DB4437" d="M16 17.3 9.7 13c-.5-.4-.6-.9-.3-1.4.3-.5.9-.6 1.4-.3l5.2 3.6 5.4-3.6c.5-.3 1.1-.2 1.4.3.3.5.2 1.1-.3 1.4L16 17.3z"/></svg>