<svg viewBox="0 0 32 32" fill="none" xmlns="http://www.w3.org/2000/svg"><path d="M16 28c6.627 0 12-5.373 12-12S22.627 4 16 4 4 9.373 4 16s5.373 12 12 12Z" fill="#fff"/><path fill-rule="evenodd" clip-rule="evenodd" d="M3.5 16C3.5 9.096 9.096 3.5 16 3.5S28.5 9.096 28.5 16 22.904 28.5 16 28.5 3.5 22.904 3.5 16ZM16 4.5C9.649 4.5 4.5 9.649 4.5 16S9.649 27.5 16 27.5 27.5 22.351 27.5 16 22.351 4.5 16 4.5Z" fill="#D8D8D8"/><path d="M16.001 13.532 13.8 9.715a.682.682 0 0 1 .241-.154c-.65.21-.947.927-.947.927l-4.024 6.971a2.013 2.013 0 0 0-.065.59h4.392L16 13.532Z" fill="#34A853"/><path d="m16.001 13.532 2.606 4.517h4.391a2.016 2.016 0 0 0-.065-.59l-4.023-6.971s-.3-.717-.948-.927c.084.033.169.08.242.154L16 13.532Z" fill="#FBBC05"/><path d="m16.001 13.532 2.203-3.817a.688.688 0 0 0-.242-.154 1.209 1.209 0 0 0-.31-.056H14.35c-.111.004-.215.025-.31.056a.688.688 0 0 0-.242.154L16 13.532Z" fill="#188038"/><path d="m13.396 18.049-2.177 3.774s-.072-.035-.17-.106c.308.233.609.283.609.283h8.55c.472 0 .57-.177.57-.177l.005-.002-2.176-3.772h-5.21Z" fill="#4285F4"/><path d="M13.396 18.049h-4.39c.021.513.248.812.248.812l.165.282.019.026.359.62.807 1.378c.023.056.05.107.08.156a1.15 1.15 0 0 1 .042.064c.1.139.212.246.323.33.099.072.171.106.171.106l2.176-3.774Z" fill="#1967D2"/><path d="M18.607 18.049h4.391c-.022.513-.248.812-.248.812l-.165.282-.02.026-.358.62-.807 1.378a1.242 1.242 0 0 1-.08.156l-.033.05-.01.014c-.1.139-.211.246-.323.33-.098.072-.17.106-.17.106l-2.177-3.774Z" fill="#EA4335"/></svg>