<svg viewBox="0 0 32 32" fill="none" xmlns="http://www.w3.org/2000/svg"><path d="M16 28c6.627 0 12-5.373 12-12S22.627 4 16 4 4 9.373 4 16s5.373 12 12 12Z" fill="#fff"/><path d="m20.823 18.423 3.15-1.747c.356-.197.73-.701 0-1.104l-3.152-1.741-2.256 2.303 2.258 2.289Z" fill="#FFE300"/><path d="m18.565 16.134-7.217 7.365c.163.021.359-.022.584-.147l8.891-4.93-2.258-2.288Z" fill="#FF4E54"/><path d="m18.565 16.134 2.256-2.303-8.889-4.912a.847.847 0 0 0-.59-.102l7.223 7.317Z" fill="#00F085"/><path d="m18.565 16.134-7.222-7.317c-.299.067-.543.329-.543.855v12.95c0 .495.192.843.548.877l7.217-7.365Z" fill="#00E0FF"/><path fill-rule="evenodd" clip-rule="evenodd" d="M16 4.542C9.672 4.542 4.542 9.672 4.542 16S9.672 27.458 16 27.458 27.458 22.328 27.458 16 22.328 4.542 16 4.542ZM3.5 16C3.5 9.096 9.096 3.5 16 3.5S28.5 9.096 28.5 16 22.904 28.5 16 28.5 3.5 22.904 3.5 16Z" fill="#D8D8D8"/></svg>