<?xml version="1.0" encoding="utf-8"?>
<!-- Generator: Adobe Illustrator 22.1.0, SVG Export Plug-In . SVG Version: 6.00 Build 0)  -->
<svg version="1.1" id="Layer_1" xmlns="http://www.w3.org/2000/svg" xmlns:xlink="http://www.w3.org/1999/xlink" x="0px" y="0px"
	 viewBox="0 0 32 32" style="enable-background:new 0 0 32 32;" xml:space="preserve">
<path d="M5.2,4c0,0.1-0.1,0.2-0.1,0.3v23.2c0,0.2,0.1,0.3,0.2,0.5l11.4-12.1L5.2,4z M17.5,16.7l3,3l-4.2,2.4c0,0-5.4,3-8.3,4.7
	L17.5,16.7z M18.3,15.9l3.2,3.3c0.5-0.3,4.4-2.5,4.9-2.8c0.6-0.3,0.5-0.8,0-1c-0.5-0.3-4.3-2.5-4.9-2.8L18.3,15.9
	C18.3,15.9,18.3,15.9,18.3,15.9z M17.5,15.1l3-3.2l-4.3-2.4c0,0-6.9-4-9.3-5.3L17.5,15.1C17.5,15.1,17.5,15.1,17.5,15.1z"/>
</svg>
