<svg viewBox="0 0 32 32" fill="none" xmlns="http://www.w3.org/2000/svg">
<path d="M16.0007 28C22.6281 28 28.0007 22.6274 28.0007 16C28.0007 9.37258 22.6281 4 16.0007 4C9.37332 4 4.00073 9.37258 4.00073 16C4.00073 22.6274 9.37332 28 16.0007 28Z" fill="#0066B3"/>
<path d="M16.4727 24.4C15.962 24.4092 15.4551 24.3111 14.9847 24.112C14.9367 24.112 13.8647 23.592 12.6647 22.864C11.4647 22.136 10.5127 21.416 10.4727 21.384C10.1209 21.0936 9.82529 20.7411 9.60071 20.344L10.2887 19.936C10.4681 20.2418 10.7012 20.5128 10.9767 20.736C10.9767 20.736 11.9287 21.464 13.0967 22.168C14.2647 22.872 15.3287 23.368 15.3447 23.376C16.0837 23.66 16.9017 23.66 17.6407 23.376C17.6407 23.376 18.7207 22.872 19.8887 22.168C21.0567 21.464 22.0007 20.744 22.0087 20.736C22.6307 20.1895 23.0412 19.4421 23.1687 18.624C23.1687 18.624 23.2967 17.392 23.2967 15.984C23.2967 14.576 23.1767 13.352 23.1687 13.344C23.0406 12.5261 22.6302 11.7789 22.0087 11.232C22.0087 11.232 21.0567 10.504 19.8887 9.80001C18.7207 9.09601 17.6007 8.61601 17.6007 8.61601C16.8617 8.33199 16.0437 8.33199 15.3047 8.61601C15.3047 8.61601 14.2247 9.12001 13.0647 9.82401C11.9047 10.528 10.9687 11.24 10.9607 11.248C10.6854 11.4714 10.4524 11.7424 10.2727 12.048L9.60071 11.656C9.82975 11.2573 10.1309 10.9047 10.4887 10.616C10.4887 10.616 11.4727 9.86401 12.6807 9.13601C13.8887 8.40801 14.9607 7.91201 15.0007 7.88801C15.9534 7.50738 17.016 7.50738 17.9687 7.88801C18.0167 7.88801 19.0807 8.40801 20.2887 9.13601C21.4967 9.86401 22.4007 10.584 22.4727 10.616C23.2697 11.2965 23.7928 12.2431 23.9447 13.28C23.9447 13.328 24.0727 14.552 24.0727 16C24.0727 17.448 23.9527 18.672 23.9447 18.72C23.7928 19.7569 23.2697 20.7035 22.4727 21.384C22.4727 21.384 21.4887 22.136 20.2807 22.864C19.0727 23.592 18.0007 24.088 17.9607 24.112C17.4903 24.3111 16.9834 24.4092 16.4727 24.4Z" fill="white"/>
<path d="M7.20068 13.6H10.4007V14.4H8.00068V18.4H7.20068V13.6Z" fill="white"/>
<path d="M13.6007 14.4C13.9171 14.4 14.2265 14.4938 14.4896 14.6696C14.7527 14.8454 14.9578 15.0953 15.0789 15.3877C15.2 15.68 15.2317 16.0018 15.1699 16.3121C15.1082 16.6225 14.9558 16.9076 14.7321 17.1313C14.5083 17.3551 14.2232 17.5075 13.9128 17.5692C13.6025 17.631 13.2808 17.5993 12.9884 17.4782C12.696 17.3571 12.4461 17.152 12.2703 16.8889C12.0945 16.6258 12.0007 16.3164 12.0007 16C12.0007 15.5756 12.1693 15.1687 12.4693 14.8686C12.7694 14.5685 13.1763 14.4 13.6007 14.4ZM13.6007 13.6C13.126 13.6 12.662 13.7407 12.2673 14.0044C11.8726 14.2682 11.565 14.643 11.3834 15.0815C11.2017 15.5201 11.1542 16.0026 11.2468 16.4682C11.3394 16.9337 11.568 17.3614 11.9036 17.697C12.2393 18.0327 12.6669 18.2613 13.1325 18.3539C13.598 18.4465 14.0806 18.3989 14.5191 18.2173C14.9577 18.0356 15.3325 17.728 15.5962 17.3333C15.8599 16.9387 16.0007 16.4747 16.0007 16C16.0007 15.3635 15.7478 14.753 15.2977 14.3029C14.8477 13.8528 14.2372 13.6 13.6007 13.6Z" fill="white"/>
<path d="M19.2008 18.4C18.8201 18.3991 18.4452 18.3077 18.1068 18.1334C17.7685 17.9591 17.4765 17.7067 17.2549 17.3973C17.0333 17.0878 16.8884 16.7301 16.8324 16.3537C16.7763 15.9772 16.8105 15.5928 16.9323 15.2322C17.054 14.8716 17.2598 14.5451 17.5327 14.2797C17.8055 14.0143 18.1375 13.8176 18.5014 13.7058C18.8652 13.594 19.2504 13.5704 19.6252 13.6368C19.9999 13.7033 20.3535 13.8579 20.6567 14.088L20.1687 14.72C19.8896 14.5106 19.5497 14.3982 19.2008 14.4C18.9435 14.4002 18.6901 14.4625 18.462 14.5815C18.2339 14.7006 18.0379 14.8728 17.8906 15.0837C17.7433 15.2946 17.649 15.538 17.6157 15.7931C17.5825 16.0482 17.6112 16.3075 17.6995 16.5491C17.7878 16.7908 17.9331 17.0076 18.123 17.1811C18.3129 17.3546 18.5419 17.4798 18.7904 17.5461C19.039 17.6123 19.2999 17.6176 19.551 17.5615C19.8021 17.5054 20.0359 17.3897 20.2328 17.224L20.7448 17.84C20.312 18.2024 19.7653 18.4007 19.2008 18.4Z" fill="white"/>
</svg>
