<svg viewBox="0 0 32 32" fill="none" xmlns="http://www.w3.org/2000/svg">
<path d="M16 28C9.36 28 4 22.64 4 16C4 9.36 9.36 4 16 4C22.64 4 28 9.36 28 16C28 22.64 22.64 28 16 28Z" fill="white"/>
<path fill-rule="evenodd" clip-rule="evenodd" d="M16 4.54167C9.67174 4.54167 4.54167 9.67174 4.54167 16C4.54167 22.3283 9.67174 27.4583 16 27.4583C22.3283 27.4583 27.4583 22.3283 27.4583 16C27.4583 9.67174 22.3283 4.54167 16 4.54167ZM3.5 16C3.5 9.09644 9.09644 3.5 16 3.5C22.9036 3.5 28.5 9.09644 28.5 16C28.5 22.9036 22.9036 28.5 16 28.5C9.09644 28.5 3.5 22.9036 3.5 16Z" fill="#D8D8D8"/>
<path fill-rule="evenodd" clip-rule="evenodd" d="M8.49296 14.7458C8.53975 14.8162 8.58639 14.8866 8.63333 14.957C8.35258 14.9482 8.05722 14.9207 8 14.7997C8.00119 14.7936 8.00238 14.7875 8.00387 14.7816C8.16154 14.7399 8.29685 14.7374 8.49296 14.7458ZM9.99099 15.3871C10.0134 15.4567 10.0364 15.526 10.0588 15.5954C10.0056 15.5976 9.95278 15.6 9.9 15.6021C9.91267 15.5313 9.92555 15.4603 9.93779 15.3895C9.95573 15.3886 9.97305 15.388 9.99099 15.3871ZM10.5333 16.908C10.3926 17.0386 10.2833 17.1258 10.1997 17.3226C10.0831 17.2271 10.0233 17.0368 9.98577 16.824C9.94516 16.5929 9.93098 16.3351 9.9 16.1426C9.90339 16.1098 9.90664 16.0771 9.90989 16.0442C9.96443 16.0401 10.019 16.0361 10.0732 16.0323C10.2116 16.2961 10.3505 16.5599 10.4893 16.824C10.504 16.8519 10.5185 16.8798 10.5333 16.908ZM10.3222 14.957C10.34 14.8381 10.3579 14.7197 10.3765 14.6011C10.3803 14.5774 10.3837 14.5535 10.3868 14.5298C10.4048 14.5289 10.4225 14.5281 10.44 14.5269C10.4003 14.6704 10.3611 14.8135 10.3222 14.957ZM10.2089 13.0215C10.4577 13.0894 10.7065 13.1574 10.9556 13.2254C10.9544 13.2367 10.9534 13.248 10.9525 13.2591C10.6048 13.5161 10.2835 13.6302 10.1111 14.0968C10.1328 13.7504 10.1548 13.4039 10.1764 13.0574C10.1871 13.0453 10.1979 13.0335 10.2089 13.0215ZM10.9063 11.9462C10.8573 12.4294 10.9257 12.6435 11.0096 12.9432C11.1427 13.0389 11.1951 13.0957 11.1518 13.2366C10.9276 13.1252 10.6908 13.0083 10.3478 13.0264C10.3392 13.0168 10.3306 13.0072 10.3222 12.9978C10.419 12.6164 10.6061 12.3824 10.7514 12.0803C10.8031 12.0355 10.8546 11.9908 10.9063 11.9462ZM11.9787 11.3034C11.9895 11.3027 12.0005 11.3018 12.0111 11.3011C11.9083 11.6574 11.8669 12.4799 11.6866 12.8064C11.2615 12.6039 11.2697 11.7268 11.7459 11.3804C11.8236 11.3546 11.9011 11.3289 11.9787 11.3034ZM11.5822 13.9444C11.7017 14.0748 11.8209 14.2051 11.9406 14.3356C11.8001 14.7709 11.5332 15.0988 11.421 15.6021C11.3501 15.5969 11.2798 15.5915 11.2088 15.5864C11.0284 15.0785 11.4808 14.2518 11.5576 13.8817C11.6682 13.8947 11.7786 13.9074 11.8894 13.9204C11.93 14.0246 11.9706 14.1288 12.0111 14.2332C11.8683 14.1369 11.7251 14.0405 11.5822 13.9444ZM12.5625 11.3011C12.5265 11.7232 12.6189 11.9418 12.6444 12.2697C12.4335 12.3769 12.222 12.4843 12.0111 12.5914C12.0642 12.0529 12.1724 11.698 12.3202 11.3192C12.4011 11.313 12.4819 11.3071 12.5625 11.3011ZM12.8087 10.6589C12.8244 10.6578 12.8402 10.6569 12.8556 10.6559C12.8324 10.7246 12.8087 10.7933 12.7842 10.8619C12.738 10.8649 12.691 10.8679 12.6444 10.871C12.6799 10.8285 12.7162 10.7858 12.7526 10.7431C12.7715 10.715 12.79 10.6871 12.8087 10.6589ZM12.8556 12.6295C12.6447 12.7601 12.4334 12.891 12.2222 13.0215C12.235 12.784 12.5357 12.4652 12.7868 12.3763C12.8061 12.3869 12.8247 12.3974 12.8443 12.408C12.8479 12.4818 12.8517 12.5557 12.8556 12.6295ZM13.2778 11.1474C13.2396 11.3655 13.2014 11.5836 13.1637 11.8017C13.1241 11.8268 13.0843 11.8515 13.0451 11.8765C13.0243 11.8999 13.0036 11.9231 12.9825 11.9462C12.8677 11.7841 12.8393 11.3871 12.8636 11.086C13.0019 11.1066 13.1398 11.1271 13.2778 11.1474ZM13.7 10.6565C13.6991 10.6637 13.6983 10.6707 13.6974 10.6777C13.6432 10.7296 13.5894 10.7815 13.5356 10.8335C13.4281 10.875 13.4146 10.8732 13.2778 10.8687C13.2963 10.7977 13.3159 10.7268 13.3352 10.6559C13.4567 10.6561 13.5785 10.6563 13.7 10.6565ZM14.1222 9.7957C14.0594 9.93893 13.9966 10.0823 13.9338 10.2258C13.715 10.2099 13.4964 10.1941 13.2778 10.1781C13.279 10.1665 13.2798 10.155 13.281 10.1433C13.5508 10.018 13.787 9.86969 14.1222 9.7957ZM13.7812 10.912C13.8044 10.8983 13.8276 10.8847 13.8509 10.871C13.8709 10.9428 13.8911 11.0143 13.9111 11.086C13.8408 11.0722 13.7702 11.0584 13.7 11.0446C13.7269 11.0004 13.7539 10.9561 13.7812 10.912ZM14.3333 11.5483C14.0819 11.6466 13.7342 11.6196 13.5332 11.7312C13.5186 11.6449 13.5039 11.559 13.4889 11.4727C13.5332 11.4156 13.5767 11.3583 13.6204 11.3011C13.8333 11.3849 14.0462 11.4692 14.2587 11.5531C14.2836 11.5516 14.3084 11.55 14.3333 11.5483ZM13.7934 11.9353C13.6978 11.9389 13.6019 11.9426 13.5067 11.9462C13.5002 11.9159 13.495 11.8855 13.4889 11.8552C13.6906 11.7727 14.0294 11.7647 14.3333 11.7312C14.2264 11.7903 14.1199 11.8494 14.0127 11.9086C13.9396 11.9174 13.8668 11.9263 13.7934 11.9353ZM14.5445 11.9352C14.3026 11.9956 14.0709 12.2096 13.9129 12.3763C13.882 12.1821 14.2544 11.8383 14.4328 11.7312C14.512 11.802 14.5203 11.7945 14.5445 11.9352ZM14.9667 9.36559C14.9657 9.37713 14.9646 9.38825 14.9635 9.39965C14.8789 9.45074 14.7942 9.50197 14.7098 9.55306C14.5843 9.56221 14.4587 9.5715 14.3333 9.58064C14.3349 9.56953 14.336 9.55798 14.337 9.54687C14.5472 9.48635 14.7572 9.42597 14.9667 9.36559ZM14.6252 10.0108C14.5983 9.97057 14.5715 9.93039 14.5445 9.89021C14.7346 9.72887 15.1555 9.81781 15.3889 9.84156C15.1342 9.89796 14.88 9.95446 14.6252 10.0108ZM16.5143 9.37738C16.8674 9.40635 17.1898 9.49036 17.4346 9.64398C17.4564 9.64253 17.4782 9.64142 17.5 9.64009C17.4871 9.65863 17.4737 9.67694 17.4608 9.69548C17.3482 9.72888 17.2356 9.76229 17.1233 9.7957C16.9206 9.76651 16.7172 9.73721 16.5143 9.70791C16.069 9.64375 15.6231 9.57949 15.1778 9.51534C15.1787 9.50635 15.1801 9.49758 15.1812 9.4887C15.6133 9.38803 16.0861 9.34208 16.5143 9.37738ZM17.9189 9.26396C17.8937 9.29784 17.8689 9.33185 17.844 9.36559C17.6164 9.34925 17.4283 9.25954 17.2889 9.15054C17.5001 9.17745 17.7109 9.20464 17.9222 9.23168C17.9212 9.24253 17.9199 9.25324 17.9189 9.26396ZM19.0433 10.059C19.1012 10.0366 19.16 10.0142 19.2185 9.9919C19.279 10.0443 19.3392 10.0971 19.4 10.1496C19.3755 10.3283 19.2032 10.4752 19.0715 10.6497C19.0377 10.6517 19.0042 10.6538 18.9703 10.6559C18.6947 10.1983 18.3474 9.69654 17.7378 9.52034C17.7289 9.50207 17.7201 9.4838 17.7111 9.46554C17.7935 9.4323 17.8753 9.39883 17.9575 9.36559C18.3713 9.51068 18.7164 9.73095 19.101 9.85813C19.1502 9.97834 19.1349 9.9378 19.0433 10.059ZM19.5528 11.0783C19.5368 11.0626 19.521 11.0465 19.5049 11.0305C19.4697 11.0327 19.4351 11.0357 19.4 11.0383C19.4578 10.9826 19.5161 10.9267 19.5748 10.871C19.5668 10.94 19.5602 11.0095 19.5528 11.0783ZM19.7389 13.4516C20.0246 13.7001 20.0976 14.0595 19.9786 14.5269C19.8561 14.2499 19.7341 13.9728 19.6111 13.6957C19.6518 13.6343 19.6914 13.5726 19.7316 13.5109C19.7341 13.4912 19.7361 13.4712 19.7389 13.4516ZM19.8222 11.5186C19.8208 11.5319 19.8202 11.5452 19.8187 11.5585C19.7689 11.616 19.7189 11.6736 19.6686 11.7312C19.6493 11.6931 19.6305 11.6548 19.6111 11.6166C19.7009 11.4545 19.6364 11.5416 19.7542 11.5244C19.7768 11.5224 19.7994 11.5202 19.8222 11.5186ZM19.9977 11.5161C20.2206 11.599 20.4443 11.6821 20.6667 11.765C20.6652 11.7874 20.6627 11.81 20.6607 11.8324C20.6044 11.8705 20.5481 11.9084 20.4918 11.9462C20.2684 11.8633 20.0456 11.7803 19.8222 11.6975C19.8244 11.6749 19.8264 11.6524 19.8284 11.63C19.8848 11.5919 19.9411 11.5539 19.9977 11.5161ZM21.3 12.3763C21.1765 12.2936 21.0529 12.2112 20.9293 12.1289C20.9119 12.0955 20.895 12.0619 20.8778 12.0287C21.0386 11.9296 21.0154 11.9346 21.1856 11.9675C21.2233 12.1038 21.2616 12.2399 21.3 12.3763ZM21.5111 12.2946C21.4866 12.3218 21.4618 12.349 21.4369 12.3763C21.3465 12.3299 21.3306 12.2705 21.3 12.1613C21.3645 12.1893 21.4289 12.2175 21.4934 12.2457C21.4995 12.262 21.5053 12.2783 21.5111 12.2946ZM21.3534 11.6796C21.3348 11.6809 21.318 11.6819 21.3 11.6834C21.3578 11.6277 21.4165 11.572 21.4756 11.5161C21.4347 11.5708 21.3931 11.6249 21.3534 11.6796ZM22.3555 12.7613C22.321 12.7764 22.2865 12.7915 22.2526 12.8064C22.0635 12.7001 21.8753 12.5939 21.6874 12.4874C21.6286 12.4073 21.5698 12.3269 21.5111 12.2465C21.8039 12.0289 21.8141 12.2807 22.0903 12.418C22.1783 12.5326 22.267 12.6471 22.3555 12.7613ZM22.5667 12.9505C22.4964 12.925 22.4261 12.8993 22.3555 12.8738C22.3979 12.8516 22.4405 12.829 22.4829 12.8064C22.5108 12.8546 22.5387 12.9026 22.5667 12.9505ZM22.3098 13.2973C22.3861 13.4521 22.3855 13.4081 22.5667 13.3854C22.4588 13.4792 22.3505 13.5729 22.2421 13.6666C22.1393 13.469 22.0364 13.2711 21.9333 13.0737C21.9344 13.0613 21.9357 13.0492 21.9372 13.0367C22.1649 12.9876 22.2385 13.0704 22.4608 13.1034C22.4895 13.1494 22.5184 13.1956 22.5471 13.2418C22.4684 13.2605 22.3892 13.2789 22.3098 13.2973ZM22.3555 13.6831C22.4962 13.6057 22.6368 13.5289 22.7778 13.4516C22.6931 13.6427 22.5834 13.7415 22.4527 13.8817C22.4206 13.8155 22.3881 13.7492 22.3555 13.6831ZM23.2 14.5039C23.0857 14.6032 23.0115 14.6353 22.7947 14.6531C22.8526 14.6593 22.911 14.666 22.9687 14.6724C22.9675 14.683 22.9664 14.6931 22.9653 14.7035C22.7673 14.7879 22.5691 14.8724 22.3706 14.957C22.3652 14.7012 22.3607 14.4456 22.3555 14.1899C22.492 14.0275 22.6293 13.8651 22.7657 13.7023C22.7911 13.6906 22.8155 13.6787 22.8405 13.6666C22.9602 13.9458 23.0806 14.2251 23.2 14.5039ZM22.9889 13.3278C24.1545 13.0007 23.9293 13.6226 23.4092 14.0968C23.2688 13.8405 23.1284 13.5839 22.9889 13.3278ZM24.0445 13.4516C23.6149 15.4802 23.5321 15.5908 22.0133 16.4623C21.987 16.4221 21.96 16.3819 21.9333 16.3415C21.9515 16.2661 21.9691 16.1907 21.987 16.1153C22.9776 15.8311 23.541 15.3101 23.4823 14.129C23.6479 13.9154 23.8132 13.7019 23.9786 13.4882C24.0007 13.476 24.0226 13.4639 24.0445 13.4516ZM24.0962 13.4516C24.0793 13.3816 24.062 13.3114 24.0445 13.2414C24.0974 13.2397 24.1502 13.2381 24.2026 13.2366C24.1671 13.3083 24.1317 13.38 24.0962 13.4516ZM21.5111 15.4242C21.5158 15.3495 21.5209 15.2748 21.526 15.2002C21.5302 15.1361 21.5342 15.072 21.5386 15.008C21.5874 14.9918 21.6365 14.9754 21.6854 14.9594C21.6923 14.9587 21.6992 14.9578 21.706 14.957C21.7472 15.2106 21.7064 15.3988 21.622 15.6021C21.5513 15.5567 21.5374 15.5373 21.5111 15.4242ZM20.6667 17.3058C20.668 17.2935 20.6689 17.2811 20.6699 17.2687C20.7625 17.0466 20.8548 16.8247 20.9469 16.6028C20.9659 16.5559 20.9857 16.509 21.0054 16.4623C21.1674 16.4734 21.3306 16.4844 21.4928 16.4954C21.5 16.5324 21.5051 16.568 21.5078 16.6028C21.5293 16.8557 21.4421 17.0583 21.3521 17.3226C21.1237 17.3168 20.8954 17.3116 20.6667 17.3058ZM20.8778 18.1693C20.8795 18.0583 20.8817 17.9473 20.8837 17.8365C20.8865 17.8085 20.8892 17.7805 20.8918 17.7527C21.0108 17.7615 21.1293 17.7705 21.248 17.7795L21.3 17.7754C21.2184 17.9111 21.1371 18.0469 21.0561 18.1828C20.9963 18.1783 20.9372 18.1738 20.8778 18.1693ZM20.6687 16.7776C20.6758 16.7739 20.683 16.7702 20.6903 16.7664C20.7467 16.7374 20.8029 16.7083 20.8592 16.6793C20.8653 16.6786 20.8715 16.6781 20.8778 16.6774C20.869 16.7071 20.8608 16.7366 20.8524 16.7665C20.8198 16.8802 20.7873 16.994 20.7546 17.1075C20.7257 17.0065 20.6958 16.9052 20.6667 16.804C20.6673 16.795 20.6678 16.7863 20.6687 16.7776ZM20.3395 17.8484C20.3078 17.8163 20.2755 17.7843 20.2445 17.7527C20.3373 17.8177 20.2767 17.7542 20.3395 17.8484ZM19.8222 17.5926C19.9407 17.5172 20.0691 17.5404 20.2445 17.5431C20.2269 17.6002 20.2099 17.6576 20.1926 17.7148C20.0482 17.7727 20.0278 17.7514 19.8635 17.7344C19.8499 17.6872 19.8365 17.6399 19.8222 17.5926ZM20.0807 18.3979C20.1355 18.527 20.1901 18.6563 20.2445 18.7854C20.1181 18.8714 19.9916 18.9571 19.8651 19.043C19.7522 18.888 19.8757 18.4516 20.0807 18.3979ZM19.6641 17.0482C19.6468 17.0495 19.6293 17.0505 19.6111 17.052C19.6346 16.9987 19.6573 16.9456 19.6804 16.8925C19.6755 16.9441 19.6696 16.9961 19.6641 17.0482ZM20.2719 17.1075C20.2631 17.1016 20.2536 17.0957 20.2445 17.0898C20.2757 17.0245 20.306 16.9591 20.3372 16.8937C20.347 16.8933 20.3578 16.8929 20.3679 16.8925C20.3968 16.9613 20.4265 17.0301 20.4555 17.099C20.3944 17.1019 20.3332 17.1047 20.2719 17.1075ZM21.7337 14.3118C21.7302 14.2877 21.7262 14.2633 21.7222 14.239C21.7778 14.1711 21.8133 14.1287 21.9088 14.0968C21.9171 14.139 21.9254 14.1815 21.9333 14.224C21.8925 14.2513 21.8513 14.2787 21.8106 14.3064C21.7848 14.3082 21.7593 14.3101 21.7337 14.3118ZM21.7222 14.837C21.6841 14.8876 21.6164 14.9161 21.5682 14.957C21.549 14.5986 21.5298 14.2402 21.5111 13.8817C21.5815 14.2004 21.6517 14.5187 21.7222 14.837ZM21.3349 16.2783C21.4747 16.2003 21.4943 16.2724 21.5111 16.4623C21.3699 16.4621 21.2298 16.4615 21.0889 16.4613C21.0912 16.439 21.0936 16.417 21.0957 16.395C21.1754 16.356 21.255 16.3172 21.3349 16.2783ZM21.1279 15.6839C21.1594 15.6567 21.1911 15.6293 21.2232 15.6021C21.2487 15.6485 21.2746 15.6948 21.3 15.741C21.288 15.7664 21.2765 15.7918 21.2641 15.8172C21.2058 15.8105 21.1475 15.8037 21.0889 15.7968C21.1021 15.7591 21.1149 15.7215 21.1279 15.6839ZM21.0889 16.2542C21.0158 16.3235 20.9423 16.3931 20.8688 16.4623C20.821 16.4544 20.7731 16.4466 20.7254 16.4384C20.7054 16.4405 20.686 16.4423 20.6667 16.4442C20.7012 16.3784 20.735 16.3129 20.7695 16.2473C20.8759 16.2496 20.9825 16.252 21.0889 16.2542ZM20.2921 16.132C20.2043 16.0703 20.268 16.0787 20.2512 16.0323C20.2647 16.0654 20.2786 16.0987 20.2921 16.132ZM20.958 15.172C20.7203 15.0482 20.4825 14.9243 20.2445 14.8004C20.2776 14.3087 20.3377 13.7437 20.2891 13.2366C20.8394 13.4374 21.3324 14.3358 20.958 15.172ZM20.4555 15.172C20.6312 15.2647 20.621 15.3504 20.8645 15.425C20.9071 15.5845 20.8423 15.6472 20.7412 15.8172C20.6552 15.8137 20.5689 15.8101 20.4826 15.8065C20.4291 15.5235 20.487 15.3608 20.4555 15.172ZM20.5039 16.5621C20.4154 16.5007 20.4787 16.5088 20.4625 16.4623C20.476 16.4959 20.4895 16.5293 20.5039 16.5621ZM21.9333 14.4923C21.934 14.4791 21.9347 14.4659 21.9354 14.4529C21.999 14.4057 22.0622 14.359 22.1257 14.3118C22.1593 14.532 22.1466 14.8985 22.0967 15.172C21.9843 15.0832 21.9636 14.7096 21.9333 14.4923ZM21.9333 15.1718C21.9764 15.1002 22.0188 15.0286 22.0608 14.957C22.0357 15.0271 22.0106 15.0974 21.9867 15.168C21.9688 15.1695 21.9513 15.171 21.9333 15.1718ZM23.1643 14.5289C23.1767 14.5282 23.1883 14.5275 23.1998 14.5269C23.21 15.3506 22.7041 15.5005 22.039 15.8105C22.0037 15.8128 21.9686 15.8152 21.9333 15.8172C22.0713 15.5296 22.2092 15.2419 22.3476 14.9543C22.6198 14.8125 22.8923 14.671 23.1643 14.5289ZM21.9132 12.9195C21.9201 12.9407 21.9268 12.962 21.9333 12.9834C21.9158 12.9962 21.898 13.0088 21.8805 13.0215C21.8275 12.9498 21.7749 12.8782 21.7222 12.8064C21.7862 12.8442 21.8499 12.8819 21.9132 12.9195ZM21.7222 13.2772C21.725 13.2647 21.726 13.2519 21.728 13.2397C21.7434 13.2386 21.7589 13.2375 21.7745 13.2366C21.8278 13.3084 21.8805 13.3801 21.9333 13.4516C21.8113 13.3927 21.7911 13.3785 21.7222 13.2772ZM21.9333 13.8268C21.8383 13.9167 21.7431 14.0068 21.6483 14.0968C21.4442 13.7997 21.2408 13.5022 21.037 13.2051C20.7734 12.9748 20.5084 12.7442 20.2445 12.5137C20.3032 12.468 20.3612 12.4221 20.4192 12.3763C20.8027 12.5432 21.4739 12.861 21.6091 13.2575C21.653 13.3865 21.5017 13.4931 21.6048 13.601C21.7271 13.7288 21.8497 13.6377 21.9333 13.8268ZM20.1516 15.172C20.1727 15.1806 20.1946 15.1891 20.2159 15.1975C20.2254 15.4041 20.2348 15.6107 20.2445 15.8172C20.2114 15.8095 20.1789 15.8019 20.1456 15.7942C20.0529 15.7254 19.9879 15.4051 20.0729 15.266C20.0989 15.2348 20.1253 15.2035 20.1516 15.172ZM19.684 16.25C19.7065 16.2492 19.7297 16.2482 19.7521 16.2473C19.7753 16.3034 19.7992 16.3594 19.8222 16.4155C19.7864 16.4297 19.7499 16.4439 19.7136 16.4581C19.6795 16.4595 19.6459 16.4609 19.6111 16.4623C19.6356 16.3916 19.6601 16.3209 19.684 16.25ZM19.4909 19.6882C19.4608 19.5838 19.4301 19.479 19.4 19.3743C19.5301 19.3364 19.6599 19.2984 19.7902 19.2603C19.8006 19.2598 19.8117 19.2589 19.8222 19.258C19.8208 19.2678 19.8197 19.2778 19.8189 19.2875C19.7096 19.4213 19.6003 19.5546 19.4909 19.6882ZM19.1889 18.828C19.2273 18.702 19.2555 18.6827 19.3252 18.6129C19.3447 18.6204 19.3645 18.628 19.3839 18.6354C19.3892 18.654 19.3946 18.6726 19.4 18.6911C19.3566 18.7339 19.3134 18.7766 19.2702 18.8196C19.2428 18.8222 19.2158 18.8252 19.1889 18.828ZM19.2882 19.043C19.2552 19.0065 19.222 18.9698 19.1889 18.9334C19.2591 18.8981 19.33 18.8631 19.4 18.828C19.3819 18.8985 19.3635 18.969 19.3451 19.0395C19.3262 19.0407 19.3072 19.0419 19.2882 19.043ZM19.0658 20.019C19.0363 19.9947 19.007 19.9705 18.9778 19.9461C18.9993 19.9448 19.0215 19.9434 19.0429 19.9421C19.1517 19.8574 19.2601 19.7728 19.3684 19.6882C19.3788 19.7745 19.3897 19.8608 19.4 19.9469C19.3173 20.0039 19.2336 20.0613 19.1504 20.1183C19.1223 20.0852 19.0943 20.0522 19.0658 20.019ZM19.0817 22.4814C18.5737 22.5033 18.2703 22.3731 17.8544 22.3364C17.6962 22.022 17.5381 21.7068 17.3799 21.3923C17.3496 21.3607 17.3192 21.3292 17.2889 21.2977C18.0865 21.2026 18.588 20.8157 19.1789 20.5484C19.3882 20.7477 19.862 21.7666 19.4447 22.2177C19.3455 22.372 19.2332 22.3872 19.0817 22.4814ZM16.8994 21.421C16.9628 21.4171 17.0266 21.4128 17.0906 21.4086C17.3781 21.6022 17.5739 21.9496 17.7111 22.2688C17.4297 22.1874 17.1479 22.1053 16.8667 22.0235C16.9293 21.8086 16.9557 21.5901 16.8994 21.421ZM16.2928 20.6092C16.6098 20.5169 16.9265 20.4254 17.2434 20.3334C17.7421 20.3825 18.2406 20.4316 18.7395 20.4804C18.7484 20.5059 18.7577 20.531 18.7667 20.5561C18.321 20.7575 17.8144 20.9273 17.3034 21.1875C16.75 21.2317 16.6169 21.0241 16.2333 20.8875C16.2535 20.7944 16.2734 20.7021 16.2928 20.6092ZM16.2333 21.6223C16.2398 21.5604 16.2459 21.4981 16.2523 21.4359C16.3735 21.4269 16.4947 21.4176 16.6164 21.4086C16.6462 21.5708 16.6782 21.6614 16.6332 21.8387C16.4999 21.7667 16.3668 21.6944 16.2333 21.6223ZM15.8111 21.9593C15.8582 21.9328 15.9055 21.9068 15.9525 21.8804C16.1259 21.765 16.2567 21.9192 16.4445 21.9797C16.4194 22.0041 16.3946 22.0289 16.3697 22.0538C16.1834 22.0224 15.9973 21.9907 15.8111 21.9593ZM16.221 21.6237C16.1752 21.6029 16.1293 21.582 16.0837 21.5607C16.0632 21.5104 16.0426 21.4591 16.0222 21.4086C16.0925 21.4131 16.1628 21.4175 16.2333 21.4218C16.2292 21.4893 16.225 21.5564 16.221 21.6237ZM15.6 21.6237C15.6705 21.6846 15.7407 21.745 15.8111 21.8055C15.8106 21.9181 15.801 21.9053 15.7758 22.0538C15.7172 21.9103 15.6588 21.7671 15.6 21.6237ZM15.0524 20.8173C15.2506 20.7569 15.5149 20.7702 15.8111 20.7634C15.719 20.8352 15.6276 20.9068 15.5354 20.9785C15.3458 20.9598 15.1562 20.9412 14.9667 20.9224C14.9953 20.8874 15.0239 20.8523 15.0524 20.8173ZM14.5445 10.0402C14.9363 9.66365 15.92 9.77616 16.1666 10.0152C16.1888 10.0134 16.2112 10.0113 16.2333 10.0094C15.9052 10.3164 15.3975 10.352 15.0856 10.6559C14.8411 10.4922 14.6389 10.3873 14.5445 10.0402ZM16.7008 10.6559C16.7562 10.7191 16.8113 10.7822 16.8667 10.8452C16.7188 10.854 16.5633 10.8628 16.4085 10.8759C16.0591 10.9057 15.7141 10.9582 15.4729 11.0839C15.4626 11.0847 15.4521 11.0853 15.4418 11.086C15.424 11.0585 15.4064 11.031 15.3889 11.0037C15.6845 10.8526 16.0071 10.7312 16.4085 10.6801C16.4919 10.6696 16.5788 10.662 16.6696 10.6581C16.6803 10.6572 16.6905 10.6564 16.7008 10.6559ZM17.5231 9.58064C17.796 9.85619 18.2039 10.0189 18.3445 10.4409C17.7712 10.1733 16.891 10.1771 16.4445 9.75159C16.8384 9.83592 17.1729 9.80462 17.5231 9.58064ZM17.7111 11.086C17.9725 11.1221 18.2336 11.1581 18.4942 11.1939C18.5151 11.1924 18.5354 11.1905 18.5555 11.1888C18.3465 11.3696 18.1372 11.5503 17.9277 11.7312C17.8291 11.5319 17.8052 11.2619 17.7111 11.086ZM18.7173 12.0058C18.6633 11.9976 18.6095 11.9892 18.5555 11.9811C18.6259 11.9695 18.6963 11.9578 18.7667 11.9462C18.7502 11.9662 18.7335 11.9862 18.7173 12.0058ZM18.5555 11.4919C18.6198 11.4284 18.6847 11.3649 18.7489 11.3011C18.7551 11.3727 18.7605 11.4443 18.7667 11.5161C18.7202 11.5058 18.6736 11.4957 18.6266 11.4852C18.6032 11.4877 18.579 11.4895 18.5555 11.4919ZM18.9386 18.6092C18.9077 18.6105 18.8766 18.6117 18.8461 18.6129C18.819 18.5879 18.7929 18.5628 18.7667 18.5379C18.787 18.5106 18.8071 18.4837 18.8278 18.4566C18.8776 18.4369 18.9275 18.4174 18.9778 18.3979C18.9644 18.4682 18.9517 18.5386 18.9386 18.6092ZM18.7704 19.0014C18.796 18.9713 18.8222 18.9415 18.8481 18.9114C18.8503 18.8835 18.8525 18.8555 18.8548 18.828C18.896 18.8936 18.9368 18.959 18.9778 19.0244C18.9071 19.0307 18.8368 19.0369 18.7667 19.043C18.7679 19.0293 18.7691 19.0153 18.7704 19.0014ZM18.6867 19.6882C18.6431 19.6355 18.5995 19.5828 18.5555 19.5303C18.6961 19.5112 18.8371 19.4922 18.9778 19.4731C18.9107 19.5427 18.8436 19.6123 18.7766 19.6819C18.7468 19.684 18.7167 19.6858 18.6867 19.6882ZM18.7667 20.3334C18.6262 20.3165 18.4856 20.2992 18.3445 20.2823C18.4434 20.2277 18.543 20.1731 18.6421 20.1183C18.6836 20.1898 18.7255 20.2615 18.7667 20.3334ZM18.4705 19.7265C18.499 19.7537 18.5271 19.7809 18.5555 19.8081C18.4537 19.8344 18.3521 19.8609 18.2498 19.8871C18.1406 19.8924 18.0315 19.8978 17.9222 19.9032C18.074 19.8316 18.2265 19.7597 18.3787 19.6882C18.4097 19.701 18.4402 19.7138 18.4705 19.7265ZM17.2889 10.4409C17.5355 10.4476 17.7962 10.5104 17.9222 10.6559C17.752 10.639 17.4464 10.6666 17.3691 10.5348C17.343 10.5034 17.3157 10.4721 17.2889 10.4409ZM17.5033 11.3011C17.6239 11.407 17.6661 11.5317 17.6441 11.7312C17.4582 11.6667 17.5067 11.4622 17.5033 11.3011ZM17.7111 12.6567C17.7134 12.6445 17.7153 12.6323 17.7177 12.6201C18.1382 12.5283 18.2293 12.6749 18.0376 12.8064C17.8721 12.7838 17.7964 12.721 17.7111 12.6567ZM18.2519 18.1828C18.2824 18.1905 18.3134 18.1982 18.3445 18.206C18.3432 18.216 18.3422 18.2257 18.3411 18.2356C18.2716 18.2896 18.2027 18.3438 18.1333 18.3979C18.1622 18.3266 18.1912 18.2559 18.2198 18.1851C18.231 18.1841 18.2414 18.1835 18.2519 18.1828ZM18.1356 12.9374C18.1879 12.8939 18.2406 12.8502 18.2929 12.8064C18.31 12.8783 18.3273 12.9498 18.3445 13.0215C18.274 13.006 18.2037 12.9905 18.1333 12.9748C18.1339 12.9623 18.1349 12.9498 18.1356 12.9374ZM18.7667 18.6881C18.5966 18.7325 18.4267 18.7771 18.2567 18.8217C18.2156 18.8238 18.1744 18.8258 18.1333 18.828C18.1343 18.8207 18.1356 18.8136 18.1367 18.8064C18.3282 18.7688 18.4505 18.7051 18.5635 18.6129C18.6229 18.6241 18.6827 18.6354 18.7422 18.6466C18.7503 18.6603 18.7586 18.6742 18.7667 18.6881ZM18.4026 18.1828C18.3832 18.143 18.3637 18.1033 18.3445 18.0637C18.3927 18.0318 18.4413 17.9996 18.4899 17.9677C18.5119 17.9798 18.5335 17.9914 18.5555 18.0032C18.5279 18.0611 18.5 18.1187 18.4721 18.1766C18.449 18.1786 18.4256 18.1807 18.4026 18.1828ZM17.0778 19.6699C17.1614 19.6046 17.2455 19.5389 17.329 19.4731C17.5885 19.4955 17.8475 19.5179 18.1071 19.5403C18.116 19.5596 18.1245 19.5791 18.1333 19.5982C17.9584 19.6999 17.7831 19.8016 17.608 19.9032C17.4132 19.8712 17.2445 19.784 17.1436 19.6653C17.1218 19.667 17.0998 19.6684 17.0778 19.6699ZM16.6869 19.6882C16.8171 19.7599 16.9477 19.8315 17.0778 19.9032C16.8667 19.866 16.6555 19.8284 16.4445 19.7913C16.5254 19.7571 16.606 19.7227 16.6869 19.6882ZM16.6555 20.1272C16.6546 20.1449 16.6537 20.1619 16.6529 20.1793C16.6125 20.2016 16.5727 20.224 16.5326 20.2466C16.5029 20.25 16.4739 20.2543 16.4445 20.2578C16.4454 20.2406 16.4468 20.2234 16.4477 20.2062C16.5398 20.0832 16.5241 20.1243 16.6555 20.1272ZM15.6601 11.3749C15.6403 11.3534 15.6202 11.332 15.6 11.3107C15.8094 11.1956 16.1404 11.1413 16.4658 11.1147C16.7338 11.0929 16.9978 11.0896 17.1864 11.086C17.2206 11.301 17.2549 11.5161 17.2889 11.7312C17.0135 11.7007 16.7496 11.6647 16.4658 11.6515C16.2385 11.6411 15.9986 11.6452 15.7296 11.6786C15.707 11.5773 15.6837 11.476 15.6601 11.3749ZM15.9706 20.0046C15.9879 20.0349 16.005 20.0651 16.0222 20.0953C16.0057 20.1597 15.9891 20.2242 15.9725 20.2885C15.7781 20.3035 15.5837 20.3183 15.3889 20.3334C15.4514 20.1413 15.5447 20.0492 15.645 19.9032C15.7535 19.937 15.8619 19.9708 15.9706 20.0046ZM15.2508 19.258C14.9857 19.2434 14.6217 19.048 14.5445 18.828C14.8261 18.9001 15.1072 18.9722 15.3889 19.0441C15.343 19.1155 15.2971 19.1868 15.2508 19.258ZM15.5474 19.2466C15.4945 19.2507 15.4419 19.2543 15.3889 19.258C15.3906 19.2414 15.3929 19.2243 15.3944 19.2071C15.4531 19.1525 15.5111 19.0973 15.5698 19.043C15.5622 19.1111 15.5548 19.1787 15.5474 19.2466ZM14.9667 11.3824C15.0524 11.3554 15.1377 11.3281 15.2235 11.3011C15.2786 11.3704 15.3339 11.4399 15.3889 11.5094C15.3308 11.5116 15.2735 11.5138 15.2155 11.5161C15.1328 11.4716 15.0495 11.427 14.9667 11.3824ZM14.9634 20.6159C14.9501 20.6627 14.9369 20.7098 14.9236 20.7568C14.903 20.7585 14.8825 20.7608 14.8622 20.7634C14.8267 20.6916 14.7911 20.6197 14.7555 20.5484C14.8261 20.5556 14.8961 20.5628 14.9667 20.5702C14.9656 20.5853 14.9642 20.6005 14.9634 20.6159ZM15.0808 19.6882C15.2452 19.7215 15.4092 19.7551 15.5732 19.7884C15.5822 19.8106 15.5911 19.8331 15.6 19.8554C15.4724 20.0148 15.3451 20.1738 15.2174 20.3334C15.0639 20.3106 14.9097 20.2877 14.7555 20.265C14.8642 20.0728 14.9725 19.8804 15.0808 19.6882ZM18.7667 12.9486C18.7984 12.9017 18.8302 12.8548 18.862 12.8079C18.8737 12.8074 18.8848 12.8069 18.8966 12.8064C18.985 12.8288 19.0731 12.8512 19.1615 12.8735C19.1705 12.8861 19.1798 12.8989 19.1889 12.9115C19.0901 12.9481 18.9913 12.9849 18.8922 13.0215C18.8505 12.9972 18.8085 12.9729 18.7667 12.9486ZM19.3375 12.2535C19.2881 12.2228 19.2392 12.1923 19.1889 12.1613C19.3405 12.2172 19.2533 12.1546 19.3375 12.2535ZM19.2899 13.2366C19.2559 13.2078 19.2224 13.1791 19.1889 13.1502C19.2592 13.1072 19.3295 13.0643 19.4 13.0215C19.3632 13.093 19.3263 13.1649 19.2899 13.2366ZM19.1889 14.742C19.2982 14.7692 19.4078 14.7964 19.5171 14.8237C19.6053 14.8583 19.6033 14.8677 19.6111 14.957C19.47 14.9026 19.2341 14.8652 19.1889 14.742ZM19.2209 14.1561C19.2359 14.1363 19.2514 14.1166 19.2663 14.0968C19.3111 14.1686 19.3556 14.2402 19.4 14.3118C19.3297 14.2981 19.2592 14.2844 19.1889 14.2706C19.1996 14.2325 19.2102 14.1943 19.2209 14.1561ZM14.9448 21.2317C14.952 21.2507 14.9593 21.2695 14.9667 21.2883C14.8719 21.3247 14.7769 21.3613 14.6823 21.3977C14.6365 21.4012 14.5905 21.405 14.5445 21.4086C14.5453 21.3989 14.5461 21.3892 14.5474 21.3793C14.5797 21.3283 14.6117 21.2774 14.6444 21.2265C14.7791 21.164 14.7821 21.2048 14.9448 21.2317ZM14.3333 10.4409C14.5178 10.578 14.565 10.7483 14.5369 11.3011C14.4153 11.1447 14.3421 10.8143 14.3333 10.4409ZM14.4549 10.0108C14.4495 10.063 14.4442 10.1146 14.4389 10.1665C14.4037 10.1692 14.3684 10.1716 14.3333 10.1742C14.3732 10.1198 14.4142 10.0656 14.4549 10.0108ZM14.3333 10.2258C14.3279 10.2776 14.3233 10.3295 14.3173 10.3813C14.2526 10.369 14.1869 10.357 14.1222 10.3449C14.1757 10.3067 14.2294 10.268 14.2829 10.2297C14.2997 10.2282 14.3169 10.2271 14.3333 10.2258ZM14.3333 22.6989C14.3678 22.3339 14.4029 21.9689 14.4377 21.604C14.6843 21.5387 14.9312 21.4737 15.1778 21.4086C14.9184 21.8259 14.6593 22.2429 14.3998 22.6596C14.3777 22.6728 14.3554 22.6862 14.3333 22.6989ZM14.3855 19.7562C14.4236 19.7334 14.4613 19.7107 14.499 19.6882C14.6026 19.812 14.5097 19.9896 14.4126 20.1183C14.3307 20.0413 14.3218 19.9938 14.3434 19.8196C14.3574 19.7985 14.3717 19.7772 14.3855 19.7562ZM13.7 19.6511C13.7812 19.5203 13.8624 19.3892 13.9432 19.258C14.0734 19.3347 14.2036 19.4113 14.3333 19.4881C14.1997 19.6983 14.0651 19.908 13.9303 20.1183C13.809 20.0101 13.7348 19.8506 13.7 19.6511ZM13.7 21.3351C13.8293 21.2162 13.9594 21.0974 14.0889 20.9785C14.1504 20.9841 14.212 20.9896 14.2732 20.995C14.2932 21.0285 14.3129 21.062 14.3333 21.0956C14.3174 21.1999 14.3022 21.3043 14.2867 21.4086C14.091 21.384 13.8957 21.3597 13.7 21.3351ZM13.0667 21.0433C13.2212 20.95 13.3764 20.8568 13.5309 20.7634C13.6491 20.782 13.7666 20.8006 13.8845 20.8193C13.8931 20.8355 13.9024 20.8518 13.9111 20.8683C13.787 20.9767 13.6631 21.0851 13.5393 21.1936C13.3531 21.1741 13.2297 21.1244 13.1328 21.0395C13.1104 21.0407 13.0883 21.042 13.0667 21.0433ZM13.0051 20.6277C13.0619 20.6011 13.1184 20.5748 13.1746 20.5484C13.1988 20.5537 13.2231 20.5589 13.2475 20.5641C13.2576 20.576 13.2677 20.5878 13.2778 20.5995C13.1142 20.6543 12.9496 20.7089 12.7859 20.7634C12.7389 20.7469 12.6919 20.7301 12.6444 20.7137C12.765 20.6849 12.8853 20.6563 13.0051 20.6277ZM12.4333 20.4257C12.4747 20.325 12.5162 20.2242 12.5573 20.1233C12.7888 20.093 12.843 20.2077 13.0161 20.2802C13.0325 20.3056 13.0497 20.3312 13.0667 20.3568C12.9805 20.4162 12.8943 20.4752 12.8082 20.5345C12.7382 20.5392 12.6684 20.5438 12.5983 20.5484C12.5434 20.5076 12.4887 20.4667 12.4333 20.4257ZM12.0111 21.3083C12.1134 21.1268 12.2159 20.945 12.3182 20.7634C12.5223 20.7631 12.5468 20.7803 12.631 20.8886C12.6679 20.9513 12.6361 20.9177 12.5546 20.9317C12.548 20.9943 12.5422 21.0566 12.5357 21.1195C12.6426 21.1361 12.7492 21.1525 12.8556 21.1695C12.7929 21.3264 12.7829 21.3057 12.6875 21.4057C12.3733 21.4228 12.231 21.3622 12.0111 21.3083ZM11.6555 20.5484C11.8344 20.6027 12.0131 20.6568 12.1923 20.7108C12.2021 20.732 12.2119 20.7537 12.2222 20.7751C12.1071 20.9146 11.9924 21.0542 11.8776 21.1936C11.7109 21.1385 11.5441 21.0835 11.3778 21.0288C11.4703 20.8688 11.5631 20.7086 11.6555 20.5484ZM9.5875 19.9672C9.58985 19.9457 9.59193 19.9245 9.59441 19.9032C9.69418 19.9805 9.79421 20.0579 9.89384 20.1351C9.90258 20.1554 9.91119 20.176 9.9198 20.1965C9.29654 20.6794 10.2494 22.255 11.3338 21.2344C11.4892 21.2972 11.6443 21.3596 11.8 21.4222C11.6205 21.7437 11.3126 21.8702 10.9883 22.0514C10.2128 22.1163 9.12778 20.8445 9.5875 19.9672ZM10.3107 20.1874C10.3147 20.2361 10.3184 20.2845 10.3222 20.3334C10.2646 20.2896 10.2073 20.2464 10.15 20.2028C10.1368 20.1747 10.1241 20.1464 10.1111 20.1183C10.1777 20.1414 10.2442 20.1645 10.3107 20.1874ZM11.3778 21.1007C11.2492 21.2008 11.1204 21.3009 10.9916 21.4005C10.2325 21.4808 9.9248 20.9526 9.9 20.3034C9.94947 20.2434 9.99841 20.1834 10.0477 20.1232C10.0695 20.1217 10.0913 20.1198 10.113 20.1183C10.4955 20.421 10.8334 20.8826 11.3523 21.0354C11.3605 21.0573 11.3692 21.079 11.3778 21.1007ZM10.6421 17.9677C10.5729 17.9169 10.5686 17.8927 10.5333 17.8077C10.5818 17.624 10.6299 17.4399 10.6781 17.2562C10.7344 17.2067 10.7907 17.1569 10.8469 17.1075C10.8832 17.161 10.9197 17.2142 10.9556 17.2673C10.8512 17.5009 10.7466 17.7342 10.6421 17.9677ZM10.5333 18.1538C10.6444 17.8901 10.7554 17.6264 10.8667 17.3628C10.8897 17.3492 10.9124 17.336 10.9349 17.3226C11.0881 17.5943 11.3102 17.7174 11.3778 18.0865C11.2107 18.2619 11.0434 18.4373 10.8763 18.6129C10.7208 18.4985 10.6123 18.349 10.5333 18.1538ZM11.1667 18.8113C11.308 18.6734 11.449 18.5356 11.5903 18.3979C11.6599 18.5411 11.73 18.6845 11.8 18.828C11.589 18.8221 11.378 18.8168 11.1667 18.8113ZM12.2222 14.4659C12.022 14.8954 11.7561 15.187 11.5966 15.6021C11.5272 15.2247 11.9467 14.6823 12.0819 14.349C12.1033 14.3366 12.1248 14.3244 12.1461 14.3118C12.1716 14.3632 12.1968 14.4144 12.2222 14.4659ZM12.2222 13.2832C12.5358 13.1854 12.7466 13.0064 12.9716 12.8064C13.0032 12.9022 13.0351 12.9981 13.0667 13.0938C12.9777 13.213 12.8891 13.3325 12.8002 13.4516C12.6074 13.3956 12.4149 13.3393 12.2222 13.2832ZM13.2778 13.3049C13.2397 13.3537 13.2015 13.4028 13.1634 13.4516C13.1313 13.4463 13.099 13.4407 13.0667 13.4353L13.069 13.4119C13.1331 13.3534 13.1971 13.2951 13.2607 13.2366C13.2662 13.2594 13.2722 13.2821 13.2778 13.3049ZM13.1114 12.3785C13.1225 12.3777 13.1336 12.3771 13.1447 12.3763C13.189 12.4703 13.2335 12.5642 13.2778 12.6579C13.2609 12.7077 13.2438 12.7571 13.2272 12.8064C13.0344 12.7048 13.0421 12.5845 13.1114 12.3785ZM13.0724 18.6129C13.137 18.6596 13.202 18.7062 13.2672 18.7531C13.2001 18.7234 13.1336 18.694 13.0667 18.665C13.0681 18.6473 13.07 18.6299 13.0724 18.6129ZM13.069 18.828C13.1387 18.8583 13.2082 18.8885 13.2778 18.919C13.2765 18.9275 13.2754 18.9361 13.2744 18.945C13.1255 19.0493 12.9758 19.1538 12.8268 19.258C12.6979 19.2004 12.6821 19.0847 12.6444 18.9577C12.6455 18.9489 12.6467 18.9403 12.6477 18.9316C12.7882 18.8968 12.9288 18.8625 13.069 18.828ZM12.4439 18.3979C12.5109 18.425 12.5774 18.4518 12.6444 18.4789C12.6086 18.5 12.5732 18.5211 12.5372 18.542C12.5024 18.546 12.4679 18.5497 12.4333 18.5536C12.4365 18.502 12.4401 18.4499 12.4439 18.3979ZM12.4333 14.0968C12.6869 14.1692 12.6067 14.121 12.6178 14.3118C12.5011 14.2436 12.4931 14.2108 12.4333 14.0968ZM12.4333 17.9383C12.439 17.8763 12.4451 17.8148 12.4509 17.7527C12.5492 17.8214 12.5829 17.8623 12.6444 17.9677C12.5737 17.9578 12.5035 17.948 12.4333 17.9383ZM12.8556 15.2526C12.7764 15.3553 12.7797 15.3268 12.6444 15.3871C12.6753 15.3155 12.7061 15.2437 12.7371 15.172C12.7767 15.199 12.8163 15.2257 12.8556 15.2526ZM12.8556 14.388C12.8114 14.4342 12.7673 14.4805 12.7231 14.5269C12.5902 14.4512 12.6532 14.4814 12.7127 14.3423C12.739 14.3323 12.7653 14.322 12.792 14.3118C12.8135 14.3372 12.8347 14.3625 12.8556 14.388ZM12.8387 14.022C12.7741 13.9753 12.709 13.9286 12.6444 13.8817C12.7941 13.9391 12.7595 13.9041 12.8387 14.022ZM12.4333 17.9677C12.5038 18.0243 12.5739 18.0807 12.6444 18.1368C12.5363 18.134 12.479 18.1107 12.4333 17.9677ZM13.0667 17.9596C13.0382 17.9623 13.0094 17.965 12.9807 17.9677C12.9561 17.922 12.9314 17.8764 12.9069 17.8306C12.8897 17.8084 12.8725 17.7859 12.8556 17.7635C12.8936 17.7598 12.9317 17.7561 12.9699 17.7527C13.0021 17.8217 13.0342 17.8907 13.0667 17.9596ZM12.9501 13.9777C12.9187 13.9454 12.8868 13.9136 12.8556 13.8817C12.9484 13.9469 12.8868 13.8832 12.9501 13.9777ZM12.9634 17.5191C12.9276 17.444 12.8914 17.3692 12.8556 17.2941C12.8707 17.2324 12.886 17.1711 12.9013 17.1094C12.9101 17.1088 12.9189 17.1082 12.9279 17.1075C12.974 17.2508 13.0205 17.3942 13.0667 17.5377C13.0326 17.5314 12.9982 17.5253 12.9634 17.5191ZM12.4102 20.0213C12.418 20.031 12.4256 20.0405 12.4333 20.0501C12.4081 20.1446 12.3829 20.2391 12.3577 20.3334C12.2023 20.271 12.0433 20.1096 12.0111 19.9032C12.1444 19.9426 12.2772 19.9817 12.4102 20.0213ZM11.8 20.3334C11.8706 20.3959 11.9406 20.4587 12.0111 20.5215C11.8761 20.462 11.8678 20.4645 11.8 20.3334ZM12.1644 18.4271C12.1726 18.4891 12.1817 18.5512 12.1899 18.6129C12.1302 18.5411 12.0709 18.4696 12.0111 18.3979C12.062 18.4075 12.1129 18.4174 12.1644 18.4271ZM11.9557 19.4326C11.9037 19.3028 11.8516 19.1729 11.8 19.043C11.9843 19.1144 12.1288 19.3269 12.2222 19.4731C12.1336 19.4595 12.0446 19.4462 11.9557 19.4326ZM12.1216 15.6038C12.1389 15.6031 12.1568 15.6026 12.1741 15.6021C12.1226 15.6738 12.0715 15.7454 12.0198 15.8172C11.9943 15.7642 12.0251 15.7132 12.111 15.6509C12.1142 15.6351 12.118 15.6195 12.1216 15.6038ZM12.0111 17.4523C11.9971 17.4807 11.9829 17.509 11.9688 17.5377C11.9283 17.506 11.8881 17.4747 11.8475 17.4431C11.8317 17.4089 11.8157 17.3748 11.8 17.3408C11.8553 17.3347 11.9102 17.3287 11.9655 17.3226C11.9808 17.3658 11.996 17.4089 12.0111 17.4523ZM10.5333 19.258C10.9566 19.5348 11.6751 19.7912 11.8 20.3334C11.3095 20.099 10.8314 19.6772 10.5333 19.258ZM11.6304 19.0504C11.6869 19.1196 11.7436 19.1888 11.8 19.258C11.6593 19.1864 11.5184 19.1147 11.3778 19.043C11.4621 19.0454 11.5465 19.0479 11.6304 19.0504ZM13.1763 19.6882C13.0695 19.5803 12.9625 19.4721 12.8556 19.364C13.0424 19.1853 13.2297 19.0069 13.4166 18.828C13.4407 19.0246 13.4649 19.2212 13.4889 19.4178C13.3847 19.5078 13.2806 19.5981 13.1763 19.6882ZM13.4889 20.0476C13.5078 20.0008 13.5262 19.9541 13.5449 19.9074C13.5697 19.9059 13.5942 19.9045 13.6194 19.9032C13.6464 19.9749 13.6731 20.0465 13.7 20.1183C13.6297 20.0947 13.5591 20.0712 13.4889 20.0476ZM13.7735 19.258C13.749 19.1864 13.7247 19.1148 13.7 19.043C13.7515 19.0526 13.8028 19.0619 13.853 19.0716C13.8269 19.1336 13.8001 19.196 13.7735 19.258ZM13.4889 12.0165C13.4895 12.0103 13.4901 12.0041 13.491 11.9977C13.5608 11.9805 13.6302 11.9635 13.7 11.9462C13.6513 12.0179 13.6025 12.0896 13.554 12.1613C13.5323 12.1131 13.5105 12.0648 13.4889 12.0165ZM11.3605 16.4623C11.2957 16.3188 11.2311 16.1755 11.1667 16.0323C11.4147 16.0869 11.375 16.2644 11.3605 16.4623ZM10.8432 16.6774C10.6629 16.5513 10.5475 16.3013 10.5333 16.0323C10.9036 16.1204 10.8836 16.2669 10.9556 16.6065C10.9181 16.6301 10.8807 16.6538 10.8432 16.6774ZM10.625 15.5553C10.3559 15.2997 10.7482 14.2756 10.9207 14.0402C11.0114 13.9244 11.1263 13.9265 11.2779 13.8817C11.3113 13.8903 11.3442 13.8992 11.3778 13.9078C11.1242 14.3592 10.9526 14.9735 10.892 15.6021C10.803 15.5863 10.7142 15.5708 10.625 15.5553ZM10.2311 19.043C10.2741 19.1156 10.3172 19.1882 10.3602 19.2611C10.322 19.3513 10.2833 19.4414 10.2447 19.5316C10.2224 19.5553 10.2004 19.5787 10.1784 19.6023C10.2725 19.6157 10.2936 19.534 10.4356 19.4182C10.7087 19.8646 11.1274 20.2906 11.5889 20.5334C11.505 20.6816 11.4205 20.83 11.3367 20.9785C11.0823 20.8139 10.8287 20.6494 10.5744 20.4849C10.4869 20.3224 10.6075 20.136 10.4672 20.0365C10.3404 19.9464 10.1764 20.0767 10.0473 20.0375C9.92789 19.9274 9.80827 19.8173 9.68889 19.7073C9.79392 19.471 9.89534 19.2393 10.104 19.1185C10.1465 19.0932 10.1886 19.068 10.2311 19.043ZM9.50102 16.6718C9.52774 16.4602 9.57335 16.2416 9.62495 16.0348C9.63463 16.034 9.64407 16.0332 9.65375 16.0323C9.69037 16.2455 9.727 16.4586 9.76386 16.6718C9.78309 16.7832 9.80198 16.8946 9.82121 17.0059C9.9881 17.4698 10.1551 17.934 10.3222 18.3979C9.92153 18.1774 9.6731 17.6682 9.70868 16.9834C9.6124 17.2045 9.69256 17.552 9.72423 17.7465C9.47741 17.5368 9.44574 17.1197 9.50102 16.6718ZM9.13506 16.8925C9.09849 16.8168 9.07467 16.7328 9.06349 16.6334C9.05157 16.5312 9.05326 16.4131 9.06734 16.2717C9.07924 16.2458 9.09139 16.2203 9.10355 16.1947C9.15804 16.1406 9.21241 16.0865 9.26667 16.0323C9.23599 16.2326 9.20532 16.4331 9.17452 16.6334C9.16153 16.7199 9.14817 16.806 9.13506 16.8925ZM23.8333 19.043C23.6927 18.9886 23.5521 18.9341 23.4111 18.8795C23.5478 18.8624 23.6843 18.845 23.8209 18.828C23.8248 18.8996 23.8291 18.9714 23.8333 19.043ZM12.6611 22.5432C12.6979 22.5232 12.7352 22.5034 12.772 22.4839C12.7299 22.555 12.6867 22.6273 12.6444 22.6985C12.6499 22.6469 12.6556 22.5948 12.6611 22.5432ZM9.47778 15.172C9.418 15.1661 9.35797 15.1603 9.29769 15.1544C9.0743 15.0811 8.86348 14.8187 8.84445 14.5269C9.18728 14.5579 9.30319 14.7209 9.47265 14.9201C9.47436 15.004 9.47632 15.088 9.47778 15.172ZM9.45287 15.1541C9.47741 14.6901 9.12474 14.4004 8.66693 14.4129C8.74546 13.7605 9.30943 13.4274 9.81236 13.2083C9.84475 13.2059 9.87662 13.2034 9.90901 13.201C9.82469 14.0195 9.8887 14.7244 9.58422 15.4323C9.35943 15.9541 8.56256 15.9443 8.60613 16.7484C8.60716 16.7702 8.60883 16.7929 8.6114 16.8161C8.72502 17.886 9.88318 18.1037 10.0434 19.0446C8.32684 19.9216 10.4193 23.6089 11.7771 21.443C12.0201 21.4781 12.237 21.5892 12.5394 21.4822C12.6799 21.4041 12.7078 21.3408 12.7624 21.1779C12.924 21.2619 13.0859 21.3458 13.2475 21.4298C13.256 21.4502 13.2645 21.4711 13.2732 21.4918C12.8282 21.8383 12.5148 22.3138 12.0374 22.6393C12.0523 22.5954 12.0676 22.5511 12.0829 22.5076C12.041 22.5003 11.9994 22.4925 11.9575 22.4851C11.9351 22.4975 11.9122 22.5099 11.8897 22.5222C11.8689 22.6194 11.8486 22.7173 11.8275 22.8144C12.1 23.094 12.9268 22.082 13.169 21.8832C13.0318 22.3645 12.6938 22.6118 12.506 23.052C12.525 23.072 12.5446 23.0921 12.5639 23.1119C12.9204 22.8551 13.3576 22.1289 13.4241 21.5763C13.6018 21.6058 13.7799 21.6353 13.958 21.6649C13.2886 22.5745 11.5693 24.5744 10.6656 25.108C10.8025 24.674 11.0223 24.3426 11.1326 23.986C11.1109 23.9875 11.0894 23.9888 11.0683 23.9906C11.049 23.9705 11.0296 23.9506 11.0102 23.9308C10.7906 24.3661 10.4277 24.6713 10.3631 25.2583C10.409 25.3299 10.458 25.3686 10.5073 25.4075C11.5823 25.2272 13.3767 22.513 14.2345 21.772C14.0025 24.113 12.7537 24.4785 11.6707 25.897C12.6547 25.4037 13.2519 24.1452 14.0943 23.4459C14.0011 24.4248 13.7694 26.6118 13.1862 27C13.2183 26.9973 13.2505 26.9953 13.2828 26.9929C13.9361 26.5845 13.9746 24.9052 14.1923 24.0466C14.2232 23.7454 14.2542 23.4447 14.2851 23.1443C14.5963 22.7049 14.9075 22.2657 15.2187 21.8271C15.2415 21.8148 15.2638 21.8022 15.2864 21.7902C15.3908 22.1195 15.8635 22.4766 16.3757 22.3808C16.4984 22.329 16.6207 22.2774 16.7427 22.2258C17.0506 22.3415 17.3579 22.457 17.6651 22.5728C17.7861 23.9057 17.7396 24.6531 16.8999 25.6684C17.7579 25.2277 18.0733 23.5291 17.7876 22.6278C19.7831 22.8601 19.7033 22.1832 19.3244 20.7226C19.4414 20.7242 19.5584 20.7264 19.6755 20.7285C19.6111 20.6308 19.4359 20.7034 19.3023 20.6284C19.2416 20.589 19.2536 20.5964 19.2156 20.5387C19.6904 20.0007 20.8326 20.535 20.5935 21.4278C20.9213 20.6872 20.1957 20.0293 19.4964 20.2939C19.795 19.9383 20.1567 19.6461 20.3458 19.1753C20.3687 19.1628 20.3909 19.1504 20.4138 19.1382C20.9609 19.7159 21.5088 20.2939 22.0562 20.8714C22.0881 20.8691 22.1206 20.8666 22.1529 20.8643C22.1778 20.8305 22.2023 20.7967 22.2269 20.7627C21.7056 20.1407 21.1834 19.5179 20.662 18.8959C20.7177 18.8702 20.7735 18.8448 20.8299 18.8192C20.9203 18.733 21.0196 18.7044 21.1192 18.7179C21.0901 18.7034 21.0622 18.6893 21.036 18.6761C21.8752 18.7608 22.946 19.4632 23.8213 19.2369C23.9021 19.096 23.9056 19.0194 23.8571 18.8823C24.7893 18.906 26.4664 18.5925 27 18.1372C25.5663 18.4402 23.9501 18.5428 22.6328 18.3656C22.2435 18.3199 21.8547 18.2741 21.4656 18.2284C21.444 18.23 21.4225 18.2314 21.4006 18.2332C21.5052 18.0443 21.6098 17.855 21.7145 17.666C22.677 17.6482 25.1995 17.6238 25.7097 17.0175C25.6722 16.9671 25.6347 16.9163 25.5974 16.8659C25.4506 16.8448 25.3036 16.8238 25.1571 16.8026C25.1192 16.8589 25.1139 16.9126 25.1078 16.9664C25.2242 16.979 25.3397 16.9916 25.4555 17.0044C24.6994 17.1959 22.5933 17.5997 21.9054 17.3639C21.8331 17.2759 21.8865 16.9695 21.8898 16.7487C21.8908 16.705 21.8895 16.6645 21.8851 16.6298C22.8734 16.3329 23.6073 15.6652 23.9081 14.6563C24.0803 14.0795 23.9661 13.3208 24.3379 12.9611C24.5755 12.982 24.6233 13.0825 24.7977 13.1509C24.7053 13.0221 24.5738 12.9507 24.409 12.8918C24.3054 12.9635 24.2025 13.0351 24.0996 13.1066C23.8165 13.2167 23.5203 12.9289 23.0406 13.1534C22.651 12.8185 22.4309 12.2888 21.9047 12.0863C21.8865 12.0555 21.8682 12.0249 21.8503 11.9943C22.0635 11.7863 22.2761 11.5787 22.4894 11.371C22.2797 11.5466 22.0669 11.7544 21.8537 11.962C21.7115 11.8979 21.5686 11.8338 21.4258 11.77C21.4178 11.749 21.4092 11.7286 21.4006 11.7078C21.8879 11.3609 22.3206 11.2322 22.8756 11.3425C22.9018 11.3937 22.929 11.445 22.9556 11.4964C22.9297 11.5411 22.9068 11.5532 22.8846 11.5656C22.8225 11.5489 22.7598 11.5323 22.6978 11.5153C22.7783 11.5629 22.8621 11.578 22.9456 11.5931C22.969 11.5699 22.9928 11.5469 23.0161 11.5239C23.0197 11.4915 23.0231 11.4595 23.0267 11.4271C22.9055 11.3186 22.8685 11.2405 22.6309 11.2326C22.6687 11.1763 22.7065 11.1203 22.7445 11.0643C22.472 11.2521 21.9201 11.3023 21.649 11.4655C21.8575 11.3006 22.0661 11.1358 22.2747 10.9711C22.2994 10.9374 22.3242 10.9035 22.3492 10.8698C21.9633 11.1008 21.5777 11.3322 21.192 11.5635C20.945 11.5461 20.6823 11.4302 20.5491 11.2912C20.5278 11.2928 20.5066 11.2944 20.4846 11.296C20.9429 10.9848 21.4006 10.6735 21.8583 10.3625C21.8508 10.3309 21.8436 10.2995 21.8363 10.268C21.3149 10.5733 20.7938 10.8785 20.273 11.1839C20.1066 11.1428 19.9405 11.1019 19.7745 11.0607C19.7897 10.9104 19.8053 10.76 19.8206 10.6096C21.014 9.668 22.2076 8.72635 23.4008 7.78483C23.4219 7.7831 23.4436 7.78163 23.4651 7.78016C23.4478 7.73871 23.4308 7.69728 23.414 7.65583C23.2811 7.59207 22.7364 8.03629 22.5306 8.1693C21.7381 8.68037 21.0371 9.31615 20.2573 9.77762C20.5792 9.36682 21.1687 8.95775 21.2658 8.35913C21.2134 8.35245 21.1604 8.34562 21.1079 8.33894C21.0266 8.40886 20.945 8.47904 20.8628 8.54909C20.9522 8.51046 21.0413 8.47196 21.1302 8.43319C20.9575 8.95962 20.1756 9.90167 19.7353 10.2002C19.718 10.1586 19.7011 10.1176 19.6841 10.076C19.9709 9.59046 20.2535 8.93877 20.1206 8.31622C20.0403 8.26889 19.9598 8.22157 19.8795 8.17411C19.7938 8.18066 19.708 8.18708 19.622 8.19336C19.7871 8.259 19.899 8.27518 20.0202 8.35565C20.098 8.95922 19.802 9.36722 19.643 9.85515C19.62 9.86745 19.5978 9.87975 19.5751 9.89232C19.4687 9.69527 19.4755 9.59982 19.2576 9.56386C19.251 9.52175 19.2448 9.47951 19.2387 9.43726C19.288 9.36949 19.3378 9.30211 19.3873 9.23447C19.4217 9.21041 19.4559 9.18648 19.4904 9.16269C19.5252 9.22832 19.5268 9.20519 19.5381 9.31909C19.5758 9.26308 19.5812 9.20934 19.5865 9.15547C19.5463 9.13729 19.5053 9.11897 19.4649 9.10079C19.3571 9.21522 19.2497 9.32992 19.1422 9.44448C18.8722 9.26308 18.576 9.07299 18.1973 9.00294C18.4115 8.5547 19.0644 7.83523 18.727 7.26816C18.3161 6.5785 16.9122 7.37363 16.3982 7.92065C16.3293 7.99445 16.2759 8.06369 16.2436 8.12439C16.2764 8.09765 16.3294 8.05567 16.3982 8.00434C16.9054 7.62389 18.2567 6.71432 18.5494 7.44141C18.8564 7.8474 18.2682 8.62823 18.1076 8.94559C17.5603 8.88984 16.9878 8.83717 16.399 8.84894C15.8045 8.8611 15.1929 8.9385 14.5739 9.14397C14.2747 9.24329 13.0015 10.0097 12.9529 10.0001C12.7595 9.81211 12.5657 9.62362 12.372 9.4354C11.9674 9.231 11.5622 9.02646 11.1575 8.82207C11.1551 8.84345 11.1531 8.86484 11.1511 8.8865C11.1273 8.90962 11.1034 8.93262 11.08 8.95574C11.5986 9.39689 12.1179 9.83831 12.6362 10.2796C12.557 10.3283 12.4777 10.3766 12.3983 10.4253C11.7583 9.93763 11.317 9.64153 10.3641 9.39275C10.3107 9.39676 10.2569 9.40064 10.2035 9.40465C10.76 9.78978 11.3201 10.1427 11.88 10.4956C11.9174 10.5461 11.9546 10.5967 11.9922 10.6473C11.5925 10.817 11.4234 11.168 11.0855 11.3863C10.5579 11.1329 10.0698 10.904 9.4305 10.7094C9.41559 10.7532 9.40017 10.7971 9.38526 10.8409C9.7846 11.0991 10.1838 11.3573 10.5831 11.6156C10.6046 11.614 10.6261 11.6124 10.6474 11.6109C10.5786 11.6585 10.5099 11.7064 10.4414 11.7541C10.3456 12.0769 10.1586 12.4508 10.0032 12.9062C9.40634 13.3945 8.63248 13.3652 8.51244 14.3603C8.32209 14.4129 8.18675 14.4294 8.01324 14.5572C8.00874 14.6003 8.0045 14.6433 8 14.6863C8.10886 14.8403 9.07872 15.2523 9.31072 15.2926C9.3584 15.2464 9.4057 15.2001 9.45287 15.1541ZM16.5357 8.27404C16.5655 8.27953 16.5944 8.28484 16.6239 8.29032C16.5844 8.28553 16.5448 8.28049 16.5052 8.27561C16.4849 8.27665 16.4647 8.27761 16.4445 8.27865C16.5378 8.10322 16.8129 8.06003 17.0778 8.07962C17.0717 8.12159 17.0657 8.16364 17.0592 8.20552C16.8869 8.2144 16.7142 8.22319 16.5419 8.2319C16.5401 8.24601 16.5378 8.25993 16.5357 8.27404ZM16.9055 8.50538C16.9885 8.47784 17.0717 8.45044 17.1545 8.42303C17.262 8.24331 17.3233 8.05292 17.2684 7.87821C17.0127 7.82735 16.8647 7.89033 16.6247 7.99139C16.5813 8.0628 16.5378 8.13461 16.4949 8.20616C16.4781 8.23369 16.4611 8.26123 16.4445 8.2889C16.4611 8.30761 16.4772 8.32395 16.4949 8.3387C16.5758 8.40616 16.6739 8.42948 16.8541 8.41459C16.903 8.49918 16.8464 8.46163 16.757 8.48548C16.8064 8.49193 16.8559 8.49879 16.9055 8.50538ZM23.0453 10.4409C22.9561 10.4577 22.8668 10.4746 22.7778 10.4912C22.8328 10.4875 22.8879 10.4837 22.9425 10.4796C23.0054 10.5067 23.0681 10.534 23.1305 10.5608C23.0354 10.7361 22.9404 10.9111 22.8453 11.086C22.9918 10.9121 23.138 10.7884 23.2 10.5243C23.1482 10.4964 23.0968 10.4687 23.0453 10.4409ZM21.5111 18.828C21.4443 18.7096 21.3719 18.6312 21.3 18.6129C21.3642 18.6736 21.4381 18.7447 21.5111 18.828ZM20.6667 21.4086C20.5964 21.4499 20.5258 21.491 20.4555 21.5316C20.5096 21.5264 20.5636 21.5213 20.6178 21.5163C20.6344 21.4802 20.6508 21.4445 20.6667 21.4086ZM21.5111 18.828C21.7255 19.0718 21.8868 19.5382 21.8402 19.9032C22.0836 19.374 21.8058 19.0439 21.5111 18.828Z" fill="#558CB7"/>
</svg>
