<svg viewBox="0 0 32 32" fill="none" xmlns="http://www.w3.org/2000/svg"><path d="M16 28C9.36 28 4 22.64 4 16S9.36 4 16 4s12 5.36 12 12-5.36 12-12 12Z" fill="#fff"/><path fill-rule="evenodd" clip-rule="evenodd" d="M16 4.542C9.672 4.542 4.542 9.672 4.542 16S9.672 27.458 16 27.458 27.458 22.328 27.458 16 22.328 4.542 16 4.542ZM3.5 16C3.5 9.096 9.096 3.5 16 3.5S28.5 9.096 28.5 16 22.904 28.5 16 28.5 3.5 22.904 3.5 16Z" fill="#D8D8D8"/><path fill-rule="evenodd" clip-rule="evenodd" d="m8.493 14.746.14.211c-.28-.009-.576-.036-.633-.157a.34.34 0 0 1 .004-.018c.158-.042.293-.045.489-.036Zm1.498.641.068.208-.159.007.038-.213.053-.002Zm.542 1.521c-.14.13-.25.218-.333.415-.117-.096-.177-.286-.214-.499-.04-.231-.055-.489-.086-.681l.01-.099.163-.012.416.792.044.084Zm-.21-1.951a51.674 51.674 0 0 1 .064-.427l.053-.003-.118.43Zm-.114-1.936.747.204a1.361 1.361 0 0 0-.003.034c-.348.257-.67.371-.842.838l.065-1.04a2.7 2.7 0 0 1 .033-.036Zm.697-1.075c-.049.483.02.697.104.997.133.096.185.153.142.294-.224-.112-.461-.229-.804-.21l-.026-.03c.097-.38.284-.615.43-.917l.154-.134Zm1.073-.643.032-.002c-.103.356-.144 1.179-.324 1.505-.425-.202-.417-1.08.059-1.426l.233-.077Zm-.397 2.641.359.392c-.14.435-.408.763-.52 1.266l-.212-.016c-.18-.508.272-1.334.349-1.704l.331.038.122.313-.429-.289Zm.98-2.643c-.035.422.057.64.082.969l-.633.321c.053-.538.161-.893.31-1.272l.242-.018Zm.247-.642.047-.003-.072.206-.14.009.109-.128.056-.084Zm.047 1.97-.634.393c.013-.238.314-.557.565-.646.02.01.038.021.057.032l.012.222Zm.422-1.482-.114.655-.119.075-.063.07c-.114-.163-.143-.56-.118-.861l.414.061Zm.422-.49c0 .007-.002.014-.003.02l-.161.157c-.108.041-.121.04-.258.035l.057-.213h.365Zm.422-.861-.188.43-.656-.048.003-.035c.27-.125.506-.273.841-.347Zm-.34 1.116.069-.041.06.215-.211-.041.081-.133Zm.551.636c-.251.099-.599.072-.8.183l-.044-.258.131-.172.639.252.074-.005Zm-.54.387-.286.011-.018-.09c.202-.083.54-.091.844-.125l-.32.178-.22.026Zm.752 0c-.242.06-.474.275-.632.441-.031-.194.341-.538.52-.645.079.071.087.063.111.204Zm.422-2.57-.004.035-.253.153-.377.028a.645.645 0 0 0 .004-.034l.63-.181Zm-.342.646-.08-.12c.19-.162.61-.073.844-.05l-.764.17Zm1.89-.634c.352.03.675.113.92.267l.065-.004-.04.055-.337.1-.609-.087-1.336-.193c0-.009.002-.017.003-.026.432-.101.905-.147 1.333-.112Zm1.404-.113-.075.102a1.017 1.017 0 0 1-.555-.215l.633.08c0 .012-.002.022-.003.033Zm1.124.795.175-.067.182.158c-.024.178-.197.325-.328.5l-.102.006c-.275-.458-.623-.96-1.232-1.136l-.027-.054.247-.1c.413.145.758.365 1.143.492.05.12.034.08-.058.201Zm.51 1.02-.048-.049-.105.008.175-.167-.022.207Zm.186 2.373c.286.248.359.607.24 1.075l-.368-.831.12-.185.008-.06Zm.083-1.933-.003.04-.15.172-.058-.114c.09-.163.025-.075.143-.093l.068-.005Zm.176-.003.669.249-.006.067-.17.114-.669-.248.006-.068.17-.114Zm1.302.86-.37-.247-.052-.1c.16-.1.137-.094.308-.062.037.137.076.273.114.41Zm.211-.081-.074.081c-.09-.046-.106-.105-.137-.215l.193.085c.007.016.012.032.018.049Zm-.158-.615c-.018 0-.035.002-.053.003l.176-.167c-.041.055-.083.109-.123.164Zm1.002 1.081-.102.045-.566-.319-.176-.24c.293-.218.303.034.58.171.087.115.176.23.264.343Zm.212.19c-.07-.026-.14-.052-.212-.077l.128-.068.084.145Zm-.257.346c.076.155.076.111.257.088l-.325.282-.309-.593.004-.037c.228-.05.301.033.524.066l.086.139-.237.055Zm.046.386.422-.231c-.085.19-.195.29-.325.43a33.052 33.052 0 0 0-.098-.199Zm.844.82c-.114.1-.188.132-.405.15l.174.02a4.2 4.2 0 0 0-.004.03l-.594.254-.015-.767.41-.488.075-.035.359.837Zm-.211-1.175c1.165-.327.94.295.42.769l-.42-.77Zm1.055.124c-.43 2.028-.512 2.139-2.03 3.01l-.08-.12.053-.227c.99-.284 1.554-.805 1.495-1.986l.497-.64.066-.037Zm.052 0-.052-.21.159-.005-.107.215Zm-2.585 1.972.015-.224.013-.192.146-.049.021-.002a1.1 1.1 0 0 1-.084.645c-.07-.045-.085-.065-.11-.178Zm-.844 1.882.003-.037.277-.666.058-.14.488.032a.944.944 0 0 1 .015.108c.021.253-.066.455-.156.72l-.685-.017Zm.21.863.007-.332.008-.084.356.026.052-.004-.244.408-.178-.014Zm-.208-1.391.021-.012.17-.087c.005 0 .012 0 .018-.002l-.026.09-.097.34c-.03-.1-.06-.202-.088-.303 0-.009 0-.018.002-.026Zm-.33 1.07-.095-.095c.093.065.033.001.096.095Zm-.517-.255c.119-.076.247-.053.422-.05l-.051.172c-.145.058-.165.036-.33.02l-.04-.142Zm.259.805c.055.129.11.258.163.387l-.379.258c-.113-.155.01-.591.216-.645Zm-.417-1.35-.053.004.07-.16-.017.156Zm.608.06-.027-.018.092-.196.03-.002c.03.07.06.138.088.207l-.183.009Zm1.462-2.796a3.914 3.914 0 0 0-.012-.073c.056-.068.091-.11.187-.142l.024.127-.122.082-.077.006Zm-.012.525c-.038.05-.106.08-.154.12l-.057-1.075.211.955Zm-.387 1.441c.14-.078.16-.006.176.184h-.422l.007-.067.239-.117Zm-.207-.594.095-.082.077.139-.036.076a63.25 63.25 0 0 1-.175-.02l.039-.113Zm-.04.57c-.072.07-.146.14-.22.208l-.143-.024-.058.006.102-.197.32.007Zm-.796-.122c-.088-.062-.024-.053-.04-.1l.04.1Zm.666-.96-.713-.372c.033-.491.093-1.056.044-1.563.55.2 1.043 1.099.669 1.935Zm-.502 0c.175.093.165.178.409.253.042.16-.023.222-.124.392l-.258-.01c-.054-.284.004-.446-.027-.635Zm.048 1.39c-.089-.061-.025-.053-.042-.1.014.034.027.067.042.1Zm1.43-2.07.001-.04.19-.14c.034.22.022.587-.028.86-.113-.089-.133-.462-.164-.68Zm0 .68.127-.215-.074.211-.054.004Zm1.23-.643.036-.002c.01.824-.496.974-1.161 1.284l-.106.006.415-.863.816-.425Zm-1.25-1.61.02.064-.053.038a79.017 79.017 0 0 1-.159-.215l.191.114Zm-.192.358c.003-.012.004-.025.006-.037l.046-.003.16.215c-.123-.06-.143-.073-.212-.175Zm.211.55-.285.27-.611-.892-.793-.691c.06-.046.117-.092.175-.138.384.167 1.055.485 1.19.882.044.129-.107.235-.004.343.122.128.245.037.328.226Zm-1.781 1.345c.02.009.043.017.064.025l.028.62-.098-.023c-.093-.069-.158-.389-.073-.528l.079-.094Zm-.468 1.078.068-.003.07.169-.108.042-.103.004c.025-.07.05-.141.073-.212Zm-.193 3.438-.091-.314.39-.114.032-.002a.502.502 0 0 0-.003.03l-.328.4Zm-.302-.86c.038-.126.067-.145.136-.215l.059.022.016.056-.13.129-.081.008Zm.1.215a51.617 51.617 0 0 0-.1-.11l.211-.105-.055.212-.057.003Zm-.223.976-.088-.073.065-.004.325-.254.032.259-.25.171-.084-.099Zm.016 2.462c-.508.022-.812-.108-1.228-.145l-.474-.944-.091-.094c.797-.095 1.299-.482 1.89-.75.21.2.683 1.219.266 1.67-.1.154-.212.17-.363.263Zm-2.183-1.06.192-.012c.287.193.483.54.62.86l-.844-.245c.062-.215.089-.434.032-.603Zm-.606-.812.95-.276 1.497.147c.008.026.018.051.027.076-.446.201-.953.371-1.464.631-.553.045-.686-.163-1.07-.3l.06-.278Zm-.06 1.013.02-.186c.12-.01.242-.018.363-.027.03.162.062.252.017.43l-.4-.217Zm-.422.337.142-.079c.173-.115.304.04.492.1-.026.024-.05.049-.075.074l-.559-.095Zm.41-.335-.137-.063-.062-.152.211.013-.012.202Zm-.621 0 .211.181c0 .113-.01.1-.035.249l-.176-.43Zm-.548-.807c.199-.06.463-.047.76-.054l-.277.215-.568-.056.085-.105Zm-.508-10.777c.392-.376 1.376-.264 1.623-.025l.066-.006c-.328.307-.835.343-1.147.647-.245-.164-.447-.269-.542-.616Zm2.157.616.166.19c-.148.008-.304.017-.459.03-.349.03-.694.082-.935.208l-.031.002-.053-.082a3.013 3.013 0 0 1 1.312-.348Zm.822-1.075c.273.275.68.438.822.86-.574-.268-1.454-.264-1.9-.69.393.085.728.054 1.078-.17Zm.188 1.505.783.108.061-.005-.627.542c-.099-.2-.123-.47-.217-.645Zm1.006.92-.162-.025.212-.035-.05.06Zm-.162-.514.194-.19.018.214-.14-.03-.072.006Zm.384 7.117-.093.004-.08-.075.062-.081.15-.06-.04.212Zm-.169.392.078-.09.007-.083.123.196-.211.019.003-.042Zm-.083.687a32.26 32.26 0 0 0-.132-.158l.423-.057-.201.209-.09.006Zm.08.645-.422-.05.297-.165.125.215Zm-.296-.606.084.081-.305.08c-.11.004-.218.01-.328.015l.457-.215.091.039Zm-1.182-9.286c.246.007.507.07.633.215-.17-.017-.476.01-.553-.121l-.08-.094Zm.214.86c.12.106.163.23.141.43-.186-.064-.137-.269-.14-.43Zm.208 1.356.007-.037c.42-.092.511.055.32.186-.166-.022-.242-.085-.327-.15Zm.54 5.526.093.023-.003.03-.208.162.087-.213.032-.002Zm-.115-5.246.157-.13.052.214a71.91 71.91 0 0 1-.212-.046c0-.013.002-.025.003-.038Zm.63 5.751-.51.134-.123.006.004-.022a.901.901 0 0 0 .427-.193l.178.034.025.041Zm-.363-.505c-.02-.04-.04-.08-.058-.12l.145-.095.066.035-.084.174-.07.006Zm-1.325 1.487.251-.197.778.067.026.058-.525.305a.776.776 0 0 1-.464-.238l-.066.005Zm-.391.018.39.215-.633-.112.243-.103Zm-.032.44-.002.051-.12.068-.088.01.003-.05c.092-.124.076-.083.207-.08Zm-.995-8.753a6.013 6.013 0 0 0-.06-.064c.21-.115.54-.17.866-.196.268-.022.532-.025.72-.029l.103.645c-.276-.03-.54-.066-.823-.08a4.283 4.283 0 0 0-.736.028 31.739 31.739 0 0 0-.07-.304Zm.31 8.63.052.09-.05.194-.583.044c.062-.192.156-.284.256-.43l.326.102Zm-.72-.747c-.264-.015-.628-.21-.706-.43l.845.216a48.61 48.61 0 0 1-.138.214Zm.297-.011-.158.011.005-.05.176-.165-.023.204Zm-.58-7.865.256-.08c.056.068.11.138.166.207l-.173.007-.25-.134Zm-.004 9.234-.04.14-.06.007a61.579 61.579 0 0 0-.107-.215l.21.022-.003.046Zm.118-.928.492.1.027.067-.383.478-.462-.068c.11-.192.217-.385.326-.577Zm3.686-6.74.095-.14.035-.002.265.068.027.037-.297.11-.125-.072Zm.57-.694-.148-.093c.151.056.064-.006.148.093Zm-.047.983a14.684 14.684 0 0 1-.101-.087l.211-.129-.11.216Zm-.101 1.505.328.082c.088.034.086.044.094.133-.141-.054-.377-.092-.422-.215Zm.032-.586.045-.06.134.216-.211-.041.032-.115Zm-4.276 7.076.022.056-.285.11-.138.01.003-.029.097-.152c.135-.063.138-.022.3.005Zm-.612-10.791c.185.137.232.307.204.86-.122-.156-.195-.487-.204-.86Zm.122-.43-.016.155-.106.008.122-.163Zm-.122.215-.016.155-.195-.036.16-.115.051-.004Zm0 12.473.105-1.095.74-.195-.778 1.25-.067.04Zm.053-2.943.113-.068c.104.124.01.302-.086.43-.082-.077-.091-.124-.07-.298l.043-.064Zm-.686-.105.243-.393.39.23c-.133.21-.268.42-.403.63-.121-.108-.195-.267-.23-.467Zm0 1.684.389-.357.184.017.06.1-.046.314-.587-.074Zm-.633-.292.464-.28.353.056.027.05-.372.325c-.186-.02-.31-.07-.406-.154-.023 0-.045.002-.066.003Zm-.062-.415.17-.08.072.016.03.035-.491.164-.142-.05.361-.085Zm-.572-.202.124-.303c.232-.03.286.085.46.157l.05.077-.259.178-.21.013-.165-.122Zm-.422.882.307-.545c.204 0 .229.017.313.126.037.062.005.029-.076.043l-.02.188c.108.016.214.032.32.05-.062.156-.072.136-.168.236-.314.017-.456-.044-.676-.098Zm-.355-.76.536.163.03.064-.344.419-.5-.165.277-.48Zm-2.069-.58.007-.065.3.232.026.061c-.623.483.33 2.059 1.414 1.038l.466.188c-.18.322-.487.448-.812.63-.775.064-1.86-1.207-1.4-2.085Zm.724.22.011.145-.172-.13-.039-.085.2.07Zm1.067.913-.386.3c-.76.08-1.067-.448-1.092-1.098l.148-.18.065-.005c.383.303.72.765 1.24.917l.025.066Zm-.736-3.133c-.07-.051-.073-.075-.109-.16l.145-.552.169-.148.109.16-.314.7Zm-.109.186.334-.791.068-.04c.153.271.375.394.443.764l-.502.526a1.018 1.018 0 0 1-.343-.46Zm.634.657.423-.413.21.43-.633-.017Zm1.055-4.345c-.2.43-.466.721-.625 1.136-.07-.377.35-.92.485-1.253l.064-.037.076.154Zm0-1.183c.314-.098.525-.277.75-.477l.095.288c-.09.119-.178.239-.267.358l-.578-.169Zm1.056.022-.115.147-.096-.017.002-.023.192-.175.017.068Zm-.167-.926.034-.003.133.282-.05.148c-.194-.101-.186-.221-.117-.427Zm-.039 6.234.195.14-.2-.088a.856.856 0 0 1 .005-.052Zm-.003.215.209.091a.656.656 0 0 0-.004.026l-.447.313c-.13-.058-.145-.173-.183-.3l.004-.026.421-.104Zm-.625-.43.2.08-.107.064-.104.012.01-.156Zm-.01-4.301c.253.072.173.024.184.215-.117-.068-.125-.101-.185-.215Zm0 3.841.017-.185c.098.068.132.11.193.215l-.21-.03Zm.422-2.685c-.08.102-.076.074-.212.134l.093-.215.119.08Zm0-.865-.133.139c-.133-.076-.07-.046-.01-.185l.079-.03.064.076Zm-.017-.366-.195-.14c.15.057.115.022.195.14Zm-.406 3.946.211.169c-.108-.003-.165-.026-.21-.17Zm.634-.008-.086.008-.074-.137a6.61 6.61 0 0 1-.051-.067l.114-.011.097.207Zm-.117-3.982-.094-.096c.092.065.03.001.094.096Zm.013 3.541-.107-.225.045-.185c.01 0 .018 0 .027-.002l.139.43-.104-.018Zm-.553 2.502.023.03-.075.282a.58.58 0 0 1-.347-.43l.4.118Zm-.61.312.211.189c-.135-.06-.143-.057-.211-.189Zm.364-1.906.026.186-.179-.215.153.03Zm-.208 1.006-.156-.39c.184.071.329.284.422.43l-.266-.04Zm.166-3.83h.052l-.154.214c-.026-.053.005-.104.091-.166l.01-.047Zm-.11 1.85c-.015.028-.03.056-.043.085l-.121-.095-.048-.102.165-.018.046.13Zm-1.479 1.805c.424.277 1.142.533 1.267 1.075a3.517 3.517 0 0 1-1.267-1.075Zm1.097-.208.17.208-.422-.215.252.007Zm1.546.638-.32-.324.56-.536.073.59-.313.27Zm.313.36.056-.14.074-.005.081.215-.211-.07Zm.284-.79-.073-.215.153.029-.08.186Zm-.284-7.241.002-.02.209-.05c-.049.07-.098.143-.146.214l-.065-.144Zm-2.129 4.445-.193-.43c.248.055.208.232.194.43Zm-.517.215c-.18-.126-.296-.376-.31-.645.37.088.35.235.423.575l-.113.07Zm-.218-1.122c-.27-.255.123-1.28.296-1.515.09-.116.205-.113.357-.158l.1.026c-.254.451-.425 1.066-.486 1.694a74.216 74.216 0 0 0-.267-.047Zm-.394 3.488.13.218-.116.27-.067.071c.095.014.116-.068.258-.184.273.447.691.873 1.153 1.115l-.252.445-.763-.493c-.087-.163.034-.349-.107-.448-.127-.09-.29.04-.42 0l-.358-.33c.105-.236.206-.468.415-.588l.127-.076Zm-.73-2.371c.027-.212.072-.43.124-.637l.029-.003.11.64c.02.111.038.223.057.334l.501 1.392c-.4-.22-.649-.73-.613-1.415-.097.221-.016.569.015.764-.247-.21-.278-.627-.223-1.075Zm-.366.22a.787.787 0 0 1-.072-.259c-.011-.102-.01-.22.004-.361l.037-.077.163-.163-.092.601-.04.26Zm14.698 2.151-.422-.163.41-.052.012.215Zm-11.172 3.5.111-.06-.128.215.017-.155Zm-3.183-7.371-.18-.018c-.224-.073-.435-.335-.454-.627.343.03.46.194.629.393l.005.252Zm-.025-.018c.024-.464-.328-.754-.786-.741.078-.652.642-.986 1.145-1.205l.097-.007c-.084.819-.02 1.523-.325 2.231-.225.522-1.021.512-.978 1.316l.005.068c.114 1.07 1.272 1.288 1.432 2.229-1.716.877.376 4.564 1.734 2.398.243.035.46.146.762.04.14-.079.169-.142.223-.305l.486.252.025.062c-.445.346-.758.822-1.236 1.147l.046-.131-.126-.023-.067.037c-.021.097-.041.195-.063.292.273.28 1.1-.732 1.342-.93-.137.48-.475.728-.663 1.168l.058.06c.356-.257.794-.983.86-1.536l.534.089c-.67.91-2.389 2.91-3.292 3.443.136-.434.356-.765.467-1.122l-.065.005-.058-.06c-.22.435-.582.74-.647 1.327.046.072.095.11.144.15 1.075-.18 2.87-2.895 3.728-3.636-.232 2.341-1.481 2.707-2.564 4.125.984-.493 1.58-1.752 2.423-2.451-.093.979-.325 3.166-.908 3.554l.097-.007c.653-.409.692-2.088.91-2.946l.092-.903.934-1.317.067-.037c.105.33.578.687 1.09.59l.367-.154.922.347c.121 1.333.075 2.08-.765 3.095.858-.44 1.173-2.139.888-3.04 1.995.232 1.915-.445 1.536-1.905l.351.006c-.064-.098-.24-.026-.373-.1-.06-.04-.048-.033-.086-.09.474-.538 1.617-.004 1.377.889.328-.74-.397-1.399-1.097-1.134.299-.356.66-.648.85-1.119l.068-.037 1.642 1.733.097-.007.074-.101-1.565-1.867.168-.077a.34.34 0 0 1 .29-.101l-.084-.042c.84.085 1.91.787 2.785.56.081-.14.085-.217.036-.354.932.024 2.61-.29 3.143-.745-1.434.303-3.05.406-4.367.229l-1.167-.138-.065.005.314-.567c.962-.018 3.485-.042 3.995-.649l-.113-.151-.44-.063c-.038.056-.043.11-.05.163l.349.038c-.757.192-2.863.596-3.55.36-.073-.088-.02-.395-.016-.615a.82.82 0 0 0-.005-.12c.988-.296 1.722-.964 2.023-1.973.172-.577.058-1.335.43-1.695.238.021.285.121.46.19-.093-.129-.224-.2-.389-.26l-.31.216c-.282.11-.579-.178-1.058.046-.39-.335-.61-.864-1.136-1.067l-.055-.092.64-.623c-.21.176-.423.383-.636.591l-.428-.192-.025-.062c.487-.347.92-.476 1.475-.366l.08.154c-.026.045-.05.057-.071.07l-.187-.05c.08.047.164.062.248.077l.07-.07.01-.096c-.12-.108-.157-.186-.395-.194l.113-.169c-.272.188-.824.238-1.095.402l.626-.495.074-.101c-.386.23-.771.462-1.157.694-.247-.018-.51-.134-.643-.273l-.064.005 1.373-.933-.022-.095-1.563.916-.498-.123.046-.451 3.58-2.825.064-.005a13.024 13.024 0 0 1-.051-.124c-.133-.064-.678.38-.883.513-.793.511-1.494 1.147-2.274 1.609.322-.411.912-.82 1.009-1.419l-.158-.02-.245.21.267-.116c-.172.527-.954 1.469-1.395 1.767a21.69 21.69 0 0 1-.05-.124c.286-.486.569-1.137.436-1.76l-.241-.142-.258.02c.165.065.277.081.398.162.078.603-.218 1.011-.377 1.5-.023.011-.045.024-.068.036-.106-.197-.1-.292-.317-.328a10.601 10.601 0 0 1-.02-.127l.15-.203.102-.071c.035.065.037.042.048.156a.324.324 0 0 0 .049-.164l-.122-.054-.323.343c-.27-.18-.566-.371-.945-.441.215-.448.867-1.168.53-1.735-.41-.69-1.815.106-2.329.653a1.021 1.021 0 0 0-.154.203c.032-.026.085-.068.154-.12.507-.38 1.859-1.29 2.151-.563.307.406-.28 1.187-.441 1.505-.548-.056-1.12-.109-1.709-.097a6.127 6.127 0 0 0-1.825.295c-.3.1-1.572.866-1.621.856l-.581-.565-1.214-.613a3.282 3.282 0 0 0-.007.065l-.071.069c.519.44 1.038.882 1.556 1.324l-.238.145c-.64-.487-1.081-.783-2.034-1.032l-.16.012c.556.385 1.116.738 1.676 1.09l.112.152c-.4.17-.569.521-.907.74-.527-.254-1.015-.483-1.655-.678l-.045.132 1.198.775.064-.005-.206.143c-.095.323-.282.697-.438 1.152-.597.489-1.37.46-1.49 1.454-.19.053-.326.07-.5.197l-.013.13c.109.153 1.079.565 1.31.606l.143-.139Zm7.083-6.88.088.016-.119-.014-.06.003c.093-.176.368-.219.633-.2l-.019.127-.517.026-.006.042Zm.37.231.248-.082c.108-.18.17-.37.114-.545-.255-.05-.403.012-.643.113l-.13.215-.05.083a.467.467 0 0 0 .05.05c.08.067.179.09.36.076.048.084-.009.047-.098.07l.148.02Zm6.14 1.936-.268.05.165-.011.188.08-.286.526c.147-.174.293-.298.355-.562l-.155-.083Zm-1.535 8.387c-.067-.118-.14-.197-.211-.215.064.06.138.132.211.215Zm-.844 2.58-.212.124.163-.016.049-.107Zm.844-2.58c.215.244.376.71.33 1.075.243-.529-.035-.86-.33-1.075Z" fill="#558CB7"/></svg>