<svg viewBox="0 0 32 32" fill="none" xmlns="http://www.w3.org/2000/svg"><path d="M28 16c0 6.627-5.373 12-12 12S4 22.627 4 16 9.373 4 16 4s12 5.373 12 12Z" fill="#fff"/><path fill-rule="evenodd" clip-rule="evenodd" d="M20.922 20.5h-9.736C9.425 20.49 8 19.078 8 17.337c0-1.335.84-2.478 2.025-2.941a2.317 2.317 0 0 1 2.306-1.988c.36 0 .702.081 1.006.226a4.412 4.412 0 0 1 3.79-2.134c2.318 0 4.217 1.768 4.39 4.011C22.931 14.778 24 16.005 24 17.48c0 1.668-1.37 3.021-3.06 3.021h-.018Z" fill="url(#a)"/><path fill-rule="evenodd" clip-rule="evenodd" d="M16 4.542C9.672 4.542 4.542 9.672 4.542 16S9.672 27.458 16 27.458 27.458 22.328 27.458 16 22.328 4.542 16 4.542ZM3.5 16C3.5 9.096 9.096 3.5 16 3.5S28.5 9.096 28.5 16 22.904 28.5 16 28.5 3.5 22.904 3.5 16Z" fill="#D8D8D8"/><defs><linearGradient id="a" x1="8.304" y1="19.648" x2="19.439" y2="9.925" gradientUnits="userSpaceOnUse"><stop stop-color="#7DDDFD"/><stop offset="1" stop-color="#1197FA"/></linearGradient></defs></svg>