<svg viewBox="0 0 32 32" fill="none" xmlns="http://www.w3.org/2000/svg"><path d="M16 28c6.627 0 12-5.373 12-12S22.627 4 16 4 4 9.373 4 16s5.373 12 12 12Z" fill="#fff"/><path fill-rule="evenodd" clip-rule="evenodd" d="M3.5 16C3.5 9.096 9.096 3.5 16 3.5S28.5 9.096 28.5 16 22.904 28.5 16 28.5 3.5 22.904 3.5 16ZM16 4.5C9.649 4.5 4.5 9.649 4.5 16S9.649 27.5 16 27.5 27.5 22.351 27.5 16 22.351 4.5 16 4.5Z" fill="#D8D8D8"/><path fill-rule="evenodd" clip-rule="evenodd" d="M15.8 9.01a6.622 6.622 0 0 0-1.822.35 6.697 6.697 0 0 0-2.064 1.132 7.171 7.171 0 0 0-1.068 1.06c-.178.21-.41.544-.59.852a7.11 7.11 0 0 0-.848 4.897c.128.69.322 1.26.644 1.894l.122.24c.007.015.013.03.017.047l.015.07a.154.154 0 0 1 .004.044c-.005.069-.032.08-.062.151-.12.287-.338.544-.79.93-.175.148-.244.227-.3.34a.424.424 0 0 0-.052.28c.06.363.535.68 1.114.745.06.007.253.012.428.012.66 0 1.273-.095 1.635-.253a.18.18 0 0 1 .172.015l.026.017a6.787 6.787 0 0 0 3.483 1.136h.553a6.802 6.802 0 0 0 2.34-.519c.226-.095.637-.302.834-.419a7.132 7.132 0 0 0 1.986-1.782c.235-.308.523-.774.7-1.132a7.154 7.154 0 0 0 .702-2.547 7.929 7.929 0 0 0-.024-1.407 7.08 7.08 0 0 0-1.285-3.317 4.83 4.83 0 0 0-.348-.436 10.01 10.01 0 0 0-.728-.739 6.794 6.794 0 0 0-1.42-.953 6.66 6.66 0 0 0-2.707-.709 5.755 5.755 0 0 0-.667.001Zm3.888 2.208a5.794 5.794 0 0 0-3.14-1.192 8.718 8.718 0 0 0-.827 0 5.811 5.811 0 0 0-3.113 1.185 5.89 5.89 0 0 0-1.77 2.17 6.097 6.097 0 0 0-.564 3.323c.058.512.193 1.066.374 1.536.073.188.257.577.37.781.064.114.088.17.104.242.1.436.024.866-.22 1.23a2.15 2.15 0 0 1-.347.38l-.043.035c-.013.01-.01.03.005.036a.89.89 0 0 0 .13.03c.362.062.874.01 1.625-.167.116-.027.216-.047.22-.043a6.365 6.365 0 0 0 .965.625 5.837 5.837 0 0 0 4.266.435 5.823 5.823 0 0 0 2.542-1.5c.288-.295.49-.535.688-.819a6.072 6.072 0 0 0 1.084-3.61 5.986 5.986 0 0 0-.408-2.078 5.932 5.932 0 0 0-1.347-2.076 4.587 4.587 0 0 0-.594-.523Z" fill="url(#a)"/><path fill-rule="evenodd" clip-rule="evenodd" d="M19.19 15.13c-.539.043-.96.378-1.1.876-.117.417-.06.891.147 1.2.175.264.44.437.778.51.144.032.45.03.6-.005.45-.102.768-.385.905-.806.058-.177.068-.256.067-.503 0-.218-.002-.235-.034-.359a1.375 1.375 0 0 0-.16-.38 1.42 1.42 0 0 0-.258-.29 1.379 1.379 0 0 0-.425-.204 2.129 2.129 0 0 0-.388-.05l-.131.011Zm.625 1.194c-.027-.317-.14-.536-.32-.62a.474.474 0 0 0-.277-.024c-.183.049-.304.194-.369.441a1.65 1.65 0 0 0-.011.56c.04.201.108.331.215.417.086.069.154.091.275.092.09 0 .105-.004.17-.036.225-.113.35-.442.317-.83Z" fill="url(#b)"/><path d="M14.913 15.118a.959.959 0 0 0-.333.113 1.139 1.139 0 0 0-.25.232c-.047.069-.057.06-.066-.052-.01-.114-.023-.152-.071-.198a.122.122 0 0 0-.083-.034l-.185-.003-.189-.003a.12.12 0 0 0-.079.029.156.156 0 0 0-.044.065c-.005.02-.005.158 0 .309.004.15.008.638.008 1.084.001.894 0 .875.07.948.067.07.079.073.326.073.252 0 .26-.002.31-.082a.172.172 0 0 0 .024-.088l.006-.69.005-.7a.2.2 0 0 1 .014-.072l.011-.029c.077-.193.226-.3.4-.285.12.01.211.079.266.202.055.123.06.182.06.885 0 .733 0 .731.076.801.06.056.124.068.337.062.19-.006.22-.014.27-.076a.24.24 0 0 0 .04-.076 9.86 9.86 0 0 0 .012-.695c0-.81.005-.845.124-.98a.323.323 0 0 1 .264-.12c.175 0 .276.084.341.285.018.056.02.127.026.798l.006.686a.2.2 0 0 0 .025.096l.002.002c.042.076.064.082.316.082.134 0 .233-.005.256-.013.055-.019.094-.062.12-.13.022-.06.022-.078.018-.84l-.004-.753a.196.196 0 0 0-.005-.045l-.025-.107c-.084-.354-.28-.586-.56-.663a1.073 1.073 0 0 0-.405-.013c-.202.039-.334.115-.508.293a2.047 2.047 0 0 1-.118.115.234.234 0 0 1-.031-.053c-.13-.259-.432-.4-.777-.36Z" fill="url(#c)"/><path d="M12.137 15.182a.127.127 0 0 0-.087.082c-.015.04-.017.168-.017 1.158 0 .722.004 1.128.011 1.155a.186.186 0 0 0 .05.075.135.135 0 0 0 .09.035h.22c.309 0 .32-.003.362-.092l.004-.009a.199.199 0 0 0 .02-.085v-1.075c0-1.078-.002-1.12-.022-1.16-.04-.081-.06-.086-.352-.088-.141-.001-.267 0-.279.004Z" fill="url(#d)"/><path d="M12.267 13.887a.374.374 0 0 0-.253.404c.012.14.077.241.2.306.063.034.071.035.192.035.12 0 .13-.001.2-.036a.35.35 0 0 0 .203-.355.378.378 0 0 0-.215-.338.522.522 0 0 0-.327-.016Z" fill="url(#e)"/><defs><linearGradient id="a" x1="10" y1="21" x2="22" y2="11.5" gradientUnits="userSpaceOnUse"><stop offset="0" stop-color="#254A88"/><stop offset="1" stop-color="#4C70AE"/></linearGradient><linearGradient id="b" x1="10" y1="21" x2="22" y2="11.5" gradientUnits="userSpaceOnUse"><stop offset="0" stop-color="#254A88"/><stop offset="1" stop-color="#4C70AE"/></linearGradient><linearGradient id="c" x1="10" y1="21" x2="22" y2="11.5" gradientUnits="userSpaceOnUse"><stop offset="0" stop-color="#254A88"/><stop offset="1" stop-color="#4C70AE"/></linearGradient><linearGradient id="d" x1="10" y1="21" x2="22" y2="11.5" gradientUnits="userSpaceOnUse"><stop offset="0" stop-color="#254A88"/><stop offset="1" stop-color="#4C70AE"/></linearGradient><linearGradient id="e" x1="10" y1="21" x2="22" y2="11.5" gradientUnits="userSpaceOnUse"><stop offset="0" stop-color="#254A88"/><stop offset="1" stop-color="#4C70AE"/></linearGradient></defs></svg>