<svg viewBox="0 0 32 32" fill="none" xmlns="http://www.w3.org/2000/svg"><path d="M16 28c6.627 0 12-5.373 12-12S22.627 4 16 4 4 9.373 4 16s5.373 12 12 12Z" fill="#EA003D"/><path d="m17.449 20.104 1.267-2.162H16.18l1.268 2.162Zm-3.152 0 1.267-2.162H13.03l1.267 2.162Zm1.576-2.036 1.268 2.162h-2.535l1.267-2.162Zm3.155-.658 1.267-2.162h-2.534l1.267 2.162Zm-1.526-1.954 1.267 2.162h-2.534l1.267-2.162Zm-4.784 1.955-1.267-2.162h2.534l-1.267 2.162Zm1.526-1.955-1.267 2.162h2.534l-1.267-2.162Zm-4.05.553L8 14.761v2.496l2.195-1.248Zm0 3.243L8 18.005V20.5l2.195-1.248ZM8 17.631l2.195-1.248v2.496L8 17.63Zm2.195-4.883L8 11.5v2.496l2.195-1.248ZM24 16.01l-2.195-1.248v2.496L24 16.01Zm0 3.243-2.195-1.247V20.5L24 19.252Zm-2.195-1.621L24 16.383v2.496l-2.195-1.248ZM24 12.748 21.805 11.5v2.496L24 12.748Z" fill="#fff"/></svg>