<svg viewBox="0 0 32 32" fill="none" xmlns="http://www.w3.org/2000/svg"><path d="M16 28c6.627 0 12-5.373 12-12S22.627 4 16 4 4 9.373 4 16s5.373 12 12 12Z" fill="#000"/><path fill-rule="evenodd" clip-rule="evenodd" d="M12.364 10.008v3.258h.18l2.364-3.258h3.272l-4.365 3.769.18.17L22 10.004v2.742l-7.096 2.398v.17L22 14.716v2.572l-7.096-.599v.171L22 19.257V22l-8.005-3.944-.18.17 4.365 3.77h-3.272l-2.364-3.258h-.18v3.257H10V10h2.364v.008Z" fill="url(#a)"/><defs><linearGradient id="a" x1="11" y1="11" x2="23.5" y2="19.5" gradientUnits="userSpaceOnUse"><stop offset=".313" stop-color="#ED612B"/><stop offset="1" stop-color="#CCE44A"/></linearGradient></defs></svg>