<svg viewBox="0 0 32 32" fill="none" xmlns="http://www.w3.org/2000/svg">
<path d="M16 28C22.6274 28 28 22.6274 28 16C28 9.37258 22.6274 4 16 4C9.37258 4 4 9.37258 4 16C4 22.6274 9.37258 28 16 28Z" fill="black"/>
<path d="M16.3545 19.3053C15.9773 19.0317 15.8074 18.6273 15.8074 18.0148C15.8074 17.2449 16.0427 16.2964 16.4332 15.8883C16.7067 15.614 17.0972 15.4838 17.6317 15.4838C18.3876 15.4838 19.3127 15.6824 19.7031 16.0839C19.9642 16.3449 20.0818 16.7096 20.0818 17.2184C20.0818 17.9494 19.873 18.9795 19.4163 19.4097C19.156 19.645 18.8046 19.7487 18.3097 19.7487C17.6332 19.7487 16.7832 19.5913 16.3545 19.3053ZM19.6781 20.923L19.5862 21.6274L21.5524 21.8701L22.4841 14.2573L20.5186 14.0154L20.4267 14.7537H20.1995C19.9053 14.2323 19.1171 13.5272 17.6317 13.5272C15.5603 13.5272 14.036 15.0537 13.7618 17.1398C13.7364 17.3435 13.7233 17.5485 13.7228 17.7538C13.7228 19.7487 15.078 21.3928 17.1883 21.6274C17.306 21.6384 17.4229 21.6421 17.5406 21.6406C18.4266 21.6406 19.0913 21.2627 19.4303 20.9237H19.6774L19.6781 20.923ZM10.797 10.13L9.51605 20.3899L11.6073 20.645L12.8676 10.3844L10.797 10.13Z" fill="white"/>
</svg>
