<svg viewBox="0 0 32 32" xmlns="http://www.w3.org/2000/svg" xmlns:xlink="http://www.w3.org/1999/xlink"><defs><path id="a" d="M.054.078h2.35V3H.054z"/><path id="c" d="M.097.1h2.037V3H.097z"/><path id="e" d="M0 .011h.798v.822H0z"/><path id="g" d="M0 .033h.798v.822H0z"/></defs><g fill="none" fill-rule="evenodd"><circle stroke="#D8D8D8" cx="16" cy="16" r="11.5"/><path d="M8.563 14.722c-.01.356-.032.667-.043.956-.022.289-.043.544-.076.778a6.083 6.083 0 0 1-.118.61 1.964 1.964 0 0 1-.194.456.845.845 0 0 1-.173.211.631.631 0 0 1-.205.145.735.735 0 0 1-.204.066c-.065.012-.119.023-.184.023a.964.964 0 0 1-.204-.023c-.054-.01-.108-.033-.162-.055l.075-.656a.133.133 0 0 0 .065.011c.022 0 .043.012.065.012a.356.356 0 0 0 .313-.189c.053-.078.096-.2.14-.356.043-.155.075-.355.107-.6a13.6 13.6 0 0 0 .076-.867c.021-.333.032-.733.032-1.177h2.22v3.877H9.36v-3.222h-.797ZM12.303 16.267h-.022l-.226.41-.96 1.245h-.441v-2.766h.7v1.322l-.032.378h.022l.215-.4.97-1.3h.442v2.766h-.7v-1.255zM14.868 15.789v2.133h-.722V15.79h-.765v-.633h2.231v.633z" fill="#000"/><path d="M16.571 14.022c.183-.022.356-.022.54-.022.182 0 .376.011.56.044.183.034.355.09.506.19.151.088.27.222.367.388.097.167.14.39.14.656 0 .244-.043.444-.119.622-.086.167-.194.3-.323.411-.14.111-.291.189-.464.233a2.171 2.171 0 0 1-.539.067h-.204c-.043 0-.087 0-.13-.011-.043 0-.075-.011-.086-.011v1.333h-.733V14.09c.13-.033.302-.056.485-.067m.593.622c-.075 0-.14 0-.205.012a.486.486 0 0 0-.15.022v1.255c.01 0 .032.011.064.011s.054.012.086.012h.162c.097 0 .194-.012.291-.023a.904.904 0 0 0 .259-.1.496.496 0 0 0 .183-.21.78.78 0 0 0 .065-.345.615.615 0 0 0-.065-.3.48.48 0 0 0-.173-.19.77.77 0 0 0-.237-.1.822.822 0 0 0-.28-.044" fill="#FF4B00"/><g transform="translate(18.749 15)"><mask id="b" fill="#fff"><use xlink:href="#a"/></mask><path d="M1.897 2.911a2.014 2.014 0 0 1-.593.09C.873 3 .55 2.866.356 2.61.15 2.356.054 1.99.054 1.544c0-.488.108-.855.334-1.1C.614.2.927.078 1.337.078c.14 0 .27.022.398.055.13.034.248.1.345.178.097.089.183.2.237.345.065.144.087.322.087.533 0 .078 0 .155-.011.244-.011.09-.022.178-.043.278H.733a.85.85 0 0 0 .183.522c.108.123.28.178.507.178.15 0 .28-.033.399-.067.15-.044.29-.122.29-.122l.205.445a.875.875 0 0 1-.42.244M1.337.645c-.216.01-.324.066-.41.177a.864.864 0 0 0-.162.445l1.003.01c.01-.2 0-.355-.076-.455a.407.407 0 0 0-.355-.177" fill="#FF4B00" mask="url(#b)"/></g><g transform="translate(21.443 15)"><mask id="d" fill="#fff"><use xlink:href="#c"/></mask><path d="M1.994.689S1.778.644 1.617.644c-.474 0-.787.278-.787.912 0 .588.237.877.733.877.162 0 .474-.044.474-.044l.097.5c-.13.044-.388.111-.7.111C.464 3 .097 2.267.097 1.522.097.778.517.1 1.487.1c.184 0 .4.022.604.078l-.097.51" fill="#FF4B00" mask="url(#d)"/></g><g transform="translate(24.138 15.111)"><mask id="f" fill="#fff"><use xlink:href="#e"/></mask><path d="M.399.833A.404.404 0 0 1 0 .423C0 .188.172.01.399.01c.215 0 .399.178.399.411a.397.397 0 0 1-.4.411" fill="#FF4B00" mask="url(#f)"/></g><g transform="translate(24.138 17.111)"><mask id="h" fill="#fff"><use xlink:href="#g"/></mask><path d="M.798.444a.404.404 0 0 1-.4.411A.404.404 0 0 1 0 .445C0 .221.172.032.399.032c.226 0 .399.19.399.411" fill="#FF4B00" mask="url(#h)"/></g></g></svg>