<svg viewBox="0 0 32 32" fill="none" xmlns="http://www.w3.org/2000/svg">
<path d="M16 28C22.6274 28 28 22.6274 28 16C28 9.37258 22.6274 4 16 4C9.37258 4 4 9.37258 4 16C4 22.6274 9.37258 28 16 28Z" fill="white"/>
<path fill-rule="evenodd" clip-rule="evenodd" d="M16 4.54C9.67 4.54 4.54 9.67 4.54 16C4.54 22.33 9.67 27.46 16 27.46C22.33 27.46 27.46 22.33 27.46 16C27.46 9.67 22.33 4.54 16 4.54ZM3.5 16C3.5 9.1 9.1 3.5 16 3.5C22.9 3.5 28.5 9.1 28.5 16C28.5 22.9 22.9 28.5 16 28.5C9.1 28.5 3.5 22.9 3.5 16Z" fill="#D8D8D8"/>
<path d="M8.03067 10.1321L8.08165 10.1687C9.09147 10.8963 9.0699 12.2979 8.03852 13.0005C7.97773 13.0424 8.01008 13.1308 8.08656 13.1308H23.273C23.3015 13.1308 23.3289 13.1201 23.3475 13.1004C24.1995 12.2497 24.2191 10.9543 23.3946 10.0812L23.3485 10.033C23.3289 10.0125 23.3005 10 23.2701 10H8.08165C8.0042 10 7.97087 10.0884 8.03067 10.1321Z" fill="#FF5500"/>
<path d="M8.03067 14.5671L8.08165 14.6037C9.09147 15.3313 9.0699 16.7329 8.03852 17.4355C7.97773 17.4774 8.01008 17.5658 8.08656 17.5658H23.273C23.3015 17.5658 23.3289 17.5551 23.3475 17.5354C24.1995 16.6847 24.2191 15.3893 23.3946 14.5162L23.3485 14.468C23.3289 14.4475 23.3005 14.435 23.2701 14.435H8.08165C8.0042 14.435 7.97087 14.5234 8.03067 14.5671Z" fill="#FF5500"/>
<path d="M8.03067 19.0013L8.08165 19.0379C9.09147 19.7664 9.0699 21.1671 8.03852 21.8697C7.97773 21.9116 8.01008 22 8.08656 22H23.273C23.3015 22 23.3289 21.9893 23.3475 21.9696C24.1995 21.1189 24.2191 19.8235 23.3946 18.9504L23.3485 18.9022C23.3289 18.8808 23.3005 18.8692 23.2701 18.8692H8.08165C8.0042 18.8692 7.97087 18.9576 8.03067 19.0013Z" fill="#FF5500"/>
<path d="M17.9857 10.0009L18.0328 10.0348C19.1367 10.8311 19.1132 12.363 17.9857 13.1308H23.273C23.3015 13.1308 23.3289 13.1201 23.3475 13.1004C24.1995 12.2497 24.2191 10.9543 23.3946 10.0812L23.3485 10.033C23.3289 10.0125 23.3005 10 23.2701 10H17.9857V10.0009Z" fill="#6262D9"/>
<path d="M14.9631 14.4352L15.0102 14.4691C16.1141 15.2654 16.0906 16.7973 14.9631 17.5651H23.273C23.3015 17.5651 23.3289 17.5543 23.3475 17.5347C24.1995 16.6839 24.2191 15.3886 23.3946 14.5155L23.3485 14.4673C23.3289 14.4468 23.3005 14.4343 23.2701 14.4343H14.9631V14.4352Z" fill="#3D3DC7"/>
<path d="M11.5219 18.8692L11.569 18.9032C12.6729 19.6995 12.6494 21.2314 11.5219 21.9991H23.273C23.3015 21.9991 23.3289 21.9884 23.3475 21.9688C24.1995 21.118 24.2191 19.8227 23.3946 18.9496L23.3485 18.9014C23.3289 18.88 23.3005 18.8683 23.2701 18.8683H11.5219V18.8692Z" fill="#0A1E78"/>
</svg>
