<svg viewBox="0 0 32 32" fill="none" xmlns="http://www.w3.org/2000/svg">
    <path fill-rule="evenodd" clip-rule="evenodd" d="M21.508 24.781c4.69 0 8.492-3.756 8.492-8.39S26.198 8 21.508 8A8.518 8.518 0 0 0 16 10.004 8.519 8.519 0 0 0 10.492 8C5.802 8 2 11.757 2 16.39c0 4.635 3.802 8.391 8.492 8.391A8.518 8.518 0 0 0 16 22.777a8.518 8.518 0 0 0 5.508 2.004Z" fill="#ED0006"/>
    <path fill-rule="evenodd" clip-rule="evenodd" d="M16 22.777a8.332 8.332 0 0 0 2.984-6.386A8.332 8.332 0 0 0 16 10.004 8.518 8.518 0 0 1 21.508 8C26.198 8 30 11.757 30 16.39c0 4.635-3.802 8.391-8.492 8.391A8.518 8.518 0 0 1 16 22.777Z" fill="#0099DF"/>
    <path fill-rule="evenodd" clip-rule="evenodd" d="M16 22.772a8.332 8.332 0 0 0 2.984-6.386A8.332 8.332 0 0 0 16 10a8.331 8.331 0 0 0-2.983 6.386A8.332 8.332 0 0 0 16 22.772Z" fill="#6C6BBD"/>
</svg>
