<svg viewBox="0 0 32 32" xmlns="http://www.w3.org/2000/svg"><g fill="none" fill-rule="evenodd"><circle fill="#168DE2" cx="16" cy="16" r="12"/><g transform="translate(8 9)"><ellipse fill="#FF7000" cx="11.831" cy="7.854" rx="4.169" ry="4.146"/><ellipse fill="#FFAC02" cx="7.593" cy="7.618" rx="4.407" ry="4.382"/><path d="M9.743 11.444a4.14 4.14 0 0 1-2.082-3.59 4.146 4.146 0 0 1 2.498-3.8 4.369 4.369 0 0 1-.416 7.39Z" fill="#FF9F00"/><ellipse fill="#FECD00" cx="3.356" cy="8.663" rx="3.356" ry="3.337"/><path d="M5.317 11.371a4.375 4.375 0 0 1-2.13-3.753c0-.827.23-1.6.63-2.26a3.344 3.344 0 0 1 2.895 3.305c0 1.115-.55 2.102-1.395 2.708Z" fill="#FFD302"/><ellipse fill="#FFB503" cx="4.644" cy="4.618" rx="2.814" ry="2.798"/><path d="M3.225 7.034a4.397 4.397 0 0 1 3.88-3.772c.225.402.353.864.353 1.356a2.806 2.806 0 0 1-2.814 2.798 2.813 2.813 0 0 1-1.419-.382Z" fill="#FFC403"/><path d="M2.01 5.605a3.36 3.36 0 0 1 1.346-.28c1.216 0 2.281.644 2.87 1.607-.451.305-.995.484-1.582.484a2.814 2.814 0 0 1-2.633-1.811Z" fill="#FFD803"/><ellipse fill="#FF9606" cx="8.441" cy="3.742" rx="3.763" ry="3.742"/><path d="M5.181 1.871a2.803 2.803 0 0 1 2.277 2.747c0 .91-.438 1.72-1.115 2.23a3.732 3.732 0 0 1-1.162-4.977Z" fill="#FFC003"/><path d="M4.719 4.296a4.404 4.404 0 0 1 2.874-1.06 4.409 4.409 0 0 1 4.002 2.545 3.765 3.765 0 0 1-3.154 1.702 3.757 3.757 0 0 1-3.722-3.187Z" fill="#FFBE02"/><path d="M7.685 7.408a4.162 4.162 0 0 1 4.518-3.684v.018c0 2.066-1.684 3.741-3.762 3.741a3.8 3.8 0 0 1-.756-.075Z" fill="#FF8B00"/><path d="M7.685 7.408a4.152 4.152 0 0 1 2.474-3.353 4.405 4.405 0 0 1 1.436 1.726 3.765 3.765 0 0 1-3.91 1.627Z" fill="#FFB200"/><path d="M3.225 7.034a4.338 4.338 0 0 1 .592-1.677 3.358 3.358 0 0 1 2.409 1.575c-.451.305-.995.484-1.582.484a2.813 2.813 0 0 1-1.419-.382Z" fill="#FFDE03"/><path d="M4.719 4.296a4.4 4.4 0 0 1 2.387-1.034 2.788 2.788 0 0 1-.763 3.586 3.74 3.74 0 0 1-1.624-2.552Z" fill="#FFCD03"/></g></g></svg>