<svg viewBox="0 0 32 32" xmlns="http://www.w3.org/2000/svg"><g fill="none" fill-rule="evenodd"><circle fill="#168DE2" cx="16" cy="16" r="12"/><path d="M18.763 15.929c-.09-1.73-1.404-2.768-2.99-2.768h-.06c-1.83 0-2.845 1.405-2.845 3.003 0 1.789 1.228 2.918 2.839 2.918 1.795 0 2.975-1.285 3.06-2.804l-.004-.35Zm-3.04-4.315c1.222 0 2.372.528 3.216 1.355v.003c0-.397.273-.696.653-.696h.096c.594 0 .716.549.716.722l.002 6.173c-.041.404.428.612.687.353 1.015-1.018 2.228-5.236-.63-7.68-2.664-2.278-6.239-1.903-8.14-.622-2.02 1.361-3.314 4.376-2.057 7.206 1.369 3.089 5.287 4.009 7.616 3.09 1.179-.464 1.724 1.094.5 1.602-1.852.77-7.002.693-9.408-3.38-1.626-2.75-1.54-7.588 2.772-10.095 3.299-1.918 7.647-1.386 10.269 1.29 2.741 2.796 2.58 8.035-.093 10.072-1.21.925-3.01.024-2.998-1.324l-.013-.441a4.553 4.553 0 0 1-3.188 1.295c-2.416 0-4.543-2.077-4.543-4.437 0-2.385 2.127-4.486 4.543-4.486Z" fill="#FFA930"/></g></svg>