<svg viewBox="0 0 32 32" fill="none" xmlns="http://www.w3.org/2000/svg"><path d="M28 16c0 6.627-5.373 12-12 12S4 22.627 4 16 9.373 4 16 4s12 5.373 12 12Z" fill="#77D563"/><path d="M11.627 18.506a.12.12 0 0 0-.171 0l-1.989 1.987.129.61c.201 1.05 1.226 1.777 2.276 1.575l3.047-.585a.105.105 0 0 0 .055-.178l-3.347-3.409ZM11.032 18.051c.05-.05.05-.13.001-.18l-2.262-2.304a.128.128 0 0 0-.217.114l.735 3.825c.02.1.143.139.216.067l1.527-1.522ZM14.607 14.271c.06.06.158.061.218.001l3.56-3.547a.12.12 0 0 0-.107-.203l-5.967 1.146a.12.12 0 0 0-.063.203l2.36 2.4ZM21.484 14.954l2.289 2.304a.108.108 0 0 0 .183-.096l-.731-3.886a.108.108 0 0 0-.183-.057l-1.557 1.539a.14.14 0 0 0-.001.196ZM18.397 11.802l2.449 2.505a.15.15 0 0 0 .214.002l1.982-1.961-.125-.744c-.202-1.05-1.192-1.744-2.242-1.543l-.89.161-1.386 1.367a.15.15 0 0 0-.002.213ZM11.654 17.381l2.497-2.44a.166.166 0 0 0 .002-.235l-2.784-2.83-1.515.264c-.992.19-1.665 1.061-1.568 2.047l3.134 3.192c.064.065.169.066.234.002ZM17.908 17.471l2.543-2.521a.11.11 0 0 0 0-.154l-2.533-2.572a.11.11 0 0 0-.155 0l-2.53 2.529a.11.11 0 0 0 0 .153l2.52 2.564a.11.11 0 0 0 .155.001ZM17.905 18.519a.122.122 0 0 0-.173-.001l-2.535 2.528a.122.122 0 0 0 0 .172l.671.673 4.26-.82a.124.124 0 0 0 .065-.208l-2.288-2.344ZM24.222 18.625l-3.168-3.215a.14.14 0 0 0-.199 0l-2.481 2.494a.14.14 0 0 0 0 .196l2.725 2.773 1.594-.306c.943-.181 1.55-1.012 1.53-1.942ZM14.68 17.27a.708.708 0 1 0 0 1.417.708.708 0 0 0 0-1.416ZM12.647 11.236l.59-.129a.152.152 0 0 0 .119-.137l-.009-.269c.016-.212.124-.43.262-.592.162-.19.35-.34.59-.388l1.423-.292c.321-.065.78.085 1.03.356.162.18.252.368.294.479.022.056.08.088.139.078l.577-.106a.124.124 0 0 0 .1-.148c-.035-.152-.14-.438-.457-.845-.34-.458-1.194-.748-1.814-.623l-1.402.283c-.698.14-1.318.652-1.485 1.368-.093.285-.096.664-.09.861a.11.11 0 0 0 .133.104Z" fill="#fff"/></svg>