<svg viewBox="0 0 32 32" fill="none" xmlns="http://www.w3.org/2000/svg"><path fill-rule="evenodd" clip-rule="evenodd" d="M16 4C9.4 4 4 9.4 4 16s5.4 12 12 12 12-5.4 12-12S22.6 4 16 4Z" fill="#00B956"/><path fill-rule="evenodd" clip-rule="evenodd" d="M10.9 19.567a.896.896 0 0 0-.89.904.898.898 0 0 0 .876.917c.488.003.886-.4.89-.904.004-.503-.389-.913-.876-.917ZM12.842 19.582c-.488-.004-.886.4-.89.904-.003.502.39.913.877.917.487.004.885-.401.889-.904.003-.502-.389-.913-.876-.917Z" fill="#731982"/><path fill-rule="evenodd" clip-rule="evenodd" d="M14.784 19.597c-.488-.004-.886.4-.89.904-.003.503.389.913.877.917.487.004.885-.4.89-.903.003-.503-.39-.914-.877-.918Z" fill="#fff"/><path fill-rule="evenodd" clip-rule="evenodd" d="m17.57 15.578-1.326-1.982h-.615l-1.325 1.982.653.464.58-.869v3.696h.796v-3.698l.583.87.654-.463Zm6.304 1.608c-.006 2.346-1.63 3.984-3.948 3.984h-3.913v-.961h3.913c1.8 0 3.01-1.216 3.015-3.024.003-1.525-1.076-2.914-2.458-3.163l-.375-.068-.011-.392a2.89 2.89 0 0 0-2.896-2.824c-.797 0-2.18.511-2.724 1.917l-.2.513-.465-.275a2.108 2.108 0 0 0-1.076-.315c-.587 0-1.044.285-1.277.53-.246.259-.78.966-.439 1.946l.17.487-.484.139c-.766.218-1.873 1.186-1.873 2.365 0 .69.141 1.154.472 1.55.118.14.256.257.405.352V21a2.626 2.626 0 0 1-1.111-.778c-.483-.578-.699-1.25-.699-2.178 0-1.514 1.145-2.654 2.121-3.124-.235-1.294.513-2.214.772-2.485.655-.692 1.81-1.097 3.032-.6.764-1.411 2.235-2.059 3.376-2.059 1.96 0 3.561 1.457 3.798 3.381 1.667.482 2.879 2.149 2.875 4.028Z" fill="#fff"/></svg>