<svg viewBox="0 0 32 32" fill="none" xmlns="http://www.w3.org/2000/svg"><path d="M16 28c6.627 0 12-5.373 12-12S22.627 4 16 4 4 9.373 4 16s5.373 12 12 12Z" fill="#00B956"/><path fill-rule="evenodd" clip-rule="evenodd" d="M11.002 19.125a.793.793 0 0 0-1.098.118c-.27.33-.216.81.12 1.073a.793.793 0 0 0 1.098-.117.752.752 0 0 0-.12-1.074ZM12.1 20.464a.792.792 0 0 0-1.097.117c-.27.33-.216.81.12 1.074a.792.792 0 0 0 1.098-.118.752.752 0 0 0-.121-1.073Z" fill="#731982"/><path fill-rule="evenodd" clip-rule="evenodd" d="M13.682 21.227a.793.793 0 0 0-1.098.118c-.27.329-.216.81.12 1.073a.793.793 0 0 0 1.098-.118.752.752 0 0 0-.12-1.073Z" fill="#fff"/><path fill-rule="evenodd" clip-rule="evenodd" d="m14.16 22.756.263-.965a6 6 0 1 0-3.906-3.35l-.914.407a7 7 0 1 1 4.557 3.908Z" fill="#fff"/><path fill-rule="evenodd" clip-rule="evenodd" d="M17.738 14.13v-.808h-3.556v5.588h3.556v-.809h-2.729v-1.723l2.377-.001v-.81c-1.316 0-2.01.002-2.377.003v-1.44h2.729Z" fill="#FEFEFE"/></svg>