<svg viewBox="0 0 32 32" fill="none" xmlns="http://www.w3.org/2000/svg"><path d="M16 28c6.627 0 12-5.373 12-12S22.627 4 16 4 4 9.373 4 16s5.373 12 12 12Z" fill="#000"/><path fill-rule="evenodd" clip-rule="evenodd" d="M9.863 12.478c.024 0 .043-.333.043-.74 0-.405-.017-.738-.038-.738-.02 0-.408.177-.86.393l-.824.393.171.071.819.346c.355.151.666.275.69.275Zm5.773.672c-.075-.038-1.268-.537-2.649-1.11A144.42 144.42 0 0 0 10.44 11c-.019 0-.029.39-.021.867l.014.866.3.124c.166.068 1.355.565 2.643 1.104 1.289.539 2.355.98 2.37.98.016 0 .028-.388.028-.86v-.862l-.138-.069Zm5.957-.442v-.854c0-.653-.015-.853-.063-.85-.035.003-1.242.496-2.684 1.096l-2.62 1.09v.876c0 .481.01.875.022.875.021 0 4.923-2.044 5.206-2.17l.139-.063Zm2.156-.923c0-.017-.344-.192-.765-.39-.42-.196-.793-.368-.827-.381-.049-.02-.063.144-.063.72 0 .409.015.744.033.744.069 0 1.622-.664 1.622-.693ZM9.881 13.012l-.702-.296c-.387-.163-.81-.338-.94-.39L8 12.233v8.422l.95-.825.952-.825-.01-2.996-.011-2.997ZM16.06 21h-.204c-4.892 0-7.509-.017-7.477-.048.027-.027.455-.403.95-.836l.902-.788L16 19.33l5.768.001.903.793c.496.435.91.811.92.834.009.024-3.302.043-7.53.043ZM24 20.664v-4.216c0-2.32-.017-4.214-.038-4.212-.02.003-.444.177-.94.387l-.903.382-.014 3-.013 3 .12.099c.135.111 1.128.975 1.525 1.327l.263.233Zm-8.006-5.132c-.047 0-1.26-.49-2.698-1.09-1.437-.6-2.675-1.122-2.75-1.16l-.138-.068v5.618H21.593v-2.81c0-2.66-.005-2.806-.088-2.764-.289.148-5.44 2.274-5.51 2.274Z" fill="#5CC0B1"/></svg>