<svg viewBox="0 0 32 32" xmlns="http://www.w3.org/2000/svg" xmlns:xlink="http://www.w3.org/1999/xlink"><defs><path id="a" d="M0 0h24v24H0z"/></defs><g transform="translate(4 4)" fill="none" fill-rule="evenodd"><mask id="b" fill="#fff"><use xlink:href="#a"/></mask><path fill="#731982" mask="url(#b)" d="M7.522 14 4 15.703 7.322 19.5l1.975-3.706z"/><path d="M12.2 18.9c-.7 0-1.2 0-1.7-.2l.2-.8c.4.1.9.2 1.4.2 3.4 0 6.2-2.8 6.2-6.2 0-3.4-2.8-6.2-6.2-6.2-3.4 0-6.2 2.8-6.2 6.2 0 .8.1 1.6.4 2.3l-.8.3c-.3-.7-.5-1.6-.5-2.5 0-3.8 3.1-7 7-7s7 3.2 7.2 6.9c0 3.9-3.1 7-7 7Zm-2.3-4V9.2l5.5 2.9-5.5 2.8Zm-.7 3.8a.8.8 0 1 1 .001-1.6.8.8 0 0 1 0 1.6Zm-1.6-.8a.8.8 0 1 1 0-1.6.8.8 0 0 1 0 1.6Zm-1.8-2.2a.8.8 0 1 1 1.598-.001.8.8 0 0 1-1.598.001ZM12 0C5.4 0 0 5.4 0 12s5.4 12 12 12 12-5.4 12-12S18.6 0 12 0Z" fill="#44B759" mask="url(#b)"/></g></svg>