<svg viewBox="0 0 32 32" xmlns="http://www.w3.org/2000/svg">
    <g clip-path="url(#a)" fill-rule="evenodd" clip-rule="evenodd">
        <path d="M26.47 12.286h-5.125c.275 1.708 1.928 3.306 3.747 3.306h4.077c.055-.165.055-.386.055-.551a2.728 2.728 0 0 0-2.755-2.755Z" fill="url(#b)"/>
        <path d="M21.786 15.867V20h2.48v-2.204h2.203c1.213 0 2.26-.827 2.59-1.929h-7.273ZM12.97 12.286V20h2.203s.551 0 .827-.551l1.928-3.857h.276V20h2.48v-7.714H18.48s-.552.055-.827.55l-1.929 3.858h-.275v-4.408h-2.48ZM2.5 20v-7.714h2.48s.716 0 1.102 1.102c.991 2.92 1.102 3.306 1.102 3.306s.22-.716 1.102-3.306c.385-1.102 1.102-1.102 1.102-1.102h2.48V20h-2.48v-4.133h-.276L7.735 20H6.633l-1.378-4.133H4.98V20H2.5Z" fill="#4DB45F"/>
    </g>
    <defs>
        <linearGradient id="b" x1="21.331" y1="13.939" x2="29.224" y2="13.939" gradientUnits="userSpaceOnUse">
            <stop stop-color="#00B4E6"/>
            <stop offset="1" stop-color="#088CCB"/>
        </linearGradient>
        <clipPath id="a">
            <path fill="#fff" d="M2.5 12.286h27V20h-27z"/>
        </clipPath>
    </defs>
</svg>
