<svg viewBox="0 0 32 32" fill="none" xmlns="http://www.w3.org/2000/svg">
<path d="M16 28C22.6274 28 28 22.6274 28 16C28 9.37258 22.6274 4 16 4C9.37258 4 4 9.37258 4 16C4 22.6274 9.37258 28 16 28Z" fill="#00B956"/>
<path fill-rule="evenodd" clip-rule="evenodd" d="M11.508 16.3044H20.508V21.3044H18.646V22.3044H20.508C21.0603 22.3044 21.508 21.8566 21.508 21.3044V16.3044C21.508 15.7521 21.0603 15.3044 20.508 15.3044H11.508C10.9557 15.3044 10.508 15.7521 10.508 16.3044V21.3044C10.508 21.8566 10.9557 22.3044 11.508 22.3044H12.346V21.3044H11.508V16.3044Z" fill="white"/>
<path d="M19.1118 10.0717L10.5806 12.9385C10.3189 13.0265 10.178 13.31 10.266 13.5717L10.5845 14.5196C10.6725 14.7814 10.956 14.9223 11.2177 14.8343L19.7489 11.9675C20.0107 11.8795 20.1516 11.596 20.0636 11.3343L19.7451 10.3864C19.6571 10.1246 19.3736 9.98371 19.1118 10.0717Z" stroke="white"/>
<path d="M20.8724 17.2839H10.508V18.2839H20.8724V17.2839Z" fill="white"/>
<path d="M15.4738 16.2149L14.7667 15.5078L12.8979 17.3766L13.605 18.0837L15.4738 16.2149Z" fill="white"/>
<path d="M14.46 12.0119L13.5645 11.5669L12.3883 13.9336L13.2839 14.3787L14.46 12.0119Z" fill="white"/>
<path d="M19.1416 16.1633L18.4345 15.4562L16.5141 17.3766L17.2212 18.0837L19.1416 16.1633Z" fill="white"/>
<path d="M17.9446 10.8874L17.0491 10.4424L15.8404 12.8745L16.7359 13.3196L17.9446 10.8874Z" fill="white"/>
<path d="M11.008 20.8043V15.9814C11.008 15.8749 10.991 15.7692 10.9576 15.6681L10.2521 13.5295" stroke="white"/>
<path fill-rule="evenodd" clip-rule="evenodd" d="M13.5397 20.9C13.052 20.8963 12.6538 21.3008 12.6502 21.8034C12.6465 22.3065 13.0388 22.7166 13.5262 22.7207C14.0139 22.7241 14.412 22.32 14.4157 21.817C14.4194 21.3144 14.0271 20.9038 13.5397 20.9Z" fill="#731982"/>
<path fill-rule="evenodd" clip-rule="evenodd" d="M15.5026 20.9C15.0152 20.8963 14.6171 21.3009 14.6131 21.8039C14.6098 22.3065 15.002 22.7169 15.4894 22.7207C15.9768 22.7245 16.3753 22.3201 16.3789 21.8174C16.3822 21.3147 15.99 20.9038 15.5026 20.9Z" fill="#731982"/>
<path fill-rule="evenodd" clip-rule="evenodd" d="M17.4655 20.9C16.9781 20.8963 16.5796 21.3009 16.576 21.8039C16.5727 22.3065 16.9646 22.7169 17.4523 22.7207C17.9397 22.7245 18.3378 22.3201 18.3418 21.8174C18.3451 21.3144 17.9529 20.9038 17.4655 20.9Z" fill="white"/>
</svg>
