<svg viewBox="0 0 32 32" fill="none" xmlns="http://www.w3.org/2000/svg"><path d="M16 28c6.627 0 12-5.373 12-12S22.627 4 16 4 4 9.373 4 16s5.373 12 12 12Z" fill="#00B956"/><path fill-rule="evenodd" clip-rule="evenodd" d="M11.508 16.304h9v5h-1.862v1h1.862a1 1 0 0 0 1-1v-5a1 1 0 0 0-1-1h-9a1 1 0 0 0-1 1v5a1 1 0 0 0 1 1h.838v-1h-.838v-5Z" fill="#fff"/><path d="m19.112 10.072-8.531 2.867a.5.5 0 0 0-.315.633l.319.948a.5.5 0 0 0 .633.314l8.53-2.867a.5.5 0 0 0 .316-.633l-.319-.948a.5.5 0 0 0-.633-.314Z" stroke="#fff"/><path d="M20.872 17.284H10.508v1h10.364v-1Z" fill="#fff"/><path d="m15.474 16.215-.707-.707-1.87 1.869.708.707 1.869-1.87ZM14.46 12.012l-.896-.445-1.176 2.367.896.445 1.176-2.367ZM19.142 16.163l-.707-.707-1.92 1.92.706.708 1.92-1.92ZM17.945 10.887l-.896-.445-1.209 2.432.896.446 1.209-2.433Z" fill="#fff"/><path d="M11.008 20.804v-4.823a.998.998 0 0 0-.05-.313l-.706-2.138" stroke="#fff"/><path fill-rule="evenodd" clip-rule="evenodd" d="M13.54 20.9a.896.896 0 0 0-.89.903.897.897 0 0 0 .876.918c.488.003.886-.401.89-.904.003-.503-.389-.913-.876-.917ZM15.503 20.9c-.488-.004-.886.4-.89.904-.003.503.389.913.876.917.488.003.886-.4.89-.904.003-.502-.389-.913-.876-.917Z" fill="#731982"/><path fill-rule="evenodd" clip-rule="evenodd" d="M17.465 20.9c-.487-.004-.885.4-.889.904-.003.503.389.913.876.917.488.003.886-.4.89-.904.003-.503-.39-.913-.877-.917Z" fill="#fff"/></svg>