<svg viewBox="0 0 32 32" fill="none" xmlns="http://www.w3.org/2000/svg">
<path d="M16 28C22.6274 28 28 22.6274 28 16C28 9.37258 22.6274 4 16 4C9.37258 4 4 9.37258 4 16C4 22.6274 9.37258 28 16 28Z" fill="#FF6700"/>
<path d="M22.8528 12H20.9553C20.8741 12 20.8083 12.0578 20.8083 12.129V19.8708C20.8083 19.9414 20.8741 19.9991 20.9553 19.9991H22.8528C22.9333 19.9991 23 19.9413 23 19.8707V12.129C23 12.0578 22.9333 12 22.8528 12ZM16.3741 12H9.14656C9.06531 12 9 12.0578 9 12.129V19.8708C9 19.9414 9.06531 19.9991 9.14656 19.9991H11.0444C11.1252 19.9991 11.1922 19.9413 11.1922 19.8707V13.7946C11.1922 13.7245 11.2575 13.6662 11.3387 13.6662H15.4269C16.5765 13.6662 16.9029 14.4536 16.9029 14.9616V19.8708C16.9029 19.9414 16.9689 19.9991 17.0501 19.9991H18.9469C19.0277 19.9991 19.0939 19.9413 19.0939 19.8707V14.3787C19.0939 13.9257 19.033 13.2743 18.3793 12.7009C17.6955 12.1024 17.0716 12 16.3741 12Z" fill="white"/>
<path d="M15.0447 15.084H13.0522C12.971 15.084 12.9043 15.1418 12.9043 15.2126V19.8718C12.9043 19.9422 12.971 20 13.0522 20H15.0447C15.1253 20 15.1913 19.9422 15.1913 19.8718V15.2126C15.1913 15.1418 15.1253 15.084 15.0447 15.084Z" fill="white"/>
</svg>
