<svg viewBox="0 0 32 32" fill="none" xmlns="http://www.w3.org/2000/svg"><path d="M16 28c6.6 0 12-5.4 12-12S22.6 4 16 4 4 9.4 4 16s5.4 12 12 12Z" fill="#fff"/><path d="M24.3 16.4c0-1.8 1.4-3.2 3.2-3.2h.1C26.4 7.9 21.7 4 16 4 10.3 4 5.6 7.9 4.3 13.2h.2c.9 0 1.8.5 2.3 1.2.5-.8 1.4-1.2 2.3-1.2 1.5 0 2.7 1.2 2.8 2.7v3.5H11v-3.5c0-1-.8-1.8-1.8-1.8s-1.8.8-1.8 1.8v3.5H6.3v-3.5c0-1-.8-1.8-1.8-1.8h-.3C4 14.7 4 15.4 4 16c0 6.6 5.4 12 12 12 5.4 0 9.9-3.5 11.5-8.4-1.8 0-3.2-1.4-3.2-3.2Zm-8.1 3.2c-1.8 0-3.2-1.5-3.2-3.2 0-1.8 1.4-3.2 3.2-3.2 1.8 0 3.2 1.4 3.2 3.2.1 1.8-1.4 3.2-3.2 3.2Zm7.3-5.5c-1 0-1.9.8-1.9 1.8v3.5h-.9v-3.5c0-1.5 1.2-2.7 2.7-2.7h.1v.9Z" fill="#1D1D1B"/><path d="M27.5 14.1c-1 0-1.9.7-2.2 1.6H28c0-.5-.1-1.1-.1-1.6h-.4Zm-2.2 2.5c.1 1.2 1.1 2.1 2.3 2.1h.2c.2-.7.2-1.4.3-2.1h-2.8Z" fill="#1D1D1B"/></svg>