<svg viewBox="0 0 32 32" fill="none" xmlns="http://www.w3.org/2000/svg">
<path d="M16 28C22.6 28 28 22.6 28 16C28 9.4 22.6 4 16 4C9.4 4 4 9.4 4 16C4 22.6 9.4 28 16 28Z" fill="white"/>
<path d="M24.3 16.4C24.3 14.6 25.7 13.2 27.5 13.2H27.6C26.4 7.9 21.7 4 16 4C10.3 4 5.6 7.9 4.3 13.2H4.5C5.4 13.2 6.3 13.7 6.8 14.4C7.3 13.6 8.2 13.2 9.1 13.2C10.6 13.2 11.8 14.4 11.9 15.9V19.4H11V15.9C11 14.9 10.2 14.1 9.2 14.1C8.2 14.1 7.4 14.9 7.4 15.9V19.4H6.3V15.9C6.3 14.9 5.5 14.1 4.5 14.1H4.2C4 14.7 4 15.4 4 16C4 22.6 9.4 28 16 28C21.4 28 25.9 24.5 27.5 19.6C25.7 19.6 24.3 18.2 24.3 16.4ZM16.2 19.6C14.4 19.6 13 18.1 13 16.4C13 14.6 14.4 13.2 16.2 13.2C18 13.2 19.4 14.6 19.4 16.4C19.5 18.2 18 19.6 16.2 19.6ZM23.5 14.1C22.5 14.1 21.6 14.9 21.6 15.9V19.4H20.7V15.9C20.7 14.4 21.9 13.2 23.4 13.2H23.5V14.1Z" fill="#1D1D1B"/>
<path d="M27.5 14.1C26.5 14.1 25.6 14.8 25.3 15.7H28C28 15.2 27.9 14.6 27.9 14.1H27.5ZM25.3 16.6C25.4 17.8 26.4 18.7 27.6 18.7H27.8C28 18 28 17.3 28.1 16.6H25.3Z" fill="#1D1D1B"/>
</svg>
