<svg width="32" height="32" fill="none" xmlns="http://www.w3.org/2000/svg"><rect x="4" y="4" width="24" height="24" rx="12" fill="#000"/><path d="M10.917 14.574a.455.455 0 0 0-.402.264l-.888 2.114h-.02l-.888-2.114a.445.445 0 0 0-.402-.264.317.317 0 0 0-.317.317v2.568a.296.296 0 0 0 .306.296.307.307 0 0 0 .296-.307v-1.437h.022l.58 1.437a.486.486 0 0 0 .455.296.423.423 0 0 0 .391-.264l.581-1.437v1.395a.307.307 0 0 0 .307.306.295.295 0 0 0 .296-.285V14.88a.306.306 0 0 0-.317-.306ZM13.58 15.303a.296.296 0 0 0-.307.296v1.13a.53.53 0 0 1-.158.392.539.539 0 0 1-.761 0 .56.56 0 0 1-.148-.391v-1.12a.317.317 0 0 0-.317-.307.285.285 0 0 0-.285.285v1.195c-.012.277.083.55.264.76a.877.877 0 0 0 .687.286.95.95 0 0 0 .465-.116.907.907 0 0 0 .296-.307h.01v.064a.285.285 0 0 0 .285.285.265.265 0 0 0 .265-.264v-1.892a.284.284 0 0 0-.296-.296ZM18.452 15.23a1.31 1.31 0 0 0-1.243.793c-.068.16-.101.333-.1.506a1.25 1.25 0 0 0 .392.92 1.321 1.321 0 0 0 .95.38 1.3 1.3 0 0 0 .984-.433.233.233 0 0 0-.17-.38.624.624 0 0 0-.39.137l-.096.074a.708.708 0 0 1-.771-.064.613.613 0 0 1-.243-.349h1.733a.274.274 0 0 0 .275-.274 1.259 1.259 0 0 0-.38-.93 1.331 1.331 0 0 0-.941-.38Zm.666 1.046h-1.332c-.01 0-.021 0-.01-.011a.645.645 0 0 1 .221-.37.697.697 0 0 1 .455-.159.676.676 0 0 1 .676.529c0 .01 0 .01-.01.01ZM21.273 15.23a.74.74 0 0 0-.665.411h-.01v-.074a.265.265 0 0 0-.276-.264.264.264 0 0 0-.264.264v1.892a.297.297 0 0 0 .307.296.285.285 0 0 0 .274-.285v-1.12a.56.56 0 0 1 .351-.477.509.509 0 0 1 .199-.03h.063a.084.084 0 0 0 .074-.075v-.497a.053.053 0 0 0-.053-.042ZM22.351 15.768h.19a.232.232 0 1 0-.02-.465h-.17a.032.032 0 0 1-.01-.021v-.243a.296.296 0 0 0-.296-.296.306.306 0 0 0-.307.306v.233a.031.031 0 0 1-.01.021.212.212 0 0 0-.212.211v.043a.211.211 0 0 0 .212.211h.01v1.247a.729.729 0 0 0 .201.54c.153.13.349.198.55.19a.275.275 0 0 0 .274-.275.264.264 0 0 0-.264-.254h-.01a.19.19 0 0 1-.106-.042.15.15 0 0 1-.042-.117V15.78l.01-.01ZM23.852 14.648a.518.518 0 0 0-.554-.11.507.507 0 1 0 .554.11Zm-.053.676a.423.423 0 0 1-.306.127.444.444 0 1 1 .166-.856c.053.022.1.054.14.095a.433.433 0 0 1 0 .634Z" fill="#fff"/><path d="M23.767 14.88a.19.19 0 0 0-.063-.148.21.21 0 0 0-.158-.063h-.275c-.01 0-.01.01-.01.021v.624a.01.01 0 0 0 .002.007.01.01 0 0 0 .008.003h.105v-.211c0-.01 0-.021.011-.021h.127l.116.222c0 .01 0 .01.01.01h.106c.011 0 .011-.01.011-.02l-.116-.223a.01.01 0 0 1 .01-.01.212.212 0 0 0 .116-.19Zm-.221.095h-.159c-.01 0-.01-.01-.01-.02v-.149h.169c.063 0 .095.022.095.085a.084.084 0 0 1-.095.085ZM15.577 15.219c-.26 0-.513.078-.729.222v-.571a.287.287 0 0 0-.18-.277.287.287 0 0 0-.116-.02.306.306 0 0 0-.306.307v2.547a.328.328 0 0 0 .327.328.275.275 0 0 0 .275-.233 1.268 1.268 0 1 0 .73-2.304Zm0 1.934a.676.676 0 0 1-.676-.666.676.676 0 0 1 .676-.677.676.676 0 0 1 .666.677.666.666 0 0 1-.666.666Z" fill="#fff"/><path d="M16 27.5c6.351 0 11.5-5.149 11.5-11.5S22.351 4.5 16 4.5 4.5 9.649 4.5 16 9.649 27.5 16 27.5Z" stroke="#D8D8D8"/></svg>