<svg viewBox="0 0 32 32" xmlns="http://www.w3.org/2000/svg"><g transform="translate(4 4)" fill="none" fill-rule="evenodd"><circle fill="#F4731C" cx="12" cy="12" r="12"/><path d="M13.817 15.228a7.135 7.135 0 0 0 2.215-.916 1.117 1.117 0 0 0-1.19-1.89 4.839 4.839 0 0 1-5.13 0 1.116 1.116 0 0 0-1.539.347l-.001.003a1.115 1.115 0 0 0 .349 1.538l.001.001c.68.428 1.428.738 2.212.916l-2.131 2.131a1.105 1.105 0 0 0-.018 1.56l.019.02c.211.217.498.325.784.325.286 0 .572-.108.784-.326l2.104-2.094 2.094 2.096a1.117 1.117 0 0 0 1.579-1.578l-2.132-2.133Zm-1.54-3.107a3.815 3.815 0 0 0 3.81-3.81c0-2.1-1.71-3.811-3.81-3.811-2.101 0-3.812 1.71-3.812 3.812a3.814 3.814 0 0 0 3.811 3.81v-.001Zm0-5.387a1.579 1.579 0 1 1-1.578 1.579 1.581 1.581 0 0 1 1.577-1.58Z" fill="#FFF" fill-rule="nonzero"/></g></svg>