<svg viewBox="0 0 32 32" fill="none" xmlns="http://www.w3.org/2000/svg"><path d="M28 16c0 6.627-5.373 12-12 12S4 22.627 4 16 9.373 4 16 4s12 5.373 12 12Z" fill="#fff"/><path fill-rule="evenodd" clip-rule="evenodd" d="M3.5 16C3.5 9.096 9.096 3.5 16 3.5S28.5 9.096 28.5 16 22.904 28.5 16 28.5 3.5 22.904 3.5 16ZM16 4.5C9.649 4.5 4.5 9.649 4.5 16S9.649 27.5 16 27.5 27.5 22.351 27.5 16 22.351 4.5 16 4.5Z" fill="#D8D8D8"/><path d="m17.719 18.085.242-.368 1.046 1.224h1.421l-1.85-2.163 1.651-2.504h-1.285l-1.225 1.86v-3.502h-1.056v6.309h1.056v-.856Zm-4.072 0 .242-.365 1.047 1.224h1.421l-1.85-2.166 1.65-2.504h-1.284l-1.226 1.86v-3.502h-1.056v6.309h1.056v-.856Zm6.197-1.537c0 1.353 1.043 2.452 2.328 2.452s2.328-1.099 2.328-2.452-1.043-2.452-2.328-2.452-2.328 1.096-2.328 2.452ZM9.828 14.096c-1.285 0-2.328 1.096-2.328 2.452C7.5 17.901 8.543 19 9.828 19s2.328-1.099 2.328-2.452c.003-1.356-1.04-2.452-2.328-2.452Zm-.02-1.596a.541.541 0 0 0-.528.556c0 .307.236.557.528.557.292 0 .528-.25.528-.557a.541.541 0 0 0-.528-.556Zm1.292 0a.541.541 0 0 0-.528.556c0 .307.236.557.528.557.292 0 .528-.25.528-.557a.539.539 0 0 0-.528-.556Zm-2.564 0a.541.541 0 0 0-.528.556c0 .307.236.557.528.557.292 0 .528-.25.528-.557a.541.541 0 0 0-.528-.556Zm.02 4.048c0-.737.571-1.339 1.272-1.339.7 0 1.272.602 1.272 1.34 0 .736-.571 1.338-1.272 1.338-.7 0-1.272-.602-1.272-1.339Zm12.344 0c0-.737.571-1.339 1.272-1.339.7 0 1.272.602 1.272 1.34 0 .736-.571 1.338-1.272 1.338-.7 0-1.272-.602-1.272-1.339Z" fill="#000"/></svg>