<svg viewBox="0 0 32 32" fill="none" xmlns="http://www.w3.org/2000/svg">
<circle cx="16.0007" cy="16" r="12" fill="#005BFF"/>
<path fill-rule="evenodd" clip-rule="evenodd" d="M14.1231 27.854L15.4256 14.5033L16.8802 13.2427L19.8055 12.4878L26.7679 21.3039C24.8099 25.271 20.7239 28 16.0006 28C15.3619 28 14.7348 27.9501 14.1231 27.854Z" fill="#F91155"/>
<path d="M27.9242 14.6371L23.8734 12.8314L24.4497 14.9818C24.5566 15.3808 24.2837 15.7902 23.8545 15.8117C23.547 15.8273 23.2734 15.6038 23.1921 15.3004L22.0124 10.8984C21.9711 10.744 22.1225 10.6116 22.266 10.6756L26.3945 12.5155L25.8232 10.3838C25.7419 10.0804 25.8676 9.75049 26.1407 9.60994C26.1455 9.60751 26.1503 9.60508 26.1551 9.60272C27.0951 11.0916 27.7167 12.8016 27.9242 14.6371Z" fill="white"/>
<path fill-rule="evenodd" clip-rule="evenodd" d="M4.00073 16.0001C4.00073 17.6349 4.32771 19.1934 4.91973 20.6137C5.30859 20.7286 5.71896 20.7574 6.12276 20.6945C7.86778 20.4112 8.89581 18.5854 8.26243 16.8952C8.02977 16.2853 7.59939 15.7731 7.04339 15.444C6.48732 15.115 5.83936 14.9893 5.20776 15.0877C4.75352 15.1615 4.34794 15.3398 4.00752 15.5931C4.00302 15.7282 4.00073 15.8639 4.00073 16.0001ZM7.13757 17.7007C7.23089 18.3745 6.85689 19.0388 6.2413 19.2923C6.03129 19.3797 5.80385 19.4165 5.57655 19.4C5.34917 19.3835 5.12809 19.314 4.93023 19.1969C4.73237 19.0798 4.56309 18.9183 4.4354 18.7248C4.30771 18.5313 4.2251 18.311 4.19388 18.0808C4.10013 17.4076 4.4742 16.7433 5.09008 16.4891C5.30008 16.4017 5.52753 16.3649 5.7549 16.3814C5.9822 16.398 6.20336 16.4675 6.40122 16.5845C6.59901 16.7016 6.76836 16.8631 6.89598 17.0566C7.02367 17.2501 7.10634 17.4705 7.13757 17.7007Z" fill="white"/>
<path d="M13.0072 13.114L9.07602 14.1675C8.68752 14.2716 8.47822 14.7147 8.6693 15.1045C8.80906 15.3901 9.14148 15.522 9.44252 15.4414L11.1918 14.9726L9.4531 19.3716C9.39629 19.5154 9.52655 19.6659 9.67454 19.6263L13.9439 18.4821C14.2449 18.4014 14.4669 18.1215 14.445 17.8038C14.4151 17.3708 14.0128 17.0916 13.6243 17.1957L11.4931 17.7668L13.2305 13.3715C13.2879 13.2258 13.1567 13.0739 13.0072 13.114Z" fill="white"/>
<path fill-rule="evenodd" clip-rule="evenodd" d="M21.7683 13.5749C21.3623 12.0599 19.35 11.2827 17.2738 11.8391C15.1976 12.3956 13.8436 14.0748 14.2496 15.5898C14.6556 17.1048 16.6678 17.8819 18.7441 17.3255C20.8203 16.7691 22.1742 15.0898 21.7683 13.5749ZM15.5025 15.254C15.3175 14.5635 16.1824 13.5037 17.6168 13.1193C19.0513 12.7348 20.3302 13.2197 20.5153 13.9106C20.7005 14.6016 19.8355 15.6609 18.401 16.0453C16.9665 16.4298 15.6875 15.9445 15.5025 15.254Z" fill="white"/>
</svg>
