<svg viewBox="0 0 33 32" fill="none" xmlns="http://www.w3.org/2000/svg">
<path d="M16.0018 28C22.6292 28 28.0018 22.6274 28.0018 16C28.0018 9.37258 22.6292 4 16.0018 4C9.37441 4 4.00183 9.37258 4.00183 16C4.00183 22.6274 9.37441 28 16.0018 28Z" fill="#CE343C"/>
<path d="M5.91559 17.941H6.84609V14.7362H8.25384V17.941H9.18168V14.059H5.91559V17.941Z" fill="white"/>
<path d="M10.0055 17.941H10.9334V16.6266H11.5413C12.0141 16.6266 12.3776 16.5155 12.6317 16.2933C12.8859 16.0693 13.013 15.7512 13.013 15.3388C13.013 14.9264 12.8859 14.61 12.6317 14.3896C12.3776 14.1692 12.0141 14.059 11.5413 14.059H10.0055V17.941ZM10.9334 15.9627V14.7282H11.4666C11.6995 14.7282 11.8603 14.7815 11.9492 14.8882C12.0398 14.9948 12.0852 15.145 12.0852 15.3388C12.0852 15.5361 12.0398 15.6898 11.9492 15.8C11.8603 15.9085 11.6995 15.9627 11.4666 15.9627H10.9334Z" fill="white"/>
<path d="M13.4316 16.1173C13.4316 16.7394 13.5969 17.2122 13.9275 17.5357C14.2599 17.8575 14.6892 18.0183 15.2153 18.0183C15.7432 18.0183 16.1742 17.8575 16.5084 17.5357C16.8425 17.2122 17.0096 16.7394 17.0096 16.1173V15.8827C17.0096 15.2606 16.8425 14.7887 16.5084 14.4669C16.1742 14.1434 15.7432 13.9817 15.2153 13.9817C14.6892 13.9817 14.2599 14.1434 13.9275 14.4669C13.5969 14.7887 13.4316 15.2606 13.4316 15.8827V16.1173ZM14.3861 16.1973V15.8027C14.3861 15.4188 14.4599 15.1335 14.6074 14.9469C14.7549 14.7602 14.9575 14.6669 15.2153 14.6669C15.4766 14.6669 15.6819 14.7602 15.8312 14.9469C15.9823 15.1335 16.0578 15.4188 16.0578 15.8027V16.1973C16.0578 16.5812 15.9823 16.8665 15.8312 17.0531C15.6819 17.2398 15.4766 17.3331 15.2153 17.3331C14.9575 17.3331 14.7549 17.2398 14.6074 17.0531C14.4599 16.8665 14.3861 16.5812 14.3861 16.1973Z" fill="white"/>
<path d="M20.2597 14.0057H19.3585V14.4856H19.2812C18.6751 14.4856 18.2183 14.618 17.9108 14.8829C17.6051 15.1459 17.4522 15.5068 17.4522 15.9653C17.4522 16.4257 17.6051 16.7874 17.9108 17.0505C18.2183 17.3135 18.6751 17.4451 19.2812 17.4451H19.3585V17.9943H20.2597V17.4451H20.337C20.9414 17.4451 21.3973 17.3135 21.7048 17.0505C22.0123 16.7874 22.1661 16.4257 22.1661 15.9653C22.1661 15.5068 22.0123 15.1459 21.7048 14.8829C21.3973 14.618 20.9414 14.4856 20.337 14.4856H20.2597V14.0057ZM20.337 15.1442C20.6641 15.1442 20.8961 15.217 21.0329 15.3628C21.1698 15.5068 21.2382 15.7076 21.2382 15.9653C21.2382 16.232 21.1698 16.4355 21.0329 16.5759C20.8961 16.7145 20.6641 16.7839 20.337 16.7839H20.2597V15.1442H20.337ZM19.2812 15.1442H19.3585V16.7839H19.2812C18.9542 16.7839 18.7222 16.7137 18.5854 16.5732C18.4485 16.431 18.3801 16.2275 18.3801 15.9627C18.3801 15.7014 18.4485 15.4996 18.5854 15.3574C18.7222 15.2152 18.9542 15.1442 19.2812 15.1442Z" fill="white"/>
<path d="M26.088 17.941V14.059H25.0882L23.8724 16.3466C23.8404 16.4106 23.8084 16.4781 23.7764 16.5492C23.7444 16.6203 23.7178 16.6808 23.6965 16.7305H23.6725C23.6742 16.6701 23.676 16.5963 23.6778 16.5092C23.6796 16.4221 23.6805 16.3475 23.6805 16.2853V14.059H22.7553V17.941H23.7551L24.9736 15.6454C25.0073 15.5796 25.0384 15.5165 25.0669 15.4561C25.0953 15.3957 25.1229 15.3352 25.1495 15.2748H25.1709C25.1691 15.337 25.1673 15.4072 25.1655 15.4854C25.1637 15.5636 25.1629 15.6338 25.1629 15.6961V17.941H26.088Z" fill="white"/>
</svg>
