<svg viewBox="0 0 32 32" xmlns="http://www.w3.org/2000/svg"><g fill="none" fill-rule="evenodd"><circle fill="#333" cx="16" cy="16" r="12"/><path d="M15.99 17.821c-.333-.002-.739-.596-.73-1.07.007-.387.37-.713.774-.696.403.018.706.325.706.715 0 .481-.408 1.054-.75 1.051m10.91-4.817c-2.823.876-6.788 2.165-9.478 3.176l-.747-.836h-1.35l-.747.836c-2.69-1.01-6.655-2.3-9.477-3.176-.098-.03-.144.125-.049.163 4.056 1.639 8.262 3.473 9.655 5.833h2.586c1.393-2.36 5.6-4.194 9.655-5.833.095-.038.049-.193-.049-.163" fill="#FFF"/></g></svg>