<svg viewBox="0 0 32 32" fill="none" xmlns="http://www.w3.org/2000/svg"><path d="M16 28c6.627 0 12-5.373 12-12S22.627 4 16 4 4 9.373 4 16s5.373 12 12 12Z" fill="#fff"/><path d="M15.09 9.062a4.182 4.182 0 0 0 4.177-4.176c0-.15-.031-.29-.047-.436A11.98 11.98 0 0 0 16 4c-1.065 0-2.091.152-3.074.412A2.789 2.789 0 0 1 8.224 6.87c-.43.366-.828.765-1.202 1.187a4.148 4.148 0 0 0 2.685 1.005h5.384Z" fill="url(#a)"/><path d="M19.932 22.935h-5.384c-2.138.003-3.878 1.613-4.126 3.685.585.308 1.198.567 1.835.777-.01-.095-.024-.188-.024-.285a2.79 2.79 0 0 1 5.577 0c0 .263-.045.514-.114.755a11.944 11.944 0 0 0 5.953-2.621c-.688-1.364-2.084-2.308-3.717-2.31Z" fill="url(#b)"/><path d="M16.89 27.955a2.04 2.04 0 0 0 .188-.843 2.058 2.058 0 0 0-2.057-2.057 2.058 2.058 0 0 0-2.056 2.056c0 .175.027.343.068.504.95.243 1.941.385 2.967.385" fill="url(#c)"/><path d="M12.237 4.886c0-.091-.02-.176-.03-.264A11.947 11.947 0 0 0 8.81 6.41c.365.327.841.532 1.37.533a2.059 2.059 0 0 0 2.057-2.056Z" fill="url(#d)"/><path d="M27.32 12.047A12.014 12.014 0 0 0 20 4.697v.05c0 .017-.003.033-.006.05 0 .03.005.058.005.089a4.908 4.908 0 0 1-4.908 4.908H9.707c-1.208 0-2.299-.453-3.154-1.177a11.96 11.96 0 0 0-1.873 3.43A11.955 11.955 0 0 0 4 16c0 1.387.247 2.714.68 3.954a12.016 12.016 0 0 0 5.05 6.264 4.903 4.903 0 0 1 4.818-4.015h5.384c1.775 0 3.315.95 4.177 2.362v-4.061a.365.365 0 1 1 .731 0v3.59a11.974 11.974 0 0 0 2.48-4.14c.433-1.24.68-2.567.68-3.954s-.247-2.714-.68-3.953Zm-2.124 6.72a.74.74 0 1 1-1.481 0 .74.74 0 0 1 1.481 0ZM22.034 6.912a.741.741 0 1 1 0 1.482.741.741 0 0 1 0-1.482Zm-4.522 13.994h-5.385a4.868 4.868 0 0 1-2.883-.953 4.89 4.89 0 0 1-2.025-3.955 4.89 4.89 0 0 1 2.021-3.952 4.87 4.87 0 0 1 2.887-.957h5.385a4.87 4.87 0 0 1 2.886.957c.518.379.954.855 1.29 1.404V9.391a.366.366 0 0 1 .732 0v6.469c0 .016-.008.03-.01.046.001.031.01.06.01.093 0 1.63-.803 3.062-2.025 3.955a4.87 4.87 0 0 1-2.883.953Z" fill="url(#e)"/><path opacity=".8" d="M22.42 12.046v3.814c0 .016-.008.03-.01.045.001.032.01.062.01.094 0 1.629-.803 3.062-2.025 3.954h6.925c.433-1.24.68-2.566.68-3.953s-.247-2.714-.68-3.954h-4.9Zm2.035 7.46a.741.741 0 1 1 0-1.481.741.741 0 0 1 0 1.482ZM21.688 13.451v-1.405h-1.29c.518.38.954.856 1.29 1.405ZM9.244 19.953A4.89 4.89 0 0 1 7.22 16a4.89 4.89 0 0 1 2.021-3.953H4.68A11.955 11.955 0 0 0 4 16c0 1.387.247 2.714.68 3.953h4.564Z" fill="#74EBEB"/><path d="M9.812 15.999a2.789 2.789 0 1 0 5.578-.002 2.789 2.789 0 0 0-5.578.002Zm4.846 0a2.06 2.06 0 0 1-2.057 2.056A2.06 2.06 0 0 1 10.544 16 2.06 2.06 0 0 1 12.6 13.94 2.06 2.06 0 0 1 14.657 16Z" fill="#00AFDC"/><path d="M12.601 18.055A2.06 2.06 0 0 0 14.657 16a2.06 2.06 0 0 0-2.056-2.058A2.06 2.06 0 0 0 10.544 16a2.06 2.06 0 0 0 2.057 2.056Z" fill="#fff"/><path d="M17.286 14.808h1.596a.366.366 0 0 0 0-.732h-1.596a.366.366 0 1 0 0 .732ZM17.287 16.41h1.596a.365.365 0 1 0 0-.732h-1.596a.366.366 0 1 0 0 .732ZM18.882 17.28h-1.596a.366.366 0 0 0 0 .733h1.596a.366.366 0 0 0 0-.732Z" fill="#00AFDC"/><defs><linearGradient id="a" x1="3.975" y1="16.487" x2="34.283" y2="-13.821" gradientUnits="userSpaceOnUse"><stop stop-color="#00AFDC"/><stop offset="1" stop-color="#01DBDB"/></linearGradient><linearGradient id="b" x1="7.657" y1="34.676" x2="36.235" y2="6.097" gradientUnits="userSpaceOnUse"><stop stop-color="#00AFDC"/><stop offset="1" stop-color="#01DBDB"/></linearGradient><linearGradient id="c" x1="11.766" y1="30.269" x2="22.12" y2="19.914" gradientUnits="userSpaceOnUse"><stop stop-color="#00AFDC"/><stop offset="1" stop-color="#01DBDB"/></linearGradient><linearGradient id="d" x1="7.618" y1="8.978" x2="17.555" y2="-.959" gradientUnits="userSpaceOnUse"><stop stop-color="#00AFDC"/><stop offset="1" stop-color="#01DBDB"/></linearGradient><linearGradient id="e" x1="-4.758" y1="36.81" x2="60.255" y2="-28.202" gradientUnits="userSpaceOnUse"><stop stop-color="#00AFDC"/><stop offset="1" stop-color="#01DBDB"/></linearGradient></defs></svg>