<svg viewBox="0 0 32 32" fill="none" xmlns="http://www.w3.org/2000/svg">
    <path d="M16 28c6.627 0 12-5.373 12-12S22.627 4 16 4 4 9.373 4 16s5.373 12 12 12Z" fill="#FEE600"/>
    <path d="M18.59 15.033V13.19l.637-.679v1.6l.546.582 2.181-2.327.546.582c0-.437-.09-1.697-1.09-2.764-1.092-1.115-2.274-.63-2.637-.194l-2.182 2.327.545.582L16 14.16l-1.136-1.211.545-.582-2.182-2.328c-.409-.436-1.545-.921-2.636.194C9.59 11.3 9.5 12.56 9.5 12.996l.546-.582 2.181 2.328.546-.582v-1.6l.636.679v1.842l.864.922-4.364 4.654 1.727 1.843L16 17.845l4.364 4.655 1.727-1.843-4.364-4.654.864-.97Z" fill="#2B2D33"/>
</svg>
