<svg viewBox="0 0 32 32" fill="none" xmlns="http://www.w3.org/2000/svg">
<path d="M16 28C22.6274 28 28 22.6274 28 16C28 9.37258 22.6274 4 16 4C9.37258 4 4 9.37258 4 16C4 22.6274 9.37258 28 16 28Z" fill="#0077FF"/>
<path d="M17.6484 18.8986C17.0809 18.7568 16.6829 18.2492 16.6829 17.6669V10.8073C16.6829 10.146 17.3078 9.66097 17.9524 9.82199L22.0345 10.8417C22.602 10.9835 23 11.4911 23 12.0734V18.933C23 19.5943 22.3751 20.0793 21.7305 19.9183L17.6484 18.8986Z" fill="white"/>
<path d="M9.96544 22.0572C9.39791 21.9154 9 21.4077 9 20.8255V13.9659C9 13.3046 9.6249 12.8195 10.2695 12.9806L14.3516 14.0003C14.9191 14.142 15.317 14.6497 15.317 15.2319V22.0915C15.317 22.7529 14.6921 23.2379 14.0475 23.0769L9.96544 22.0572Z" fill="white"/>
<path d="M13.8069 20.4779C13.2394 20.3362 12.8415 19.8285 12.8415 19.2463V12.3867C12.8415 11.7253 13.4664 11.2403 14.111 11.4013L18.1931 12.421C18.7606 12.5628 19.1585 13.0705 19.1585 13.6527V20.5123C19.1585 21.1737 18.5336 21.6587 17.889 21.4977L13.8069 20.4779Z" fill="white"/>
<path d="M16.4786 21.1471C16.2998 21.1016 16.1726 20.9435 16.1664 20.7592L15.9888 15.5205C15.9374 14.8272 15.4227 14.2758 14.8849 14.1134C14.8547 14.1043 14.8225 14.1166 14.8046 14.1425C14.7864 14.1689 14.7934 14.2055 14.8188 14.2251C14.9516 14.3279 15.3171 14.6634 15.3171 15.2421L15.316 20.8525L16.4786 21.1471Z" fill="#2B71F6"/>
<path d="M20.3211 19.5663C20.1425 19.5217 20.0151 19.3641 20.0089 19.18L19.8312 13.9418C19.7799 13.2484 19.2652 12.697 18.7274 12.5346C18.6972 12.5255 18.6649 12.5378 18.6471 12.5638C18.6289 12.5902 18.6359 12.6267 18.6613 12.6464C18.7941 12.7492 19.1596 13.0847 19.1596 13.6634L19.1585 19.2757L20.3211 19.5663Z" fill="#2B71F6"/>
</svg>
