<svg xmlns="http://www.w3.org/2000/svg" viewBox="0 0 32 32" fill="none"><path fill="#fff" d="M28 16c0 6.627-5.373 12-12 12S4 22.627 4 16 9.373 4 16 4s12 5.373 12 12Z"/><path fill="url(#a)" fill-rule="evenodd" d="M16 8.008c1.919 0 3.68.676 5.056 1.804l-1.375 1.1a6.274 6.274 0 1 0 2.588 4.841l1.595-1.151A7.985 7.985 0 1 1 16 8.008Z" clip-rule="evenodd"/><path fill="#229E39" fill-rule="evenodd" d="M12.996 14.047 16 15.993l6.482-4.751.963 1.564L16 18.246l-3.004-1.874v-2.325Z" clip-rule="evenodd"/><path fill="#D8D8D8" fill-rule="evenodd" d="M16 4.542C9.672 4.542 4.542 9.672 4.542 16S9.672 27.458 16 27.458 27.458 22.328 27.458 16 22.328 4.542 16 4.542ZM3.5 16C3.5 9.096 9.096 3.5 16 3.5S28.5 9.096 28.5 16 22.904 28.5 16 28.5 3.5 22.904 3.5 16Z" clip-rule="evenodd"/><defs><linearGradient id="a" x1="17.304" x2="8.846" y1="8.008" y2="19.411" gradientUnits="userSpaceOnUse"><stop stop-color="#0187C8"/><stop offset=".313" stop-color="#08A652"/><stop offset=".724" stop-color="#08A652"/><stop offset="1" stop-color="#FAEF23"/></linearGradient></defs></svg>
