<svg viewBox="0 0 32 32" fill="none" xmlns="http://www.w3.org/2000/svg"><path d="M16 28c6.627 0 12-5.373 12-12S22.627 4 16 4 4 9.373 4 16s5.373 12 12 12Z" fill="url(#a)"/><path d="M25.036 23.897C24.064 15 16.999 7.936 8.103 6.964a12.067 12.067 0 0 0-1.957 2.187c9.19.077 16.626 7.513 16.703 16.704a12.064 12.064 0 0 0 2.187-1.958Z" fill="url(#b)"/><path d="M20.093 27.284c.038-.423.057-.851.057-1.284 0-7.815-6.335-14.15-14.15-14.15-.433 0-.861.02-1.284.058a11.92 11.92 0 0 0-.596 2.39A11.94 11.94 0 0 1 6 14.15c6.545 0 11.85 5.305 11.85 11.85 0 .64-.05 1.268-.148 1.88.827-.117 1.627-.319 2.39-.596Z" fill="url(#c)"/><path d="M4.046 17.06a9.15 9.15 0 0 1 10.895 10.895 11.948 11.948 0 0 1-2.263-.42 6.85 6.85 0 0 0-8.212-8.212 11.954 11.954 0 0 1-.42-2.264Z" fill="url(#d)"/><path d="M10.454 26.644a4.5 4.5 0 0 0-5.099-5.099 12.053 12.053 0 0 0 5.1 5.1Z" fill="url(#e)"/><path d="M24 10c0-.114 0-.229-.029-.371l-.428.314v.028c0 .858-.686 1.543-1.543 1.543-.857 0-1.543-.657-1.543-1.514S21.143 8.457 22 8.457c.314 0 .629.086.857.257l.4-.285A2.084 2.084 0 0 0 22 8c-1.114 0-2 .886-2 2 0 1.114.886 2 2 2 1.114 0 2-.886 2-2Z" fill="#A2A2A2"/><path d="M23.571 8.771c.086.115.172.258.229.4L22 10.514l-.771-.485v-.572l.771.486 1.571-1.172Z" fill="#A2A2A2"/><defs><linearGradient id="a" x1="16" y1="4" x2="16" y2="28" gradientUnits="userSpaceOnUse"><stop stop-color="#fff"/><stop offset="1" stop-color="#fff"/></linearGradient><linearGradient id="b" x1="5.555" y1="8.473" x2="24.664" y2="28.587" gradientUnits="userSpaceOnUse"><stop offset=".083" stop-color="#40FFFF"/><stop offset=".488" stop-color="#54BEFF"/><stop offset="1" stop-color="#C13EFF"/></linearGradient><linearGradient id="c" x1="5.555" y1="8.473" x2="24.664" y2="28.587" gradientUnits="userSpaceOnUse"><stop offset=".083" stop-color="#40FFFF"/><stop offset=".488" stop-color="#54BEFF"/><stop offset="1" stop-color="#C13EFF"/></linearGradient><linearGradient id="d" x1="5.555" y1="8.473" x2="24.664" y2="28.587" gradientUnits="userSpaceOnUse"><stop offset=".083" stop-color="#40FFFF"/><stop offset=".488" stop-color="#54BEFF"/><stop offset="1" stop-color="#C13EFF"/></linearGradient><linearGradient id="e" x1="5.555" y1="8.473" x2="24.664" y2="28.587" gradientUnits="userSpaceOnUse"><stop offset=".083" stop-color="#40FFFF"/><stop offset=".488" stop-color="#54BEFF"/><stop offset="1" stop-color="#C13EFF"/></linearGradient></defs></svg>
