<svg viewBox="0 0 32 32" xmlns="http://www.w3.org/2000/svg"><path d="M16 4C9.381 4 4 9.381 4 16s5.381 12 12 12 12-5.381 12-12S22.619 4 16 4z" fill="#fff"/><path d="m14.919 16.846 2.113 1.37v2.538L14.909 24.5l.01-7.654z" fill="#62B22F"/><path d="m13.169 15.765 2.108 1.203-6.26 3.746 2.044-3.663 2.108-1.286z" fill="#974995"/><path d="m23 12.304-4.028-.02-1.94-1.149-2.11-3.635L23 12.304z" fill="#EE7024"/><path d="m14.922 7.5 2.109 3.636.004 5.01-2.126-.64.013-8.006z" fill="#FBB61B"/><path d="m9 11.158 2.067 3.701-.007 2.192-2.043 3.663L9 11.158z" fill="#5A58A3"/><path d="m9 11.158 13.968 8.42-4.003.027-7.898-4.746L9 11.158z" fill="#2188CB"/><path d="m18.972 12.284 4.028.02-5.962 3.611-.006-2.466 1.94-1.165z" fill="#DA0954"/><path d="m17.032 20.755 1.932-1.15 4.003-.027-8.058 4.922 2.123-3.745z" fill="#037F37"/><path fill-rule="evenodd" clip-rule="evenodd" d="M3.5 16C3.5 9.096 9.096 3.5 16 3.5S28.5 9.096 28.5 16 22.904 28.5 16 28.5 3.5 22.904 3.5 16zM16 4.5C9.649 4.5 4.5 9.649 4.5 16S9.649 27.5 16 27.5 27.5 22.351 27.5 16 22.351 4.5 16 4.5z" fill="#D8D8D8"/></svg>