<svg viewBox="0 0 32 32" fill="none" xmlns="http://www.w3.org/2000/svg"><path d="M28 16c0 6.627-5.373 12-12 12S4 22.627 4 16 9.373 4 16 4s12 5.373 12 12Z" fill="#fff"/><path fill-rule="evenodd" clip-rule="evenodd" d="M3.5 16C3.5 9.096 9.096 3.5 16 3.5S28.5 9.096 28.5 16 22.904 28.5 16 28.5 3.5 22.904 3.5 16ZM16 4.5C9.649 4.5 4.5 9.649 4.5 16S9.649 27.5 16 27.5 27.5 22.351 27.5 16 22.351 4.5 16 4.5Z" fill="#D8D8D8"/><path d="M16 21a5 5 0 1 0 0-10 5 5 0 0 0 0 10Z" fill="#fff"/><path fill-rule="evenodd" clip-rule="evenodd" d="M23 19.182c0-.61-.145-1.185-.402-1.696.1-.456.153-.928.153-1.413 0-3.636-2.988-6.584-6.677-6.584a6.8 6.8 0 0 0-1.142.097A3.89 3.89 0 0 0 12.872 9C10.734 9 9 10.709 9 12.819c0 .704.194 1.363.532 1.931-.088.427-.135.87-.135 1.323 0 3.637 2.99 6.584 6.677 6.584.418 0 .826-.038 1.223-.11a3.9 3.9 0 0 0 1.83.453C21.268 23 23 21.29 23 19.182Zm-3.5-1.669c0 .474-.141.906-.418 1.284-.276.377-.684.675-1.214.886-.523.21-1.15.317-1.865.317-.858 0-1.577-.145-2.138-.433a2.754 2.754 0 0 1-.983-.84c-.254-.352-.382-.702-.382-1.04 0-.21.084-.393.249-.542a.893.893 0 0 1 .623-.224.81.81 0 0 1 .526.176c.137.113.255.28.35.493.106.234.221.431.342.585.118.15.287.276.502.374.216.098.508.15.867.15.494 0 .899-.103 1.203-.303.298-.195.442-.43.442-.718a.697.697 0 0 0-.23-.545 1.682 1.682 0 0 0-.638-.34c-.271-.08-.64-.169-1.095-.26a8.887 8.887 0 0 1-1.565-.452c-.428-.175-.774-.418-1.026-.722-.256-.31-.387-.698-.387-1.154 0-.434.137-.826.406-1.163.266-.336.657-.598 1.16-.776.495-.177 1.084-.266 1.751-.266.533 0 1.002.06 1.393.177.394.118.726.277.986.473.263.199.459.41.58.63.125.221.188.442.188.655a.769.769 0 0 1-.245.555.833.833 0 0 1-.613.248c-.221 0-.395-.053-.514-.155a1.89 1.89 0 0 1-.357-.457 1.918 1.918 0 0 0-.536-.64c-.201-.147-.536-.22-.997-.22-.427 0-.776.082-1.035.246-.248.156-.37.337-.37.551 0 .13.04.24.12.334.084.1.204.187.356.261.156.076.318.137.48.18.166.044.444.11.826.195.484.1.928.212 1.32.334.398.121.741.272 1.022.448.286.18.512.41.673.685.161.277.243.617.243 1.013Z" fill="#00AEF3"/></svg>