<svg viewBox="0 0 32 32" fill="none" xmlns="http://www.w3.org/2000/svg">
    <path d="M28 16c0 6.627-5.373 12-12 12S4 22.627 4 16 9.373 4 16 4s12 5.373 12 12Z" fill="#fff"/>
    <path fill-rule="evenodd" clip-rule="evenodd" d="M16 4.542C9.672 4.542 4.542 9.672 4.542 16S9.672 27.458 16 27.458 27.458 22.328 27.458 16 22.328 4.542 16 4.542ZM3.5 16C3.5 9.096 9.096 3.5 16 3.5S28.5 9.096 28.5 16 22.904 28.5 16 28.5 3.5 22.904 3.5 16Z" fill="#D8D8D8"/>
    <path d="M11.941 17.847c0 .81-.66 1.47-1.47 1.47-.81 0-1.471-.66-1.471-1.47 0-.81.661-1.47 1.47-1.47h1.471v1.47ZM12.682 17.847c0-.81.662-1.47 1.471-1.47.81 0 1.47.66 1.47 1.47v3.682c0 .81-.66 1.47-1.47 1.47-.81 0-1.47-.66-1.47-1.47v-3.682Z" fill="#E01E5A"/>
    <path d="M14.153 11.941c-.81 0-1.47-.66-1.47-1.47 0-.81.66-1.471 1.47-1.471.81 0 1.47.661 1.47 1.47v1.471h-1.47ZM14.153 12.682c.81 0 1.47.662 1.47 1.471 0 .81-.66 1.47-1.47 1.47h-3.682c-.81 0-1.471-.66-1.471-1.47 0-.81.661-1.47 1.47-1.47h3.683Z" fill="#36C5F0"/>
    <path d="M20.059 14.153c0-.81.66-1.47 1.47-1.47.81 0 1.47.66 1.47 1.47 0 .81-.66 1.47-1.47 1.47h-1.47v-1.47ZM19.318 14.153c0 .81-.662 1.47-1.471 1.47-.81 0-1.47-.66-1.47-1.47v-3.682c0-.81.66-1.471 1.47-1.471.81 0 1.47.661 1.47 1.47v3.683Z" fill="#2EB67D"/>
    <path d="M17.847 20.058c.81 0 1.47.662 1.47 1.471 0 .81-.66 1.47-1.47 1.47-.81 0-1.47-.66-1.47-1.47v-1.47h1.47ZM17.847 19.317c-.81 0-1.47-.66-1.47-1.47 0-.81.66-1.47 1.47-1.47h3.682c.81 0 1.471.66 1.471 1.47 0 .81-.661 1.47-1.47 1.47h-3.683Z" fill="#ECB22E"/>
</svg>
