<svg viewBox="0 0 32 32" xmlns="http://www.w3.org/2000/svg"><g transform="translate(4 4)" fill="none" fill-rule="evenodd"><circle fill="#FFFC00" cx="12" cy="12" r="12"/><path d="M12.127 5c.609 0 2.675.17 3.649 2.352.326.734.248 1.98.184 2.983l-.002.037-.018.314a.478.478 0 0 0 .246.055c.185-.01.406-.074.636-.185a.613.613 0 0 1 .286-.064c.112 0 .22.018.313.055.277.092.452.295.452.516.009.276-.24.516-.747.719-.055.017-.128.046-.212.073-.276.083-.7.221-.82.498-.055.138-.037.323.074.534l.01.01c.036.083.938 2.138 2.948 2.47a.307.307 0 0 1 .258.313c0 .046-.01.092-.028.138-.147.35-.783.608-1.936.783-.036.056-.074.23-.1.35-.018.11-.046.222-.083.34-.047.167-.166.25-.342.25h-.018c-.083 0-.193-.02-.331-.046a3.713 3.713 0 0 0-1.345-.037c-.37.064-.691.285-1.06.544-.526.368-1.124.792-2.028.792-.037 0-.073-.009-.11-.009h-.092c-.904 0-1.494-.415-2.018-.792-.369-.259-.681-.48-1.05-.544a4.075 4.075 0 0 0-.572-.046c-.332 0-.59.055-.782.092-.13.026-.241.045-.333.045-.23 0-.322-.138-.358-.258-.038-.118-.056-.24-.084-.35-.028-.11-.064-.303-.102-.35-1.18-.136-1.815-.395-1.962-.754a.37.37 0 0 1-.034-.139.305.305 0 0 1 .258-.313c2.01-.332 2.911-2.387 2.949-2.474l.01-.018c.11-.212.137-.397.073-.534-.12-.268-.544-.405-.82-.498a1.374 1.374 0 0 1-.213-.074c-.681-.267-.773-.572-.736-.783.055-.295.414-.488.718-.488.09 0 .167.018.236.046.259.119.486.184.68.184a.582.582 0 0 0 .286-.064l-.029-.35c-.06-1.001-.138-2.247.19-2.977.946-2.17 3.006-2.337 3.614-2.337L12.09 5h.037Z" stroke="#6B6B6B" fill="#FFF" fill-rule="nonzero"/></g></svg>