<svg viewBox="0 0 32 32" fill="none" xmlns="http://www.w3.org/2000/svg">
<path d="M16.0007 28C22.6281 28 28.0007 22.6274 28.0007 16C28.0007 9.37258 22.6281 4 16.0007 4C9.37332 4 4.00073 9.37258 4.00073 16C4.00073 22.6274 9.37332 28 16.0007 28Z" fill="white"/>
<path d="M8.09375 16.0108C8.09375 20.3688 11.632 23.907 16.0116 23.907C16.1194 23.907 16.2273 23.907 16.3352 23.907V20.9082H16.0116C13.2932 20.9082 11.1142 18.7076 11.1142 16.0108C11.1142 13.314 13.3148 11.1134 16.0116 11.1134H16.3352V8.09296C16.2273 8.09296 16.1194 8.09296 16.0116 8.09296C11.632 8.09296 8.09375 11.6312 8.09375 16.0108Z" fill="#DA5155"/>
<path d="M17.5865 8.24408V12.3648H16.0116C13.9836 12.3648 12.3655 13.9829 12.3655 16.0109C12.3655 18.0173 14.0051 19.657 16.0116 19.657H17.5865V23.7777C21.1894 23.0442 23.9078 19.8511 23.9078 16.0325C23.9078 12.1706 21.1894 8.97761 17.5865 8.24408Z" fill="#213A8B"/>
<path d="M16.0007 28.5C9.12573 28.5 3.50073 22.875 3.50073 16C3.50073 9.125 9.12573 3.5 16.0007 3.5C22.8757 3.5 28.5007 9.125 28.5007 16C28.5007 22.875 22.8757 28.5 16.0007 28.5ZM16.0007 4.54167C9.64656 4.54167 4.5424 9.64583 4.5424 16C4.5424 22.3542 9.64656 27.4583 16.0007 27.4583C22.3549 27.4583 27.459 22.3542 27.459 16C27.459 9.64583 22.3549 4.54167 16.0007 4.54167Z" fill="#D8D8D8"/>
</svg>
