<svg viewBox="0 0 32 32" fill="none" xmlns="http://www.w3.org/2000/svg"><path d="M16 4C9.373 4 4 9.373 4 16c0 6.628 5.373 12 12 12 6.628 0 12-5.372 12-12 0-6.627-5.372-12-12-12Z" fill="#65D36E"/><path d="M21.24 21.047a.736.736 0 0 1-1.013.245c-2.776-1.696-6.27-2.079-10.383-1.14a.736.736 0 1 1-.328-1.435c4.502-1.03 8.364-.586 11.48 1.317a.737.737 0 0 1 .244 1.013ZM22.686 17.829a.922.922 0 0 1-1.268.303c-3.176-1.952-8.02-2.518-11.777-1.377a.923.923 0 0 1-1.15-.614.923.923 0 0 1 .614-1.149c4.293-1.303 9.63-.672 13.277 1.57.434.267.57.834.304 1.267ZM22.81 14.478C19 12.215 12.718 12.008 9.08 13.11a1.105 1.105 0 1 1-.642-2.115c4.175-1.268 11.115-1.023 15.5 1.58a1.105 1.105 0 0 1-1.127 1.902Z" fill="#fff"/></svg>