<svg viewBox="0 0 32 32" fill="none" xmlns="http://www.w3.org/2000/svg"><path d="M16 28c6.627 0 12-5.373 12-12S22.627 4 16 4 4 9.373 4 16s5.373 12 12 12Z" fill="#1F252E"/><path d="M9.456 12.5C8.463 12.5 8 13.005 8 13.793v.913c0 .818.163 1.167.82 1.536l.506.283c.41.222.464.388.464.865v.806c0 .234-.12.379-.346.379-.227 0-.347-.136-.347-.379v-1.265H8v1.274c0 .797.453 1.293 1.433 1.293 1.014 0 1.477-.526 1.477-1.293v-.992c0-.757-.216-1.148-.84-1.506l-.507-.291c-.356-.205-.443-.35-.443-.875v-.74c0-.233.12-.378.334-.378.226 0 .356.147.356.379v1.253h1.1v-1.262c0-.779-.463-1.293-1.454-1.293ZM11.256 13.57h.777v5.834h1.12V13.57h.777v-.973h-2.674v.973ZM21.262 12.597v.973h.776v5.834h1.12V13.57h.777v-.973h-2.673ZM14.62 12.597l-.627 6.804h1.11l.153-1.818h.815l.152 1.818h1.133l-.623-6.804h-2.114Zm.715 4.063.265-3.14h.132l.265 3.14h-.662ZM20.852 18.887v-1.77c0-.565-.237-.875-.81-.983v-.117c.57-.078.863-.457.863-1.07v-1.154c0-.749-.496-1.196-1.456-1.196h-1.52V19.4h1.12v-2.846h.68v2.332c0 .388.183.514.183.514h1.12c.003.003-.18-.124-.18-.514Zm-1.067-3.889c0 .487-.12.631-.486.631h-.247v-2.107h.29c.346 0 .443.126.443.631v.845Z" fill="#E93F27"/></svg>