<svg viewBox="0 0 32 32" xmlns="http://www.w3.org/2000/svg"><g fill="none" fill-rule="evenodd"><circle fill="#2CA5E0" cx="16" cy="16" r="12"/><g fill-rule="nonzero"><path d="M13.325 21.823c-.44 0-.365-.167-.516-.584l-1.295-4.259 9.956-5.906" fill="#2CA5E0"/><path d="M13.325 21.823c.34 0 .49-.155.68-.34l1.81-1.759-2.26-1.362" fill="#FFF"/><path d="m13.556 18.362 5.47 4.042c.625.344 1.076.166 1.231-.58l2.228-10.494c.229-.915-.347-1.329-.944-1.059L8.46 15.316c-.892.358-.887.856-.162 1.078l3.357 1.047 7.769-4.9c.366-.222.703-.103.427.142" fill="#FFF"/></g></g></svg>