<svg viewBox="0 0 32 32" fill="none" xmlns="http://www.w3.org/2000/svg"><path d="M16 28c6.627 0 12-5.373 12-12S22.627 4 16 4 4 9.373 4 16s5.373 12 12 12Z" fill="#000"/><path fill-rule="evenodd" clip-rule="evenodd" d="M16.81 19.284a2.253 2.253 0 0 1-2.247 2.167 2.247 2.247 0 0 1-1.825-.938 2.252 2.252 0 0 0 3.291-1.908l.005-10.734h2.678c0 .228.021.455.063.68h-1.96l-.005 10.733Zm5.628-7.09Zm0 0v-.597c-.72 0-1.426-.209-2.029-.603a3.727 3.727 0 0 0 2.03 1.2Zm-7.991 1.444v.635A4.934 4.934 0 0 0 9.634 19.2a4.91 4.91 0 0 0 1.323 3.356 4.927 4.927 0 0 1-2.104-4.036 4.936 4.936 0 0 1 4.93-4.93c.222.001.444.017.664.048Z" fill="#25F4EE"/><path fill-rule="evenodd" clip-rule="evenodd" d="M19.493 8.55c0 .9.325 1.767.916 2.444a3.732 3.732 0 0 1-1.634-2.443h.718Zm-7.301 8.379c.422-.422.994-.66 1.59-.66.226 0 .45.035.665.104v-2.1l.046-.002.07-.001c.223 0 .444.017.665.048v2.734a2.21 2.21 0 0 0-.665-.104 2.254 2.254 0 0 0-2.251 2.252c0 .471.15.93.426 1.313a2.254 2.254 0 0 1-1.207-1.993c.001-.597.239-1.17.66-1.591Zm10.246-2.654v-2.081c.252.053.513.082.78.082v2.68a6.37 6.37 0 0 1-3.725-1.2V19.2a4.935 4.935 0 0 1-4.93 4.929 4.917 4.917 0 0 1-3.606-1.573 4.9 4.9 0 0 0 2.825.893 4.935 4.935 0 0 0 4.93-4.93v-5.442a6.37 6.37 0 0 0 3.726 1.198Z" fill="#FE2C55"/><path fill-rule="evenodd" clip-rule="evenodd" d="M18.712 18.52v-5.443c1.085.78 2.389 1.2 3.726 1.198v-2.081a3.728 3.728 0 0 1-2.03-1.2 3.732 3.732 0 0 1-1.633-2.443h-1.96l-.005 10.733a2.252 2.252 0 0 1-2.247 2.167 2.247 2.247 0 0 1-1.825-.938 2.253 2.253 0 0 1-1.207-1.993 2.254 2.254 0 0 1 2.251-2.252c.232 0 .454.038.665.105v-2.1A4.935 4.935 0 0 0 9.633 19.2c0 1.296.504 2.475 1.324 3.356a4.9 4.9 0 0 0 2.825.893 4.935 4.935 0 0 0 4.93-4.93Z" fill="#fff"/></svg>