<svg viewBox="0 0 32 32" fill="none" xmlns="http://www.w3.org/2000/svg"><path d="M16 4C9.381 4 4 9.381 4 16s5.381 12 12 12 12-5.381 12-12S22.619 4 16 4Z" fill="url(#a)"/><path fill-rule="evenodd" clip-rule="evenodd" d="M13.596 14.68a.039.039 0 0 1-.043-.012c-.466-.614-.583-1.67-.612-2.075-.006-.078-.094-.121-.164-.082-1.44.804-2.777 2.706-2.777 4.543 0 3.156 2.205 5.803 6 5.803 3.556 0 6-2.728 6-5.802 0-4.023-2.891-6.695-5.467-7.903-.06-.029-.14.03-.131.095.332 2.168-.127 4.525-2.806 5.433Z" fill="#fff"/><defs><radialGradient id="a" cx="0" cy="0" r="1" gradientUnits="userSpaceOnUse" gradientTransform="translate(16 28) scale(25.6399)"><stop stop-color="#FF7854"/><stop offset="1" stop-color="#FD267D"/></radialGradient></defs></svg>