<svg viewBox="0 0 32 32" fill="none" xmlns="http://www.w3.org/2000/svg">
<path d="M16.0007 28C22.6281 28 28.0007 22.6274 28.0007 16C28.0007 9.37258 22.6281 4 16.0007 4C9.37332 4 4.00073 9.37258 4.00073 16C4.00073 22.6274 9.37332 28 16.0007 28Z" fill="#FADC57"/>
<path d="M24.6875 15.4971L24.919 14.771L24.153 14.7945C24.0883 14.7945 23.6179 14.7814 23.1615 14.4572C23.1955 14.4605 23.2295 14.4651 23.2642 14.4651C23.734 14.4651 24.1884 14.188 24.3705 13.7919L24.7001 13.0763C24.2871 13.0815 23.9095 13.0305 23.9095 13.0305C23.9061 13.0299 23.6085 12.9926 23.2642 12.6482C23.0174 12.4011 22.7118 12.2704 22.3808 12.2704C22.236 12.2704 22.1066 12.2959 21.9951 12.3305C22.0125 12.2724 22.0292 12.2136 22.0385 12.1528C22.1439 11.4829 21.7036 10.9718 21.7036 10.9724L21.1277 10.2738L20.7708 11.0946C20.7694 11.0973 20.6793 11.2894 20.5178 11.3835C20.4691 11.1423 20.3497 10.8711 20.0941 10.6117C19.6124 10.1228 19.0258 10.0502 18.7189 10.0502C18.5768 10.0502 18.4754 10.0653 18.4507 10.0692L17.7554 10.2032C17.7955 10.0509 17.8809 9.78618 18.037 9.54764L18.4207 8.96205L17.4551 9.06988L17.1476 8.43002L16.5524 8.73066L16.0019 8.198L15.4528 8.73066L14.8555 8.43002L14.5486 9.06988L13.5838 8.96205L13.9681 9.54764C14.1243 9.78618 14.2096 10.0502 14.249 10.2025L13.5858 10.0744L13.5631 10.0705C13.5297 10.0653 13.429 10.0502 13.2862 10.0502C12.9793 10.0502 12.3928 10.1234 11.9123 10.6117C11.6561 10.8705 11.5367 11.1423 11.4873 11.3835C11.3271 11.2907 11.2377 11.1012 11.2377 11.1012L10.8801 10.2757L10.2949 10.9789C10.2235 11.0698 9.87056 11.5502 9.96661 12.1541C9.97664 12.2142 9.99267 12.273 10.01 12.3312C9.89924 12.2966 9.76978 12.271 9.62499 12.271C9.29406 12.271 8.98843 12.4018 8.7409 12.6488C8.3979 12.992 8.10165 13.0305 8.10434 13.0305C8.10434 13.0305 7.79138 13.0854 7.30695 13.0769L7.63459 13.7926C7.81674 14.1893 8.27182 14.4657 8.7409 14.4657C8.77623 14.4657 8.81026 14.4612 8.84498 14.4579C8.3899 14.7821 7.91952 14.7952 7.86279 14.7958L7.08209 14.771L7.3183 15.4965C7.43707 15.8703 7.83409 16.4899 8.59475 16.5565C8.51201 16.8964 8.32853 17.2768 7.92552 17.4408L7.34435 17.6754L7.66128 18.2159C7.84009 18.5074 8.25982 18.8486 8.85766 18.8486C8.98709 18.848 9.11185 18.8355 9.232 18.8107C9.26268 18.944 9.30137 19.0773 9.34674 19.2094C9.5249 19.7283 9.37142 20.0904 9.36945 20.0943L9.08251 20.6832L9.72307 20.8485C9.73107 20.8511 9.92458 20.9028 10.1668 20.9028C10.2769 20.9028 10.3817 20.8917 10.4804 20.8688C10.5551 20.8518 10.6265 20.8289 10.6952 20.8015C10.778 20.9472 10.8788 21.0799 10.9962 21.1989C11.4065 21.6112 11.9877 21.8204 12.7244 21.8204H12.727L13.2528 21.8138L12.1666 22.2556L12.9913 22.6458C13.2908 22.789 13.6465 22.9583 14.0081 23.0876L13.9054 23.3635L14.1897 23.4903C14.215 23.5014 14.7615 23.7412 15.6703 23.7922C15.6703 23.7922 15.8898 23.802 16.0106 23.802C16.1313 23.802 16.3482 23.7915 16.3482 23.7915C17.251 23.7393 17.7935 23.502 17.8188 23.4903L18.1037 23.3628L17.9996 23.0863C18.372 22.953 18.7403 22.7772 19.0272 22.6399L19.8366 22.255L18.7536 21.8125L19.2814 21.8191C20.0187 21.8191 20.6006 21.6099 21.0103 21.1969C21.1271 21.0786 21.2278 20.9459 21.3112 20.8002C21.3799 20.8276 21.452 20.8505 21.5267 20.8675C21.6248 20.8903 21.7296 20.9015 21.8397 20.9015C22.0779 20.9015 22.2734 20.8498 22.2787 20.8485L22.9219 20.6819L22.6417 20.1041C22.635 20.0891 22.4816 19.7276 22.6597 19.2081C22.7051 19.0754 22.7431 18.9421 22.7738 18.8094C22.8946 18.8342 23.0207 18.8473 23.1508 18.8473C23.9121 18.8473 24.2771 18.3225 24.3479 18.2087L24.6615 17.6741L24.0803 17.4402C23.6766 17.2761 23.4938 16.8951 23.4117 16.5559C24.1617 16.4931 24.5647 15.8735 24.6875 15.4971ZM14.2998 10.4528L14.2917 10.4548L14.2984 10.4463L14.2998 10.4528Z" fill="white"/>
<path d="M16.003 10.421C15.3877 10.4216 14.9267 10.619 14.8259 10.851L16.003 11.3059L17.18 10.851C17.0799 10.619 16.6189 10.4216 16.003 10.421Z" fill="white"/>
<path d="M16.0152 22.4628H16.0139H16.0039H15.9925H15.9919C15.6189 22.4655 15.1057 22.3903 14.8582 22.3197L14.5606 23.1086C14.7568 23.1772 15.4214 23.3079 16.0039 23.3079C16.585 23.3079 17.2503 23.1765 17.4458 23.1086L17.1489 22.3197C16.9006 22.3909 16.3882 22.4655 16.0152 22.4628Z" fill="white"/>
<path d="M18.2669 21.6786C18.0454 21.8015 17.551 21.9858 17.2634 22.0715L17.5049 22.7231C17.95 22.6041 18.317 22.4649 18.6205 22.3159L18.1194 22.1525L18.2669 21.6786Z" fill="white"/>
<path d="M13.7402 21.6786L13.8883 22.1525L13.3865 22.3159C13.6894 22.4649 14.0584 22.6041 14.5015 22.7231L14.743 22.0715C14.4568 21.9858 13.9617 21.8009 13.7402 21.6786Z" fill="white"/>
<path d="M16.0029 9.66647C16.4666 9.66647 16.9217 9.77497 17.2713 9.96584C17.3034 9.86059 17.348 9.73314 17.4088 9.59984L17.2767 9.6155L17.1379 9.62988L17.0792 9.50635L16.9024 9.14036L16.5801 9.30507L16.4546 9.36781L16.3545 9.27107L16.0042 8.93121L15.6546 9.27107L15.5545 9.36781L15.429 9.30507L15.1048 9.14036L14.93 9.50635L14.8699 9.62988L14.7311 9.6155L14.599 9.59984C14.6597 9.73381 14.7038 9.86059 14.7365 9.96584C15.0868 9.77497 15.5405 9.66647 16.0029 9.66647Z" fill="white"/>
<path d="M23.0834 13.8964C23.1434 13.9167 23.2048 13.9258 23.2655 13.9258C23.5278 13.9258 23.7813 13.7598 23.8687 13.5696C23.8687 13.5696 23.3876 13.5409 22.8705 13.0265C22.7057 12.8598 22.5316 12.8102 22.3821 12.8102C22.1499 12.8102 21.9757 12.9304 21.9757 12.9304C22.6003 13.2559 22.7277 13.7788 23.0834 13.8964Z" fill="white"/>
<path d="M8.74114 13.9258C8.80185 13.9258 8.86325 13.9167 8.92196 13.8964C9.27896 13.7788 9.40707 13.2559 10.0316 12.9304C10.0316 12.9304 9.85677 12.8102 9.62589 12.8102C9.47578 12.8102 9.30161 12.8598 9.13616 13.0265C8.61968 13.5409 8.13861 13.5696 8.13861 13.5696C8.22466 13.7598 8.47889 13.9258 8.74114 13.9258Z" fill="white"/>
<path d="M23.253 16.0213C23.2637 16.0219 23.2731 16.0219 23.2844 16.0219C23.939 16.0219 24.1612 15.335 24.1612 15.335H24.1485C24.0284 15.335 23.0548 15.3076 22.3669 14.4507C21.9138 13.8874 21.5429 13.3919 20.8096 13.1972L20.7375 13.1848L20.7215 13.1129C20.7015 13.0031 20.7782 12.9005 20.9523 12.7894C21.9639 12.1404 21.2773 11.3129 21.2773 11.3129C21.2773 11.3129 20.9884 11.975 20.3418 11.975C20.3265 11.975 20.3098 11.9744 20.2938 11.9744C20.2204 11.9704 20.1496 11.9678 20.0783 11.9528L19.9588 11.9299C19.9588 11.9299 20.143 11.4391 19.6986 10.9881C19.3636 10.6476 18.9559 10.5901 18.7204 10.5901C18.6016 10.5901 18.5262 10.6051 18.5262 10.6051C18.7497 10.8914 18.9112 11.3659 18.653 11.6587C18.4302 11.9103 17.8857 11.9227 17.8857 12.2979C17.8857 12.4567 18.0371 12.6423 18.3094 12.809C19.1281 13.3142 19.9408 13.9841 20.2784 14.8821C20.7008 16.0023 20.2251 16.7454 19.5458 17.1716C19.5458 17.1716 19.7587 17.3637 20.0676 17.3879C20.1303 17.3938 20.1917 17.3964 20.2491 17.3964C20.901 17.3964 21.2379 17.097 21.2379 17.097C21.2379 17.097 21.1825 17.5107 20.8429 17.8951C20.53 18.2499 20.119 18.4584 19.4924 18.4676C19.4924 18.4676 19.4724 18.7526 19.7499 18.9989C19.9275 19.1545 20.3378 19.2055 20.3378 19.2055C20.3378 19.2055 19.5698 19.3577 19.4851 20.4688C19.439 21.0708 19.2822 21.2799 19.2822 21.2799H19.2962C21.0785 21.2799 21.0324 19.7826 21.0324 19.7826C21.0324 19.7826 21.1565 20.2257 21.6537 20.3414C21.7137 20.3571 21.7777 20.3629 21.8391 20.3629C21.9993 20.3629 22.1381 20.3263 22.1381 20.3263C22.1381 20.3263 21.8778 19.7885 22.136 19.0362C22.3502 18.412 22.3155 17.9493 22.3155 17.9493C22.3155 17.9493 22.5558 18.3048 23.151 18.3081H23.157C23.6527 18.3081 23.8689 17.9401 23.8689 17.9401C22.6805 17.4572 22.798 15.8978 22.798 15.8978C22.798 15.8978 22.9521 16.0102 23.253 16.0213ZM22.8954 17.6499C22.4123 17.4166 22.1067 16.7971 22.0326 16.5735C21.9526 17.8022 21.34 18.6552 20.6241 19.4761C20.2524 19.9015 20.1229 20.3152 20.1229 20.3152C20.1229 20.3152 20.1944 19.8466 20.516 19.4649C21.1839 18.6787 21.8184 17.7003 21.8658 16.569C21.8985 15.7794 21.691 15.139 21.3674 14.6115C21.5482 15.1612 21.5229 15.8344 20.9083 16.4624C20.9083 16.4624 22.1314 15.0265 20.4213 13.5547C19.7366 12.9946 18.988 12.6489 18.6023 12.4037C19.9955 12.8488 20.6754 12.3587 20.6754 12.3587C20.2304 12.7364 19.6546 12.7299 19.2976 12.6756C19.3943 12.7221 19.4951 12.7704 19.6038 12.8273C20.7782 13.4521 21.8338 14.4801 22.0139 15.9043V15.8932C22.2875 17.2911 22.8954 17.6499 22.8954 17.6499Z" fill="white"/>
<path d="M11.6686 19.2055C11.6686 19.2055 12.0789 19.1551 12.2564 18.9989C12.5333 18.7526 12.514 18.4676 12.514 18.4676C11.8867 18.4591 11.4764 18.2499 11.1614 17.8957C10.8245 17.5114 10.7685 17.0977 10.7685 17.0977C10.7685 17.0977 11.1054 17.397 11.7566 17.397C11.8154 17.397 11.8761 17.3944 11.9388 17.3885C12.2477 17.3644 12.4612 17.1722 12.4612 17.1722C11.782 16.7461 11.3056 16.0023 11.7273 14.8821C12.0656 13.9848 12.8776 13.3142 13.6963 12.809C13.9686 12.6423 14.12 12.4573 14.12 12.2979C14.12 11.9227 13.5763 11.9103 13.3534 11.6587C13.0951 11.3659 13.2573 10.8907 13.4801 10.6051C13.4801 10.6051 13.4061 10.5901 13.2866 10.5901C13.0518 10.5901 12.6441 10.6476 12.3091 10.9881C11.8634 11.4391 12.0482 11.9299 12.0482 11.9299L11.9288 11.9528C11.8574 11.9678 11.786 11.9704 11.7133 11.9744C11.6966 11.9744 11.6819 11.975 11.6659 11.975C11.018 11.975 10.7304 11.3136 10.7304 11.3136C10.7304 11.3136 10.0438 12.141 11.0547 12.79C11.2288 12.9011 11.3049 13.0037 11.2849 13.1135L11.2689 13.1854L11.1955 13.1978C10.4635 13.3926 10.0919 13.888 9.6388 14.4514C8.95219 15.3069 7.98001 15.335 7.85858 15.335H7.84521C7.84521 15.335 8.06741 16.0219 8.72199 16.0219C8.73265 16.0219 8.74199 16.0219 8.75333 16.0213C9.0543 16.0108 9.2091 15.8978 9.2091 15.8978C9.2091 15.8978 9.32518 17.4565 8.13815 17.9401C8.13815 17.9401 8.35435 18.3081 8.8501 18.3081H8.8561C9.45194 18.3048 9.69151 17.9493 9.69151 17.9493C9.69151 17.9493 9.6568 18.412 9.87031 19.0362C10.1286 19.7885 9.86968 20.3263 9.86968 20.3263C9.86968 20.3263 10.0084 20.3629 10.1679 20.3629C10.23 20.3629 10.2934 20.3571 10.3528 20.3414C10.8492 20.2257 10.974 19.7826 10.974 19.7826C10.974 19.7826 10.9286 21.2799 12.7108 21.2799H12.7235C12.7235 21.2799 12.5674 21.0708 12.522 20.4688C12.4366 19.3577 11.6686 19.2055 11.6686 19.2055ZM11.3823 19.4761C10.6663 18.6552 10.0545 17.8022 9.97373 16.5735C9.89971 16.7964 9.5954 17.4166 9.11236 17.6499C9.11236 17.6499 9.71954 17.2911 9.99242 15.8932V15.9043C10.1733 14.4808 11.2282 13.4521 12.4032 12.8273C12.5106 12.7697 12.6127 12.7214 12.7088 12.6756C12.3518 12.7299 11.776 12.7364 11.331 12.3587C11.331 12.3587 12.0109 12.8488 13.4034 12.4037C13.0177 12.6489 12.2698 12.9946 11.5852 13.5547C9.87434 15.0265 11.0981 16.4624 11.0981 16.4624C10.4829 15.8337 10.4582 15.1612 10.639 14.6115C10.3147 15.1396 10.1078 15.7794 10.1412 16.569C10.1879 17.7003 10.8225 18.6787 11.4891 19.4649C11.8113 19.846 11.8841 20.3152 11.8841 20.3152C11.8841 20.3152 11.7533 19.9015 11.3823 19.4761Z" fill="white"/>
<path d="M14.6853 13.7311C14.7146 13.7618 14.7433 13.7951 14.7706 13.8285C14.7773 13.8363 14.7833 13.8435 14.79 13.8527C14.8153 13.886 14.8414 13.9213 14.866 13.9573C14.8714 13.9644 14.8767 13.9729 14.8827 13.9814C14.9128 14.0259 14.9408 14.0716 14.9688 14.1187C15.2257 14.5533 15.6374 14.8128 16.0024 14.8134C16.368 14.8128 16.7784 14.5533 17.0366 14.1187C17.0653 14.0703 17.094 14.0233 17.124 13.9795C17.1287 13.9729 17.1334 13.967 17.1374 13.9605C17.1627 13.9233 17.1894 13.8867 17.2174 13.8514C17.2234 13.8435 17.2288 13.837 17.2341 13.8305C17.2628 13.7958 17.2922 13.7618 17.3222 13.7305C17.3276 13.7252 17.3315 13.7207 17.3362 13.7167C17.467 13.5854 17.6232 13.4854 17.8273 13.4298L17.7366 13.3782H17.7312L17.3696 13.1723L16.9979 12.9638L16.005 13.4932L16.0024 13.4912L16.0004 13.4932L15.0068 12.9638L14.6358 13.1716L14.2735 13.3775H14.2695L14.1774 13.4291C14.3823 13.4847 14.5378 13.5834 14.6692 13.7148C14.6752 13.72 14.6792 13.7259 14.6853 13.7311ZM15.6007 13.6886H16.0211H16.4407V13.971C16.342 13.8527 16.1498 13.8769 16.1498 13.8769V14.284C16.1498 14.284 16.1572 14.484 16.2286 14.571H16.0211H15.8129C15.8856 14.4847 15.8923 14.284 15.8923 14.284V13.8769C15.8923 13.8769 15.7008 13.8527 15.6007 13.971V13.6886Z" fill="white"/>
<path d="M15.9168 13.141V11.4881L14.8425 11.1312L15.1261 12.7332L15.9168 13.141ZM15.6859 11.894V12.1593L15.6339 12.1358C15.6312 12.1338 15.5551 12.1168 15.4217 12.0136C15.2014 11.8463 15.1975 11.692 15.1975 11.692L15.6859 11.894Z" fill="white"/>
<path d="M16.8806 12.7332L17.1629 11.1312L16.0893 11.4881V13.141L16.8806 12.7332ZM16.3201 11.894L16.8086 11.6927C16.8086 11.6927 16.8046 11.8469 16.5837 12.0142C16.4509 12.1175 16.3742 12.1344 16.3715 12.1365L16.3195 12.16V11.894H16.3201Z" fill="white"/>
<path d="M14.3978 16.9729C14.5025 17.0101 14.6293 17.018 14.694 17.018C14.6967 17.0101 14.7 17.0004 14.7034 16.9886C14.7094 16.9696 14.7147 16.9513 14.7187 16.9304C14.7367 16.8389 14.7434 16.735 14.7447 16.6683C14.7007 16.6415 14.6386 16.5938 14.6039 16.5226C14.5639 16.4402 14.5072 16.4023 14.4238 16.4023C14.3157 16.4023 14.1996 16.4657 14.1502 16.4958C14.1109 16.7239 14.2823 16.9311 14.3978 16.9729Z" fill="white"/>
<path d="M16.7738 16.0958C16.5743 16.3082 16.1839 16.6782 16.1646 16.6971L16.1412 16.7206L14.9075 16.7017C14.9068 16.8213 14.8868 16.9233 14.8674 16.9977C14.8641 17.0102 14.8608 17.0233 14.8574 17.0363L16.3254 17.2945C16.4782 17.1899 16.8985 16.8892 17.0613 16.7716C16.9426 16.6017 16.9313 16.4004 16.9579 16.2586C16.8805 16.2095 16.8211 16.1547 16.7738 16.0958Z" fill="white"/>
<path d="M16.9416 14.6423C16.6573 14.9188 16.3844 15.0208 16.1409 15.0443C16.0968 15.0488 16.0521 15.0515 16.0068 15.0515H16.0034H16.0007C15.9554 15.0515 15.91 15.0488 15.866 15.0443C15.8232 15.0404 15.7786 15.0338 15.7338 15.024C15.7178 15.0861 15.6978 15.2162 15.7552 15.339C15.8066 15.4508 15.9113 15.5338 16.0641 15.5887L16.1155 15.6083L16.1162 15.6626C16.1162 15.6789 16.1282 16.0305 16.5199 16.1279C16.5839 16.0632 16.642 16.005 16.6847 15.9567C16.6046 15.7724 16.6466 15.5841 16.7627 15.492C16.7574 15.5116 16.7067 15.973 17.0844 16.1442L17.1464 16.173L17.1277 16.2377C17.1217 16.2573 16.9956 16.7037 17.4527 16.8697L17.5334 16.8998L17.4974 16.9769C17.4894 16.9939 17.3099 17.3991 17.7322 17.6291H18.6484V16.9168C18.3228 16.8776 18.1846 16.6213 18.1493 16.4396C17.9978 16.4142 17.8804 16.3501 17.8003 16.2455C17.6081 15.9979 17.7736 15.7711 17.7756 15.7586C17.7749 15.7606 17.7756 16.0024 17.9277 16.1514C18.0032 16.2233 18.0926 16.2789 18.228 16.2913L18.2947 16.2972L18.3008 16.3638C18.3021 16.3782 18.3388 16.705 18.6491 16.7566L18.6484 15.3018C18.6484 15.0763 18.7158 14.8495 18.7965 14.6404H16.9416V14.6423Z" fill="white"/>
<path d="M14.4756 15.3088L14.4509 16.2355L14.5583 16.2512L14.8212 15.3624L14.6877 15.0892L14.4756 15.3088Z" fill="white"/>
<path d="M17.3745 19.5591C17.3825 19.5591 17.3918 19.5604 17.4005 19.5624C17.564 19.6081 17.6054 20.1859 17.8923 20.2375C17.9203 20.2434 17.9463 20.2447 17.969 20.2447C18.0517 20.2447 18.1011 20.2101 18.1545 20.1486C18.1545 20.1486 18.0104 19.9264 17.9023 19.7767C17.7588 19.5807 17.6474 19.3434 17.3805 19.3434C17.3745 19.3434 17.3665 19.3434 17.3598 19.3441C17.2717 19.3487 17.2177 19.3905 17.2177 19.3905C17.1096 19.3238 17.0088 19.3009 16.9174 19.3009C16.7499 19.3009 16.6198 19.3761 16.5551 19.3761H16.5524L15.9559 19.3186C15.8625 19.3101 15.7891 19.218 15.7624 19.182C15.7557 19.1722 15.7524 19.1663 15.7524 19.1663C15.7524 19.1506 15.7524 19.1343 15.7511 19.1199C15.7311 18.6422 15.3534 18.4376 15.2193 18.4343C15.2193 18.4343 15.2353 18.3435 15.1986 18.3088L15.0672 18.465L14.6354 18.2526L14.943 18.6049L14.6821 18.8918C14.6495 18.9245 14.6535 18.9689 14.6668 18.9872L14.7796 19.0846L14.9223 18.9996C14.9297 18.9944 14.9424 18.9931 14.9584 18.9931C14.9977 18.9931 15.0571 19.0029 15.1105 19.0029C15.1686 19.0029 15.2193 18.9905 15.2253 18.9369C15.2073 19.114 15.0398 19.4219 15.1499 19.6637L15.2313 19.846L14.7042 19.7715L14.4573 20.18C14.3812 20.3159 14.3692 20.463 14.4426 20.5427L14.5347 20.6558C14.5347 20.6558 14.6641 20.5212 14.6935 20.433L14.6515 20.3878C14.6161 20.3499 14.6181 20.3159 14.6395 20.2748L14.7942 20.0231L15.4168 20.1669L15.4495 20.1121C15.4915 20.0434 15.5522 20.0225 15.619 20.0225C15.6463 20.0225 15.6743 20.0257 15.7037 20.0303C15.8191 20.0526 16.0093 20.0826 16.1995 20.0826C16.4083 20.0826 16.6151 20.046 16.7253 19.9251C16.9508 20.2526 17.4078 20.3048 17.3718 20.4709L17.2517 21.0316C17.3311 21.0283 17.4078 21.0231 17.4806 21.0133L17.5947 20.4297C17.6074 20.3663 17.6194 20.2807 17.6194 20.2807C17.5754 20.2369 17.4686 20.1441 17.4085 20.0316C17.3278 19.88 17.3718 19.8009 17.2964 19.6036C17.2991 19.6048 17.3218 19.5591 17.3745 19.5591ZM15.0458 18.7395C15.0151 18.7389 14.9931 18.7134 14.9944 18.6833C14.9971 18.6546 15.0218 18.6317 15.0518 18.6343C15.0825 18.6356 15.1045 18.6618 15.1032 18.6905C15.1005 18.7193 15.0752 18.7415 15.0458 18.7395Z" fill="white"/>
<path d="M14.1961 20.0896C14.1961 20.0896 14.4023 20.0066 14.421 19.9471L14.3937 19.8798C14.3743 19.836 14.377 19.7883 14.4143 19.7622L14.6372 19.6112L15.0095 19.6811C15.0095 19.6811 14.9421 19.5988 14.9488 19.4883L14.5938 19.4145L14.2589 19.6145C14.1154 19.7197 14.1047 19.8916 14.1521 19.9935L14.1961 20.0896Z" fill="white"/>
<path d="M16.8274 21.04C16.8941 21.0374 16.9675 21.0361 17.0483 21.0361C17.0483 21.0361 17.2398 20.4877 17.2504 20.4701C17.143 20.4237 16.9202 20.308 16.8341 20.2551C16.8908 20.338 17.0289 20.4335 17.0016 20.5067L16.8274 21.04Z" fill="white"/>
<path d="M18.6503 17.7879H13.357V19.7382C13.357 20.5355 13.9462 21.0348 14.8156 21.0348C15.5423 21.0348 15.7337 21.0623 16.004 21.325C16.1901 21.1433 16.3443 21.0754 16.6605 21.0499L16.6679 21.0198L16.8347 20.5146C16.8254 20.5035 16.5525 20.1996 16.5525 20.1996C16.4444 20.2349 16.3536 20.2408 16.2008 20.2408C16.044 20.2408 15.8672 20.2231 15.6757 20.1878C15.6563 20.1833 15.6383 20.1819 15.6203 20.1819C15.597 20.1819 15.5949 20.1839 15.5889 20.195L15.5556 20.2486L15.4949 20.3466L15.3808 20.3212L14.873 20.2042L14.8036 20.3166L14.8143 20.3283L14.8763 20.395L14.849 20.4819C14.8116 20.5957 14.6902 20.7283 14.6535 20.7649L14.5267 20.8983L14.4113 20.7551L14.3245 20.6486C14.2331 20.5486 14.2117 20.395 14.2631 20.2342C14.2618 20.2356 14.2598 20.2362 14.2578 20.2362L14.1144 20.2944L14.0496 20.1571L14.0042 20.0597C13.9262 19.8885 13.9549 19.6382 14.165 19.4872L14.5741 19.261L14.9631 19.3362C14.9724 19.2996 14.9864 19.1689 14.9978 19.1356C14.9904 19.135 14.9831 19.1329 14.9758 19.1329L14.7516 19.2146L14.5354 19.0683C14.5354 19.0683 14.4507 18.9885 14.5273 18.9088L14.7369 18.5983L14.2064 17.9461L15.0218 18.2742L15.0758 18.2082L15.186 18.0794L15.3107 18.1958C15.3461 18.2291 15.3661 18.2702 15.3761 18.3114C15.6009 18.397 16.0033 18.65 16.0387 19.0611L15.9126 19.1108V19.114C15.9413 19.1473 15.9653 19.1611 15.9727 19.1624L16.5545 19.2186C16.5691 19.216 16.5878 19.2094 16.6085 19.2036C16.6806 19.1794 16.7893 19.1447 16.9181 19.1447C17.0229 19.1447 17.1243 19.1683 17.2217 19.2127C17.2577 19.1996 17.3018 19.1898 17.3525 19.1866L17.3805 19.1859C17.6921 19.1859 17.8469 19.414 17.9711 19.5957C17.9917 19.627 18.0124 19.6571 18.0338 19.6865C18.1425 19.8368 18.2847 20.0571 18.2907 20.0663L18.3547 20.1643L18.276 20.2538C18.2153 20.3224 18.1245 20.4029 17.9684 20.4029C17.9363 20.4029 17.901 20.3996 17.8629 20.3924C17.8296 20.3865 17.7996 20.3767 17.7702 20.365C17.7655 20.395 17.7595 20.4309 17.7535 20.4617L17.6514 20.9832C18.262 20.8361 18.6496 20.3845 18.6496 19.7388L18.6503 17.7879Z" fill="#FFDD2D"/>
<path d="M13.3571 17.6309H17.4734C17.2679 17.4231 17.2705 17.1597 17.3233 16.9884C17.2632 16.9603 17.2138 16.9263 17.1698 16.8897C17.009 17.0061 16.5179 17.3564 16.3898 17.444L16.3624 17.4623L14.747 17.176H14.7143C14.6756 17.176 14.6189 17.1747 14.5568 17.1675C14.5395 17.2387 14.4768 17.2878 14.4047 17.2878C14.3967 17.2878 14.3874 17.2871 14.3787 17.2851C14.3366 17.2779 14.2999 17.257 14.2752 17.2224C14.2499 17.1884 14.2399 17.1479 14.2472 17.1061L14.2532 17.0721C14.0864 16.957 13.933 16.7002 14.001 16.4296L14.0077 16.4008L14.031 16.3845C14.0344 16.3819 14.0624 16.3636 14.1038 16.3401L13.9863 16.3224C13.9423 16.3146 13.9129 16.2747 13.9196 16.2322C13.927 16.1891 13.9683 16.1584 14.0117 16.1669L14.2913 16.21L14.3166 15.2453L14.733 14.814L14.9925 15.3493L14.7183 16.2773L14.9652 16.3152C15.0086 16.3218 15.0386 16.3617 15.0319 16.4054C15.0253 16.444 14.9919 16.4708 14.9525 16.4708C14.9485 16.4708 14.9438 16.4708 14.9399 16.4702L14.739 16.4381C14.7417 16.444 14.7457 16.4472 14.7483 16.4538C14.7697 16.4969 14.8171 16.5283 14.8451 16.5414L16.0768 16.5603C16.1289 16.5107 16.2583 16.3865 16.3911 16.2551C16.0882 16.1427 15.9781 15.8865 15.9594 15.7166C15.7899 15.646 15.6732 15.5401 15.6084 15.4022C15.5297 15.2316 15.5577 15.061 15.5784 14.978C15.4142 14.9192 15.2415 14.812 15.0653 14.6408H13.2103C13.2897 14.8499 13.3571 15.0767 13.3571 15.3022V17.6309Z" fill="#FFDD2D"/>
<path d="M15.0524 18.6342C15.0221 18.6315 14.9966 18.6546 14.9946 18.6835C14.9926 18.7137 15.0154 18.7394 15.0463 18.74C15.0758 18.7426 15.102 18.7203 15.1047 18.6907C15.1047 18.6618 15.0832 18.6348 15.0524 18.6342Z" fill="black"/>
<path d="M18.6428 22.1705L18.3379 22.0562L18.4219 21.7477L18.5147 21.4111C18.5147 21.4111 17.9742 21.698 17.2129 21.9137C16.9967 21.9745 16.8332 22.0019 16.8332 22.0019V22.2307C16.8332 22.2307 16.4262 22.2999 16.0145 22.2999H16.0098H16.0038H15.9958H15.9912C15.5794 22.2999 15.1724 22.2307 15.1724 22.2307V22.0019C15.1724 22.0019 15.0083 21.9745 14.7928 21.9137C14.0314 21.698 13.4916 21.4111 13.4916 21.4111L13.583 21.7477L13.6691 22.0562L13.3635 22.1705L13.0245 22.2947C13.4136 22.4784 13.952 22.7463 14.4451 22.8783L14.3291 23.1895C14.3291 23.1895 14.9542 23.4685 15.9958 23.4711V23.4718H15.9992H16.0038H16.0078H16.0105V23.4711C17.0534 23.4685 17.6779 23.1895 17.6779 23.1895L17.5612 22.8783C18.0543 22.7463 18.5941 22.4784 18.9811 22.2947L18.6428 22.1705ZM13.3862 22.3156L13.888 22.1522L13.7399 21.6784C13.9607 21.8013 14.4565 21.9856 14.7434 22.0712L14.5012 22.7228C14.0581 22.6032 13.6892 22.464 13.3862 22.3156ZM16.0038 23.3077C15.4213 23.3077 14.7561 23.1764 14.5606 23.1084L14.8582 22.3195C15.105 22.3901 15.6188 22.4653 15.9918 22.4627H15.9925H16.0038H16.0138H16.0152C16.3882 22.4653 16.9006 22.3901 17.1488 22.3195L17.4457 23.1084C17.2502 23.177 16.5857 23.3077 16.0038 23.3077ZM17.5051 22.7228L17.2636 22.0712C17.5512 21.9856 18.0456 21.8013 18.2671 21.6784L18.1197 22.1522L18.6208 22.3156C18.3172 22.464 17.9502 22.6032 17.5051 22.7228Z" fill="black"/>
<path d="M16.003 9.85742C16.6236 9.85742 17.12 10.0587 17.3943 10.2738C17.3943 10.2738 17.4757 9.79337 17.7539 9.36921L17.2542 9.42476L16.9926 8.88033L16.4901 9.13393L16.003 8.66205L15.5173 9.13393L15.0142 8.88033L14.7533 9.42476L14.2535 9.36921C14.5318 9.79337 14.6132 10.2738 14.6132 10.2738C14.8881 10.0587 15.3832 9.85742 16.003 9.85742ZM14.7306 9.61562L14.8694 9.63L14.9294 9.50644L15.1043 9.14044L15.4285 9.30449L15.554 9.36726L15.6541 9.27052L16.0037 8.93066L16.354 9.27052L16.4541 9.36726L16.5795 9.30449L16.9018 9.14044L17.0787 9.50644L17.1374 9.63L17.2762 9.61562L17.4083 9.59992C17.3475 9.7339 17.3029 9.86068 17.2708 9.96592C16.9212 9.77506 16.4661 9.66659 16.0024 9.66659C15.5407 9.66659 15.0863 9.77506 14.7353 9.96592C14.7026 9.86068 14.6586 9.73326 14.5978 9.59992L14.7306 9.61562Z" fill="black"/>
<path d="M23.2833 16.2315C24.086 16.2315 24.3543 15.4315 24.3656 15.3975L24.455 15.1159L24.1541 15.125H24.1528C24.0466 15.125 23.1612 15.1021 22.5333 14.3205L22.4739 14.2479C22.0636 13.7368 21.6746 13.2512 20.9793 13.0297C20.9993 13.012 21.028 12.9898 21.0674 12.9649C21.4364 12.7271 21.6512 12.4382 21.7053 12.1029C21.784 11.5983 21.4557 11.1964 21.441 11.18L21.2175 10.9095L21.0781 11.2304C21.0687 11.2506 20.8339 11.7644 20.3401 11.7644H20.3034C20.2694 11.7624 20.2373 11.7611 20.2053 11.7585C20.2227 11.5291 20.1799 11.1742 19.8517 10.8415C19.4573 10.4409 18.9729 10.3807 18.7193 10.3807C18.5839 10.3807 18.4938 10.3971 18.4845 10.3984L18.1468 10.4637L18.355 10.7324C18.5185 10.9395 18.6666 11.3219 18.4911 11.5219C18.4351 11.5853 18.3197 11.6369 18.2089 11.6885C17.9814 11.7911 17.6711 11.9336 17.6711 12.297C17.6711 12.5323 17.8572 12.778 18.1949 12.9872C19.1944 13.6029 19.811 14.2453 20.0772 14.9544C20.4889 16.0452 19.9517 16.6674 19.43 16.9949L19.1958 17.1425L19.4006 17.3269C19.428 17.3504 19.6788 17.5667 20.0492 17.5981C20.1192 17.6027 20.1866 17.6066 20.2493 17.6066C20.4869 17.6066 20.6891 17.57 20.8532 17.521C20.8078 17.5988 20.7524 17.6778 20.6824 17.7576C20.3841 18.0961 20.0171 18.2503 19.4893 18.2582L19.2932 18.2615L19.2778 18.4543C19.2758 18.4928 19.2611 18.8504 19.6068 19.1543C19.6595 19.2013 19.7235 19.2399 19.7903 19.2719C19.5561 19.4784 19.3179 19.8379 19.2718 20.4542C19.2331 20.9686 19.1077 21.1587 19.1063 21.1608L18.8895 21.4849L19.2812 21.4901C19.9284 21.4901 20.4242 21.315 20.7678 20.9686C20.9706 20.7634 21.0867 20.532 21.1555 20.3268C21.2682 20.4209 21.4137 20.5033 21.6032 20.547C21.6753 20.5634 21.754 20.5725 21.8387 20.5725C22.0215 20.5725 22.1743 20.5346 22.1917 20.5307L22.4419 20.4653L22.3312 20.2366C22.3231 20.2183 22.1143 19.7595 22.3392 19.1046C22.4359 18.8216 22.4853 18.568 22.5093 18.3706C22.6668 18.451 22.8776 18.5177 23.1505 18.5184C23.7697 18.5184 24.0427 18.0654 24.0553 18.0465L24.1774 17.8386L23.9512 17.7471C23.2133 17.4471 23.0498 16.6413 23.0171 16.2047C23.0838 16.2171 23.1599 16.2289 23.2459 16.2315H23.2833ZM23.8685 17.94C23.8685 17.94 23.6523 18.3079 23.1566 18.3079H23.1505C22.5553 18.3046 22.3151 17.9491 22.3151 17.9491C22.3151 17.9491 22.3499 18.4118 22.135 19.036C21.8768 19.7882 22.137 20.3261 22.137 20.3261C22.137 20.3261 21.9982 20.3627 21.838 20.3627C21.7767 20.3627 21.7126 20.3568 21.6526 20.3411C21.1555 20.2255 21.0314 19.7823 21.0314 19.7823C21.0314 19.7823 21.0774 21.2797 19.2952 21.2797H19.2812C19.2812 21.2797 19.438 21.0705 19.4847 20.4686C19.5694 19.3575 20.3374 19.2053 20.3374 19.2053C20.3374 19.2053 19.9277 19.1549 19.7502 18.9987C19.4727 18.7523 19.492 18.4674 19.492 18.4674C20.1192 18.4589 20.5296 18.2497 20.8425 17.8948C21.1815 17.5105 21.2375 17.0968 21.2375 17.0968C21.2375 17.0968 20.9006 17.3962 20.2486 17.3962C20.1913 17.3962 20.1299 17.3935 20.0672 17.3877C19.7589 17.3635 19.5454 17.1713 19.5454 17.1713C20.224 16.7452 20.7004 16.0015 20.2781 14.8812C19.9397 13.9839 19.127 13.3133 18.309 12.8081C18.0368 12.6415 17.8853 12.4565 17.8853 12.297C17.8853 11.9219 18.4297 11.9101 18.6533 11.6578C18.9109 11.365 18.7494 10.8898 18.5258 10.6043C18.5258 10.6043 18.6012 10.5892 18.72 10.5892C18.9555 10.5892 19.3632 10.6474 19.6982 10.9872C20.1433 11.4382 19.9584 11.929 19.9584 11.929L20.0779 11.9519C20.1493 11.9669 20.22 11.9695 20.2934 11.9728C20.3094 11.9728 20.3254 11.9735 20.3414 11.9735C20.988 11.9735 21.2769 11.3114 21.2769 11.3114C21.2769 11.3114 21.9642 12.1395 20.9526 12.7878C20.7785 12.8989 20.7018 13.0015 20.7218 13.1113L20.7378 13.1832L20.8098 13.1957C21.5431 13.3904 21.9142 13.8858 22.3672 14.4492C23.0551 15.3061 24.0286 15.3335 24.1488 15.3335H24.1614C24.1614 15.3335 23.9393 16.0204 23.2847 16.0204C23.274 16.0204 23.2646 16.0204 23.2533 16.0197C22.9524 16.0093 22.7982 15.8962 22.7982 15.8962C22.7982 15.8962 22.6801 17.4563 23.8685 17.94Z" fill="black"/>
<path d="M21.8735 13.1161C22.1731 13.2723 22.3473 13.4815 22.5001 13.6671C22.6502 13.8481 22.793 14.0226 23.0158 14.0952C23.0952 14.122 23.1793 14.1344 23.2647 14.1344C23.5997 14.1344 23.936 13.9337 24.0634 13.656L24.1916 13.3776L23.8812 13.3592C23.8666 13.3586 23.4676 13.3233 23.0232 12.8782C22.8403 12.6959 22.6195 12.5998 22.3813 12.5998C22.0903 12.5998 21.8748 12.7423 21.8508 12.7566L21.5652 12.9534L21.8735 13.1161ZM22.382 12.8102C22.5314 12.8102 22.7056 12.8599 22.8704 13.0266C23.3875 13.541 23.8686 13.5697 23.8686 13.5697C23.7812 13.7592 23.5276 13.9259 23.2654 13.9259C23.2047 13.9259 23.144 13.9167 23.0832 13.8965C22.7276 13.7788 22.6001 13.256 21.9749 12.9305C21.9749 12.9305 22.1497 12.8102 22.382 12.8102Z" fill="black"/>
<path d="M22.0137 15.8932V15.9036C21.8336 14.4802 20.778 13.4521 19.6037 12.8266C19.4949 12.7698 19.3948 12.7214 19.2974 12.675C19.655 12.7292 20.2308 12.7358 20.6752 12.358C20.6752 12.358 19.9953 12.8482 18.6021 12.4031C18.9878 12.6482 19.7371 12.994 20.421 13.5541C22.1312 15.0259 20.9074 16.4618 20.9074 16.4618C21.522 15.8337 21.5473 15.1605 21.3665 14.6109C21.6901 15.1383 21.897 15.7788 21.8649 16.5683C21.8176 17.6997 21.183 18.6781 20.5151 19.4643C20.1942 19.846 20.1221 20.3146 20.1221 20.3146C20.1221 20.3146 20.2515 19.9009 20.6232 19.4754C21.3392 18.6545 21.951 17.8016 22.0311 16.5729C22.1052 16.7958 22.4101 17.416 22.8938 17.6494C22.8952 17.65 22.2873 17.2912 22.0137 15.8932Z" fill="black"/>
<path d="M12.8999 21.1603C12.8992 21.1584 12.7752 20.9682 12.7351 20.4538C12.6884 19.8375 12.4509 19.4781 12.216 19.2715C12.2841 19.2402 12.3468 19.2016 12.3995 19.1539C12.7445 18.85 12.7298 18.4925 12.7278 18.4539L12.7144 18.2611L12.5169 18.2579C11.9905 18.2494 11.6228 18.0951 11.3245 17.7572C11.2552 17.6775 11.1991 17.5984 11.1537 17.5206C11.3179 17.5696 11.5187 17.6062 11.7569 17.6062C11.821 17.6062 11.887 17.6023 11.9571 17.5977C12.3274 17.5663 12.5783 17.3507 12.6063 17.3265L12.8112 17.1422L12.577 16.9945C12.0532 16.6664 11.518 16.0442 11.9291 14.954C12.1953 14.2449 12.8112 13.6025 13.812 12.9868C14.1497 12.7777 14.3345 12.5319 14.3345 12.2966C14.3345 11.9332 14.0249 11.7901 13.7974 11.6882C13.6866 11.6365 13.5712 11.5849 13.5151 11.5215C13.339 11.3221 13.4878 10.9392 13.6506 10.732L13.8601 10.4634L13.5211 10.398C13.5111 10.3967 13.4224 10.3804 13.2863 10.3804C13.0327 10.3804 12.5496 10.4405 12.1546 10.8411C11.8257 11.1745 11.7823 11.5293 11.799 11.7581C11.7669 11.7607 11.7349 11.762 11.7016 11.764H11.6655C11.1704 11.764 10.9362 11.2503 10.9269 11.23L10.7874 10.9091L10.5619 11.1797C10.5492 11.196 10.2196 11.5986 10.2996 12.1025C10.353 12.4378 10.5679 12.7267 10.9369 12.9646C10.9769 12.9894 11.0049 13.0116 11.025 13.0293C10.3303 13.2509 9.94203 13.7371 9.53163 14.2482L9.47227 14.3207C8.84505 15.1024 7.95762 15.1253 7.85154 15.1253L7.54926 15.1161L7.64134 15.3978C7.652 15.4318 7.91958 16.2318 8.72294 16.2318L8.76166 16.2304C8.8464 16.2279 8.92245 16.2167 8.99054 16.2037C8.95717 16.6396 8.79368 17.4455 8.05502 17.7461L7.82951 17.8376L7.95163 18.0454C7.96362 18.0644 8.23721 18.5173 8.85774 18.5173C9.12862 18.5167 9.33947 18.45 9.49761 18.3696C9.52164 18.567 9.57101 18.8206 9.66778 19.1036C9.89263 19.7584 9.68315 20.2172 9.67512 20.2356L9.56438 20.4643L9.81523 20.5296C9.83192 20.5336 9.98606 20.5715 10.1682 20.5715C10.2536 20.5715 10.3324 20.5623 10.4031 20.546C10.5932 20.5022 10.74 20.4199 10.8515 20.3257C10.9195 20.531 11.0363 20.7623 11.2385 20.9676C11.5828 21.3139 12.0779 21.4891 12.7251 21.4891L13.1175 21.4839L12.8999 21.1603ZM12.7104 21.28C10.9282 21.28 10.9736 19.7826 10.9736 19.7826C10.9736 19.7826 10.8495 20.2257 10.3524 20.3414C10.293 20.3571 10.2296 20.363 10.1676 20.363C10.0074 20.363 9.86929 20.3264 9.86929 20.3264C9.86929 20.3264 10.1282 19.7885 9.86994 19.0362C9.65643 18.4121 9.69112 17.9493 9.69112 17.9493C9.69112 17.9493 9.45158 18.3049 8.85574 18.3081H8.84974C8.35395 18.3081 8.13775 17.9402 8.13775 17.9402C9.32547 17.4572 9.2087 15.8978 9.2087 15.8978C9.2087 15.8978 9.05459 16.0102 8.75297 16.0213C8.74232 16.022 8.73228 16.022 8.72163 16.022C8.06639 16.022 7.84486 15.3351 7.84486 15.3351H7.85818C7.97897 15.3351 8.95117 15.3076 9.63909 14.4508C10.0921 13.8874 10.4638 13.3926 11.1958 13.1973L11.2692 13.1848L11.2852 13.1129C11.3052 13.0031 11.2291 12.9005 11.055 12.7894C10.0434 12.1404 10.7307 11.313 10.7307 11.313C10.7307 11.313 11.0183 11.9744 11.6662 11.9744C11.6822 11.9744 11.6969 11.9738 11.7136 11.9738C11.7863 11.9698 11.8584 11.9672 11.9291 11.9522L12.0485 11.9293C12.0485 11.9293 11.8637 11.4385 12.3094 10.9875C12.6444 10.647 13.0521 10.5895 13.2869 10.5895C13.4064 10.5895 13.4805 10.6045 13.4805 10.6045C13.2576 10.8908 13.0961 11.3653 13.3537 11.6581C13.5765 11.9097 14.1203 11.9221 14.1203 12.2973C14.1203 12.4561 13.9689 12.6417 13.6966 12.8084C12.8779 13.3136 12.0652 13.9842 11.7276 14.8815C11.3059 16.0017 11.7816 16.7448 12.4616 17.1716C12.4616 17.1716 12.248 17.3638 11.9391 17.3879C11.8764 17.3938 11.8157 17.3964 11.7569 17.3964C11.1057 17.3964 10.7688 17.0971 10.7688 17.0971C10.7688 17.0971 10.8248 17.5108 11.1617 17.8951C11.4767 18.25 11.887 18.4591 12.5143 18.4676C12.5143 18.4676 12.5343 18.7526 12.2567 18.999C12.0785 19.1545 11.6689 19.2055 11.6689 19.2055C11.6689 19.2055 12.4375 19.3578 12.5216 20.4689C12.5677 21.0708 12.7231 21.28 12.7231 21.28H12.7104Z" fill="black"/>
<path d="M8.74052 14.135C8.82657 14.135 8.91066 14.1226 8.99009 14.0958C9.21425 14.0233 9.35639 13.8487 9.50653 13.6677C9.65999 13.4821 9.83281 13.273 10.1324 13.1168L10.4407 12.9546L10.1544 12.758C10.1304 12.7429 9.91555 12.6011 9.6253 12.6011C9.38642 12.6011 9.16492 12.6965 8.98271 12.8795C8.53836 13.3239 8.14003 13.3599 8.12531 13.3606L7.81506 13.3782L7.94249 13.6572C8.07059 13.9337 8.40621 14.135 8.74052 14.135ZM9.13554 13.0272C9.30102 12.8606 9.47516 12.8109 9.6253 12.8109C9.85615 12.8109 10.031 12.9311 10.031 12.9311C9.40642 13.2573 9.27831 13.7795 8.92135 13.8971C8.86263 13.9174 8.80123 13.9265 8.74052 13.9265C8.4783 13.9265 8.22473 13.7605 8.13799 13.5703C8.13799 13.5697 8.61841 13.5409 9.13554 13.0272Z" fill="black"/>
<path d="M10.1416 16.569C10.1082 15.7795 10.3151 15.139 10.6393 14.6116C10.4585 15.1612 10.4832 15.8344 11.0984 16.4625C11.0984 16.4625 9.87467 15.0266 11.5855 13.5547C12.2701 12.9946 13.0187 12.6489 13.4037 12.4038C12.0112 12.8489 11.3313 12.3587 11.3313 12.3587C11.7757 12.7365 12.3515 12.7299 12.7091 12.675C12.6124 12.7214 12.511 12.7698 12.4035 12.8267C11.2278 13.4521 10.1729 14.4802 9.99212 15.9037V15.8925C9.71918 17.2905 9.112 17.6493 9.112 17.6493C9.5951 17.416 9.89935 16.7965 9.97344 16.5729C10.0541 17.8016 10.666 18.6545 11.382 19.4754C11.7536 19.9009 11.8844 20.3146 11.8844 20.3146C11.8844 20.3146 11.8117 19.846 11.4894 19.4643C10.8228 18.6794 10.1883 17.7003 10.1416 16.569Z" fill="black"/>
<path d="M15.6013 13.6888V13.9711C15.7007 13.8528 15.8929 13.877 15.8929 13.877V14.2842C15.8929 14.2842 15.8862 14.4842 15.8135 14.5711H16.0216H16.2292C16.1578 14.4848 16.1504 14.2842 16.1504 14.2842V13.877C16.1504 13.877 16.3426 13.8528 16.4414 13.9711V13.6888H16.0216H15.6013Z" fill="black"/>
<path d="M15.4217 12.0142C15.5544 12.1175 15.6312 12.1345 15.6338 12.1364L15.6859 12.1599V11.8939L15.1974 11.6926C15.1974 11.6933 15.2021 11.8469 15.4217 12.0142Z" fill="black"/>
<path d="M16.5837 12.0142C16.8046 11.8469 16.8085 11.6926 16.8085 11.6926L16.3201 11.8939V12.1599L16.3715 12.1364C16.3749 12.1345 16.4509 12.1175 16.5837 12.0142Z" fill="black"/>
<path d="M17.4636 10.9312C17.4636 10.528 16.7703 10.1652 16.0049 10.1652H16.0043H16.0023H16.0002C15.2349 10.1652 14.5417 10.528 14.5417 10.9312L14.557 11.0306L14.8626 12.7488L14.5557 12.9233L13.7616 13.3775H13.7643C13.7643 13.3775 13.5855 13.4671 13.5028 13.5226C13.2005 13.7285 13.1364 14.0285 13.3119 14.1527C13.3553 13.9082 13.5528 13.652 13.9225 13.652C14.1887 13.652 14.3915 13.7867 14.5557 13.9886C14.5977 14.0396 14.6377 14.0938 14.6751 14.1527C14.7212 14.2265 14.7672 14.2912 14.8133 14.3539H12.7681C12.9183 14.65 13.061 14.9637 13.061 15.3043V19.738C13.061 20.8112 13.9038 21.3236 14.8153 21.3236C15.5199 21.3236 15.6146 21.2923 16.0036 21.6713C16.3906 21.2916 16.4854 21.3236 17.1906 21.3236C18.1028 21.3236 18.9441 20.8112 18.9441 19.738V15.3043C18.9441 14.9637 19.087 14.65 19.2377 14.3539H17.192C17.2374 14.2919 17.2834 14.2265 17.3294 14.1527C17.3674 14.0938 17.4068 14.0396 17.4482 13.9886C17.6137 13.786 17.8158 13.652 18.0821 13.652C18.4517 13.652 18.6486 13.9075 18.6926 14.1527C18.8681 14.0285 18.8047 13.7285 18.5004 13.5226C18.419 13.4671 18.2402 13.3775 18.2402 13.3775H18.2429L17.4489 12.9233L17.1433 12.7488L17.4489 11.0306L17.4636 10.9312ZM14.8426 11.1312L15.9169 11.488V13.1409L15.1262 12.7325L14.8426 11.1312ZM15.0648 14.6422C15.2409 14.814 15.4138 14.9206 15.5779 14.9794C15.5565 15.0624 15.5285 15.2337 15.6079 15.4042C15.6727 15.5415 15.7901 15.6474 15.9589 15.718C15.9776 15.8879 16.087 16.1434 16.3906 16.2565C16.2578 16.3879 16.1284 16.5114 16.0757 16.5617L14.8446 16.5428C14.8166 16.529 14.7692 16.4983 14.7479 16.4545C14.7452 16.4486 14.7412 16.4454 14.7392 16.4388L14.94 16.4708C14.9447 16.4715 14.9487 16.4715 14.9527 16.4715C14.9914 16.4715 15.0254 16.4454 15.0321 16.4062C15.0388 16.3624 15.0088 16.3225 14.9654 16.316L14.7185 16.2781L14.9927 15.3507L14.7332 14.8154L14.3168 15.2467L14.2915 16.2114L14.0119 16.1683C13.9685 16.1598 13.9271 16.1911 13.9198 16.2336C13.9131 16.2761 13.9425 16.316 13.9865 16.3238L14.104 16.3415C14.0619 16.365 14.0346 16.3833 14.0312 16.3859L14.0072 16.4022L14.0005 16.431C13.9325 16.7016 14.0866 16.9584 14.2527 17.0734L14.2467 17.1075C14.2401 17.1492 14.2494 17.1898 14.2747 17.2238C14.2988 17.2584 14.3361 17.2793 14.3775 17.2865C14.3862 17.2878 14.3955 17.2885 14.4035 17.2885C14.4756 17.2885 14.5383 17.2395 14.5563 17.1682C14.6184 17.1754 14.6751 17.1767 14.7138 17.1767H14.7465L16.3619 17.4623L16.3893 17.4447C16.5181 17.3564 17.0085 17.0061 17.1693 16.8905C17.2133 16.9277 17.2627 16.9617 17.3228 16.9898C17.2707 17.161 17.2674 17.4244 17.4735 17.6323H13.3566V15.3049C13.3566 15.0794 13.2892 14.8526 13.2098 14.6435H15.0648V14.6422ZM17.0612 16.7715C16.8977 16.8891 16.4774 17.1898 16.3252 17.2944L14.8573 17.0362C14.8606 17.0231 14.8639 17.0107 14.8673 16.9976C14.8866 16.9232 14.906 16.8212 14.9073 16.7016L16.141 16.7212L16.1644 16.6976C16.1831 16.6794 16.5741 16.3094 16.7736 16.0963C16.821 16.1545 16.8804 16.2101 16.9578 16.2591C16.9311 16.4003 16.9424 16.6016 17.0612 16.7715ZM14.6037 16.5225C14.6384 16.5937 14.7011 16.6415 14.7445 16.6682C14.7432 16.7349 14.7365 16.8388 14.7185 16.9303C14.7145 16.9506 14.7091 16.9696 14.7031 16.9885C14.6998 17.0003 14.6965 17.0101 14.6938 17.0179C14.6291 17.0179 14.5016 17.0101 14.3975 16.9728C14.2821 16.931 14.11 16.7238 14.15 16.4957C14.2 16.4656 14.3155 16.4022 14.4235 16.4022C14.507 16.4016 14.5637 16.4401 14.6037 16.5225ZM14.4509 16.2356L14.4756 15.3095L14.6878 15.0892L14.8212 15.3624L14.5583 16.2512L14.4509 16.2356ZM17.0479 21.0367C16.9678 21.0367 16.8937 21.038 16.827 21.0406L17.0018 20.508C17.0292 20.4341 16.891 20.3393 16.8343 20.2563C16.9204 20.3093 17.1433 20.4249 17.2507 20.4714C17.2393 20.4884 17.0479 21.0367 17.0479 21.0367ZM17.5963 20.4315L17.4822 21.0145C17.4095 21.0243 17.3321 21.0295 17.2527 21.0328L17.3728 20.472C17.4088 20.3054 16.9518 20.2537 16.7262 19.9263C16.6161 20.0479 16.4086 20.0838 16.2004 20.0838C16.0103 20.0838 15.8201 20.0537 15.7047 20.0315C15.6753 20.0269 15.6473 20.0237 15.6199 20.0237C15.5532 20.0237 15.4925 20.0439 15.4505 20.1132L15.4171 20.1681L14.7946 20.0243L14.6397 20.2753C14.6177 20.3158 14.6164 20.3505 14.6518 20.3884L14.6938 20.4334C14.6651 20.5223 14.5357 20.6563 14.5357 20.6563L14.4429 20.5433C14.3695 20.4628 14.3815 20.3165 14.4583 20.1805L14.7051 19.7721L15.2323 19.8465L15.1502 19.6636C15.0401 19.4217 15.2076 19.1139 15.2256 18.9368C15.2196 18.9904 15.1696 19.0022 15.1108 19.0022C15.0575 19.0022 14.9981 18.9924 14.9587 18.9924C14.9434 18.9924 14.93 18.9937 14.9227 18.9989L14.7799 19.0838L14.6671 18.9865C14.6538 18.9675 14.6491 18.9237 14.6825 18.891L14.9434 18.6048L14.6351 18.2525L15.0668 18.4649L15.1982 18.3087C15.2343 18.3434 15.2189 18.4342 15.2189 18.4342C15.3537 18.4375 15.7314 18.642 15.7514 19.1191C15.7527 19.1335 15.7527 19.1499 15.7527 19.1655C15.7527 19.1655 15.7561 19.1714 15.7627 19.1812C15.7894 19.2172 15.8628 19.3093 15.9562 19.3178L16.5528 19.3754H16.5554C16.6208 19.3754 16.7509 19.3002 16.9177 19.3002C17.0085 19.3002 17.1099 19.323 17.218 19.3897C17.218 19.3897 17.272 19.3479 17.3601 19.3433C17.3668 19.3427 17.3741 19.3427 17.3808 19.3427C17.6484 19.3427 17.7592 19.5793 17.9026 19.7759C18.0107 19.9256 18.1548 20.1479 18.1548 20.1479C18.1015 20.2099 18.0521 20.2439 17.9693 20.2439C17.9466 20.2439 17.9206 20.242 17.8926 20.2368C17.6057 20.1851 17.5643 19.6073 17.4008 19.5616C17.3922 19.559 17.3828 19.5584 17.3748 19.5584C17.3221 19.5584 17.2987 19.6041 17.2987 19.6041C17.3734 19.8008 17.3301 19.8805 17.4102 20.0322C17.4702 20.1446 17.577 20.2374 17.621 20.2812C17.621 20.2825 17.609 20.3675 17.5963 20.4315ZM14.3929 19.8799L14.4202 19.9472C14.4022 20.006 14.1953 20.0897 14.1953 20.0897L14.1507 19.9943C14.1033 19.8923 14.1133 19.7204 14.2574 19.6152L14.5924 19.4152L14.9474 19.4891C14.9407 19.5995 15.0081 19.6819 15.0081 19.6819L14.6357 19.6119L14.4129 19.7629C14.3755 19.7884 14.3729 19.8361 14.3929 19.8799ZM17.6524 20.9825L17.7545 20.4609C17.7598 20.4302 17.7665 20.3942 17.7711 20.3642C17.7999 20.376 17.8305 20.3857 17.8639 20.3916C17.9019 20.3988 17.9373 20.4021 17.9693 20.4021C18.1255 20.4021 18.2162 20.3217 18.2769 20.2531L18.3556 20.1635L18.2916 20.0655C18.2856 20.0557 18.1441 19.8361 18.0347 19.6858C18.0134 19.6564 17.9927 19.6269 17.972 19.5949C17.8479 19.4133 17.6924 19.1852 17.3808 19.1852L17.3528 19.1858C17.3014 19.189 17.2574 19.1989 17.222 19.2119C17.1239 19.1668 17.0232 19.144 16.9184 19.144C16.7896 19.144 16.6809 19.1786 16.6088 19.2028C16.5881 19.2087 16.5694 19.2152 16.5547 19.2178L15.9723 19.1616C15.9649 19.1603 15.9409 19.1466 15.9122 19.1126V19.11L16.0383 19.0603C16.003 18.6492 15.5999 18.3963 15.375 18.3107C15.3651 18.2695 15.345 18.2283 15.3097 18.195L15.1842 18.0787L15.0741 18.2081L15.0201 18.2741L14.2047 17.946L14.7352 18.5982L14.5257 18.9087C14.4489 18.9884 14.5337 19.0682 14.5337 19.0682L14.7498 19.2139L14.974 19.1322C14.982 19.1322 14.9887 19.1341 14.9961 19.1348C14.9854 19.1681 14.9714 19.2989 14.962 19.3355L14.573 19.2603L14.164 19.4865C13.9538 19.6374 13.9251 19.8877 14.0032 20.059L14.0486 20.1563L14.1133 20.2936L14.2561 20.2354C14.2581 20.2348 14.2601 20.2341 14.2614 20.2328C14.21 20.3936 14.2308 20.5465 14.3228 20.6472L14.4095 20.7544L14.525 20.8975L14.6518 20.7642C14.6891 20.7276 14.8099 20.5949 14.8472 20.4812L14.8747 20.3942L14.8126 20.3276L14.8026 20.3158L14.8719 20.2034L15.3797 20.3204L15.4938 20.3459L15.5545 20.2478L15.5879 20.1942C15.5939 20.1831 15.5959 20.1812 15.6193 20.1812C15.6373 20.1812 15.6553 20.1831 15.6747 20.1871C15.8661 20.2224 16.043 20.24 16.1998 20.24C16.3519 20.24 16.4426 20.2341 16.5514 20.1989C16.5514 20.1989 16.8243 20.5021 16.8337 20.5139L16.6669 21.0184L16.6595 21.0491C16.3432 21.0739 16.1891 21.1419 16.003 21.3243C15.7327 21.0616 15.5412 21.0341 14.8146 21.0341C13.9451 21.0341 13.3559 20.5348 13.3559 19.7374V17.7878H18.6486L18.6499 19.7374C18.6506 20.3844 18.2629 20.8354 17.6524 20.9825ZM18.7967 14.6422C18.716 14.8513 18.6486 15.0781 18.6486 15.3036L18.6492 16.7584C18.339 16.7074 18.3023 16.38 18.3009 16.3656L18.2949 16.299L18.2282 16.2931C18.0934 16.2807 18.004 16.2245 17.9286 16.1526C17.7765 16.0035 17.7758 15.7617 17.7765 15.7598C17.7745 15.7722 17.609 15.999 17.8012 16.2467C17.8819 16.3513 17.9987 16.4153 18.1501 16.4408C18.1855 16.6225 18.3236 16.8787 18.6492 16.9179V17.6303H17.7338C17.3114 17.4002 17.4902 16.995 17.4989 16.9781L17.5349 16.9009L17.4542 16.8709C16.9971 16.7048 17.1226 16.2578 17.1293 16.2389L17.1479 16.1735L17.0859 16.1447C16.7082 15.9735 16.7596 15.5114 16.7643 15.4924C16.6482 15.5846 16.6062 15.7729 16.6862 15.9572C16.6428 16.0055 16.5848 16.0643 16.5214 16.1284C16.1304 16.031 16.1184 15.6787 16.1184 15.6624L16.1177 15.6082L16.0663 15.5885C15.9135 15.533 15.8088 15.45 15.7574 15.3382C15.6993 15.2147 15.72 15.0853 15.736 15.0232C15.7807 15.033 15.8255 15.0402 15.8682 15.0435C15.9122 15.048 15.9576 15.0506 16.003 15.0506H16.0056H16.009C16.0543 15.0506 16.099 15.048 16.1431 15.0435C16.3866 15.0199 16.6595 14.9173 16.9437 14.6415H18.7967V14.6422ZM17.3701 13.1716L17.7318 13.3775H17.7371L17.8279 13.4292C17.6237 13.4847 17.4675 13.5847 17.3368 13.7161C17.3321 13.72 17.3274 13.7252 17.3228 13.7298C17.2927 13.7612 17.2627 13.7952 17.2347 13.8298C17.2294 13.8363 17.224 13.8435 17.218 13.8507C17.19 13.886 17.164 13.922 17.1386 13.9599C17.1346 13.9664 17.1299 13.9729 17.1253 13.9788C17.0953 14.0226 17.0665 14.0697 17.0378 14.118C16.7803 14.5526 16.3692 14.8121 16.0036 14.8128C15.6386 14.8121 15.2276 14.5526 14.97 14.118C14.942 14.071 14.914 14.0252 14.884 13.9807C14.8779 13.9723 14.8726 13.9638 14.8673 13.9566C14.8419 13.9206 14.8166 13.8853 14.7905 13.852C14.7839 13.8429 14.7779 13.8357 14.7712 13.8278C14.7432 13.7945 14.7145 13.7612 14.6858 13.7304C14.6798 13.7259 14.6758 13.72 14.6698 13.7147C14.5383 13.5834 14.3829 13.484 14.178 13.4292L14.2701 13.3775H14.2741L14.6357 13.1716L15.0074 12.9632L16.0002 13.4925L16.0023 13.4906L16.0049 13.4925L16.9978 12.9632L17.3701 13.1716ZM16.8804 12.7331L16.089 13.1415V11.488L17.1626 11.1312L16.8804 12.7331ZM16.003 11.3064L14.8259 10.8508C14.926 10.6188 15.3877 10.4214 16.003 10.4208C16.6188 10.4214 17.0805 10.6188 17.18 10.8508L16.003 11.3064Z" fill="black"/>
</svg>
