<svg viewBox="0 0 32 32" fill="none" xmlns="http://www.w3.org/2000/svg">
    <path d="M16 28c6.627 0 12-5.373 12-12S22.627 4 16 4 4 9.373 4 16s5.373 12 12 12Z" fill="#3179BA"/>
    <path fill-rule="evenodd" clip-rule="evenodd" d="M20.575 10h-9.148c-.788 0-1.426.638-1.427 1.425v9.142A1.428 1.428 0 0 0 11.427 22h9.148A1.426 1.426 0 0 0 22 20.567v-9.142A1.427 1.427 0 0 0 20.575 10Zm-5.4 8.643a.477.477 0 0 1-.48.475h-2a.475.475 0 0 1-.473-.475V12.69c0-.261.212-.474.473-.475h2a.477.477 0 0 1 .474.475l.006 5.954Zm4.614-2.733a.475.475 0 0 1-.48.475h-2a.477.477 0 0 1-.475-.475v-3.22a.477.477 0 0 1 .475-.476h2a.475.475 0 0 1 .473.475l.007 3.22Z" fill="#fff"/>
</svg>
