<svg viewBox="0 0 32 32" xmlns="http://www.w3.org/2000/svg"><g fill="none" fill-rule="evenodd"><circle fill="#1DA1F2" cx="16" cy="16" r="12"/><path d="M13.717 23c5.661 0 8.757-4.616 8.757-8.62 0-.13-.003-.26-.01-.39A6.204 6.204 0 0 0 24 12.42a6.213 6.213 0 0 1-1.767.477 3.049 3.049 0 0 0 1.353-1.675c-.595.347-1.253.599-1.954.735A3.097 3.097 0 0 0 19.385 11c-1.7 0-3.077 1.357-3.077 3.029 0 .238.027.469.08.69a8.784 8.784 0 0 1-6.344-3.164 2.985 2.985 0 0 0-.417 1.522c0 1.051.543 1.98 1.37 2.522a3.092 3.092 0 0 1-1.394-.379v.039c0 1.467 1.06 2.692 2.468 2.97a3.127 3.127 0 0 1-1.39.051 3.075 3.075 0 0 0 2.875 2.104 6.236 6.236 0 0 1-3.822 1.297A6.35 6.35 0 0 1 9 21.64 8.812 8.812 0 0 0 13.718 23" fill="#FFF" fill-rule="nonzero"/></g></svg>