<svg viewBox="0 0 32 32" fill="none" xmlns="http://www.w3.org/2000/svg">
<path d="M16 28C22.6274 28 28 22.6274 28 16C28 9.37258 22.6274 4 16 4C9.37258 4 4 9.37258 4 16C4 22.6274 9.37258 28 16 28Z" fill="#6441A5"/>
<path fill-rule="evenodd" clip-rule="evenodd" d="M9.22647 12.1044L10.1656 9.59998H22.9976V18.3658L19.2413 22.1208H16.4246L14.5474 24H12.6683V22.1208H9.22647V12.1044ZM21.7459 10.8514H11.4168V19.9301H14.2353V21.8067L16.112 19.9301H19.5544L21.7459 17.7385V10.8514Z" fill="white"/>
<path fill-rule="evenodd" clip-rule="evenodd" d="M16.112 17.1132H14.86V13.3571H16.112V17.1132ZM19.5544 17.1132H18.3026V13.3571H19.5544V17.1132Z" fill="white"/>
</svg>
