<svg viewBox="0 0 32 32" fill="none" xmlns="http://www.w3.org/2000/svg"><path d="M16 28c6.627 0 12-5.373 12-12S22.627 4 16 4 4 9.373 4 16s5.373 12 12 12Z" fill="#000"/><path d="M9.616 18.231c.825 0 1.467-.637 1.467-1.584v-3.68h.895v5.967h-.886v-.553a2.15 2.15 0 0 1-1.575.657c-1.28 0-2.26-.929-2.26-2.335v-3.731h.896v3.68c0 .96.628 1.58 1.463 1.58Zm3.028-5.264h.862v2.175a2.162 2.162 0 0 1 1.542-.647 2.271 2.271 0 1 1 0 4.543 2.18 2.18 0 0 1-1.551-.647v.543h-.853v-5.967Zm2.344 5.306a1.51 1.51 0 1 0-1.5-1.518v.009a1.5 1.5 0 0 0 1.49 1.51h.01Zm4.917-3.773c1.251 0 2.175.96 2.175 2.26v.28h-3.535a1.457 1.457 0 0 0 1.44 1.238c.5 0 .928-.206 1.25-.637l.624.459a2.275 2.275 0 0 1-1.875.928c-1.303 0-2.31-.97-2.31-2.269-.005-1.228.96-2.259 2.23-2.259Zm-1.35 1.856h2.648c-.145-.665-.68-1.106-1.322-1.106-.633 0-1.172.445-1.326 1.106Zm5.83-1.003c-.562 0-.97.436-.97 1.106v2.47h-.862v-4.345h.853v.54c.211-.352.563-.572 1.04-.572h.3v.801h-.36Z" fill="#fff"/></svg>