<svg viewBox="0 0 32 32" xmlns="http://www.w3.org/2000/svg"><g transform="translate(4 4)" fill="none" fill-rule="evenodd"><circle fill="#7C529E" cx="12" cy="12" r="12"/><path d="M17.423 6.441c-.367-.338-1.85-1.415-5.155-1.43 0 0-3.896-.234-5.794 1.508-1.057 1.058-1.43 2.602-1.468 4.523-.04 1.917-.09 5.51 3.376 6.487h.003l-.003 1.486s-.021.603.374.725c.48.148.76-.31 1.219-.802.251-.27.598-.67.86-.973 2.37.198 4.192-.256 4.399-.323.478-.156 3.185-.502 3.626-4.097.454-3.706-.22-6.05-1.438-7.106v.002Zm.401 6.838c-.378 3.001-2.575 3.192-2.972 3.321-.176.057-1.782.454-3.794.323 0 0-1.504 1.81-1.966 2.28-.074.075-.166.102-.222.09-.083-.019-.1-.111-.1-.25l.008-2.465c-.009 0 0 0 0 0-2.936-.822-2.76-3.877-2.723-5.483.027-1.597.331-2.908 1.227-3.795 1.607-1.459 4.922-1.238 4.922-1.238 2.795.01 4.136.852 4.445 1.136 1.03.881 1.556 2.994 1.171 6.088l.004-.007ZM9.379 8.066c.149 0 .283.067.387.191.003.001.357.428.51.637.146.196.34.51.438.686.176.314.064.635-.105.768l-.349.277c-.175.14-.154.401-.154.401s.517 1.943 2.437 2.433c0 0 .262.024.402-.151l.278-.35c.13-.176.451-.287.765-.112.176.092.49.287.687.433.209.148.635.509.638.509.203.166.248.424.11.682v.01a2.91 2.91 0 0 1-.574.702h-.005c-.194.166-.387.259-.581.276-.019 0-.046.01-.084 0a1.08 1.08 0 0 1-.249-.037v-.009c-.295-.083-.784-.295-1.597-.748a9.683 9.683 0 0 1-1.347-.895 7.73 7.73 0 0 1-.6-.536l-.048-.017-.018-.018-.018-.018a7.134 7.134 0 0 1-.536-.603c-.295-.375-.59-.817-.885-1.347-.453-.813-.665-1.302-.748-1.598h-.01a.582.582 0 0 1-.037-.249c-.01-.037 0-.064 0-.086.019-.184.116-.378.282-.581h.003c.219-.24.454-.434.705-.574a.614.614 0 0 1 .295-.084h.01l-.002.008Zm2.52-.42h.131l.054.004h.315l.083.01h.045l.093.009h.018l.064.01h.01l.046.008c.028 0 .046.01.064.01h.056l.046.018.037.01.037.01.019.008h.027l.029.01h.017l.046.01.028.009.028.01.037.01.018.008c.019 0 .037.01.056.01l.027.01.029.009.073.027.038.02.083.036.027.01.028.01.055.027.038.009.018.01.047.018.017.009.038.019.028.009.027.018.037.019.028.017.018.01.038.019.027.018.046.028.028.01.045.027.01.009.028.02.055.045.029.018.027.019.019.008.027.02.046.045.038.027.027.019.01.01.018.009.045.038.029.027.018.018.028.018.028.019.017.01.074.073.037.038.083.083.02.018c.01.01.027.027.037.046l.018.018.102.12.028.036c.008.01.008.02.017.02l.056.083.028.027.055.074.047.074.027.055.037.065.027.055.01.018.018.038.047.092.045.092.02.046c.036.083.063.166.1.258.046.12.083.249.111.388.028.102.047.194.065.295l.018.167.027.184c.01.075.02.158.02.231.008.074.008.148.008.22v.158a.06.06 0 0 1-.009.028c-.01.019-.019.028-.037.046-.013.01-.03.029-.05.029-.017.008-.036.008-.055.008h-.027a.135.135 0 0 1-.056-.018c-.018-.01-.037-.018-.045-.037-.01-.018-.028-.038-.038-.056a.122.122 0 0 1-.019-.055v-.22a5.461 5.461 0 0 0-.036-.394c-.01-.09-.028-.175-.038-.259 0-.045-.01-.09-.018-.128l-.018-.092-.023-.087-.01-.056-.027-.092a1.943 1.943 0 0 0-.074-.221.681.681 0 0 0-.064-.148l-.018-.046-.083-.166-.02-.028a1.303 1.303 0 0 0-.138-.24l-.027-.046h-.124l-.04-.056a1.033 1.033 0 0 0-.11-.147l-.077-.093-.01-.01-.028-.035-.021-.027-.046-.046-.01-.018-.043-.037-.027-.029-.052-.046-.024-.022-.028-.028-.01-.01c-.01-.01-.027-.028-.046-.037l-.047-.038-.018-.01-.038-.028-.045-.037-.028-.022-.018-.01-.037-.032c0-.01-.01-.01-.02-.01l-.017-.018-.01-.01v-.008l-.018-.008-.037-.023-.027-.02-.047-.027-.037-.028-.017-.01-.02-.007h-.055l-.012-.01-.04-.022-.006-.008-.018-.01-.028-.013h-.007l-.028-.01-.015-.01-.028-.008-.006-.007-.019-.01-.032-.018-.019-.01-.055-.018-.046-.017-.084-.01-.027-.018a.05.05 0 0 0-.028-.01l-.018-.01-.046-.018-.019-.01h-.018l-.037-.017-.018-.01-.028-.01h-.056c-.005 0-.012-.003-.019-.004h-.055l-.028-.01h-.01l-.027-.01h-.025c-.015-.008-.028-.008-.043-.008l-.006-.01-.037-.01c-.019-.009-.035-.009-.052-.009l-.028-.01-.03-.01-.028-.008-.038-.01h-.037l-.11-.013h-.056l-.071-.01h-.047l-.042-.004h-.018l-.033-.01h-.176l-.006-.01h-.037a.12.12 0 0 1-.056-.018c-.018-.01-.037-.018-.05-.037l-.018-.028c-.018-.018-.018-.037-.028-.055-.008-.018-.008-.037-.008-.055 0-.019 0-.037.009-.056.01-.017.018-.036.037-.046.01-.018.027-.027.046-.037a.123.123 0 0 1 .055-.018h.038l.01.04Zm.341.968.023.002.037.004c.005 0 .011 0 .018.002l.046.003.037.005.015.01.028.01.03.008.027.01h.018l.026.01.043.009.035.01.016.008h.045l.073.017.028.01.028.009.028.01s.009 0 .009.009l.028.01.027.01.028.009c.01 0 .018.009.028.009.005 0 .009.01.016.01l.039.018h.018l.055.018.031.018.028.019.067.027.037.01.019.019c.027.008.055.027.083.036l.03.018.029.019.03.018c.028.018.05.028.075.046l.017.01.026.018.013.01.046.027.023.019.04.026.018.01.018.008.029.019.037.028c.009.009.013.009.02.018.007.01.01.01.016.019l.02.018.022.018.019.018.028.029.018.018.01.01.055.055.01.01c0 .009.01.018.018.018l.01.008.027.028.018.028.019.018.027.037.029.029.055.073.009.018.037.047.01.017.01.02.009.017.01.019c.01.009.01.018.017.037l.027.046.01.01.017.037.02.027c.008.01.008.018.017.028l.019.028.018.037.018.037.01.028c.01.027.028.046.037.074 0 .009.01.018.01.027l.027.074.037.12c0 .01.01.027.01.037l.028.083.027.111.028.148c.009.045.009.083.018.13.01.073.019.146.019.22l.009.13v.101c0 .01 0 .018-.01.028l-.026.026c-.018.015-.028.028-.046.038a.613.613 0 0 1-.055.025.15.15 0 0 1-.065.01c-.018 0-.038-.01-.055-.02-.01 0-.019-.009-.028-.012a.102.102 0 0 1-.046-.04c-.019-.018-.029-.037-.029-.056l-.008-.027v-.193c0-.082-.01-.157-.02-.237a2.527 2.527 0 0 0-.045-.258c-.018-.055-.027-.11-.046-.16l-.018-.056-.018-.046-.01-.019-.028-.074-.027-.055-.047-.092-.042-.073v-.012l-.018-.03-.018-.022-.028-.047-.028-.037-.055-.073c-.028-.038-.056-.074-.088-.11-.008-.01-.017-.018-.017-.028l-.019-.017-.01-.01-.019-.009-.018-.017v-.09l-.073-.069-.047-.042v-.008l-.018-.02-.023-.017-.01-.01c0-.01-.01-.01-.018-.01l-.028-.01-.01-.008-.037-.028-.008-.01-.01-.01c-.007-.008-.014-.008-.019-.008l-.036-.028-.01-.01-.037-.018-.007-.01-.028-.018-.018-.01-.019-.017-.017-.02h-.01a.158.158 0 0 0-.065-.036l-.027-.019-.018-.008-.01-.01-.028-.019-.027-.009-.037-.018-.028-.01-.01-.01-.034-.008v-.007l-.056-.019-.037-.018-.018-.01h-.037c-.019-.009-.028-.009-.046-.018h-.028l-.027-.01h-.027l-.029-.008-.017-.01H12.6l-.038-.01-.017-.01h-.102l-.042-.009h-.216l-.029-.01a.177.177 0 0 1-.055-.036c-.009-.019-.028-.037-.037-.055-.01-.02-.018-.038-.018-.056v-.056a.202.202 0 0 1 .018-.064c.005-.01.01-.019.018-.028a.123.123 0 0 1 .047-.046c.009-.01.018-.01.027-.018.019-.01.037-.01.056-.01h.037l-.009.034Zm.28 1.003c.009 0 .018 0 .026.002l.029.001.032.003c.064.006.13.015.195.029l.064.014.016.005.07.018.037.012.028.01c.028.008.056.027.083.037l.01.009.037.018.055.029.018.008c.01.01.02.01.029.019.009.01.027.018.037.027.037.019.064.047.092.065l.064.055.056.056.037.046.018.018.019.019.027.037.056.083.046.083.037.074.028.064c.027.064.037.12.056.184.017.056.027.121.036.176l.01.092.01.084v.036c0 .028-.01.046-.019.065a.15.15 0 0 1-.046.055.167.167 0 0 1-.065.038c-.018.008-.037.008-.055.008-.018 0-.037 0-.055-.008l-.064-.029c-.019-.018-.037-.027-.056-.056a.519.519 0 0 1-.028-.064v-.102l-.01-.064-.009-.074-.01-.064-.01-.037c0-.01-.008-.028-.008-.037-.018-.075-.055-.148-.092-.222l-.038-.037-.029-.036-.027-.028-.01-.019-.046-.037-.037-.037-.037-.028c-.01-.009-.018-.009-.037-.018l-.056-.037-.037-.019-.018-.009h-.01l-.047-.019-.055-.018-.055-.01h-.046l-.028-.009-.021-.004h-.028l-.037-.01h-.157l-.009-.046h-.024a.135.135 0 0 1-.05-.018.183.183 0 0 1-.054-.05.332.332 0 0 1-.028-.055.21.21 0 0 1-.008-.055c0-.023 0-.046.01-.07a.161.161 0 0 1 .037-.061l.037-.028a.123.123 0 0 1 .056-.018l.038-.046h.02Z" fill="#FFF" fill-rule="nonzero"/></g></svg>