<svg viewBox="0 0 32 32" xmlns="http://www.w3.org/2000/svg"><g fill="none" fill-rule="evenodd"><path d="M4 16C4 9.373 9.373 4 16 4s12 5.373 12 12-5.373 12-12 12S4 22.627 4 16Z" fill="#00ADEF"/><path d="M22.793 13.681c-.064 1.402-1.043 3.32-2.937 5.757-1.958 2.544-3.614 3.816-4.969 3.816-.84 0-1.55-.774-2.13-2.324l-1.162-4.262c-.431-1.549-.893-2.324-1.388-2.324-.107 0-.484.227-1.13.678L8.4 14.15a178.77 178.77 0 0 0 2.101-1.874c.948-.819 1.66-1.25 2.134-1.293 1.12-.108 1.81.658 2.07 2.297.28 1.77.473 2.87.581 3.3.324 1.468.68 2.201 1.068 2.201.3 0 .754-.476 1.357-1.428s.926-1.676.97-2.174c.086-.822-.237-1.233-.97-1.233-.344 0-.7.079-1.066.236.708-2.318 2.06-3.444 4.056-3.38 1.48.044 2.178 1.003 2.092 2.879" fill="#FFFFFE"/></g></svg>