<svg viewBox="0 0 32 32" fill="none" xmlns="http://www.w3.org/2000/svg">
    <path fill-rule="evenodd" clip-rule="evenodd" d="M8.849 20.93H6.478L4.7 13.948c-.084-.321-.263-.605-.527-.739A7.563 7.563 0 0 0 2 12.47v-.269h3.82c.526 0 .922.404.987.873l.923 5.036 2.37-5.909h2.305L8.849 20.93Zm4.873 0h-2.239l1.844-8.729h2.239l-1.844 8.729Zm4.74-6.31c.067-.47.462-.74.923-.74a4.069 4.069 0 0 1 2.173.403l.396-1.88A5.526 5.526 0 0 0 19.912 12c-2.173 0-3.754 1.209-3.754 2.887 0 1.277 1.12 1.947 1.91 2.35.856.403 1.185.672 1.12 1.075 0 .604-.66.872-1.317.872-.79 0-1.581-.2-2.305-.537l-.395 1.88c.79.335 1.646.47 2.436.47 2.437.067 3.951-1.141 3.951-2.954 0-2.283-3.095-2.417-3.095-3.424Zm10.932 6.31L27.616 12.2h-1.91a.993.993 0 0 0-.922.672l-3.292 8.057h2.305l.46-1.276h2.832l.264 1.276h2.041Zm-3.358-6.378.658 3.29H24.85l1.186-3.29Z" fill="#172B85"/>
</svg>
