<svg viewBox="0 0 32 32" fill="none" xmlns="http://www.w3.org/2000/svg"><circle cx="16" cy="16" r="12" fill="#07F"/><path fill-rule="evenodd" clip-rule="evenodd" d="M16.058 28C22.658 27.969 28 22.608 28 16c0-1.289-.203-2.53-.58-3.694-1.508-1.221-4.339-3.506-7.58-3.506-2.184 0-3.93 1.2-5.89 2.548-2.502 1.72-5.353 3.681-9.912 3.692A12.17 12.17 0 0 0 4 16c0 6.608 5.341 11.969 11.942 12h.116Z" fill="#F45FFF"/><path fill-rule="evenodd" clip-rule="evenodd" d="M18.76 13.48a1.08 1.08 0 1 1 2.16 0v9.84a1.08 1.08 0 1 1-2.16 0v-9.84Zm3.84 2.76a1.08 1.08 0 0 1 2.16 0v4.32a1.08 1.08 0 1 1-2.16 0v-4.32ZM16 15.16c.596 0 1.08.484 1.08 1.08v4.32a1.08 1.08 0 1 1-2.16 0v-4.32c0-.596.483-1.08 1.08-1.08Zm-4.92 2.64a1.08 1.08 0 0 1 2.16 0V19a1.08 1.08 0 1 1-2.16 0v-1.2Zm-2.76-1.08a1.08 1.08 0 0 0-1.08 1.08V19a1.08 1.08 0 1 0 2.16 0v-1.2a1.08 1.08 0 0 0-1.08-1.08Z" fill="#fff"/></svg>
