<svg viewBox="0 0 32 32" fill="none" xmlns="http://www.w3.org/2000/svg"><path d="M16 28c6.627 0 12-5.373 12-12S22.627 4 16 4 4 9.373 4 16s5.373 12 12 12Z" fill="#07F"/><path d="M16.625 20.5c-4.783 0-7.511-3.003-7.625-8h2.396c.079 3.668 1.845 5.221 3.244 5.541V12.5h2.256v3.163c1.382-.136 2.834-1.577 3.323-3.163h2.256a5.85 5.85 0 0 1-1.08 2.287 6.47 6.47 0 0 1-1.989 1.701 6.842 6.842 0 0 1 2.267 1.653A6.155 6.155 0 0 1 23 20.5h-2.483a3.933 3.933 0 0 0-1.34-1.93 4.518 4.518 0 0 0-2.28-.929V20.5h-.272Z" fill="#fff"/></svg>