<svg viewBox="0 0 32 32" fill="none" xmlns="http://www.w3.org/2000/svg">
<path d="M16.0007 28C22.6281 28 28.0007 22.6274 28.0007 16C28.0007 9.37258 22.6281 4 16.0007 4C9.37332 4 4.00073 9.37258 4.00073 16C4.00073 22.6274 9.37332 28 16.0007 28Z" fill="white"/>
<path d="M16.0007 28.5C9.12573 28.5 3.50073 22.875 3.50073 16C3.50073 9.125 9.12573 3.5 16.0007 3.5C22.8757 3.5 28.5007 9.125 28.5007 16C28.5007 22.875 22.8757 28.5 16.0007 28.5ZM16.0007 4.54167C9.64656 4.54167 4.5424 9.64583 4.5424 16C4.5424 22.3542 9.64656 27.4583 16.0007 27.4583C22.3549 27.4583 27.459 22.3542 27.459 16C27.459 9.64583 22.3549 4.54167 16.0007 4.54167Z" fill="#D8D8D8"/>
<path fill-rule="evenodd" clip-rule="evenodd" d="M11.6804 11.3409C11.6587 11.4016 11.4678 11.9247 11.256 12.5034C11.0442 13.0822 10.871 13.5647 10.871 13.5756C10.871 13.5866 13.5782 13.591 16.887 13.5854L22.9031 13.5753L23.2324 12.6735C23.4135 12.1776 23.6066 11.65 23.6615 11.5012L23.7612 11.2307H17.7405H11.7198L11.6804 11.3409ZM9.99 15.9699C9.76317 16.5926 9.56931 17.1248 9.55917 17.1524C9.54448 17.1925 10.7501 17.2006 15.5614 17.1924L21.5821 17.1823L21.8846 16.3607C22.0509 15.9088 22.2443 15.3813 22.3143 15.1884L22.4415 14.8377H16.4219H10.4024L9.99 15.9699ZM9.07937 18.4748C9.06452 18.5134 8.86961 19.0455 8.64627 19.6571L8.24023 20.7693H14.2582H20.2762L20.3546 20.5589C20.6259 19.8304 21.123 18.4542 21.123 18.4316C21.123 18.4168 18.4192 18.4047 15.1147 18.4047C9.4295 18.4047 9.10496 18.4084 9.07937 18.4748Z" fill="#02ABFF"/>
</svg>
