<svg viewBox="0 0 32 32" xmlns="http://www.w3.org/2000/svg"><g transform="translate(4 4)" fill="none" fill-rule="evenodd"><circle fill="#25D366" cx="12" cy="12" r="12"/><path d="M15.207 13.39c-.175-.088-1.03-.506-1.19-.564-.16-.059-.276-.088-.392.088-.115.172-.45.562-.551.677-.102.114-.204.123-.377.044-.175-.087-.737-.271-1.402-.866a5.292 5.292 0 0 1-.968-1.208c-.101-.175-.011-.27.076-.358.08-.08.175-.202.263-.305.085-.106.113-.176.173-.29.059-.122.029-.219-.014-.306-.044-.087-.392-.944-.538-1.286-.14-.341-.284-.298-.392-.298-.1-.009-.217-.009-.333-.009a.658.658 0 0 0-.465.21c-.16.175-.61.595-.61 1.444 0 .848.624 1.67.711 1.793.087.114 1.228 1.864 2.975 2.617.417.175.741.28.994.367.417.132.796.113 1.097.07.335-.053 1.03-.42 1.176-.832.149-.411.149-.752.105-.831-.043-.079-.158-.123-.333-.201m-3.176 4.341h-.01a5.835 5.835 0 0 1-2.948-.805l-.21-.124-2.188.568.586-2.126-.14-.219a5.757 5.757 0 0 1-.884-3.068c0-3.176 2.6-5.766 5.8-5.766 1.548 0 3.001.604 4.096 1.697a5.71 5.71 0 0 1 1.696 4.078c-.002 3.175-2.601 5.766-5.795 5.766M16.97 7.012A7.083 7.083 0 0 0 12.026 5c-3.84 0-6.965 3.111-6.967 6.938 0 1.222.32 2.415.93 3.467L5 19l3.695-.964a7.036 7.036 0 0 0 3.331.844h.004c3.841 0 6.968-3.112 6.97-6.939a6.88 6.88 0 0 0-2.039-4.906" fill="#FFF" fill-rule="nonzero"/></g></svg>