<svg viewBox="0 0 32 32" fill="none" xmlns="http://www.w3.org/2000/svg">
<path d="M16.0002 28C22.6435 28 28 22.6434 28 16C28 9.35661 22.6435 4 16.0002 4C9.35699 4 4.00049 9.35661 4.00049 16C3.94064 22.6434 9.38691 28 16.0002 28Z" fill="url(#paint0_linear_2229_896)"/>
<path d="M9.13944 20.1744H10.6224L12.3155 14.0909L13.9619 20.1744H15.5149L17.6051 11.8256H16.1572L14.6625 17.9909L13.0044 11.8256H11.72L10.0969 17.9559L8.64901 11.8256H7.06097L9.13944 20.1744Z" fill="white"/>
<path d="M18.8671 20.1744H22.0782C23.9114 20.1744 24.939 19.3921 24.939 17.8391V17.7924C24.939 16.6831 24.4019 16.0642 23.2692 15.819C24.215 15.5271 24.5887 14.8732 24.5887 14.0441V13.9974C24.5887 12.4795 23.5728 11.8256 21.8563 11.8256H18.8671V20.1744ZM20.3851 15.3403V12.9349H21.6461C22.6387 12.9349 23.0941 13.2735 23.0941 14.0675V14.1142C23.0941 14.9666 22.6971 15.3403 21.6695 15.3403H20.3851ZM20.3851 19.0651V16.3912H21.7863C22.9306 16.3912 23.4093 16.8232 23.4093 17.6873V17.734C23.4093 18.5981 22.9306 19.0651 21.8914 19.0651H20.3851Z" fill="white"/>
<defs>
<linearGradient id="paint0_linear_2229_896" x1="4" y1="16" x2="28" y2="16" gradientUnits="userSpaceOnUse">
<stop stop-color="#BE12A6"/>
<stop offset="1" stop-color="#491174"/>
</linearGradient>
</defs>
</svg>
