<svg viewBox="0 0 32 32" fill="none" xmlns="http://www.w3.org/2000/svg"><path d="M4 16C4 9.373 9.373 4 16 4s12 5.373 12 12-5.373 12-12 12S4 22.627 4 16Z" fill="#fff"/><path fill-rule="evenodd" clip-rule="evenodd" d="M15.496 10.949 21.998 10v5.707l-6.502.051V10.95Zm-.592.087L10 11.704l.005 4.09 4.901-.027-.002-4.73Zm.002 10.01-.004-4.734-4.898-.032v4.092l4.902.674Zm7.092.991.002-5.68-6.513-.011.01 4.773 6.502.918Z" fill="#00ADEF"/><path fill-rule="evenodd" clip-rule="evenodd" d="M16 4.542C9.672 4.542 4.542 9.672 4.542 16S9.672 27.458 16 27.458 27.458 22.328 27.458 16 22.328 4.542 16 4.542ZM3.5 16C3.5 9.096 9.096 3.5 16 3.5S28.5 9.096 28.5 16 22.904 28.5 16 28.5 3.5 22.904 3.5 16Z" fill="#D8D8D8"/></svg>