<svg viewBox="0 0 32 32" fill="none" xmlns="http://www.w3.org/2000/svg">
<path d="M4 16C4 9.37258 9.37258 4 16 4C22.6274 4 28 9.37258 28 16C28 22.6274 22.6274 28 16 28C9.37258 28 4 22.6274 4 16Z" fill="white"/>
<path fill-rule="evenodd" clip-rule="evenodd" d="M15.4962 10.949L21.9985 10V15.7065L15.4962 15.7582V10.949ZM14.904 11.0364L10 11.7043L10.0045 15.7946L14.9062 15.7667L14.904 11.0364ZM14.9055 21.0462L14.9017 16.3117L10.0035 16.28L10.0038 20.3723L14.9055 21.0462ZM21.9985 22.0371L22 16.3562L15.487 16.3456L15.4962 21.1194L21.9985 22.0371Z" fill="#00ADEF"/>
<path fill-rule="evenodd" clip-rule="evenodd" d="M16 4.54167C9.67174 4.54167 4.54167 9.67174 4.54167 16C4.54167 22.3283 9.67174 27.4583 16 27.4583C22.3283 27.4583 27.4583 22.3283 27.4583 16C27.4583 9.67174 22.3283 4.54167 16 4.54167ZM3.5 16C3.5 9.09644 9.09644 3.5 16 3.5C22.9036 3.5 28.5 9.09644 28.5 16C28.5 22.9036 22.9036 28.5 16 28.5C9.09644 28.5 3.5 22.9036 3.5 16Z" fill="#D8D8D8"/>
</svg>
