<svg viewBox="0 0 32 32" fill="none" xmlns="http://www.w3.org/2000/svg">
<path d="M16.0007 28C22.6281 28 28.0007 22.6274 28.0007 16C28.0007 9.37258 22.6281 4 16.0007 4C9.37332 4 4.00073 9.37258 4.00073 16C4.00073 22.6274 9.37332 28 16.0007 28Z" fill="#468FB8"/>
<path d="M9.31287 12.0583C9.31287 10.9978 9.90749 10.0675 10.9507 9.87682C11.9482 9.69446 13.4817 9.52869 15.7603 9.52869C18.0388 9.52869 19.5723 9.69446 20.5698 9.87682C21.613 10.0675 22.2077 10.9978 22.2077 12.0583V19.8083C22.2077 20.9653 21.5166 21.9761 20.3744 22.161C19.358 22.3256 17.8641 22.4713 15.7603 22.4713C13.6565 22.4713 12.1625 22.3256 11.1461 22.161C10.0039 21.9761 9.31287 20.9653 9.31287 19.8083V12.0583Z" fill="url(#paint0_linear_2229_895)"/>
<path fill-rule="evenodd" clip-rule="evenodd" d="M14.5767 17.1211L11.3037 14.1645V17.6973L14.2451 20.2573H14.86L22.6885 12.2792L21.6393 9.90247L14.5767 17.1211Z" fill="#468FB8"/>
<defs>
<linearGradient id="paint0_linear_2229_895" x1="10.9482" y1="22.4713" x2="21.5034" y2="10.0523" gradientUnits="userSpaceOnUse">
<stop stop-color="#71F173"/>
<stop offset="1" stop-color="#51B9E2"/>
</linearGradient>
</defs>
</svg>
