<svg viewBox="0 0 32 32" xmlns="http://www.w3.org/2000/svg"><defs><linearGradient x1="35.276%" y1="12.669%" x2="50%" y2="68.332%" id="a"><stop stop-color="#FFF" offset="0%"/><stop stop-color="#FFF" stop-opacity="0" offset="100%"/></linearGradient></defs><g fill="none" fill-rule="evenodd"><path d="M19.122 11.335c-.657-.011-1.1-.206-1.632-.377a5.384 5.384 0 0 0-3.94.278 5.473 5.473 0 0 0-2.497 2.439c-.356.7-.66 1.513-1.106 2.01l-.066.07-.002.002-.008.008c-1.466 1.573-2.124 3.19-1.639 4.22 1.069 2.27 16.467-5.107 15.4-7.376-.419-.888-2.216-1.432-4.51-1.274Z" fill="#000" fill-rule="nonzero"/><path d="M17.68 19.914c4.27-2.046 6.818-5.643 6.124-7.114-.692-1.472-4.854-1.208-9.123.837-4.27 2.046-7.03 5.099-6.338 6.57.692 1.47 5.066 1.752 9.337-.293Z" fill="#07F" fill-rule="nonzero"/><path d="M17.574 19.256c2.02-.968 3.39-2.317 3.063-3.012-.327-.696-2.23-.476-4.25.492-2.019.967-3.39 2.315-3.063 3.011.327.696 2.23.476 4.25-.491Z" fill="#000" fill-rule="nonzero"/><path d="M17.574 19.256c2.02-.968 3.39-2.317 3.063-3.012-.327-.696-2.23-.476-4.25.492-2.019.967-3.39 2.315-3.063 3.011.327.696 2.23.476 4.25-.491Z" fill="#FFF"/><path fill="url(#a)" fill-rule="nonzero" opacity=".4" d="m5.357 9.263.033 2.611 5.619-.33 3.73-3.75-2.191-2.126" transform="translate(8 10.5)"/><circle stroke="#D8D8D8" cx="16" cy="16" r="11.5"/></g></svg>