<svg viewBox="0 0 32 32" xmlns="http://www.w3.org/2000/svg"><g fill="none" fill-rule="evenodd"><circle stroke="#D8D8D8" cx="16" cy="16" r="11.5"/><g transform="translate(9 9.5)"><path d="M2.364 0h9.272c.603 0 1.091.488 1.091 1.09v10.728H1.273V1.091C1.273.488 1.76 0 2.363 0Z" fill="#0074FF"/><path fill="#FFF" d="M1.939 1.861H12.06v6.175H1.939z"/><circle fill="#FFF" cx="2.545" cy="9.927" r="1"/><circle fill="#FFF" cx="3.818" cy="9.927" r="1"/><circle fill="#FFF" cx="10.152" cy="9.927" r="1"/><circle fill="#FFF" cx="11.424" cy="9.927" r="1"/><path fill="#0074FF" d="M0 1.861h1v2.482H0z"/><path fill="#000" d="M1.273 11.818h2.545V13H1.273zM10.182 11.818h2.545V13h-2.545z"/><path fill="#0074FF" d="M13.333 1.861h1v2.482h-1z"/></g></g></svg>