<svg viewBox="0 0 32 32" fill="none" xmlns="http://www.w3.org/2000/svg">
<path d="M16 28C22.6274 28 28 22.6274 28 16C28 9.37258 22.6274 4 16 4C9.37258 4 4 9.37258 4 16C4 22.6274 9.37258 28 16 28Z" fill="white"/>
<path fill-rule="evenodd" clip-rule="evenodd" d="M16 4.54167C9.67174 4.54167 4.54167 9.67174 4.54167 16C4.54167 22.3283 9.67174 27.4583 16 27.4583C22.3283 27.4583 27.4583 22.3283 27.4583 16C27.4583 9.67174 22.3283 4.54167 16 4.54167ZM3.5 16C3.5 9.09644 9.09644 3.5 16 3.5C22.9036 3.5 28.5 9.09644 28.5 16C28.5 22.9036 22.9036 28.5 16 28.5C9.09644 28.5 3.5 22.9036 3.5 16Z" fill="#D8D8D8"/>
<path d="M16.0467 21.963C19.11 21.963 21.5933 19.5031 21.5933 16.4687C21.5933 13.4342 19.11 10.9743 16.0467 10.9743C12.9833 10.9743 10.5 13.4342 10.5 16.4687C10.5 19.5031 12.9833 21.963 16.0467 21.963Z" fill="#FFCC00"/>
<path d="M19.0333 10.9268V15.729C18.98 15.7396 19.0333 15.729 19.0333 15.729V16.3577C19.0333 16.9336 18.9267 17.3668 18.708 17.8158C18.2547 18.7457 17.2093 19.4272 16.0467 19.4272C14.3987 19.4272 13.06 18.1011 13.06 16.4687C13.06 14.8362 14.3987 13.5102 16.0467 13.5102C16.9427 13.5102 17.7427 13.9011 18.292 14.5192C18.4413 14.6883 18.5693 14.9049 18.676 15.2007C18.6387 15.0211 18.612 14.8573 18.612 14.7781V10.0234V8.01584L22.452 9.49508V12.2423L19.0333 10.9268Z" fill="#FF3333"/>
</svg>
