<svg viewBox="0 0 32 32" fill="none" xmlns="http://www.w3.org/2000/svg">
<path d="M16 28C22.6274 28 28 22.6274 28 16C28 9.37258 22.6274 4 16 4C9.37258 4 4 9.37258 4 16C4 22.6274 9.37258 28 16 28Z" fill="white"/>
<path d="M22.9967 21H9V11H23L22.9967 21Z" fill="#FFCC00"/>
<path opacity="0.15" d="M9 20.9999L15.978 15.3333L23 20.9999" fill="black"/>
<path d="M23 11L16.5157 16.4733C16.2057 16.7327 15.699 16.731 15.3897 16.47L9 11H23Z" fill="#FF0000"/>
<path fill-rule="evenodd" clip-rule="evenodd" d="M16 4.54167C9.67174 4.54167 4.54167 9.67174 4.54167 16C4.54167 22.3283 9.67174 27.4583 16 27.4583C22.3283 27.4583 27.4583 22.3283 27.4583 16C27.4583 9.67174 22.3283 4.54167 16 4.54167ZM3.5 16C3.5 9.09644 9.09644 3.5 16 3.5C22.9036 3.5 28.5 9.09644 28.5 16C28.5 22.9036 22.9036 28.5 16 28.5C9.09644 28.5 3.5 22.9036 3.5 16Z" fill="#D8D8D8"/>
</svg>
