<svg viewBox="0 0 32 32" fill="none" xmlns="http://www.w3.org/2000/svg">
<path d="M16.0007 28C22.6281 28 28.0007 22.6274 28.0007 16C28.0007 9.37258 22.6281 4 16.0007 4C9.37332 4 4.00073 9.37258 4.00073 16C4.00073 22.6274 9.37332 28 16.0007 28Z" fill="#242729"/>
<path fill-rule="evenodd" clip-rule="evenodd" d="M27.9587 14.9884L20.1299 19.5083C17.021 21.3033 13.0457 20.2381 11.2508 17.1292C9.45584 14.0203 10.521 10.0449 13.6299 8.25L19.8807 4.64111C24.2987 6.1498 27.556 10.1635 27.9587 14.9884Z" fill="#FF7038"/>
<path fill-rule="evenodd" clip-rule="evenodd" d="M12.4171 27.4558L19.2543 23.5083C22.3632 21.7134 23.4284 17.7381 21.6334 14.6292C19.8385 11.5203 15.8632 10.4551 12.7543 12.25L4.06671 17.2658C4.57178 22.0837 7.92774 26.0528 12.4171 27.4558Z" fill="#FFE66E"/>
</svg>
