<svg viewBox="0 0 32 32" fill="none" xmlns="http://www.w3.org/2000/svg">
<path d="M16 28C22.6274 28 28 22.6274 28 16C28 9.37258 22.6274 4 16 4C9.37258 4 4 9.37258 4 16C4 22.6274 9.37258 28 16 28Z" fill="white"/>
<path d="M19.1218 11.3346C18.4651 11.3237 18.0224 11.1295 17.4898 10.9578C16.3211 10.5797 14.8743 10.6015 13.5491 11.236C12.4035 11.7844 11.5527 12.6942 11.0531 13.6749C10.6965 14.3753 10.3936 15.1877 9.94666 15.6851L9.88088 15.7553L9.8791 15.7571L9.87128 15.7651C8.40497 17.3382 7.74684 18.9542 8.23217 19.9851C9.30062 22.2553 24.6994 14.8782 23.6313 12.6091C23.2131 11.7211 21.4162 11.1771 19.1228 11.3346H19.1218Z" fill="black"/>
<path d="M17.6796 19.9138C21.9492 17.8684 24.4978 14.2709 23.8044 12.7996C23.1122 11.3284 18.9504 11.5916 14.6809 13.6375C10.4107 15.6829 7.65049 18.7356 8.34276 20.2066C9.03538 21.6778 13.4094 21.9593 17.6796 19.9138Z" fill="#0077FF"/>
<path d="M17.574 19.2557C19.5936 18.2884 20.9646 16.9393 20.6372 16.2437C20.31 15.5477 18.4067 15.768 16.3875 16.7357C14.368 17.7029 12.9966 19.0513 13.3241 19.7473C13.6512 20.4429 15.5545 20.2229 17.574 19.2557Z" fill="black"/>
<path fill-rule="evenodd" clip-rule="evenodd" d="M17.574 19.2557C19.5936 18.2884 20.9646 16.9393 20.6372 16.2437C20.31 15.5477 18.4068 15.768 16.3876 16.7357C14.368 17.7029 12.9966 19.0513 13.3241 19.7473C13.6512 20.4429 15.5545 20.2229 17.574 19.2557Z" fill="white"/>
<path opacity="0.4" d="M13.3571 19.7633L13.3902 22.3742L19.0087 22.0433L22.7392 18.2949L20.5479 16.1684" fill="url(#paint0_linear_1429_1003)"/>
<path fill-rule="evenodd" clip-rule="evenodd" d="M16 4.54167C9.67174 4.54167 4.54167 9.67174 4.54167 16C4.54167 22.3283 9.67174 27.4583 16 27.4583C22.3283 27.4583 27.4583 22.3283 27.4583 16C27.4583 9.67174 22.3283 4.54167 16 4.54167ZM3.5 16C3.5 9.09644 9.09644 3.5 16 3.5C22.9036 3.5 28.5 9.09644 28.5 16C28.5 22.9036 22.9036 28.5 16 28.5C9.09644 28.5 3.5 22.9036 3.5 16Z" fill="#D8D8D8"/>
<defs>
<linearGradient id="paint0_linear_1429_1003" x1="16.6668" y1="16.9546" x2="17.2942" y2="20.5409" gradientUnits="userSpaceOnUse">
<stop stop-color="white"/>
<stop offset="1" stop-color="white" stop-opacity="0"/>
</linearGradient>
</defs>
</svg>
