<svg viewBox="0 0 32 32" fill="none" xmlns="http://www.w3.org/2000/svg">
<path d="M16 28C22.6274 28 28 22.6274 28 16C28 9.37258 22.6274 4 16 4C9.37258 4 4 9.37258 4 16C4 22.6274 9.37258 28 16 28Z" fill="white"/>
<path fill-rule="evenodd" clip-rule="evenodd" d="M8.00012 15.5597L21.983 10.0056L16.4319 24.0001L13.7166 18.2943L8.00012 15.5597Z" fill="#FFE065"/>
<path fill-rule="evenodd" clip-rule="evenodd" d="M8.00012 15.5598L15.3068 16.7015L16.4319 24.0002L13.7166 18.2944L8.00012 15.5598Z" fill="#ECA704"/>
<path fill-rule="evenodd" clip-rule="evenodd" d="M15.3067 16.7014L21.983 10.0056L16.4319 24.0001L15.3067 16.7014Z" fill="#FFCC00"/>
<path fill-rule="evenodd" clip-rule="evenodd" d="M16 4.54167C9.67174 4.54167 4.54167 9.67174 4.54167 16C4.54167 22.3283 9.67174 27.4583 16 27.4583C22.3283 27.4583 27.4583 22.3283 27.4583 16C27.4583 9.67174 22.3283 4.54167 16 4.54167ZM3.5 16C3.5 9.09644 9.09644 3.5 16 3.5C22.9036 3.5 28.5 9.09644 28.5 16C28.5 22.9036 22.9036 28.5 16 28.5C9.09644 28.5 3.5 22.9036 3.5 16Z" fill="#D8D8D8"/>
</svg>
