<svg viewBox="0 0 32 32" fill="none" xmlns="http://www.w3.org/2000/svg">
<path d="M16.0002 28C22.6435 28 28 22.6434 28 16C28 9.35661 22.6435 4 16.0002 4C9.35699 4 4.00049 9.35661 4.00049 16C3.94064 22.6434 9.38691 28 16.0002 28Z" fill="#FED42B"/>
<path fill-rule="evenodd" clip-rule="evenodd" d="M6.03809 22.7324L10.1949 17.2269L9.38696 22.9127L13.7859 24.4388L19.1423 15.8802C18.903 17.4663 18.5139 21.1471 22.0151 22.2842C23.7457 22.8109 25.4082 22.1936 26.9434 20.9434C27.6224 19.4371 28 17.7639 28 16C28 15.2133 27.9248 14.4447 27.7814 13.7008C26.0577 16.3018 24.3967 18.1409 23.5114 17.9152C22.0114 17.5328 23.3154 12.8145 24.1844 9.66956L24.2295 9.50623V9.41638L19.3518 7.7406L13.5165 17.2568L14.3245 12.0498L10.1051 10.5835L4.20496 18.3058C4.51025 19.9216 5.14587 21.4203 6.03809 22.7324Z" fill="black"/>
</svg>
