<svg viewBox="0 0 32 32" fill="none" xmlns="http://www.w3.org/2000/svg">
<path d="M16 28C22.6274 28 28 22.6274 28 16C28 9.37258 22.6274 4 16 4C9.37258 4 4 9.37258 4 16C4 22.6274 9.37258 28 16 28Z" fill="white"/>
<path fill-rule="evenodd" clip-rule="evenodd" d="M16 4.54167C9.67174 4.54167 4.54167 9.67174 4.54167 16C4.54167 22.3283 9.67174 27.4583 16 27.4583C22.3283 27.4583 27.4583 22.3283 27.4583 16C27.4583 9.67174 22.3283 4.54167 16 4.54167ZM3.5 16C3.5 9.09644 9.09644 3.5 16 3.5C22.9036 3.5 28.5 9.09644 28.5 16C28.5 22.9036 22.9036 28.5 16 28.5C9.09644 28.5 3.5 22.9036 3.5 16Z" fill="#D8D8D8"/>
<path fill-rule="evenodd" clip-rule="evenodd" d="M11.3636 9.5H20.6364C21.2389 9.5 21.7273 9.98842 21.7273 10.5909V21.3182H10.2727V10.5909C10.2727 9.98842 10.7612 9.5 11.3636 9.5Z" fill="#0074FF"/>
<path d="M21.0606 11.3613H10.9394V17.5363H21.0606V11.3613Z" fill="white"/>
<path d="M11.5455 20.4272C12.0978 20.4272 12.5455 19.9795 12.5455 19.4272C12.5455 18.875 12.0978 18.4272 11.5455 18.4272C10.9932 18.4272 10.5455 18.875 10.5455 19.4272C10.5455 19.9795 10.9932 20.4272 11.5455 20.4272Z" fill="white"/>
<path d="M12.8182 20.4272C13.3705 20.4272 13.8182 19.9795 13.8182 19.4272C13.8182 18.875 13.3705 18.4272 12.8182 18.4272C12.2659 18.4272 11.8182 18.875 11.8182 19.4272C11.8182 19.9795 12.2659 20.4272 12.8182 20.4272Z" fill="white"/>
<path d="M19.1515 20.4272C19.7038 20.4272 20.1515 19.9795 20.1515 19.4272C20.1515 18.875 19.7038 18.4272 19.1515 18.4272C18.5992 18.4272 18.1515 18.875 18.1515 19.4272C18.1515 19.9795 18.5992 20.4272 19.1515 20.4272Z" fill="white"/>
<path d="M20.4243 20.4272C20.9765 20.4272 21.4243 19.9795 21.4243 19.4272C21.4243 18.875 20.9765 18.4272 20.4243 18.4272C19.872 18.4272 19.4243 18.875 19.4243 19.4272C19.4243 19.9795 19.872 20.4272 20.4243 20.4272Z" fill="white"/>
<path d="M10 11.3613H9V13.8431H10V11.3613Z" fill="#0074FF"/>
<path d="M12.8182 21.3181H10.2727V22.4999H12.8182V21.3181Z" fill="black"/>
<path d="M21.7273 21.3181H19.1818V22.4999H21.7273V21.3181Z" fill="black"/>
<path d="M23.3333 11.3613H22.3333V13.8431H23.3333V11.3613Z" fill="#0074FF"/>
</svg>
