<svg viewBox="0 0 32 32" xmlns="http://www.w3.org/2000/svg"><g fill="none" fill-rule="evenodd"><circle stroke="#D8D8D8" cx="16" cy="16" r="11.5"/><g fill-rule="nonzero"><ellipse cx="5.547" cy="5.51" rx="5.547" ry="5.494" transform="translate(10.5 10.958)" fill="#FC0"/><path d="M19.033 10.927v4.802c-.053.01 0 0 0 0v.629c0 .576-.106 1.009-.325 1.458-.453.93-1.499 1.611-2.661 1.611-1.648 0-2.987-1.326-2.987-2.958 0-1.633 1.339-2.959 2.987-2.959.896 0 1.696.391 2.245 1.01.15.168.277.385.384.68a2.693 2.693 0 0 1-.064-.422V8.016l3.84 1.48v2.746l-3.419-1.315Z" fill="#F33"/></g></g></svg>