<svg viewBox="0 0 33 32" fill="none" xmlns="http://www.w3.org/2000/svg">
<path d="M16.0018 28C22.6292 28 28.0018 22.6274 28.0018 16C28.0018 9.37258 22.6292 4 16.0018 4C9.37441 4 4.00183 9.37258 4.00183 16C4.00183 22.6274 9.37441 28 16.0018 28Z" fill="white"/>
<path d="M16.0018 28.5C9.12683 28.5 3.50183 22.875 3.50183 16C3.50183 9.125 9.12683 3.5 16.0018 3.5C22.8768 3.5 28.5018 9.125 28.5018 16C28.5018 22.875 22.8768 28.5 16.0018 28.5ZM16.0018 4.54167C9.64766 4.54167 4.5435 9.64583 4.5435 16C4.5435 22.3542 9.64766 27.4583 16.0018 27.4583C22.356 27.4583 27.4601 22.3542 27.4601 16C27.4601 9.64583 22.356 4.54167 16.0018 4.54167Z" fill="#D8D8D8"/>
<path d="M15.627 19.585C19.8261 19.585 22.2923 17.9722 22.2923 17.9722L22.2904 20.3465C22.2904 20.3465 19.8987 22.3245 15.6286 22.3245H15.627C11.357 22.3245 8.9653 20.3465 8.9653 20.3465L8.96332 17.9722C8.96332 17.9722 11.4281 19.5844 15.627 19.5844V19.585Z" fill="#E11023"/>
<path d="M19.5642 9.67578C19.0988 9.67028 18.6369 9.75681 18.2053 9.93035C17.7737 10.1038 17.381 10.3608 17.0499 10.6866C16.7188 11.0123 16.456 11.4003 16.2766 11.8279C16.0971 12.2555 16.0046 12.7143 16.0046 13.1778C16.0046 13.6412 16.0971 14.1 16.2766 14.5276C16.4559 14.9552 16.7188 15.3432 17.0498 15.6689C17.3809 15.9947 17.7737 16.2518 18.2053 16.4252C18.8488 16.6839 19.5547 16.7474 20.2343 16.6076C20.9139 16.4678 21.5368 16.131 22.0246 15.6395C22.6754 14.984 23.0403 14.0995 23.0403 13.1778C23.0403 12.2561 22.6754 11.3716 22.0246 10.7161C21.3739 10.0605 20.4899 9.68668 19.5642 9.67578ZM19.5642 14.4824C18.8594 14.4824 18.2898 13.8793 18.2898 13.1775C18.2898 12.4758 18.8615 11.8732 19.5642 11.8732C20.2677 11.8732 20.8391 12.4758 20.8391 13.1775C20.8407 13.8793 20.2695 14.4824 19.5642 14.4824ZM11.803 9.8538H8.96332V16.5151H11.8367C13.9308 16.5151 15.3896 15.0243 15.3896 13.1844V13.0986C15.3912 11.2592 13.8691 9.8538 11.803 9.8538ZM13.1945 13.1844C13.1945 13.861 12.7168 14.3931 11.9125 14.4168C11.4914 14.4301 11.1115 14.4168 11.1115 14.4168V11.9521C11.1115 11.9521 11.4504 11.9388 11.9125 11.9521C12.7336 11.9758 13.194 12.5078 13.194 13.1849L13.1945 13.1844Z" fill="#000200"/>
</svg>
