<svg viewBox="0 0 32 32" xmlns="http://www.w3.org/2000/svg"><g transform="translate(4 4)" fill="none" fill-rule="evenodd"><circle fill="red" cx="12" cy="12" r="12"/><path d="M18.708 8.544A1.774 1.774 0 0 0 17.489 7.3C16.398 7 12.006 7 12.006 7s-4.38-.006-5.483.299a1.774 1.774 0 0 0-1.218 1.245A19.035 19.035 0 0 0 5 12.006a19.035 19.035 0 0 0 .305 3.45A1.774 1.774 0 0 0 6.523 16.7c1.09.299 5.483.299 5.483.299s4.38 0 5.483-.3a1.774 1.774 0 0 0 1.219-1.245c.201-1.138.3-2.292.291-3.449.009-1.16-.089-2.32-.291-3.462Zm-8.103 5.604v-4.29l3.655 2.148-3.655 2.142Z" fill="#FFF" fill-rule="nonzero"/></g></svg>