<svg viewBox="0 0 32 32" fill="none" xmlns="http://www.w3.org/2000/svg">
<path d="M16 28C22.6274 28 28 22.6274 28 16C28 9.37258 22.6274 4 16 4C9.37258 4 4 9.37258 4 16C4 22.6274 9.37258 28 16 28Z" fill="#2D8CFF"/>
<path fill-rule="evenodd" clip-rule="evenodd" d="M22.6 12.6187L20 14.6936V17.3144L22.6 19.3893C22.784 19.543 23 19.5905 23 19.1708V12.8371C23 12.463 22.8267 12.4159 22.6 12.6187ZM9 17.5751V12.8501C9 12.6569 9.17208 12.5 9.38436 12.5H16.8846C18.0525 12.5 19 13.3618 19 14.4249V19.1499C19 19.3432 18.8279 19.5 18.6156 19.5H11.1154C9.94753 19.5 9 18.6382 9 17.5751Z" fill="white"/>
</svg>
