<svg viewBox="0 0 32 32" xmlns="http://www.w3.org/2000/svg"><defs><linearGradient x1="0%" y1="0%" x2="100%" y2="100%" id="a"><stop stop-color="#404040" offset="0%"/><stop stop-color="#333" offset="100%"/></linearGradient><linearGradient x1="9.5%" y1="0%" x2="90.5%" y2="100%" id="b"><stop stop-color="#FF9E6B" offset="0%"/><stop stop-color="#FE00FF" offset="100%"/></linearGradient><linearGradient x1="0%" y1="9.5%" x2="100%" y2="90.5%" id="c"><stop stop-color="#99F7B3" offset="0%"/><stop stop-color="#00F2FF" offset="100%"/></linearGradient><linearGradient x1="50%" y1="0%" x2="50%" y2="100%" id="d"><stop stop-color="#FFF" offset="0%"/><stop stop-color="#E5FBFF" offset="100%"/></linearGradient></defs><g fill="none" fill-rule="evenodd"><circle fill="url(#a)" cx="16" cy="16" r="12"/><path d="M18.25 16.462c-1.034 0-1.876.87-1.876 1.937a.3.3 0 0 0 .001.019c-.005.162.017.678.406 1.39.509.932 1.424 1.806 2.72 2.6a.287.287 0 0 0 .259.04.305.305 0 0 0 .076-.036c1.296-.793 2.211-1.668 2.72-2.6.389-.712.41-1.228.406-1.39v-.018c0-1.069-.841-1.938-1.876-1.938-.556 0-1.25.307-1.415 1.004-.17-.701-.864-1.008-1.42-1.008Z" fill="url(#b)" fill-rule="nonzero"/><path d="M17.13 8.5a.292.292 0 0 0-.284-.002.27.27 0 0 0-.142.236v6.123a.27.27 0 0 0 .142.236.29.29 0 0 0 .284-.002l5.365-3.061a.27.27 0 0 0 .138-.234.27.27 0 0 0-.138-.235l-5.365-3.06Z" fill="url(#c)" fill-rule="nonzero"/><path d="M14.727 8.816c0-.131-.07-.252-.184-.313-.307-.167-.804.205-.804.667v9.128c-1.833-.898-3.953.482-3.953 2.348 0 .987.64 1.816 2.098 1.816 1.44 0 2.835-1.325 2.843-3.596V8.816Z" fill="url(#d)" fill-rule="nonzero"/></g></svg>