<svg id="Ready" xmlns="http://www.w3.org/2000/svg" viewBox="0 0 20 20"><title>Artboard 10</title><path d="M15.93,13h.44L18,11.37,14.41,7.78,13.14,9.05a5.56,5.56,0,0,1-2.19-2.19l1.27-1.27L8.63,2,7,3.63v.44C7,8.42,11.58,13,15.93,13Zm-8-9,.71-.71,2.29,2.29-1.1,1.1L10,7a6.63,6.63,0,0,0,3,3l.3.15,1.1-1.1,2.29,2.29-.71.71h-.06c-3.77,0-8-4.24-8-8Z"/><path d="M10.74,18h.48L13,16.22,9.58,12.81,8.2,14.19A6.26,6.26,0,0,1,5.73,11.8l1.39-1.39L3.78,7,2,8.78v.48A8.85,8.85,0,0,0,10.74,18ZM3,9.19l.78-.78,1.92,2-1.2,1.2.17.32a7.4,7.4,0,0,0,3.39,3.32l.32.17,1.2-1.2,2,2-.78.78h-.07A7.8,7.8,0,0,1,3,9.26Z"/></svg>