<svg id="Ready" xmlns="http://www.w3.org/2000/svg" viewBox="0 0 20 20"><title>Artboard 8</title><path d="M8.14,14.05a5.56,5.56,0,0,1-2.19-2.19l1.27-1.27L3.63,7,2,8.63v.44C2,13.42,6.58,18,10.93,18h.44L13,16.37,9.41,12.78Zm2.85,3h-.06c-3.77,0-8-4.24-8-8V9l.71-.71,2.29,2.29-1.1,1.1L5,12a6.63,6.63,0,0,0,3,3l.3.15,1.1-1.1,2.29,2.29Z"/><path d="M9,2V3a8.5,8.5,0,0,1,8,8h1A9.5,9.5,0,0,0,9,2Z"/><path d="M9,5V6a5.49,5.49,0,0,1,5,5h1A6.5,6.5,0,0,0,9,5Z"/><path d="M10.95,11h1A3.49,3.49,0,0,0,9,8v1A2.5,2.5,0,0,1,10.95,11Z"/></svg>