<svg id="ready" xmlns="http://www.w3.org/2000/svg" viewBox="0 0 20 20"><title>Megaicons_work_16_1.8_cp</title><path d="M17,8H16V4a2,2,0,0,0-2-2H3A2,2,0,0,0,1,4v6a2,2,0,0,0,2,2H4v4a2,2,0,0,0,2,2H17a2,2,0,0,0,2-2V10A2,2,0,0,0,17,8ZM3,3H14a1,1,0,0,1,1,1V5H2V4A1,1,0,0,1,3,3ZM2,10V6H15v4a1,1,0,0,1-1,1H3A1,1,0,0,1,2,10Zm16,6a1,1,0,0,1-1,1H6a1,1,0,0,1-1-1V12h9a2,2,0,0,0,2-2V9h1a1,1,0,0,1,1,1Z"/><rect x="6" y="14.99" width="2" height="1"/><rect x="15" y="14.99" width="2" height="1"/><rect x="12" y="14.99" width="2" height="1"/><rect x="9" y="14.99" width="2" height="1"/></svg>