<svg id="ready" xmlns="http://www.w3.org/2000/svg" viewBox="0 0 20 20"><title>Megaicons_work_16_1.8_cp</title><path d="M12.58,14.54,10.48,18h-1L7.41,14.55,8.32,14l1.14,2.18V9h1.06v7.16L11.67,14Zm3.27-6A6,6,0,0,0,10,3,6,6,0,0,0,4.13,9v.54a3.22,3.22,0,0,0,0,6.44H6V14.94H4.13a2.09,2.09,0,0,1-2.07-2.16,2.09,2.09,0,0,1,2.07-2.16H5.2V9a4.92,4.92,0,0,1,4.8-5,4.92,4.92,0,0,1,4.8,5v.53h.53a2.63,2.63,0,0,1,2.6,2.7,2.63,2.63,0,0,1-2.6,2.7H14V16h1.33A3.69,3.69,0,0,0,19,12.24,3.7,3.7,0,0,0,15.85,8.52Z"/></svg>