<svg id="Ready" xmlns="http://www.w3.org/2000/svg" viewBox="0 0 20 20"><title>Artboard 19</title><path d="M14.5,11a3,3,0,1,0-3-3A3,3,0,0,0,14.5,11Zm0-5a2,2,0,1,1-2,2A2,2,0,0,1,14.5,6Z"/><path d="M6,8A3,3,0,1,0,3,5,3,3,0,0,0,6,8ZM6,3A2,2,0,1,1,4,5,2,2,0,0,1,6,3Z"/><path d="M17.47,12.67l-.25-.12A6.68,6.68,0,0,0,14.5,12a6.44,6.44,0,0,0-2.73.55l-.24.12L11,18h7ZM12.06,17l.4-3.65a5.89,5.89,0,0,1,2-.35,6.08,6.08,0,0,1,2,.35l.4,3.65Z"/><path d="M2,10l1,8H9l1-8A9.37,9.37,0,0,0,6,9,9.31,9.31,0,0,0,2,10Zm6.12,7H3.81l-.73-6.39A6.68,6.68,0,0,1,6,10a6.78,6.78,0,0,1,2.95.61Z"/></svg>