<svg id="Ready" xmlns="http://www.w3.org/2000/svg" viewBox="0 0 20 20"><title>Artboard 20</title><path d="M13.25,3A3.78,3.78,0,0,0,10,4.82,3.78,3.78,0,0,0,6.75,3C4.6,3,3,5.18,3,7.13a3.42,3.42,0,0,0,.49,1.77c1.2,2,5,7.64,5.15,7.88l.15.22H11.3l.15-.22c.16-.24,4-5.83,5.1-7.92A4.14,4.14,0,0,0,17,7.13C17,5.18,15.4,3,13.25,3Zm2.41,5.4c-.94,1.81-4.16,6.53-4.89,7.59H9.32c-.73-1.09-3.92-5.87-5-7.62A2.42,2.42,0,0,1,4,7.13C4,5.71,5.23,4,6.75,4A2.73,2.73,0,0,1,9.42,6h1.15a2.73,2.73,0,0,1,2.67-2C14.77,4,16,5.71,16,7.13A3.14,3.14,0,0,1,15.66,8.4Z"/></svg>