<svg id="Ready" xmlns="http://www.w3.org/2000/svg" viewBox="0 0 20 20"><title>Artboard 21</title><path d="M18,9.27l-.75-.66A9.76,9.76,0,0,1,10,12,9.7,9.7,0,0,1,2.75,8.63L2,9.3a12.64,12.64,0,0,0,1.45,1.36l-1.2,1.65.81.59,1.2-1.65a10.49,10.49,0,0,0,2,1l-.63,1.94,1,.31.63-1.94A10.41,10.41,0,0,0,9.51,13v2h1V13a10.41,10.41,0,0,0,2.26-.36l.63,1.94,1-.31-.63-1.94a10.49,10.49,0,0,0,2-1L17,12.9l.81-.59-1.2-1.65A12.81,12.81,0,0,0,18,9.27Z"/><path d="M5.25,7.26a9.61,9.61,0,0,1,9.51,0l.5-.87a10.63,10.63,0,0,0-10.51,0Z"/></svg>