<svg id="ready" xmlns="http://www.w3.org/2000/svg" viewBox="0 0 20 20"><title>Megaicons_work_16_1.8_cp</title><path d="M17,2l-2.4,1.6a2.59,2.59,0,0,1-2.51.27L8.32,2.28a3.59,3.59,0,0,0-3.55.42L2,4.78,2,17l1,1,2.36-1.57a2.58,2.58,0,0,1,2.51-.27l3.62,1.55a3.59,3.59,0,0,0,3.76-.6L18,14.74,18,3ZM4.8,15.61,3.05,16.86,3,16.8V5.28L5.37,3.51A2.54,2.54,0,0,1,6,3.16v11.9A3.55,3.55,0,0,0,4.8,15.61Zm3.48-.38A3.54,3.54,0,0,0,7,15V3a2.54,2.54,0,0,1,.91.19L11.7,4.81l.31.11V16.82l-.11,0Zm8.7-.95-2.37,2.07A2.56,2.56,0,0,1,13,17V5.09a3.6,3.6,0,0,0,2.17-.66l1.74-1.25.05.05Z"/></svg>