<svg xmlns="http://www.w3.org/2000/svg" viewBox="0 0 45 20"><defs><style>.cls-1{font-size:3px;font-family:GraphikLCG-Regular, Graphik LCG;}.cls-1,.cls-7{letter-spacing:0.01em;}.cls-2{letter-spacing:-0.01em;}.cls-3{letter-spacing:0.02em;}.cls-4{letter-spacing:0.01em;}.cls-5{letter-spacing:0.01em;}.cls-6{letter-spacing:0em;}</style></defs><title>Artboard 36</title><g id="Ready"><path d="M13.5,13A2.5,2.5,0,1,0,16,15.5V4.09L7.56,2,7,2.42v9.09A2.48,2.48,0,0,0,5.5,11,2.5,2.5,0,1,0,8,13.5V6.6l7,1.75v5.17A2.48,2.48,0,0,0,13.5,13Zm0,4A1.5,1.5,0,1,1,15,15.5,1.5,1.5,0,0,1,13.5,17Zm-8-2A1.5,1.5,0,1,1,7,13.5,1.5,1.5,0,0,1,5.5,15ZM8,5.56V3.12l7,1.75V7.32Z"/><polygon points="21.5 8 20.5 8 20.5 9.5 19 9.5 19 10.5 20.5 10.5 20.5 12 21.5 12 21.5 10.5 23 10.5 23 9.5 21.5 9.5 21.5 8"/><path d="M26,16H42V4H26ZM27,5H41V15H27Zm4.59,1.72L31,7.18v5.68l.59.46,5.91-2.57V9.29ZM36.5,10.1l-4.5,2V8l4.5,2Z"/></g><g id="Text"><text class="cls-1" transform="translate(22.98 -139)">MNP<tspan x="0" y="30">Mobile-internet</tspan><tspan x="0" y="60">M</tspan><tspan class="cls-2" x="2.63" y="60">o</tspan><tspan x="4.47" y="60">vi</tspan><tspan class="cls-3" x="6.97" y="60">e</tspan><tspan x="8.75" y="60">s</tspan><tspan x="0" y="90">Multi-account</tspan><tspan x="0" y="120">Music</tspan><tspan x="0" y="180">Nothing</tspan><tspan x="0" y="210">O-plat</tspan><tspan class="cls-4" x="9.17" y="210">e</tspan><tspan class="cls-5" x="10.92" y="210">z</tspan><tspan x="12.45" y="210">h</tspan><tspan class="cls-4"><tspan x="0" y="240">P</tspan><tspan class="cls-6" x="1.79" y="240">a</tspan><tspan class="cls-7" x="3.44" y="240">y_number</tspan><tspan x="0" y="270">P</tspan><tspan class="cls-6" x="1.79" y="270">a</tspan><tspan class="cls-7" x="3.44" y="270">y_friend</tspan></tspan></text></g></svg>