<?xml version="1.0" encoding="utf-8"?>
<!-- Generator: Adobe Illustrator 21.1.0, SVG Export Plug-In . SVG Version: 6.00 Build 0)  -->
<svg version="1.1" xmlns="http://www.w3.org/2000/svg" xmlns:xlink="http://www.w3.org/1999/xlink" x="0px" y="0px"
	 viewBox="0 0 20 20" enable-background="new 0 0 20 20" xml:space="preserve">
<g id="Ready">
	<path d="M13,9h-2v3h-1v1h1v1h-1v1h1v1h1v-1h1.5v-1H12v-1h1c1.1,0,2-0.9,2-2S14.1,9,13,9z M13,12h-1v-2h1c0.6,0,1,0.4,1,1
		S13.6,12,13,12z M13,7V2H3v16h9.5c3,0,5.5-2.5,5.5-5.5C18,9.6,15.8,7.3,13,7z M4,17V3h8v4c-2.8,0.3-5,2.6-5,5.5
		C7,14.4,7.9,16,9.3,17H4z M12.5,17C10,17,8,15,8,12.5S10,8,12.5,8s4.5,2,4.5,4.5S15,17,12.5,17z M10,5H6V4h4V5z"/>
</g>
<g id="Text">
</g>
</svg>
