<?xml version="1.0" encoding="utf-8"?>
<!-- Generator: Adobe Illustrator 23.0.1, SVG Export Plug-In . SVG Version: 6.00 Build 0)  -->
<svg version="1.1" id="Layer_1" xmlns="http://www.w3.org/2000/svg" xmlns:xlink="http://www.w3.org/1999/xlink" x="0px" y="0px"
	 viewBox="0 0 20 20" style="enable-background:new 0 0 20 20;" xml:space="preserve">
<path id="ready" d="M13,7V4c0-1.1-0.9-2-2-2H5C3.9,2,3,2.9,3,4v12c0,1.1,0.9,2,2,2h7.5c3,0,5.5-2.5,5.5-5.5C18,9.6,15.8,7.3,13,7z
	 M5,17c-0.6,0-1-0.4-1-1V4c0-0.6,0.4-1,1-1h6c0.6,0,1,0.4,1,1v3c-2.8,0.3-5,2.6-5,5.5C7,14.4,7.9,16,9.3,17H5z M12.5,17
	C10,17,8,15,8,12.5S10,8,12.5,8s4.5,2,4.5,4.5S15,17,12.5,17z M6,4h4v1H6V4z M13,9h-2v3h-1v1h1v1h-1v1h1v1h1v-1h2v-1h-2v-1h1
	c1.1,0,2-0.9,2-2S14.1,9,13,9z M13,12h-1v-2h1c0.6,0,1,0.4,1,1S13.6,12,13,12z"/>
</svg>
