<?xml version="1.0" encoding="utf-8"?>
<!-- Generator: Adobe Illustrator 23.0.1, SVG Export Plug-In . SVG Version: 6.00 Build 0)  -->
<svg version="1.1" id="Layer_1" xmlns="http://www.w3.org/2000/svg" xmlns:xlink="http://www.w3.org/1999/xlink" x="0px" y="0px"
	 viewBox="0 0 20 20" style="enable-background:new 0 0 20 20;" xml:space="preserve">
<path d="M9.1,8.6L3.6,5.4L3.4,4.3L4.9,3l7.8,2.5l2-1.7c0.8-0.7,2.1-0.6,2.8,0.2c0.7,0.8,0.6,2.1-0.2,2.8l-2,1.7l1.1,8.1L14.9,18
	l-1-0.4l-2.2-6l-3.2,2.7l0.1,2.5L7.1,18l-1-0.4l-0.8-3.2l-3-1.4L2,11.9l1.5-1.3L6,11.2L9.1,8.6z M15.4,16.2l-1.1-8.1l2.4-2
	c0.4-0.3,0.5-1,0.1-1.4c-0.3-0.4-1-0.5-1.4-0.1l-2.4,2L5.2,4.2L4.5,4.7l6.4,3.7l-4.6,3.9l-2.4-0.6l-0.7,0.6l3.1,1.3L7,16.8l0.7-0.6
	l-0.1-2.5l4.7-3.9l2.5,6.9L15.4,16.2z"/>
</svg>
