<svg id="Ready" xmlns="http://www.w3.org/2000/svg" viewBox="0 0 20 20"><title>Artboard 47</title><polygon points="13 13.38 11.87 12.16 11.13 12.84 12.68 14.5 13.31 14.5 16.19 11.46 15.46 10.77 13 13.38"/><path d="M19,12.5a5.49,5.49,0,0,0-7-5.28,5.5,5.5,0,1,0-10.6,2.3L.5,11.43,1.71,13l2.22-.6A5.44,5.44,0,0,0,8,12.78a5.49,5.49,0,0,0,8.06,4.58l2.22.6,1.21-1.52-.88-1.92A5.45,5.45,0,0,0,19,12.5ZM4.25,11.39l-.18-.1-2,.53-.42-.53.81-1.77-.09-.21a4.51,4.51,0,1,1,1.86,2.07Zm13.67,5.43-2-.53-.18.1A4.49,4.49,0,0,1,9,12.5s0-.07,0-.11A5.51,5.51,0,0,0,11.94,8.3a4.49,4.49,0,0,1,5.68,6l-.09.21.81,1.77Z"/><circle cx="6.5" cy="10" r="0.75"/><path d="M6.5,4.5a2,2,0,0,0-2,2h1a1,1,0,1,1,1,1H6v1h.5a2,2,0,0,0,0-4Z"/></svg>