<svg id="Ready" xmlns="http://www.w3.org/2000/svg" viewBox="0 0 20 20"><title>Artboard 54</title><path d="M10,7a3,3,0,1,0,3,3A3,3,0,0,0,10,7Zm0,5a2,2,0,1,1,2-2A2,2,0,0,1,10,12Zm8-3.38L15.89,7.56l.75-2.24-2-2-2.24.75L11.38,2H8.62L7.56,4.11,5.32,3.37l-2,2,.75,2.24L2,8.62v2.76l2.11,1.06-.75,2.24,2,2,2.24-.75L8.62,18h2.76l1.06-2.11,2.24.75,2-2-.75-2.24L18,11.38Zm-1,2.14-2,1-.2.47.72,2.16-1.08,1.08-2.16-.72-.47.2-1,2H9.24l-1-2-.47-.2-2.16.72L4.51,14.41l.72-2.16L5,11.78l-2-1V9.24l2-1,.2-.47L4.51,5.59,5.59,4.51l2.16.72L8.22,5l1-2h1.52l1,2,.47.2,2.16-.72,1.08,1.08-.72,2.16.2.47,2,1Z"/></svg>