<svg id="ready" xmlns="http://www.w3.org/2000/svg" viewBox="0 0 20 20"><title>Megaicons_work_16_1.8_cp</title><path d="M16.9,8h0a1.3,1.3,0,0,1-.64-1.54l.37-1.19L14.69,3.37l-1.19.37A1.31,1.31,0,0,1,12,3.1L11.37,2H8.63L8,3.1a1.3,1.3,0,0,1-1.54.64L5.31,3.37,3.37,5.31,3.74,6.5A1.3,1.3,0,0,1,3.1,8L2,8.62v2.75l1.1.58a1.3,1.3,0,0,1,.64,1.54l-.37,1.19,1.94,1.94,1.19-.37A1.31,1.31,0,0,1,8,16.89L8.63,18h2.75l.58-1.1a1.31,1.31,0,0,1,1.54-.64l1.19.37,1.94-1.94-.37-1.19a1.3,1.3,0,0,1,.64-1.54l1.1-.58V8.62ZM10,12.49A2.5,2.5,0,1,1,12.5,10,2.5,2.5,0,0,1,10,12.49Z"/></svg>