<svg id="Ready" xmlns="http://www.w3.org/2000/svg" viewBox="0 0 20 20"><title>Artboard 57</title><path d="M16.55,7.34l1.2-1.65-.81-.59-1.2,1.65a10.49,10.49,0,0,0-2-1l.63-1.94-1-.31-.63,1.94A10.41,10.41,0,0,0,10.49,5V3h-1V5a10.41,10.41,0,0,0-2.26.36L6.6,3.46l-1,.31L6.28,5.7a10.49,10.49,0,0,0-2,1L3,5.1l-.81.59,1.2,1.65A12.8,12.8,0,0,0,2,8.73l.75.66A9.76,9.76,0,0,1,10,6a9.7,9.7,0,0,1,7.26,3.36L18,8.7A12.64,12.64,0,0,0,16.55,7.34Z"/><path d="M10,8a3,3,0,1,0,3,3A3,3,0,0,0,10,8Zm0,5a2,2,0,1,1,2-2A2,2,0,0,1,10,13Z"/></svg>