<?xml version="1.0" encoding="utf-8"?>
<!-- Generator: Adobe Illustrator 21.1.0, SVG Export Plug-In . SVG Version: 6.00 Build 0)  -->
<svg version="1.1" xmlns="http://www.w3.org/2000/svg" xmlns:xlink="http://www.w3.org/1999/xlink" x="0px" y="0px"
	 viewBox="0 0 20 20" enable-background="new 0 0 20 20" xml:space="preserve">
<g id="Ready">
	<path d="M6,7c-1.7,0-3,1.3-3,3s1.3,3,3,3c0.9,0,1.7-0.4,2.2-1l3,1.9C11.1,14.2,11,14.6,11,15c0,1.7,1.3,3,3,3s3-1.3,3-3s-1.3-3-3-3
		c-0.9,0-1.7,0.4-2.2,1l-3-1.9C8.9,10.8,9,10.4,9,10c0-0.4-0.1-0.8-0.2-1.1l3-1.9c0.5,0.6,1.3,1,2.2,1c1.7,0,3-1.3,3-3s-1.3-3-3-3
		s-3,1.3-3,3c0,0.4,0.1,0.8,0.2,1.1L8.2,8C7.7,7.4,6.9,7,6,7z M14,13c1.1,0,2,0.9,2,2s-0.9,2-2,2s-2-0.9-2-2S12.9,13,14,13z M14,3
		c1.1,0,2,0.9,2,2s-0.9,2-2,2s-2-0.9-2-2S12.9,3,14,3z M6,12c-1.1,0-2-0.9-2-2s0.9-2,2-2s2,0.9,2,2S7.1,12,6,12z"/>
</g>
<g id="Text">
</g>
</svg>
