<?xml version="1.0" encoding="utf-8"?>
<!-- Generator: Adobe Illustrator 21.1.0, SVG Export Plug-In . SVG Version: 6.00 Build 0)  -->
<svg version="1.1" xmlns="http://www.w3.org/2000/svg" xmlns:xlink="http://www.w3.org/1999/xlink" x="0px" y="0px"
	 viewBox="0 0 20 20" enable-background="new 0 0 20 20" xml:space="preserve">
<g id="Ready">
	<path d="M18,8.5C18,4.9,15.1,2,11.5,2H11v7h7V8.5z M12,8V3c2.6,0.2,4.7,2.3,5,5H12z"/>
	<path d="M9.5,4C7.8,4,6.1,4.7,4.9,5.9C3.7,7.1,3,8.8,3,10.5C3,14.1,5.9,17,9.5,17c1.7,0,3.4-0.7,4.6-1.9l0.4-0.4l0,0
		c1-1.2,1.6-2.7,1.6-4.2V10h-6V4H9.5z M9.5,16c-3,0-5.5-2.5-5.5-5.5C4,9,4.6,7.6,5.6,6.6C6.5,5.7,7.7,5.1,9,5v5.7l4,4
		C12,15.6,10.8,16,9.5,16z M13.7,14l-3-3H15C14.9,12.1,14.4,13.1,13.7,14z"/>
</g>
<g id="Text">
</g>
</svg>
