<?xml version="1.0" encoding="utf-8"?>
<!-- Generator: Adobe Illustrator 25.0.1, SVG Export Plug-In . SVG Version: 6.00 Build 0)  -->
<svg xmlns="http://www.w3.org/2000/svg" xmlns:xlink="http://www.w3.org/1999/xlink" x="0px" y="0px"
	 viewBox="0 0 32 32" xml:space="preserve">
<path d="M10,7v1h2V7c0-0.6,0.4-1,1-1h12c0.6,0,1,0.4,1,1v12c0,0.6-0.4,1-1,1h-1v2h1c1.7,0,3-1.3,3-3V7c0-1.7-1.3-3-3-3H13
	C11.3,4,10,5.3,10,7z M19,10H7c-1.7,0-3,1.3-3,3v12c0,1.7,1.3,3,3,3h12c1.7,0,3-1.3,3-3V13C22,11.3,20.7,10,19,10z M20,25
	c0,0.6-0.4,1-1,1H7c-0.6,0-1-0.4-1-1V13c0-0.6,0.4-1,1-1h12c0.6,0,1,0.4,1,1V25z"/>
</svg>
